ISO-10303-21;
HEADER;
FILE_DESCRIPTION(('CAx-IF Rec.Pracs.---Model Styling and Organization---1.5---2016-08-15','CAx-IF Rec.Pracs.---Geometric and Assembly Validation Properties---4.4---2016-08-17','CAx-IF Rec.Pracs.---User Defined Attributes---1.5---2016-08-15','CAx-IF Rec.Pracs.---External References---2.1---2005-01-19'),'2;1');
FILE_NAME('1025587.2.1.step','2026-09-22T17:48:26',('Unspecified'),('Unspecified'),'CAD Exchanger 3.10.2 (cadexchanger.com)','Unspecified','');
FILE_SCHEMA(('AUTOMOTIVE_DESIGN { 1 0 10303 214 1 1 1 1 }'));
ENDSEC;
DATA;
#1=APPLICATION_CONTEXT('core data for automotive mechanical design processes');
#2=APPLICATION_PROTOCOL_DEFINITION('international standard','automotive_design',2000,#1);
#3=PRODUCT_CONTEXT('',#1,'mechanical');
#4=PRODUCT('ASSEMBLY','ASSEMBLY',$,(#3));
#5=PRODUCT_DEFINITION_FORMATION('',$,#4);
#6=PRODUCT_DEFINITION_CONTEXT('part definition',#1,'design');
#7=PRODUCT_DEFINITION('design',$,#5,#6);
#8=PRODUCT_DEFINITION_SHAPE('',$,#7);
#9=AXIS2_PLACEMENT_3D('',#10,#11,#12);
#10=CARTESIAN_POINT('',(0.0,0.0,0.0));
#11=DIRECTION('',(0.0,0.0,1.0));
#12=DIRECTION('',(1.0,0.0,0.0));
#13=AXIS2_PLACEMENT_3D('',#14,#15,#16);
#14=CARTESIAN_POINT('',(0.0,0.0,0.1));
#15=DIRECTION('',(0.0,0.0,1.0));
#16=DIRECTION('',(1.0,0.0,0.0));
#17=(GEOMETRIC_REPRESENTATION_CONTEXT(3)GLOBAL_UNIT_ASSIGNED_CONTEXT((#18,#19,#20))REPRESENTATION_CONTEXT('',''));
#18=(LENGTH_UNIT()NAMED_UNIT(*)SI_UNIT(.MILLI.,.METRE.));
#19=(NAMED_UNIT(*)PLANE_ANGLE_UNIT()SI_UNIT($,.RADIAN.));
#20=(NAMED_UNIT(*)SI_UNIT($,.STERADIAN.)SOLID_ANGLE_UNIT());
#21=SHAPE_REPRESENTATION('',(#9,#13),#17);
#22=SHAPE_DEFINITION_REPRESENTATION(#8,#21);
#23=PRODUCT_RELATED_PRODUCT_CATEGORY('assembly',$,(#4));
#24=MANIFOLD_SOLID_BREP('',#25);
#25=CLOSED_SHELL('',(#26,#66,#97,#128,#150,#162));
#26=ADVANCED_FACE('',(#27),#61,.T.);
#27=FACE_BOUND('',#28,.T.);
#28=EDGE_LOOP('',(#29,#39,#47,#55));
#29=ORIENTED_EDGE('',*,*,#30,.T.);
#30=EDGE_CURVE('',#31,#33,#35,.T.);
#31=VERTEX_POINT('',#32);
#32=CARTESIAN_POINT('',(-2.15,1.5,0.0));
#33=VERTEX_POINT('',#34);
#34=CARTESIAN_POINT('',(-2.15,1.5,14.0));
#35=LINE('',#36,#37);
#36=CARTESIAN_POINT('',(-2.15,1.5,0.0));
#37=VECTOR('',#38,1.0);
#38=DIRECTION('',(0.0,0.0,1.0));
#39=ORIENTED_EDGE('',*,*,#40,.T.);
#40=EDGE_CURVE('',#33,#41,#43,.T.);
#41=VERTEX_POINT('',#42);
#42=CARTESIAN_POINT('',(7.25,1.5,14.0));
#43=LINE('',#44,#45);
#44=CARTESIAN_POINT('',(-2.15,1.5,14.0));
#45=VECTOR('',#46,1.0);
#46=DIRECTION('',(1.0,0.0,0.0));
#47=ORIENTED_EDGE('',*,*,#48,.T.);
#48=EDGE_CURVE('',#41,#49,#51,.F.);
#49=VERTEX_POINT('',#50);
#50=CARTESIAN_POINT('',(7.25,1.5,0.0));
#51=LINE('',#52,#53);
#52=CARTESIAN_POINT('',(7.25,1.5,0.0));
#53=VECTOR('',#54,1.0);
#54=DIRECTION('',(0.0,0.0,1.0));
#55=ORIENTED_EDGE('',*,*,#56,.T.);
#56=EDGE_CURVE('',#49,#31,#57,.F.);
#57=LINE('',#58,#59);
#58=CARTESIAN_POINT('',(-2.15,1.5,0.0));
#59=VECTOR('',#60,1.0);
#60=DIRECTION('',(1.0,0.0,0.0));
#61=PLANE('',#62);
#62=AXIS2_PLACEMENT_3D('',#63,#64,#65);
#63=CARTESIAN_POINT('',(-2.15,1.5,0.0));
#64=DIRECTION('',(0.0,1.0,0.0));
#65=DIRECTION('',(1.0,0.0,0.0));
#66=ADVANCED_FACE('',(#67),#92,.T.);
#67=FACE_BOUND('',#68,.T.);
#68=EDGE_LOOP('',(#69,#70,#78,#86));
#69=ORIENTED_EDGE('',*,*,#48,.F.);
#70=ORIENTED_EDGE('',*,*,#71,.T.);
#71=EDGE_CURVE('',#41,#72,#74,.T.);
#72=VERTEX_POINT('',#73);
#73=CARTESIAN_POINT('',(7.25,-1.5,14.0));
#74=LINE('',#75,#76);
#75=CARTESIAN_POINT('',(7.25,1.5,14.0));
#76=VECTOR('',#77,1.0);
#77=DIRECTION('',(0.0,-1.0,0.0));
#78=ORIENTED_EDGE('',*,*,#79,.T.);
#79=EDGE_CURVE('',#72,#80,#82,.F.);
#80=VERTEX_POINT('',#81);
#81=CARTESIAN_POINT('',(7.25,-1.5,0.0));
#82=LINE('',#83,#84);
#83=CARTESIAN_POINT('',(7.25,-1.5,0.0));
#84=VECTOR('',#85,1.0);
#85=DIRECTION('',(0.0,0.0,1.0));
#86=ORIENTED_EDGE('',*,*,#87,.T.);
#87=EDGE_CURVE('',#80,#49,#88,.F.);
#88=LINE('',#89,#90);
#89=CARTESIAN_POINT('',(7.25,1.5,0.0));
#90=VECTOR('',#91,1.0);
#91=DIRECTION('',(0.0,-1.0,0.0));
#92=PLANE('',#93);
#93=AXIS2_PLACEMENT_3D('',#94,#95,#96);
#94=CARTESIAN_POINT('',(7.25,1.5,0.0));
#95=DIRECTION('',(1.0,0.0,0.0));
#96=DIRECTION('',(0.0,-1.0,0.0));
#97=ADVANCED_FACE('',(#98),#123,.T.);
#98=FACE_BOUND('',#99,.T.);
#99=EDGE_LOOP('',(#100,#101,#109,#117));
#100=ORIENTED_EDGE('',*,*,#79,.F.);
#101=ORIENTED_EDGE('',*,*,#102,.T.);
#102=EDGE_CURVE('',#72,#103,#105,.T.);
#103=VERTEX_POINT('',#104);
#104=CARTESIAN_POINT('',(-2.15,-1.5,14.0));
#105=LINE('',#106,#107);
#106=CARTESIAN_POINT('',(7.25,-1.5,14.0));
#107=VECTOR('',#108,1.0);
#108=DIRECTION('',(-1.0,0.0,0.0));
#109=ORIENTED_EDGE('',*,*,#110,.T.);
#110=EDGE_CURVE('',#103,#111,#113,.F.);
#111=VERTEX_POINT('',#112);
#112=CARTESIAN_POINT('',(-2.15,-1.5,0.0));
#113=LINE('',#114,#115);
#114=CARTESIAN_POINT('',(-2.15,-1.5,0.0));
#115=VECTOR('',#116,1.0);
#116=DIRECTION('',(0.0,0.0,1.0));
#117=ORIENTED_EDGE('',*,*,#118,.T.);
#118=EDGE_CURVE('',#111,#80,#119,.F.);
#119=LINE('',#120,#121);
#120=CARTESIAN_POINT('',(7.25,-1.5,0.0));
#121=VECTOR('',#122,1.0);
#122=DIRECTION('',(-1.0,0.0,0.0));
#123=PLANE('',#124);
#124=AXIS2_PLACEMENT_3D('',#125,#126,#127);
#125=CARTESIAN_POINT('',(7.25,-1.5,0.0));
#126=DIRECTION('',(0.0,-1.0,0.0));
#127=DIRECTION('',(-1.0,0.0,0.0));
#128=ADVANCED_FACE('',(#129),#145,.T.);
#129=FACE_BOUND('',#130,.T.);
#130=EDGE_LOOP('',(#131,#132,#138,#139));
#131=ORIENTED_EDGE('',*,*,#110,.F.);
#132=ORIENTED_EDGE('',*,*,#133,.T.);
#133=EDGE_CURVE('',#103,#33,#134,.T.);
#134=LINE('',#135,#136);
#135=CARTESIAN_POINT('',(-2.15,-1.5,14.0));
#136=VECTOR('',#137,1.0);
#137=DIRECTION('',(0.0,1.0,0.0));
#138=ORIENTED_EDGE('',*,*,#30,.F.);
#139=ORIENTED_EDGE('',*,*,#140,.T.);
#140=EDGE_CURVE('',#31,#111,#141,.F.);
#141=LINE('',#142,#143);
#142=CARTESIAN_POINT('',(-2.15,-1.5,0.0));
#143=VECTOR('',#144,1.0);
#144=DIRECTION('',(0.0,1.0,0.0));
#145=PLANE('',#146);
#146=AXIS2_PLACEMENT_3D('',#147,#148,#149);
#147=CARTESIAN_POINT('',(-2.15,-1.5,0.0));
#148=DIRECTION('',(-1.0,0.0,0.0));
#149=DIRECTION('',(0.0,1.0,0.0));
#150=ADVANCED_FACE('',(#151),#157,.T.);
#151=FACE_BOUND('',#152,.T.);
#152=EDGE_LOOP('',(#153,#154,#155,#156));
#153=ORIENTED_EDGE('',*,*,#56,.F.);
#154=ORIENTED_EDGE('',*,*,#87,.F.);
#155=ORIENTED_EDGE('',*,*,#118,.F.);
#156=ORIENTED_EDGE('',*,*,#140,.F.);
#157=PLANE('',#158);
#158=AXIS2_PLACEMENT_3D('',#159,#160,#161);
#159=CARTESIAN_POINT('',(2.55,0.0,-1.387778781E-17));
#160=DIRECTION('',(2.114953954E-34,-3.164424862E-50,-1.0));
#161=DIRECTION('',(-1.0,0.0,-2.114953954E-34));
#162=ADVANCED_FACE('',(#163),#169,.F.);
#163=FACE_BOUND('',#164,.T.);
#164=EDGE_LOOP('',(#165,#166,#167,#168));
#165=ORIENTED_EDGE('',*,*,#133,.F.);
#166=ORIENTED_EDGE('',*,*,#102,.F.);
#167=ORIENTED_EDGE('',*,*,#71,.F.);
#168=ORIENTED_EDGE('',*,*,#40,.F.);
#169=PLANE('',#170);
#170=AXIS2_PLACEMENT_3D('',#171,#172,#173);
#171=CARTESIAN_POINT('',(2.55,0.0,14.0));
#172=DIRECTION('',(2.114953954E-34,-3.164424862E-50,-1.0));
#173=DIRECTION('',(-1.0,0.0,-2.114953954E-34));
#174=(GEOMETRIC_REPRESENTATION_CONTEXT(3)GLOBAL_UNCERTAINTY_ASSIGNED_CONTEXT((#175))GLOBAL_UNIT_ASSIGNED_CONTEXT((#18,#19,#20))REPRESENTATION_CONTEXT('',''));
#175=UNCERTAINTY_MEASURE_WITH_UNIT(LENGTH_MEASURE(1.0E-07),#18,'','maximum tolerance');
#176=ADVANCED_BREP_SHAPE_REPRESENTATION('',(#24,#9),#174);
#177=(REPRESENTATION_RELATIONSHIP('',$,#176,#21)REPRESENTATION_RELATIONSHIP_WITH_TRANSFORMATION(#178)SHAPE_REPRESENTATION_RELATIONSHIP());
#178=ITEM_DEFINED_TRANSFORMATION('',$,#9,#13);
#179=PRODUCT('Body','Body',$,(#3));
#180=PRODUCT_DEFINITION_FORMATION('',$,#179);
#181=PRODUCT_DEFINITION('design',$,#180,#6);
#182=NEXT_ASSEMBLY_USAGE_OCCURRENCE('instance_1','','',#7,#181,$);
#183=PRODUCT_DEFINITION_SHAPE('',$,#182);
#184=CONTEXT_DEPENDENT_SHAPE_REPRESENTATION(#177,#183);
#185=PRODUCT_DEFINITION_SHAPE('',$,#181);
#186=SHAPE_DEFINITION_REPRESENTATION(#185,#176);
#187=PRODUCT_RELATED_PRODUCT_CATEGORY('part',$,(#179));
#188=STYLED_ITEM('',(#189),#24);
#189=PRESENTATION_STYLE_ASSIGNMENT((#190));
#190=SURFACE_STYLE_USAGE(.BOTH.,#191);
#191=SURFACE_SIDE_STYLE('',(#192));
#192=SURFACE_STYLE_FILL_AREA(#193);
#193=FILL_AREA_STYLE('',(#195));
#194=COLOUR_RGB('',0.300000012,0.300000012,0.300000012);
#195=FILL_AREA_STYLE_COLOUR('',#194);
#196=MECHANICAL_DESIGN_GEOMETRIC_PRESENTATION_REPRESENTATION('',(#188),#174);
#197=MANIFOLD_SOLID_BREP('',#198);
#198=CLOSED_SHELL('',(#199,#232,#241));
#199=ADVANCED_FACE('',(#200),#227,.T.);
#200=FACE_BOUND('',#201,.T.);
#201=EDGE_LOOP('',(#202,#211,#219,#226));
#202=ORIENTED_EDGE('',*,*,#203,.T.);
#203=EDGE_CURVE('',#204,#204,#206,.F.);
#204=VERTEX_POINT('',#205);
#205=CARTESIAN_POINT('',(0.255,-6.245698676E-17,0.1));
#206=CIRCLE('',#207,0.255);
#207=AXIS2_PLACEMENT_3D('',#208,#209,#210);
#208=CARTESIAN_POINT('',(0.0,0.0,0.1));
#209=DIRECTION('',(0.0,0.0,1.0));
#210=DIRECTION('',(1.0,0.0,0.0));
#211=ORIENTED_EDGE('',*,*,#212,.T.);
#212=EDGE_CURVE('',#204,#213,#215,.F.);
#213=VERTEX_POINT('',#214);
#214=CARTESIAN_POINT('',(0.255,-6.245698676E-17,-5.0));
#215=LINE('',#216,#217);
#216=CARTESIAN_POINT('',(0.255,-6.245698676E-17,-5.0));
#217=VECTOR('',#218,1.0);
#218=DIRECTION('',(0.0,0.0,1.0));
#219=ORIENTED_EDGE('',*,*,#220,.T.);
#220=EDGE_CURVE('',#213,#213,#221,.T.);
#221=CIRCLE('',#222,0.255);
#222=AXIS2_PLACEMENT_3D('',#223,#224,#225);
#223=CARTESIAN_POINT('',(0.0,0.0,-5.0));
#224=DIRECTION('',(0.0,0.0,1.0));
#225=DIRECTION('',(1.0,0.0,0.0));
#226=ORIENTED_EDGE('',*,*,#212,.F.);
#227=CYLINDRICAL_SURFACE('',#228,0.255);
#228=AXIS2_PLACEMENT_3D('',#229,#230,#231);
#229=CARTESIAN_POINT('',(0.0,0.0,-5.0));
#230=DIRECTION('',(0.0,0.0,1.0));
#231=DIRECTION('',(1.0,0.0,0.0));
#232=ADVANCED_FACE('',(#233),#236,.T.);
#233=FACE_BOUND('',#234,.T.);
#234=EDGE_LOOP('',(#235));
#235=ORIENTED_EDGE('',*,*,#203,.F.);
#236=PLANE('',#237);
#237=AXIS2_PLACEMENT_3D('',#238,#239,#240);
#238=CARTESIAN_POINT('',(0.0,0.0,0.1));
#239=DIRECTION('',(0.0,0.0,1.0));
#240=DIRECTION('',(1.0,0.0,0.0));
#241=ADVANCED_FACE('',(#242),#245,.F.);
#242=FACE_BOUND('',#243,.T.);
#243=EDGE_LOOP('',(#244));
#244=ORIENTED_EDGE('',*,*,#220,.F.);
#245=PLANE('',#246);
#246=AXIS2_PLACEMENT_3D('',#247,#248,#249);
#247=CARTESIAN_POINT('',(0.0,0.0,-5.0));
#248=DIRECTION('',(0.0,0.0,1.0));
#249=DIRECTION('',(1.0,0.0,0.0));
#250=MANIFOLD_SOLID_BREP('',#251);
#251=CLOSED_SHELL('',(#252,#285,#294));
#252=ADVANCED_FACE('',(#253),#280,.T.);
#253=FACE_BOUND('',#254,.T.);
#254=EDGE_LOOP('',(#255,#264,#272,#279));
#255=ORIENTED_EDGE('',*,*,#256,.T.);
#256=EDGE_CURVE('',#257,#257,#259,.F.);
#257=VERTEX_POINT('',#258);
#258=CARTESIAN_POINT('',(5.355,-6.245698676E-17,0.1));
#259=CIRCLE('',#260,0.255);
#260=AXIS2_PLACEMENT_3D('',#261,#262,#263);
#261=CARTESIAN_POINT('',(5.1,0.0,0.1));
#262=DIRECTION('',(0.0,0.0,1.0));
#263=DIRECTION('',(1.0,0.0,0.0));
#264=ORIENTED_EDGE('',*,*,#265,.T.);
#265=EDGE_CURVE('',#257,#266,#268,.F.);
#266=VERTEX_POINT('',#267);
#267=CARTESIAN_POINT('',(5.355,-6.245698676E-17,-5.0));
#268=LINE('',#269,#270);
#269=CARTESIAN_POINT('',(5.355,-6.245698676E-17,-5.0));
#270=VECTOR('',#271,1.0);
#271=DIRECTION('',(0.0,0.0,1.0));
#272=ORIENTED_EDGE('',*,*,#273,.T.);
#273=EDGE_CURVE('',#266,#266,#274,.T.);
#274=CIRCLE('',#275,0.255);
#275=AXIS2_PLACEMENT_3D('',#276,#277,#278);
#276=CARTESIAN_POINT('',(5.1,0.0,-5.0));
#277=DIRECTION('',(0.0,0.0,1.0));
#278=DIRECTION('',(1.0,0.0,0.0));
#279=ORIENTED_EDGE('',*,*,#265,.F.);
#280=CYLINDRICAL_SURFACE('',#281,0.255);
#281=AXIS2_PLACEMENT_3D('',#282,#283,#284);
#282=CARTESIAN_POINT('',(5.1,0.0,-5.0));
#283=DIRECTION('',(0.0,0.0,1.0));
#284=DIRECTION('',(1.0,0.0,0.0));
#285=ADVANCED_FACE('',(#286),#289,.T.);
#286=FACE_BOUND('',#287,.T.);
#287=EDGE_LOOP('',(#288));
#288=ORIENTED_EDGE('',*,*,#256,.F.);
#289=PLANE('',#290);
#290=AXIS2_PLACEMENT_3D('',#291,#292,#293);
#291=CARTESIAN_POINT('',(5.1,0.0,0.1));
#292=DIRECTION('',(0.0,0.0,1.0));
#293=DIRECTION('',(1.0,0.0,0.0));
#294=ADVANCED_FACE('',(#295),#298,.F.);
#295=FACE_BOUND('',#296,.T.);
#296=EDGE_LOOP('',(#297));
#297=ORIENTED_EDGE('',*,*,#273,.F.);
#298=PLANE('',#299);
#299=AXIS2_PLACEMENT_3D('',#300,#301,#302);
#300=CARTESIAN_POINT('',(5.1,0.0,-5.0));
#301=DIRECTION('',(0.0,0.0,1.0));
#302=DIRECTION('',(1.0,0.0,0.0));
#303=(GEOMETRIC_REPRESENTATION_CONTEXT(3)GLOBAL_UNCERTAINTY_ASSIGNED_CONTEXT((#304))GLOBAL_UNIT_ASSIGNED_CONTEXT((#18,#19,#20))REPRESENTATION_CONTEXT('',''));
#304=UNCERTAINTY_MEASURE_WITH_UNIT(LENGTH_MEASURE(1.0E-07),#18,'','maximum tolerance');
#305=ADVANCED_BREP_SHAPE_REPRESENTATION('',(#197,#250,#9),#303);
#306=(REPRESENTATION_RELATIONSHIP('',$,#305,#21)REPRESENTATION_RELATIONSHIP_WITH_TRANSFORMATION(#307)SHAPE_REPRESENTATION_RELATIONSHIP());
#307=ITEM_DEFINED_TRANSFORMATION('',$,#9,#9);
#308=PRODUCT('Leads','Leads',$,(#3));
#309=PRODUCT_DEFINITION_FORMATION('',$,#308);
#310=PRODUCT_DEFINITION('design',$,#309,#6);
#311=NEXT_ASSEMBLY_USAGE_OCCURRENCE('instance_2','','',#7,#310,$);
#312=PRODUCT_DEFINITION_SHAPE('',$,#311);
#313=CONTEXT_DEPENDENT_SHAPE_REPRESENTATION(#306,#312);
#314=PRODUCT_DEFINITION_SHAPE('',$,#310);
#315=SHAPE_DEFINITION_REPRESENTATION(#314,#305);
#316=PRODUCT_RELATED_PRODUCT_CATEGORY('part',$,(#308));
#317=STYLED_ITEM('',(#318),#197);
#318=PRESENTATION_STYLE_ASSIGNMENT((#319));
#319=SURFACE_STYLE_USAGE(.BOTH.,#320);
#320=SURFACE_SIDE_STYLE('',(#321));
#321=SURFACE_STYLE_FILL_AREA(#322);
#322=FILL_AREA_STYLE('',(#324));
#323=COLOUR_RGB('',0.734000027,0.773000002,0.796999991);
#324=FILL_AREA_STYLE_COLOUR('',#323);
#325=STYLED_ITEM('',(#326),#250);
#326=PRESENTATION_STYLE_ASSIGNMENT((#327));
#327=SURFACE_STYLE_USAGE(.BOTH.,#328);
#328=SURFACE_SIDE_STYLE('',(#329));
#329=SURFACE_STYLE_FILL_AREA(#330);
#330=FILL_AREA_STYLE('',(#332));
#331=COLOUR_RGB('',0.734000027,0.773000002,0.796999991);
#332=FILL_AREA_STYLE_COLOUR('',#331);
#333=MECHANICAL_DESIGN_GEOMETRIC_PRESENTATION_REPRESENTATION('',(#317,#325),#303);
ENDSEC;
END-ISO-10303-21;
