solid FCU_UNIT
facet normal 0.0 -1.0 0.0
  outer loop
    vertex 514.0000000000001 -4.999999999999811 -156.0000000000001
    vertex 516.0000000000001 -4.999999999999811 -156.0000000000001
    vertex 514.0000000000001 -4.999999999999811 5.9999999999998765
  endloop
endfacet
facet normal 0.0 -1.0 0.0
  outer loop
    vertex 516.0000000000001 -4.999999999999811 5.9999999999998765
    vertex 514.0000000000001 -4.999999999999811 5.9999999999998765
    vertex 516.0000000000001 -4.999999999999811 -156.0000000000001
  endloop
endfacet
facet normal 1.0 0.0 0.0
  outer loop
    vertex 516.0000000000001 -4.999999999999811 5.9999999999998765
    vertex 516.0000000000001 -4.999999999999811 -156.0000000000001
    vertex 516.0000000000001 120.53485257451271 5.9999999999998765
  endloop
endfacet
facet normal 1.0 0.0 0.0
  outer loop
    vertex 516.0000000000001 120.53485257451271 -156.0000000000001
    vertex 516.0000000000001 120.53485257451271 5.9999999999998765
    vertex 516.0000000000001 -4.999999999999811 -156.0000000000001
  endloop
endfacet
facet normal -1.0 0.0 0.0
  outer loop
    vertex 514.0000000000001 -4.999999999999811 -156.0000000000001
    vertex 514.0000000000001 -4.999999999999811 5.9999999999998765
    vertex 514.0000000000001 6.0000000000002 -156.0000000000001
  endloop
endfacet
facet normal -1.0 0.0 0.0
  outer loop
    vertex 514.0000000000001 6.0000000000002 5.9999999999998765
    vertex 514.0000000000001 6.0000000000002 -156.0000000000001
    vertex 514.0000000000001 -4.999999999999811 5.9999999999998765
  endloop
endfacet
facet normal 0.0 0.0 -1.0
  outer loop
    vertex 516.0000000000001 120.53485257451271 -156.0000000000001
    vertex 516.0000000000001 -4.999999999999811 -156.0000000000001
    vertex 512.0000000000001 120.53485257451271 -156.0000000000001
  endloop
endfacet
facet normal 0.0 0.0 -1.0
  outer loop
    vertex 514.0000000000001 6.0000000000002 -156.0000000000001
    vertex 512.0000000000001 120.53485257451271 -156.0000000000001
    vertex 516.0000000000001 -4.999999999999811 -156.0000000000001
  endloop
endfacet
facet normal 0.0 0.0 -1.0
  outer loop
    vertex 512.0000000000001 6.0000000000002 -156.0000000000001
    vertex 512.0000000000001 120.53485257451271 -156.0000000000001
    vertex 514.0000000000001 6.0000000000002 -156.0000000000001
  endloop
endfacet
facet normal 0.0 0.0 -1.0
  outer loop
    vertex 514.0000000000001 6.0000000000002 -156.0000000000001
    vertex 516.0000000000001 -4.999999999999811 -156.0000000000001
    vertex 514.0000000000001 -4.999999999999811 -156.0000000000001
  endloop
endfacet
facet normal 0.0 0.0 1.0
  outer loop
    vertex 516.0000000000001 -4.999999999999811 5.9999999999998765
    vertex 516.0000000000001 120.53485257451271 5.9999999999998765
    vertex 514.0000000000001 -4.999999999999811 5.9999999999998765
  endloop
endfacet
facet normal 0.0 0.0 1.0
  outer loop
    vertex 514.0000000000001 6.0000000000002 5.9999999999998765
    vertex 514.0000000000001 -4.999999999999811 5.9999999999998765
    vertex 516.0000000000001 120.53485257451271 5.9999999999998765
  endloop
endfacet
facet normal 0.0 0.0 1.0
  outer loop
    vertex 512.0000000000001 120.53485257451271 5.9999999999998765
    vertex 514.0000000000001 6.0000000000002 5.9999999999998765
    vertex 516.0000000000001 120.53485257451271 5.9999999999998765
  endloop
endfacet
facet normal 0.0 0.0 1.0
  outer loop
    vertex 512.0000000000001 6.0000000000002 5.9999999999998765
    vertex 514.0000000000001 6.0000000000002 5.9999999999998765
    vertex 512.0000000000001 120.53485257451271 5.9999999999998765
  endloop
endfacet
facet normal -1.0 0.0 2.8199664825478986e-15
  outer loop
    vertex 512.0000000000001 6.0000000000002 -10.000000000000117
    vertex 512.0000000000001 6.0000000000002 5.9999999999998765
    vertex 512.0000000000001 120.53485257451271 -10.000000000000117
  endloop
endfacet
facet normal -1.0 0.0 2.8199664825478986e-15
  outer loop
    vertex 512.0000000000001 120.53485257451271 5.9999999999998765
    vertex 512.0000000000001 120.53485257451271 -10.000000000000117
    vertex 512.0000000000001 6.0000000000002 5.9999999999998765
  endloop
endfacet
facet normal 0.0 0.0 -1.0
  outer loop
    vertex 512.0000000000001 116.83959689716971 -150.00000000000014
    vertex 512.0000000000001 6.0000000000002 -150.00000000000014
    vertex 508.00000000000017 116.83959689716971 -150.00000000000014
  endloop
endfacet
facet normal 0.0 0.0 -1.0
  outer loop
    vertex 508.00000000000017 6.0000000000002 -150.00000000000014
    vertex 508.00000000000017 116.83959689716971 -150.00000000000014
    vertex 512.0000000000001 6.0000000000002 -150.00000000000014
  endloop
endfacet
facet normal 0.0 -1.0 0.0
  outer loop
    vertex 508.00000000000017 6.0000000000002 -150.00000000000014
    vertex 512.0000000000001 6.0000000000002 -150.00000000000014
    vertex 508.00000000000017 6.0000000000002 -140.0000000000001
  endloop
endfacet
facet normal 0.0 -1.0 0.0
  outer loop
    vertex 512.0000000000001 6.0000000000002 -156.0000000000001
    vertex 514.0000000000001 6.0000000000002 -156.0000000000001
    vertex 512.0000000000001 6.0000000000002 -150.00000000000014
  endloop
endfacet
facet normal 0.0 -1.0 0.0
  outer loop
    vertex 514.0000000000001 6.0000000000002 5.9999999999998765
    vertex 512.0000000000001 6.0000000000002 -150.00000000000014
    vertex 514.0000000000001 6.0000000000002 -156.0000000000001
  endloop
endfacet
facet normal 0.0 -1.0 0.0
  outer loop
    vertex 512.0000000000001 6.0000000000002 -140.0000000000001
    vertex 512.0000000000001 6.0000000000002 -150.00000000000014
    vertex 514.0000000000001 6.0000000000002 5.9999999999998765
  endloop
endfacet
facet normal 0.0 -1.0 0.0
  outer loop
    vertex 508.00000000000017 6.0000000000002 -140.0000000000001
    vertex 512.0000000000001 6.0000000000002 -150.00000000000014
    vertex 512.0000000000001 6.0000000000002 -140.0000000000001
  endloop
endfacet
facet normal 0.0 -1.0 0.0
  outer loop
    vertex 512.0000000000001 6.0000000000002 -10.000000000000117
    vertex 512.0000000000001 6.0000000000002 -140.0000000000001
    vertex 514.0000000000001 6.0000000000002 5.9999999999998765
  endloop
endfacet
facet normal 0.0 -1.0 0.0
  outer loop
    vertex 512.0000000000001 6.0000000000002 5.9999999999998765
    vertex 512.0000000000001 6.0000000000002 -10.000000000000117
    vertex 514.0000000000001 6.0000000000002 5.9999999999998765
  endloop
endfacet
facet normal 0.0 0.0 -1.0
  outer loop
    vertex 512.0000000000001 6.0000000000002 -140.0000000000001
    vertex 512.0000000000001 2.0162760350217467e-13 -140.0000000000001
    vertex 508.00000000000017 6.0000000000002 -140.0000000000001
  endloop
endfacet
facet normal 0.0 0.0 -1.0
  outer loop
    vertex 508.00000000000017 2.0162760350217467e-13 -140.0000000000001
    vertex 508.00000000000017 6.0000000000002 -140.0000000000001
    vertex 512.0000000000001 2.0162760350217467e-13 -140.0000000000001
  endloop
endfacet
facet normal 1.0 -3.759955310063865e-15 1.7353639892602446e-16
  outer loop
    vertex 512.0000000000001 2.0162760350217467e-13 -10.000000000000117
    vertex 512.0000000000001 2.0162760350217467e-13 -140.0000000000001
    vertex 512.0000000000001 6.0000000000002 -10.000000000000117
  endloop
endfacet
facet normal 1.0 -3.759955310063865e-15 1.7353639892602446e-16
  outer loop
    vertex 512.0000000000001 6.0000000000002 -140.0000000000001
    vertex 512.0000000000001 6.0000000000002 -10.000000000000117
    vertex 512.0000000000001 2.0162760350217467e-13 -140.0000000000001
  endloop
endfacet
facet normal 0.0 0.0 1.0
  outer loop
    vertex 512.0000000000001 2.0162760350217467e-13 -10.000000000000117
    vertex 512.0000000000001 6.0000000000002 -10.000000000000117
    vertex 508.00000000000017 2.0162760350217467e-13 -10.000000000000117
  endloop
endfacet
facet normal 0.0 0.0 1.0
  outer loop
    vertex 512.0000000000001 120.53485257451271 -10.000000000000117
    vertex 508.00000000000017 2.0162760350217467e-13 -10.000000000000117
    vertex 512.0000000000001 6.0000000000002 -10.000000000000117
  endloop
endfacet
facet normal 0.0 0.0 1.0
  outer loop
    vertex 508.00000000000017 120.53485257451271 -10.000000000000117
    vertex 508.00000000000017 2.0162760350217467e-13 -10.000000000000117
    vertex 512.0000000000001 120.53485257451271 -10.000000000000117
  endloop
endfacet
facet normal 0.0 -1.0 0.0
  outer loop
    vertex 508.00000000000017 2.0162760350217467e-13 -140.0000000000001
    vertex 512.0000000000001 2.0162760350217467e-13 -140.0000000000001
    vertex 508.00000000000017 2.0162760350217467e-13 -10.000000000000117
  endloop
endfacet
facet normal 0.0 -1.0 0.0
  outer loop
    vertex 512.0000000000001 2.0162760350217467e-13 -10.000000000000117
    vertex 508.00000000000017 2.0162760350217467e-13 -10.000000000000117
    vertex 512.0000000000001 2.0162760350217467e-13 -140.0000000000001
  endloop
endfacet
facet normal 0.9238795325112715 -1.4254017018991815e-14 0.3826834323651265
  outer loop
    vertex 509.92325947347865 114.53485257451254 -55.12912371135151
    vertex 510.13804538186366 114.53485257451254 -55.647662764381074
    vertex 509.92325947347877 120.53485257451271 -55.1291237113515
  endloop
endfacet
facet normal 0.9238795325112715 -1.4254017018991815e-14 0.3826834323651265
  outer loop
    vertex 510.1380453818637 120.53485257451271 -55.647662764381074
    vertex 509.92325947347877 120.53485257451271 -55.1291237113515
    vertex 510.13804538186366 114.53485257451254 -55.647662764381074
  endloop
endfacet
facet normal 0.9914448613738155 -1.2274907723765725e-16 -0.13052619222001427
  outer loop
    vertex 509.92325947347865 114.53485257451254 -54.01620181741068
    vertex 509.8500000000002 114.53485257451254 -54.57266276438109
    vertex 509.92325947347865 120.53485257451271 -54.01620181741068
  endloop
endfacet
facet normal 0.9914448613738155 -1.2274907723765725e-16 -0.13052619222001427
  outer loop
    vertex 509.8500000000002 120.53485257451271 -54.57266276438109
    vertex 509.92325947347865 120.53485257451271 -54.01620181741068
    vertex 509.8500000000002 114.53485257451254 -54.57266276438109
  endloop
endfacet
facet normal 0.9238795325112701 -7.197641699036149e-16 -0.3826834323651299
  outer loop
    vertex 510.13804538186366 114.53485257451254 -53.497662764381104
    vertex 509.92325947347865 114.53485257451254 -54.01620181741068
    vertex 510.13804538186366 120.53485257451271 -53.497662764381126
  endloop
endfacet
facet normal 0.9238795325112701 -7.197641699036149e-16 -0.3826834323651299
  outer loop
    vertex 509.92325947347865 120.53485257451271 -54.01620181741068
    vertex 510.13804538186366 120.53485257451271 -53.497662764381126
    vertex 509.92325947347865 114.53485257451254 -54.01620181741068
  endloop
endfacet
facet normal 0.6087614290085963 -7.976995266485618e-15 -0.7933533402913308
  outer loop
    vertex 510.92500000000047 120.53485257451271 -52.710708146244485
    vertex 510.9250000000002 114.53485257451254 -52.71070814624458
    vertex 510.47972042044927 120.53485257451271 -53.052383184829914
  endloop
endfacet
facet normal 0.6087614290085963 -7.976995266485618e-15 -0.7933533402913308
  outer loop
    vertex 510.47972042044904 114.53485257451254 -53.05238318483005
    vertex 510.47972042044927 120.53485257451271 -53.052383184829914
    vertex 510.9250000000002 114.53485257451254 -52.71070814624458
  endloop
endfacet
facet normal 0.3826834323651567 2.384164671614353e-15 -0.923879532511259
  outer loop
    vertex 511.44353905302984 120.53485257451271 -52.49592223785955
    vertex 511.4435390530297 114.53485257451254 -52.495922237859645
    vertex 510.92500000000047 120.53485257451271 -52.710708146244485
  endloop
endfacet
facet normal 0.3826834323651567 2.384164671614353e-15 -0.923879532511259
  outer loop
    vertex 510.9250000000002 114.53485257451254 -52.71070814624458
    vertex 510.92500000000047 120.53485257451271 -52.710708146244485
    vertex 511.4435390530297 114.53485257451254 -52.495922237859645
  endloop
endfacet
facet normal 0.13052619221998593 4.5607422951612846e-15 -0.991444861373819
  outer loop
    vertex 512.0000000000002 120.53485257451271 -52.42266276438112
    vertex 512.0000000000001 114.53485257451254 -52.42266276438112
    vertex 511.44353905302984 120.53485257451271 -52.49592223785955
  endloop
endfacet
facet normal 0.13052619221998593 4.5607422951612846e-15 -0.991444861373819
  outer loop
    vertex 511.4435390530297 114.53485257451254 -52.495922237859645
    vertex 511.44353905302984 120.53485257451271 -52.49592223785955
    vertex 512.0000000000001 114.53485257451254 -52.42266276438112
  endloop
endfacet
facet normal 0.991444861373805 -7.578352364270247e-15 0.13052619222009326
  outer loop
    vertex 509.8500000000002 114.53485257451254 -54.57266276438109
    vertex 509.92325947347865 114.53485257451254 -55.12912371135151
    vertex 509.8500000000002 120.53485257451271 -54.57266276438109
  endloop
endfacet
facet normal 0.991444861373805 -7.578352364270247e-15 0.13052619222009326
  outer loop
    vertex 509.92325947347877 120.53485257451271 -55.1291237113515
    vertex 509.8500000000002 120.53485257451271 -54.57266276438109
    vertex 509.92325947347865 114.53485257451254 -55.12912371135151
  endloop
endfacet
facet normal 0.7933533402912331 -6.210998240351743e-15 -0.6087614290087235
  outer loop
    vertex 510.47972042044904 114.53485257451254 -53.05238318483005
    vertex 510.13804538186366 114.53485257451254 -53.497662764381104
    vertex 510.47972042044927 120.53485257451271 -53.052383184829914
  endloop
endfacet
facet normal 0.7933533402912331 -6.210998240351743e-15 -0.6087614290087235
  outer loop
    vertex 510.13804538186366 120.53485257451271 -53.497662764381126
    vertex 510.47972042044927 120.53485257451271 -53.052383184829914
    vertex 510.13804538186366 114.53485257451254 -53.497662764381104
  endloop
endfacet
facet normal 0.0 1.0 0.0
  outer loop
    vertex 512.0000000000001 114.53485257451254 -56.722662764381056
    vertex 511.4435390530297 114.53485257451254 -56.649403290902555
    vertex 512.5564609469706 114.53485257451254 -56.649403290902555
  endloop
endfacet
facet normal 0.0 1.0 0.0
  outer loop
    vertex 513.075 114.53485257451254 -56.4346173825176
    vertex 512.5564609469706 114.53485257451254 -56.649403290902555
    vertex 511.4435390530297 114.53485257451254 -56.649403290902555
  endloop
endfacet
facet normal 0.0 1.0 0.0
  outer loop
    vertex 510.9250000000001 114.53485257451254 -56.4346173825176
    vertex 513.075 114.53485257451254 -56.4346173825176
    vertex 511.4435390530297 114.53485257451254 -56.649403290902555
  endloop
endfacet
facet normal 0.0 1.0 0.0
  outer loop
    vertex 513.5202795795512 114.53485257451254 -56.09294234393214
    vertex 513.075 114.53485257451254 -56.4346173825176
    vertex 510.9250000000001 114.53485257451254 -56.4346173825176
  endloop
endfacet
facet normal 0.0 1.0 0.0
  outer loop
    vertex 510.47972042044904 114.53485257451254 -56.09294234393214
    vertex 513.5202795795512 114.53485257451254 -56.09294234393214
    vertex 510.9250000000001 114.53485257451254 -56.4346173825176
  endloop
endfacet
facet normal 0.0 1.0 0.0
  outer loop
    vertex 513.8619546181367 114.53485257451254 -55.647662764381074
    vertex 513.5202795795512 114.53485257451254 -56.09294234393214
    vertex 510.47972042044904 114.53485257451254 -56.09294234393214
  endloop
endfacet
facet normal 0.0 1.0 0.0
  outer loop
    vertex 510.13804538186366 114.53485257451254 -55.647662764381074
    vertex 513.8619546181367 114.53485257451254 -55.647662764381074
    vertex 510.47972042044904 114.53485257451254 -56.09294234393214
  endloop
endfacet
facet normal 0.0 1.0 0.0
  outer loop
    vertex 514.0767405265216 114.53485257451254 -55.12912371135151
    vertex 513.8619546181367 114.53485257451254 -55.647662764381074
    vertex 510.13804538186366 114.53485257451254 -55.647662764381074
  endloop
endfacet
facet normal 0.0 1.0 0.0
  outer loop
    vertex 509.92325947347865 114.53485257451254 -55.12912371135151
    vertex 514.0767405265216 114.53485257451254 -55.12912371135151
    vertex 510.13804538186366 114.53485257451254 -55.647662764381074
  endloop
endfacet
facet normal 0.0 1.0 0.0
  outer loop
    vertex 514.1500000000001 114.53485257451254 -54.57266276438109
    vertex 514.0767405265216 114.53485257451254 -55.12912371135151
    vertex 509.92325947347865 114.53485257451254 -55.12912371135151
  endloop
endfacet
facet normal 0.0 1.0 0.0
  outer loop
    vertex 509.8500000000002 114.53485257451254 -54.57266276438109
    vertex 514.1500000000001 114.53485257451254 -54.57266276438109
    vertex 509.92325947347865 114.53485257451254 -55.12912371135151
  endloop
endfacet
facet normal 0.0 1.0 0.0
  outer loop
    vertex 514.0767405265216 114.53485257451254 -54.01620181741068
    vertex 514.1500000000001 114.53485257451254 -54.57266276438109
    vertex 509.8500000000002 114.53485257451254 -54.57266276438109
  endloop
endfacet
facet normal 0.0 1.0 0.0
  outer loop
    vertex 509.92325947347865 114.53485257451254 -54.01620181741068
    vertex 514.0767405265216 114.53485257451254 -54.01620181741068
    vertex 509.8500000000002 114.53485257451254 -54.57266276438109
  endloop
endfacet
facet normal 0.0 1.0 0.0
  outer loop
    vertex 513.8619546181367 114.53485257451254 -53.497662764381104
    vertex 514.0767405265216 114.53485257451254 -54.01620181741068
    vertex 509.92325947347865 114.53485257451254 -54.01620181741068
  endloop
endfacet
facet normal 0.0 1.0 0.0
  outer loop
    vertex 510.13804538186366 114.53485257451254 -53.497662764381104
    vertex 513.8619546181367 114.53485257451254 -53.497662764381104
    vertex 509.92325947347865 114.53485257451254 -54.01620181741068
  endloop
endfacet
facet normal 0.0 1.0 0.0
  outer loop
    vertex 513.5202795795512 114.53485257451254 -53.05238318483005
    vertex 513.8619546181367 114.53485257451254 -53.497662764381104
    vertex 510.13804538186366 114.53485257451254 -53.497662764381104
  endloop
endfacet
facet normal 0.0 1.0 0.0
  outer loop
    vertex 510.47972042044904 114.53485257451254 -53.05238318483005
    vertex 513.5202795795512 114.53485257451254 -53.05238318483005
    vertex 510.13804538186366 114.53485257451254 -53.497662764381104
  endloop
endfacet
facet normal 0.0 1.0 0.0
  outer loop
    vertex 513.0750000000002 114.53485257451254 -52.71070814624458
    vertex 513.5202795795512 114.53485257451254 -53.05238318483005
    vertex 510.47972042044904 114.53485257451254 -53.05238318483005
  endloop
endfacet
facet normal 0.0 1.0 0.0
  outer loop
    vertex 510.9250000000002 114.53485257451254 -52.71070814624458
    vertex 513.0750000000002 114.53485257451254 -52.71070814624458
    vertex 510.47972042044904 114.53485257451254 -53.05238318483005
  endloop
endfacet
facet normal 0.0 1.0 0.0
  outer loop
    vertex 512.5564609469706 114.53485257451254 -52.495922237859645
    vertex 513.0750000000002 114.53485257451254 -52.71070814624458
    vertex 510.9250000000002 114.53485257451254 -52.71070814624458
  endloop
endfacet
facet normal 0.0 1.0 0.0
  outer loop
    vertex 511.4435390530297 114.53485257451254 -52.495922237859645
    vertex 512.5564609469706 114.53485257451254 -52.495922237859645
    vertex 510.9250000000002 114.53485257451254 -52.71070814624458
  endloop
endfacet
facet normal 0.0 1.0 0.0
  outer loop
    vertex 512.0000000000001 114.53485257451254 -52.42266276438112
    vertex 512.5564609469706 114.53485257451254 -52.495922237859645
    vertex 511.4435390530297 114.53485257451254 -52.495922237859645
  endloop
endfacet
facet normal 0.1305261922199568 7.306817749864937e-15 0.9914448613738229
  outer loop
    vertex 512.0000000000002 120.53485257451271 -56.722662764381056
    vertex 511.4435390530299 120.53485257451271 -56.649403290902676
    vertex 512.0000000000001 114.53485257451254 -56.722662764381056
  endloop
endfacet
facet normal 0.1305261922199568 7.306817749864937e-15 0.9914448613738229
  outer loop
    vertex 511.4435390530297 114.53485257451254 -56.649403290902555
    vertex 512.0000000000001 114.53485257451254 -56.722662764381056
    vertex 511.4435390530299 120.53485257451271 -56.649403290902676
  endloop
endfacet
facet normal -0.1305261922200743 1.487855371704051e-16 0.9914448613738075
  outer loop
    vertex 512.5564609469707 120.53485257451271 -56.64940329090252
    vertex 512.0000000000002 120.53485257451271 -56.722662764381056
    vertex 512.5564609469706 114.53485257451254 -56.649403290902555
  endloop
endfacet
facet normal -0.1305261922200743 1.487855371704051e-16 0.9914448613738075
  outer loop
    vertex 512.0000000000001 114.53485257451254 -56.722662764381056
    vertex 512.5564609469706 114.53485257451254 -56.649403290902555
    vertex 512.0000000000002 120.53485257451271 -56.722662764381056
  endloop
endfacet
facet normal -0.3826834323651341 4.566185019330943e-15 0.9238795325112683
  outer loop
    vertex 513.0750000000003 120.53485257451271 -56.434617382517544
    vertex 512.5564609469707 120.53485257451271 -56.64940329090252
    vertex 513.075 114.53485257451254 -56.4346173825176
  endloop
endfacet
facet normal -0.3826834323651341 4.566185019330943e-15 0.9238795325112683
  outer loop
    vertex 512.5564609469706 114.53485257451254 -56.649403290902555
    vertex 513.075 114.53485257451254 -56.4346173825176
    vertex 512.5564609469707 120.53485257451271 -56.64940329090252
  endloop
endfacet
facet normal 0.7933533402913011 -5.393092353401399e-15 0.608761429008635
  outer loop
    vertex 510.13804538186366 114.53485257451254 -55.647662764381074
    vertex 510.47972042044904 114.53485257451254 -56.09294234393214
    vertex 510.1380453818637 120.53485257451271 -55.647662764381074
  endloop
endfacet
facet normal 0.7933533402913011 -5.393092353401399e-15 0.608761429008635
  outer loop
    vertex 510.47972042044904 120.53485257451271 -56.09294234393215
    vertex 510.1380453818637 120.53485257451271 -55.647662764381074
    vertex 510.47972042044904 114.53485257451254 -56.09294234393214
  endloop
endfacet
facet normal -0.9238795325112672 -1.5333663273847203e-14 0.3826834323651372
  outer loop
    vertex 513.8619546181367 114.53485257451254 -55.647662764381074
    vertex 514.0767405265216 114.53485257451254 -55.12912371135151
    vertex 513.8619546181366 120.53485257451271 -55.64766276438104
  endloop
endfacet
facet normal -0.9238795325112672 -1.5333663273847203e-14 0.3826834323651372
  outer loop
    vertex 514.0767405265216 120.53485257451271 -55.1291237113515
    vertex 513.8619546181366 120.53485257451271 -55.64766276438104
    vertex 514.0767405265216 114.53485257451254 -55.12912371135151
  endloop
endfacet
facet normal -0.991444861373805 -7.578352364270247e-15 0.13052619222009326
  outer loop
    vertex 514.0767405265216 114.53485257451254 -55.12912371135151
    vertex 514.1500000000001 114.53485257451254 -54.57266276438109
    vertex 514.0767405265216 120.53485257451271 -55.1291237113515
  endloop
endfacet
facet normal -0.991444861373805 -7.578352364270247e-15 0.13052619222009326
  outer loop
    vertex 514.1500000000001 120.53485257451271 -54.57266276438109
    vertex 514.0767405265216 120.53485257451271 -55.1291237113515
    vertex 514.1500000000001 114.53485257451254 -54.57266276438109
  endloop
endfacet
facet normal -0.9238795325112672 0.0 -0.38268343236513713
  outer loop
    vertex 514.0767405265216 114.53485257451254 -54.01620181741068
    vertex 513.8619546181367 114.53485257451254 -53.497662764381104
    vertex 514.0767405265216 120.53485257451271 -54.01620181741068
  endloop
endfacet
facet normal -0.9238795325112672 0.0 -0.38268343236513713
  outer loop
    vertex 513.8619546181367 120.53485257451271 -53.497662764381126
    vertex 514.0767405265216 120.53485257451271 -54.01620181741068
    vertex 513.8619546181367 114.53485257451254 -53.497662764381104
  endloop
endfacet
facet normal 0.382683432365043 9.327949914712612e-15 0.9238795325113061
  outer loop
    vertex 511.4435390530299 120.53485257451271 -56.649403290902676
    vertex 510.9250000000003 120.53485257451271 -56.43461738251775
    vertex 511.4435390530297 114.53485257451254 -56.649403290902555
  endloop
endfacet
facet normal 0.382683432365043 9.327949914712612e-15 0.9238795325113061
  outer loop
    vertex 510.9250000000001 114.53485257451254 -56.4346173825176
    vertex 511.4435390530297 114.53485257451254 -56.649403290902555
    vertex 510.9250000000003 120.53485257451271 -56.43461738251775
  endloop
endfacet
facet normal -0.38268343236504887 -5.2617342351785985e-15 -0.9238795325113036
  outer loop
    vertex 513.0750000000004 120.53485257451271 -52.71070814624469
    vertex 513.0750000000002 114.53485257451254 -52.71070814624458
    vertex 512.5564609469707 120.53485257451271 -52.495922237859716
  endloop
endfacet
facet normal -0.38268343236504887 -5.2617342351785985e-15 -0.9238795325113036
  outer loop
    vertex 512.5564609469706 114.53485257451254 -52.495922237859645
    vertex 512.5564609469707 120.53485257451271 -52.495922237859716
    vertex 513.0750000000002 114.53485257451254 -52.71070814624458
  endloop
endfacet
facet normal -0.608761429008765 1.6973559100015972e-15 -0.7933533402912012
  outer loop
    vertex 513.5202795795512 120.53485257451271 -53.05238318483005
    vertex 513.5202795795512 114.53485257451254 -53.05238318483005
    vertex 513.0750000000004 120.53485257451271 -52.71070814624469
  endloop
endfacet
facet normal -0.608761429008765 1.6973559100015972e-15 -0.7933533402912012
  outer loop
    vertex 513.0750000000002 114.53485257451254 -52.71070814624458
    vertex 513.0750000000004 120.53485257451271 -52.71070814624469
    vertex 513.5202795795512 114.53485257451254 -53.05238318483005
  endloop
endfacet
facet normal -0.7933533402912623 -1.479361276996943e-14 0.6087614290086856
  outer loop
    vertex 513.5202795795512 114.53485257451254 -56.09294234393214
    vertex 513.8619546181367 114.53485257451254 -55.647662764381074
    vertex 513.5202795795511 120.53485257451271 -56.092942343932116
  endloop
endfacet
facet normal -0.7933533402912623 -1.479361276996943e-14 0.6087614290086856
  outer loop
    vertex 513.8619546181366 120.53485257451271 -55.64766276438104
    vertex 513.5202795795511 120.53485257451271 -56.092942343932116
    vertex 513.8619546181367 114.53485257451254 -55.647662764381074
  endloop
endfacet
facet normal -0.6087614290087578 -6.419468171385113e-16 0.7933533402912067
  outer loop
    vertex 513.5202795795512 114.53485257451254 -56.09294234393214
    vertex 513.5202795795511 120.53485257451271 -56.092942343932116
    vertex 513.075 114.53485257451254 -56.4346173825176
  endloop
endfacet
facet normal -0.6087614290087578 -6.419468171385113e-16 0.7933533402912067
  outer loop
    vertex 513.0750000000003 120.53485257451271 -56.434617382517544
    vertex 513.075 114.53485257451254 -56.4346173825176
    vertex 513.5202795795511 120.53485257451271 -56.092942343932116
  endloop
endfacet
facet normal -0.7933533402912585 -1.1449794466192414e-15 -0.6087614290086902
  outer loop
    vertex 513.8619546181367 114.53485257451254 -53.497662764381104
    vertex 513.5202795795512 114.53485257451254 -53.05238318483005
    vertex 513.8619546181367 120.53485257451271 -53.497662764381126
  endloop
endfacet
facet normal -0.7933533402912585 -1.1449794466192414e-15 -0.6087614290086902
  outer loop
    vertex 513.5202795795512 120.53485257451271 -53.05238318483005
    vertex 513.8619546181367 120.53485257451271 -53.497662764381126
    vertex 513.5202795795512 114.53485257451254 -53.05238318483005
  endloop
endfacet
facet normal -0.1305261922201242 -4.560742295159086e-15 -0.991444861373801
  outer loop
    vertex 512.5564609469707 120.53485257451271 -52.495922237859716
    vertex 512.5564609469706 114.53485257451254 -52.495922237859645
    vertex 512.0000000000002 120.53485257451271 -52.42266276438112
  endloop
endfacet
facet normal -0.1305261922201242 -4.560742295159086e-15 -0.991444861373801
  outer loop
    vertex 512.0000000000001 114.53485257451254 -52.42266276438112
    vertex 512.0000000000002 120.53485257451271 -52.42266276438112
    vertex 512.5564609469706 114.53485257451254 -52.495922237859645
  endloop
endfacet
facet normal -0.9914448613738157 1.2274907723765478e-16 -0.13052619222001166
  outer loop
    vertex 514.1500000000001 114.53485257451254 -54.57266276438109
    vertex 514.0767405265216 114.53485257451254 -54.01620181741068
    vertex 514.1500000000001 120.53485257451271 -54.57266276438109
  endloop
endfacet
facet normal -0.9914448613738157 1.2274907723765478e-16 -0.13052619222001166
  outer loop
    vertex 514.0767405265216 120.53485257451271 -54.01620181741068
    vertex 514.1500000000001 120.53485257451271 -54.57266276438109
    vertex 514.0767405265216 114.53485257451254 -54.01620181741068
  endloop
endfacet
facet normal 0.6087614290087362 1.2830694683405574e-15 0.7933533402912233
  outer loop
    vertex 510.9250000000003 120.53485257451271 -56.43461738251775
    vertex 510.47972042044904 120.53485257451271 -56.09294234393215
    vertex 510.9250000000001 114.53485257451254 -56.4346173825176
  endloop
endfacet
facet normal 0.6087614290087362 1.2830694683405574e-15 0.7933533402912233
  outer loop
    vertex 510.47972042044904 114.53485257451254 -56.09294234393214
    vertex 510.9250000000001 114.53485257451254 -56.4346173825176
    vertex 510.47972042044904 120.53485257451271 -56.09294234393215
  endloop
endfacet
facet normal 0.38268343236512825 7.000885771921349e-15 -0.9238795325112708
  outer loop
    vertex 511.44353905302984 120.53485257451271 -103.42325947347848
    vertex 511.4435390530297 114.53485257451263 -103.42325947347857
    vertex 510.9250000000004 120.53485257451271 -103.6380453818634
  endloop
endfacet
facet normal 0.38268343236512825 7.000885771921349e-15 -0.9238795325112708
  outer loop
    vertex 510.9250000000002 114.53485257451263 -103.63804538186352
    vertex 510.9250000000004 120.53485257451271 -103.6380453818634
    vertex 511.4435390530297 114.53485257451263 -103.42325947347857
  endloop
endfacet
facet normal -0.13052619222005507 1.9629707806194068e-15 -0.99144486137381
  outer loop
    vertex 512.5564609469707 120.53485257451271 -103.42325947347857
    vertex 512.5564609469706 114.53485257451263 -103.42325947347857
    vertex 512.0000000000002 120.53485257451271 -103.35000000000007
  endloop
endfacet
facet normal -0.13052619222005507 1.9629707806194068e-15 -0.99144486137381
  outer loop
    vertex 512.0000000000001 114.53485257451263 -103.35000000000007
    vertex 512.0000000000002 120.53485257451271 -103.35000000000007
    vertex 512.5564609469706 114.53485257451263 -103.42325947347857
  endloop
endfacet
facet normal -0.38268343236514 -2.333628590640334e-15 -0.9238795325112661
  outer loop
    vertex 513.0750000000002 120.53485257451271 -103.63804538186359
    vertex 513.0750000000002 114.53485257451263 -103.63804538186352
    vertex 512.5564609469707 120.53485257451271 -103.42325947347857
  endloop
endfacet
facet normal -0.38268343236514 -2.333628590640334e-15 -0.9238795325112661
  outer loop
    vertex 512.5564609469706 114.53485257451263 -103.42325947347857
    vertex 512.5564609469707 120.53485257451271 -103.42325947347857
    vertex 513.0750000000002 114.53485257451263 -103.63804538186352
  endloop
endfacet
facet normal -0.13052619222003528 9.870876110461056e-17 0.9914448613738125
  outer loop
    vertex 512.5564609469707 120.53485257451271 -107.57674052652149
    vertex 512.0000000000002 120.53485257451271 -107.64999999999998
    vertex 512.5564609469706 114.53485257451263 -107.57674052652149
  endloop
endfacet
facet normal -0.13052619222003528 9.870876110461056e-17 0.9914448613738125
  outer loop
    vertex 512.0000000000001 114.53485257451263 -107.64999999999999
    vertex 512.5564609469706 114.53485257451263 -107.57674052652149
    vertex 512.0000000000002 120.53485257451271 -107.64999999999998
  endloop
endfacet
facet normal 0.13052619222002493 -2.845747409823978e-15 0.991444861373814
  outer loop
    vertex 512.0000000000002 120.53485257451271 -107.64999999999998
    vertex 511.4435390530297 120.53485257451271 -107.57674052652149
    vertex 512.0000000000001 114.53485257451263 -107.64999999999999
  endloop
endfacet
facet normal 0.13052619222002493 -2.845747409823978e-15 0.991444861373814
  outer loop
    vertex 511.4435390530297 114.53485257451263 -107.57674052652149
    vertex 512.0000000000001 114.53485257451263 -107.64999999999999
    vertex 511.4435390530297 120.53485257451271 -107.57674052652149
  endloop
endfacet
facet normal 0.6087614290087119 7.35278786102081e-15 0.7933533402912419
  outer loop
    vertex 510.9250000000002 120.53485257451271 -107.36195461813665
    vertex 510.47972042044904 120.53485257451271 -107.02027957955116
    vertex 510.9250000000001 114.53485257451263 -107.36195461813654
  endloop
endfacet
facet normal 0.6087614290087119 7.35278786102081e-15 0.7933533402912419
  outer loop
    vertex 510.47972042044904 114.53485257451263 -107.02027957955109
    vertex 510.9250000000001 114.53485257451263 -107.36195461813654
    vertex 510.47972042044904 120.53485257451271 -107.02027957955116
  endloop
endfacet
facet normal 0.7933533402912658 -4.577552126463354e-15 -0.6087614290086806
  outer loop
    vertex 510.47972042044904 114.53485257451263 -103.97972042044897
    vertex 510.13804538186366 114.53485257451263 -104.42500000000005
    vertex 510.47972042044904 120.53485257451271 -103.97972042044903
  endloop
endfacet
facet normal 0.7933533402912658 -4.577552126463354e-15 -0.6087614290086806
  outer loop
    vertex 510.13804538186366 120.53485257451271 -104.4250000000001
    vertex 510.47972042044904 120.53485257451271 -103.97972042044903
    vertex 510.13804538186366 114.53485257451263 -104.42500000000005
  endloop
endfacet
facet normal 0.7933533402912658 6.865145359688194e-15 0.6087614290086806
  outer loop
    vertex 510.13804538186366 114.53485257451263 -106.57500000000002
    vertex 510.47972042044904 114.53485257451263 -107.02027957955109
    vertex 510.13804538186366 120.53485257451271 -106.57500000000009
  endloop
endfacet
facet normal 0.7933533402912658 6.865145359688194e-15 0.6087614290086806
  outer loop
    vertex 510.47972042044904 120.53485257451271 -107.02027957955116
    vertex 510.13804538186366 120.53485257451271 -106.57500000000009
    vertex 510.47972042044904 114.53485257451263 -107.02027957955109
  endloop
endfacet
facet normal 0.0 1.0 0.0
  outer loop
    vertex 512.0000000000001 114.53485257451263 -107.64999999999999
    vertex 511.4435390530297 114.53485257451263 -107.57674052652149
    vertex 512.5564609469706 114.53485257451263 -107.57674052652149
  endloop
endfacet
facet normal 0.0 1.0 0.0
  outer loop
    vertex 513.075 114.53485257451263 -107.36195461813654
    vertex 512.5564609469706 114.53485257451263 -107.57674052652149
    vertex 511.4435390530297 114.53485257451263 -107.57674052652149
  endloop
endfacet
facet normal 0.0 1.0 0.0
  outer loop
    vertex 510.9250000000001 114.53485257451263 -107.36195461813654
    vertex 513.075 114.53485257451263 -107.36195461813654
    vertex 511.4435390530297 114.53485257451263 -107.57674052652149
  endloop
endfacet
facet normal 0.0 1.0 0.0
  outer loop
    vertex 513.5202795795512 114.53485257451263 -107.02027957955109
    vertex 513.075 114.53485257451263 -107.36195461813654
    vertex 510.9250000000001 114.53485257451263 -107.36195461813654
  endloop
endfacet
facet normal 0.0 1.0 0.0
  outer loop
    vertex 510.47972042044904 114.53485257451263 -107.02027957955109
    vertex 513.5202795795512 114.53485257451263 -107.02027957955109
    vertex 510.9250000000001 114.53485257451263 -107.36195461813654
  endloop
endfacet
facet normal 0.0 1.0 0.0
  outer loop
    vertex 513.8619546181367 114.53485257451263 -106.57500000000002
    vertex 513.5202795795512 114.53485257451263 -107.02027957955109
    vertex 510.47972042044904 114.53485257451263 -107.02027957955109
  endloop
endfacet
facet normal 0.0 1.0 0.0
  outer loop
    vertex 510.13804538186366 114.53485257451263 -106.57500000000002
    vertex 513.8619546181367 114.53485257451263 -106.57500000000002
    vertex 510.47972042044904 114.53485257451263 -107.02027957955109
  endloop
endfacet
facet normal 0.0 1.0 0.0
  outer loop
    vertex 514.0767405265216 114.53485257451263 -106.05646094697043
    vertex 513.8619546181367 114.53485257451263 -106.57500000000002
    vertex 510.13804538186366 114.53485257451263 -106.57500000000002
  endloop
endfacet
facet normal 0.0 1.0 0.0
  outer loop
    vertex 509.92325947347865 114.53485257451263 -106.05646094697043
    vertex 514.0767405265216 114.53485257451263 -106.05646094697043
    vertex 510.13804538186366 114.53485257451263 -106.57500000000002
  endloop
endfacet
facet normal 0.0 1.0 0.0
  outer loop
    vertex 514.1500000000001 114.53485257451263 -105.50000000000003
    vertex 514.0767405265216 114.53485257451263 -106.05646094697043
    vertex 509.92325947347865 114.53485257451263 -106.05646094697043
  endloop
endfacet
facet normal 0.0 1.0 0.0
  outer loop
    vertex 509.8500000000002 114.53485257451263 -105.50000000000003
    vertex 514.1500000000001 114.53485257451263 -105.50000000000003
    vertex 509.92325947347865 114.53485257451263 -106.05646094697043
  endloop
endfacet
facet normal 0.0 1.0 0.0
  outer loop
    vertex 514.0767405265216 114.53485257451263 -104.94353905302962
    vertex 514.1500000000001 114.53485257451263 -105.50000000000003
    vertex 509.8500000000002 114.53485257451263 -105.50000000000003
  endloop
endfacet
facet normal 0.0 1.0 0.0
  outer loop
    vertex 509.92325947347865 114.53485257451263 -104.94353905302962
    vertex 514.0767405265216 114.53485257451263 -104.94353905302962
    vertex 509.8500000000002 114.53485257451263 -105.50000000000003
  endloop
endfacet
facet normal 0.0 1.0 0.0
  outer loop
    vertex 513.8619546181367 114.53485257451263 -104.42500000000005
    vertex 514.0767405265216 114.53485257451263 -104.94353905302962
    vertex 509.92325947347865 114.53485257451263 -104.94353905302962
  endloop
endfacet
facet normal 0.0 1.0 0.0
  outer loop
    vertex 510.13804538186366 114.53485257451263 -104.42500000000005
    vertex 513.8619546181367 114.53485257451263 -104.42500000000005
    vertex 509.92325947347865 114.53485257451263 -104.94353905302962
  endloop
endfacet
facet normal 0.0 1.0 0.0
  outer loop
    vertex 513.5202795795512 114.53485257451263 -103.97972042044897
    vertex 513.8619546181367 114.53485257451263 -104.42500000000005
    vertex 510.13804538186366 114.53485257451263 -104.42500000000005
  endloop
endfacet
facet normal 0.0 1.0 0.0
  outer loop
    vertex 510.47972042044904 114.53485257451263 -103.97972042044897
    vertex 513.5202795795512 114.53485257451263 -103.97972042044897
    vertex 510.13804538186366 114.53485257451263 -104.42500000000005
  endloop
endfacet
facet normal 0.0 1.0 0.0
  outer loop
    vertex 513.0750000000002 114.53485257451263 -103.63804538186352
    vertex 513.5202795795512 114.53485257451263 -103.97972042044897
    vertex 510.47972042044904 114.53485257451263 -103.97972042044897
  endloop
endfacet
facet normal 0.0 1.0 0.0
  outer loop
    vertex 510.9250000000002 114.53485257451263 -103.63804538186352
    vertex 513.0750000000002 114.53485257451263 -103.63804538186352
    vertex 510.47972042044904 114.53485257451263 -103.97972042044897
  endloop
endfacet
facet normal 0.0 1.0 0.0
  outer loop
    vertex 512.5564609469706 114.53485257451263 -103.42325947347857
    vertex 513.0750000000002 114.53485257451263 -103.63804538186352
    vertex 510.9250000000002 114.53485257451263 -103.63804538186352
  endloop
endfacet
facet normal 0.0 1.0 0.0
  outer loop
    vertex 511.4435390530297 114.53485257451263 -103.42325947347857
    vertex 512.5564609469706 114.53485257451263 -103.42325947347857
    vertex 510.9250000000002 114.53485257451263 -103.63804538186352
  endloop
endfacet
facet normal 0.0 1.0 0.0
  outer loop
    vertex 512.0000000000001 114.53485257451263 -103.35000000000007
    vertex 512.5564609469706 114.53485257451263 -103.42325947347857
    vertex 511.4435390530297 114.53485257451263 -103.42325947347857
  endloop
endfacet
facet normal 0.13052619221997605 5.492632506414636e-15 -0.9914448613738204
  outer loop
    vertex 512.0000000000002 120.53485257451271 -103.35000000000007
    vertex 512.0000000000001 114.53485257451263 -103.35000000000007
    vertex 511.44353905302984 120.53485257451271 -103.42325947347848
  endloop
endfacet
facet normal 0.13052619221997605 5.492632506414636e-15 -0.9914448613738204
  outer loop
    vertex 511.4435390530297 114.53485257451263 -103.42325947347857
    vertex 511.44353905302984 120.53485257451271 -103.42325947347848
    vertex 512.0000000000001 114.53485257451263 -103.35000000000007
  endloop
endfacet
facet normal 0.9914448613738155 2.454981544753194e-16 0.13052619222001294
  outer loop
    vertex 509.8500000000002 114.53485257451263 -105.50000000000003
    vertex 509.92325947347865 114.53485257451263 -106.05646094697043
    vertex 509.8500000000002 120.53485257451271 -105.50000000000003
  endloop
endfacet
facet normal 0.9914448613738155 2.454981544753194e-16 0.13052619222001294
  outer loop
    vertex 509.92325947347865 120.53485257451271 -106.05646094697046
    vertex 509.8500000000002 120.53485257451271 -105.50000000000003
    vertex 509.92325947347865 114.53485257451263 -106.05646094697043
  endloop
endfacet
facet normal 0.9914448613738155 2.4499092688342823e-16 -0.13052619222001294
  outer loop
    vertex 509.92325947347865 114.53485257451263 -104.94353905302962
    vertex 509.8500000000002 114.53485257451263 -105.50000000000003
    vertex 509.92325947347865 120.53485257451271 -104.94353905302961
  endloop
endfacet
facet normal 0.9914448613738155 2.4499092688342823e-16 -0.13052619222001294
  outer loop
    vertex 509.8500000000002 120.53485257451271 -105.50000000000003
    vertex 509.92325947347865 120.53485257451271 -104.94353905302961
    vertex 509.8500000000002 114.53485257451263 -105.50000000000003
  endloop
endfacet
facet normal 0.3826834323650028 5.8071623241519886e-15 0.9238795325113229
  outer loop
    vertex 511.4435390530297 114.53485257451263 -107.57674052652149
    vertex 511.4435390530297 120.53485257451271 -107.57674052652149
    vertex 510.9250000000001 114.53485257451263 -107.36195461813654
  endloop
endfacet
facet normal 0.3826834323650028 5.8071623241519886e-15 0.9238795325113229
  outer loop
    vertex 510.9250000000002 120.53485257451271 -107.36195461813665
    vertex 510.9250000000001 114.53485257451263 -107.36195461813654
    vertex 511.4435390530297 120.53485257451271 -107.57674052652149
  endloop
endfacet
facet normal 0.9238795325112642 -7.182770538501435e-16 -0.38268343236514424
  outer loop
    vertex 510.13804538186366 114.53485257451263 -104.42500000000005
    vertex 509.92325947347865 114.53485257451263 -104.94353905302962
    vertex 510.13804538186366 120.53485257451271 -104.4250000000001
  endloop
endfacet
facet normal 0.9238795325112642 -7.182770538501435e-16 -0.38268343236514424
  outer loop
    vertex 509.92325947347865 120.53485257451271 -104.94353905302961
    vertex 510.13804538186366 120.53485257451271 -104.4250000000001
    vertex 509.92325947347865 114.53485257451263 -104.94353905302962
  endloop
endfacet
facet normal 0.6087614290086586 -4.682512608368462e-15 -0.7933533402912829
  outer loop
    vertex 510.9250000000004 120.53485257451271 -103.6380453818634
    vertex 510.9250000000002 114.53485257451263 -103.63804538186352
    vertex 510.47972042044904 120.53485257451271 -103.97972042044903
  endloop
endfacet
facet normal 0.6087614290086586 -4.682512608368462e-15 -0.7933533402912829
  outer loop
    vertex 510.47972042044904 114.53485257451263 -103.97972042044897
    vertex 510.47972042044904 120.53485257451271 -103.97972042044903
    vertex 510.9250000000002 114.53485257451263 -103.63804538186352
  endloop
endfacet
facet normal 0.923879532511279 2.8790566796143867e-15 0.3826834323651087
  outer loop
    vertex 509.92325947347865 114.53485257451263 -106.05646094697043
    vertex 510.13804538186366 114.53485257451263 -106.57500000000002
    vertex 509.92325947347865 120.53485257451271 -106.05646094697046
  endloop
endfacet
facet normal 0.923879532511279 2.8790566796143867e-15 0.3826834323651087
  outer loop
    vertex 510.13804538186366 120.53485257451271 -106.57500000000009
    vertex 509.92325947347865 120.53485257451271 -106.05646094697046
    vertex 510.13804538186366 114.53485257451263 -106.57500000000002
  endloop
endfacet
facet normal -0.6087614290087127 -7.457748342926706e-15 -0.7933533402912413
  outer loop
    vertex 513.5202795795512 120.53485257451271 -103.97972042044903
    vertex 513.5202795795512 114.53485257451263 -103.97972042044897
    vertex 513.0750000000002 120.53485257451271 -103.63804538186359
  endloop
endfacet
facet normal -0.6087614290087127 -7.457748342926706e-15 -0.7933533402912413
  outer loop
    vertex 513.0750000000002 114.53485257451263 -103.63804538186352
    vertex 513.0750000000002 120.53485257451271 -103.63804538186359
    vertex 513.5202795795512 114.53485257451263 -103.97972042044897
  endloop
endfacet
facet normal -0.7933533402912658 -4.577552126463354e-15 -0.6087614290086806
  outer loop
    vertex 513.8619546181367 114.53485257451263 -104.42500000000005
    vertex 513.5202795795512 114.53485257451263 -103.97972042044897
    vertex 513.8619546181367 120.53485257451271 -104.4250000000001
  endloop
endfacet
facet normal -0.7933533402912658 -4.577552126463354e-15 -0.6087614290086806
  outer loop
    vertex 513.5202795795512 120.53485257451271 -103.97972042044903
    vertex 513.8619546181367 120.53485257451271 -104.4250000000001
    vertex 513.5202795795512 114.53485257451263 -103.97972042044897
  endloop
endfacet
facet normal -0.9238795325112701 -2.1592925097109093e-15 -0.3826834323651299
  outer loop
    vertex 514.0767405265216 114.53485257451263 -104.94353905302962
    vertex 513.8619546181367 114.53485257451263 -104.42500000000005
    vertex 514.0767405265216 120.53485257451271 -104.94353905302965
  endloop
endfacet
facet normal -0.9238795325112701 -2.1592925097109093e-15 -0.3826834323651299
  outer loop
    vertex 513.8619546181367 120.53485257451271 -104.4250000000001
    vertex 514.0767405265216 120.53485257451271 -104.94353905302965
    vertex 513.8619546181367 114.53485257451263 -104.42500000000005
  endloop
endfacet
facet normal -0.6087614290086603 -4.058305202901097e-15 0.7933533402912815
  outer loop
    vertex 513.5202795795514 120.53485257451271 -107.0202795795509
    vertex 513.0750000000003 120.53485257451271 -107.36195461813638
    vertex 513.5202795795512 114.53485257451263 -107.02027957955109
  endloop
endfacet
facet normal -0.6087614290086603 -4.058305202901097e-15 0.7933533402912815
  outer loop
    vertex 513.075 114.53485257451263 -107.36195461813654
    vertex 513.5202795795512 114.53485257451263 -107.02027957955109
    vertex 513.0750000000003 120.53485257451271 -107.36195461813638
  endloop
endfacet
facet normal -0.991444861373826 -7.210105132557725e-15 0.13052619221993392
  outer loop
    vertex 514.0767405265216 114.53485257451263 -106.05646094697043
    vertex 514.1500000000001 114.53485257451263 -105.50000000000003
    vertex 514.0767405265216 120.53485257451271 -106.05646094697046
  endloop
endfacet
facet normal -0.991444861373826 -7.210105132557725e-15 0.13052619221993392
  outer loop
    vertex 514.15 120.53485257451271 -105.50000000000003
    vertex 514.0767405265216 120.53485257451271 -106.05646094697046
    vertex 514.1500000000001 114.53485257451263 -105.50000000000003
  endloop
endfacet
facet normal -0.9238795325112447 -5.507539127212507e-15 0.38268343236519153
  outer loop
    vertex 513.8619546181367 114.53485257451263 -106.57500000000002
    vertex 514.0767405265216 114.53485257451263 -106.05646094697043
    vertex 513.8619546181366 120.53485257451271 -106.57500000000003
  endloop
endfacet
facet normal -0.9238795325112447 -5.507539127212507e-15 0.38268343236519153
  outer loop
    vertex 514.0767405265216 120.53485257451271 -106.05646094697046
    vertex 513.8619546181366 120.53485257451271 -106.57500000000003
    vertex 514.0767405265216 114.53485257451263 -106.05646094697043
  endloop
endfacet
facet normal -0.9914448613738251 -7.70059421391618e-15 -0.13052619221993908
  outer loop
    vertex 514.1500000000001 114.53485257451263 -105.50000000000003
    vertex 514.0767405265216 114.53485257451263 -104.94353905302962
    vertex 514.15 120.53485257451271 -105.50000000000003
  endloop
endfacet
facet normal -0.9914448613738251 -7.70059421391618e-15 -0.13052619221993908
  outer loop
    vertex 514.0767405265216 120.53485257451271 -104.94353905302965
    vertex 514.15 120.53485257451271 -105.50000000000003
    vertex 514.0767405265216 114.53485257451263 -104.94353905302962
  endloop
endfacet
facet normal -0.7933533402913153 -2.043001235518679e-15 0.6087614290086161
  outer loop
    vertex 513.5202795795512 114.53485257451263 -107.02027957955109
    vertex 513.8619546181367 114.53485257451263 -106.57500000000002
    vertex 513.5202795795514 120.53485257451271 -107.0202795795509
  endloop
endfacet
facet normal -0.7933533402913153 -2.043001235518679e-15 0.6087614290086161
  outer loop
    vertex 513.8619546181366 120.53485257451271 -106.57500000000003
    vertex 513.5202795795514 120.53485257451271 -107.0202795795509
    vertex 513.8619546181367 114.53485257451263 -106.57500000000002
  endloop
endfacet
facet normal -0.3826834323652087 -3.525556930536379e-15 0.9238795325112377
  outer loop
    vertex 513.0750000000003 120.53485257451271 -107.36195461813638
    vertex 512.5564609469707 120.53485257451271 -107.57674052652149
    vertex 513.075 114.53485257451263 -107.36195461813654
  endloop
endfacet
facet normal -0.3826834323652087 -3.525556930536379e-15 0.9238795325112377
  outer loop
    vertex 512.5564609469706 114.53485257451263 -107.57674052652149
    vertex 513.075 114.53485257451263 -107.36195461813654
    vertex 512.5564609469707 120.53485257451271 -107.57674052652149
  endloop
endfacet
facet normal 0.0 1.0 0.0
  outer loop
    vertex 512.0000000000001 120.53485257451271 -156.0000000000001
    vertex 514.15 120.53485257451271 -105.50000000000003
    vertex 516.0000000000001 120.53485257451271 -156.0000000000001
  endloop
endfacet
facet normal 0.0 1.0 0.0
  outer loop
    vertex 516.0000000000001 120.53485257451271 5.9999999999998765
    vertex 516.0000000000001 120.53485257451271 -156.0000000000001
    vertex 514.15 120.53485257451271 -105.50000000000003
  endloop
endfacet
facet normal 0.0 1.0 0.0
  outer loop
    vertex 512.0000000000002 120.53485257451271 -140.00000000000003
    vertex 514.15 120.53485257451271 -105.50000000000003
    vertex 512.0000000000001 120.53485257451271 -156.0000000000001
  endloop
endfacet
facet normal 0.0 1.0 0.0
  outer loop
    vertex 514.0767405265216 120.53485257451271 -106.05646094697046
    vertex 514.15 120.53485257451271 -105.50000000000003
    vertex 512.0000000000002 120.53485257451271 -140.00000000000003
  endloop
endfacet
facet normal 0.0 1.0 0.0
  outer loop
    vertex 508.00000000000017 120.53485257451271 -140.00000000000003
    vertex 514.0767405265216 120.53485257451271 -106.05646094697046
    vertex 512.0000000000002 120.53485257451271 -140.00000000000003
  endloop
endfacet
facet normal 0.0 1.0 0.0
  outer loop
    vertex 513.8619546181366 120.53485257451271 -106.57500000000003
    vertex 514.0767405265216 120.53485257451271 -106.05646094697046
    vertex 508.00000000000017 120.53485257451271 -140.00000000000003
  endloop
endfacet
facet normal 0.0 1.0 0.0
  outer loop
    vertex 513.5202795795514 120.53485257451271 -107.0202795795509
    vertex 513.8619546181366 120.53485257451271 -106.57500000000003
    vertex 508.00000000000017 120.53485257451271 -140.00000000000003
  endloop
endfacet
facet normal 0.0 1.0 0.0
  outer loop
    vertex 513.0750000000003 120.53485257451271 -107.36195461813638
    vertex 513.5202795795514 120.53485257451271 -107.0202795795509
    vertex 508.00000000000017 120.53485257451271 -140.00000000000003
  endloop
endfacet
facet normal 0.0 1.0 0.0
  outer loop
    vertex 512.5564609469707 120.53485257451271 -107.57674052652149
    vertex 513.0750000000003 120.53485257451271 -107.36195461813638
    vertex 508.00000000000017 120.53485257451271 -140.00000000000003
  endloop
endfacet
facet normal 0.0 1.0 0.0
  outer loop
    vertex 512.0000000000002 120.53485257451271 -107.64999999999998
    vertex 512.5564609469707 120.53485257451271 -107.57674052652149
    vertex 508.00000000000017 120.53485257451271 -140.00000000000003
  endloop
endfacet
facet normal 0.0 1.0 0.0
  outer loop
    vertex 514.0767405265216 120.53485257451271 -104.94353905302965
    vertex 516.0000000000001 120.53485257451271 5.9999999999998765
    vertex 514.15 120.53485257451271 -105.50000000000003
  endloop
endfacet
facet normal 0.0 1.0 0.0
  outer loop
    vertex 513.8619546181367 120.53485257451271 -104.4250000000001
    vertex 516.0000000000001 120.53485257451271 5.9999999999998765
    vertex 514.0767405265216 120.53485257451271 -104.94353905302965
  endloop
endfacet
facet normal 0.0 1.0 0.0
  outer loop
    vertex 513.5202795795512 120.53485257451271 -103.97972042044903
    vertex 516.0000000000001 120.53485257451271 5.9999999999998765
    vertex 513.8619546181367 120.53485257451271 -104.4250000000001
  endloop
endfacet
facet normal 0.0 1.0 0.0
  outer loop
    vertex 513.0750000000002 120.53485257451271 -103.63804538186359
    vertex 516.0000000000001 120.53485257451271 5.9999999999998765
    vertex 513.5202795795512 120.53485257451271 -103.97972042044903
  endloop
endfacet
facet normal 0.0 1.0 0.0
  outer loop
    vertex 514.1500000000001 120.53485257451271 -54.57266276438109
    vertex 516.0000000000001 120.53485257451271 5.9999999999998765
    vertex 513.0750000000002 120.53485257451271 -103.63804538186359
  endloop
endfacet
facet normal 0.0 1.0 0.0
  outer loop
    vertex 512.5564609469707 120.53485257451271 -103.42325947347857
    vertex 514.1500000000001 120.53485257451271 -54.57266276438109
    vertex 513.0750000000002 120.53485257451271 -103.63804538186359
  endloop
endfacet
facet normal 0.0 1.0 0.0
  outer loop
    vertex 512.0000000000002 120.53485257451271 -103.35000000000007
    vertex 514.1500000000001 120.53485257451271 -54.57266276438109
    vertex 512.5564609469707 120.53485257451271 -103.42325947347857
  endloop
endfacet
facet normal 0.0 1.0 0.0
  outer loop
    vertex 514.0767405265216 120.53485257451271 -55.1291237113515
    vertex 514.1500000000001 120.53485257451271 -54.57266276438109
    vertex 512.0000000000002 120.53485257451271 -103.35000000000007
  endloop
endfacet
facet normal 0.0 1.0 0.0
  outer loop
    vertex 513.8619546181366 120.53485257451271 -55.64766276438104
    vertex 514.0767405265216 120.53485257451271 -55.1291237113515
    vertex 512.0000000000002 120.53485257451271 -103.35000000000007
  endloop
endfacet
facet normal 0.0 1.0 0.0
  outer loop
    vertex 513.5202795795511 120.53485257451271 -56.092942343932116
    vertex 513.8619546181366 120.53485257451271 -55.64766276438104
    vertex 512.0000000000002 120.53485257451271 -103.35000000000007
  endloop
endfacet
facet normal 0.0 1.0 0.0
  outer loop
    vertex 513.0750000000003 120.53485257451271 -56.434617382517544
    vertex 513.5202795795511 120.53485257451271 -56.092942343932116
    vertex 512.0000000000002 120.53485257451271 -103.35000000000007
  endloop
endfacet
facet normal 0.0 1.0 0.0
  outer loop
    vertex 512.5564609469707 120.53485257451271 -56.64940329090252
    vertex 513.0750000000003 120.53485257451271 -56.434617382517544
    vertex 512.0000000000002 120.53485257451271 -103.35000000000007
  endloop
endfacet
facet normal 0.0 1.0 0.0
  outer loop
    vertex 512.0000000000002 120.53485257451271 -56.722662764381056
    vertex 512.5564609469707 120.53485257451271 -56.64940329090252
    vertex 512.0000000000002 120.53485257451271 -103.35000000000007
  endloop
endfacet
facet normal 0.0 1.0 0.0
  outer loop
    vertex 514.0767405265216 120.53485257451271 -54.01620181741068
    vertex 516.0000000000001 120.53485257451271 5.9999999999998765
    vertex 514.1500000000001 120.53485257451271 -54.57266276438109
  endloop
endfacet
facet normal 0.0 1.0 0.0
  outer loop
    vertex 513.8619546181367 120.53485257451271 -53.497662764381126
    vertex 516.0000000000001 120.53485257451271 5.9999999999998765
    vertex 514.0767405265216 120.53485257451271 -54.01620181741068
  endloop
endfacet
facet normal 0.0 1.0 0.0
  outer loop
    vertex 513.5202795795512 120.53485257451271 -53.05238318483005
    vertex 516.0000000000001 120.53485257451271 5.9999999999998765
    vertex 513.8619546181367 120.53485257451271 -53.497662764381126
  endloop
endfacet
facet normal 0.0 1.0 0.0
  outer loop
    vertex 513.0750000000004 120.53485257451271 -52.71070814624469
    vertex 516.0000000000001 120.53485257451271 5.9999999999998765
    vertex 513.5202795795512 120.53485257451271 -53.05238318483005
  endloop
endfacet
facet normal 0.0 1.0 0.0
  outer loop
    vertex 512.5564609469707 120.53485257451271 -52.495922237859716
    vertex 516.0000000000001 120.53485257451271 5.9999999999998765
    vertex 513.0750000000004 120.53485257451271 -52.71070814624469
  endloop
endfacet
facet normal 0.0 1.0 0.0
  outer loop
    vertex 512.0000000000002 120.53485257451271 -52.42266276438112
    vertex 516.0000000000001 120.53485257451271 5.9999999999998765
    vertex 512.5564609469707 120.53485257451271 -52.495922237859716
  endloop
endfacet
facet normal 0.0 1.0 0.0
  outer loop
    vertex 512.0000000000001 120.53485257451271 -10.000000000000117
    vertex 516.0000000000001 120.53485257451271 5.9999999999998765
    vertex 512.0000000000002 120.53485257451271 -52.42266276438112
  endloop
endfacet
facet normal 0.0 1.0 0.0
  outer loop
    vertex 512.0000000000001 120.53485257451271 5.9999999999998765
    vertex 516.0000000000001 120.53485257451271 5.9999999999998765
    vertex 512.0000000000001 120.53485257451271 -10.000000000000117
  endloop
endfacet
facet normal 0.0 1.0 0.0
  outer loop
    vertex 508.00000000000017 120.53485257451271 -10.000000000000117
    vertex 509.8500000000002 120.53485257451271 -105.50000000000003
    vertex 508.00000000000017 120.53485257451271 -140.00000000000003
  endloop
endfacet
facet normal 0.0 1.0 0.0
  outer loop
    vertex 509.92325947347865 120.53485257451271 -106.05646094697046
    vertex 508.00000000000017 120.53485257451271 -140.00000000000003
    vertex 509.8500000000002 120.53485257451271 -105.50000000000003
  endloop
endfacet
facet normal 0.0 1.0 0.0
  outer loop
    vertex 510.13804538186366 120.53485257451271 -106.57500000000009
    vertex 508.00000000000017 120.53485257451271 -140.00000000000003
    vertex 509.92325947347865 120.53485257451271 -106.05646094697046
  endloop
endfacet
facet normal 0.0 1.0 0.0
  outer loop
    vertex 510.47972042044904 120.53485257451271 -107.02027957955116
    vertex 508.00000000000017 120.53485257451271 -140.00000000000003
    vertex 510.13804538186366 120.53485257451271 -106.57500000000009
  endloop
endfacet
facet normal 0.0 1.0 0.0
  outer loop
    vertex 510.9250000000002 120.53485257451271 -107.36195461813665
    vertex 508.00000000000017 120.53485257451271 -140.00000000000003
    vertex 510.47972042044904 120.53485257451271 -107.02027957955116
  endloop
endfacet
facet normal 0.0 1.0 0.0
  outer loop
    vertex 511.4435390530297 120.53485257451271 -107.57674052652149
    vertex 508.00000000000017 120.53485257451271 -140.00000000000003
    vertex 510.9250000000002 120.53485257451271 -107.36195461813665
  endloop
endfacet
facet normal 0.0 1.0 0.0
  outer loop
    vertex 512.0000000000002 120.53485257451271 -107.64999999999998
    vertex 508.00000000000017 120.53485257451271 -140.00000000000003
    vertex 511.4435390530297 120.53485257451271 -107.57674052652149
  endloop
endfacet
facet normal 0.0 1.0 0.0
  outer loop
    vertex 509.92325947347865 120.53485257451271 -104.94353905302961
    vertex 509.8500000000002 120.53485257451271 -105.50000000000003
    vertex 508.00000000000017 120.53485257451271 -10.000000000000117
  endloop
endfacet
facet normal 0.0 1.0 0.0
  outer loop
    vertex 510.13804538186366 120.53485257451271 -104.4250000000001
    vertex 509.92325947347865 120.53485257451271 -104.94353905302961
    vertex 508.00000000000017 120.53485257451271 -10.000000000000117
  endloop
endfacet
facet normal 0.0 1.0 0.0
  outer loop
    vertex 510.47972042044904 120.53485257451271 -103.97972042044903
    vertex 510.13804538186366 120.53485257451271 -104.4250000000001
    vertex 508.00000000000017 120.53485257451271 -10.000000000000117
  endloop
endfacet
facet normal 0.0 1.0 0.0
  outer loop
    vertex 510.9250000000004 120.53485257451271 -103.6380453818634
    vertex 510.47972042044904 120.53485257451271 -103.97972042044903
    vertex 508.00000000000017 120.53485257451271 -10.000000000000117
  endloop
endfacet
facet normal 0.0 1.0 0.0
  outer loop
    vertex 511.44353905302984 120.53485257451271 -103.42325947347848
    vertex 510.9250000000004 120.53485257451271 -103.6380453818634
    vertex 508.00000000000017 120.53485257451271 -10.000000000000117
  endloop
endfacet
facet normal 0.0 1.0 0.0
  outer loop
    vertex 509.8500000000002 120.53485257451271 -54.57266276438109
    vertex 511.44353905302984 120.53485257451271 -103.42325947347848
    vertex 508.00000000000017 120.53485257451271 -10.000000000000117
  endloop
endfacet
facet normal 0.0 1.0 0.0
  outer loop
    vertex 512.0000000000002 120.53485257451271 -103.35000000000007
    vertex 511.44353905302984 120.53485257451271 -103.42325947347848
    vertex 509.8500000000002 120.53485257451271 -54.57266276438109
  endloop
endfacet
facet normal 0.0 1.0 0.0
  outer loop
    vertex 509.92325947347877 120.53485257451271 -55.1291237113515
    vertex 512.0000000000002 120.53485257451271 -103.35000000000007
    vertex 509.8500000000002 120.53485257451271 -54.57266276438109
  endloop
endfacet
facet normal 0.0 1.0 0.0
  outer loop
    vertex 510.1380453818637 120.53485257451271 -55.647662764381074
    vertex 512.0000000000002 120.53485257451271 -103.35000000000007
    vertex 509.92325947347877 120.53485257451271 -55.1291237113515
  endloop
endfacet
facet normal 0.0 1.0 0.0
  outer loop
    vertex 510.47972042044904 120.53485257451271 -56.09294234393215
    vertex 512.0000000000002 120.53485257451271 -103.35000000000007
    vertex 510.1380453818637 120.53485257451271 -55.647662764381074
  endloop
endfacet
facet normal 0.0 1.0 0.0
  outer loop
    vertex 510.9250000000003 120.53485257451271 -56.43461738251775
    vertex 512.0000000000002 120.53485257451271 -103.35000000000007
    vertex 510.47972042044904 120.53485257451271 -56.09294234393215
  endloop
endfacet
facet normal 0.0 1.0 0.0
  outer loop
    vertex 511.4435390530299 120.53485257451271 -56.649403290902676
    vertex 512.0000000000002 120.53485257451271 -103.35000000000007
    vertex 510.9250000000003 120.53485257451271 -56.43461738251775
  endloop
endfacet
facet normal 0.0 1.0 0.0
  outer loop
    vertex 512.0000000000002 120.53485257451271 -56.722662764381056
    vertex 512.0000000000002 120.53485257451271 -103.35000000000007
    vertex 511.4435390530299 120.53485257451271 -56.649403290902676
  endloop
endfacet
facet normal 0.0 1.0 0.0
  outer loop
    vertex 509.92325947347865 120.53485257451271 -54.01620181741068
    vertex 509.8500000000002 120.53485257451271 -54.57266276438109
    vertex 508.00000000000017 120.53485257451271 -10.000000000000117
  endloop
endfacet
facet normal 0.0 1.0 0.0
  outer loop
    vertex 510.13804538186366 120.53485257451271 -53.497662764381126
    vertex 509.92325947347865 120.53485257451271 -54.01620181741068
    vertex 508.00000000000017 120.53485257451271 -10.000000000000117
  endloop
endfacet
facet normal 0.0 1.0 0.0
  outer loop
    vertex 510.47972042044927 120.53485257451271 -53.052383184829914
    vertex 510.13804538186366 120.53485257451271 -53.497662764381126
    vertex 508.00000000000017 120.53485257451271 -10.000000000000117
  endloop
endfacet
facet normal 0.0 1.0 0.0
  outer loop
    vertex 510.92500000000047 120.53485257451271 -52.710708146244485
    vertex 510.47972042044927 120.53485257451271 -53.052383184829914
    vertex 508.00000000000017 120.53485257451271 -10.000000000000117
  endloop
endfacet
facet normal 0.0 1.0 0.0
  outer loop
    vertex 511.44353905302984 120.53485257451271 -52.49592223785955
    vertex 510.92500000000047 120.53485257451271 -52.710708146244485
    vertex 508.00000000000017 120.53485257451271 -10.000000000000117
  endloop
endfacet
facet normal 0.0 1.0 0.0
  outer loop
    vertex 512.0000000000002 120.53485257451271 -52.42266276438112
    vertex 511.44353905302984 120.53485257451271 -52.49592223785955
    vertex 508.00000000000017 120.53485257451271 -10.000000000000117
  endloop
endfacet
facet normal 0.0 1.0 0.0
  outer loop
    vertex 512.0000000000001 120.53485257451271 -10.000000000000117
    vertex 512.0000000000002 120.53485257451271 -52.42266276438112
    vertex 508.00000000000017 120.53485257451271 -10.000000000000117
  endloop
endfacet
facet normal -1.0 0.0 0.0
  outer loop
    vertex 508.00000000000017 6.0000000000002 -150.00000000000014
    vertex 508.00000000000017 6.0000000000002 -140.0000000000001
    vertex 508.00000000000017 116.83959689716971 -150.00000000000014
  endloop
endfacet
facet normal -1.0 0.0 0.0
  outer loop
    vertex 508.00000000000017 2.0162760350217467e-13 -140.0000000000001
    vertex 508.00000000000017 2.0162760350217467e-13 -10.000000000000117
    vertex 508.00000000000017 6.0000000000002 -140.0000000000001
  endloop
endfacet
facet normal -1.0 0.0 0.0
  outer loop
    vertex 508.00000000000017 120.53485257451271 -10.000000000000117
    vertex 508.00000000000017 6.0000000000002 -140.0000000000001
    vertex 508.00000000000017 2.0162760350217467e-13 -10.000000000000117
  endloop
endfacet
facet normal -1.0 0.0 0.0
  outer loop
    vertex 508.00000000000017 116.83959689716971 -140.00000000000003
    vertex 508.00000000000017 6.0000000000002 -140.0000000000001
    vertex 508.00000000000017 120.53485257451271 -10.000000000000117
  endloop
endfacet
facet normal -1.0 0.0 0.0
  outer loop
    vertex 508.00000000000017 116.83959689716971 -150.00000000000014
    vertex 508.00000000000017 6.0000000000002 -140.0000000000001
    vertex 508.00000000000017 116.83959689716971 -140.00000000000003
  endloop
endfacet
facet normal -1.0 0.0 0.0
  outer loop
    vertex 508.00000000000017 120.53485257451271 -140.00000000000003
    vertex 508.00000000000017 116.83959689716971 -140.00000000000003
    vertex 508.00000000000017 120.53485257451271 -10.000000000000117
  endloop
endfacet
facet normal -1.0 1.097858074666797e-17 6.0428732408477065e-15
  outer loop
    vertex 512.0000000000001 6.0000000000002 -156.0000000000001
    vertex 512.0000000000001 6.0000000000002 -150.00000000000014
    vertex 512.0000000000001 120.53485257451271 -156.0000000000001
  endloop
endfacet
facet normal -1.0 1.097858074666797e-17 6.0428732408477065e-15
  outer loop
    vertex 512.0000000000001 116.83959689716971 -150.00000000000014
    vertex 512.0000000000001 120.53485257451271 -156.0000000000001
    vertex 512.0000000000001 6.0000000000002 -150.00000000000014
  endloop
endfacet
facet normal -1.0 1.097858074666797e-17 6.0428732408477065e-15
  outer loop
    vertex 512.0000000000002 116.83959689716971 -140.00000000000003
    vertex 512.0000000000001 120.53485257451271 -156.0000000000001
    vertex 512.0000000000001 116.83959689716971 -150.00000000000014
  endloop
endfacet
facet normal -1.0 1.097858074666797e-17 6.0428732408477065e-15
  outer loop
    vertex 512.0000000000002 120.53485257451271 -140.00000000000003
    vertex 512.0000000000001 120.53485257451271 -156.0000000000001
    vertex 512.0000000000002 116.83959689716971 -140.00000000000003
  endloop
endfacet
facet normal 0.0 0.0 -1.0
  outer loop
    vertex 512.0000000000002 120.53485257451271 -140.00000000000003
    vertex 512.0000000000002 116.83959689716971 -140.00000000000003
    vertex 508.00000000000017 120.53485257451271 -140.00000000000003
  endloop
endfacet
facet normal 0.0 0.0 -1.0
  outer loop
    vertex 508.00000000000017 116.83959689716971 -140.00000000000003
    vertex 508.00000000000017 120.53485257451271 -140.00000000000003
    vertex 512.0000000000002 116.83959689716971 -140.00000000000003
  endloop
endfacet
facet normal 0.0 1.0 0.0
  outer loop
    vertex 512.0000000000001 116.83959689716971 -150.00000000000014
    vertex 508.00000000000017 116.83959689716971 -150.00000000000014
    vertex 512.0000000000002 116.83959689716971 -140.00000000000003
  endloop
endfacet
facet normal 0.0 1.0 0.0
  outer loop
    vertex 508.00000000000017 116.83959689716971 -140.00000000000003
    vertex 512.0000000000002 116.83959689716971 -140.00000000000003
    vertex 508.00000000000017 116.83959689716971 -150.00000000000014
  endloop
endfacet
endsolid FCU_UNIT
