solid Korry19x16_button_V5
facet normal -6.85420335774997e-30 1.0 -6.98011505581164e-15
  outer loop
    vertex 2.8157512880608513 1.45000000000001 13.00000000000001
    vertex 14.315751288060861 1.4500000000000242 15.019999999999996
    vertex 14.315751288060861 1.45000000000001 13.000000000000004
  endloop
endfacet
facet normal -6.85420335774997e-30 1.0 -6.98011505581164e-15
  outer loop
    vertex 14.315751288060861 1.4500000000000242 15.019999999999996
    vertex 2.8157512880608513 1.45000000000001 13.00000000000001
    vertex 2.8157512880608526 1.4500000000000242 15.020000000000012
  endloop
endfacet
facet normal 1.5297650770355952e-32 -1.0 1.7450287639529e-15
  outer loop
    vertex 14.315751288060861 -3.2999999999999874 15.020000000000012
    vertex 2.8157512880608513 -3.299999999999991 13.000000000000004
    vertex 14.315751288060861 -3.299999999999991 13.000000000000004
  endloop
endfacet
facet normal 1.5297650770355952e-32 -1.0 1.7450287639529e-15
  outer loop
    vertex 2.8157512880608513 -3.299999999999991 13.000000000000004
    vertex 14.315751288060861 -3.2999999999999874 15.020000000000012
    vertex 2.8157512880608526 -3.2999999999999874 15.020000000000012
  endloop
endfacet
facet normal 1.0 0.0 0.0
  outer loop
    vertex 14.315751288060861 1.45000000000001 13.000000000000004
    vertex 14.315751288060861 -3.2999999999999874 15.020000000000012
    vertex 14.315751288060861 -3.299999999999991 13.000000000000004
  endloop
endfacet
facet normal 1.0 0.0 0.0
  outer loop
    vertex 14.315751288060861 -3.2999999999999874 15.020000000000012
    vertex 14.315751288060861 1.45000000000001 13.000000000000004
    vertex 14.315751288060861 1.4500000000000242 15.019999999999996
  endloop
endfacet
facet normal 7.356434302298857e-16 1.7810314626618255e-15 1.0
  outer loop
    vertex 8.05041095405276 -0.40124620445342846 15.02000000000001
    vertex 6.987025326522398 0.05064524291499381 15.02000000000001
    vertex 6.987025326522396 -0.40124620445342846 15.02000000000001
  endloop
endfacet
facet normal 7.356434302298857e-16 1.7810314626618255e-15 1.0
  outer loop
    vertex 6.987025326522398 0.05064524291499381 15.02000000000001
    vertex 8.207957765793653 0.33670293522268546 15.02000000000001
    vertex 6.955933474295676 0.33670293522268546 15.02000000000001
  endloop
endfacet
facet normal 7.356434302298857e-16 1.7810314626618255e-15 1.0
  outer loop
    vertex 8.207957765793653 0.33670293522268546 15.02000000000001
    vertex 6.987025326522398 0.05064524291499381 15.02000000000001
    vertex 8.05041095405276 -0.40124620445342846 15.02000000000001
  endloop
endfacet
facet normal 7.356434302298857e-16 1.7810314626618255e-15 1.0
  outer loop
    vertex 6.259450680773409 0.318041497975721 15.02000000000001
    vertex 6.1868924823928415 0.8093117408907007 15.020000000000007
    vertex 6.259450680773409 -2.2999999999999874 15.020000000000012
  endloop
endfacet
facet normal 7.356434302298857e-16 1.7810314626618255e-15 1.0
  outer loop
    vertex 2.8157512880608526 -3.2999999999999874 15.020000000000012
    vertex 6.259450680773409 -2.2999999999999874 15.020000000000012
    vertex 2.8157512880608526 1.4500000000000242 15.020000000000012
  endloop
endfacet
facet normal 7.356434302298857e-16 1.7810314626618255e-15 1.0
  outer loop
    vertex 6.259450680773409 -2.2999999999999874 15.020000000000012
    vertex 2.8157512880608526 -3.2999999999999874 15.020000000000012
    vertex 14.315751288060861 -3.2999999999999874 15.020000000000012
  endloop
endfacet
facet normal 7.356434302298857e-16 1.7810314626618255e-15 1.0
  outer loop
    vertex 2.8157512880608526 1.4500000000000242 15.020000000000012
    vertex 6.259450680773409 -2.2999999999999874 15.020000000000012
    vertex 6.1868924823928415 0.8093117408907007 15.020000000000007
  endloop
endfacet
facet normal 7.356434302298857e-16 1.7810314626618255e-15 1.0
  outer loop
    vertex 6.259450680773409 -2.2999999999999874 15.020000000000012
    vertex 14.315751288060861 -3.2999999999999874 15.020000000000012
    vertex 6.987025326522396 -2.299999999999987 15.020000000000012
  endloop
endfacet
facet normal 7.356434302298857e-16 1.7810314626618255e-15 1.0
  outer loop
    vertex 6.987025326522396 -2.299999999999987 15.020000000000012
    vertex 14.315751288060861 -3.2999999999999874 15.020000000000012
    vertex 8.565751288060858 -2.2999999999999874 15.020000000000012
  endloop
endfacet
facet normal 7.356434302298857e-16 1.7810314626618255e-15 1.0
  outer loop
    vertex 6.987025326522396 -2.299999999999987 15.020000000000012
    vertex 8.565751288060858 -2.2999999999999874 15.020000000000012
    vertex 6.987025326522396 -0.8427631578947239 15.02000000000001
  endloop
endfacet
facet normal 7.356434302298857e-16 1.7810314626618255e-15 1.0
  outer loop
    vertex 6.987025326522396 -0.8427631578947239 15.02000000000001
    vertex 8.565751288060858 -2.2999999999999874 15.020000000000012
    vertex 8.05041095405276 -0.8427631578947239 15.02000000000001
  endloop
endfacet
facet normal 7.356434302298857e-16 1.7810314626618255e-15 1.0
  outer loop
    vertex 8.05041095405276 -0.8427631578947239 15.02000000000001
    vertex 8.565751288060858 -2.2999999999999874 15.020000000000012
    vertex 8.05041095405276 -0.40124620445342846 15.02000000000001
  endloop
endfacet
facet normal 7.356434302298857e-16 1.7810314626618255e-15 1.0
  outer loop
    vertex 8.05041095405276 -0.40124620445342846 15.02000000000001
    vertex 8.565751288060858 -2.2999999999999874 15.020000000000012
    vertex 8.207957765793653 0.33670293522268546 15.02000000000001
  endloop
endfacet
facet normal 7.356434302298857e-16 1.7810314626618255e-15 1.0
  outer loop
    vertex 8.207957765793653 0.33670293522268546 15.02000000000001
    vertex 8.565751288060858 -2.2999999999999874 15.020000000000012
    vertex 8.263910447979885 0.8093117408907007 15.020000000000007
  endloop
endfacet
facet normal 7.356434302298857e-16 1.7810314626618255e-15 1.0
  outer loop
    vertex 8.263910447979885 0.8093117408907007 15.020000000000007
    vertex 8.565751288060858 -2.2999999999999874 15.020000000000012
    vertex 8.495280640287577 0.7947937753036565 15.020000000000007
  endloop
endfacet
facet normal 7.356434302298857e-16 1.7810314626618255e-15 1.0
  outer loop
    vertex 8.565751288060858 -2.2999999999999874 15.020000000000012
    vertex 14.315751288060861 -3.2999999999999874 15.020000000000012
    vertex 9.295381854862477 -2.2999999999999874 15.020000000000012
  endloop
endfacet
facet normal 7.356434302298857e-16 1.7810314626618255e-15 1.0
  outer loop
    vertex 9.295381854862477 -2.2999999999999874 15.020000000000012
    vertex 14.315751288060861 -3.2999999999999874 15.020000000000012
    vertex 9.718269000611468 -2.259577429149784 15.02000000000001
  endloop
endfacet
facet normal 7.356434302298857e-16 1.7810314626618255e-15 1.0
  outer loop
    vertex 9.718269000611468 -2.259577429149784 15.02000000000001
    vertex 14.315751288060861 -3.2999999999999874 15.020000000000012
    vertex 10.104861232392842 -2.134166244939258 15.02000000000001
  endloop
endfacet
facet normal 7.356434302298857e-16 1.7810314626618255e-15 1.0
  outer loop
    vertex 10.104861232392842 -2.134166244939258 15.02000000000001
    vertex 14.315751288060861 -3.2999999999999874 15.020000000000012
    vertex 10.437556703040615 -1.91547950404857 15.02000000000001
  endloop
endfacet
facet normal 7.356434302298857e-16 1.7810314626618255e-15 1.0
  outer loop
    vertex 10.437556703040615 -1.91547950404857 15.02000000000001
    vertex 14.315751288060861 -3.2999999999999874 15.020000000000012
    vertex 10.578248915844258 -1.7688251201922942 15.020000000000012
  endloop
endfacet
facet normal 7.356434302298857e-16 1.7810314626618255e-15 1.0
  outer loop
    vertex 10.578248915844258 -1.7688251201922942 15.020000000000012
    vertex 14.315751288060861 -3.2999999999999874 15.020000000000012
    vertex 10.697693975307821 -1.5962582236841956 15.02000000000001
  endloop
endfacet
facet normal 7.356434302298857e-16 1.7810314626618255e-15 1.0
  outer loop
    vertex 10.697693975307821 -1.5962582236841956 15.02000000000001
    vertex 14.315751288060861 -3.2999999999999874 15.020000000000012
    vertex 10.794338079558832 -1.3967429466092982 15.02000000000001
  endloop
endfacet
facet normal 7.356434302298857e-16 1.7810314626618255e-15 1.0
  outer loop
    vertex 10.794338079558832 -1.3967429466092982 15.02000000000001
    vertex 14.315751288060861 -3.2999999999999874 15.020000000000012
    vertex 10.866627426724826 -1.1692434210526181 15.020000000000007
  endloop
endfacet
facet normal 7.356434302298857e-16 1.7810314626618255e-15 1.0
  outer loop
    vertex 10.866627426724826 -1.1692434210526181 15.020000000000007
    vertex 14.315751288060861 -3.2999999999999874 15.020000000000012
    vertex 10.911711403192436 -0.9129807692307566 15.020000000000007
  endloop
endfacet
facet normal 7.356434302298857e-16 1.7810314626618255e-15 1.0
  outer loop
    vertex 10.911711403192436 -0.9129807692307566 15.020000000000007
    vertex 14.315751288060861 -3.2999999999999874 15.020000000000012
    vertex 10.926739395348308 -0.6271761133603106 15.020000000000007
  endloop
endfacet
facet normal 7.356434302298857e-16 1.7810314626618255e-15 1.0
  outer loop
    vertex 6.1868924823928415 0.8093117408907007 15.020000000000007
    vertex 14.315751288060861 1.4500000000000242 15.019999999999996
    vertex 2.8157512880608526 1.4500000000000242 15.020000000000012
  endloop
endfacet
facet normal 7.356434302298857e-16 1.7810314626618255e-15 1.0
  outer loop
    vertex 14.315751288060861 1.4500000000000242 15.019999999999996
    vertex 6.1868924823928415 0.8093117408907007 15.020000000000007
    vertex 8.263910447979885 0.8093117408907007 15.020000000000007
  endloop
endfacet
facet normal 7.356434302298857e-16 1.7810314626618255e-15 1.0
  outer loop
    vertex 14.315751288060861 1.4500000000000242 15.019999999999996
    vertex 8.263910447979885 0.8093117408907007 15.020000000000007
    vertex 8.495280640287577 0.7947937753036565 15.020000000000007
  endloop
endfacet
facet normal 7.356434302298857e-16 1.7810314626618255e-15 1.0
  outer loop
    vertex 14.315751288060861 1.4500000000000242 15.019999999999996
    vertex 8.495280640287577 0.7947937753036565 15.020000000000007
    vertex 8.710851870044666 0.8113834767206615 15.020000000000007
  endloop
endfacet
facet normal 7.356434302298857e-16 1.7810314626618255e-15 1.0
  outer loop
    vertex 14.315751288060861 1.4500000000000242 15.019999999999996
    vertex 8.710851870044666 0.8113834767206615 15.020000000000007
    vertex 8.935753818425232 0.8217421558704586 15.020000000000007
  endloop
endfacet
facet normal 7.356434302298857e-16 1.7810314626618255e-15 1.0
  outer loop
    vertex 14.315751288060861 1.4500000000000242 15.019999999999996
    vertex 8.935753818425232 0.8217421558704586 15.020000000000007
    vertex 9.145109840692438 0.8279573633603383 15.020000000000005
  endloop
endfacet
facet normal 7.356434302298857e-16 1.7810314626618255e-15 1.0
  outer loop
    vertex 14.315751288060861 1.4500000000000242 15.019999999999996
    vertex 9.145109840692438 0.8279573633603383 15.020000000000005
    vertex 9.311987371056812 0.8300290991902963 15.020000000000007
  endloop
endfacet
facet normal 7.356434302298857e-16 1.7810314626618255e-15 1.0
  outer loop
    vertex 14.315751288060861 1.4500000000000242 15.019999999999996
    vertex 9.311987371056812 0.8300290991902963 15.020000000000007
    vertex 9.647015521360457 0.8095608236336158 15.020000000000007
  endloop
endfacet
facet normal 7.356434302298857e-16 1.7810314626618255e-15 1.0
  outer loop
    vertex 14.315751288060861 1.4500000000000242 15.019999999999996
    vertex 9.647015521360457 0.8095608236336158 15.020000000000007
    vertex 9.955617178749115 0.748155996963577 15.020000000000007
  endloop
endfacet
facet normal 7.356434302298857e-16 1.7810314626618255e-15 1.0
  outer loop
    vertex 14.315751288060861 1.4500000000000242 15.019999999999996
    vertex 9.955617178749115 0.748155996963577 15.020000000000007
    vertex 10.231051294386768 0.6429600518724831 15.020000000000007
  endloop
endfacet
facet normal 7.356434302298857e-16 1.7810314626618255e-15 1.0
  outer loop
    vertex 14.315751288060861 1.4500000000000242 15.019999999999996
    vertex 10.231051294386768 0.6429600518724831 15.020000000000007
    vertex 10.466576819437376 0.49111842105264414 15.02000000000001
  endloop
endfacet
facet normal 7.356434302298857e-16 1.7810314626618255e-15 1.0
  outer loop
    vertex 14.315751288060861 1.4500000000000242 15.019999999999996
    vertex 10.466576819437376 0.49111842105264414 15.02000000000001
    vertex 10.65882916002442 0.2905633223684336 15.020000000000007
  endloop
endfacet
facet normal 7.356434302298857e-16 1.7810314626618255e-15 1.0
  outer loop
    vertex 14.315751288060861 1.4500000000000242 15.019999999999996
    vertex 10.65882916002442 0.2905633223684336 15.020000000000007
    vertex 10.804443722271385 0.03922697368422468 15.020000000000007
  endloop
endfacet
facet normal 7.356434302298857e-16 1.7810314626618255e-15 1.0
  outer loop
    vertex 14.315751288060861 1.4500000000000242 15.019999999999996
    vertex 10.804443722271385 0.03922697368422468 15.020000000000007
    vertex 10.896165477079077 -0.2657372849190146 15.020000000000007
  endloop
endfacet
facet normal 7.356434302298857e-16 1.7810314626618255e-15 1.0
  outer loop
    vertex 14.315751288060861 1.4500000000000242 15.019999999999996
    vertex 10.896165477079077 -0.2657372849190146 15.020000000000007
    vertex 10.926739395348308 -0.6271761133603106 15.020000000000007
  endloop
endfacet
facet normal 7.356434302298857e-16 1.7810314626618255e-15 1.0
  outer loop
    vertex 14.315751288060861 1.4500000000000242 15.019999999999996
    vertex 10.926739395348308 -0.6271761133603106 15.020000000000007
    vertex 14.315751288060861 -3.2999999999999874 15.020000000000012
  endloop
endfacet
facet normal 7.356434302298857e-16 1.7810314626618255e-15 1.0
  outer loop
    vertex 8.565751288060858 0.3159539473684334 15.02000000000001
    vertex 8.495280640287577 0.7947937753036565 15.020000000000007
    vertex 8.565751288060858 -2.2999999999999874 15.020000000000012
  endloop
endfacet
facet normal -1.0 -4.100996043934505e-31 6.980115055811609e-16
  outer loop
    vertex 2.8157512880608526 -3.2999999999999874 15.020000000000012
    vertex 2.8157512880608513 1.45000000000001 13.00000000000001
    vertex 2.8157512880608513 -3.299999999999991 13.000000000000004
  endloop
endfacet
facet normal -1.0 -4.100996043934505e-31 6.980115055811609e-16
  outer loop
    vertex 2.8157512880608513 1.45000000000001 13.00000000000001
    vertex 2.8157512880608526 -3.2999999999999874 15.020000000000012
    vertex 2.8157512880608526 1.4500000000000242 15.020000000000012
  endloop
endfacet
facet normal 3.2224166406195262e-15 1.6952696291335808e-15 1.0
  outer loop
    vertex 9.66332846417422 -1.7475740131578812 15.020000000000012
    vertex 9.293325933809845 0.036127277327948217 15.02000000000001
    vertex 9.293325933809845 -1.8232477226720518 15.020000000000012
  endloop
endfacet
facet normal 3.2224166406195262e-15 1.6952696291335808e-15 1.0
  outer loop
    vertex 9.293325933809845 0.036127277327948217 15.02000000000001
    vertex 9.66332846417422 -1.7475740131578812 15.020000000000012
    vertex 9.295381854862477 0.3719382591093254 15.020000000000007
  endloop
endfacet
facet normal 3.2224166406195262e-15 1.6952696291335808e-15 1.0
  outer loop
    vertex 9.295381854862477 0.3719382591093254 15.020000000000007
    vertex 9.66332846417422 -1.7475740131578812 15.020000000000012
    vertex 9.549323688111466 0.35250585146762314 15.020000000000007
  endloop
endfacet
facet normal 3.2224166406195262e-15 1.6952696291335808e-15 1.0
  outer loop
    vertex 9.549323688111466 0.35250585146762314 15.020000000000007
    vertex 9.66332846417422 -1.7475740131578812 15.020000000000012
    vertex 9.751432588668147 0.29420862854252205 15.020000000000007
  endloop
endfacet
facet normal 3.2224166406195262e-15 1.6952696291335808e-15 1.0
  outer loop
    vertex 9.751432588668147 0.29420862854252205 15.020000000000007
    vertex 9.66332846417422 -1.7475740131578812 15.020000000000012
    vertex 9.916222568425233 -1.5941864878542353 15.020000000000012
  endloop
endfacet
facet normal 3.2224166406195262e-15 1.6952696291335808e-15 1.0
  outer loop
    vertex 9.751432588668147 0.29420862854252205 15.020000000000007
    vertex 9.916222568425233 -1.5941864878542353 15.020000000000012
    vertex 9.90844960536855 0.20067212803645257 15.02000000000001
  endloop
endfacet
facet normal 3.2224166406195262e-15 1.6952696291335808e-15 1.0
  outer loop
    vertex 9.90844960536855 0.20067212803645257 15.02000000000001
    vertex 9.916222568425233 -1.5941864878542353 15.020000000000012
    vertex 10.02711578704871 0.07552188765183657 15.02000000000001
  endloop
endfacet
facet normal 3.2224166406195262e-15 1.6952696291335808e-15 1.0
  outer loop
    vertex 10.02711578704871 0.07552188765183657 15.02000000000001
    vertex 9.916222568425233 -1.5941864878542353 15.020000000000012
    vertex 10.073753565388792 -1.3869022014169916 15.020000000000007
  endloop
endfacet
facet normal 3.2224166406195262e-15 1.6952696291335808e-15 1.0
  outer loop
    vertex 10.02711578704871 0.07552188765183657 15.02000000000001
    vertex 10.073753565388792 -1.3869022014169916 15.020000000000007
    vertex 10.110803634973815 -0.07890941295545163 15.020000000000007
  endloop
endfacet
facet normal 3.2224166406195262e-15 1.6952696291335808e-15 1.0
  outer loop
    vertex 10.110803634973815 -0.07890941295545163 15.020000000000007
    vertex 10.073753565388792 -1.3869022014169916 15.020000000000007
    vertex 10.158742178749117 -1.1495540232793395 15.020000000000007
  endloop
endfacet
facet normal 3.2224166406195262e-15 1.6952696291335808e-15 1.0
  outer loop
    vertex 10.110803634973815 -0.07890941295545163 15.020000000000007
    vertex 10.158742178749117 -1.1495540232793395 15.020000000000007
    vertex 10.162885650409036 -0.26028909412953993 15.020000000000007
  endloop
endfacet
facet normal 3.2224166406195262e-15 1.6952696291335808e-15 1.0
  outer loop
    vertex 10.162885650409036 -0.26028909412953993 15.020000000000007
    vertex 10.158742178749117 -1.1495540232793395 15.020000000000007
    vertex 10.192949542109442 -0.9080623734817671 15.020000000000007
  endloop
endfacet
facet normal 3.2224166406195262e-15 1.6952696291335808e-15 1.0
  outer loop
    vertex 10.162885650409036 -0.26028909412953993 15.020000000000007
    vertex 10.192949542109442 -0.9080623734817671 15.020000000000007
    vertex 10.199164749599321 -0.6873038967611208 15.020000000000007
  endloop
endfacet
facet normal 2.4224030646066364e-16 -1.0 -2.0735047665793528e-16
  outer loop
    vertex 6.987025326522396 -2.2999999999999874 15.870000000000005
    vertex 6.259450680773409 -2.2999999999999874 15.020000000000012
    vertex 6.987025326522396 -2.299999999999987 15.020000000000012
  endloop
endfacet
facet normal 2.4224030646066364e-16 -1.0 -2.0735047665793528e-16
  outer loop
    vertex 6.259450680773409 -2.2999999999999874 15.020000000000012
    vertex 6.987025326522396 -2.2999999999999874 15.870000000000005
    vertex 6.2594506807734085 -2.2999999999999874 15.870000000000005
  endloop
endfacet
facet normal -1.0 -4.401422174278264e-31 -8.294019066317402e-16
  outer loop
    vertex 6.2594506807734085 0.318041497975721 15.870000000000005
    vertex 6.259450680773409 -2.2999999999999874 15.020000000000012
    vertex 6.2594506807734085 -2.2999999999999874 15.870000000000005
  endloop
endfacet
facet normal -1.0 -4.401422174278264e-31 -8.294019066317402e-16
  outer loop
    vertex 6.259450680773409 -2.2999999999999874 15.020000000000012
    vertex 6.2594506807734085 0.318041497975721 15.870000000000005
    vertex 6.259450680773409 0.318041497975721 15.02000000000001
  endloop
endfacet
facet normal -0.9892683397932428 -0.14611006769802393 -4.108238585275898e-16
  outer loop
    vertex 6.1868924823928415 0.8093117408907007 15.870000000000005
    vertex 6.259450680773409 0.318041497975721 15.02000000000001
    vertex 6.2594506807734085 0.318041497975721 15.870000000000005
  endloop
endfacet
facet normal -0.9892683397932428 -0.14611006769802393 -4.108238585275898e-16
  outer loop
    vertex 6.259450680773409 0.318041497975721 15.02000000000001
    vertex 6.1868924823928415 0.8093117408907007 15.870000000000005
    vertex 6.1868924823928415 0.8093117408907007 15.020000000000007
  endloop
endfacet
facet normal 0.0 1.0 0.0
  outer loop
    vertex 6.1868924823928415 0.8093117408907007 15.870000000000005
    vertex 8.263910447979885 0.8093117408907007 15.020000000000007
    vertex 6.1868924823928415 0.8093117408907007 15.020000000000007
  endloop
endfacet
facet normal 0.0 1.0 0.0
  outer loop
    vertex 8.263910447979885 0.8093117408907007 15.020000000000007
    vertex 6.1868924823928415 0.8093117408907007 15.870000000000005
    vertex 8.263910447979885 0.8093117408907007 15.870000000000005
  endloop
endfacet
facet normal 0.9930645950432312 -0.11757002199380369 2.7346235631765184e-20
  outer loop
    vertex 8.263910447979885 0.8093117408907007 15.020000000000007
    vertex 8.207957765793653 0.33670293522268546 15.870000000000005
    vertex 8.207957765793653 0.33670293522268546 15.02000000000001
  endloop
endfacet
facet normal 0.9930645950432312 -0.11757002199380369 2.7346235631765184e-20
  outer loop
    vertex 8.207957765793653 0.33670293522268546 15.870000000000005
    vertex 8.263910447979885 0.8093117408907007 15.020000000000007
    vertex 8.263910447979885 0.8093117408907007 15.870000000000005
  endloop
endfacet
facet normal 0.0 -1.0 0.0
  outer loop
    vertex 8.207957765793653 0.33670293522268546 15.870000000000005
    vertex 6.955933474295676 0.33670293522268546 15.02000000000001
    vertex 8.207957765793653 0.33670293522268546 15.02000000000001
  endloop
endfacet
facet normal 0.0 -1.0 0.0
  outer loop
    vertex 6.955933474295676 0.33670293522268546 15.02000000000001
    vertex 8.207957765793653 0.33670293522268546 15.870000000000005
    vertex 6.955933474295676 0.33670293522268546 15.870000000000005
  endloop
endfacet
facet normal 0.9941449764779032 0.108054457306255 8.670757842709198e-16
  outer loop
    vertex 6.987025326522398 0.05064524291499381 15.02000000000001
    vertex 6.955933474295676 0.33670293522268546 15.870000000000005
    vertex 6.987025326522396 0.0506452429149924 15.870000000000005
  endloop
endfacet
facet normal 0.9941449764779032 0.108054457306255 8.670757842709198e-16
  outer loop
    vertex 6.955933474295676 0.33670293522268546 15.870000000000005
    vertex 6.987025326522398 0.05064524291499381 15.02000000000001
    vertex 6.955933474295676 0.33670293522268546 15.02000000000001
  endloop
endfacet
facet normal 1.0 -1.560090647305844e-15 8.294019066317382e-16
  outer loop
    vertex 6.987025326522398 0.05064524291499381 15.02000000000001
    vertex 6.987025326522396 -0.40124620445342846 15.870000000000005
    vertex 6.987025326522396 -0.40124620445342846 15.02000000000001
  endloop
endfacet
facet normal 1.0 -1.560090647305844e-15 8.294019066317382e-16
  outer loop
    vertex 6.987025326522396 -0.40124620445342846 15.870000000000005
    vertex 6.987025326522398 0.05064524291499381 15.02000000000001
    vertex 6.987025326522396 0.0506452429149924 15.870000000000005
  endloop
endfacet
facet normal 0.0 1.0 0.0
  outer loop
    vertex 6.987025326522396 -0.40124620445342846 15.870000000000005
    vertex 8.05041095405276 -0.40124620445342846 15.02000000000001
    vertex 6.987025326522396 -0.40124620445342846 15.02000000000001
  endloop
endfacet
facet normal 0.0 1.0 0.0
  outer loop
    vertex 8.05041095405276 -0.40124620445342846 15.02000000000001
    vertex 6.987025326522396 -0.40124620445342846 15.870000000000005
    vertex 8.05041095405276 -0.40124620445342846 15.870000000000005
  endloop
endfacet
facet normal 1.0 0.0 0.0
  outer loop
    vertex 8.05041095405276 -0.40124620445342846 15.02000000000001
    vertex 8.05041095405276 -0.8427631578947239 15.870000000000005
    vertex 8.05041095405276 -0.8427631578947239 15.02000000000001
  endloop
endfacet
facet normal 1.0 0.0 0.0
  outer loop
    vertex 8.05041095405276 -0.8427631578947239 15.870000000000005
    vertex 8.05041095405276 -0.40124620445342846 15.02000000000001
    vertex 8.05041095405276 -0.40124620445342846 15.870000000000005
  endloop
endfacet
facet normal 0.0 -1.0 0.0
  outer loop
    vertex 8.05041095405276 -0.8427631578947239 15.870000000000005
    vertex 6.987025326522396 -0.8427631578947239 15.02000000000001
    vertex 8.05041095405276 -0.8427631578947239 15.02000000000001
  endloop
endfacet
facet normal 0.0 -1.0 0.0
  outer loop
    vertex 6.987025326522396 -0.8427631578947239 15.02000000000001
    vertex 8.05041095405276 -0.8427631578947239 15.870000000000005
    vertex 6.987025326522396 -0.8427631578947239 15.870000000000005
  endloop
endfacet
facet normal 1.0 0.0 0.0
  outer loop
    vertex 6.987025326522396 -2.299999999999987 15.020000000000012
    vertex 6.987025326522396 -0.8427631578947239 15.870000000000005
    vertex 6.987025326522396 -2.2999999999999874 15.870000000000005
  endloop
endfacet
facet normal 1.0 0.0 0.0
  outer loop
    vertex 6.987025326522396 -0.8427631578947239 15.870000000000005
    vertex 6.987025326522396 -2.299999999999987 15.020000000000012
    vertex 6.987025326522396 -0.8427631578947239 15.02000000000001
  endloop
endfacet
facet normal 0.0 0.0 1.0
  outer loop
    vertex 8.05041095405276 -0.8427631578947239 15.870000000000005
    vertex 6.987025326522396 -0.40124620445342846 15.870000000000005
    vertex 6.987025326522396 -0.8427631578947239 15.870000000000005
  endloop
endfacet
facet normal 0.0 0.0 1.0
  outer loop
    vertex 6.987025326522396 -0.40124620445342846 15.870000000000005
    vertex 8.05041095405276 -0.8427631578947239 15.870000000000005
    vertex 8.05041095405276 -0.40124620445342846 15.870000000000005
  endloop
endfacet
facet normal 0.0 0.0 1.0
  outer loop
    vertex 6.987025326522396 -2.2999999999999874 15.870000000000005
    vertex 6.2594506807734085 0.318041497975721 15.870000000000005
    vertex 6.2594506807734085 -2.2999999999999874 15.870000000000005
  endloop
endfacet
facet normal 0.0 0.0 1.0
  outer loop
    vertex 6.2594506807734085 0.318041497975721 15.870000000000005
    vertex 6.987025326522396 -2.2999999999999874 15.870000000000005
    vertex 6.955933474295676 0.33670293522268546 15.870000000000005
  endloop
endfacet
facet normal 0.0 0.0 1.0
  outer loop
    vertex 6.955933474295676 0.33670293522268546 15.870000000000005
    vertex 6.987025326522396 -2.2999999999999874 15.870000000000005
    vertex 6.987025326522396 0.0506452429149924 15.870000000000005
  endloop
endfacet
facet normal 0.0 0.0 1.0
  outer loop
    vertex 6.987025326522396 0.0506452429149924 15.870000000000005
    vertex 6.987025326522396 -2.2999999999999874 15.870000000000005
    vertex 6.987025326522396 -0.8427631578947239 15.870000000000005
  endloop
endfacet
facet normal 0.0 0.0 1.0
  outer loop
    vertex 6.987025326522396 0.0506452429149924 15.870000000000005
    vertex 6.987025326522396 -0.8427631578947239 15.870000000000005
    vertex 6.987025326522396 -0.40124620445342846 15.870000000000005
  endloop
endfacet
facet normal 0.0 0.0 1.0
  outer loop
    vertex 6.2594506807734085 0.318041497975721 15.870000000000005
    vertex 8.263910447979885 0.8093117408907007 15.870000000000005
    vertex 6.1868924823928415 0.8093117408907007 15.870000000000005
  endloop
endfacet
facet normal 0.0 0.0 1.0
  outer loop
    vertex 8.263910447979885 0.8093117408907007 15.870000000000005
    vertex 6.2594506807734085 0.318041497975721 15.870000000000005
    vertex 6.955933474295676 0.33670293522268546 15.870000000000005
  endloop
endfacet
facet normal 0.0 0.0 1.0
  outer loop
    vertex 8.263910447979885 0.8093117408907007 15.870000000000005
    vertex 6.955933474295676 0.33670293522268546 15.870000000000005
    vertex 8.207957765793653 0.33670293522268546 15.870000000000005
  endloop
endfacet
facet normal -0.07673005990601343 0.9970519033163818 3.4627648130569873e-16
  outer loop
    vertex 8.495280640287577 0.7947937753036565 15.880000000000004
    vertex 8.710851870044666 0.8113834767206615 15.020000000000007
    vertex 8.495280640287577 0.7947937753036565 15.020000000000007
  endloop
endfacet
facet normal -0.07673005990601343 0.9970519033163818 3.4627648130569873e-16
  outer loop
    vertex 8.710851870044666 0.8113834767206615 15.020000000000007
    vertex 8.495280640287577 0.7947937753036565 15.880000000000004
    vertex 8.710851870044664 0.81138347672066 15.880000000000004
  endloop
endfacet
facet normal -0.046009868878667655 0.9989409852267389 7.436763761459708e-16
  outer loop
    vertex 8.710851870044664 0.81138347672066 15.880000000000004
    vertex 8.935753818425232 0.8217421558704586 15.020000000000007
    vertex 8.710851870044666 0.8113834767206615 15.020000000000007
  endloop
endfacet
facet normal -0.046009868878667655 0.9989409852267389 7.436763761459708e-16
  outer loop
    vertex 8.935753818425232 0.8217421558704586 15.020000000000007
    vertex 8.710851870044664 0.81138347672066 15.880000000000004
    vertex 8.935753818425232 0.8217421558704586 15.880000000000004
  endloop
endfacet
facet normal -0.02967419038594413 0.9995596242470676 7.712675999871619e-16
  outer loop
    vertex 8.935753818425232 0.8217421558704586 15.020000000000007
    vertex 9.145109840692436 0.8279573633603369 15.880000000000004
    vertex 9.145109840692438 0.8279573633603383 15.020000000000005
  endloop
endfacet
facet normal -0.02967419038594413 0.9995596242470676 7.712675999871619e-16
  outer loop
    vertex 9.145109840692436 0.8279573633603369 15.880000000000004
    vertex 8.935753818425232 0.8217421558704586 15.020000000000007
    vertex 8.935753818425232 0.8217421558704586 15.880000000000004
  endloop
endfacet
facet normal -0.012413751514472443 0.9999229464180414 -4.073335444546205e-17
  outer loop
    vertex 9.145109840692436 0.8279573633603369 15.880000000000004
    vertex 9.311987371056812 0.8300290991902963 15.020000000000007
    vertex 9.145109840692438 0.8279573633603383 15.020000000000005
  endloop
endfacet
facet normal -0.012413751514472443 0.9999229464180414 -4.073335444546205e-17
  outer loop
    vertex 9.311987371056812 0.8300290991902963 15.020000000000007
    vertex 9.145109840692436 0.8279573633603369 15.880000000000004
    vertex 9.311987371056807 0.8300290991902963 15.880000000000004
  endloop
endfacet
facet normal 0.06098049734689451 0.9981389577325022 -1.0941326325315755e-16
  outer loop
    vertex 9.311987371056807 0.8300290991902963 15.880000000000004
    vertex 9.647015521360457 0.8095608236336158 15.020000000000007
    vertex 9.311987371056812 0.8300290991902963 15.020000000000007
  endloop
endfacet
facet normal 0.06098049734689451 0.9981389577325022 -1.0941326325315755e-16
  outer loop
    vertex 9.647015521360457 0.8095608236336158 15.020000000000007
    vertex 9.311987371056807 0.8300290991902963 15.880000000000004
    vertex 9.647015521360453 0.8095608236336158 15.880000000000004
  endloop
endfacet
facet normal 0.19515189411881165 0.9807730309413286 1.1265161176920333e-15
  outer loop
    vertex 9.647015521360453 0.8095608236336158 15.880000000000004
    vertex 9.955617178749115 0.748155996963577 15.020000000000007
    vertex 9.647015521360457 0.8095608236336158 15.020000000000007
  endloop
endfacet
facet normal 0.19515189411881165 0.9807730309413286 1.1265161176920333e-15
  outer loop
    vertex 9.955617178749115 0.748155996963577 15.020000000000007
    vertex 9.647015521360453 0.8095608236336158 15.880000000000004
    vertex 9.955617178749115 0.7481559969635756 15.880000000000004
  endloop
endfacet
facet normal 0.3567909359686052 0.9341842580618916 1.5240613446637507e-15
  outer loop
    vertex 9.955617178749115 0.7481559969635756 15.880000000000004
    vertex 10.231051294386768 0.6429600518724831 15.020000000000007
    vertex 9.955617178749115 0.748155996963577 15.020000000000007
  endloop
endfacet
facet normal 0.3567909359686052 0.9341842580618916 1.5240613446637507e-15
  outer loop
    vertex 10.231051294386768 0.6429600518724831 15.020000000000007
    vertex 9.955617178749115 0.7481559969635756 15.880000000000004
    vertex 10.231051294386766 0.6429600518724816 15.880000000000004
  endloop
endfacet
facet normal 0.5418488623845464 0.8404759427446885 1.5809729796375087e-15
  outer loop
    vertex 10.231051294386766 0.6429600518724816 15.880000000000004
    vertex 10.466576819437376 0.49111842105264414 15.02000000000001
    vertex 10.231051294386768 0.6429600518724831 15.020000000000007
  endloop
endfacet
facet normal 0.5418488623845464 0.8404759427446885 1.5809729796375087e-15
  outer loop
    vertex 10.466576819437376 0.49111842105264414 15.02000000000001
    vertex 10.231051294386766 0.6429600518724816 15.880000000000004
    vertex 10.466576819437375 0.49111842105264414 15.880000000000004
  endloop
endfacet
facet normal 0.721891632015742 0.6920061210897259 -2.75378783352078e-16
  outer loop
    vertex 10.466576819437376 0.49111842105264414 15.02000000000001
    vertex 10.658829160024421 0.2905633223684336 15.880000000000004
    vertex 10.65882916002442 0.2905633223684336 15.020000000000007
  endloop
endfacet
facet normal 0.721891632015742 0.6920061210897259 -2.75378783352078e-16
  outer loop
    vertex 10.658829160024421 0.2905633223684336 15.880000000000004
    vertex 10.466576819437376 0.49111842105264414 15.02000000000001
    vertex 10.466576819437375 0.49111842105264414 15.880000000000004
  endloop
endfacet
facet normal 0.865270928131032 0.5013045191610214 2.0149828480184712e-16
  outer loop
    vertex 10.804443722271385 0.03922697368422468 15.020000000000007
    vertex 10.658829160024421 0.2905633223684336 15.880000000000004
    vertex 10.804443722271383 0.039226973684223274 15.880000000000004
  endloop
endfacet
facet normal 0.865270928131032 0.5013045191610214 2.0149828480184712e-16
  outer loop
    vertex 10.658829160024421 0.2905633223684336 15.880000000000004
    vertex 10.804443722271385 0.03922697368422468 15.020000000000007
    vertex 10.65882916002442 0.2905633223684336 15.020000000000007
  endloop
endfacet
facet normal 0.9576251317264792 0.2880175464895211 1.137521391446757e-15
  outer loop
    vertex 10.896165477079077 -0.2657372849190146 15.020000000000007
    vertex 10.804443722271383 0.039226973684223274 15.880000000000004
    vertex 10.896165477079077 -0.26573728491901527 15.880000000000004
  endloop
endfacet
facet normal 0.9576251317264792 0.2880175464895211 1.137521391446757e-15
  outer loop
    vertex 10.804443722271383 0.039226973684223274 15.880000000000004
    vertex 10.896165477079077 -0.2657372849190146 15.020000000000007
    vertex 10.804443722271385 0.03922697368422468 15.020000000000007
  endloop
endfacet
facet normal 0.9964413969543775 0.08428844781824472 6.975203993001459e-17
  outer loop
    vertex 10.926739395348308 -0.6271761133603106 15.020000000000007
    vertex 10.896165477079077 -0.26573728491901527 15.880000000000004
    vertex 10.926739395348308 -0.6271761133603114 15.880000000000004
  endloop
endfacet
facet normal 0.9964413969543775 0.08428844781824472 6.975203993001459e-17
  outer loop
    vertex 10.896165477079077 -0.26573728491901527 15.880000000000004
    vertex 10.926739395348308 -0.6271761133603106 15.020000000000007
    vertex 10.896165477079077 -0.2657372849190146 15.020000000000007
  endloop
endfacet
facet normal 0.9986204612242654 -0.05250880330226098 7.965551430501602e-16
  outer loop
    vertex 10.926739395348308 -0.6271761133603106 15.020000000000007
    vertex 10.911711403192434 -0.9129807692307566 15.880000000000004
    vertex 10.911711403192436 -0.9129807692307566 15.020000000000007
  endloop
endfacet
facet normal 0.9986204612242654 -0.05250880330226098 7.965551430501602e-16
  outer loop
    vertex 10.911711403192434 -0.9129807692307566 15.880000000000004
    vertex 10.926739395348308 -0.6271761133603106 15.020000000000007
    vertex 10.926739395348308 -0.6271761133603114 15.880000000000004
  endloop
endfacet
facet normal 0.9848747454128299 -0.17326781538420039 7.360529955459251e-16
  outer loop
    vertex 10.866627426724826 -1.1692434210526181 15.020000000000007
    vertex 10.911711403192434 -0.9129807692307566 15.880000000000004
    vertex 10.866627426724826 -1.1692434210526188 15.880000000000004
  endloop
endfacet
facet normal 0.9848747454128299 -0.17326781538420039 7.360529955459251e-16
  outer loop
    vertex 10.911711403192434 -0.9129807692307566 15.880000000000004
    vertex 10.866627426724826 -1.1692434210526181 15.020000000000007
    vertex 10.911711403192436 -0.9129807692307566 15.020000000000007
  endloop
endfacet
facet normal 0.9530429538594519 -0.3028351500385162 -1.0301540516834154e-15
  outer loop
    vertex 10.794338079558832 -1.3967429466092982 15.02000000000001
    vertex 10.866627426724826 -1.1692434210526188 15.880000000000004
    vertex 10.794338079558834 -1.3967429466092989 15.880000000000004
  endloop
endfacet
facet normal 0.9530429538594519 -0.3028351500385162 -1.0301540516834154e-15
  outer loop
    vertex 10.866627426724826 -1.1692434210526188 15.880000000000004
    vertex 10.794338079558832 -1.3967429466092982 15.02000000000001
    vertex 10.866627426724826 -1.1692434210526181 15.020000000000007
  endloop
endfacet
facet normal 0.8999744361353074 -0.4359426731841424 -2.1952557792496817e-15
  outer loop
    vertex 10.697693975307821 -1.5962582236841956 15.02000000000001
    vertex 10.794338079558834 -1.3967429466092989 15.880000000000004
    vertex 10.697693975307821 -1.5962582236841978 15.880000000000004
  endloop
endfacet
facet normal 0.8999744361353074 -0.4359426731841424 -2.1952557792496817e-15
  outer loop
    vertex 10.794338079558834 -1.3967429466092989 15.880000000000004
    vertex 10.697693975307821 -1.5962582236841956 15.02000000000001
    vertex 10.794338079558832 -1.3967429466092982 15.02000000000001
  endloop
endfacet
facet normal 0.8222464429494477 -0.5691316078526837 -9.35565950044335e-16
  outer loop
    vertex 10.578248915844258 -1.7688251201922942 15.020000000000012
    vertex 10.697693975307821 -1.5962582236841978 15.880000000000004
    vertex 10.578248915844256 -1.768825120192295 15.880000000000004
  endloop
endfacet
facet normal 0.8222464429494477 -0.5691316078526837 -9.35565950044335e-16
  outer loop
    vertex 10.697693975307821 -1.5962582236841978 15.880000000000004
    vertex 10.578248915844258 -1.7688251201922942 15.020000000000012
    vertex 10.697693975307821 -1.5962582236841956 15.02000000000001
  endloop
endfacet
facet normal 0.7216232593092798 -0.6922859753193414 7.561760099838462e-16
  outer loop
    vertex 10.437556703040615 -1.91547950404857 15.02000000000001
    vertex 10.578248915844256 -1.768825120192295 15.880000000000004
    vertex 10.437556703040615 -1.9154795040485701 15.880000000000004
  endloop
endfacet
facet normal 0.7216232593092798 -0.6922859753193414 7.561760099838462e-16
  outer loop
    vertex 10.578248915844256 -1.768825120192295 15.880000000000004
    vertex 10.437556703040615 -1.91547950404857 15.02000000000001
    vertex 10.578248915844258 -1.7688251201922942 15.020000000000012
  endloop
endfacet
facet normal 0.5492801324016688 -0.8356382806865692 5.568467433623169e-16
  outer loop
    vertex 10.437556703040615 -1.9154795040485701 15.880000000000004
    vertex 10.104861232392842 -2.134166244939258 15.02000000000001
    vertex 10.437556703040615 -1.91547950404857 15.02000000000001
  endloop
endfacet
facet normal 0.5492801324016688 -0.8356382806865692 5.568467433623169e-16
  outer loop
    vertex 10.104861232392842 -2.134166244939258 15.02000000000001
    vertex 10.437556703040615 -1.9154795040485701 15.880000000000004
    vertex 10.104861232392842 -2.1341662449392587 15.880000000000004
  endloop
endfacet
facet normal 0.3085713078571617 -0.951201213186422 1.740241463797339e-16
  outer loop
    vertex 10.104861232392842 -2.1341662449392587 15.880000000000004
    vertex 9.718269000611468 -2.259577429149784 15.02000000000001
    vertex 10.104861232392842 -2.134166244939258 15.02000000000001
  endloop
endfacet
facet normal 0.3085713078571617 -0.951201213186422 1.740241463797339e-16
  outer loop
    vertex 9.718269000611468 -2.259577429149784 15.02000000000001
    vertex 10.104861232392842 -2.1341662449392587 15.880000000000004
    vertex 9.718269000611464 -2.2595774291497848 15.880000000000004
  endloop
endfacet
facet normal 0.09515342016443806 -0.9954626194041692 -2.499937114490856e-16
  outer loop
    vertex 9.718269000611464 -2.2595774291497848 15.880000000000004
    vertex 9.295381854862477 -2.2999999999999874 15.020000000000012
    vertex 9.718269000611468 -2.259577429149784 15.02000000000001
  endloop
endfacet
facet normal 0.09515342016443806 -0.9954626194041692 -2.499937114490856e-16
  outer loop
    vertex 9.295381854862477 -2.2999999999999874 15.020000000000012
    vertex 9.718269000611464 -2.2595774291497848 15.880000000000004
    vertex 9.295381854862477 -2.2999999999999874 15.880000000000004
  endloop
endfacet
facet normal 0.0 -1.0 0.0
  outer loop
    vertex 9.295381854862477 -2.2999999999999874 15.880000000000004
    vertex 8.565751288060858 -2.2999999999999874 15.020000000000012
    vertex 9.295381854862477 -2.2999999999999874 15.020000000000012
  endloop
endfacet
facet normal 0.0 -1.0 0.0
  outer loop
    vertex 8.565751288060858 -2.2999999999999874 15.020000000000012
    vertex 9.295381854862477 -2.2999999999999874 15.880000000000004
    vertex 8.565751288060858 -2.2999999999999874 15.880000000000004
  endloop
endfacet
facet normal -1.0 0.0 0.0
  outer loop
    vertex 8.565751288060858 0.3159539473684334 15.880000000000004
    vertex 8.565751288060858 -2.2999999999999874 15.020000000000012
    vertex 8.565751288060858 -2.2999999999999874 15.880000000000004
  endloop
endfacet
facet normal -1.0 0.0 0.0
  outer loop
    vertex 8.565751288060858 -2.2999999999999874 15.020000000000012
    vertex 8.565751288060858 0.3159539473684334 15.880000000000004
    vertex 8.565751288060858 0.3159539473684334 15.02000000000001
  endloop
endfacet
facet normal -0.9893433590763541 -0.14560122888051588 7.615658418844757e-19
  outer loop
    vertex 8.495280640287577 0.7947937753036565 15.880000000000004
    vertex 8.565751288060858 0.3159539473684334 15.02000000000001
    vertex 8.565751288060858 0.3159539473684334 15.880000000000004
  endloop
endfacet
facet normal -0.9893433590763541 -0.14560122888051588 7.615658418844757e-19
  outer loop
    vertex 8.565751288060858 0.3159539473684334 15.02000000000001
    vertex 8.495280640287577 0.7947937753036565 15.880000000000004
    vertex 8.495280640287577 0.7947937753036565 15.020000000000007
  endloop
endfacet
facet normal 1.0 0.0 0.0
  outer loop
    vertex 9.293325933809845 0.036127277327948217 15.02000000000001
    vertex 9.293325933809845 -1.8232477226720518 15.880000000000004
    vertex 9.293325933809845 -1.8232477226720518 15.020000000000012
  endloop
endfacet
facet normal 1.0 0.0 0.0
  outer loop
    vertex 9.293325933809845 -1.8232477226720518 15.880000000000004
    vertex 9.293325933809845 0.036127277327948217 15.02000000000001
    vertex 9.293325933809845 0.036127277327948217 15.880000000000004
  endloop
endfacet
facet normal -0.20037431218288257 0.9797194164745521 7.558505181680382e-17
  outer loop
    vertex 9.293325933809845 -1.8232477226720518 15.880000000000004
    vertex 9.66332846417422 -1.7475740131578812 15.020000000000012
    vertex 9.293325933809845 -1.8232477226720518 15.020000000000012
  endloop
endfacet
facet normal -0.20037431218288257 0.9797194164745521 7.558505181680382e-17
  outer loop
    vertex 9.66332846417422 -1.7475740131578812 15.020000000000012
    vertex 9.293325933809845 -1.8232477226720518 15.880000000000004
    vertex 9.663328464174217 -1.7475740131578819 15.880000000000004
  endloop
endfacet
facet normal -0.518594381909442 0.8550203898457416 5.04549045202743e-17
  outer loop
    vertex 9.663328464174217 -1.7475740131578819 15.880000000000004
    vertex 9.916222568425233 -1.5941864878542353 15.020000000000012
    vertex 9.66332846417422 -1.7475740131578812 15.020000000000012
  endloop
endfacet
facet normal -0.518594381909442 0.8550203898457416 5.04549045202743e-17
  outer loop
    vertex 9.916222568425233 -1.5941864878542353 15.020000000000012
    vertex 9.663328464174217 -1.7475740131578819 15.880000000000004
    vertex 9.91622256842523 -1.5941864878542382 15.880000000000004
  endloop
endfacet
facet normal -0.7961715582137915 0.6050709461636904 -9.642471577088886e-16
  outer loop
    vertex 10.073753565388792 -1.3869022014169916 15.880000000000004
    vertex 9.916222568425233 -1.5941864878542353 15.020000000000012
    vertex 9.91622256842523 -1.5941864878542382 15.880000000000004
  endloop
endfacet
facet normal -0.7961715582137915 0.6050709461636904 -9.642471577088886e-16
  outer loop
    vertex 9.916222568425233 -1.5941864878542353 15.020000000000012
    vertex 10.073753565388792 -1.3869022014169916 15.880000000000004
    vertex 10.073753565388792 -1.3869022014169916 15.020000000000007
  endloop
endfacet
facet normal -0.9414634168491289 0.33711516538827435 -1.5482696795326842e-15
  outer loop
    vertex 10.158742178749115 -1.1495540232793395 15.880000000000004
    vertex 10.073753565388792 -1.3869022014169916 15.020000000000007
    vertex 10.073753565388792 -1.3869022014169916 15.880000000000004
  endloop
endfacet
facet normal -0.9414634168491289 0.33711516538827435 -1.5482696795326842e-15
  outer loop
    vertex 10.073753565388792 -1.3869022014169916 15.020000000000007
    vertex 10.158742178749115 -1.1495540232793395 15.880000000000004
    vertex 10.158742178749117 -1.1495540232793395 15.020000000000007
  endloop
endfacet
facet normal -0.9901160898239292 0.14025023590630128 -2.318608284672977e-15
  outer loop
    vertex 10.192949542109439 -0.9080623734817685 15.880000000000004
    vertex 10.158742178749117 -1.1495540232793395 15.020000000000007
    vertex 10.158742178749115 -1.1495540232793395 15.880000000000004
  endloop
endfacet
facet normal -0.9901160898239292 0.14025023590630128 -2.318608284672977e-15
  outer loop
    vertex 10.158742178749117 -1.1495540232793395 15.020000000000007
    vertex 10.192949542109439 -0.9080623734817685 15.880000000000004
    vertex 10.192949542109442 -0.9080623734817671 15.020000000000007
  endloop
endfacet
facet normal -0.9996039149918379 0.02814272788822827 -3.2432262594544166e-15
  outer loop
    vertex 10.199164749599317 -0.6873038967611215 15.880000000000004
    vertex 10.192949542109442 -0.9080623734817671 15.020000000000007
    vertex 10.192949542109439 -0.9080623734817685 15.880000000000004
  endloop
endfacet
facet normal -0.9996039149918379 0.02814272788822827 -3.2432262594544166e-15
  outer loop
    vertex 10.192949542109442 -0.9080623734817671 15.020000000000007
    vertex 10.199164749599317 -0.6873038967611215 15.880000000000004
    vertex 10.199164749599321 -0.6873038967611208 15.020000000000007
  endloop
endfacet
facet normal -0.9964103362629454 -0.08465483913140702 -1.76904873087544e-15
  outer loop
    vertex 10.162885650409036 -0.26028909412954204 15.880000000000004
    vertex 10.199164749599321 -0.6873038967611208 15.020000000000007
    vertex 10.199164749599317 -0.6873038967611215 15.880000000000004
  endloop
endfacet
facet normal -0.9964103362629454 -0.08465483913140702 -1.76904873087544e-15
  outer loop
    vertex 10.199164749599321 -0.6873038967611208 15.020000000000007
    vertex 10.162885650409036 -0.26028909412954204 15.880000000000004
    vertex 10.162885650409036 -0.26028909412953993 15.020000000000007
  endloop
endfacet
facet normal -0.9611602170439638 -0.27599100922312797 -4.51892907300177e-16
  outer loop
    vertex 10.110803634973815 -0.07890941295545305 15.880000000000004
    vertex 10.162885650409036 -0.26028909412953993 15.020000000000007
    vertex 10.162885650409036 -0.26028909412954204 15.880000000000004
  endloop
endfacet
facet normal -0.9611602170439638 -0.27599100922312797 -4.51892907300177e-16
  outer loop
    vertex 10.162885650409036 -0.26028909412953993 15.020000000000007
    vertex 10.110803634973815 -0.07890941295545305 15.880000000000004
    vertex 10.110803634973815 -0.07890941295545163 15.020000000000007
  endloop
endfacet
facet normal -0.8792023983212894 -0.47644846813280106 -7.796149424833576e-16
  outer loop
    vertex 10.02711578704871 0.07552188765183515 15.880000000000004
    vertex 10.110803634973815 -0.07890941295545163 15.020000000000007
    vertex 10.110803634973815 -0.07890941295545305 15.880000000000004
  endloop
endfacet
facet normal -0.8792023983212894 -0.47644846813280106 -7.796149424833576e-16
  outer loop
    vertex 10.110803634973815 -0.07890941295545163 15.020000000000007
    vertex 10.02711578704871 0.07552188765183515 15.880000000000004
    vertex 10.02711578704871 0.07552188765183657 15.02000000000001
  endloop
endfacet
facet normal -0.7256550313179846 -0.6880587006374491 -2.288138321677268e-15
  outer loop
    vertex 9.90844960536855 0.20067212803644974 15.880000000000004
    vertex 10.02711578704871 0.07552188765183657 15.02000000000001
    vertex 10.02711578704871 0.07552188765183515 15.880000000000004
  endloop
endfacet
facet normal -0.7256550313179846 -0.6880587006374491 -2.288138321677268e-15
  outer loop
    vertex 10.02711578704871 0.07552188765183657 15.02000000000001
    vertex 9.90844960536855 0.20067212803644974 15.880000000000004
    vertex 9.90844960536855 0.20067212803645257 15.02000000000001
  endloop
endfacet
facet normal -0.5117827545543524 -0.8591149004299481 -1.962398907570854e-15
  outer loop
    vertex 9.90844960536855 0.20067212803645257 15.02000000000001
    vertex 9.751432588668143 0.2942086285425235 15.880000000000004
    vertex 9.751432588668147 0.29420862854252205 15.020000000000007
  endloop
endfacet
facet normal -0.5117827545543524 -0.8591149004299481 -1.962398907570854e-15
  outer loop
    vertex 9.751432588668143 0.2942086285425235 15.880000000000004
    vertex 9.90844960536855 0.20067212803645257 15.02000000000001
    vertex 9.90844960536855 0.20067212803644974 15.880000000000004
  endloop
endfacet
facet normal -0.27714563507843293 -0.9608279226567951 -1.1484661083985297e-16
  outer loop
    vertex 9.751432588668143 0.2942086285425235 15.880000000000004
    vertex 9.549323688111466 0.35250585146762314 15.020000000000007
    vertex 9.751432588668147 0.29420862854252205 15.020000000000007
  endloop
endfacet
facet normal -0.27714563507843293 -0.9608279226567951 -1.1484661083985297e-16
  outer loop
    vertex 9.549323688111466 0.35250585146762314 15.020000000000007
    vertex 9.751432588668143 0.2942086285425235 15.880000000000004
    vertex 9.549323688111464 0.3525058514676246 15.880000000000004
  endloop
endfacet
facet normal -0.0762999940182675 -0.9970849065715579 -1.8761979443779805e-16
  outer loop
    vertex 9.549323688111464 0.3525058514676246 15.880000000000004
    vertex 9.295381854862477 0.3719382591093254 15.020000000000007
    vertex 9.549323688111466 0.35250585146762314 15.020000000000007
  endloop
endfacet
facet normal -0.0762999940182675 -0.9970849065715579 -1.8761979443779805e-16
  outer loop
    vertex 9.295381854862477 0.3719382591093254 15.020000000000007
    vertex 9.549323688111464 0.3525058514676246 15.880000000000004
    vertex 9.295381854862477 0.371938259109324 15.880000000000004
  endloop
endfacet
facet normal 0.9999812595129165 -0.006122142023957037 8.172961075225682e-16
  outer loop
    vertex 9.295381854862477 0.3719382591093254 15.020000000000007
    vertex 9.293325933809845 0.036127277327948217 15.880000000000004
    vertex 9.293325933809845 0.036127277327948217 15.02000000000001
  endloop
endfacet
facet normal 0.9999812595129165 -0.006122142023957037 8.172961075225682e-16
  outer loop
    vertex 9.293325933809845 0.036127277327948217 15.880000000000004
    vertex 9.295381854862477 0.3719382591093254 15.020000000000007
    vertex 9.295381854862477 0.371938259109324 15.880000000000004
  endloop
endfacet
facet normal 0.0 0.0 1.0
  outer loop
    vertex 9.295381854862477 -2.2999999999999874 15.880000000000004
    vertex 8.565751288060858 0.3159539473684334 15.880000000000004
    vertex 8.565751288060858 -2.2999999999999874 15.880000000000004
  endloop
endfacet
facet normal 0.0 0.0 1.0
  outer loop
    vertex 8.565751288060858 0.3159539473684334 15.880000000000004
    vertex 9.295381854862477 -2.2999999999999874 15.880000000000004
    vertex 8.710851870044664 0.81138347672066 15.880000000000004
  endloop
endfacet
facet normal 0.0 0.0 1.0
  outer loop
    vertex 8.710851870044664 0.81138347672066 15.880000000000004
    vertex 9.295381854862477 -2.2999999999999874 15.880000000000004
    vertex 8.935753818425232 0.8217421558704586 15.880000000000004
  endloop
endfacet
facet normal 0.0 0.0 1.0
  outer loop
    vertex 8.935753818425232 0.8217421558704586 15.880000000000004
    vertex 9.295381854862477 -2.2999999999999874 15.880000000000004
    vertex 9.145109840692436 0.8279573633603369 15.880000000000004
  endloop
endfacet
facet normal 0.0 0.0 1.0
  outer loop
    vertex 9.145109840692436 0.8279573633603369 15.880000000000004
    vertex 9.295381854862477 -2.2999999999999874 15.880000000000004
    vertex 9.293325933809845 -1.8232477226720518 15.880000000000004
  endloop
endfacet
facet normal 0.0 0.0 1.0
  outer loop
    vertex 9.293325933809845 -1.8232477226720518 15.880000000000004
    vertex 9.295381854862477 -2.2999999999999874 15.880000000000004
    vertex 9.663328464174217 -1.7475740131578819 15.880000000000004
  endloop
endfacet
facet normal 0.0 0.0 1.0
  outer loop
    vertex 9.663328464174217 -1.7475740131578819 15.880000000000004
    vertex 9.295381854862477 -2.2999999999999874 15.880000000000004
    vertex 9.718269000611464 -2.2595774291497848 15.880000000000004
  endloop
endfacet
facet normal 0.0 0.0 1.0
  outer loop
    vertex 9.663328464174217 -1.7475740131578819 15.880000000000004
    vertex 9.718269000611464 -2.2595774291497848 15.880000000000004
    vertex 9.91622256842523 -1.5941864878542382 15.880000000000004
  endloop
endfacet
facet normal 0.0 0.0 1.0
  outer loop
    vertex 9.91622256842523 -1.5941864878542382 15.880000000000004
    vertex 9.718269000611464 -2.2595774291497848 15.880000000000004
    vertex 10.104861232392842 -2.1341662449392587 15.880000000000004
  endloop
endfacet
facet normal 0.0 0.0 1.0
  outer loop
    vertex 9.91622256842523 -1.5941864878542382 15.880000000000004
    vertex 10.104861232392842 -2.1341662449392587 15.880000000000004
    vertex 10.073753565388792 -1.3869022014169916 15.880000000000004
  endloop
endfacet
facet normal 0.0 0.0 1.0
  outer loop
    vertex 10.073753565388792 -1.3869022014169916 15.880000000000004
    vertex 10.104861232392842 -2.1341662449392587 15.880000000000004
    vertex 10.158742178749115 -1.1495540232793395 15.880000000000004
  endloop
endfacet
facet normal 0.0 0.0 1.0
  outer loop
    vertex 10.158742178749115 -1.1495540232793395 15.880000000000004
    vertex 10.104861232392842 -2.1341662449392587 15.880000000000004
    vertex 10.437556703040615 -1.9154795040485701 15.880000000000004
  endloop
endfacet
facet normal 0.0 0.0 1.0
  outer loop
    vertex 10.158742178749115 -1.1495540232793395 15.880000000000004
    vertex 10.437556703040615 -1.9154795040485701 15.880000000000004
    vertex 10.192949542109439 -0.9080623734817685 15.880000000000004
  endloop
endfacet
facet normal 0.0 0.0 1.0
  outer loop
    vertex 10.192949542109439 -0.9080623734817685 15.880000000000004
    vertex 10.437556703040615 -1.9154795040485701 15.880000000000004
    vertex 10.199164749599317 -0.6873038967611215 15.880000000000004
  endloop
endfacet
facet normal 0.0 0.0 1.0
  outer loop
    vertex 10.199164749599317 -0.6873038967611215 15.880000000000004
    vertex 10.437556703040615 -1.9154795040485701 15.880000000000004
    vertex 10.231051294386766 0.6429600518724816 15.880000000000004
  endloop
endfacet
facet normal 0.0 0.0 1.0
  outer loop
    vertex 10.231051294386766 0.6429600518724816 15.880000000000004
    vertex 10.437556703040615 -1.9154795040485701 15.880000000000004
    vertex 10.466576819437375 0.49111842105264414 15.880000000000004
  endloop
endfacet
facet normal 0.0 0.0 1.0
  outer loop
    vertex 10.466576819437375 0.49111842105264414 15.880000000000004
    vertex 10.437556703040615 -1.9154795040485701 15.880000000000004
    vertex 10.578248915844256 -1.768825120192295 15.880000000000004
  endloop
endfacet
facet normal 0.0 0.0 1.0
  outer loop
    vertex 10.466576819437375 0.49111842105264414 15.880000000000004
    vertex 10.578248915844256 -1.768825120192295 15.880000000000004
    vertex 10.658829160024421 0.2905633223684336 15.880000000000004
  endloop
endfacet
facet normal 0.0 0.0 1.0
  outer loop
    vertex 10.658829160024421 0.2905633223684336 15.880000000000004
    vertex 10.578248915844256 -1.768825120192295 15.880000000000004
    vertex 10.697693975307821 -1.5962582236841978 15.880000000000004
  endloop
endfacet
facet normal 0.0 0.0 1.0
  outer loop
    vertex 10.658829160024421 0.2905633223684336 15.880000000000004
    vertex 10.697693975307821 -1.5962582236841978 15.880000000000004
    vertex 10.804443722271383 0.039226973684223274 15.880000000000004
  endloop
endfacet
facet normal 0.0 0.0 1.0
  outer loop
    vertex 10.804443722271383 0.039226973684223274 15.880000000000004
    vertex 10.697693975307821 -1.5962582236841978 15.880000000000004
    vertex 10.794338079558834 -1.3967429466092989 15.880000000000004
  endloop
endfacet
facet normal 0.0 0.0 1.0
  outer loop
    vertex 10.804443722271383 0.039226973684223274 15.880000000000004
    vertex 10.794338079558834 -1.3967429466092989 15.880000000000004
    vertex 10.866627426724826 -1.1692434210526188 15.880000000000004
  endloop
endfacet
facet normal 0.0 0.0 1.0
  outer loop
    vertex 10.804443722271383 0.039226973684223274 15.880000000000004
    vertex 10.866627426724826 -1.1692434210526188 15.880000000000004
    vertex 10.896165477079077 -0.26573728491901527 15.880000000000004
  endloop
endfacet
facet normal 0.0 0.0 1.0
  outer loop
    vertex 10.896165477079077 -0.26573728491901527 15.880000000000004
    vertex 10.866627426724826 -1.1692434210526188 15.880000000000004
    vertex 10.911711403192434 -0.9129807692307566 15.880000000000004
  endloop
endfacet
facet normal 0.0 0.0 1.0
  outer loop
    vertex 10.896165477079077 -0.26573728491901527 15.880000000000004
    vertex 10.911711403192434 -0.9129807692307566 15.880000000000004
    vertex 10.926739395348308 -0.6271761133603114 15.880000000000004
  endloop
endfacet
facet normal 0.0 0.0 1.0
  outer loop
    vertex 9.145109840692436 0.8279573633603369 15.880000000000004
    vertex 9.295381854862477 0.371938259109324 15.880000000000004
    vertex 9.311987371056807 0.8300290991902963 15.880000000000004
  endloop
endfacet
facet normal 0.0 0.0 1.0
  outer loop
    vertex 9.295381854862477 0.371938259109324 15.880000000000004
    vertex 9.145109840692436 0.8279573633603369 15.880000000000004
    vertex 9.293325933809845 0.036127277327948217 15.880000000000004
  endloop
endfacet
facet normal 0.0 0.0 1.0
  outer loop
    vertex 9.293325933809845 0.036127277327948217 15.880000000000004
    vertex 9.145109840692436 0.8279573633603369 15.880000000000004
    vertex 9.293325933809845 -1.8232477226720518 15.880000000000004
  endloop
endfacet
facet normal 0.0 0.0 1.0
  outer loop
    vertex 9.311987371056807 0.8300290991902963 15.880000000000004
    vertex 9.295381854862477 0.371938259109324 15.880000000000004
    vertex 9.549323688111464 0.3525058514676246 15.880000000000004
  endloop
endfacet
facet normal 0.0 0.0 1.0
  outer loop
    vertex 9.311987371056807 0.8300290991902963 15.880000000000004
    vertex 9.549323688111464 0.3525058514676246 15.880000000000004
    vertex 9.647015521360453 0.8095608236336158 15.880000000000004
  endloop
endfacet
facet normal 0.0 0.0 1.0
  outer loop
    vertex 9.647015521360453 0.8095608236336158 15.880000000000004
    vertex 9.549323688111464 0.3525058514676246 15.880000000000004
    vertex 9.751432588668143 0.2942086285425235 15.880000000000004
  endloop
endfacet
facet normal 0.0 0.0 1.0
  outer loop
    vertex 9.647015521360453 0.8095608236336158 15.880000000000004
    vertex 9.751432588668143 0.2942086285425235 15.880000000000004
    vertex 9.955617178749115 0.7481559969635756 15.880000000000004
  endloop
endfacet
facet normal 0.0 0.0 1.0
  outer loop
    vertex 9.955617178749115 0.7481559969635756 15.880000000000004
    vertex 9.751432588668143 0.2942086285425235 15.880000000000004
    vertex 9.90844960536855 0.20067212803644974 15.880000000000004
  endloop
endfacet
facet normal 0.0 0.0 1.0
  outer loop
    vertex 9.955617178749115 0.7481559969635756 15.880000000000004
    vertex 9.90844960536855 0.20067212803644974 15.880000000000004
    vertex 10.02711578704871 0.07552188765183515 15.880000000000004
  endloop
endfacet
facet normal 0.0 0.0 1.0
  outer loop
    vertex 9.955617178749115 0.7481559969635756 15.880000000000004
    vertex 10.02711578704871 0.07552188765183515 15.880000000000004
    vertex 10.231051294386766 0.6429600518724816 15.880000000000004
  endloop
endfacet
facet normal 0.0 0.0 1.0
  outer loop
    vertex 10.231051294386766 0.6429600518724816 15.880000000000004
    vertex 10.02711578704871 0.07552188765183515 15.880000000000004
    vertex 10.110803634973815 -0.07890941295545305 15.880000000000004
  endloop
endfacet
facet normal 0.0 0.0 1.0
  outer loop
    vertex 10.231051294386766 0.6429600518724816 15.880000000000004
    vertex 10.110803634973815 -0.07890941295545305 15.880000000000004
    vertex 10.162885650409036 -0.26028909412954204 15.880000000000004
  endloop
endfacet
facet normal 0.0 0.0 1.0
  outer loop
    vertex 10.231051294386766 0.6429600518724816 15.880000000000004
    vertex 10.162885650409036 -0.26028909412954204 15.880000000000004
    vertex 10.199164749599317 -0.6873038967611215 15.880000000000004
  endloop
endfacet
facet normal 0.0 0.0 1.0
  outer loop
    vertex 8.710851870044664 0.81138347672066 15.880000000000004
    vertex 8.495280640287577 0.7947937753036565 15.880000000000004
    vertex 8.565751288060858 0.3159539473684334 15.880000000000004
  endloop
endfacet
facet normal -2.452144767432952e-16 5.936771542206099e-16 -1.0
  outer loop
    vertex 14.315751288060861 1.45000000000001 13.000000000000004
    vertex 2.8157512880608513 -3.299999999999991 13.000000000000004
    vertex 2.8157512880608513 1.45000000000001 13.00000000000001
  endloop
endfacet
facet normal -2.452144767432952e-16 5.936771542206099e-16 -1.0
  outer loop
    vertex 2.8157512880608513 -3.299999999999991 13.000000000000004
    vertex 14.315751288060861 1.45000000000001 13.000000000000004
    vertex 14.315751288060861 -3.299999999999991 13.000000000000004
  endloop
endfacet
facet normal 0.0 -1.0 0.0
  outer loop
    vertex 14.31575128806085 2.4500000000000095 15.000000000000004
    vertex 2.815751288060853 2.4500000000000095 13.000000000000004
    vertex 14.31575128806085 2.4500000000000095 13.000000000000004
  endloop
endfacet
facet normal 0.0 -1.0 0.0
  outer loop
    vertex 2.815751288060853 2.4500000000000095 13.000000000000004
    vertex 14.31575128806085 2.4500000000000095 15.000000000000004
    vertex 2.815751288060853 2.4500000000000095 15.000000000000004
  endloop
endfacet
facet normal -1.0 -6.224270874806605e-17 4.646952822977117e-17
  outer loop
    vertex 2.815751288060853 3.8000000000000087 15.860000000000007
    vertex 2.815751288060853 3.0000000000000084 15.000000000000004
    vertex 2.815751288060853 3.0000000000000084 15.860000000000007
  endloop
endfacet
facet normal -1.0 -6.224270874806605e-17 4.646952822977117e-17
  outer loop
    vertex 2.815751288060852 5.200000000000009 15.860000000000007
    vertex 2.815751288060853 4.400000000000009 15.000000000000004
    vertex 2.815751288060852 4.400000000000009 15.860000000000007
  endloop
endfacet
facet normal -1.0 -6.224270874806605e-17 4.646952822977117e-17
  outer loop
    vertex 2.815751288060854 6.600000000000009 15.860000000000007
    vertex 2.8157512880608526 5.800000000000009 15.000000000000004
    vertex 2.815751288060854 5.800000000000009 15.860000000000007
  endloop
endfacet
facet normal -1.0 -6.224270874806605e-17 4.646952822977117e-17
  outer loop
    vertex 2.815751288060853 3.0000000000000084 15.000000000000004
    vertex 2.815751288060853 2.4500000000000095 13.000000000000004
    vertex 2.815751288060853 2.4500000000000095 15.000000000000004
  endloop
endfacet
facet normal -1.0 -6.224270874806605e-17 4.646952822977117e-17
  outer loop
    vertex 2.815751288060853 2.4500000000000095 13.000000000000004
    vertex 2.815751288060853 3.0000000000000084 15.000000000000004
    vertex 2.8157512880608526 7.200000000000009 13.000000000000004
  endloop
endfacet
facet normal -1.0 -6.224270874806605e-17 4.646952822977117e-17
  outer loop
    vertex 2.8157512880608526 7.200000000000009 13.000000000000004
    vertex 2.815751288060853 3.0000000000000084 15.000000000000004
    vertex 2.815751288060853 3.8000000000000087 15.000000000000004
  endloop
endfacet
facet normal -1.0 -6.224270874806605e-17 4.646952822977117e-17
  outer loop
    vertex 2.815751288060853 3.8000000000000087 15.000000000000004
    vertex 2.815751288060853 3.0000000000000084 15.000000000000004
    vertex 2.815751288060853 3.8000000000000087 15.860000000000007
  endloop
endfacet
facet normal -1.0 -6.224270874806605e-17 4.646952822977117e-17
  outer loop
    vertex 2.8157512880608526 7.200000000000009 13.000000000000004
    vertex 2.815751288060853 3.8000000000000087 15.000000000000004
    vertex 2.815751288060853 4.400000000000009 15.000000000000004
  endloop
endfacet
facet normal -1.0 -6.224270874806605e-17 4.646952822977117e-17
  outer loop
    vertex 2.8157512880608526 7.200000000000009 13.000000000000004
    vertex 2.815751288060853 4.400000000000009 15.000000000000004
    vertex 2.8157512880608526 5.200000000000009 15.000000000000004
  endloop
endfacet
facet normal -1.0 -6.224270874806605e-17 4.646952822977117e-17
  outer loop
    vertex 2.8157512880608526 5.200000000000009 15.000000000000004
    vertex 2.815751288060853 4.400000000000009 15.000000000000004
    vertex 2.815751288060852 5.200000000000009 15.860000000000007
  endloop
endfacet
facet normal -1.0 -6.224270874806605e-17 4.646952822977117e-17
  outer loop
    vertex 2.8157512880608526 7.200000000000009 13.000000000000004
    vertex 2.8157512880608526 5.200000000000009 15.000000000000004
    vertex 2.8157512880608526 5.800000000000009 15.000000000000004
  endloop
endfacet
facet normal -1.0 -6.224270874806605e-17 4.646952822977117e-17
  outer loop
    vertex 2.8157512880608526 7.200000000000009 13.000000000000004
    vertex 2.8157512880608526 5.800000000000009 15.000000000000004
    vertex 2.8157512880608526 6.600000000000009 15.000000000000004
  endloop
endfacet
facet normal -1.0 -6.224270874806605e-17 4.646952822977117e-17
  outer loop
    vertex 2.8157512880608526 6.600000000000009 15.000000000000004
    vertex 2.8157512880608526 5.800000000000009 15.000000000000004
    vertex 2.815751288060854 6.600000000000009 15.860000000000007
  endloop
endfacet
facet normal -1.0 -6.224270874806605e-17 4.646952822977117e-17
  outer loop
    vertex 2.8157512880608526 7.200000000000009 13.000000000000004
    vertex 2.8157512880608526 6.600000000000009 15.000000000000004
    vertex 2.8157512880608526 7.200000000000009 15.000000000000004
  endloop
endfacet
facet normal 1.0 0.0 0.0
  outer loop
    vertex 14.31575128806085 7.200000000000009 13.000000000000004
    vertex 14.31575128806085 2.4500000000000095 15.000000000000004
    vertex 14.31575128806085 2.4500000000000095 13.000000000000004
  endloop
endfacet
facet normal 1.0 0.0 0.0
  outer loop
    vertex 14.31575128806085 2.4500000000000095 15.000000000000004
    vertex 14.31575128806085 7.200000000000009 13.000000000000004
    vertex 14.31575128806085 3.0000000000000084 15.000000000000004
  endloop
endfacet
facet normal 1.0 0.0 0.0
  outer loop
    vertex 14.31575128806085 3.0000000000000084 15.000000000000004
    vertex 14.31575128806085 7.200000000000009 13.000000000000004
    vertex 14.31575128806085 3.8000000000000087 15.000000000000004
  endloop
endfacet
facet normal 1.0 0.0 0.0
  outer loop
    vertex 14.31575128806085 3.0000000000000084 15.000000000000004
    vertex 14.31575128806085 3.8000000000000087 15.000000000000004
    vertex 14.31575128806085 3.0000000000000084 15.860000000000007
  endloop
endfacet
facet normal 1.0 0.0 0.0
  outer loop
    vertex 14.31575128806085 3.8000000000000087 15.000000000000004
    vertex 14.31575128806085 7.200000000000009 13.000000000000004
    vertex 14.31575128806085 4.400000000000009 15.000000000000004
  endloop
endfacet
facet normal 1.0 0.0 0.0
  outer loop
    vertex 14.31575128806085 4.400000000000009 15.000000000000004
    vertex 14.31575128806085 7.200000000000009 13.000000000000004
    vertex 14.31575128806085 5.200000000000009 15.000000000000004
  endloop
endfacet
facet normal 1.0 0.0 0.0
  outer loop
    vertex 14.31575128806085 4.400000000000009 15.000000000000004
    vertex 14.31575128806085 5.200000000000009 15.000000000000004
    vertex 14.31575128806085 4.400000000000009 15.860000000000007
  endloop
endfacet
facet normal 1.0 0.0 0.0
  outer loop
    vertex 14.31575128806085 5.200000000000009 15.000000000000004
    vertex 14.31575128806085 7.200000000000009 13.000000000000004
    vertex 14.31575128806085 5.800000000000009 15.000000000000004
  endloop
endfacet
facet normal 1.0 0.0 0.0
  outer loop
    vertex 14.31575128806085 5.800000000000009 15.000000000000004
    vertex 14.31575128806085 7.200000000000009 13.000000000000004
    vertex 14.31575128806085 5.800000000000009 15.860000000000007
  endloop
endfacet
facet normal 1.0 0.0 0.0
  outer loop
    vertex 14.31575128806085 5.800000000000009 15.860000000000007
    vertex 14.31575128806085 7.200000000000009 13.000000000000004
    vertex 14.31575128806085 6.600000000000009 15.000000000000004
  endloop
endfacet
facet normal 1.0 0.0 0.0
  outer loop
    vertex 14.31575128806085 6.600000000000009 15.000000000000004
    vertex 14.31575128806085 7.200000000000009 13.000000000000004
    vertex 14.31575128806085 7.200000000000009 15.000000000000004
  endloop
endfacet
facet normal 1.0 0.0 0.0
  outer loop
    vertex 14.31575128806085 6.600000000000009 15.860000000000007
    vertex 14.31575128806085 5.800000000000009 15.860000000000007
    vertex 14.31575128806085 6.600000000000009 15.000000000000004
  endloop
endfacet
facet normal 1.0 0.0 0.0
  outer loop
    vertex 14.31575128806085 5.200000000000009 15.860000000000007
    vertex 14.31575128806085 4.400000000000009 15.860000000000007
    vertex 14.31575128806085 5.200000000000009 15.000000000000004
  endloop
endfacet
facet normal 1.0 0.0 0.0
  outer loop
    vertex 14.31575128806085 3.8000000000000087 15.860000000000007
    vertex 14.31575128806085 3.0000000000000084 15.860000000000007
    vertex 14.31575128806085 3.8000000000000087 15.000000000000004
  endloop
endfacet
facet normal 0.0 1.0 0.0
  outer loop
    vertex 2.8157512880608526 7.200000000000009 15.000000000000004
    vertex 14.31575128806085 7.200000000000009 13.000000000000004
    vertex 2.8157512880608526 7.200000000000009 13.000000000000004
  endloop
endfacet
facet normal 0.0 1.0 0.0
  outer loop
    vertex 14.31575128806085 7.200000000000009 13.000000000000004
    vertex 2.8157512880608526 7.200000000000009 15.000000000000004
    vertex 14.31575128806085 7.200000000000009 15.000000000000004
  endloop
endfacet
facet normal 0.0 5.551115123125783e-17 1.0
  outer loop
    vertex 14.31575128806085 6.600000000000009 15.000000000000004
    vertex 2.8157512880608526 7.200000000000009 15.000000000000004
    vertex 2.8157512880608526 6.600000000000009 15.000000000000004
  endloop
endfacet
facet normal 0.0 5.551115123125783e-17 1.0
  outer loop
    vertex 2.8157512880608526 7.200000000000009 15.000000000000004
    vertex 14.31575128806085 6.600000000000009 15.000000000000004
    vertex 14.31575128806085 7.200000000000009 15.000000000000004
  endloop
endfacet
facet normal 0.0 5.551115123125783e-17 1.0
  outer loop
    vertex 14.31575128806085 5.800000000000009 15.860000000000007
    vertex 2.815751288060854 6.600000000000009 15.860000000000007
    vertex 2.815751288060854 5.800000000000009 15.860000000000007
  endloop
endfacet
facet normal 0.0 5.551115123125783e-17 1.0
  outer loop
    vertex 2.815751288060854 6.600000000000009 15.860000000000007
    vertex 14.31575128806085 5.800000000000009 15.860000000000007
    vertex 14.31575128806085 6.600000000000009 15.860000000000007
  endloop
endfacet
facet normal 0.0 1.0 -5.551115123125783e-17
  outer loop
    vertex 2.815751288060854 6.600000000000009 15.860000000000007
    vertex 14.31575128806085 6.600000000000009 15.000000000000004
    vertex 2.8157512880608526 6.600000000000009 15.000000000000004
  endloop
endfacet
facet normal 0.0 1.0 -5.551115123125783e-17
  outer loop
    vertex 14.31575128806085 6.600000000000009 15.000000000000004
    vertex 2.815751288060854 6.600000000000009 15.860000000000007
    vertex 14.31575128806085 6.600000000000009 15.860000000000007
  endloop
endfacet
facet normal 0.0 -1.0 5.551115123125783e-17
  outer loop
    vertex 14.31575128806085 5.800000000000009 15.860000000000007
    vertex 2.8157512880608526 5.800000000000009 15.000000000000004
    vertex 14.31575128806085 5.800000000000009 15.000000000000004
  endloop
endfacet
facet normal 0.0 -1.0 5.551115123125783e-17
  outer loop
    vertex 2.8157512880608526 5.800000000000009 15.000000000000004
    vertex 14.31575128806085 5.800000000000009 15.860000000000007
    vertex 2.815751288060854 5.800000000000009 15.860000000000007
  endloop
endfacet
facet normal 0.0 5.551115123125783e-17 1.0
  outer loop
    vertex 14.31575128806085 5.200000000000009 15.000000000000004
    vertex 2.8157512880608526 5.800000000000009 15.000000000000004
    vertex 2.8157512880608526 5.200000000000009 15.000000000000004
  endloop
endfacet
facet normal 0.0 5.551115123125783e-17 1.0
  outer loop
    vertex 2.8157512880608526 5.800000000000009 15.000000000000004
    vertex 14.31575128806085 5.200000000000009 15.000000000000004
    vertex 14.31575128806085 5.800000000000009 15.000000000000004
  endloop
endfacet
facet normal 0.0 -1.0 5.551115123125783e-17
  outer loop
    vertex 14.31575128806085 4.400000000000009 15.860000000000007
    vertex 2.815751288060853 4.400000000000009 15.000000000000004
    vertex 14.31575128806085 4.400000000000009 15.000000000000004
  endloop
endfacet
facet normal 0.0 -1.0 5.551115123125783e-17
  outer loop
    vertex 2.815751288060853 4.400000000000009 15.000000000000004
    vertex 14.31575128806085 4.400000000000009 15.860000000000007
    vertex 2.815751288060852 4.400000000000009 15.860000000000007
  endloop
endfacet
facet normal 0.0 5.551115123125783e-17 1.0
  outer loop
    vertex 14.31575128806085 4.400000000000009 15.860000000000007
    vertex 2.815751288060852 5.200000000000009 15.860000000000007
    vertex 2.815751288060852 4.400000000000009 15.860000000000007
  endloop
endfacet
facet normal 0.0 5.551115123125783e-17 1.0
  outer loop
    vertex 2.815751288060852 5.200000000000009 15.860000000000007
    vertex 14.31575128806085 4.400000000000009 15.860000000000007
    vertex 14.31575128806085 5.200000000000009 15.860000000000007
  endloop
endfacet
facet normal 0.0 1.0 -5.551115123125783e-17
  outer loop
    vertex 2.815751288060852 5.200000000000009 15.860000000000007
    vertex 14.31575128806085 5.200000000000009 15.000000000000004
    vertex 2.8157512880608526 5.200000000000009 15.000000000000004
  endloop
endfacet
facet normal 0.0 1.0 -5.551115123125783e-17
  outer loop
    vertex 14.31575128806085 5.200000000000009 15.000000000000004
    vertex 2.815751288060852 5.200000000000009 15.860000000000007
    vertex 14.31575128806085 5.200000000000009 15.860000000000007
  endloop
endfacet
facet normal 0.0 5.551115123125783e-17 1.0
  outer loop
    vertex 14.31575128806085 2.4500000000000095 15.000000000000004
    vertex 2.815751288060853 3.0000000000000084 15.000000000000004
    vertex 2.815751288060853 2.4500000000000095 15.000000000000004
  endloop
endfacet
facet normal 0.0 5.551115123125783e-17 1.0
  outer loop
    vertex 2.815751288060853 3.0000000000000084 15.000000000000004
    vertex 14.31575128806085 2.4500000000000095 15.000000000000004
    vertex 14.31575128806085 3.0000000000000084 15.000000000000004
  endloop
endfacet
facet normal 0.0 5.551115123125783e-17 1.0
  outer loop
    vertex 2.815751288060853 3.8000000000000087 15.000000000000004
    vertex 14.31575128806085 4.400000000000009 15.000000000000004
    vertex 2.815751288060853 4.400000000000009 15.000000000000004
  endloop
endfacet
facet normal 0.0 5.551115123125783e-17 1.0
  outer loop
    vertex 14.31575128806085 4.400000000000009 15.000000000000004
    vertex 2.815751288060853 3.8000000000000087 15.000000000000004
    vertex 14.31575128806085 3.8000000000000087 15.000000000000004
  endloop
endfacet
facet normal 0.0 5.551115123125783e-17 1.0
  outer loop
    vertex 14.31575128806085 3.0000000000000084 15.860000000000007
    vertex 2.815751288060853 3.8000000000000087 15.860000000000007
    vertex 2.815751288060853 3.0000000000000084 15.860000000000007
  endloop
endfacet
facet normal 0.0 5.551115123125783e-17 1.0
  outer loop
    vertex 2.815751288060853 3.8000000000000087 15.860000000000007
    vertex 14.31575128806085 3.0000000000000084 15.860000000000007
    vertex 14.31575128806085 3.8000000000000087 15.860000000000007
  endloop
endfacet
facet normal 0.0 -1.0 5.551115123125783e-17
  outer loop
    vertex 14.31575128806085 3.0000000000000084 15.860000000000007
    vertex 2.815751288060853 3.0000000000000084 15.000000000000004
    vertex 14.31575128806085 3.0000000000000084 15.000000000000004
  endloop
endfacet
facet normal 0.0 -1.0 5.551115123125783e-17
  outer loop
    vertex 2.815751288060853 3.0000000000000084 15.000000000000004
    vertex 14.31575128806085 3.0000000000000084 15.860000000000007
    vertex 2.815751288060853 3.0000000000000084 15.860000000000007
  endloop
endfacet
facet normal 0.0 1.0 -5.551115123125783e-17
  outer loop
    vertex 2.815751288060853 3.8000000000000087 15.860000000000007
    vertex 14.31575128806085 3.8000000000000087 15.000000000000004
    vertex 2.815751288060853 3.8000000000000087 15.000000000000004
  endloop
endfacet
facet normal 0.0 1.0 -5.551115123125783e-17
  outer loop
    vertex 14.31575128806085 3.8000000000000087 15.000000000000004
    vertex 2.815751288060853 3.8000000000000087 15.860000000000007
    vertex 14.31575128806085 3.8000000000000087 15.860000000000007
  endloop
endfacet
facet normal 0.0 0.0 -1.0
  outer loop
    vertex 14.31575128806085 7.200000000000009 13.000000000000004
    vertex 2.815751288060853 2.4500000000000095 13.000000000000004
    vertex 2.8157512880608526 7.200000000000009 13.000000000000004
  endloop
endfacet
facet normal 0.0 0.0 -1.0
  outer loop
    vertex 2.815751288060853 2.4500000000000095 13.000000000000004
    vertex 14.31575128806085 7.200000000000009 13.000000000000004
    vertex 14.31575128806085 2.4500000000000095 13.000000000000004
  endloop
endfacet
endsolid Korry19x16_button_V5
