solid Korry19x16_button_V5
facet normal 0.0 0.0 -1.0
  outer loop
    vertex 8.263910447979885 0.8093117408907007 15.88
    vertex 6.2594506807734085 0.318041497975721 15.88
    vertex 6.1868924823928415 0.8093117408907007 15.88
  endloop
endfacet
facet normal 0.0 0.0 -1.0
  outer loop
    vertex 6.2594506807734085 0.318041497975721 15.88
    vertex 8.263910447979885 0.8093117408907007 15.88
    vertex 6.955933474295676 0.3367029352226848 15.88
  endloop
endfacet
facet normal 0.0 0.0 -1.0
  outer loop
    vertex 6.2594506807734085 0.318041497975721 15.88
    vertex 6.955933474295676 0.3367029352226848 15.88
    vertex 6.2594506807734085 -2.2999999999999874 15.88
  endloop
endfacet
facet normal 0.0 0.0 -1.0
  outer loop
    vertex 6.955933474295676 0.3367029352226848 15.88
    vertex 8.263910447979885 0.8093117408907007 15.88
    vertex 8.207957765793653 0.3367029352226848 15.88
  endloop
endfacet
facet normal 0.0 0.0 -1.0
  outer loop
    vertex 8.05041095405276 -0.40124620445342846 15.88
    vertex 6.987025326522396 -0.8427631578947239 15.88
    vertex 6.987025326522396 -0.40124620445342846 15.88
  endloop
endfacet
facet normal 0.0 0.0 -1.0
  outer loop
    vertex 6.987025326522396 -0.8427631578947239 15.88
    vertex 8.05041095405276 -0.40124620445342846 15.88
    vertex 8.05041095405276 -0.8427631578947239 15.88
  endloop
endfacet
facet normal 0.0 0.0 -1.0
  outer loop
    vertex 6.955933474295676 0.3367029352226848 15.88
    vertex 6.987025326522396 -2.2999999999999874 15.88
    vertex 6.2594506807734085 -2.2999999999999874 15.88
  endloop
endfacet
facet normal 0.0 0.0 -1.0
  outer loop
    vertex 6.987025326522396 -2.2999999999999874 15.88
    vertex 6.955933474295676 0.3367029352226848 15.88
    vertex 6.987025326522396 0.0506452429149924 15.88
  endloop
endfacet
facet normal 0.0 0.0 -1.0
  outer loop
    vertex 6.987025326522396 -2.2999999999999874 15.88
    vertex 6.987025326522396 0.0506452429149924 15.88
    vertex 6.987025326522396 -0.40124620445342846 15.88
  endloop
endfacet
facet normal 0.0 0.0 -1.0
  outer loop
    vertex 6.987025326522396 -2.2999999999999874 15.88
    vertex 6.987025326522396 -0.40124620445342846 15.88
    vertex 6.987025326522396 -0.8427631578947239 15.88
  endloop
endfacet
facet normal 0.0 0.0 -1.0
  outer loop
    vertex 9.145109840692436 0.8279573633603369 15.88
    vertex 9.295381854862477 0.371938259109324 15.88
    vertex 9.293325933809845 0.036127277327948217 15.88
  endloop
endfacet
facet normal 0.0 0.0 -1.0
  outer loop
    vertex 9.295381854862477 0.371938259109324 15.88
    vertex 9.145109840692436 0.8279573633603369 15.88
    vertex 9.311987371056807 0.8300290991902963 15.88
  endloop
endfacet
facet normal 0.0 0.0 -1.0
  outer loop
    vertex 9.295381854862477 0.371938259109324 15.88
    vertex 9.311987371056807 0.8300290991902963 15.88
    vertex 9.549323688111464 0.35250585146762387 15.88
  endloop
endfacet
facet normal 0.0 0.0 -1.0
  outer loop
    vertex 9.549323688111464 0.35250585146762387 15.88
    vertex 9.311987371056807 0.8300290991902963 15.88
    vertex 9.647015521360453 0.8095608236336158 15.88
  endloop
endfacet
facet normal 0.0 0.0 -1.0
  outer loop
    vertex 9.549323688111464 0.35250585146762387 15.88
    vertex 9.647015521360453 0.8095608236336158 15.88
    vertex 9.751432588668143 0.2942086285425228 15.88
  endloop
endfacet
facet normal 0.0 0.0 -1.0
  outer loop
    vertex 9.751432588668143 0.2942086285425228 15.88
    vertex 9.647015521360453 0.8095608236336158 15.88
    vertex 9.955617178749115 0.7481559969635756 15.88
  endloop
endfacet
facet normal 0.0 0.0 -1.0
  outer loop
    vertex 9.751432588668143 0.2942086285425228 15.88
    vertex 9.955617178749115 0.7481559969635756 15.88
    vertex 9.90844960536855 0.20067212803644974 15.88
  endloop
endfacet
facet normal 0.0 0.0 -1.0
  outer loop
    vertex 9.90844960536855 0.20067212803644974 15.88
    vertex 9.955617178749115 0.7481559969635756 15.88
    vertex 10.02711578704871 0.07552188765183446 15.88
  endloop
endfacet
facet normal 0.0 0.0 -1.0
  outer loop
    vertex 10.02711578704871 0.07552188765183446 15.88
    vertex 9.955617178749115 0.7481559969635756 15.88
    vertex 10.231051294386766 0.6429600518724816 15.88
  endloop
endfacet
facet normal 0.0 0.0 -1.0
  outer loop
    vertex 10.02711578704871 0.07552188765183446 15.88
    vertex 10.231051294386766 0.6429600518724816 15.88
    vertex 10.110803634973815 -0.07890941295545305 15.88
  endloop
endfacet
facet normal 0.0 0.0 -1.0
  outer loop
    vertex 10.110803634973815 -0.07890941295545305 15.88
    vertex 10.231051294386766 0.6429600518724816 15.88
    vertex 10.162885650409036 -0.26028909412954204 15.88
  endloop
endfacet
facet normal 0.0 0.0 -1.0
  outer loop
    vertex 10.162885650409036 -0.26028909412954204 15.88
    vertex 10.231051294386766 0.6429600518724816 15.88
    vertex 10.199164749599317 -0.6873038967611215 15.88
  endloop
endfacet
facet normal 0.0 0.0 -1.0
  outer loop
    vertex 8.710851870044664 0.81138347672066 15.88
    vertex 8.565751288060858 0.3159539473684334 15.88
    vertex 8.495280640287577 0.7947937753036565 15.88
  endloop
endfacet
facet normal 0.0 0.0 -1.0
  outer loop
    vertex 8.565751288060858 0.3159539473684334 15.88
    vertex 8.710851870044664 0.81138347672066 15.88
    vertex 8.565751288060858 -2.2999999999999874 15.88
  endloop
endfacet
facet normal 0.0 0.0 -1.0
  outer loop
    vertex 8.565751288060858 -2.2999999999999874 15.88
    vertex 8.710851870044664 0.81138347672066 15.88
    vertex 9.295381854862477 -2.2999999999999874 15.88
  endloop
endfacet
facet normal 0.0 0.0 -1.0
  outer loop
    vertex 9.295381854862477 -2.2999999999999874 15.88
    vertex 8.710851870044664 0.81138347672066 15.88
    vertex 8.935753818425232 0.821742155870458 15.88
  endloop
endfacet
facet normal 0.0 0.0 -1.0
  outer loop
    vertex 9.295381854862477 -2.2999999999999874 15.88
    vertex 8.935753818425232 0.821742155870458 15.88
    vertex 9.145109840692436 0.8279573633603369 15.88
  endloop
endfacet
facet normal 0.0 0.0 -1.0
  outer loop
    vertex 9.295381854862477 -2.2999999999999874 15.88
    vertex 9.145109840692436 0.8279573633603369 15.88
    vertex 9.293325933809845 -1.8232477226720518 15.88
  endloop
endfacet
facet normal 0.0 0.0 -1.0
  outer loop
    vertex 9.293325933809845 -1.8232477226720518 15.88
    vertex 9.145109840692436 0.8279573633603369 15.88
    vertex 9.293325933809845 0.036127277327948217 15.88
  endloop
endfacet
facet normal 0.0 0.0 -1.0
  outer loop
    vertex 9.295381854862477 -2.2999999999999874 15.88
    vertex 9.293325933809845 -1.8232477226720518 15.88
    vertex 9.663328464174217 -1.7475740131578819 15.88
  endloop
endfacet
facet normal 0.0 0.0 -1.0
  outer loop
    vertex 9.295381854862477 -2.2999999999999874 15.88
    vertex 9.663328464174217 -1.7475740131578819 15.88
    vertex 9.718269000611464 -2.2595774291497848 15.88
  endloop
endfacet
facet normal 0.0 0.0 -1.0
  outer loop
    vertex 9.718269000611464 -2.2595774291497848 15.88
    vertex 9.663328464174217 -1.7475740131578819 15.88
    vertex 9.91622256842523 -1.5941864878542382 15.88
  endloop
endfacet
facet normal 0.0 0.0 -1.0
  outer loop
    vertex 9.718269000611464 -2.2595774291497848 15.88
    vertex 9.91622256842523 -1.5941864878542382 15.88
    vertex 10.104861232392842 -2.1341662449392587 15.88
  endloop
endfacet
facet normal 0.0 0.0 -1.0
  outer loop
    vertex 10.104861232392842 -2.1341662449392587 15.88
    vertex 9.91622256842523 -1.5941864878542382 15.88
    vertex 10.073753565388792 -1.3869022014169916 15.88
  endloop
endfacet
facet normal 0.0 0.0 -1.0
  outer loop
    vertex 10.104861232392842 -2.1341662449392587 15.88
    vertex 10.073753565388792 -1.3869022014169916 15.88
    vertex 10.158742178749115 -1.1495540232793395 15.88
  endloop
endfacet
facet normal 0.0 0.0 -1.0
  outer loop
    vertex 10.104861232392842 -2.1341662449392587 15.88
    vertex 10.158742178749115 -1.1495540232793395 15.88
    vertex 10.437556703040615 -1.9154795040485701 15.88
  endloop
endfacet
facet normal 0.0 0.0 -1.0
  outer loop
    vertex 10.437556703040615 -1.9154795040485701 15.88
    vertex 10.158742178749115 -1.1495540232793395 15.88
    vertex 10.192949542109439 -0.9080623734817685 15.88
  endloop
endfacet
facet normal 0.0 0.0 -1.0
  outer loop
    vertex 10.437556703040615 -1.9154795040485701 15.88
    vertex 10.192949542109439 -0.9080623734817685 15.88
    vertex 10.199164749599317 -0.6873038967611215 15.88
  endloop
endfacet
facet normal 0.0 0.0 -1.0
  outer loop
    vertex 10.437556703040615 -1.9154795040485701 15.88
    vertex 10.199164749599317 -0.6873038967611215 15.88
    vertex 10.231051294386766 0.6429600518724816 15.88
  endloop
endfacet
facet normal 0.0 0.0 -1.0
  outer loop
    vertex 10.437556703040615 -1.9154795040485701 15.88
    vertex 10.231051294386766 0.6429600518724816 15.88
    vertex 10.466576819437375 0.49111842105264414 15.88
  endloop
endfacet
facet normal 0.0 0.0 -1.0
  outer loop
    vertex 10.437556703040615 -1.9154795040485701 15.88
    vertex 10.466576819437375 0.49111842105264414 15.88
    vertex 10.578248915844256 -1.768825120192295 15.88
  endloop
endfacet
facet normal 0.0 0.0 -1.0
  outer loop
    vertex 10.578248915844256 -1.768825120192295 15.88
    vertex 10.466576819437375 0.49111842105264414 15.88
    vertex 10.658829160024421 0.2905633223684336 15.88
  endloop
endfacet
facet normal 0.0 0.0 -1.0
  outer loop
    vertex 10.578248915844256 -1.768825120192295 15.88
    vertex 10.658829160024421 0.2905633223684336 15.88
    vertex 10.697693975307821 -1.5962582236841978 15.88
  endloop
endfacet
facet normal 0.0 0.0 -1.0
  outer loop
    vertex 10.697693975307821 -1.5962582236841978 15.88
    vertex 10.658829160024421 0.2905633223684336 15.88
    vertex 10.804443722271383 0.039226973684223274 15.88
  endloop
endfacet
facet normal 0.0 0.0 -1.0
  outer loop
    vertex 10.697693975307821 -1.5962582236841978 15.88
    vertex 10.804443722271383 0.039226973684223274 15.88
    vertex 10.794338079558834 -1.3967429466092989 15.88
  endloop
endfacet
facet normal 0.0 0.0 -1.0
  outer loop
    vertex 10.794338079558834 -1.3967429466092989 15.88
    vertex 10.804443722271383 0.039226973684223274 15.88
    vertex 10.866627426724826 -1.1692434210526188 15.88
  endloop
endfacet
facet normal 0.0 0.0 -1.0
  outer loop
    vertex 10.866627426724826 -1.1692434210526188 15.88
    vertex 10.804443722271383 0.039226973684223274 15.88
    vertex 10.896165477079077 -0.26573728491901527 15.88
  endloop
endfacet
facet normal 0.0 0.0 -1.0
  outer loop
    vertex 10.866627426724826 -1.1692434210526188 15.88
    vertex 10.896165477079077 -0.26573728491901527 15.88
    vertex 10.911711403192434 -0.9129807692307566 15.88
  endloop
endfacet
facet normal 0.0 0.0 -1.0
  outer loop
    vertex 10.911711403192434 -0.9129807692307566 15.88
    vertex 10.896165477079077 -0.26573728491901527 15.88
    vertex 10.926739395348308 -0.6271761133603114 15.88
  endloop
endfacet
facet normal 0.0 0.0 1.0
  outer loop
    vertex 8.05041095405276 -0.8427631578947239 16.00000000000004
    vertex 6.987025326522396 -0.40124620445342846 16.00000000000004
    vertex 6.987025326522396 -0.8427631578947239 16.00000000000004
  endloop
endfacet
facet normal 0.0 0.0 1.0
  outer loop
    vertex 6.987025326522396 -0.40124620445342846 16.00000000000004
    vertex 8.05041095405276 -0.8427631578947239 16.00000000000004
    vertex 8.05041095405276 -0.40124620445342846 16.00000000000004
  endloop
endfacet
facet normal 0.0 0.0 1.0
  outer loop
    vertex 6.987025326522396 -2.2999999999999874 16.00000000000004
    vertex 6.2594506807734085 0.318041497975721 16.00000000000004
    vertex 6.2594506807734085 -2.2999999999999874 16.00000000000004
  endloop
endfacet
facet normal 0.0 0.0 1.0
  outer loop
    vertex 6.2594506807734085 0.318041497975721 16.00000000000004
    vertex 6.987025326522396 -2.2999999999999874 16.00000000000004
    vertex 6.955933474295676 0.3367029352226848 16.00000000000004
  endloop
endfacet
facet normal 0.0 0.0 1.0
  outer loop
    vertex 6.955933474295676 0.3367029352226848 16.00000000000004
    vertex 6.987025326522396 -2.2999999999999874 16.00000000000004
    vertex 6.987025326522396 0.0506452429149924 16.00000000000004
  endloop
endfacet
facet normal 0.0 0.0 1.0
  outer loop
    vertex 6.987025326522396 0.0506452429149924 16.00000000000004
    vertex 6.987025326522396 -2.2999999999999874 16.00000000000004
    vertex 6.987025326522396 -0.8427631578947239 16.00000000000004
  endloop
endfacet
facet normal 0.0 0.0 1.0
  outer loop
    vertex 6.987025326522396 0.0506452429149924 16.00000000000004
    vertex 6.987025326522396 -0.8427631578947239 16.00000000000004
    vertex 6.987025326522396 -0.40124620445342846 16.00000000000004
  endloop
endfacet
facet normal 0.0 0.0 1.0
  outer loop
    vertex 6.2594506807734085 0.318041497975721 16.00000000000004
    vertex 8.263910447979885 0.8093117408907007 16.00000000000004
    vertex 6.1868924823928415 0.8093117408907007 16.00000000000004
  endloop
endfacet
facet normal 0.0 0.0 1.0
  outer loop
    vertex 8.263910447979885 0.8093117408907007 16.00000000000004
    vertex 6.2594506807734085 0.318041497975721 16.00000000000004
    vertex 6.955933474295676 0.3367029352226848 16.00000000000004
  endloop
endfacet
facet normal 0.0 0.0 1.0
  outer loop
    vertex 8.263910447979885 0.8093117408907007 16.00000000000004
    vertex 6.955933474295676 0.3367029352226848 16.00000000000004
    vertex 8.207957765793653 0.3367029352226848 16.00000000000004
  endloop
endfacet
facet normal 0.0 -1.0 0.0
  outer loop
    vertex 6.987025326522396 -2.2999999999999874 16.00000000000004
    vertex 6.2594506807734085 -2.2999999999999874 15.88
    vertex 6.987025326522396 -2.2999999999999874 15.88
  endloop
endfacet
facet normal 0.0 -1.0 0.0
  outer loop
    vertex 6.2594506807734085 -2.2999999999999874 15.88
    vertex 6.987025326522396 -2.2999999999999874 16.00000000000004
    vertex 6.2594506807734085 -2.2999999999999874 16.00000000000004
  endloop
endfacet
facet normal -1.0 0.0 0.0
  outer loop
    vertex 6.2594506807734085 0.318041497975721 16.00000000000004
    vertex 6.2594506807734085 -2.2999999999999874 15.88
    vertex 6.2594506807734085 -2.2999999999999874 16.00000000000004
  endloop
endfacet
facet normal -1.0 0.0 0.0
  outer loop
    vertex 6.2594506807734085 -2.2999999999999874 15.88
    vertex 6.2594506807734085 0.318041497975721 16.00000000000004
    vertex 6.2594506807734085 0.318041497975721 15.88
  endloop
endfacet
facet normal -0.9892683397932429 -0.14611006769802345 0.0
  outer loop
    vertex 6.1868924823928415 0.8093117408907007 16.00000000000004
    vertex 6.2594506807734085 0.318041497975721 15.88
    vertex 6.2594506807734085 0.318041497975721 16.00000000000004
  endloop
endfacet
facet normal -0.9892683397932429 -0.14611006769802345 0.0
  outer loop
    vertex 6.2594506807734085 0.318041497975721 15.88
    vertex 6.1868924823928415 0.8093117408907007 16.00000000000004
    vertex 6.1868924823928415 0.8093117408907007 15.88
  endloop
endfacet
facet normal 0.0 1.0 0.0
  outer loop
    vertex 6.1868924823928415 0.8093117408907007 16.00000000000004
    vertex 8.263910447979885 0.8093117408907007 15.88
    vertex 6.1868924823928415 0.8093117408907007 15.88
  endloop
endfacet
facet normal 0.0 1.0 0.0
  outer loop
    vertex 8.263910447979885 0.8093117408907007 15.88
    vertex 6.1868924823928415 0.8093117408907007 16.00000000000004
    vertex 8.263910447979885 0.8093117408907007 16.00000000000004
  endloop
endfacet
facet normal 0.9930645950432307 -0.11757002199380731 0.0
  outer loop
    vertex 8.263910447979885 0.8093117408907007 15.88
    vertex 8.207957765793653 0.3367029352226848 16.00000000000004
    vertex 8.207957765793653 0.3367029352226848 15.88
  endloop
endfacet
facet normal 0.9930645950432307 -0.11757002199380731 0.0
  outer loop
    vertex 8.207957765793653 0.3367029352226848 16.00000000000004
    vertex 8.263910447979885 0.8093117408907007 15.88
    vertex 8.263910447979885 0.8093117408907007 16.00000000000004
  endloop
endfacet
facet normal 0.0 -1.0 0.0
  outer loop
    vertex 8.207957765793653 0.3367029352226848 16.00000000000004
    vertex 6.955933474295676 0.3367029352226848 15.88
    vertex 8.207957765793653 0.3367029352226848 15.88
  endloop
endfacet
facet normal 0.0 -1.0 0.0
  outer loop
    vertex 6.955933474295676 0.3367029352226848 15.88
    vertex 8.207957765793653 0.3367029352226848 16.00000000000004
    vertex 6.955933474295676 0.3367029352226848 16.00000000000004
  endloop
endfacet
facet normal 0.9941449764779031 0.10805445730625608 0.0
  outer loop
    vertex 6.955933474295676 0.3367029352226848 15.88
    vertex 6.987025326522396 0.0506452429149924 16.00000000000004
    vertex 6.987025326522396 0.0506452429149924 15.88
  endloop
endfacet
facet normal 0.9941449764779031 0.10805445730625608 0.0
  outer loop
    vertex 6.987025326522396 0.0506452429149924 16.00000000000004
    vertex 6.955933474295676 0.3367029352226848 15.88
    vertex 6.955933474295676 0.3367029352226848 16.00000000000004
  endloop
endfacet
facet normal 1.0 0.0 0.0
  outer loop
    vertex 6.987025326522396 0.0506452429149924 15.88
    vertex 6.987025326522396 -0.40124620445342846 16.00000000000004
    vertex 6.987025326522396 -0.40124620445342846 15.88
  endloop
endfacet
facet normal 1.0 0.0 0.0
  outer loop
    vertex 6.987025326522396 -0.40124620445342846 16.00000000000004
    vertex 6.987025326522396 0.0506452429149924 15.88
    vertex 6.987025326522396 0.0506452429149924 16.00000000000004
  endloop
endfacet
facet normal 0.0 1.0 0.0
  outer loop
    vertex 6.987025326522396 -0.40124620445342846 16.00000000000004
    vertex 8.05041095405276 -0.40124620445342846 15.88
    vertex 6.987025326522396 -0.40124620445342846 15.88
  endloop
endfacet
facet normal 0.0 1.0 0.0
  outer loop
    vertex 8.05041095405276 -0.40124620445342846 15.88
    vertex 6.987025326522396 -0.40124620445342846 16.00000000000004
    vertex 8.05041095405276 -0.40124620445342846 16.00000000000004
  endloop
endfacet
facet normal 1.0 0.0 0.0
  outer loop
    vertex 8.05041095405276 -0.40124620445342846 15.88
    vertex 8.05041095405276 -0.8427631578947239 16.00000000000004
    vertex 8.05041095405276 -0.8427631578947239 15.88
  endloop
endfacet
facet normal 1.0 0.0 0.0
  outer loop
    vertex 8.05041095405276 -0.8427631578947239 16.00000000000004
    vertex 8.05041095405276 -0.40124620445342846 15.88
    vertex 8.05041095405276 -0.40124620445342846 16.00000000000004
  endloop
endfacet
facet normal 0.0 -1.0 0.0
  outer loop
    vertex 8.05041095405276 -0.8427631578947239 16.00000000000004
    vertex 6.987025326522396 -0.8427631578947239 15.88
    vertex 8.05041095405276 -0.8427631578947239 15.88
  endloop
endfacet
facet normal 0.0 -1.0 0.0
  outer loop
    vertex 6.987025326522396 -0.8427631578947239 15.88
    vertex 8.05041095405276 -0.8427631578947239 16.00000000000004
    vertex 6.987025326522396 -0.8427631578947239 16.00000000000004
  endloop
endfacet
facet normal 1.0 0.0 0.0
  outer loop
    vertex 6.987025326522396 -0.8427631578947239 15.88
    vertex 6.987025326522396 -2.2999999999999874 16.00000000000004
    vertex 6.987025326522396 -2.2999999999999874 15.88
  endloop
endfacet
facet normal 1.0 0.0 0.0
  outer loop
    vertex 6.987025326522396 -2.2999999999999874 16.00000000000004
    vertex 6.987025326522396 -0.8427631578947239 15.88
    vertex 6.987025326522396 -0.8427631578947239 16.00000000000004
  endloop
endfacet
facet normal 0.0 0.0 1.0
  outer loop
    vertex 9.295381854862477 -2.2999999999999874 16.00000000000003
    vertex 8.565751288060858 0.3159539473684334 16.00000000000003
    vertex 8.565751288060858 -2.2999999999999874 16.00000000000003
  endloop
endfacet
facet normal 0.0 0.0 1.0
  outer loop
    vertex 8.565751288060858 0.3159539473684334 16.00000000000003
    vertex 9.295381854862477 -2.2999999999999874 16.00000000000003
    vertex 8.710851870044664 0.81138347672066 16.00000000000003
  endloop
endfacet
facet normal 0.0 0.0 1.0
  outer loop
    vertex 8.710851870044664 0.81138347672066 16.00000000000003
    vertex 9.295381854862477 -2.2999999999999874 16.00000000000003
    vertex 8.935753818425232 0.821742155870458 16.00000000000003
  endloop
endfacet
facet normal 0.0 0.0 1.0
  outer loop
    vertex 8.935753818425232 0.821742155870458 16.00000000000003
    vertex 9.295381854862477 -2.2999999999999874 16.00000000000003
    vertex 9.145109840692436 0.8279573633603369 16.00000000000003
  endloop
endfacet
facet normal 0.0 0.0 1.0
  outer loop
    vertex 9.145109840692436 0.8279573633603369 16.00000000000003
    vertex 9.295381854862477 -2.2999999999999874 16.00000000000003
    vertex 9.293325933809845 -1.8232477226720518 16.00000000000003
  endloop
endfacet
facet normal 0.0 0.0 1.0
  outer loop
    vertex 9.293325933809845 -1.8232477226720518 16.00000000000003
    vertex 9.295381854862477 -2.2999999999999874 16.00000000000003
    vertex 9.663328464174217 -1.7475740131578819 16.00000000000003
  endloop
endfacet
facet normal 0.0 0.0 1.0
  outer loop
    vertex 9.663328464174217 -1.7475740131578819 16.00000000000003
    vertex 9.295381854862477 -2.2999999999999874 16.00000000000003
    vertex 9.718269000611464 -2.2595774291497848 16.00000000000003
  endloop
endfacet
facet normal 0.0 0.0 1.0
  outer loop
    vertex 9.663328464174217 -1.7475740131578819 16.00000000000003
    vertex 9.718269000611464 -2.2595774291497848 16.00000000000003
    vertex 9.91622256842523 -1.5941864878542382 16.00000000000003
  endloop
endfacet
facet normal 0.0 0.0 1.0
  outer loop
    vertex 9.91622256842523 -1.5941864878542382 16.00000000000003
    vertex 9.718269000611464 -2.2595774291497848 16.00000000000003
    vertex 10.104861232392842 -2.1341662449392587 16.00000000000003
  endloop
endfacet
facet normal 0.0 0.0 1.0
  outer loop
    vertex 9.91622256842523 -1.5941864878542382 16.00000000000003
    vertex 10.104861232392842 -2.1341662449392587 16.00000000000003
    vertex 10.073753565388792 -1.3869022014169916 16.00000000000003
  endloop
endfacet
facet normal 0.0 0.0 1.0
  outer loop
    vertex 10.073753565388792 -1.3869022014169916 16.00000000000003
    vertex 10.104861232392842 -2.1341662449392587 16.00000000000003
    vertex 10.158742178749115 -1.1495540232793395 16.00000000000003
  endloop
endfacet
facet normal 0.0 0.0 1.0
  outer loop
    vertex 10.158742178749115 -1.1495540232793395 16.00000000000003
    vertex 10.104861232392842 -2.1341662449392587 16.00000000000003
    vertex 10.437556703040615 -1.9154795040485701 16.00000000000003
  endloop
endfacet
facet normal 0.0 0.0 1.0
  outer loop
    vertex 10.158742178749115 -1.1495540232793395 16.00000000000003
    vertex 10.437556703040615 -1.9154795040485701 16.00000000000003
    vertex 10.192949542109439 -0.9080623734817685 16.00000000000003
  endloop
endfacet
facet normal 0.0 0.0 1.0
  outer loop
    vertex 10.192949542109439 -0.9080623734817685 16.00000000000003
    vertex 10.437556703040615 -1.9154795040485701 16.00000000000003
    vertex 10.199164749599317 -0.6873038967611215 16.00000000000003
  endloop
endfacet
facet normal 0.0 0.0 1.0
  outer loop
    vertex 10.199164749599317 -0.6873038967611215 16.00000000000003
    vertex 10.437556703040615 -1.9154795040485701 16.00000000000003
    vertex 10.231051294386766 0.6429600518724816 16.00000000000003
  endloop
endfacet
facet normal 0.0 0.0 1.0
  outer loop
    vertex 10.231051294386766 0.6429600518724816 16.00000000000003
    vertex 10.437556703040615 -1.9154795040485701 16.00000000000003
    vertex 10.466576819437375 0.49111842105264414 16.00000000000003
  endloop
endfacet
facet normal 0.0 0.0 1.0
  outer loop
    vertex 10.466576819437375 0.49111842105264414 16.00000000000003
    vertex 10.437556703040615 -1.9154795040485701 16.00000000000003
    vertex 10.578248915844256 -1.768825120192295 16.00000000000003
  endloop
endfacet
facet normal 0.0 0.0 1.0
  outer loop
    vertex 10.466576819437375 0.49111842105264414 16.00000000000003
    vertex 10.578248915844256 -1.768825120192295 16.00000000000003
    vertex 10.658829160024421 0.2905633223684336 16.00000000000003
  endloop
endfacet
facet normal 0.0 0.0 1.0
  outer loop
    vertex 10.658829160024421 0.2905633223684336 16.00000000000003
    vertex 10.578248915844256 -1.768825120192295 16.00000000000003
    vertex 10.697693975307821 -1.5962582236841978 16.00000000000003
  endloop
endfacet
facet normal 0.0 0.0 1.0
  outer loop
    vertex 10.658829160024421 0.2905633223684336 16.00000000000003
    vertex 10.697693975307821 -1.5962582236841978 16.00000000000003
    vertex 10.804443722271383 0.039226973684223274 16.00000000000003
  endloop
endfacet
facet normal 0.0 0.0 1.0
  outer loop
    vertex 10.804443722271383 0.039226973684223274 16.00000000000003
    vertex 10.697693975307821 -1.5962582236841978 16.00000000000003
    vertex 10.794338079558834 -1.3967429466092989 16.00000000000003
  endloop
endfacet
facet normal 0.0 0.0 1.0
  outer loop
    vertex 10.804443722271383 0.039226973684223274 16.00000000000003
    vertex 10.794338079558834 -1.3967429466092989 16.00000000000003
    vertex 10.866627426724826 -1.1692434210526188 16.00000000000003
  endloop
endfacet
facet normal 0.0 0.0 1.0
  outer loop
    vertex 10.804443722271383 0.039226973684223274 16.00000000000003
    vertex 10.866627426724826 -1.1692434210526188 16.00000000000003
    vertex 10.896165477079077 -0.26573728491901527 16.00000000000003
  endloop
endfacet
facet normal 0.0 0.0 1.0
  outer loop
    vertex 10.896165477079077 -0.26573728491901527 16.00000000000003
    vertex 10.866627426724826 -1.1692434210526188 16.00000000000003
    vertex 10.911711403192434 -0.9129807692307566 16.00000000000003
  endloop
endfacet
facet normal 0.0 0.0 1.0
  outer loop
    vertex 10.896165477079077 -0.26573728491901527 16.00000000000003
    vertex 10.911711403192434 -0.9129807692307566 16.00000000000003
    vertex 10.926739395348308 -0.6271761133603114 16.00000000000003
  endloop
endfacet
facet normal 0.0 0.0 1.0
  outer loop
    vertex 9.145109840692436 0.8279573633603369 16.00000000000003
    vertex 9.295381854862477 0.371938259109324 16.00000000000003
    vertex 9.311987371056807 0.8300290991902963 16.00000000000003
  endloop
endfacet
facet normal 0.0 0.0 1.0
  outer loop
    vertex 9.295381854862477 0.371938259109324 16.00000000000003
    vertex 9.145109840692436 0.8279573633603369 16.00000000000003
    vertex 9.293325933809845 0.036127277327948217 16.00000000000003
  endloop
endfacet
facet normal 0.0 0.0 1.0
  outer loop
    vertex 9.293325933809845 0.036127277327948217 16.00000000000003
    vertex 9.145109840692436 0.8279573633603369 16.00000000000003
    vertex 9.293325933809845 -1.8232477226720518 16.00000000000003
  endloop
endfacet
facet normal 0.0 0.0 1.0
  outer loop
    vertex 9.311987371056807 0.8300290991902963 16.00000000000003
    vertex 9.295381854862477 0.371938259109324 16.00000000000003
    vertex 9.549323688111464 0.35250585146762387 16.00000000000003
  endloop
endfacet
facet normal 0.0 0.0 1.0
  outer loop
    vertex 9.311987371056807 0.8300290991902963 16.00000000000003
    vertex 9.549323688111464 0.35250585146762387 16.00000000000003
    vertex 9.647015521360453 0.8095608236336158 16.00000000000003
  endloop
endfacet
facet normal 0.0 0.0 1.0
  outer loop
    vertex 9.647015521360453 0.8095608236336158 16.00000000000003
    vertex 9.549323688111464 0.35250585146762387 16.00000000000003
    vertex 9.751432588668143 0.2942086285425228 16.00000000000003
  endloop
endfacet
facet normal 0.0 0.0 1.0
  outer loop
    vertex 9.647015521360453 0.8095608236336158 16.00000000000003
    vertex 9.751432588668143 0.2942086285425228 16.00000000000003
    vertex 9.955617178749115 0.7481559969635756 16.00000000000003
  endloop
endfacet
facet normal 0.0 0.0 1.0
  outer loop
    vertex 9.955617178749115 0.7481559969635756 16.00000000000003
    vertex 9.751432588668143 0.2942086285425228 16.00000000000003
    vertex 9.90844960536855 0.20067212803644974 16.00000000000003
  endloop
endfacet
facet normal 0.0 0.0 1.0
  outer loop
    vertex 9.955617178749115 0.7481559969635756 16.00000000000003
    vertex 9.90844960536855 0.20067212803644974 16.00000000000003
    vertex 10.02711578704871 0.07552188765183446 16.00000000000003
  endloop
endfacet
facet normal 0.0 0.0 1.0
  outer loop
    vertex 9.955617178749115 0.7481559969635756 16.00000000000003
    vertex 10.02711578704871 0.07552188765183446 16.00000000000003
    vertex 10.231051294386766 0.6429600518724816 16.00000000000003
  endloop
endfacet
facet normal 0.0 0.0 1.0
  outer loop
    vertex 10.231051294386766 0.6429600518724816 16.00000000000003
    vertex 10.02711578704871 0.07552188765183446 16.00000000000003
    vertex 10.110803634973815 -0.07890941295545305 16.00000000000003
  endloop
endfacet
facet normal 0.0 0.0 1.0
  outer loop
    vertex 10.231051294386766 0.6429600518724816 16.00000000000003
    vertex 10.110803634973815 -0.07890941295545305 16.00000000000003
    vertex 10.162885650409036 -0.26028909412954204 16.00000000000003
  endloop
endfacet
facet normal 0.0 0.0 1.0
  outer loop
    vertex 10.231051294386766 0.6429600518724816 16.00000000000003
    vertex 10.162885650409036 -0.26028909412954204 16.00000000000003
    vertex 10.199164749599317 -0.6873038967611215 16.00000000000003
  endloop
endfacet
facet normal 0.0 0.0 1.0
  outer loop
    vertex 8.710851870044664 0.81138347672066 16.00000000000003
    vertex 8.495280640287577 0.7947937753036565 16.00000000000003
    vertex 8.565751288060858 0.3159539473684334 16.00000000000003
  endloop
endfacet
facet normal -0.07673005990601431 0.9970519033163817 0.0
  outer loop
    vertex 8.495280640287577 0.7947937753036565 16.00000000000003
    vertex 8.710851870044664 0.81138347672066 15.88
    vertex 8.495280640287577 0.7947937753036565 15.88
  endloop
endfacet
facet normal -0.07673005990601431 0.9970519033163817 0.0
  outer loop
    vertex 8.710851870044664 0.81138347672066 15.88
    vertex 8.495280640287577 0.7947937753036565 16.00000000000003
    vertex 8.710851870044664 0.81138347672066 16.00000000000003
  endloop
endfacet
facet normal -0.04600986887866603 0.998940985226739 0.0
  outer loop
    vertex 8.710851870044664 0.81138347672066 16.00000000000003
    vertex 8.935753818425232 0.821742155870458 15.88
    vertex 8.710851870044664 0.81138347672066 15.88
  endloop
endfacet
facet normal -0.04600986887866603 0.998940985226739 0.0
  outer loop
    vertex 8.935753818425232 0.821742155870458 15.88
    vertex 8.710851870044664 0.81138347672066 16.00000000000003
    vertex 8.935753818425232 0.821742155870458 16.00000000000003
  endloop
endfacet
facet normal -0.0296741903859423 0.9995596242470676 0.0
  outer loop
    vertex 8.935753818425232 0.821742155870458 16.00000000000003
    vertex 9.145109840692436 0.8279573633603369 15.88
    vertex 8.935753818425232 0.821742155870458 15.88
  endloop
endfacet
facet normal -0.0296741903859423 0.9995596242470676 0.0
  outer loop
    vertex 9.145109840692436 0.8279573633603369 15.88
    vertex 8.935753818425232 0.821742155870458 16.00000000000003
    vertex 9.145109840692436 0.8279573633603369 16.00000000000003
  endloop
endfacet
facet normal -0.01241375151447669 0.9999229464180411 0.0
  outer loop
    vertex 9.145109840692436 0.8279573633603369 16.00000000000003
    vertex 9.311987371056807 0.8300290991902963 15.88
    vertex 9.145109840692436 0.8279573633603369 15.88
  endloop
endfacet
facet normal -0.01241375151447669 0.9999229464180411 0.0
  outer loop
    vertex 9.311987371056807 0.8300290991902963 15.88
    vertex 9.145109840692436 0.8279573633603369 16.00000000000003
    vertex 9.311987371056807 0.8300290991902963 16.00000000000003
  endloop
endfacet
facet normal 0.06098049734689476 0.9981389577325022 0.0
  outer loop
    vertex 9.311987371056807 0.8300290991902963 16.00000000000003
    vertex 9.647015521360453 0.8095608236336158 15.88
    vertex 9.311987371056807 0.8300290991902963 15.88
  endloop
endfacet
facet normal 0.06098049734689476 0.9981389577325022 0.0
  outer loop
    vertex 9.647015521360453 0.8095608236336158 15.88
    vertex 9.311987371056807 0.8300290991902963 16.00000000000003
    vertex 9.647015521360453 0.8095608236336158 16.00000000000003
  endloop
endfacet
facet normal 0.19515189411881276 0.9807730309413284 0.0
  outer loop
    vertex 9.647015521360453 0.8095608236336158 16.00000000000003
    vertex 9.955617178749115 0.7481559969635756 15.88
    vertex 9.647015521360453 0.8095608236336158 15.88
  endloop
endfacet
facet normal 0.19515189411881276 0.9807730309413284 0.0
  outer loop
    vertex 9.955617178749115 0.7481559969635756 15.88
    vertex 9.647015521360453 0.8095608236336158 16.00000000000003
    vertex 9.955617178749115 0.7481559969635756 16.00000000000003
  endloop
endfacet
facet normal 0.35679093596860384 0.934184258061892 0.0
  outer loop
    vertex 9.955617178749115 0.7481559969635756 16.00000000000003
    vertex 10.231051294386766 0.6429600518724816 15.88
    vertex 9.955617178749115 0.7481559969635756 15.88
  endloop
endfacet
facet normal 0.35679093596860384 0.934184258061892 0.0
  outer loop
    vertex 10.231051294386766 0.6429600518724816 15.88
    vertex 9.955617178749115 0.7481559969635756 16.00000000000003
    vertex 10.231051294386766 0.6429600518724816 16.00000000000003
  endloop
endfacet
facet normal 0.5418488623845455 0.8404759427446891 0.0
  outer loop
    vertex 10.231051294386766 0.6429600518724816 16.00000000000003
    vertex 10.466576819437375 0.49111842105264414 15.88
    vertex 10.231051294386766 0.6429600518724816 15.88
  endloop
endfacet
facet normal 0.5418488623845455 0.8404759427446891 0.0
  outer loop
    vertex 10.466576819437375 0.49111842105264414 15.88
    vertex 10.231051294386766 0.6429600518724816 16.00000000000003
    vertex 10.466576819437375 0.49111842105264414 16.00000000000003
  endloop
endfacet
facet normal 0.7218916320157429 0.6920061210897253 0.0
  outer loop
    vertex 10.466576819437375 0.49111842105264414 15.88
    vertex 10.658829160024421 0.2905633223684336 16.00000000000003
    vertex 10.658829160024421 0.2905633223684336 15.88
  endloop
endfacet
facet normal 0.7218916320157429 0.6920061210897253 0.0
  outer loop
    vertex 10.658829160024421 0.2905633223684336 16.00000000000003
    vertex 10.466576819437375 0.49111842105264414 15.88
    vertex 10.466576819437375 0.49111842105264414 16.00000000000003
  endloop
endfacet
facet normal 0.8652709281310328 0.5013045191610196 0.0
  outer loop
    vertex 10.658829160024421 0.2905633223684336 15.88
    vertex 10.804443722271383 0.039226973684223274 16.00000000000003
    vertex 10.804443722271383 0.039226973684223274 15.88
  endloop
endfacet
facet normal 0.8652709281310328 0.5013045191610196 0.0
  outer loop
    vertex 10.804443722271383 0.039226973684223274 16.00000000000003
    vertex 10.658829160024421 0.2905633223684336 15.88
    vertex 10.658829160024421 0.2905633223684336 16.00000000000003
  endloop
endfacet
facet normal 0.9576251317264792 0.28801754648952116 0.0
  outer loop
    vertex 10.804443722271383 0.039226973684223274 15.88
    vertex 10.896165477079077 -0.26573728491901527 16.00000000000003
    vertex 10.896165477079077 -0.26573728491901527 15.88
  endloop
endfacet
facet normal 0.9576251317264792 0.28801754648952116 0.0
  outer loop
    vertex 10.896165477079077 -0.26573728491901527 16.00000000000003
    vertex 10.804443722271383 0.039226973684223274 15.88
    vertex 10.804443722271383 0.039226973684223274 16.00000000000003
  endloop
endfacet
facet normal 0.9964413969543776 0.08428844781824286 0.0
  outer loop
    vertex 10.896165477079077 -0.26573728491901527 15.88
    vertex 10.926739395348308 -0.6271761133603114 16.00000000000003
    vertex 10.926739395348308 -0.6271761133603114 15.88
  endloop
endfacet
facet normal 0.9964413969543776 0.08428844781824286 0.0
  outer loop
    vertex 10.926739395348308 -0.6271761133603114 16.00000000000003
    vertex 10.896165477079077 -0.26573728491901527 15.88
    vertex 10.896165477079077 -0.26573728491901527 16.00000000000003
  endloop
endfacet
facet normal 0.9986204612242656 -0.05250880330225611 0.0
  outer loop
    vertex 10.926739395348308 -0.6271761133603114 15.88
    vertex 10.911711403192434 -0.9129807692307566 16.00000000000003
    vertex 10.911711403192434 -0.9129807692307566 15.88
  endloop
endfacet
facet normal 0.9986204612242656 -0.05250880330225611 0.0
  outer loop
    vertex 10.911711403192434 -0.9129807692307566 16.00000000000003
    vertex 10.926739395348308 -0.6271761133603114 15.88
    vertex 10.926739395348308 -0.6271761133603114 16.00000000000003
  endloop
endfacet
facet normal 0.9848747454128296 -0.17326781538420286 0.0
  outer loop
    vertex 10.911711403192434 -0.9129807692307566 15.88
    vertex 10.866627426724826 -1.1692434210526188 16.00000000000003
    vertex 10.866627426724826 -1.1692434210526188 15.88
  endloop
endfacet
facet normal 0.9848747454128296 -0.17326781538420286 0.0
  outer loop
    vertex 10.866627426724826 -1.1692434210526188 16.00000000000003
    vertex 10.911711403192434 -0.9129807692307566 15.88
    vertex 10.911711403192434 -0.9129807692307566 16.00000000000003
  endloop
endfacet
facet normal 0.9530429538594529 -0.30283515003851336 0.0
  outer loop
    vertex 10.866627426724826 -1.1692434210526188 15.88
    vertex 10.794338079558834 -1.3967429466092989 16.00000000000003
    vertex 10.794338079558834 -1.3967429466092989 15.88
  endloop
endfacet
facet normal 0.9530429538594529 -0.30283515003851336 0.0
  outer loop
    vertex 10.794338079558834 -1.3967429466092989 16.00000000000003
    vertex 10.866627426724826 -1.1692434210526188 15.88
    vertex 10.866627426724826 -1.1692434210526188 16.00000000000003
  endloop
endfacet
facet normal 0.8999744361353066 -0.4359426731841437 0.0
  outer loop
    vertex 10.794338079558834 -1.3967429466092989 15.88
    vertex 10.697693975307821 -1.5962582236841978 16.00000000000003
    vertex 10.697693975307821 -1.5962582236841978 15.88
  endloop
endfacet
facet normal 0.8999744361353066 -0.4359426731841437 0.0
  outer loop
    vertex 10.697693975307821 -1.5962582236841978 16.00000000000003
    vertex 10.794338079558834 -1.3967429466092989 15.88
    vertex 10.794338079558834 -1.3967429466092989 16.00000000000003
  endloop
endfacet
facet normal 0.8222464429494478 -0.5691316078526832 0.0
  outer loop
    vertex 10.697693975307821 -1.5962582236841978 15.88
    vertex 10.578248915844256 -1.768825120192295 16.00000000000003
    vertex 10.578248915844256 -1.768825120192295 15.88
  endloop
endfacet
facet normal 0.8222464429494478 -0.5691316078526832 0.0
  outer loop
    vertex 10.578248915844256 -1.768825120192295 16.00000000000003
    vertex 10.697693975307821 -1.5962582236841978 15.88
    vertex 10.697693975307821 -1.5962582236841978 16.00000000000003
  endloop
endfacet
facet normal 0.7216232593092781 -0.6922859753193434 0.0
  outer loop
    vertex 10.578248915844256 -1.768825120192295 15.88
    vertex 10.437556703040615 -1.9154795040485701 16.00000000000003
    vertex 10.437556703040615 -1.9154795040485701 15.88
  endloop
endfacet
facet normal 0.7216232593092781 -0.6922859753193434 0.0
  outer loop
    vertex 10.437556703040615 -1.9154795040485701 16.00000000000003
    vertex 10.578248915844256 -1.768825120192295 15.88
    vertex 10.578248915844256 -1.768825120192295 16.00000000000003
  endloop
endfacet
facet normal 0.5492801324016678 -0.8356382806865698 0.0
  outer loop
    vertex 10.437556703040615 -1.9154795040485701 16.00000000000003
    vertex 10.104861232392842 -2.1341662449392587 15.88
    vertex 10.437556703040615 -1.9154795040485701 15.88
  endloop
endfacet
facet normal 0.5492801324016678 -0.8356382806865698 0.0
  outer loop
    vertex 10.104861232392842 -2.1341662449392587 15.88
    vertex 10.437556703040615 -1.9154795040485701 16.00000000000003
    vertex 10.104861232392842 -2.1341662449392587 16.00000000000003
  endloop
endfacet
facet normal 0.30857130785716175 -0.9512012131864219 0.0
  outer loop
    vertex 10.104861232392842 -2.1341662449392587 16.00000000000003
    vertex 9.718269000611464 -2.2595774291497848 15.88
    vertex 10.104861232392842 -2.1341662449392587 15.88
  endloop
endfacet
facet normal 0.30857130785716175 -0.9512012131864219 0.0
  outer loop
    vertex 9.718269000611464 -2.2595774291497848 15.88
    vertex 10.104861232392842 -2.1341662449392587 16.00000000000003
    vertex 9.718269000611464 -2.2595774291497848 16.00000000000003
  endloop
endfacet
facet normal 0.09515342016443752 -0.9954626194041694 0.0
  outer loop
    vertex 9.718269000611464 -2.2595774291497848 16.00000000000003
    vertex 9.295381854862477 -2.2999999999999874 15.88
    vertex 9.718269000611464 -2.2595774291497848 15.88
  endloop
endfacet
facet normal 0.09515342016443752 -0.9954626194041694 0.0
  outer loop
    vertex 9.295381854862477 -2.2999999999999874 15.88
    vertex 9.718269000611464 -2.2595774291497848 16.00000000000003
    vertex 9.295381854862477 -2.2999999999999874 16.00000000000003
  endloop
endfacet
facet normal 0.0 -1.0 0.0
  outer loop
    vertex 9.295381854862477 -2.2999999999999874 16.00000000000003
    vertex 8.565751288060858 -2.2999999999999874 15.88
    vertex 9.295381854862477 -2.2999999999999874 15.88
  endloop
endfacet
facet normal 0.0 -1.0 0.0
  outer loop
    vertex 8.565751288060858 -2.2999999999999874 15.88
    vertex 9.295381854862477 -2.2999999999999874 16.00000000000003
    vertex 8.565751288060858 -2.2999999999999874 16.00000000000003
  endloop
endfacet
facet normal -1.0 0.0 0.0
  outer loop
    vertex 8.565751288060858 0.3159539473684334 16.00000000000003
    vertex 8.565751288060858 -2.2999999999999874 15.88
    vertex 8.565751288060858 -2.2999999999999874 16.00000000000003
  endloop
endfacet
facet normal -1.0 0.0 0.0
  outer loop
    vertex 8.565751288060858 -2.2999999999999874 15.88
    vertex 8.565751288060858 0.3159539473684334 16.00000000000003
    vertex 8.565751288060858 0.3159539473684334 15.88
  endloop
endfacet
facet normal -0.9893433590763543 -0.14560122888051455 0.0
  outer loop
    vertex 8.495280640287577 0.7947937753036565 16.00000000000003
    vertex 8.565751288060858 0.3159539473684334 15.88
    vertex 8.565751288060858 0.3159539473684334 16.00000000000003
  endloop
endfacet
facet normal -0.9893433590763543 -0.14560122888051455 0.0
  outer loop
    vertex 8.565751288060858 0.3159539473684334 15.88
    vertex 8.495280640287577 0.7947937753036565 16.00000000000003
    vertex 8.495280640287577 0.7947937753036565 15.88
  endloop
endfacet
facet normal 1.0 0.0 0.0
  outer loop
    vertex 9.293325933809845 0.036127277327948217 15.88
    vertex 9.293325933809845 -1.8232477226720518 16.00000000000003
    vertex 9.293325933809845 -1.8232477226720518 15.88
  endloop
endfacet
facet normal 1.0 0.0 0.0
  outer loop
    vertex 9.293325933809845 -1.8232477226720518 16.00000000000003
    vertex 9.293325933809845 0.036127277327948217 15.88
    vertex 9.293325933809845 0.036127277327948217 16.00000000000003
  endloop
endfacet
facet normal -0.20037431218288296 0.979719416474552 0.0
  outer loop
    vertex 9.293325933809845 -1.8232477226720518 16.00000000000003
    vertex 9.663328464174217 -1.7475740131578819 15.88
    vertex 9.293325933809845 -1.8232477226720518 15.88
  endloop
endfacet
facet normal -0.20037431218288296 0.979719416474552 0.0
  outer loop
    vertex 9.663328464174217 -1.7475740131578819 15.88
    vertex 9.293325933809845 -1.8232477226720518 16.00000000000003
    vertex 9.663328464174217 -1.7475740131578819 16.00000000000003
  endloop
endfacet
facet normal -0.5185943819094405 0.8550203898457426 0.0
  outer loop
    vertex 9.663328464174217 -1.7475740131578819 16.00000000000003
    vertex 9.91622256842523 -1.5941864878542382 15.88
    vertex 9.663328464174217 -1.7475740131578819 15.88
  endloop
endfacet
facet normal -0.5185943819094405 0.8550203898457426 0.0
  outer loop
    vertex 9.91622256842523 -1.5941864878542382 15.88
    vertex 9.663328464174217 -1.7475740131578819 16.00000000000003
    vertex 9.91622256842523 -1.5941864878542382 16.00000000000003
  endloop
endfacet
facet normal -0.7961715582137886 0.6050709461636942 0.0
  outer loop
    vertex 10.073753565388792 -1.3869022014169916 16.00000000000003
    vertex 9.91622256842523 -1.5941864878542382 15.88
    vertex 9.91622256842523 -1.5941864878542382 16.00000000000003
  endloop
endfacet
facet normal -0.7961715582137886 0.6050709461636942 0.0
  outer loop
    vertex 9.91622256842523 -1.5941864878542382 15.88
    vertex 10.073753565388792 -1.3869022014169916 16.00000000000003
    vertex 10.073753565388792 -1.3869022014169916 15.88
  endloop
endfacet
facet normal -0.9414634168491288 0.3371151653882745 0.0
  outer loop
    vertex 10.158742178749115 -1.1495540232793395 16.00000000000003
    vertex 10.073753565388792 -1.3869022014169916 15.88
    vertex 10.073753565388792 -1.3869022014169916 16.00000000000003
  endloop
endfacet
facet normal -0.9414634168491288 0.3371151653882745 0.0
  outer loop
    vertex 10.073753565388792 -1.3869022014169916 15.88
    vertex 10.158742178749115 -1.1495540232793395 16.00000000000003
    vertex 10.158742178749115 -1.1495540232793395 15.88
  endloop
endfacet
facet normal -0.9901160898239295 0.14025023590629895 0.0
  outer loop
    vertex 10.192949542109439 -0.9080623734817685 16.00000000000003
    vertex 10.158742178749115 -1.1495540232793395 15.88
    vertex 10.158742178749115 -1.1495540232793395 16.00000000000003
  endloop
endfacet
facet normal -0.9901160898239295 0.14025023590629895 0.0
  outer loop
    vertex 10.158742178749115 -1.1495540232793395 15.88
    vertex 10.192949542109439 -0.9080623734817685 16.00000000000003
    vertex 10.192949542109439 -0.9080623734817685 15.88
  endloop
endfacet
facet normal -0.9996039149918379 0.02814272788822816 0.0
  outer loop
    vertex 10.199164749599317 -0.6873038967611215 16.00000000000003
    vertex 10.192949542109439 -0.9080623734817685 15.88
    vertex 10.192949542109439 -0.9080623734817685 16.00000000000003
  endloop
endfacet
facet normal -0.9996039149918379 0.02814272788822816 0.0
  outer loop
    vertex 10.192949542109439 -0.9080623734817685 15.88
    vertex 10.199164749599317 -0.6873038967611215 16.00000000000003
    vertex 10.199164749599317 -0.6873038967611215 15.88
  endloop
endfacet
facet normal -0.9964103362629451 -0.08465483913140884 0.0
  outer loop
    vertex 10.162885650409036 -0.26028909412954204 16.00000000000003
    vertex 10.199164749599317 -0.6873038967611215 15.88
    vertex 10.199164749599317 -0.6873038967611215 16.00000000000003
  endloop
endfacet
facet normal -0.9964103362629451 -0.08465483913140884 0.0
  outer loop
    vertex 10.199164749599317 -0.6873038967611215 15.88
    vertex 10.162885650409036 -0.26028909412954204 16.00000000000003
    vertex 10.162885650409036 -0.26028909412954204 15.88
  endloop
endfacet
facet normal -0.9611602170439639 -0.27599100922312697 0.0
  outer loop
    vertex 10.110803634973815 -0.07890941295545305 16.00000000000003
    vertex 10.162885650409036 -0.26028909412954204 15.88
    vertex 10.162885650409036 -0.26028909412954204 16.00000000000003
  endloop
endfacet
facet normal -0.9611602170439639 -0.27599100922312697 0.0
  outer loop
    vertex 10.162885650409036 -0.26028909412954204 15.88
    vertex 10.110803634973815 -0.07890941295545305 16.00000000000003
    vertex 10.110803634973815 -0.07890941295545305 15.88
  endloop
endfacet
facet normal -0.8792023983212935 -0.47644846813279346 0.0
  outer loop
    vertex 10.02711578704871 0.07552188765183446 16.00000000000003
    vertex 10.110803634973815 -0.07890941295545305 15.88
    vertex 10.110803634973815 -0.07890941295545305 16.00000000000003
  endloop
endfacet
facet normal -0.8792023983212935 -0.47644846813279346 0.0
  outer loop
    vertex 10.110803634973815 -0.07890941295545305 15.88
    vertex 10.02711578704871 0.07552188765183446 16.00000000000003
    vertex 10.02711578704871 0.07552188765183446 15.88
  endloop
endfacet
facet normal -0.7256550313179826 -0.6880587006374513 0.0
  outer loop
    vertex 9.90844960536855 0.20067212803644974 16.00000000000003
    vertex 10.02711578704871 0.07552188765183446 15.88
    vertex 10.02711578704871 0.07552188765183446 16.00000000000003
  endloop
endfacet
facet normal -0.7256550313179826 -0.6880587006374513 0.0
  outer loop
    vertex 10.02711578704871 0.07552188765183446 15.88
    vertex 9.90844960536855 0.20067212803644974 16.00000000000003
    vertex 9.90844960536855 0.20067212803644974 15.88
  endloop
endfacet
facet normal -0.5117827545543563 -0.8591149004299456 0.0
  outer loop
    vertex 9.90844960536855 0.20067212803644974 16.00000000000003
    vertex 9.751432588668143 0.2942086285425228 15.88
    vertex 9.90844960536855 0.20067212803644974 15.88
  endloop
endfacet
facet normal -0.5117827545543563 -0.8591149004299456 0.0
  outer loop
    vertex 9.751432588668143 0.2942086285425228 15.88
    vertex 9.90844960536855 0.20067212803644974 16.00000000000003
    vertex 9.751432588668143 0.2942086285425228 16.00000000000003
  endloop
endfacet
facet normal -0.27714563507843293 -0.960827922656795 0.0
  outer loop
    vertex 9.751432588668143 0.2942086285425228 16.00000000000003
    vertex 9.549323688111464 0.35250585146762387 15.88
    vertex 9.751432588668143 0.2942086285425228 15.88
  endloop
endfacet
facet normal -0.27714563507843293 -0.960827922656795 0.0
  outer loop
    vertex 9.549323688111464 0.35250585146762387 15.88
    vertex 9.751432588668143 0.2942086285425228 16.00000000000003
    vertex 9.549323688111464 0.35250585146762387 16.00000000000003
  endloop
endfacet
facet normal -0.07629999401826634 -0.9970849065715581 0.0
  outer loop
    vertex 9.549323688111464 0.35250585146762387 16.00000000000003
    vertex 9.295381854862477 0.371938259109324 15.88
    vertex 9.549323688111464 0.35250585146762387 15.88
  endloop
endfacet
facet normal -0.07629999401826634 -0.9970849065715581 0.0
  outer loop
    vertex 9.295381854862477 0.371938259109324 15.88
    vertex 9.549323688111464 0.35250585146762387 16.00000000000003
    vertex 9.295381854862477 0.371938259109324 16.00000000000003
  endloop
endfacet
facet normal 0.9999812595129163 -0.006122142023957028 0.0
  outer loop
    vertex 9.295381854862477 0.371938259109324 15.88
    vertex 9.293325933809845 0.036127277327948217 16.00000000000003
    vertex 9.293325933809845 0.036127277327948217 15.88
  endloop
endfacet
facet normal 0.9999812595129163 -0.006122142023957028 0.0
  outer loop
    vertex 9.293325933809845 0.036127277327948217 16.00000000000003
    vertex 9.295381854862477 0.371938259109324 15.88
    vertex 9.295381854862477 0.371938259109324 16.00000000000003
  endloop
endfacet
facet normal 0.0 -1.0 5.551115123125783e-17
  outer loop
    vertex 14.31575128806085 4.400000000000006 15.86000000000002
    vertex 2.8157512880608513 4.400000000000006 16.00000000000002
    vertex 2.8157512880608513 4.400000000000006 15.86000000000002
  endloop
endfacet
facet normal 0.0 -1.0 5.551115123125783e-17
  outer loop
    vertex 2.8157512880608513 4.400000000000006 16.00000000000002
    vertex 14.31575128806085 4.400000000000006 15.86000000000002
    vertex 14.31575128806085 4.400000000000006 16.00000000000002
  endloop
endfacet
facet normal 0.0 1.0 -5.551115123125783e-17
  outer loop
    vertex 14.31575128806085 5.200000000000006 16.00000000000002
    vertex 2.8157512880608513 5.200000000000006 15.86000000000002
    vertex 2.8157512880608513 5.200000000000006 16.00000000000002
  endloop
endfacet
facet normal 0.0 1.0 -5.551115123125783e-17
  outer loop
    vertex 2.8157512880608513 5.200000000000006 15.86000000000002
    vertex 14.31575128806085 5.200000000000006 16.00000000000002
    vertex 14.31575128806085 5.200000000000006 15.86000000000002
  endloop
endfacet
facet normal -1.0 0.0 0.0
  outer loop
    vertex 2.8157512880608513 5.200000000000006 15.86000000000002
    vertex 2.8157512880608513 4.400000000000006 16.00000000000002
    vertex 2.8157512880608513 5.200000000000006 16.00000000000002
  endloop
endfacet
facet normal -1.0 0.0 0.0
  outer loop
    vertex 2.8157512880608513 4.400000000000006 16.00000000000002
    vertex 2.8157512880608513 5.200000000000006 15.86000000000002
    vertex 2.8157512880608513 4.400000000000006 15.86000000000002
  endloop
endfacet
facet normal 0.0 5.551115123125783e-17 1.0
  outer loop
    vertex 14.31575128806085 5.200000000000006 16.00000000000002
    vertex 2.8157512880608513 4.400000000000006 16.00000000000002
    vertex 14.31575128806085 4.400000000000006 16.00000000000002
  endloop
endfacet
facet normal 0.0 5.551115123125783e-17 1.0
  outer loop
    vertex 2.8157512880608513 4.400000000000006 16.00000000000002
    vertex 14.31575128806085 5.200000000000006 16.00000000000002
    vertex 2.8157512880608513 5.200000000000006 16.00000000000002
  endloop
endfacet
facet normal 1.0 0.0 0.0
  outer loop
    vertex 14.31575128806085 4.400000000000006 15.86000000000002
    vertex 14.31575128806085 5.200000000000006 16.00000000000002
    vertex 14.31575128806085 4.400000000000006 16.00000000000002
  endloop
endfacet
facet normal 1.0 0.0 0.0
  outer loop
    vertex 14.31575128806085 5.200000000000006 16.00000000000002
    vertex 14.31575128806085 4.400000000000006 15.86000000000002
    vertex 14.31575128806085 5.200000000000006 15.86000000000002
  endloop
endfacet
facet normal 0.0 -5.551115123125783e-17 -1.0
  outer loop
    vertex 2.8157512880608513 5.200000000000006 15.86000000000002
    vertex 14.31575128806085 4.400000000000006 15.86000000000002
    vertex 2.8157512880608513 4.400000000000006 15.86000000000002
  endloop
endfacet
facet normal 0.0 -5.551115123125783e-17 -1.0
  outer loop
    vertex 14.31575128806085 4.400000000000006 15.86000000000002
    vertex 2.8157512880608513 5.200000000000006 15.86000000000002
    vertex 14.31575128806085 5.200000000000006 15.86000000000002
  endloop
endfacet
facet normal 0.0 -1.0 5.551115123125783e-17
  outer loop
    vertex 14.31575128806085 5.800000000000006 15.86000000000002
    vertex 2.815751288060853 5.800000000000006 16.00000000000002
    vertex 2.815751288060853 5.800000000000006 15.86000000000002
  endloop
endfacet
facet normal 0.0 -1.0 5.551115123125783e-17
  outer loop
    vertex 2.815751288060853 5.800000000000006 16.00000000000002
    vertex 14.31575128806085 5.800000000000006 15.86000000000002
    vertex 14.31575128806085 5.800000000000006 16.00000000000002
  endloop
endfacet
facet normal -1.0 0.0 0.0
  outer loop
    vertex 2.815751288060853 6.600000000000006 15.86000000000002
    vertex 2.815751288060853 5.800000000000006 16.00000000000002
    vertex 2.815751288060853 6.600000000000006 16.00000000000002
  endloop
endfacet
facet normal -1.0 0.0 0.0
  outer loop
    vertex 2.815751288060853 5.800000000000006 16.00000000000002
    vertex 2.815751288060853 6.600000000000006 15.86000000000002
    vertex 2.815751288060853 5.800000000000006 15.86000000000002
  endloop
endfacet
facet normal 1.0 0.0 0.0
  outer loop
    vertex 14.31575128806085 5.800000000000006 15.86000000000002
    vertex 14.31575128806085 6.600000000000006 16.00000000000002
    vertex 14.31575128806085 5.800000000000006 16.00000000000002
  endloop
endfacet
facet normal 1.0 0.0 0.0
  outer loop
    vertex 14.31575128806085 6.600000000000006 16.00000000000002
    vertex 14.31575128806085 5.800000000000006 15.86000000000002
    vertex 14.31575128806085 6.600000000000006 15.86000000000002
  endloop
endfacet
facet normal 0.0 1.0 -5.551115123125783e-17
  outer loop
    vertex 14.31575128806085 6.600000000000006 16.00000000000002
    vertex 2.815751288060853 6.600000000000006 15.86000000000002
    vertex 2.815751288060853 6.600000000000006 16.00000000000002
  endloop
endfacet
facet normal 0.0 1.0 -5.551115123125783e-17
  outer loop
    vertex 2.815751288060853 6.600000000000006 15.86000000000002
    vertex 14.31575128806085 6.600000000000006 16.00000000000002
    vertex 14.31575128806085 6.600000000000006 15.86000000000002
  endloop
endfacet
facet normal 0.0 5.551115123125783e-17 1.0
  outer loop
    vertex 14.31575128806085 6.600000000000006 16.00000000000002
    vertex 2.815751288060853 5.800000000000006 16.00000000000002
    vertex 14.31575128806085 5.800000000000006 16.00000000000002
  endloop
endfacet
facet normal 0.0 5.551115123125783e-17 1.0
  outer loop
    vertex 2.815751288060853 5.800000000000006 16.00000000000002
    vertex 14.31575128806085 6.600000000000006 16.00000000000002
    vertex 2.815751288060853 6.600000000000006 16.00000000000002
  endloop
endfacet
facet normal 0.0 -5.551115123125783e-17 -1.0
  outer loop
    vertex 2.815751288060853 6.600000000000006 15.86000000000002
    vertex 14.31575128806085 5.800000000000006 15.86000000000002
    vertex 2.815751288060853 5.800000000000006 15.86000000000002
  endloop
endfacet
facet normal 0.0 -5.551115123125783e-17 -1.0
  outer loop
    vertex 14.31575128806085 5.800000000000006 15.86000000000002
    vertex 2.815751288060853 6.600000000000006 15.86000000000002
    vertex 14.31575128806085 6.600000000000006 15.86000000000002
  endloop
endfacet
facet normal 0.0 5.551115123125783e-17 1.0
  outer loop
    vertex 14.31575128806085 3.8000000000000056 16.00000000000002
    vertex 2.8157512880608513 3.0000000000000058 16.00000000000002
    vertex 14.31575128806085 3.0000000000000058 16.00000000000002
  endloop
endfacet
facet normal 0.0 5.551115123125783e-17 1.0
  outer loop
    vertex 2.8157512880608513 3.0000000000000058 16.00000000000002
    vertex 14.31575128806085 3.8000000000000056 16.00000000000002
    vertex 2.8157512880608513 3.8000000000000056 16.00000000000002
  endloop
endfacet
facet normal 0.0 1.0 -5.551115123125783e-17
  outer loop
    vertex 14.31575128806085 3.8000000000000056 16.00000000000002
    vertex 2.8157512880608513 3.8000000000000056 15.86000000000002
    vertex 2.8157512880608513 3.8000000000000056 16.00000000000002
  endloop
endfacet
facet normal 0.0 1.0 -5.551115123125783e-17
  outer loop
    vertex 2.8157512880608513 3.8000000000000056 15.86000000000002
    vertex 14.31575128806085 3.8000000000000056 16.00000000000002
    vertex 14.31575128806085 3.8000000000000056 15.86000000000002
  endloop
endfacet
facet normal -1.0 0.0 0.0
  outer loop
    vertex 2.8157512880608513 3.8000000000000056 15.86000000000002
    vertex 2.8157512880608513 3.0000000000000058 16.00000000000002
    vertex 2.8157512880608513 3.8000000000000056 16.00000000000002
  endloop
endfacet
facet normal -1.0 0.0 0.0
  outer loop
    vertex 2.8157512880608513 3.0000000000000058 16.00000000000002
    vertex 2.8157512880608513 3.8000000000000056 15.86000000000002
    vertex 2.8157512880608513 3.0000000000000058 15.86000000000002
  endloop
endfacet
facet normal 0.0 -1.0 5.551115123125783e-17
  outer loop
    vertex 14.31575128806085 3.0000000000000058 15.86000000000002
    vertex 2.8157512880608513 3.0000000000000058 16.00000000000002
    vertex 2.8157512880608513 3.0000000000000058 15.86000000000002
  endloop
endfacet
facet normal 0.0 -1.0 5.551115123125783e-17
  outer loop
    vertex 2.8157512880608513 3.0000000000000058 16.00000000000002
    vertex 14.31575128806085 3.0000000000000058 15.86000000000002
    vertex 14.31575128806085 3.0000000000000058 16.00000000000002
  endloop
endfacet
facet normal 1.0 0.0 0.0
  outer loop
    vertex 14.31575128806085 3.0000000000000058 15.86000000000002
    vertex 14.31575128806085 3.8000000000000056 16.00000000000002
    vertex 14.31575128806085 3.0000000000000058 16.00000000000002
  endloop
endfacet
facet normal 1.0 0.0 0.0
  outer loop
    vertex 14.31575128806085 3.8000000000000056 16.00000000000002
    vertex 14.31575128806085 3.0000000000000058 15.86000000000002
    vertex 14.31575128806085 3.8000000000000056 15.86000000000002
  endloop
endfacet
facet normal 0.0 -5.551115123125783e-17 -1.0
  outer loop
    vertex 2.8157512880608513 3.8000000000000056 15.86000000000002
    vertex 14.31575128806085 3.0000000000000058 15.86000000000002
    vertex 2.8157512880608513 3.0000000000000058 15.86000000000002
  endloop
endfacet
facet normal 0.0 -5.551115123125783e-17 -1.0
  outer loop
    vertex 14.31575128806085 3.0000000000000058 15.86000000000002
    vertex 2.8157512880608513 3.8000000000000056 15.86000000000002
    vertex 14.31575128806085 3.8000000000000056 15.86000000000002
  endloop
endfacet
endsolid Korry19x16_button_V5
