solid Korry19x16_button_V5
facet normal 7.703719777548945e-33 1.387778780781446e-16 1.0
  outer loop
    vertex 33.4690498325289 -10.911472246189028 -15.860000000000026
    vertex 32.741475186779915 -10.368392792747734 -15.860000000000026
    vertex 32.67100453900664 -10.847232620682956 -15.860000000000026
  endloop
endfacet
facet normal 7.703719777548945e-33 1.387778780781446e-16 1.0
  outer loop
    vertex 32.741475186779915 -10.368392792747734 -15.860000000000026
    vertex 33.4690498325289 -10.911472246189028 -15.860000000000026
    vertex 32.741475186779915 -8.231247043759879 -15.860000000000026
  endloop
endfacet
facet normal 7.703719777548945e-33 1.387778780781446e-16 1.0
  outer loop
    vertex 32.741475186779915 -8.231247043759879 -15.860000000000026
    vertex 33.4690498325289 -10.911472246189028 -15.860000000000026
    vertex 33.452475945889226 -8.222960100440043 -15.860000000000026
  endloop
endfacet
facet normal 7.703719777548945e-33 1.387778780781446e-16 1.0
  outer loop
    vertex 33.452475945889226 -8.222960100440043 -15.860000000000026
    vertex 33.4690498325289 -10.911472246189028 -15.860000000000026
    vertex 33.4690498325289 -8.496587377767977 -15.860000000000026
  endloop
endfacet
facet normal 7.703719777548945e-33 1.387778780781446e-16 1.0
  outer loop
    vertex 32.741475186779915 -8.231247043759879 -15.860000000000026
    vertex 34.67960777787303 -7.750351294772026 -15.860000000000026
    vertex 32.69380944791352 -7.750351294772026 -15.860000000000026
  endloop
endfacet
facet normal 7.703719777548945e-33 1.387778780781446e-16 1.0
  outer loop
    vertex 34.67960777787303 -7.750351294772026 -15.860000000000026
    vertex 32.741475186779915 -8.231247043759879 -15.860000000000026
    vertex 33.452475945889226 -8.222960100440043 -15.860000000000026
  endloop
endfacet
facet normal 7.703719777548945e-33 1.387778780781446e-16 1.0
  outer loop
    vertex 34.67960777787303 -7.750351294772026 -15.860000000000026
    vertex 33.452475945889226 -8.222960100440043 -15.860000000000026
    vertex 34.735592089613924 -8.22296010044004 -15.860000000000026
  endloop
endfacet
facet normal 7.703719777548945e-33 1.387778780781446e-16 1.0
  outer loop
    vertex 35.54008981228599 -10.837901902059475 -15.860000000000026
    vertex 35.61264801066656 -10.23676640104733 -15.860000000000026
    vertex 35.57845646208356 -10.08233510044004 -15.860000000000026
  endloop
endfacet
facet normal 7.703719777548945e-33 1.387778780781446e-16 1.0
  outer loop
    vertex 35.61264801066656 -10.23676640104733 -15.860000000000026
    vertex 35.54008981228599 -10.837901902059475 -15.860000000000026
    vertex 35.93084133050461 -10.894898359549352 -15.860000000000026
  endloop
endfacet
facet normal 7.703719777548945e-33 1.387778780781446e-16 1.0
  outer loop
    vertex 35.61264801066656 -10.23676640104733 -15.860000000000026
    vertex 35.93084133050461 -10.894898359549352 -15.860000000000026
    vertex 35.702808056213115 -10.338328901047328 -15.860000000000026
  endloop
endfacet
facet normal 7.703719777548945e-33 1.387778780781446e-16 1.0
  outer loop
    vertex 35.702808056213115 -10.338328901047328 -15.860000000000026
    vertex 35.93084133050461 -10.894898359549352 -15.860000000000026
    vertex 35.83133475155724 -10.394297398010892 -15.860000000000026
  endloop
endfacet
facet normal 7.703719777548945e-33 1.387778780781446e-16 1.0
  outer loop
    vertex 35.83133475155724 -10.394297398010892 -15.860000000000026
    vertex 35.93084133050461 -10.894898359549352 -15.860000000000026
    vertex 35.980562990423635 -10.411915059954211 -15.860000000000026
  endloop
endfacet
facet normal 7.703719777548945e-33 1.387778780781446e-16 1.0
  outer loop
    vertex 35.980562990423635 -10.411915059954211 -15.860000000000026
    vertex 35.93084133050461 -10.894898359549352 -15.860000000000026
    vertex 36.168687674128094 -10.875722942039232 -15.860000000000026
  endloop
endfacet
facet normal 7.703719777548945e-33 1.387778780781446e-16 1.0
  outer loop
    vertex 35.980562990423635 -10.411915059954211 -15.860000000000026
    vertex 36.168687674128094 -10.875722942039232 -15.860000000000026
    vertex 36.097687231314325 -10.398440869670809 -15.860000000000026
  endloop
endfacet
facet normal 7.703719777548945e-33 1.387778780781446e-16 1.0
  outer loop
    vertex 36.097687231314325 -10.398440869670809 -15.860000000000026
    vertex 36.168687674128094 -10.875722942039232 -15.860000000000026
    vertex 36.22309841552485 -10.356990338294292 -15.860000000000026
  endloop
endfacet
facet normal 7.703719777548945e-33 1.387778780781446e-16 1.0
  outer loop
    vertex 36.22309841552485 -10.356990338294292 -15.860000000000026
    vertex 36.168687674128094 -10.875722942039232 -15.860000000000026
    vertex 36.39721911390542 -10.818196689508866 -15.860000000000026
  endloop
endfacet
facet normal 7.703719777548945e-33 1.387778780781446e-16 1.0
  outer loop
    vertex 36.22309841552485 -10.356990338294292 -15.860000000000026
    vertex 36.39721911390542 -10.818196689508866 -15.860000000000026
    vertex 36.36717103698235 -10.288591426350973 -15.860000000000026
  endloop
endfacet
facet normal 7.703719777548945e-33 1.387778780781446e-16 1.0
  outer loop
    vertex 36.36717103698235 -10.288591426350973 -15.860000000000026
    vertex 36.39721911390542 -10.818196689508866 -15.860000000000026
    vertex 36.54024796005927 -10.192184543759879 -15.860000000000026
  endloop
endfacet
facet normal 7.703719777548945e-33 1.387778780781446e-16 1.0
  outer loop
    vertex 36.54024796005927 -10.192184543759879 -15.860000000000026
    vertex 36.39721911390542 -10.818196689508866 -15.860000000000026
    vertex 36.62265085732648 -10.722327509346924 -15.860000000000026
  endloop
endfacet
facet normal 7.703719777548945e-33 1.387778780781446e-16 1.0
  outer loop
    vertex 36.54024796005927 -10.192184543759879 -15.860000000000026
    vertex 36.62265085732648 -10.722327509346924 -15.860000000000026
    vertex 36.85119811188113 -10.588123308942064 -15.860000000000026
  endloop
endfacet
facet normal 7.703719777548945e-33 1.387778780781446e-16 1.0
  outer loop
    vertex 34.8842865797455 -10.221991445328706 -15.860000000000026
    vertex 34.87884234265036 -9.87271022695826 -15.860000000000026
    vertex 34.86122468070704 -10.02429486764652 -15.860000000000026
  endloop
endfacet
facet normal 7.703719777548945e-33 1.387778780781446e-16 1.0
  outer loop
    vertex 34.87884234265036 -9.87271022695826 -15.860000000000026
    vertex 34.8842865797455 -10.221991445328706 -15.860000000000026
    vertex 34.931695328480316 -9.741336871695102 -15.860000000000026
  endloop
endfacet
facet normal 7.703719777548945e-33 1.387778780781446e-16 1.0
  outer loop
    vertex 34.931695328480316 -9.741336871695102 -15.860000000000026
    vertex 34.8842865797455 -10.221991445328706 -15.860000000000026
    vertex 34.953472276860886 -10.39636913384085 -15.860000000000026
  endloop
endfacet
facet normal 7.703719777548945e-33 1.387778780781446e-16 1.0
  outer loop
    vertex 34.931695328480316 -9.741336871695102 -15.860000000000026
    vertex 34.953472276860886 -10.39636913384085 -15.860000000000026
    vertex 35.11721848131433 -9.524721866634373 -15.860000000000026
  endloop
endfacet
facet normal 7.703719777548945e-33 1.387778780781446e-16 1.0
  outer loop
    vertex 35.11721848131433 -9.524721866634373 -15.860000000000026
    vertex 34.953472276860886 -10.39636913384085 -15.860000000000026
    vertex 35.06048692134469 -10.546135075136396 -15.860000000000026
  endloop
endfacet
facet normal 7.703719777548945e-33 1.387778780781446e-16 1.0
  outer loop
    vertex 35.11721848131433 -9.524721866634373 -15.860000000000026
    vertex 35.06048692134469 -10.546135075136396 -15.860000000000026
    vertex 35.19703566248842 -10.669996411168785 -15.860000000000026
  endloop
endfacet
facet normal 7.703719777548945e-33 1.387778780781446e-16 1.0
  outer loop
    vertex 35.11721848131433 -9.524721866634373 -15.860000000000026
    vertex 35.19703566248842 -10.669996411168785 -15.860000000000026
    vertex 35.376327793055225 -9.353716679387409 -15.860000000000026
  endloop
endfacet
facet normal 7.703719777548945e-33 1.387778780781446e-16 1.0
  outer loop
    vertex 35.376327793055225 -9.353716679387409 -15.860000000000026
    vertex 35.19703566248842 -10.669996411168785 -15.860000000000026
    vertex 35.358457094674655 -10.767427300591862 -15.860000000000026
  endloop
endfacet
facet normal 7.703719777548945e-33 1.387778780781446e-16 1.0
  outer loop
    vertex 35.376327793055225 -9.353716679387409 -15.860000000000026
    vertex 35.358457094674655 -10.767427300591862 -15.860000000000026
    vertex 35.54008981228599 -10.837901902059475 -15.860000000000026
  endloop
endfacet
facet normal 7.703719777548945e-33 1.387778780781446e-16 1.0
  outer loop
    vertex 35.376327793055225 -9.353716679387409 -15.860000000000026
    vertex 35.54008981228599 -10.837901902059475 -15.860000000000026
    vertex 35.57845646208356 -10.08233510044004 -15.860000000000026
  endloop
endfacet
facet normal 7.703719777548945e-33 1.387778780781446e-16 1.0
  outer loop
    vertex 35.376327793055225 -9.353716679387409 -15.860000000000026
    vertex 35.57845646208356 -10.08233510044004 -15.860000000000026
    vertex 35.669644468156434 -9.207588136877288 -15.860000000000026
  endloop
endfacet
facet normal 7.703719777548945e-33 1.387778780781446e-16 1.0
  outer loop
    vertex 35.669644468156434 -9.207588136877288 -15.860000000000026
    vertex 35.57845646208356 -10.08233510044004 -15.860000000000026
    vertex 35.61783525763012 -9.933091046796317 -15.860000000000026
  endloop
endfacet
facet normal 7.703719777548945e-33 1.387778780781446e-16 1.0
  outer loop
    vertex 35.669644468156434 -9.207588136877288 -15.860000000000026
    vertex 35.61783525763012 -9.933091046796317 -15.860000000000026
    vertex 35.72251326876372 -9.81701058120927 -15.860000000000026
  endloop
endfacet
facet normal 7.703719777548945e-33 1.387778780781446e-16 1.0
  outer loop
    vertex 35.669644468156434 -9.207588136877288 -15.860000000000026
    vertex 35.72251326876372 -9.81701058120927 -15.860000000000026
    vertex 35.87900049042364 -9.104981861573645 -15.860000000000026
  endloop
endfacet
facet normal 7.703719777548945e-33 1.387778780781446e-16 1.0
  outer loop
    vertex 35.87900049042364 -9.104981861573645 -15.860000000000026
    vertex 35.72251326876372 -9.81701058120927 -15.860000000000026
    vertex 35.87280109771109 -9.722691249225466 -15.860000000000026
  endloop
endfacet
facet normal 7.703719777548945e-33 1.387778780781446e-16 1.0
  outer loop
    vertex 35.87900049042364 -9.104981861573645 -15.860000000000026
    vertex 35.87280109771109 -9.722691249225466 -15.860000000000026
    vertex 36.04897771714429 -9.638730596391458 -15.860000000000026
  endloop
endfacet
facet normal 7.703719777548945e-33 1.387778780781446e-16 1.0
  outer loop
    vertex 35.87900049042364 -9.104981861573645 -15.860000000000026
    vertex 36.04897771714429 -9.638730596391458 -15.860000000000026
    vertex 36.064523643257644 -8.986829660156639 -15.860000000000026
  endloop
endfacet
facet normal 7.703719777548945e-33 1.387778780781446e-16 1.0
  outer loop
    vertex 36.064523643257644 -8.986829660156639 -15.860000000000026
    vertex 36.04897771714429 -9.638730596391458 -15.860000000000026
    vertex 36.25937751471514 -9.540283607525062 -15.860000000000026
  endloop
endfacet
facet normal 7.703719777548945e-33 1.387778780781446e-16 1.0
  outer loop
    vertex 36.064523643257644 -8.986829660156639 -15.860000000000026
    vertex 36.25937751471514 -9.540283607525062 -15.860000000000026
    vertex 36.1971938102617 -8.837569791735588 -15.860000000000026
  endloop
endfacet
facet normal 7.703719777548945e-33 1.387778780781446e-16 1.0
  outer loop
    vertex 36.1971938102617 -8.837569791735588 -15.860000000000026
    vertex 36.25937751471514 -9.540283607525062 -15.860000000000026
    vertex 36.24799087503902 -8.641672144974454 -15.860000000000026
  endloop
endfacet
facet normal 7.703719777548945e-33 1.387778780781446e-16 1.0
  outer loop
    vertex 35.12033399244793 -8.471726547808462 -15.860000000000026
    vertex 35.27683702888518 -7.788702129792267 -15.860000000000026
    vertex 34.83427630014024 -8.001173663193077 -15.860000000000026
  endloop
endfacet
facet normal 7.703719777548945e-33 1.387778780781446e-16 1.0
  outer loop
    vertex 35.27683702888518 -7.788702129792267 -15.860000000000026
    vertex 35.12033399244793 -8.471726547808462 -15.860000000000026
    vertex 35.25300415945198 -8.389837630804413 -15.860000000000026
  endloop
endfacet
facet normal 7.703719777548945e-33 1.387778780781446e-16 1.0
  outer loop
    vertex 35.27683702888518 -7.788702129792267 -15.860000000000026
    vertex 35.25300415945198 -8.389837630804413 -15.860000000000026
    vertex 35.41572240337911 -8.307964528577694 -15.860000000000026
  endloop
endfacet
facet normal 7.703719777548945e-33 1.387778780781446e-16 1.0
  outer loop
    vertex 35.27683702888518 -7.788702129792267 -15.860000000000026
    vertex 35.41572240337911 -8.307964528577694 -15.860000000000026
    vertex 35.50770905570704 -7.733512510612106 -15.860000000000026
  endloop
endfacet
facet normal 7.703719777548945e-33 1.387778780781446e-16 1.0
  outer loop
    vertex 35.50770905570704 -7.733512510612106 -15.860000000000026
    vertex 35.41572240337911 -8.307964528577694 -15.860000000000026
    vertex 35.588815141233354 -8.244737048820607 -15.860000000000026
  endloop
endfacet
facet normal 7.703719777548945e-33 1.387778780781446e-16 1.0
  outer loop
    vertex 35.50770905570704 -7.733512510612106 -15.860000000000026
    vertex 35.588815141233354 -8.244737048820607 -15.860000000000026
    vertex 35.75877655317668 -7.715115970885385 -15.860000000000026
  endloop
endfacet
facet normal 7.703719777548945e-33 1.387778780781446e-16 1.0
  outer loop
    vertex 35.75877655317668 -7.715115970885385 -15.860000000000026
    vertex 35.588815141233354 -8.244737048820607 -15.860000000000026
    vertex 35.75463308151676 -8.218816628780122 -15.860000000000026
  endloop
endfacet
facet normal 7.703719777548945e-33 1.387778780781446e-16 1.0
  outer loop
    vertex 35.75877655317668 -7.715115970885385 -15.860000000000026
    vertex 35.75463308151676 -8.218816628780122 -15.860000000000026
    vertex 35.93498480216453 -8.241621537687005 -15.860000000000026
  endloop
endfacet
facet normal 7.703719777548945e-33 1.387778780781446e-16 1.0
  outer loop
    vertex 35.75877655317668 -7.715115970885385 -15.860000000000026
    vertex 35.93498480216453 -8.241621537687005 -15.860000000000026
    vertex 35.98342546511999 -7.730404906867166 -15.860000000000026
  endloop
endfacet
facet normal 7.703719777548945e-33 1.387778780781446e-16 1.0
  outer loop
    vertex 35.98342546511999 -7.730404906867166 -15.860000000000026
    vertex 35.93498480216453 -8.241621537687005 -15.860000000000026
    vertex 36.09355957443174 -8.315207696593887 -15.860000000000026
  endloop
endfacet
facet normal 7.703719777548945e-33 1.387778780781446e-16 1.0
  outer loop
    vertex 35.98342546511999 -7.730404906867166 -15.860000000000026
    vertex 36.09355957443174 -8.315207696593887 -15.860000000000026
    vertex 36.20133728192162 -7.776271714812511 -15.860000000000026
  endloop
endfacet
facet normal 7.703719777548945e-33 1.387778780781446e-16 1.0
  outer loop
    vertex 36.20133728192162 -7.776271714812511 -15.860000000000026
    vertex 36.09355957443174 -8.315207696593887 -15.860000000000026
    vertex 36.20549656835886 -8.445790312990647 -15.860000000000026
  endloop
endfacet
facet normal 7.703719777548945e-33 1.387778780781446e-16 1.0
  outer loop
    vertex 36.20133728192162 -7.776271714812511 -15.860000000000026
    vertex 36.20549656835886 -8.445790312990647 -15.860000000000026
    vertex 36.403442228783966 -7.852194507069595 -15.860000000000026
  endloop
endfacet
facet normal 7.703719777548945e-33 1.387778780781446e-16 1.0
  outer loop
    vertex 36.403442228783966 -7.852194507069595 -15.860000000000026
    vertex 36.20549656835886 -8.445790312990647 -15.860000000000026
    vertex 36.24799087503902 -8.641672144974454 -15.860000000000026
  endloop
endfacet
facet normal 7.703719777548945e-33 1.387778780781446e-16 1.0
  outer loop
    vertex 36.403442228783966 -7.852194507069595 -15.860000000000026
    vertex 36.24799087503902 -8.641672144974454 -15.860000000000026
    vertex 36.25937751471514 -9.540283607525062 -15.860000000000026
  endloop
endfacet
facet normal 7.703719777548945e-33 1.387778780781446e-16 1.0
  outer loop
    vertex 36.403442228783966 -7.852194507069595 -15.860000000000026
    vertex 36.25937751471514 -9.540283607525062 -15.860000000000026
    vertex 36.46563384062607 -9.428346613597935 -15.860000000000026
  endloop
endfacet
facet normal 7.703719777548945e-33 1.387778780781446e-16 1.0
  outer loop
    vertex 36.403442228783966 -7.852194507069595 -15.860000000000026
    vertex 36.46563384062607 -9.428346613597935 -15.860000000000026
    vertex 36.58067053090947 -7.957651395986599 -15.860000000000026
  endloop
endfacet
facet normal 7.703719777548945e-33 1.387778780781446e-16 1.0
  outer loop
    vertex 36.58067053090947 -7.957651395986599 -15.860000000000026
    vertex 36.46563384062607 -9.428346613597935 -15.860000000000026
    vertex 36.65220076876373 -9.29464848606757 -15.860000000000026
  endloop
endfacet
facet normal 7.703719777548945e-33 1.387778780781446e-16 1.0
  outer loop
    vertex 36.58067053090947 -7.957651395986599 -15.860000000000026
    vertex 36.65220076876373 -9.29464848606757 -15.860000000000026
    vertex 36.72913966046413 -8.092903325389434 -15.860000000000026
  endloop
endfacet
facet normal 7.703719777548945e-33 1.387778780781446e-16 1.0
  outer loop
    vertex 36.72913966046413 -8.092903325389434 -15.860000000000026
    vertex 36.65220076876373 -9.29464848606757 -15.860000000000026
    vertex 36.80454451876372 -9.130886466836802 -15.860000000000026
  endloop
endfacet
facet normal 7.703719777548945e-33 1.387778780781446e-16 1.0
  outer loop
    vertex 36.72913966046413 -8.092903325389434 -15.860000000000026
    vertex 36.80454451876372 -9.130886466836802 -15.860000000000026
    vertex 36.844967089613924 -8.258211239104009 -15.860000000000026
  endloop
endfacet
facet normal 7.703719777548945e-33 1.387778780781446e-16 1.0
  outer loop
    vertex 36.844967089613924 -8.258211239104009 -15.860000000000026
    vertex 36.80454451876372 -9.130886466836802 -15.860000000000026
    vertex 36.90715079406736 -8.927745652059475 -15.860000000000026
  endloop
endfacet
facet normal 7.703719777548945e-33 1.387778780781446e-16 1.0
  outer loop
    vertex 36.844967089613924 -8.258211239104009 -15.860000000000026
    vertex 36.90715079406736 -8.927745652059475 -15.860000000000026
    vertex 36.91959702382445 -8.453575137130324 -15.860000000000026
  endloop
endfacet
facet normal 7.703719777548945e-33 1.387778780781446e-16 1.0
  outer loop
    vertex 36.91959702382445 -8.453575137130324 -15.860000000000026
    vertex 36.90715079406736 -8.927745652059475 -15.860000000000026
    vertex 36.944473668561294 -8.678995019468381 -15.860000000000026
  endloop
endfacet
facet normal -7.703719777548945e-33 -1.387778780781446e-16 -1.0
  outer loop
    vertex 34.67960777787303 -7.750351294772026 -16.000000000000032
    vertex 32.741475186779915 -8.231247043759879 -16.000000000000032
    vertex 32.69380944791352 -7.750351294772026 -16.000000000000032
  endloop
endfacet
facet normal -7.703719777548945e-33 -1.387778780781446e-16 -1.0
  outer loop
    vertex 32.741475186779915 -8.231247043759879 -16.000000000000032
    vertex 34.67960777787303 -7.750351294772026 -16.000000000000032
    vertex 33.452475945889226 -8.222960100440043 -16.000000000000032
  endloop
endfacet
facet normal -7.703719777548945e-33 -1.387778780781446e-16 -1.0
  outer loop
    vertex 32.741475186779915 -8.231247043759879 -16.000000000000032
    vertex 33.452475945889226 -8.222960100440043 -16.000000000000032
    vertex 32.741475186779915 -10.368392792747734 -16.000000000000032
  endloop
endfacet
facet normal -7.703719777548945e-33 -1.387778780781446e-16 -1.0
  outer loop
    vertex 33.452475945889226 -8.222960100440043 -16.000000000000032
    vertex 34.67960777787303 -7.750351294772026 -16.000000000000032
    vertex 34.735592089613924 -8.222960100440043 -16.000000000000032
  endloop
endfacet
facet normal -7.703719777548945e-33 -1.387778780781446e-16 -1.0
  outer loop
    vertex 32.741475186779915 -10.368392792747734 -16.000000000000032
    vertex 33.4690498325289 -10.911472246189028 -16.000000000000032
    vertex 32.67100453900664 -10.847232620682956 -16.000000000000032
  endloop
endfacet
facet normal -7.703719777548945e-33 -1.387778780781446e-16 -1.0
  outer loop
    vertex 33.4690498325289 -10.911472246189028 -16.000000000000032
    vertex 32.741475186779915 -10.368392792747734 -16.000000000000032
    vertex 33.452475945889226 -8.222960100440043 -16.000000000000032
  endloop
endfacet
facet normal -7.703719777548945e-33 -1.387778780781446e-16 -1.0
  outer loop
    vertex 33.4690498325289 -10.911472246189028 -16.000000000000032
    vertex 33.452475945889226 -8.222960100440043 -16.000000000000032
    vertex 33.4690498325289 -8.496587377767977 -16.000000000000032
  endloop
endfacet
facet normal 1.7849589699048565e-16 -1.0 1.387778780781446e-16
  outer loop
    vertex 33.452475945889226 -8.222960100440043 -16.000000000000032
    vertex 34.735592089613924 -8.22296010044004 -15.860000000000026
    vertex 33.452475945889226 -8.222960100440043 -15.860000000000026
  endloop
endfacet
facet normal 1.7849589699048565e-16 -1.0 1.387778780781446e-16
  outer loop
    vertex 34.735592089613924 -8.22296010044004 -15.860000000000026
    vertex 33.452475945889226 -8.222960100440043 -16.000000000000032
    vertex 34.735592089613924 -8.222960100440043 -16.000000000000032
  endloop
endfacet
facet normal 0.9930568332779209 0.11763556384031046 -1.6325213936284407e-17
  outer loop
    vertex 34.735592089613924 -8.22296010044004 -15.860000000000026
    vertex 34.67960777787303 -7.750351294772026 -16.000000000000032
    vertex 34.67960777787303 -7.750351294772026 -15.860000000000026
  endloop
endfacet
facet normal 0.9930568332779209 0.11763556384031046 -1.6325213936284407e-17
  outer loop
    vertex 34.67960777787303 -7.750351294772026 -16.000000000000032
    vertex 34.735592089613924 -8.22296010044004 -15.860000000000026
    vertex 34.735592089613924 -8.222960100440043 -16.000000000000032
  endloop
endfacet
facet normal -1.7849589699048565e-16 1.0 -1.387778780781446e-16
  outer loop
    vertex 34.67960777787303 -7.750351294772026 -16.000000000000032
    vertex 32.69380944791352 -7.750351294772026 -15.860000000000026
    vertex 34.67960777787303 -7.750351294772026 -15.860000000000026
  endloop
endfacet
facet normal -1.7849589699048565e-16 1.0 -1.387778780781446e-16
  outer loop
    vertex 32.69380944791352 -7.750351294772026 -15.860000000000026
    vertex 34.67960777787303 -7.750351294772026 -16.000000000000032
    vertex 32.69380944791352 -7.750351294772026 -16.000000000000032
  endloop
endfacet
facet normal -0.9951236478600073 -0.09863531553045472 1.3688399792884775e-17
  outer loop
    vertex 32.741475186779915 -8.231247043759879 -16.000000000000032
    vertex 32.69380944791352 -7.750351294772026 -15.860000000000026
    vertex 32.69380944791352 -7.750351294772026 -16.000000000000032
  endloop
endfacet
facet normal -0.9951236478600073 -0.09863531553045472 1.3688399792884775e-17
  outer loop
    vertex 32.69380944791352 -7.750351294772026 -15.860000000000026
    vertex 32.741475186779915 -8.231247043759879 -16.000000000000032
    vertex 32.741475186779915 -8.231247043759879 -15.860000000000026
  endloop
endfacet
facet normal -1.0 -1.7849589699048565e-16 3.247500160754362e-32
  outer loop
    vertex 32.741475186779915 -10.368392792747734 -16.000000000000032
    vertex 32.741475186779915 -8.231247043759879 -15.860000000000026
    vertex 32.741475186779915 -8.231247043759879 -16.000000000000032
  endloop
endfacet
facet normal -1.0 -1.7849589699048565e-16 3.247500160754362e-32
  outer loop
    vertex 32.741475186779915 -8.231247043759879 -15.860000000000026
    vertex 32.741475186779915 -10.368392792747734 -16.000000000000032
    vertex 32.741475186779915 -10.368392792747734 -15.860000000000026
  endloop
endfacet
facet normal -0.9893433590763543 0.14560122888051488 -2.0206229589608112e-17
  outer loop
    vertex 32.67100453900664 -10.847232620682956 -16.000000000000032
    vertex 32.741475186779915 -10.368392792747734 -15.860000000000026
    vertex 32.741475186779915 -10.368392792747734 -16.000000000000032
  endloop
endfacet
facet normal -0.9893433590763543 0.14560122888051488 -2.0206229589608112e-17
  outer loop
    vertex 32.741475186779915 -10.368392792747734 -15.860000000000026
    vertex 32.67100453900664 -10.847232620682956 -16.000000000000032
    vertex 32.67100453900664 -10.847232620682956 -15.860000000000026
  endloop
endfacet
facet normal -0.08023668228137741 -0.9967758398037532 1.3833043596752544e-16
  outer loop
    vertex 32.67100453900664 -10.847232620682956 -16.000000000000032
    vertex 33.4690498325289 -10.911472246189028 -15.860000000000026
    vertex 32.67100453900664 -10.847232620682956 -15.860000000000026
  endloop
endfacet
facet normal -0.08023668228137741 -0.9967758398037532 1.3833043596752544e-16
  outer loop
    vertex 33.4690498325289 -10.911472246189028 -15.860000000000026
    vertex 32.67100453900664 -10.847232620682956 -16.000000000000032
    vertex 33.4690498325289 -10.911472246189028 -16.000000000000032
  endloop
endfacet
facet normal 1.0 1.7849589699048565e-16 -3.247500160754362e-32
  outer loop
    vertex 33.4690498325289 -10.911472246189028 -15.860000000000026
    vertex 33.4690498325289 -8.496587377767977 -16.000000000000032
    vertex 33.4690498325289 -8.496587377767977 -15.860000000000026
  endloop
endfacet
facet normal 1.0 1.7849589699048565e-16 -3.247500160754362e-32
  outer loop
    vertex 33.4690498325289 -8.496587377767977 -16.000000000000032
    vertex 33.4690498325289 -10.911472246189028 -15.860000000000026
    vertex 33.4690498325289 -10.911472246189028 -16.000000000000032
  endloop
endfacet
facet normal 0.9981706073152777 0.060460224047301225 -8.390541601413683e-18
  outer loop
    vertex 33.4690498325289 -8.496587377767977 -15.860000000000026
    vertex 33.452475945889226 -8.222960100440043 -16.000000000000032
    vertex 33.452475945889226 -8.222960100440043 -15.860000000000026
  endloop
endfacet
facet normal 0.9981706073152777 0.060460224047301225 -8.390541601413683e-18
  outer loop
    vertex 33.452475945889226 -8.222960100440043 -16.000000000000032
    vertex 33.4690498325289 -8.496587377767977 -15.860000000000026
    vertex 33.4690498325289 -8.496587377767977 -16.000000000000032
  endloop
endfacet
facet normal -7.703719777548945e-33 -1.387778780781446e-16 -1.0
  outer loop
    vertex 35.27683702888518 -7.788702129792267 -16.00000000000004
    vertex 35.12033399244793 -8.471726547808462 -16.00000000000004
    vertex 34.83427630014024 -8.001173663193077 -16.00000000000004
  endloop
endfacet
facet normal -7.703719777548945e-33 -1.387778780781446e-16 -1.0
  outer loop
    vertex 35.12033399244793 -8.471726547808462 -16.00000000000004
    vertex 35.27683702888518 -7.788702129792267 -16.00000000000004
    vertex 35.25300415945198 -8.389837630804413 -16.00000000000004
  endloop
endfacet
facet normal -7.703719777548945e-33 -1.387778780781446e-16 -1.0
  outer loop
    vertex 35.25300415945198 -8.389837630804413 -16.00000000000004
    vertex 35.27683702888518 -7.788702129792267 -16.00000000000004
    vertex 35.41572240337911 -8.307964528577694 -16.00000000000004
  endloop
endfacet
facet normal -7.703719777548945e-33 -1.387778780781446e-16 -1.0
  outer loop
    vertex 35.41572240337911 -8.307964528577694 -16.00000000000004
    vertex 35.27683702888518 -7.788702129792267 -16.00000000000004
    vertex 35.50770905570704 -7.733512510612106 -16.00000000000004
  endloop
endfacet
facet normal -7.703719777548945e-33 -1.387778780781446e-16 -1.0
  outer loop
    vertex 35.41572240337911 -8.307964528577694 -16.00000000000004
    vertex 35.50770905570704 -7.733512510612106 -16.00000000000004
    vertex 35.588815141233354 -8.244737048820609 -16.00000000000004
  endloop
endfacet
facet normal -7.703719777548945e-33 -1.387778780781446e-16 -1.0
  outer loop
    vertex 35.588815141233354 -8.244737048820609 -16.00000000000004
    vertex 35.50770905570704 -7.733512510612106 -16.00000000000004
    vertex 35.75877655317668 -7.715115970885385 -16.00000000000004
  endloop
endfacet
facet normal -7.703719777548945e-33 -1.387778780781446e-16 -1.0
  outer loop
    vertex 35.588815141233354 -8.244737048820609 -16.00000000000004
    vertex 35.75877655317668 -7.715115970885385 -16.00000000000004
    vertex 35.75463308151676 -8.218816628780122 -16.00000000000004
  endloop
endfacet
facet normal -7.703719777548945e-33 -1.387778780781446e-16 -1.0
  outer loop
    vertex 35.75463308151676 -8.218816628780122 -16.00000000000004
    vertex 35.75877655317668 -7.715115970885385 -16.00000000000004
    vertex 35.93498480216453 -8.241621537687005 -16.00000000000004
  endloop
endfacet
facet normal -7.703719777548945e-33 -1.387778780781446e-16 -1.0
  outer loop
    vertex 35.93498480216453 -8.241621537687005 -16.00000000000004
    vertex 35.75877655317668 -7.715115970885385 -16.00000000000004
    vertex 35.98342546511999 -7.730404906867166 -16.00000000000004
  endloop
endfacet
facet normal -7.703719777548945e-33 -1.387778780781446e-16 -1.0
  outer loop
    vertex 35.93498480216453 -8.241621537687005 -16.00000000000004
    vertex 35.98342546511999 -7.730404906867166 -16.00000000000004
    vertex 36.09355957443174 -8.315207696593887 -16.00000000000004
  endloop
endfacet
facet normal -7.703719777548945e-33 -1.387778780781446e-16 -1.0
  outer loop
    vertex 36.09355957443174 -8.315207696593887 -16.00000000000004
    vertex 35.98342546511999 -7.730404906867166 -16.00000000000004
    vertex 36.20133728192162 -7.776271714812511 -16.00000000000004
  endloop
endfacet
facet normal -7.703719777548945e-33 -1.387778780781446e-16 -1.0
  outer loop
    vertex 36.09355957443174 -8.315207696593887 -16.00000000000004
    vertex 36.20133728192162 -7.776271714812511 -16.00000000000004
    vertex 36.20549656835886 -8.445790312990647 -16.00000000000004
  endloop
endfacet
facet normal -7.703719777548945e-33 -1.387778780781446e-16 -1.0
  outer loop
    vertex 36.20549656835886 -8.445790312990647 -16.00000000000004
    vertex 36.20133728192162 -7.776271714812511 -16.00000000000004
    vertex 36.403442228783966 -7.852194507069595 -16.00000000000004
  endloop
endfacet
facet normal -7.703719777548945e-33 -1.387778780781446e-16 -1.0
  outer loop
    vertex 36.20549656835886 -8.445790312990647 -16.00000000000004
    vertex 36.403442228783966 -7.852194507069595 -16.00000000000004
    vertex 36.24799087503902 -8.641672144974454 -16.00000000000004
  endloop
endfacet
facet normal -7.703719777548945e-33 -1.387778780781446e-16 -1.0
  outer loop
    vertex 36.24799087503902 -8.641672144974454 -16.00000000000004
    vertex 36.403442228783966 -7.852194507069595 -16.00000000000004
    vertex 36.25937751471514 -9.540283607525062 -16.00000000000004
  endloop
endfacet
facet normal -7.703719777548945e-33 -1.387778780781446e-16 -1.0
  outer loop
    vertex 36.25937751471514 -9.540283607525062 -16.00000000000004
    vertex 36.403442228783966 -7.852194507069595 -16.00000000000004
    vertex 36.46563384062607 -9.428346613597935 -16.00000000000004
  endloop
endfacet
facet normal -7.703719777548945e-33 -1.387778780781446e-16 -1.0
  outer loop
    vertex 36.46563384062607 -9.428346613597935 -16.00000000000004
    vertex 36.403442228783966 -7.852194507069595 -16.00000000000004
    vertex 36.58067053090947 -7.957651395986599 -16.00000000000004
  endloop
endfacet
facet normal -7.703719777548945e-33 -1.387778780781446e-16 -1.0
  outer loop
    vertex 36.46563384062607 -9.428346613597935 -16.00000000000004
    vertex 36.58067053090947 -7.957651395986599 -16.00000000000004
    vertex 36.65220076876373 -9.29464848606757 -16.00000000000004
  endloop
endfacet
facet normal -7.703719777548945e-33 -1.387778780781446e-16 -1.0
  outer loop
    vertex 36.65220076876373 -9.29464848606757 -16.00000000000004
    vertex 36.58067053090947 -7.957651395986599 -16.00000000000004
    vertex 36.72913966046413 -8.092903325389434 -16.00000000000004
  endloop
endfacet
facet normal -7.703719777548945e-33 -1.387778780781446e-16 -1.0
  outer loop
    vertex 36.65220076876373 -9.29464848606757 -16.00000000000004
    vertex 36.72913966046413 -8.092903325389434 -16.00000000000004
    vertex 36.80454451876372 -9.130886466836802 -16.00000000000004
  endloop
endfacet
facet normal -7.703719777548945e-33 -1.387778780781446e-16 -1.0
  outer loop
    vertex 36.80454451876372 -9.130886466836802 -16.00000000000004
    vertex 36.72913966046413 -8.092903325389434 -16.00000000000004
    vertex 36.844967089613924 -8.258211239104009 -16.00000000000004
  endloop
endfacet
facet normal -7.703719777548945e-33 -1.387778780781446e-16 -1.0
  outer loop
    vertex 36.80454451876372 -9.130886466836802 -16.00000000000004
    vertex 36.844967089613924 -8.258211239104009 -16.00000000000004
    vertex 36.90715079406736 -8.927745652059475 -16.00000000000004
  endloop
endfacet
facet normal -7.703719777548945e-33 -1.387778780781446e-16 -1.0
  outer loop
    vertex 36.90715079406736 -8.927745652059475 -16.00000000000004
    vertex 36.844967089613924 -8.258211239104009 -16.00000000000004
    vertex 36.91959702382445 -8.453575137130324 -16.00000000000004
  endloop
endfacet
facet normal -7.703719777548945e-33 -1.387778780781446e-16 -1.0
  outer loop
    vertex 36.90715079406736 -8.927745652059475 -16.00000000000004
    vertex 36.91959702382445 -8.453575137130324 -16.00000000000004
    vertex 36.944473668561294 -8.678995019468381 -16.00000000000004
  endloop
endfacet
facet normal -7.703719777548945e-33 -1.387778780781446e-16 -1.0
  outer loop
    vertex 34.87884234265036 -9.87271022695826 -16.00000000000004
    vertex 34.8842865797455 -10.221991445328706 -16.00000000000004
    vertex 34.86122468070704 -10.02429486764652 -16.00000000000004
  endloop
endfacet
facet normal -7.703719777548945e-33 -1.387778780781446e-16 -1.0
  outer loop
    vertex 34.8842865797455 -10.221991445328706 -16.00000000000004
    vertex 34.87884234265036 -9.87271022695826 -16.00000000000004
    vertex 34.931695328480316 -9.741336871695102 -16.00000000000004
  endloop
endfacet
facet normal -7.703719777548945e-33 -1.387778780781446e-16 -1.0
  outer loop
    vertex 34.8842865797455 -10.221991445328706 -16.00000000000004
    vertex 34.931695328480316 -9.741336871695102 -16.00000000000004
    vertex 34.953472276860886 -10.39636913384085 -16.00000000000004
  endloop
endfacet
facet normal -7.703719777548945e-33 -1.387778780781446e-16 -1.0
  outer loop
    vertex 34.953472276860886 -10.39636913384085 -16.00000000000004
    vertex 34.931695328480316 -9.741336871695102 -16.00000000000004
    vertex 35.11721848131433 -9.524721866634373 -16.00000000000004
  endloop
endfacet
facet normal -7.703719777548945e-33 -1.387778780781446e-16 -1.0
  outer loop
    vertex 34.953472276860886 -10.39636913384085 -16.00000000000004
    vertex 35.11721848131433 -9.524721866634373 -16.00000000000004
    vertex 35.06048692134469 -10.546135075136396 -16.00000000000004
  endloop
endfacet
facet normal -7.703719777548945e-33 -1.387778780781446e-16 -1.0
  outer loop
    vertex 35.06048692134469 -10.546135075136396 -16.00000000000004
    vertex 35.11721848131433 -9.524721866634373 -16.00000000000004
    vertex 35.19703566248842 -10.669996411168785 -16.00000000000004
  endloop
endfacet
facet normal -7.703719777548945e-33 -1.387778780781446e-16 -1.0
  outer loop
    vertex 35.19703566248842 -10.669996411168785 -16.00000000000004
    vertex 35.11721848131433 -9.524721866634373 -16.00000000000004
    vertex 35.376327793055225 -9.353716679387409 -16.00000000000004
  endloop
endfacet
facet normal -7.703719777548945e-33 -1.387778780781446e-16 -1.0
  outer loop
    vertex 35.19703566248842 -10.669996411168785 -16.00000000000004
    vertex 35.376327793055225 -9.353716679387409 -16.00000000000004
    vertex 35.358457094674655 -10.767427300591862 -16.00000000000004
  endloop
endfacet
facet normal -7.703719777548945e-33 -1.387778780781446e-16 -1.0
  outer loop
    vertex 35.358457094674655 -10.767427300591862 -16.00000000000004
    vertex 35.376327793055225 -9.353716679387409 -16.00000000000004
    vertex 35.54008981228599 -10.837901902059475 -16.00000000000004
  endloop
endfacet
facet normal -7.703719777548945e-33 -1.387778780781446e-16 -1.0
  outer loop
    vertex 35.54008981228599 -10.837901902059475 -16.00000000000004
    vertex 35.376327793055225 -9.353716679387409 -16.00000000000004
    vertex 35.57845646208356 -10.08233510044004 -16.00000000000004
  endloop
endfacet
facet normal -7.703719777548945e-33 -1.387778780781446e-16 -1.0
  outer loop
    vertex 35.57845646208356 -10.08233510044004 -16.00000000000004
    vertex 35.376327793055225 -9.353716679387409 -16.00000000000004
    vertex 35.669644468156434 -9.207588136877288 -16.00000000000004
  endloop
endfacet
facet normal -7.703719777548945e-33 -1.387778780781446e-16 -1.0
  outer loop
    vertex 35.57845646208356 -10.08233510044004 -16.00000000000004
    vertex 35.669644468156434 -9.207588136877288 -16.00000000000004
    vertex 35.61783525763012 -9.933091046796317 -16.00000000000004
  endloop
endfacet
facet normal -7.703719777548945e-33 -1.387778780781446e-16 -1.0
  outer loop
    vertex 35.61783525763012 -9.933091046796317 -16.00000000000004
    vertex 35.669644468156434 -9.207588136877288 -16.00000000000004
    vertex 35.72251326876372 -9.81701058120927 -16.00000000000004
  endloop
endfacet
facet normal -7.703719777548945e-33 -1.387778780781446e-16 -1.0
  outer loop
    vertex 35.72251326876372 -9.81701058120927 -16.00000000000004
    vertex 35.669644468156434 -9.207588136877288 -16.00000000000004
    vertex 35.87900049042364 -9.104981861573645 -16.00000000000004
  endloop
endfacet
facet normal -7.703719777548945e-33 -1.387778780781446e-16 -1.0
  outer loop
    vertex 35.72251326876372 -9.81701058120927 -16.00000000000004
    vertex 35.87900049042364 -9.104981861573645 -16.00000000000004
    vertex 35.87280109771109 -9.722691249225466 -16.00000000000004
  endloop
endfacet
facet normal -7.703719777548945e-33 -1.387778780781446e-16 -1.0
  outer loop
    vertex 35.87280109771109 -9.722691249225466 -16.00000000000004
    vertex 35.87900049042364 -9.104981861573645 -16.00000000000004
    vertex 36.04897771714429 -9.638730596391458 -16.00000000000004
  endloop
endfacet
facet normal -7.703719777548945e-33 -1.387778780781446e-16 -1.0
  outer loop
    vertex 36.04897771714429 -9.638730596391458 -16.00000000000004
    vertex 35.87900049042364 -9.104981861573645 -16.00000000000004
    vertex 36.064523643257644 -8.986829660156639 -16.00000000000004
  endloop
endfacet
facet normal -7.703719777548945e-33 -1.387778780781446e-16 -1.0
  outer loop
    vertex 36.04897771714429 -9.638730596391458 -16.00000000000004
    vertex 36.064523643257644 -8.986829660156639 -16.00000000000004
    vertex 36.25937751471514 -9.540283607525062 -16.00000000000004
  endloop
endfacet
facet normal -7.703719777548945e-33 -1.387778780781446e-16 -1.0
  outer loop
    vertex 36.25937751471514 -9.540283607525062 -16.00000000000004
    vertex 36.064523643257644 -8.986829660156639 -16.00000000000004
    vertex 36.1971938102617 -8.837569791735588 -16.00000000000004
  endloop
endfacet
facet normal -7.703719777548945e-33 -1.387778780781446e-16 -1.0
  outer loop
    vertex 36.25937751471514 -9.540283607525062 -16.00000000000004
    vertex 36.1971938102617 -8.837569791735588 -16.00000000000004
    vertex 36.24799087503902 -8.641672144974454 -16.00000000000004
  endloop
endfacet
facet normal -7.703719777548945e-33 -1.387778780781446e-16 -1.0
  outer loop
    vertex 35.54008981228599 -10.837901902059475 -16.00000000000004
    vertex 35.61264801066656 -10.23676640104733 -16.00000000000004
    vertex 35.93084133050461 -10.894898359549352 -16.00000000000004
  endloop
endfacet
facet normal -7.703719777548945e-33 -1.387778780781446e-16 -1.0
  outer loop
    vertex 35.61264801066656 -10.23676640104733 -16.00000000000004
    vertex 35.54008981228599 -10.837901902059475 -16.00000000000004
    vertex 35.57845646208356 -10.08233510044004 -16.00000000000004
  endloop
endfacet
facet normal -7.703719777548945e-33 -1.387778780781446e-16 -1.0
  outer loop
    vertex 35.93084133050461 -10.894898359549352 -16.00000000000004
    vertex 35.61264801066656 -10.23676640104733 -16.00000000000004
    vertex 35.702808056213115 -10.338328901047328 -16.00000000000004
  endloop
endfacet
facet normal -7.703719777548945e-33 -1.387778780781446e-16 -1.0
  outer loop
    vertex 35.93084133050461 -10.894898359549352 -16.00000000000004
    vertex 35.702808056213115 -10.338328901047328 -16.00000000000004
    vertex 35.83133475155724 -10.394297398010892 -16.00000000000004
  endloop
endfacet
facet normal -7.703719777548945e-33 -1.387778780781446e-16 -1.0
  outer loop
    vertex 35.93084133050461 -10.894898359549352 -16.00000000000004
    vertex 35.83133475155724 -10.394297398010892 -16.00000000000004
    vertex 35.980562990423635 -10.411915059954211 -16.00000000000004
  endloop
endfacet
facet normal -7.703719777548945e-33 -1.387778780781446e-16 -1.0
  outer loop
    vertex 35.93084133050461 -10.894898359549352 -16.00000000000004
    vertex 35.980562990423635 -10.411915059954211 -16.00000000000004
    vertex 36.168687674128094 -10.875722942039232 -16.00000000000004
  endloop
endfacet
facet normal -7.703719777548945e-33 -1.387778780781446e-16 -1.0
  outer loop
    vertex 36.168687674128094 -10.875722942039232 -16.00000000000004
    vertex 35.980562990423635 -10.411915059954211 -16.00000000000004
    vertex 36.097687231314325 -10.398440869670809 -16.00000000000004
  endloop
endfacet
facet normal -7.703719777548945e-33 -1.387778780781446e-16 -1.0
  outer loop
    vertex 36.168687674128094 -10.875722942039232 -16.00000000000004
    vertex 36.097687231314325 -10.398440869670809 -16.00000000000004
    vertex 36.22309841552485 -10.356990338294292 -16.00000000000004
  endloop
endfacet
facet normal -7.703719777548945e-33 -1.387778780781446e-16 -1.0
  outer loop
    vertex 36.168687674128094 -10.875722942039232 -16.00000000000004
    vertex 36.22309841552485 -10.356990338294292 -16.00000000000004
    vertex 36.39721911390542 -10.818196689508866 -16.00000000000004
  endloop
endfacet
facet normal -7.703719777548945e-33 -1.387778780781446e-16 -1.0
  outer loop
    vertex 36.39721911390542 -10.818196689508866 -16.00000000000004
    vertex 36.22309841552485 -10.356990338294292 -16.00000000000004
    vertex 36.36717103698235 -10.288591426350973 -16.00000000000004
  endloop
endfacet
facet normal -7.703719777548945e-33 -1.387778780781446e-16 -1.0
  outer loop
    vertex 36.39721911390542 -10.818196689508866 -16.00000000000004
    vertex 36.36717103698235 -10.288591426350973 -16.00000000000004
    vertex 36.54024796005927 -10.192184543759879 -16.00000000000004
  endloop
endfacet
facet normal -7.703719777548945e-33 -1.387778780781446e-16 -1.0
  outer loop
    vertex 36.39721911390542 -10.818196689508866 -16.00000000000004
    vertex 36.54024796005927 -10.192184543759879 -16.00000000000004
    vertex 36.62265085732648 -10.722327509346924 -16.00000000000004
  endloop
endfacet
facet normal -7.703719777548945e-33 -1.387778780781446e-16 -1.0
  outer loop
    vertex 36.62265085732648 -10.722327509346924 -16.00000000000004
    vertex 36.54024796005927 -10.192184543759879 -16.00000000000004
    vertex 36.85119811188113 -10.588123308942064 -16.00000000000004
  endloop
endfacet
facet normal -0.4866186129329086 0.8736145177063235 -1.2123836902554524e-16
  outer loop
    vertex 36.54024796005927 -10.192184543759879 -16.00000000000004
    vertex 36.36717103698235 -10.288591426350973 -15.860000000000026
    vertex 36.54024796005927 -10.192184543759879 -15.860000000000026
  endloop
endfacet
facet normal -0.4866186129329086 0.8736145177063235 -1.2123836902554524e-16
  outer loop
    vertex 36.36717103698235 -10.288591426350973 -15.860000000000026
    vertex 36.54024796005927 -10.192184543759879 -16.00000000000004
    vertex 36.36717103698235 -10.288591426350973 -16.00000000000004
  endloop
endfacet
facet normal -0.4288747648233016 0.9033639555006376 -1.2536693287665792e-16
  outer loop
    vertex 36.36717103698235 -10.288591426350973 -16.00000000000004
    vertex 36.22309841552485 -10.356990338294292 -15.860000000000026
    vertex 36.36717103698235 -10.288591426350973 -15.860000000000026
  endloop
endfacet
facet normal -0.4288747648233016 0.9033639555006376 -1.2536693287665792e-16
  outer loop
    vertex 36.22309841552485 -10.356990338294292 -15.860000000000026
    vertex 36.36717103698235 -10.288591426350973 -16.00000000000004
    vertex 36.22309841552485 -10.356990338294292 -16.00000000000004
  endloop
endfacet
facet normal -0.31382011577763513 0.9494824563588903 -1.3176716056591132e-16
  outer loop
    vertex 36.22309841552485 -10.356990338294292 -16.00000000000004
    vertex 36.097687231314325 -10.398440869670809 -15.860000000000026
    vertex 36.22309841552485 -10.356990338294292 -15.860000000000026
  endloop
endfacet
facet normal -0.31382011577763513 0.9494824563588903 -1.3176716056591132e-16
  outer loop
    vertex 36.097687231314325 -10.398440869670809 -15.860000000000026
    vertex 36.22309841552485 -10.356990338294292 -16.00000000000004
    vertex 36.097687231314325 -10.398440869670809 -16.00000000000004
  endloop
endfacet
facet normal -0.11428806373595814 0.99344765261562 -1.3786855721170945e-16
  outer loop
    vertex 36.097687231314325 -10.398440869670809 -16.00000000000004
    vertex 35.980562990423635 -10.411915059954211 -15.860000000000026
    vertex 36.097687231314325 -10.398440869670809 -15.860000000000026
  endloop
endfacet
facet normal -0.11428806373595814 0.99344765261562 -1.3786855721170945e-16
  outer loop
    vertex 35.980562990423635 -10.411915059954211 -15.860000000000026
    vertex 36.097687231314325 -10.398440869670809 -16.00000000000004
    vertex 35.980562990423635 -10.411915059954211 -16.00000000000004
  endloop
endfacet
facet normal 0.11724426263013883 0.993103107879698 -1.378207420243552e-16
  outer loop
    vertex 35.980562990423635 -10.411915059954211 -16.00000000000004
    vertex 35.83133475155724 -10.394297398010892 -15.860000000000026
    vertex 35.980562990423635 -10.411915059954211 -15.860000000000026
  endloop
endfacet
facet normal 0.11724426263013883 0.993103107879698 -1.378207420243552e-16
  outer loop
    vertex 35.83133475155724 -10.394297398010892 -15.860000000000026
    vertex 35.980562990423635 -10.411915059954211 -16.00000000000004
    vertex 35.83133475155724 -10.394297398010892 -16.00000000000004
  endloop
endfacet
facet normal 0.3992499425071575 0.916842125672698 -1.2723740473351263e-16
  outer loop
    vertex 35.83133475155724 -10.394297398010892 -16.00000000000004
    vertex 35.702808056213115 -10.338328901047328 -15.860000000000026
    vertex 35.83133475155724 -10.394297398010892 -15.860000000000026
  endloop
endfacet
facet normal 0.3992499425071575 0.916842125672698 -1.2723740473351263e-16
  outer loop
    vertex 35.702808056213115 -10.338328901047328 -15.860000000000026
    vertex 35.83133475155724 -10.394297398010892 -16.00000000000004
    vertex 35.702808056213115 -10.338328901047328 -16.00000000000004
  endloop
endfacet
facet normal 0.7478396239349797 0.6638794294695296 -9.213177852151059e-17
  outer loop
    vertex 35.702808056213115 -10.338328901047328 -15.860000000000026
    vertex 35.61264801066656 -10.23676640104733 -16.00000000000004
    vertex 35.61264801066656 -10.23676640104733 -15.860000000000026
  endloop
endfacet
facet normal 0.7478396239349797 0.6638794294695296 -9.213177852151059e-17
  outer loop
    vertex 35.61264801066656 -10.23676640104733 -16.00000000000004
    vertex 35.702808056213115 -10.338328901047328 -15.860000000000026
    vertex 35.702808056213115 -10.338328901047328 -16.00000000000004
  endloop
endfacet
facet normal 0.9763561494002192 0.21616815105000353 -2.999935731079534e-17
  outer loop
    vertex 35.61264801066656 -10.23676640104733 -15.860000000000026
    vertex 35.57845646208356 -10.08233510044004 -16.00000000000004
    vertex 35.57845646208356 -10.08233510044004 -15.860000000000026
  endloop
endfacet
facet normal 0.9763561494002192 0.21616815105000353 -2.999935731079534e-17
  outer loop
    vertex 35.57845646208356 -10.08233510044004 -16.00000000000004
    vertex 35.61264801066656 -10.23676640104733 -15.860000000000026
    vertex 35.61264801066656 -10.23676640104733 -16.00000000000004
  endloop
endfacet
facet normal 0.9669084326557317 -0.25512366189602337 3.5405520445456106e-17
  outer loop
    vertex 35.57845646208356 -10.08233510044004 -15.860000000000026
    vertex 35.61783525763012 -9.933091046796317 -16.00000000000004
    vertex 35.61783525763012 -9.933091046796317 -15.860000000000026
  endloop
endfacet
facet normal 0.9669084326557317 -0.25512366189602337 3.5405520445456106e-17
  outer loop
    vertex 35.61783525763012 -9.933091046796317 -16.00000000000004
    vertex 35.57845646208356 -10.08233510044004 -15.860000000000026
    vertex 35.57845646208356 -10.08233510044004 -16.00000000000004
  endloop
endfacet
facet normal 0.7426397734279614 -0.6696910981361975 9.293830956716397e-17
  outer loop
    vertex 35.61783525763012 -9.933091046796317 -15.860000000000026
    vertex 35.72251326876372 -9.81701058120927 -16.00000000000004
    vertex 35.72251326876372 -9.81701058120927 -15.860000000000026
  endloop
endfacet
facet normal 0.7426397734279614 -0.6696910981361975 9.293830956716397e-17
  outer loop
    vertex 35.72251326876372 -9.81701058120927 -16.00000000000004
    vertex 35.61783525763012 -9.933091046796317 -15.860000000000026
    vertex 35.61783525763012 -9.933091046796317 -16.00000000000004
  endloop
endfacet
facet normal 0.5315763389250213 -0.8470103871234822 1.1754630423514466e-16
  outer loop
    vertex 35.72251326876372 -9.81701058120927 -16.00000000000004
    vertex 35.87280109771109 -9.722691249225466 -15.860000000000026
    vertex 35.72251326876372 -9.81701058120927 -15.860000000000026
  endloop
endfacet
facet normal 0.5315763389250213 -0.8470103871234822 1.1754630423514466e-16
  outer loop
    vertex 35.87280109771109 -9.722691249225466 -15.860000000000026
    vertex 35.72251326876372 -9.81701058120927 -16.00000000000004
    vertex 35.87280109771109 -9.722691249225466 -16.00000000000004
  endloop
endfacet
facet normal 0.4302135115842063 -0.9027271650118802 1.252785604438478e-16
  outer loop
    vertex 35.87280109771109 -9.722691249225466 -16.00000000000004
    vertex 36.04897771714429 -9.638730596391458 -15.860000000000026
    vertex 35.87280109771109 -9.722691249225466 -15.860000000000026
  endloop
endfacet
facet normal 0.4302135115842063 -0.9027271650118802 1.252785604438478e-16
  outer loop
    vertex 36.04897771714429 -9.638730596391458 -15.860000000000026
    vertex 35.87280109771109 -9.722691249225466 -16.00000000000004
    vertex 36.04897771714429 -9.638730596391458 -16.00000000000004
  endloop
endfacet
facet normal 0.42380583493462753 -0.9057530647341822 1.2569848838658613e-16
  outer loop
    vertex 36.04897771714429 -9.638730596391458 -16.00000000000004
    vertex 36.25937751471514 -9.540283607525062 -15.860000000000026
    vertex 36.04897771714429 -9.638730596391458 -15.860000000000026
  endloop
endfacet
facet normal 0.42380583493462753 -0.9057530647341822 1.2569848838658613e-16
  outer loop
    vertex 36.25937751471514 -9.540283607525062 -15.860000000000026
    vertex 36.04897771714429 -9.638730596391458 -16.00000000000004
    vertex 36.25937751471514 -9.540283607525062 -16.00000000000004
  endloop
endfacet
facet normal 0.47699073134109743 -0.8789083241241291 1.2197303224716476e-16
  outer loop
    vertex 36.25937751471514 -9.540283607525062 -16.00000000000004
    vertex 36.46563384062607 -9.428346613597935 -15.860000000000026
    vertex 36.25937751471514 -9.540283607525062 -15.860000000000026
  endloop
endfacet
facet normal 0.47699073134109743 -0.8789083241241291 1.2197303224716476e-16
  outer loop
    vertex 36.46563384062607 -9.428346613597935 -15.860000000000026
    vertex 36.25937751471514 -9.540283607525062 -16.00000000000004
    vertex 36.46563384062607 -9.428346613597935 -16.00000000000004
  endloop
endfacet
facet normal 0.5824954217748948 -0.8128339828103199 1.1280337536422326e-16
  outer loop
    vertex 36.46563384062607 -9.428346613597935 -16.00000000000004
    vertex 36.65220076876373 -9.29464848606757 -15.860000000000026
    vertex 36.46563384062607 -9.428346613597935 -15.860000000000026
  endloop
endfacet
facet normal 0.5824954217748948 -0.8128339828103199 1.1280337536422326e-16
  outer loop
    vertex 36.65220076876373 -9.29464848606757 -15.860000000000026
    vertex 36.46563384062607 -9.428346613597935 -16.00000000000004
    vertex 36.65220076876373 -9.29464848606757 -16.00000000000004
  endloop
endfacet
facet normal 0.7321711574169593 -0.6811206913952258 9.452448426694818e-17
  outer loop
    vertex 36.65220076876373 -9.29464848606757 -15.860000000000026
    vertex 36.80454451876372 -9.130886466836802 -16.00000000000004
    vertex 36.80454451876372 -9.130886466836802 -15.860000000000026
  endloop
endfacet
facet normal 0.7321711574169593 -0.6811206913952258 9.452448426694818e-17
  outer loop
    vertex 36.80454451876372 -9.130886466836802 -16.00000000000004
    vertex 36.65220076876373 -9.29464848606757 -15.860000000000026
    vertex 36.65220076876373 -9.29464848606757 -16.00000000000004
  endloop
endfacet
facet normal 0.8925991408370725 -0.4508511658817358 6.256816813012487e-17
  outer loop
    vertex 36.80454451876372 -9.130886466836802 -15.860000000000026
    vertex 36.90715079406736 -8.927745652059475 -16.00000000000004
    vertex 36.90715079406736 -8.927745652059475 -15.860000000000026
  endloop
endfacet
facet normal 0.8925991408370725 -0.4508511658817358 6.256816813012487e-17
  outer loop
    vertex 36.90715079406736 -8.927745652059475 -16.00000000000004
    vertex 36.80454451876372 -9.130886466836802 -15.860000000000026
    vertex 36.80454451876372 -9.130886466836802 -16.00000000000004
  endloop
endfacet
facet normal 0.9889303568299966 -0.14838042101333934 2.0591919976572962e-17
  outer loop
    vertex 36.90715079406736 -8.927745652059475 -15.860000000000026
    vertex 36.944473668561294 -8.678995019468381 -16.00000000000004
    vertex 36.944473668561294 -8.678995019468381 -15.860000000000026
  endloop
endfacet
facet normal 0.9889303568299966 -0.14838042101333934 2.0591919976572962e-17
  outer loop
    vertex 36.944473668561294 -8.678995019468381 -16.00000000000004
    vertex 36.90715079406736 -8.927745652059475 -15.860000000000026
    vertex 36.90715079406736 -8.927745652059475 -16.00000000000004
  endloop
endfacet
facet normal 0.9939657360001583 0.10969100080527919 -1.52226843360247e-17
  outer loop
    vertex 36.944473668561294 -8.678995019468381 -15.860000000000026
    vertex 36.91959702382445 -8.453575137130324 -16.00000000000004
    vertex 36.91959702382445 -8.453575137130324 -15.860000000000026
  endloop
endfacet
facet normal 0.9939657360001583 0.10969100080527919 -1.52226843360247e-17
  outer loop
    vertex 36.91959702382445 -8.453575137130324 -16.00000000000004
    vertex 36.944473668561294 -8.678995019468381 -15.860000000000026
    vertex 36.944473668561294 -8.678995019468381 -16.00000000000004
  endloop
endfacet
facet normal 0.9341603001804755 0.3568536584746245 -4.95233935075313e-17
  outer loop
    vertex 36.91959702382445 -8.453575137130324 -15.860000000000026
    vertex 36.844967089613924 -8.258211239104009 -16.00000000000004
    vertex 36.844967089613924 -8.258211239104009 -15.860000000000026
  endloop
endfacet
facet normal 0.9341603001804755 0.3568536584746245 -4.95233935075313e-17
  outer loop
    vertex 36.844967089613924 -8.258211239104009 -16.00000000000004
    vertex 36.91959702382445 -8.453575137130324 -15.860000000000026
    vertex 36.91959702382445 -8.453575137130324 -16.00000000000004
  endloop
endfacet
facet normal 0.8189714148096152 0.5738343155691694 -7.963550868311375e-17
  outer loop
    vertex 36.844967089613924 -8.258211239104009 -15.860000000000026
    vertex 36.72913966046413 -8.092903325389434 -16.00000000000004
    vertex 36.72913966046413 -8.092903325389434 -15.860000000000026
  endloop
endfacet
facet normal 0.8189714148096152 0.5738343155691694 -7.963550868311375e-17
  outer loop
    vertex 36.72913966046413 -8.092903325389434 -16.00000000000004
    vertex 36.844967089613924 -8.258211239104009 -15.860000000000026
    vertex 36.844967089613924 -8.258211239104009 -16.00000000000004
  endloop
endfacet
facet normal 0.6734357332516946 0.739245773190319 -1.0259095978158984e-16
  outer loop
    vertex 36.72913966046413 -8.092903325389434 -16.00000000000004
    vertex 36.58067053090947 -7.957651395986599 -15.860000000000026
    vertex 36.72913966046413 -8.092903325389434 -15.860000000000026
  endloop
endfacet
facet normal 0.6734357332516946 0.739245773190319 -1.0259095978158984e-16
  outer loop
    vertex 36.58067053090947 -7.957651395986599 -15.860000000000026
    vertex 36.72913966046413 -8.092903325389434 -16.00000000000004
    vertex 36.58067053090947 -7.957651395986599 -16.00000000000004
  endloop
endfacet
facet normal 0.5113544300540643 0.8593699127058634 -1.1926153296952009e-16
  outer loop
    vertex 36.58067053090947 -7.957651395986599 -16.00000000000004
    vertex 36.403442228783966 -7.852194507069595 -15.860000000000026
    vertex 36.58067053090947 -7.957651395986599 -15.860000000000026
  endloop
endfacet
facet normal 0.5113544300540643 0.8593699127058634 -1.1926153296952009e-16
  outer loop
    vertex 36.403442228783966 -7.852194507069595 -15.860000000000026
    vertex 36.58067053090947 -7.957651395986599 -16.00000000000004
    vertex 36.403442228783966 -7.852194507069595 -16.00000000000004
  endloop
endfacet
facet normal 0.3516652479934223 0.9361258213262386 -1.299135550978157e-16
  outer loop
    vertex 36.403442228783966 -7.852194507069595 -16.00000000000004
    vertex 36.20133728192162 -7.776271714812511 -15.860000000000026
    vertex 36.403442228783966 -7.852194507069595 -15.860000000000026
  endloop
endfacet
facet normal 0.3516652479934223 0.9361258213262386 -1.299135550978157e-16
  outer loop
    vertex 36.20133728192162 -7.776271714812511 -15.860000000000026
    vertex 36.403442228783966 -7.852194507069595 -16.00000000000004
    vertex 36.20133728192162 -7.776271714812511 -16.00000000000004
  endloop
endfacet
facet normal 0.20597021531383833 0.9785582611186578 -1.3580223905388628e-16
  outer loop
    vertex 36.20133728192162 -7.776271714812511 -16.00000000000004
    vertex 35.98342546511999 -7.730404906867166 -15.860000000000026
    vertex 36.20133728192162 -7.776271714812511 -15.860000000000026
  endloop
endfacet
facet normal 0.20597021531383833 0.9785582611186578 -1.3580223905388628e-16
  outer loop
    vertex 35.98342546511999 -7.730404906867166 -15.860000000000026
    vertex 36.20133728192162 -7.776271714812511 -16.00000000000004
    vertex 35.98342546511999 -7.730404906867166 -16.00000000000004
  endloop
endfacet
facet normal 0.06789995574791444 0.9976921348840189 -1.3845759745445815e-16
  outer loop
    vertex 35.98342546511999 -7.730404906867166 -16.00000000000004
    vertex 35.75877655317668 -7.715115970885385 -15.860000000000026
    vertex 35.98342546511999 -7.730404906867166 -15.860000000000026
  endloop
endfacet
facet normal 0.06789995574791444 0.9976921348840189 -1.3845759745445815e-16
  outer loop
    vertex 35.75877655317668 -7.715115970885385 -15.860000000000026
    vertex 35.98342546511999 -7.730404906867166 -16.00000000000004
    vertex 35.75877655317668 -7.715115970885385 -16.00000000000004
  endloop
endfacet
facet normal -0.07307737009307236 0.9973262745863464 -1.3840682413867413e-16
  outer loop
    vertex 35.75877655317668 -7.715115970885385 -16.00000000000004
    vertex 35.50770905570704 -7.733512510612106 -15.860000000000026
    vertex 35.75877655317668 -7.715115970885385 -15.860000000000026
  endloop
endfacet
facet normal -0.07307737009307236 0.9973262745863464 -1.3840682413867413e-16
  outer loop
    vertex 35.50770905570704 -7.733512510612106 -15.860000000000026
    vertex 35.75877655317668 -7.715115970885385 -16.00000000000004
    vertex 35.50770905570704 -7.733512510612106 -16.00000000000004
  endloop
endfacet
facet normal -0.23249786322981247 0.9725969070450367 -1.3497493498507663e-16
  outer loop
    vertex 35.50770905570704 -7.733512510612106 -16.00000000000004
    vertex 35.27683702888518 -7.788702129792267 -15.860000000000026
    vertex 35.50770905570704 -7.733512510612106 -15.860000000000026
  endloop
endfacet
facet normal -0.23249786322981247 0.9725969070450367 -1.3497493498507663e-16
  outer loop
    vertex 35.27683702888518 -7.788702129792267 -15.860000000000026
    vertex 35.50770905570704 -7.733512510612106 -16.00000000000004
    vertex 35.27683702888518 -7.788702129792267 -16.00000000000004
  endloop
endfacet
facet normal -0.4328012343053001 0.9014893740825839 -1.251067824451757e-16
  outer loop
    vertex 35.27683702888518 -7.788702129792267 -16.00000000000004
    vertex 34.83427630014024 -8.001173663193077 -15.860000000000026
    vertex 35.27683702888518 -7.788702129792267 -15.860000000000026
  endloop
endfacet
facet normal -0.4328012343053001 0.9014893740825839 -1.251067824451757e-16
  outer loop
    vertex 34.83427630014024 -8.001173663193077 -15.860000000000026
    vertex 35.27683702888518 -7.788702129792267 -16.00000000000004
    vertex 34.83427630014024 -8.001173663193077 -16.00000000000004
  endloop
endfacet
facet normal -0.8544934473280074 -0.5194621723220068 7.20898580167116e-17
  outer loop
    vertex 35.12033399244793 -8.471726547808462 -16.00000000000004
    vertex 34.83427630014024 -8.001173663193077 -15.860000000000026
    vertex 34.83427630014024 -8.001173663193077 -16.00000000000004
  endloop
endfacet
facet normal -0.8544934473280074 -0.5194621723220068 7.20898580167116e-17
  outer loop
    vertex 34.83427630014024 -8.001173663193077 -15.860000000000026
    vertex 35.12033399244793 -8.471726547808462 -16.00000000000004
    vertex 35.12033399244793 -8.471726547808462 -15.860000000000026
  endloop
endfacet
facet normal 0.5252401863363718 -0.8509540214708041 1.1809359344178207e-16
  outer loop
    vertex 35.12033399244793 -8.471726547808462 -16.00000000000004
    vertex 35.25300415945198 -8.389837630804413 -15.860000000000026
    vertex 35.12033399244793 -8.471726547808462 -15.860000000000026
  endloop
endfacet
facet normal 0.5252401863363718 -0.8509540214708041 1.1809359344178207e-16
  outer loop
    vertex 35.25300415945198 -8.389837630804413 -15.860000000000026
    vertex 35.12033399244793 -8.471726547808462 -16.00000000000004
    vertex 35.25300415945198 -8.389837630804413 -16.00000000000004
  endloop
endfacet
facet normal 0.44946950311703876 -0.8932956765638814 1.2396967848991602e-16
  outer loop
    vertex 35.25300415945198 -8.389837630804413 -16.00000000000004
    vertex 35.41572240337911 -8.307964528577694 -15.860000000000026
    vertex 35.25300415945198 -8.389837630804413 -15.860000000000026
  endloop
endfacet
facet normal 0.44946950311703876 -0.8932956765638814 1.2396967848991602e-16
  outer loop
    vertex 35.41572240337911 -8.307964528577694 -15.860000000000026
    vertex 35.25300415945198 -8.389837630804413 -16.00000000000004
    vertex 35.41572240337911 -8.307964528577694 -16.00000000000004
  endloop
endfacet
facet normal 0.34310704781672785 -0.9392963077423918 1.3035354847512503e-16
  outer loop
    vertex 35.41572240337911 -8.307964528577694 -16.00000000000004
    vertex 35.588815141233354 -8.244737048820607 -15.860000000000026
    vertex 35.41572240337911 -8.307964528577694 -15.860000000000026
  endloop
endfacet
facet normal 0.34310704781672785 -0.9392963077423918 1.3035354847512503e-16
  outer loop
    vertex 35.588815141233354 -8.244737048820607 -15.860000000000026
    vertex 35.41572240337911 -8.307964528577694 -16.00000000000004
    vertex 35.588815141233354 -8.244737048820609 -16.00000000000004
  endloop
endfacet
facet normal 0.15444299364639655 -0.9880017012705693 1.371127796399265e-16
  outer loop
    vertex 35.588815141233354 -8.244737048820609 -16.00000000000004
    vertex 35.75463308151676 -8.218816628780122 -15.860000000000026
    vertex 35.588815141233354 -8.244737048820607 -15.860000000000026
  endloop
endfacet
facet normal 0.15444299364639655 -0.9880017012705693 1.371127796399265e-16
  outer loop
    vertex 35.75463308151676 -8.218816628780122 -15.860000000000026
    vertex 35.588815141233354 -8.244737048820609 -16.00000000000004
    vertex 35.75463308151676 -8.218816628780122 -16.00000000000004
  endloop
endfacet
facet normal -0.12544795606181738 -0.9921002017537908 1.3768156084029021e-16
  outer loop
    vertex 35.75463308151676 -8.218816628780122 -16.00000000000004
    vertex 35.93498480216453 -8.241621537687005 -15.860000000000026
    vertex 35.75463308151676 -8.218816628780122 -15.860000000000026
  endloop
endfacet
facet normal -0.12544795606181738 -0.9921002017537908 1.3768156084029021e-16
  outer loop
    vertex 35.93498480216453 -8.241621537687005 -15.860000000000026
    vertex 35.75463308151676 -8.218816628780122 -16.00000000000004
    vertex 35.93498480216453 -8.241621537687005 -16.00000000000004
  endloop
endfacet
facet normal -0.4209332163156399 -0.9070916312050128 1.2588425180107457e-16
  outer loop
    vertex 35.93498480216453 -8.241621537687005 -16.00000000000004
    vertex 36.09355957443174 -8.315207696593887 -15.860000000000026
    vertex 35.93498480216453 -8.241621537687005 -15.860000000000026
  endloop
endfacet
facet normal -0.4209332163156399 -0.9070916312050128 1.2588425180107457e-16
  outer loop
    vertex 36.09355957443174 -8.315207696593887 -15.860000000000026
    vertex 35.93498480216453 -8.241621537687005 -16.00000000000004
    vertex 36.09355957443174 -8.315207696593887 -16.00000000000004
  endloop
endfacet
facet normal -0.7592306394256402 -0.6508216623294999 9.031964930537873e-17
  outer loop
    vertex 36.20549656835886 -8.445790312990647 -16.00000000000004
    vertex 36.09355957443174 -8.315207696593887 -15.860000000000026
    vertex 36.09355957443174 -8.315207696593887 -16.00000000000004
  endloop
endfacet
facet normal -0.7592306394256402 -0.6508216623294999 9.031964930537873e-17
  outer loop
    vertex 36.09355957443174 -8.315207696593887 -15.860000000000026
    vertex 36.20549656835886 -8.445790312990647 -16.00000000000004
    vertex 36.20549656835886 -8.445790312990647 -15.860000000000026
  endloop
endfacet
facet normal -0.9772681338634623 -0.21200706246497084 2.9421890266469317e-17
  outer loop
    vertex 36.24799087503902 -8.641672144974454 -16.00000000000004
    vertex 36.20549656835886 -8.445790312990647 -15.860000000000026
    vertex 36.20549656835886 -8.445790312990647 -16.00000000000004
  endloop
endfacet
facet normal -0.9772681338634623 -0.21200706246497084 2.9421890266469317e-17
  outer loop
    vertex 36.20549656835886 -8.445790312990647 -15.860000000000026
    vertex 36.24799087503902 -8.641672144974454 -16.00000000000004
    vertex 36.24799087503902 -8.641672144974454 -15.860000000000026
  endloop
endfacet
facet normal -0.9679863507031771 0.25100283833523873 -3.483364129575599e-17
  outer loop
    vertex 36.1971938102617 -8.837569791735588 -16.00000000000004
    vertex 36.24799087503902 -8.641672144974454 -15.860000000000026
    vertex 36.24799087503902 -8.641672144974454 -16.00000000000004
  endloop
endfacet
facet normal -0.9679863507031771 0.25100283833523873 -3.483364129575599e-17
  outer loop
    vertex 36.24799087503902 -8.641672144974454 -15.860000000000026
    vertex 36.1971938102617 -8.837569791735588 -16.00000000000004
    vertex 36.1971938102617 -8.837569791735588 -15.860000000000026
  endloop
endfacet
facet normal -0.7474224263256599 0.6643490924397079 -9.219695735192377e-17
  outer loop
    vertex 36.064523643257644 -8.986829660156639 -16.00000000000004
    vertex 36.1971938102617 -8.837569791735588 -15.860000000000026
    vertex 36.1971938102617 -8.837569791735588 -16.00000000000004
  endloop
endfacet
facet normal -0.7474224263256599 0.6643490924397079 -9.219695735192377e-17
  outer loop
    vertex 36.1971938102617 -8.837569791735588 -15.860000000000026
    vertex 36.064523643257644 -8.986829660156639 -16.00000000000004
    vertex 36.064523643257644 -8.986829660156639 -15.860000000000026
  endloop
endfacet
facet normal -0.5371732139529326 0.8434719546087333 -1.1705524807902508e-16
  outer loop
    vertex 36.064523643257644 -8.986829660156639 -16.00000000000004
    vertex 35.87900049042364 -9.104981861573645 -15.860000000000026
    vertex 36.064523643257644 -8.986829660156639 -15.860000000000026
  endloop
endfacet
facet normal -0.5371732139529326 0.8434719546087333 -1.1705524807902508e-16
  outer loop
    vertex 35.87900049042364 -9.104981861573645 -15.860000000000026
    vertex 36.064523643257644 -8.986829660156639 -16.00000000000004
    vertex 35.87900049042364 -9.104981861573645 -16.00000000000004
  endloop
endfacet
facet normal -0.44009073001900123 0.8979533113427128 -1.246160551613852e-16
  outer loop
    vertex 35.87900049042364 -9.104981861573645 -16.00000000000004
    vertex 35.669644468156434 -9.207588136877288 -15.860000000000026
    vertex 35.87900049042364 -9.104981861573645 -15.860000000000026
  endloop
endfacet
facet normal -0.44009073001900123 0.8979533113427128 -1.246160551613852e-16
  outer loop
    vertex 35.669644468156434 -9.207588136877288 -15.860000000000026
    vertex 35.87900049042364 -9.104981861573645 -16.00000000000004
    vertex 35.669644468156434 -9.207588136877288 -16.00000000000004
  endloop
endfacet
facet normal -0.445919767578363 0.8950729360688207 -1.242163227928057e-16
  outer loop
    vertex 35.669644468156434 -9.207588136877288 -16.00000000000004
    vertex 35.376327793055225 -9.353716679387409 -15.860000000000026
    vertex 35.669644468156434 -9.207588136877288 -15.860000000000026
  endloop
endfacet
facet normal -0.445919767578363 0.8950729360688207 -1.242163227928057e-16
  outer loop
    vertex 35.376327793055225 -9.353716679387409 -15.860000000000026
    vertex 35.669644468156434 -9.207588136877288 -16.00000000000004
    vertex 35.376327793055225 -9.353716679387409 -16.00000000000004
  endloop
endfacet
facet normal -0.5508265951780937 0.8346197110328205 -1.1582675249932902e-16
  outer loop
    vertex 35.376327793055225 -9.353716679387409 -16.00000000000004
    vertex 35.11721848131433 -9.524721866634373 -15.860000000000026
    vertex 35.376327793055225 -9.353716679387409 -15.860000000000026
  endloop
endfacet
facet normal -0.5508265951780937 0.8346197110328205 -1.1582675249932902e-16
  outer loop
    vertex 35.11721848131433 -9.524721866634373 -15.860000000000026
    vertex 35.376327793055225 -9.353716679387409 -16.00000000000004
    vertex 35.11721848131433 -9.524721866634373 -16.00000000000004
  endloop
endfacet
facet normal -0.7595109661172403 0.6504944983223582 -9.027424617868405e-17
  outer loop
    vertex 34.931695328480316 -9.741336871695102 -16.00000000000004
    vertex 35.11721848131433 -9.524721866634373 -15.860000000000026
    vertex 35.11721848131433 -9.524721866634373 -16.00000000000004
  endloop
endfacet
facet normal -0.7595109661172403 0.6504944983223582 -9.027424617868405e-17
  outer loop
    vertex 35.11721848131433 -9.524721866634373 -15.860000000000026
    vertex 34.931695328480316 -9.741336871695102 -16.00000000000004
    vertex 34.931695328480316 -9.741336871695102 -15.860000000000026
  endloop
endfacet
facet normal -0.927735444427593 0.3732384561546902 -5.1797240962310504e-17
  outer loop
    vertex 34.87884234265036 -9.87271022695826 -16.00000000000004
    vertex 34.931695328480316 -9.741336871695102 -15.860000000000026
    vertex 34.931695328480316 -9.741336871695102 -16.00000000000004
  endloop
endfacet
facet normal -0.927735444427593 0.3732384561546902 -5.1797240962310504e-17
  outer loop
    vertex 34.931695328480316 -9.741336871695102 -15.860000000000026
    vertex 34.87884234265036 -9.87271022695826 -16.00000000000004
    vertex 34.87884234265036 -9.87271022695826 -15.860000000000026
  endloop
endfacet
facet normal -0.9933137382898345 0.11544616634897052 -1.6021373998166623e-17
  outer loop
    vertex 34.86122468070704 -10.02429486764652 -16.00000000000004
    vertex 34.87884234265036 -9.87271022695826 -15.860000000000026
    vertex 34.87884234265036 -9.87271022695826 -16.00000000000004
  endloop
endfacet
facet normal -0.9933137382898345 0.11544616634897052 -1.6021373998166623e-17
  outer loop
    vertex 34.87884234265036 -9.87271022695826 -15.860000000000026
    vertex 34.86122468070704 -10.02429486764652 -16.00000000000004
    vertex 34.86122468070704 -10.02429486764652 -15.860000000000026
  endloop
endfacet
facet normal -0.9932647013420837 -0.11586730802008641 1.6079819145654382e-17
  outer loop
    vertex 34.8842865797455 -10.221991445328706 -16.00000000000004
    vertex 34.86122468070704 -10.02429486764652 -15.860000000000026
    vertex 34.86122468070704 -10.02429486764652 -16.00000000000004
  endloop
endfacet
facet normal -0.9932647013420837 -0.11586730802008641 1.6079819145654382e-17
  outer loop
    vertex 34.86122468070704 -10.02429486764652 -15.860000000000026
    vertex 34.8842865797455 -10.221991445328706 -16.00000000000004
    vertex 34.8842865797455 -10.221991445328706 -15.860000000000026
  endloop
endfacet
facet normal -0.9295122708431091 -0.3687911852960789 5.1180058149313675e-17
  outer loop
    vertex 34.953472276860886 -10.39636913384085 -16.00000000000004
    vertex 34.8842865797455 -10.221991445328706 -15.860000000000026
    vertex 34.8842865797455 -10.221991445328706 -16.00000000000004
  endloop
endfacet
facet normal -0.9295122708431091 -0.3687911852960789 5.1180058149313675e-17
  outer loop
    vertex 34.8842865797455 -10.221991445328706 -15.860000000000026
    vertex 34.953472276860886 -10.39636913384085 -16.00000000000004
    vertex 34.953472276860886 -10.39636913384085 -15.860000000000026
  endloop
endfacet
facet normal -0.8136333194657206 -0.581378380622459 8.068245802329276e-17
  outer loop
    vertex 35.06048692134469 -10.546135075136396 -16.00000000000004
    vertex 34.953472276860886 -10.39636913384085 -15.860000000000026
    vertex 34.953472276860886 -10.39636913384085 -16.00000000000004
  endloop
endfacet
facet normal -0.8136333194657206 -0.581378380622459 8.068245802329276e-17
  outer loop
    vertex 34.953472276860886 -10.39636913384085 -15.860000000000026
    vertex 35.06048692134469 -10.546135075136396 -16.00000000000004
    vertex 35.06048692134469 -10.546135075136396 -15.860000000000026
  endloop
endfacet
facet normal -0.6718589937877072 -0.7406790752185253 1.027898703957094e-16
  outer loop
    vertex 35.06048692134469 -10.546135075136396 -16.00000000000004
    vertex 35.19703566248842 -10.669996411168785 -15.860000000000026
    vertex 35.06048692134469 -10.546135075136396 -15.860000000000026
  endloop
endfacet
facet normal -0.6718589937877072 -0.7406790752185253 1.027898703957094e-16
  outer loop
    vertex 35.19703566248842 -10.669996411168785 -15.860000000000026
    vertex 35.06048692134469 -10.546135075136396 -16.00000000000004
    vertex 35.19703566248842 -10.669996411168785 -16.00000000000004
  endloop
endfacet
facet normal -0.5167481849179059 -0.8561374383730977 1.188129370406768e-16
  outer loop
    vertex 35.19703566248842 -10.669996411168785 -16.00000000000004
    vertex 35.358457094674655 -10.767427300591862 -15.860000000000026
    vertex 35.19703566248842 -10.669996411168785 -15.860000000000026
  endloop
endfacet
facet normal -0.5167481849179059 -0.8561374383730977 1.188129370406768e-16
  outer loop
    vertex 35.358457094674655 -10.767427300591862 -15.860000000000026
    vertex 35.19703566248842 -10.669996411168785 -16.00000000000004
    vertex 35.358457094674655 -10.767427300591862 -16.00000000000004
  endloop
endfacet
facet normal -0.36173125825421565 -0.9322824125777672 1.2938017498711587e-16
  outer loop
    vertex 35.358457094674655 -10.767427300591862 -16.00000000000004
    vertex 35.54008981228599 -10.837901902059475 -15.860000000000026
    vertex 35.358457094674655 -10.767427300591862 -15.860000000000026
  endloop
endfacet
facet normal -0.36173125825421565 -0.9322824125777672 1.2938017498711587e-16
  outer loop
    vertex 35.54008981228599 -10.837901902059475 -15.860000000000026
    vertex 35.358457094674655 -10.767427300591862 -16.00000000000004
    vertex 35.54008981228599 -10.837901902059475 -16.00000000000004
  endloop
endfacet
facet normal -0.14433630419884624 -0.9895286914941972 1.3732469210300765e-16
  outer loop
    vertex 35.54008981228599 -10.837901902059475 -16.00000000000004
    vertex 35.93084133050461 -10.894898359549352 -15.860000000000026
    vertex 35.54008981228599 -10.837901902059475 -15.860000000000026
  endloop
endfacet
facet normal -0.14433630419884624 -0.9895286914941972 1.3732469210300765e-16
  outer loop
    vertex 35.93084133050461 -10.894898359549352 -15.860000000000026
    vertex 35.54008981228599 -10.837901902059475 -16.00000000000004
    vertex 35.93084133050461 -10.894898359549352 -16.00000000000004
  endloop
endfacet
facet normal 0.08036029334508323 -0.9967658818666961 1.3832905402615064e-16
  outer loop
    vertex 35.93084133050461 -10.894898359549352 -16.00000000000004
    vertex 36.168687674128094 -10.875722942039232 -15.860000000000026
    vertex 35.93084133050461 -10.894898359549352 -15.860000000000026
  endloop
endfacet
facet normal 0.08036029334508323 -0.9967658818666961 1.3832905402615064e-16
  outer loop
    vertex 36.168687674128094 -10.875722942039232 -15.860000000000026
    vertex 35.93084133050461 -10.894898359549352 -16.00000000000004
    vertex 36.168687674128094 -10.875722942039232 -16.00000000000004
  endloop
endfacet
facet normal 0.24410643064742873 -0.9697484470297295 1.3457963174836187e-16
  outer loop
    vertex 36.168687674128094 -10.875722942039232 -16.00000000000004
    vertex 36.39721911390542 -10.818196689508866 -15.860000000000026
    vertex 36.168687674128094 -10.875722942039232 -15.860000000000026
  endloop
endfacet
facet normal 0.24410643064742873 -0.9697484470297295 1.3457963174836187e-16
  outer loop
    vertex 36.39721911390542 -10.818196689508866 -15.860000000000026
    vertex 36.168687674128094 -10.875722942039232 -16.00000000000004
    vertex 36.39721911390542 -10.818196689508866 -16.00000000000004
  endloop
endfacet
facet normal 0.39135046924182226 -0.9202417129342735 1.2770919224001554e-16
  outer loop
    vertex 36.39721911390542 -10.818196689508866 -16.00000000000004
    vertex 36.62265085732648 -10.722327509346924 -15.860000000000026
    vertex 36.39721911390542 -10.818196689508866 -15.860000000000026
  endloop
endfacet
facet normal 0.39135046924182226 -0.9202417129342735 1.2770919224001554e-16
  outer loop
    vertex 36.62265085732648 -10.722327509346924 -15.860000000000026
    vertex 36.39721911390542 -10.818196689508866 -16.00000000000004
    vertex 36.62265085732648 -10.722327509346924 -16.00000000000004
  endloop
endfacet
facet normal 0.5063602325871929 -0.8623220482245854 1.196712240726074e-16
  outer loop
    vertex 36.62265085732648 -10.722327509346924 -16.00000000000004
    vertex 36.85119811188113 -10.588123308942064 -15.860000000000026
    vertex 36.62265085732648 -10.722327509346924 -15.860000000000026
  endloop
endfacet
facet normal 0.5063602325871929 -0.8623220482245854 1.196712240726074e-16
  outer loop
    vertex 36.85119811188113 -10.588123308942064 -15.860000000000026
    vertex 36.62265085732648 -10.722327509346924 -16.00000000000004
    vertex 36.85119811188113 -10.588123308942064 -16.00000000000004
  endloop
endfacet
facet normal 0.7864578443706125 0.6176439581408771 -8.57153179185773e-17
  outer loop
    vertex 36.85119811188113 -10.588123308942064 -15.860000000000026
    vertex 36.54024796005927 -10.192184543759879 -16.00000000000004
    vertex 36.54024796005927 -10.192184543759879 -15.860000000000026
  endloop
endfacet
facet normal 0.7864578443706125 0.6176439581408771 -8.57153179185773e-17
  outer loop
    vertex 36.54024796005927 -10.192184543759879 -16.00000000000004
    vertex 36.85119811188113 -10.588123308942064 -15.860000000000026
    vertex 36.85119811188113 -10.588123308942064 -16.00000000000004
  endloop
endfacet
facet normal -1.7849589699048565e-16 1.0 -1.9428902930940242e-16
  outer loop
    vertex 40.58427630014023 -14.399999999999988 -15.860000000000026
    vertex 29.084276300140232 -14.39999999999999 -16.00000000000003
    vertex 29.084276300140232 -14.39999999999999 -15.860000000000026
  endloop
endfacet
facet normal -1.7849589699048565e-16 1.0 -1.9428902930940242e-16
  outer loop
    vertex 29.084276300140232 -14.39999999999999 -16.00000000000003
    vertex 40.58427630014023 -14.399999999999988 -15.860000000000026
    vertex 40.58427630014023 -14.399999999999988 -16.00000000000003
  endloop
endfacet
facet normal 1.7849589699048565e-16 -1.0 1.9428902930940242e-16
  outer loop
    vertex 40.58427630014023 -15.199999999999989 -16.00000000000003
    vertex 29.084276300140232 -15.199999999999989 -15.860000000000026
    vertex 29.084276300140232 -15.199999999999989 -16.00000000000003
  endloop
endfacet
facet normal 1.7849589699048565e-16 -1.0 1.9428902930940242e-16
  outer loop
    vertex 29.084276300140232 -15.199999999999989 -15.860000000000026
    vertex 40.58427630014023 -15.199999999999989 -16.00000000000003
    vertex 40.58427630014023 -15.199999999999989 -15.860000000000026
  endloop
endfacet
facet normal -1.0 -1.7849589699048565e-16 3.247500160754362e-32
  outer loop
    vertex 29.084276300140232 -15.199999999999989 -15.860000000000026
    vertex 29.084276300140232 -14.39999999999999 -16.00000000000003
    vertex 29.084276300140232 -15.199999999999989 -16.00000000000003
  endloop
endfacet
facet normal -1.0 -1.7849589699048565e-16 3.247500160754362e-32
  outer loop
    vertex 29.084276300140232 -14.39999999999999 -16.00000000000003
    vertex 29.084276300140232 -15.199999999999989 -15.860000000000026
    vertex 29.084276300140232 -14.39999999999999 -15.860000000000026
  endloop
endfacet
facet normal 2.204792954448923e-33 -1.9428902930940242e-16 -1.0
  outer loop
    vertex 40.58427630014023 -15.199999999999989 -16.00000000000003
    vertex 29.084276300140232 -14.39999999999999 -16.00000000000003
    vertex 40.58427630014023 -14.399999999999988 -16.00000000000003
  endloop
endfacet
facet normal 2.204792954448923e-33 -1.9428902930940242e-16 -1.0
  outer loop
    vertex 29.084276300140232 -14.39999999999999 -16.00000000000003
    vertex 40.58427630014023 -15.199999999999989 -16.00000000000003
    vertex 29.084276300140232 -15.199999999999989 -16.00000000000003
  endloop
endfacet
facet normal 1.0 1.7849589699048565e-16 -3.247500160754362e-32
  outer loop
    vertex 40.58427630014023 -14.399999999999988 -15.860000000000026
    vertex 40.58427630014023 -15.199999999999989 -16.00000000000003
    vertex 40.58427630014023 -14.399999999999988 -16.00000000000003
  endloop
endfacet
facet normal 1.0 1.7849589699048565e-16 -3.247500160754362e-32
  outer loop
    vertex 40.58427630014023 -15.199999999999989 -16.00000000000003
    vertex 40.58427630014023 -14.399999999999988 -15.860000000000026
    vertex 40.58427630014023 -15.199999999999989 -15.860000000000026
  endloop
endfacet
facet normal -2.204792954448923e-33 1.9428902930940242e-16 1.0
  outer loop
    vertex 29.084276300140232 -15.199999999999989 -15.860000000000026
    vertex 40.58427630014023 -14.399999999999988 -15.860000000000026
    vertex 29.084276300140232 -14.39999999999999 -15.860000000000026
  endloop
endfacet
facet normal -2.204792954448923e-33 1.9428902930940242e-16 1.0
  outer loop
    vertex 40.58427630014023 -14.399999999999988 -15.860000000000026
    vertex 29.084276300140232 -15.199999999999989 -15.860000000000026
    vertex 40.58427630014023 -15.199999999999989 -15.860000000000026
  endloop
endfacet
facet normal -1.7849589699048565e-16 1.0 -1.9428902930940242e-16
  outer loop
    vertex 40.584276300140225 -15.799999999999988 -15.860000000000026
    vertex 29.084276300140232 -15.79999999999999 -16.00000000000003
    vertex 29.084276300140232 -15.79999999999999 -15.860000000000026
  endloop
endfacet
facet normal -1.7849589699048565e-16 1.0 -1.9428902930940242e-16
  outer loop
    vertex 29.084276300140232 -15.79999999999999 -16.00000000000003
    vertex 40.584276300140225 -15.799999999999988 -15.860000000000026
    vertex 40.584276300140225 -15.799999999999988 -16.00000000000003
  endloop
endfacet
facet normal -1.0 -1.7849589699048565e-16 3.247500160754362e-32
  outer loop
    vertex 29.084276300140232 -16.59999999999999 -15.860000000000026
    vertex 29.084276300140232 -15.79999999999999 -16.00000000000003
    vertex 29.084276300140232 -16.59999999999999 -16.00000000000003
  endloop
endfacet
facet normal -1.0 -1.7849589699048565e-16 3.247500160754362e-32
  outer loop
    vertex 29.084276300140232 -15.79999999999999 -16.00000000000003
    vertex 29.084276300140232 -16.59999999999999 -15.860000000000026
    vertex 29.084276300140232 -15.79999999999999 -15.860000000000026
  endloop
endfacet
facet normal 1.0 1.7849589699048565e-16 -3.247500160754362e-32
  outer loop
    vertex 40.584276300140225 -15.799999999999988 -15.860000000000026
    vertex 40.584276300140225 -16.59999999999999 -16.00000000000003
    vertex 40.584276300140225 -15.799999999999988 -16.00000000000003
  endloop
endfacet
facet normal 1.0 1.7849589699048565e-16 -3.247500160754362e-32
  outer loop
    vertex 40.584276300140225 -16.59999999999999 -16.00000000000003
    vertex 40.584276300140225 -15.799999999999988 -15.860000000000026
    vertex 40.584276300140225 -16.59999999999999 -15.860000000000026
  endloop
endfacet
facet normal 1.7849589699048565e-16 -1.0 1.9428902930940242e-16
  outer loop
    vertex 40.584276300140225 -16.59999999999999 -16.00000000000003
    vertex 29.084276300140232 -16.59999999999999 -15.860000000000026
    vertex 29.084276300140232 -16.59999999999999 -16.00000000000003
  endloop
endfacet
facet normal 1.7849589699048565e-16 -1.0 1.9428902930940242e-16
  outer loop
    vertex 29.084276300140232 -16.59999999999999 -15.860000000000026
    vertex 40.584276300140225 -16.59999999999999 -16.00000000000003
    vertex 40.584276300140225 -16.59999999999999 -15.860000000000026
  endloop
endfacet
facet normal 2.204792954448923e-33 -1.9428902930940242e-16 -1.0
  outer loop
    vertex 40.584276300140225 -16.59999999999999 -16.00000000000003
    vertex 29.084276300140232 -15.79999999999999 -16.00000000000003
    vertex 40.584276300140225 -15.799999999999988 -16.00000000000003
  endloop
endfacet
facet normal 2.204792954448923e-33 -1.9428902930940242e-16 -1.0
  outer loop
    vertex 29.084276300140232 -15.79999999999999 -16.00000000000003
    vertex 40.584276300140225 -16.59999999999999 -16.00000000000003
    vertex 29.084276300140232 -16.59999999999999 -16.00000000000003
  endloop
endfacet
facet normal -2.204792954448923e-33 1.9428902930940242e-16 1.0
  outer loop
    vertex 29.084276300140232 -16.59999999999999 -15.860000000000026
    vertex 40.584276300140225 -15.799999999999988 -15.860000000000026
    vertex 29.084276300140232 -15.79999999999999 -15.860000000000026
  endloop
endfacet
facet normal -2.204792954448923e-33 1.9428902930940242e-16 1.0
  outer loop
    vertex 40.584276300140225 -15.799999999999988 -15.860000000000026
    vertex 29.084276300140232 -16.59999999999999 -15.860000000000026
    vertex 40.584276300140225 -16.59999999999999 -15.860000000000026
  endloop
endfacet
facet normal 2.204792954448923e-33 -1.9428902930940242e-16 -1.0
  outer loop
    vertex 40.58427630014023 -13.799999999999988 -16.00000000000003
    vertex 29.084276300140232 -12.999999999999991 -16.00000000000003
    vertex 40.58427630014023 -12.999999999999988 -16.00000000000003
  endloop
endfacet
facet normal 2.204792954448923e-33 -1.9428902930940242e-16 -1.0
  outer loop
    vertex 29.084276300140232 -12.999999999999991 -16.00000000000003
    vertex 40.58427630014023 -13.799999999999988 -16.00000000000003
    vertex 29.084276300140232 -13.799999999999992 -16.00000000000003
  endloop
endfacet
facet normal 1.7849589699048565e-16 -1.0 1.9428902930940242e-16
  outer loop
    vertex 40.58427630014023 -13.799999999999988 -16.00000000000003
    vertex 29.084276300140232 -13.799999999999992 -15.860000000000026
    vertex 29.084276300140232 -13.799999999999992 -16.00000000000003
  endloop
endfacet
facet normal 1.7849589699048565e-16 -1.0 1.9428902930940242e-16
  outer loop
    vertex 29.084276300140232 -13.799999999999992 -15.860000000000026
    vertex 40.58427630014023 -13.799999999999988 -16.00000000000003
    vertex 40.58427630014023 -13.799999999999988 -15.860000000000026
  endloop
endfacet
facet normal -1.0 -1.7849589699048565e-16 3.247500160754362e-32
  outer loop
    vertex 29.084276300140232 -13.799999999999992 -15.860000000000026
    vertex 29.084276300140232 -12.999999999999991 -16.00000000000003
    vertex 29.084276300140232 -13.799999999999992 -16.00000000000003
  endloop
endfacet
facet normal -1.0 -1.7849589699048565e-16 3.247500160754362e-32
  outer loop
    vertex 29.084276300140232 -12.999999999999991 -16.00000000000003
    vertex 29.084276300140232 -13.799999999999992 -15.860000000000026
    vertex 29.084276300140232 -12.999999999999991 -15.860000000000026
  endloop
endfacet
facet normal -1.7849589699048565e-16 1.0 -1.9428902930940242e-16
  outer loop
    vertex 40.58427630014023 -12.999999999999988 -15.860000000000026
    vertex 29.084276300140232 -12.999999999999991 -16.00000000000003
    vertex 29.084276300140232 -12.999999999999991 -15.860000000000026
  endloop
endfacet
facet normal -1.7849589699048565e-16 1.0 -1.9428902930940242e-16
  outer loop
    vertex 29.084276300140232 -12.999999999999991 -16.00000000000003
    vertex 40.58427630014023 -12.999999999999988 -15.860000000000026
    vertex 40.58427630014023 -12.999999999999988 -16.00000000000003
  endloop
endfacet
facet normal 1.0 1.7849589699048565e-16 -3.247500160754362e-32
  outer loop
    vertex 40.58427630014023 -12.999999999999988 -15.860000000000026
    vertex 40.58427630014023 -13.799999999999988 -16.00000000000003
    vertex 40.58427630014023 -12.999999999999988 -16.00000000000003
  endloop
endfacet
facet normal 1.0 1.7849589699048565e-16 -3.247500160754362e-32
  outer loop
    vertex 40.58427630014023 -13.799999999999988 -16.00000000000003
    vertex 40.58427630014023 -12.999999999999988 -15.860000000000026
    vertex 40.58427630014023 -13.799999999999988 -15.860000000000026
  endloop
endfacet
facet normal -2.204792954448923e-33 1.9428902930940242e-16 1.0
  outer loop
    vertex 29.084276300140232 -13.799999999999992 -15.860000000000026
    vertex 40.58427630014023 -12.999999999999988 -15.860000000000026
    vertex 29.084276300140232 -12.999999999999991 -15.860000000000026
  endloop
endfacet
facet normal -2.204792954448923e-33 1.9428902930940242e-16 1.0
  outer loop
    vertex 40.58427630014023 -12.999999999999988 -15.860000000000026
    vertex 29.084276300140232 -13.799999999999992 -15.860000000000026
    vertex 40.58427630014023 -13.799999999999988 -15.860000000000026
  endloop
endfacet
endsolid Korry19x16_button_V5
