solid Korry19x16_button_V5
facet normal -6.852082430796095e-30 1.0 -6.98011505581164e-15
  outer loop
    vertex 84.79075035582666 1.4500000000000057 12.999999999999998
    vertex 96.29075035582667 1.45000000000002 15.019999999999984
    vertex 96.29075035582667 1.4500000000000057 12.999999999999993
  endloop
endfacet
facet normal -6.852082430796095e-30 1.0 -6.98011505581164e-15
  outer loop
    vertex 96.29075035582667 1.45000000000002 15.019999999999984
    vertex 84.79075035582666 1.4500000000000057 12.999999999999998
    vertex 84.79075035582666 1.45000000000002 15.020000000000001
  endloop
endfacet
facet normal 4.197152927613403e-46 -1.0 1.7450287639529e-15
  outer loop
    vertex 96.29075035582667 -3.299999999999992 15.020000000000001
    vertex 84.79075035582666 -3.2999999999999954 12.999999999999993
    vertex 96.29075035582667 -3.2999999999999954 12.999999999999993
  endloop
endfacet
facet normal 4.197152927613403e-46 -1.0 1.7450287639529e-15
  outer loop
    vertex 84.79075035582666 -3.2999999999999954 12.999999999999993
    vertex 96.29075035582667 -3.299999999999992 15.020000000000001
    vertex 84.79075035582666 -3.299999999999992 15.020000000000001
  endloop
endfacet
facet normal 1.0 0.0 0.0
  outer loop
    vertex 96.29075035582667 1.4500000000000057 12.999999999999993
    vertex 96.29075035582667 -3.299999999999992 15.020000000000001
    vertex 96.29075035582667 -3.2999999999999954 12.999999999999993
  endloop
endfacet
facet normal 1.0 0.0 0.0
  outer loop
    vertex 96.29075035582667 -3.299999999999992 15.020000000000001
    vertex 96.29075035582667 1.4500000000000057 12.999999999999993
    vertex 96.29075035582667 1.45000000000002 15.019999999999984
  endloop
endfacet
facet normal 7.356434302298855e-16 1.7810314626618255e-15 1.0
  outer loop
    vertex 84.79075035582666 -3.299999999999992 15.020000000000001
    vertex 86.88817031393313 -2.4180232922870344 15.020000000000005
    vertex 84.79075035582666 1.45000000000002 15.020000000000001
  endloop
endfacet
facet normal 7.356434302298855e-16 1.7810314626618255e-15 1.0
  outer loop
    vertex 86.88817031393313 -2.4180232922870344 15.020000000000005
    vertex 84.79075035582666 -3.299999999999992 15.020000000000001
    vertex 96.29075035582667 -3.299999999999992 15.020000000000001
  endloop
endfacet
facet normal 7.356434302298855e-16 1.7810314626618255e-15 1.0
  outer loop
    vertex 84.79075035582666 1.45000000000002 15.020000000000001
    vertex 86.88817031393313 -2.4180232922870344 15.020000000000005
    vertex 86.1191293220303 0.6747145619639792 15.020000000000001
  endloop
endfacet
facet normal 7.356434302298855e-16 1.7810314626618255e-15 1.0
  outer loop
    vertex 86.88817031393313 -2.4180232922870344 15.020000000000005
    vertex 96.29075035582667 -3.299999999999992 15.020000000000001
    vertex 87.62403190300196 -2.4180232922870335 15.020000000000001
  endloop
endfacet
facet normal 7.356434302298855e-16 1.7810314626618255e-15 1.0
  outer loop
    vertex 87.62403190300196 -2.4180232922870335 15.020000000000001
    vertex 96.29075035582667 -3.299999999999992 15.020000000000001
    vertex 88.39721636656472 -2.418023292287033 15.020000000000001
  endloop
endfacet
facet normal 7.356434302298855e-16 1.7810314626618255e-15 1.0
  outer loop
    vertex 87.62403190300196 -2.4180232922870335 15.020000000000001
    vertex 88.39721636656472 -2.418023292287033 15.020000000000001
    vertex 87.8769418220303 -1.3815860453234705 15.019999999999998
  endloop
endfacet
facet normal 7.356434302298855e-16 1.7810314626618255e-15 1.0
  outer loop
    vertex 87.8769418220303 -1.3815860453234705 15.019999999999998
    vertex 88.39721636656472 -2.418023292287033 15.020000000000001
    vertex 88.13810705482382 -1.3815860453234705 15.020000000000001
  endloop
endfacet
facet normal 7.356434302298855e-16 1.7810314626618255e-15 1.0
  outer loop
    vertex 87.8769418220303 -1.3815860453234705 15.019999999999998
    vertex 88.13810705482382 -1.3815860453234705 15.020000000000001
    vertex 88.04483149814368 -0.40733250281334965 15.019999999999998
  endloop
endfacet
facet normal 7.356434302298855e-16 1.7810314626618255e-15 1.0
  outer loop
    vertex 88.39721636656472 -2.418023292287033 15.020000000000001
    vertex 96.29075035582667 -3.299999999999992 15.020000000000001
    vertex 89.13307795563354 -2.41802329228703 15.020000000000001
  endloop
endfacet
facet normal 7.356434302298855e-16 1.7810314626618255e-15 1.0
  outer loop
    vertex 89.13307795563354 -2.41802329228703 15.020000000000001
    vertex 96.29075035582667 -3.299999999999992 15.020000000000001
    vertex 90.29884845158496 -2.4180232922870335 15.019999999999998
  endloop
endfacet
facet normal 7.356434302298855e-16 1.7810314626618255e-15 1.0
  outer loop
    vertex 89.13307795563354 -2.41802329228703 15.020000000000001
    vertex 90.29884845158496 -2.4180232922870335 15.019999999999998
    vertex 89.9062624191963 0.691288448603656 15.019999999999996
  endloop
endfacet
facet normal 7.356434302298855e-16 1.7810314626618255e-15 1.0
  outer loop
    vertex 89.9062624191963 0.691288448603656 15.019999999999996
    vertex 90.29884845158496 -2.4180232922870335 15.019999999999998
    vertex 90.22009086049184 0.6456786307898894 15.019999999999996
  endloop
endfacet
facet normal 7.356434302298855e-16 1.7810314626618255e-15 1.0
  outer loop
    vertex 90.22009086049184 0.6456786307898894 15.019999999999996
    vertex 90.29884845158496 -2.4180232922870335 15.019999999999998
    vertex 90.29884845158496 0.1979306550813874 15.019999999999996
  endloop
endfacet
facet normal 7.356434302298855e-16 1.7810314626618255e-15 1.0
  outer loop
    vertex 90.29884845158496 -2.4180232922870335 15.019999999999998
    vertex 96.29075035582667 -3.299999999999992 15.020000000000001
    vertex 91.02642309733395 -2.4180232922870335 15.019999999999998
  endloop
endfacet
facet normal 7.356434302298855e-16 1.7810314626618255e-15 1.0
  outer loop
    vertex 91.02642309733395 -2.4180232922870335 15.019999999999998
    vertex 96.29075035582667 -3.299999999999992 15.020000000000001
    vertex 93.38371054672666 -2.4180232922870335 15.019999999999998
  endloop
endfacet
facet normal 7.356434302298855e-16 1.7810314626618255e-15 1.0
  outer loop
    vertex 91.02642309733395 -2.4180232922870335 15.019999999999998
    vertex 93.38371054672666 -2.4180232922870335 15.019999999999998
    vertex 91.02642309733395 -1.1888039096959397 15.019999999999998
  endloop
endfacet
facet normal 7.356434302298855e-16 1.7810314626618255e-15 1.0
  outer loop
    vertex 91.02642309733395 -1.1888039096959397 15.019999999999998
    vertex 93.38371054672666 -2.4180232922870335 15.019999999999998
    vertex 91.58196459530966 -1.122476733582579 15.019999999999998
  endloop
endfacet
facet normal 7.356434302298855e-16 1.7810314626618255e-15 1.0
  outer loop
    vertex 91.58196459530966 -1.122476733582579 15.019999999999998
    vertex 93.38371054672666 -2.4180232922870335 15.019999999999998
    vertex 91.8149083579615 -1.0507132277627274 15.019999999999998
  endloop
endfacet
facet normal 7.356434302298855e-16 1.7810314626618255e-15 1.0
  outer loop
    vertex 91.8149083579615 -1.0507132277627274 15.019999999999998
    vertex 93.38371054672666 -2.4180232922870335 15.019999999999998
    vertex 92.01209490907486 -0.9473280746756837 15.019999999999998
  endloop
endfacet
facet normal 7.356434302298855e-16 1.7810314626618255e-15 1.0
  outer loop
    vertex 92.01209490907486 -0.9473280746756837 15.019999999999998
    vertex 93.38371054672666 -2.4180232922870335 15.019999999999998
    vertex 92.17093062516795 -0.8102534921858182 15.019999999999998
  endloop
endfacet
facet normal 7.356434302298855e-16 1.7810314626618255e-15 1.0
  outer loop
    vertex 92.17093062516795 -0.8102534921858182 15.019999999999998
    vertex 93.38371054672666 -2.4180232922870335 15.019999999999998
    vertex 92.28882188275905 -0.6374216981574761 15.019999999999996
  endloop
endfacet
facet normal 7.356434302298855e-16 1.7810314626618255e-15 1.0
  outer loop
    vertex 92.28882188275905 -0.6374216981574761 15.019999999999996
    vertex 93.38371054672666 -2.4180232922870335 15.019999999999998
    vertex 92.36188615401412 -0.4244322307991833 15.019999999999998
  endloop
endfacet
facet normal 7.356434302298855e-16 1.7810314626618255e-15 1.0
  outer loop
    vertex 92.36188615401412 -0.4244322307991833 15.019999999999998
    vertex 93.38371054672666 -2.4180232922870335 15.019999999999998
    vertex 92.38624091109912 -0.1668846283194211 15.019999999999996
  endloop
endfacet
facet normal 7.356434302298855e-16 1.7810314626618255e-15 1.0
  outer loop
    vertex 92.38624091109912 -0.1668846283194211 15.019999999999996
    vertex 93.38371054672666 -2.4180232922870335 15.019999999999998
    vertex 92.56700381595743 0.21867964293563807 15.019999999999996
  endloop
endfacet
facet normal 7.356434302298855e-16 1.7810314626618255e-15 1.0
  outer loop
    vertex 93.38371054672666 -2.4180232922870335 15.019999999999998
    vertex 96.29075035582667 -3.299999999999992 15.020000000000001
    vertex 94.11128519247565 -2.4180232922870335 15.019999999999996
  endloop
endfacet
facet normal 7.356434302298855e-16 1.7810314626618255e-15 1.0
  outer loop
    vertex 94.11128519247565 -2.4180232922870335 15.019999999999996
    vertex 96.29075035582667 -3.299999999999992 15.020000000000001
    vertex 94.11128519247565 0.21867964293563807 15.019999999999992
  endloop
endfacet
facet normal 7.356434302298855e-16 1.7810314626618255e-15 1.0
  outer loop
    vertex 94.11128519247565 0.21867964293563807 15.019999999999992
    vertex 96.29075035582667 -3.299999999999992 15.020000000000001
    vertex 94.91970497992504 0.21867964293563807 15.019999999999992
  endloop
endfacet
facet normal 7.356434302298855e-16 1.7810314626618255e-15 1.0
  outer loop
    vertex 94.91970497992504 0.21867964293563807 15.019999999999992
    vertex 96.29075035582667 -3.299999999999992 15.020000000000001
    vertex 94.91970497992504 0.6912884486036546 15.01999999999999
  endloop
endfacet
facet normal 7.356434302298855e-16 1.7810314626618255e-15 1.0
  outer loop
    vertex 84.79075035582666 1.45000000000002 15.020000000000001
    vertex 86.80318170057282 0.7451852097372575 15.019999999999996
    vertex 96.29075035582667 1.45000000000002 15.019999999999984
  endloop
endfacet
facet normal 7.356434302298855e-16 1.7810314626618255e-15 1.0
  outer loop
    vertex 86.80318170057282 0.7451852097372575 15.019999999999996
    vertex 84.79075035582666 1.45000000000002 15.020000000000001
    vertex 86.1191293220303 0.6747145619639792 15.020000000000001
  endloop
endfacet
facet normal 7.356434302298855e-16 1.7810314626618255e-15 1.0
  outer loop
    vertex 96.29075035582667 1.45000000000002 15.019999999999984
    vertex 86.80318170057282 0.7451852097372575 15.019999999999996
    vertex 87.7359688969291 0.6912884486036546 15.019999999999996
  endloop
endfacet
facet normal 7.356434302298855e-16 1.7810314626618255e-15 1.0
  outer loop
    vertex 87.7359688969291 0.6912884486036546 15.019999999999996
    vertex 86.80318170057282 0.7451852097372575 15.019999999999996
    vertex 87.14727962567403 -0.6353499623275202 15.020000000000001
  endloop
endfacet
facet normal 7.356434302298855e-16 1.7810314626618255e-15 1.0
  outer loop
    vertex 87.7359688969291 0.6912884486036546 15.019999999999996
    vertex 87.14727962567403 -0.6353499623275202 15.020000000000001
    vertex 87.4084764880222 -0.6249754684003928 15.019999999999998
  endloop
endfacet
facet normal 7.356434302298855e-16 1.7810314626618255e-15 1.0
  outer loop
    vertex 87.4084764880222 -0.6249754684003928 15.019999999999998
    vertex 87.14727962567403 -0.6353499623275202 15.020000000000001
    vertex 87.31516930178738 -1.6324084137445223 15.020000000000001
  endloop
endfacet
facet normal 7.356434302298855e-16 1.7810314626618255e-15 1.0
  outer loop
    vertex 96.29075035582667 1.45000000000002 15.019999999999984
    vertex 87.7359688969291 0.6912884486036546 15.019999999999996
    vertex 88.32465816818414 0.691288448603656 15.019999999999996
  endloop
endfacet
facet normal 7.356434302298855e-16 1.7810314626618255e-15 1.0
  outer loop
    vertex 96.29075035582667 1.45000000000002 15.019999999999984
    vertex 88.32465816818414 0.691288448603656 15.019999999999996
    vertex 89.24501494956067 0.6912884486036546 15.019999999999996
  endloop
endfacet
facet normal 7.356434302298855e-16 1.7810314626618255e-15 1.0
  outer loop
    vertex 89.24501494956067 0.6912884486036546 15.019999999999996
    vertex 88.32465816818414 0.691288448603656 15.019999999999996
    vertex 88.65218220664569 -0.6270630190076804 15.019999999999996
  endloop
endfacet
facet normal 7.356434302298855e-16 1.7810314626618255e-15 1.0
  outer loop
    vertex 89.24501494956067 0.6912884486036546 15.019999999999996
    vertex 88.65218220664569 -0.6270630190076804 15.019999999999996
    vertex 88.91543499004649 -0.6312064906675999 15.019999999999998
  endloop
endfacet
facet normal 7.356434302298855e-16 1.7810314626618255e-15 1.0
  outer loop
    vertex 88.91543499004649 -0.6312064906675999 15.019999999999998
    vertex 88.65218220664569 -0.6270630190076804 15.019999999999996
    vertex 88.82215943336634 -1.6531257720441186 15.020000000000001
  endloop
endfacet
facet normal 7.356434302298855e-16 1.7810314626618255e-15 1.0
  outer loop
    vertex 96.29075035582667 1.45000000000002 15.019999999999984
    vertex 89.24501494956067 0.6912884486036546 15.019999999999996
    vertex 89.9062624191963 0.691288448603656 15.019999999999996
  endloop
endfacet
facet normal 7.356434302298855e-16 1.7810314626618255e-15 1.0
  outer loop
    vertex 96.29075035582667 1.45000000000002 15.019999999999984
    vertex 89.9062624191963 0.691288448603656 15.019999999999996
    vertex 90.42944688275904 0.6736707866603325 15.019999999999996
  endloop
endfacet
facet normal 7.356434302298855e-16 1.7810314626618255e-15 1.0
  outer loop
    vertex 90.42944688275904 0.6736707866603325 15.019999999999996
    vertex 89.9062624191963 0.691288448603656 15.019999999999996
    vertex 90.22009086049184 0.6456786307898894 15.019999999999996
  endloop
endfacet
facet normal 7.356434302298855e-16 1.7810314626618255e-15 1.0
  outer loop
    vertex 96.29075035582667 1.45000000000002 15.019999999999984
    vertex 90.42944688275904 0.6736707866603325 15.019999999999996
    vertex 90.66367954976309 0.695431920263572 15.019999999999996
  endloop
endfacet
facet normal 7.356434302298855e-16 1.7810314626618255e-15 1.0
  outer loop
    vertex 96.29075035582667 1.45000000000002 15.019999999999984
    vertex 90.66367954976309 0.695431920263572 15.019999999999996
    vertex 90.89065323397364 0.7089061105469753 15.019999999999996
  endloop
endfacet
facet normal 7.356434302298855e-16 1.7810314626618255e-15 1.0
  outer loop
    vertex 96.29075035582667 1.45000000000002 15.019999999999984
    vertex 90.89065323397364 0.7089061105469753 15.019999999999996
    vertex 91.08031985846758 0.7140933575105352 15.019999999999996
  endloop
endfacet
facet normal 7.356434302298855e-16 1.7810314626618255e-15 1.0
  outer loop
    vertex 96.29075035582667 1.45000000000002 15.019999999999984
    vertex 91.08031985846758 0.7140933575105352 15.019999999999996
    vertex 91.57367765198981 0.6695273150004123 15.019999999999992
  endloop
endfacet
facet normal 7.356434302298855e-16 1.7810314626618255e-15 1.0
  outer loop
    vertex 96.29075035582667 1.45000000000002 15.019999999999984
    vertex 91.57367765198981 0.6695273150004123 15.019999999999992
    vertex 91.79598993058293 0.6104512142919122 15.019999999999992
  endloop
endfacet
facet normal 7.356434302298855e-16 1.7810314626618255e-15 1.0
  outer loop
    vertex 96.29075035582667 1.45000000000002 15.019999999999984
    vertex 91.79598993058293 0.6104512142919122 15.019999999999992
    vertex 92.56700381595743 0.6912884486036546 15.019999999999992
  endloop
endfacet
facet normal 7.356434302298855e-16 1.7810314626618255e-15 1.0
  outer loop
    vertex 92.56700381595743 0.6912884486036546 15.019999999999992
    vertex 91.79598993058293 0.6104512142919122 15.019999999999992
    vertex 91.99031796069431 0.5223549971866293 15.019999999999992
  endloop
endfacet
facet normal 7.356434302298855e-16 1.7810314626618255e-15 1.0
  outer loop
    vertex 92.56700381595743 0.6912884486036546 15.019999999999992
    vertex 91.99031796069431 0.5223549971866293 15.019999999999992
    vertex 92.15251827066392 0.4031629741603391 15.019999999999996
  endloop
endfacet
facet normal 7.356434302298855e-16 1.7810314626618255e-15 1.0
  outer loop
    vertex 92.56700381595743 0.6912884486036546 15.019999999999992
    vertex 92.15251827066392 0.4031629741603391 15.019999999999996
    vertex 92.27844738883194 0.25079945568867756 15.019999999999996
  endloop
endfacet
facet normal 7.356434302298855e-16 1.7810314626618255e-15 1.0
  outer loop
    vertex 92.56700381595743 0.6912884486036546 15.019999999999992
    vertex 92.27844738883194 0.25079945568867756 15.019999999999996
    vertex 92.35929253053234 0.061903801589487224 15.019999999999992
  endloop
endfacet
facet normal 7.356434302298855e-16 1.7810314626618255e-15 1.0
  outer loop
    vertex 92.56700381595743 0.6912884486036546 15.019999999999992
    vertex 92.35929253053234 0.061903801589487224 15.019999999999992
    vertex 92.38624091109912 -0.1668846283194211 15.019999999999996
  endloop
endfacet
facet normal 7.356434302298855e-16 1.7810314626618255e-15 1.0
  outer loop
    vertex 92.56700381595743 0.6912884486036546 15.019999999999992
    vertex 92.38624091109912 -0.1668846283194211 15.019999999999996
    vertex 92.56700381595743 0.21867964293563807 15.019999999999996
  endloop
endfacet
facet normal 7.356434302298855e-16 1.7810314626618255e-15 1.0
  outer loop
    vertex 96.29075035582667 1.45000000000002 15.019999999999984
    vertex 92.56700381595743 0.6912884486036546 15.019999999999992
    vertex 94.91970497992504 0.6912884486036546 15.01999999999999
  endloop
endfacet
facet normal 7.356434302298855e-16 1.7810314626618255e-15 1.0
  outer loop
    vertex 96.29075035582667 1.45000000000002 15.019999999999984
    vertex 94.91970497992504 0.6912884486036546 15.01999999999999
    vertex 96.29075035582667 -3.299999999999992 15.020000000000001
  endloop
endfacet
facet normal 7.356434302298855e-16 1.7810314626618255e-15 1.0
  outer loop
    vertex 93.38371054672666 0.21867964293563807 15.019999999999996
    vertex 92.56700381595743 0.21867964293563807 15.019999999999996
    vertex 93.38371054672666 -2.4180232922870335 15.019999999999998
  endloop
endfacet
facet normal -1.0 0.0 0.0
  outer loop
    vertex 84.79075035582666 -3.299999999999992 15.020000000000001
    vertex 84.79075035582666 1.4500000000000057 12.999999999999998
    vertex 84.79075035582666 -3.2999999999999954 12.999999999999993
  endloop
endfacet
facet normal -1.0 0.0 0.0
  outer loop
    vertex 84.79075035582666 1.4500000000000057 12.999999999999998
    vertex 84.79075035582666 -3.299999999999992 15.020000000000001
    vertex 84.79075035582666 1.45000000000002 15.020000000000001
  endloop
endfacet
facet normal 1.7238812036542675e-15 2.059956864257663e-15 1.0
  outer loop
    vertex 91.02642309733395 -0.07566499269188992 15.019999999999996
    vertex 91.0875788412611 0.2849910042716723 15.019999999999996
    vertex 90.9932753240546 0.27671987572916273 15.019999999999996
  endloop
endfacet
facet normal 1.7238812036542675e-15 2.059956864257663e-15 1.0
  outer loop
    vertex 91.0875788412611 0.2849910042716723 15.019999999999996
    vertex 91.02642309733395 -0.07566499269188992 15.019999999999996
    vertex 91.02642309733399 -0.7514304279145604 15.019999999999998
  endloop
endfacet
facet normal 1.7238812036542675e-15 2.059956864257663e-15 1.0
  outer loop
    vertex 91.0875788412611 0.2849910042716723 15.019999999999996
    vertex 91.02642309733399 -0.7514304279145604 15.019999999999998
    vertex 91.31042486858907 -0.711007857064355 15.019999999999998
  endloop
endfacet
facet normal 1.7238812036542675e-15 2.059956864257663e-15 1.0
  outer loop
    vertex 91.0875788412611 0.2849910042716723 15.019999999999996
    vertex 91.31042486858907 -0.711007857064355 15.019999999999998
    vertex 91.16945194348783 0.2870627401016317 15.019999999999996
  endloop
endfacet
facet normal 1.7238812036542675e-15 2.059956864257663e-15 1.0
  outer loop
    vertex 91.16945194348783 0.2870627401016317 15.019999999999996
    vertex 91.31042486858907 -0.711007857064355 15.019999999999998
    vertex 91.3560346864028 0.26115813483846767 15.019999999999996
  endloop
endfacet
facet normal 1.7238812036542675e-15 2.059956864257663e-15 1.0
  outer loop
    vertex 91.3560346864028 0.26115813483846767 15.019999999999996
    vertex 91.31042486858907 -0.711007857064355 15.019999999999998
    vertex 91.52082466615987 -0.6135888287242857 15.019999999999996
  endloop
endfacet
facet normal 1.7238812036542675e-15 2.059956864257663e-15 1.0
  outer loop
    vertex 91.3560346864028 0.26115813483846767 15.019999999999996
    vertex 91.52082466615987 -0.6135888287242857 15.019999999999996
    vertex 91.52496813781978 0.17825707208543973 15.019999999999996
  endloop
endfacet
facet normal 1.7238812036542675e-15 2.059956864257663e-15 1.0
  outer loop
    vertex 91.52496813781978 0.17825707208543973 15.019999999999996
    vertex 91.52082466615987 -0.6135888287242857 15.019999999999996
    vertex 91.65142309733395 -0.4436116020036362 15.019999999999996
  endloop
endfacet
facet normal 1.7238812036542675e-15 2.059956864257663e-15 1.0
  outer loop
    vertex 91.52496813781978 0.17825707208543973 15.019999999999996
    vertex 91.65142309733395 -0.4436116020036362 15.019999999999996
    vertex 91.64830758620033 0.032128529575316 15.019999999999996
  endloop
endfacet
facet normal 1.7238812036542675e-15 2.059956864257663e-15 1.0
  outer loop
    vertex 91.64830758620033 0.032128529575316 15.019999999999996
    vertex 91.65142309733395 -0.4436116020036362 15.019999999999996
    vertex 91.69598913984406 -0.18345851495909868 15.019999999999996
  endloop
endfacet
facet normal -0.9954481436486593 -0.09530473916043482 -6.565260298149731e-15
  outer loop
    vertex 88.04483149814367 -0.40733250281334965 15.88000000000001
    vertex 88.13810705482382 -1.3815860453234705 15.020000000000001
    vertex 88.13810705482382 -1.3815860453234712 15.88000000000001
  endloop
endfacet
facet normal -0.9954481436486593 -0.09530473916043482 -6.565260298149731e-15
  outer loop
    vertex 88.13810705482382 -1.3815860453234705 15.020000000000001
    vertex 88.04483149814367 -0.40733250281334965 15.88000000000001
    vertex 88.04483149814368 -0.40733250281334965 15.019999999999998
  endloop
endfacet
facet normal 0.9854745205161324 -0.16982334766897927 6.395833253607945e-15
  outer loop
    vertex 87.8769418220303 -1.3815860453234705 15.019999999999998
    vertex 88.04483149814367 -0.40733250281334965 15.88000000000001
    vertex 87.8769418220303 -1.3815860453234712 15.88000000000001
  endloop
endfacet
facet normal 0.9854745205161324 -0.16982334766897927 6.395833253607945e-15
  outer loop
    vertex 88.04483149814367 -0.40733250281334965 15.88000000000001
    vertex 87.8769418220303 -1.3815860453234705 15.019999999999998
    vertex 88.04483149814368 -0.40733250281334965 15.019999999999998
  endloop
endfacet
facet normal 0.9714943641997988 -0.2370626506390847 -1.4567671665410845e-16
  outer loop
    vertex 87.62403190300196 -2.4180232922870335 15.020000000000001
    vertex 87.8769418220303 -1.3815860453234712 15.88000000000001
    vertex 87.62403190300196 -2.4180232922870335 15.88000000000001
  endloop
endfacet
facet normal 0.9714943641997988 -0.2370626506390847 -1.4567671665410845e-16
  outer loop
    vertex 87.8769418220303 -1.3815860453234712 15.88000000000001
    vertex 87.62403190300196 -2.4180232922870335 15.020000000000001
    vertex 87.8769418220303 -1.3815860453234705 15.019999999999998
  endloop
endfacet
facet normal 7.185369141862898e-16 -1.0 2.0493942460376418e-16
  outer loop
    vertex 87.62403190300196 -2.4180232922870335 15.88000000000001
    vertex 86.88817031393313 -2.4180232922870344 15.020000000000005
    vertex 87.62403190300196 -2.4180232922870335 15.020000000000001
  endloop
endfacet
facet normal 7.185369141862898e-16 -1.0 2.0493942460376418e-16
  outer loop
    vertex 86.88817031393313 -2.4180232922870344 15.020000000000005
    vertex 87.62403190300196 -2.4180232922870335 15.88000000000001
    vertex 86.88817031393314 -2.4180232922870335 15.88000000000001
  endloop
endfacet
facet normal -0.9704476460046512 -0.24131176176065597 6.523338868149782e-15
  outer loop
    vertex 86.88817031393314 -2.4180232922870335 15.88000000000001
    vertex 86.1191293220303 0.6747145619639792 15.020000000000001
    vertex 86.88817031393313 -2.4180232922870344 15.020000000000005
  endloop
endfacet
facet normal -0.9704476460046512 -0.24131176176065597 6.523338868149782e-15
  outer loop
    vertex 86.1191293220303 0.6747145619639792 15.020000000000001
    vertex 86.88817031393314 -2.4180232922870335 15.88000000000001
    vertex 86.1191293220303 0.6747145619639792 15.88000000000001
  endloop
endfacet
facet normal -0.10247701530335257 0.9947353725159856 1.0082550037238008e-18
  outer loop
    vertex 86.1191293220303 0.6747145619639792 15.020000000000001
    vertex 86.80318170057282 0.7451852097372575 15.88000000000001
    vertex 86.80318170057282 0.7451852097372575 15.019999999999996
  endloop
endfacet
facet normal -0.10247701530335257 0.9947353725159856 1.0082550037238008e-18
  outer loop
    vertex 86.80318170057282 0.7451852097372575 15.88000000000001
    vertex 86.1191293220303 0.6747145619639792 15.020000000000001
    vertex 86.1191293220303 0.6747145619639792 15.88000000000001
  endloop
endfacet
facet normal 0.9703135671060973 0.24185032869492157 -9.531449625885286e-17
  outer loop
    vertex 86.80318170057282 0.7451852097372575 15.019999999999996
    vertex 87.14727962567403 -0.6353499623275195 15.88000000000001
    vertex 87.14727962567403 -0.6353499623275202 15.020000000000001
  endloop
endfacet
facet normal 0.9703135671060973 0.24185032869492157 -9.531449625885286e-17
  outer loop
    vertex 87.14727962567403 -0.6353499623275195 15.88000000000001
    vertex 86.80318170057282 0.7451852097372575 15.019999999999996
    vertex 86.80318170057282 0.7451852097372575 15.88000000000001
  endloop
endfacet
facet normal 0.9861177674433583 0.16604742916566528 -6.401478372825433e-15
  outer loop
    vertex 87.31516930178738 -1.6324084137445223 15.020000000000001
    vertex 87.14727962567403 -0.6353499623275195 15.88000000000001
    vertex 87.31516930178739 -1.6324084137445236 15.88000000000001
  endloop
endfacet
facet normal 0.9861177674433583 0.16604742916566528 -6.401478372825433e-15
  outer loop
    vertex 87.14727962567403 -0.6353499623275195 15.88000000000001
    vertex 87.31516930178738 -1.6324084137445223 15.020000000000001
    vertex 87.14727962567403 -0.6353499623275202 15.020000000000001
  endloop
endfacet
facet normal -0.9957382820048218 0.0922240410635218 6.683753362676857e-15
  outer loop
    vertex 87.4084764880222 -0.6249754684003942 15.88000000000001
    vertex 87.31516930178738 -1.6324084137445223 15.020000000000001
    vertex 87.31516930178739 -1.6324084137445236 15.88000000000001
  endloop
endfacet
facet normal -0.9957382820048218 0.0922240410635218 6.683753362676857e-15
  outer loop
    vertex 87.31516930178738 -1.6324084137445223 15.020000000000001
    vertex 87.4084764880222 -0.6249754684003942 15.88000000000001
    vertex 87.4084764880222 -0.6249754684003928 15.019999999999998
  endloop
endfacet
facet normal -0.970414853678399 0.24144359954310554 2.1407755352366552e-16
  outer loop
    vertex 87.7359688969291 0.6912884486036546 15.88000000000001
    vertex 87.4084764880222 -0.6249754684003928 15.019999999999998
    vertex 87.4084764880222 -0.6249754684003942 15.88000000000001
  endloop
endfacet
facet normal -0.970414853678399 0.24144359954310554 2.1407755352366552e-16
  outer loop
    vertex 87.4084764880222 -0.6249754684003928 15.019999999999998
    vertex 87.7359688969291 0.6912884486036546 15.88000000000001
    vertex 87.7359688969291 0.6912884486036546 15.019999999999996
  endloop
endfacet
facet normal -1.1975615236438248e-15 1.0 8.19757698415073e-16
  outer loop
    vertex 87.7359688969291 0.6912884486036546 15.88000000000001
    vertex 88.32465816818414 0.691288448603656 15.019999999999996
    vertex 87.7359688969291 0.6912884486036546 15.019999999999996
  endloop
endfacet
facet normal -1.1975615236438248e-15 1.0 8.19757698415073e-16
  outer loop
    vertex 88.32465816818414 0.691288448603656 15.019999999999996
    vertex 87.7359688969291 0.6912884486036546 15.88000000000001
    vertex 88.32465816818414 0.6912884486036546 15.88000000000001
  endloop
endfacet
facet normal 0.9704989236981328 0.24110545224188942 3.8764729401933387e-16
  outer loop
    vertex 88.65218220664569 -0.6270630190076804 15.019999999999996
    vertex 88.32465816818414 0.6912884486036546 15.88000000000001
    vertex 88.65218220664569 -0.6270630190076818 15.88000000000001
  endloop
endfacet
facet normal 0.9704989236981328 0.24110545224188942 3.8764729401933387e-16
  outer loop
    vertex 88.32465816818414 0.6912884486036546 15.88000000000001
    vertex 88.65218220664569 -0.6270630190076804 15.019999999999996
    vertex 88.32465816818414 0.691288448603656 15.019999999999996
  endloop
endfacet
facet normal 0.9865545498856578 0.16343231045269824 1.2947417146924077e-16
  outer loop
    vertex 88.65218220664569 -0.6270630190076804 15.019999999999996
    vertex 88.82215943336634 -1.6531257720441186 15.88000000000001
    vertex 88.82215943336634 -1.6531257720441186 15.020000000000001
  endloop
endfacet
facet normal 0.9865545498856578 0.16343231045269824 1.2947417146924077e-16
  outer loop
    vertex 88.82215943336634 -1.6531257720441186 15.88000000000001
    vertex 88.65218220664569 -0.6270630190076804 15.019999999999996
    vertex 88.65218220664569 -0.6270630190076818 15.88000000000001
  endloop
endfacet
facet normal -0.9958602967548021 0.09089702606487059 3.402267261826678e-17
  outer loop
    vertex 88.91543499004649 -0.6312064906676006 15.88000000000001
    vertex 88.82215943336634 -1.6531257720441186 15.020000000000001
    vertex 88.82215943336634 -1.6531257720441186 15.88000000000001
  endloop
endfacet
facet normal -0.9958602967548021 0.09089702606487059 3.402267261826678e-17
  outer loop
    vertex 88.82215943336634 -1.6531257720441186 15.020000000000001
    vertex 88.91543499004649 -0.6312064906676006 15.88000000000001
    vertex 88.91543499004649 -0.6312064906675999 15.019999999999998
  endloop
endfacet
facet normal -0.9703224263136914 0.24181478241147933 1.0099504722498521e-16
  outer loop
    vertex 89.24501494956067 0.6912884486036546 15.88000000000001
    vertex 88.91543499004649 -0.6312064906675999 15.019999999999998
    vertex 88.91543499004649 -0.6312064906676006 15.88000000000001
  endloop
endfacet
facet normal -0.9703224263136914 0.24181478241147933 1.0099504722498521e-16
  outer loop
    vertex 88.91543499004649 -0.6312064906675999 15.019999999999998
    vertex 89.24501494956067 0.6912884486036546 15.88000000000001
    vertex 89.24501494956067 0.6912884486036546 15.019999999999996
  endloop
endfacet
facet normal -1.0661539786692248e-15 1.0 8.19757698415073e-16
  outer loop
    vertex 89.24501494956067 0.6912884486036546 15.88000000000001
    vertex 89.9062624191963 0.691288448603656 15.019999999999996
    vertex 89.24501494956067 0.6912884486036546 15.019999999999996
  endloop
endfacet
facet normal -1.0661539786692248e-15 1.0 8.19757698415073e-16
  outer loop
    vertex 89.9062624191963 0.691288448603656 15.019999999999996
    vertex 89.24501494956067 0.6912884486036546 15.88000000000001
    vertex 89.9062624191963 0.6912884486036546 15.88000000000001
  endloop
endfacet
facet normal 0.9704460230394087 -0.24131828850502735 -7.093693177102718e-15
  outer loop
    vertex 89.13307795563354 -2.41802329228703 15.020000000000001
    vertex 89.9062624191963 0.6912884486036546 15.88000000000001
    vertex 89.13307795563355 -2.4180232922870335 15.88000000000001
  endloop
endfacet
facet normal 0.9704460230394087 -0.24131828850502735 -7.093693177102718e-15
  outer loop
    vertex 89.9062624191963 0.6912884486036546 15.88000000000001
    vertex 89.13307795563354 -2.41802329228703 15.020000000000001
    vertex 89.9062624191963 0.691288448603656 15.019999999999996
  endloop
endfacet
facet normal 2.155610742558835e-15 -1.0 -2.6642125198490182e-15
  outer loop
    vertex 89.13307795563355 -2.4180232922870335 15.88000000000001
    vertex 88.39721636656472 -2.418023292287033 15.020000000000001
    vertex 89.13307795563354 -2.41802329228703 15.020000000000001
  endloop
endfacet
facet normal 2.155610742558835e-15 -1.0 -2.6642125198490182e-15
  outer loop
    vertex 88.39721636656472 -2.418023292287033 15.020000000000001
    vertex 89.13307795563355 -2.4180232922870335 15.88000000000001
    vertex 88.39721636656472 -2.4180232922870335 15.88000000000001
  endloop
endfacet
facet normal -0.9701425001453319 -0.24253562503633325 -2.0644237782313914e-16
  outer loop
    vertex 88.13810705482382 -1.3815860453234712 15.88000000000001
    vertex 88.39721636656472 -2.418023292287033 15.020000000000001
    vertex 88.39721636656472 -2.4180232922870335 15.88000000000001
  endloop
endfacet
facet normal -0.9701425001453319 -0.24253562503633325 -2.0644237782313914e-16
  outer loop
    vertex 88.39721636656472 -2.418023292287033 15.020000000000001
    vertex 88.13810705482382 -1.3815860453234712 15.88000000000001
    vertex 88.13810705482382 -1.3815860453234705 15.020000000000001
  endloop
endfacet
facet normal 0.0 0.0 1.0
  outer loop
    vertex 86.88817031393314 -2.4180232922870335 15.88000000000001
    vertex 86.80318170057282 0.7451852097372575 15.88000000000001
    vertex 86.1191293220303 0.6747145619639792 15.88000000000001
  endloop
endfacet
facet normal 0.0 0.0 1.0
  outer loop
    vertex 86.80318170057282 0.7451852097372575 15.88000000000001
    vertex 86.88817031393314 -2.4180232922870335 15.88000000000001
    vertex 87.14727962567403 -0.6353499623275195 15.88000000000001
  endloop
endfacet
facet normal 0.0 0.0 1.0
  outer loop
    vertex 87.14727962567403 -0.6353499623275195 15.88000000000001
    vertex 86.88817031393314 -2.4180232922870335 15.88000000000001
    vertex 87.31516930178739 -1.6324084137445236 15.88000000000001
  endloop
endfacet
facet normal 0.0 0.0 1.0
  outer loop
    vertex 87.31516930178739 -1.6324084137445236 15.88000000000001
    vertex 86.88817031393314 -2.4180232922870335 15.88000000000001
    vertex 87.62403190300196 -2.4180232922870335 15.88000000000001
  endloop
endfacet
facet normal 0.0 0.0 1.0
  outer loop
    vertex 87.31516930178739 -1.6324084137445236 15.88000000000001
    vertex 87.62403190300196 -2.4180232922870335 15.88000000000001
    vertex 87.4084764880222 -0.6249754684003942 15.88000000000001
  endloop
endfacet
facet normal 0.0 0.0 1.0
  outer loop
    vertex 87.4084764880222 -0.6249754684003942 15.88000000000001
    vertex 87.62403190300196 -2.4180232922870335 15.88000000000001
    vertex 87.7359688969291 0.6912884486036546 15.88000000000001
  endloop
endfacet
facet normal 0.0 0.0 1.0
  outer loop
    vertex 87.7359688969291 0.6912884486036546 15.88000000000001
    vertex 87.62403190300196 -2.4180232922870335 15.88000000000001
    vertex 87.8769418220303 -1.3815860453234712 15.88000000000001
  endloop
endfacet
facet normal 0.0 0.0 1.0
  outer loop
    vertex 87.7359688969291 0.6912884486036546 15.88000000000001
    vertex 87.8769418220303 -1.3815860453234712 15.88000000000001
    vertex 88.04483149814367 -0.40733250281334965 15.88000000000001
  endloop
endfacet
facet normal 0.0 0.0 1.0
  outer loop
    vertex 87.7359688969291 0.6912884486036546 15.88000000000001
    vertex 88.04483149814367 -0.40733250281334965 15.88000000000001
    vertex 88.32465816818414 0.6912884486036546 15.88000000000001
  endloop
endfacet
facet normal 0.0 0.0 1.0
  outer loop
    vertex 88.32465816818414 0.6912884486036546 15.88000000000001
    vertex 88.04483149814367 -0.40733250281334965 15.88000000000001
    vertex 88.13810705482382 -1.3815860453234712 15.88000000000001
  endloop
endfacet
facet normal 0.0 0.0 1.0
  outer loop
    vertex 88.32465816818414 0.6912884486036546 15.88000000000001
    vertex 88.13810705482382 -1.3815860453234712 15.88000000000001
    vertex 88.39721636656472 -2.4180232922870335 15.88000000000001
  endloop
endfacet
facet normal 0.0 0.0 1.0
  outer loop
    vertex 88.32465816818414 0.6912884486036546 15.88000000000001
    vertex 88.39721636656472 -2.4180232922870335 15.88000000000001
    vertex 88.65218220664569 -0.6270630190076818 15.88000000000001
  endloop
endfacet
facet normal 0.0 0.0 1.0
  outer loop
    vertex 88.65218220664569 -0.6270630190076818 15.88000000000001
    vertex 88.39721636656472 -2.4180232922870335 15.88000000000001
    vertex 88.82215943336634 -1.6531257720441186 15.88000000000001
  endloop
endfacet
facet normal 0.0 0.0 1.0
  outer loop
    vertex 88.82215943336634 -1.6531257720441186 15.88000000000001
    vertex 88.39721636656472 -2.4180232922870335 15.88000000000001
    vertex 89.13307795563355 -2.4180232922870335 15.88000000000001
  endloop
endfacet
facet normal 0.0 0.0 1.0
  outer loop
    vertex 88.82215943336634 -1.6531257720441186 15.88000000000001
    vertex 89.13307795563355 -2.4180232922870335 15.88000000000001
    vertex 88.91543499004649 -0.6312064906676006 15.88000000000001
  endloop
endfacet
facet normal 0.0 0.0 1.0
  outer loop
    vertex 88.91543499004649 -0.6312064906676006 15.88000000000001
    vertex 89.13307795563355 -2.4180232922870335 15.88000000000001
    vertex 89.24501494956067 0.6912884486036546 15.88000000000001
  endloop
endfacet
facet normal 0.0 0.0 1.0
  outer loop
    vertex 89.24501494956067 0.6912884486036546 15.88000000000001
    vertex 89.13307795563355 -2.4180232922870335 15.88000000000001
    vertex 89.9062624191963 0.6912884486036546 15.88000000000001
  endloop
endfacet
facet normal 0.0 -1.0 0.0
  outer loop
    vertex 91.02642309733395 -2.4180232922870335 15.88000000000001
    vertex 90.29884845158496 -2.4180232922870335 15.019999999999998
    vertex 91.02642309733395 -2.4180232922870335 15.019999999999998
  endloop
endfacet
facet normal 0.0 -1.0 0.0
  outer loop
    vertex 90.29884845158496 -2.4180232922870335 15.019999999999998
    vertex 91.02642309733395 -2.4180232922870335 15.88000000000001
    vertex 90.29884845158496 -2.4180232922870335 15.88000000000001
  endloop
endfacet
facet normal -1.0 -2.1559756320517057e-15 6.5580615873206036e-15
  outer loop
    vertex 90.29884845158496 0.1979306550813874 15.88000000000001
    vertex 90.29884845158496 -2.4180232922870335 15.019999999999998
    vertex 90.29884845158496 -2.4180232922870335 15.88000000000001
  endloop
endfacet
facet normal -1.0 -2.1559756320517057e-15 6.5580615873206036e-15
  outer loop
    vertex 90.29884845158496 -2.4180232922870335 15.019999999999998
    vertex 90.29884845158496 0.1979306550813874 15.88000000000001
    vertex 90.29884845158496 0.1979306550813874 15.019999999999996
  endloop
endfacet
facet normal -0.9848800620705566 -0.17323759215567802 1.2918184090762346e-14
  outer loop
    vertex 90.22009086049185 0.6456786307898894 15.88000000000001
    vertex 90.29884845158496 0.1979306550813874 15.019999999999996
    vertex 90.29884845158496 0.1979306550813874 15.88000000000001
  endloop
endfacet
facet normal -0.9848800620705566 -0.17323759215567802 1.2918184090762346e-14
  outer loop
    vertex 90.29884845158496 0.1979306550813874 15.019999999999996
    vertex 90.22009086049185 0.6456786307898894 15.88000000000001
    vertex 90.22009086049184 0.6456786307898894 15.019999999999996
  endloop
endfacet
facet normal -0.13252663666764106 0.991179444184333 5.204267896003884e-16
  outer loop
    vertex 90.22009086049185 0.6456786307898894 15.88000000000001
    vertex 90.42944688275904 0.6736707866603325 15.019999999999996
    vertex 90.22009086049184 0.6456786307898894 15.019999999999996
  endloop
endfacet
facet normal -0.13252663666764106 0.991179444184333 5.204267896003884e-16
  outer loop
    vertex 90.42944688275904 0.6736707866603325 15.019999999999996
    vertex 90.22009086049185 0.6456786307898894 15.88000000000001
    vertex 90.42944688275905 0.6736707866603354 15.88000000000001
  endloop
endfacet
facet normal -0.09250556628665374 0.9957121673485695 -1.4331661308250443e-15
  outer loop
    vertex 90.42944688275905 0.6736707866603354 15.88000000000001
    vertex 90.66367954976309 0.695431920263572 15.019999999999996
    vertex 90.42944688275904 0.6736707866603325 15.019999999999996
  endloop
endfacet
facet normal -0.09250556628665374 0.9957121673485695 -1.4331661308250443e-15
  outer loop
    vertex 90.66367954976309 0.695431920263572 15.019999999999996
    vertex 90.42944688275905 0.6736707866603354 15.88000000000001
    vertex 90.66367954976309 0.6954319202635735 15.88000000000001
  endloop
endfacet
facet normal -0.05926021939221723 0.9982425689167872 -7.974728615602654e-16
  outer loop
    vertex 90.66367954976309 0.6954319202635735 15.88000000000001
    vertex 90.89065323397364 0.7089061105469753 15.019999999999996
    vertex 90.66367954976309 0.695431920263572 15.019999999999996
  endloop
endfacet
facet normal -0.05926021939221723 0.9982425689167872 -7.974728615602654e-16
  outer loop
    vertex 90.89065323397364 0.7089061105469753 15.019999999999996
    vertex 90.66367954976309 0.6954319202635735 15.88000000000001
    vertex 90.89065323397362 0.7089061105469738 15.88000000000001
  endloop
endfacet
facet normal -0.027339064410768277 0.9996262179220512 -9.472230187767705e-16
  outer loop
    vertex 90.89065323397362 0.7089061105469738 15.88000000000001
    vertex 91.08031985846758 0.7140933575105352 15.019999999999996
    vertex 90.89065323397364 0.7089061105469753 15.019999999999996
  endloop
endfacet
facet normal -0.027339064410768277 0.9996262179220512 -9.472230187767705e-16
  outer loop
    vertex 91.08031985846758 0.7140933575105352 15.019999999999996
    vertex 90.89065323397362 0.7089061105469738 15.88000000000001
    vertex 91.08031985846756 0.7140933575105365 15.88000000000001
  endloop
endfacet
facet normal 0.0899657842762891 0.9959448567363317 -1.8600589762482196e-15
  outer loop
    vertex 91.08031985846758 0.7140933575105352 15.019999999999996
    vertex 91.57367765198983 0.6695273150004151 15.88000000000001
    vertex 91.57367765198981 0.6695273150004123 15.019999999999992
  endloop
endfacet
facet normal 0.0899657842762891 0.9959448567363317 -1.8600589762482196e-15
  outer loop
    vertex 91.57367765198983 0.6695273150004151 15.88000000000001
    vertex 91.08031985846758 0.7140933575105352 15.019999999999996
    vertex 91.08031985846756 0.7140933575105365 15.88000000000001
  endloop
endfacet
facet normal 0.25682170063404575 0.9664588010274607 -4.064415183847441e-15
  outer loop
    vertex 91.57367765198983 0.6695273150004151 15.88000000000001
    vertex 91.79598993058293 0.6104512142919122 15.019999999999992
    vertex 91.57367765198981 0.6695273150004123 15.019999999999992
  endloop
endfacet
facet normal 0.25682170063404575 0.9664588010274607 -4.064415183847441e-15
  outer loop
    vertex 91.79598993058293 0.6104512142919122 15.019999999999992
    vertex 91.57367765198983 0.6695273150004151 15.88000000000001
    vertex 91.79598993058293 0.6104512142919135 15.88000000000001
  endloop
endfacet
facet normal 0.41289107379821777 0.9107804132598345 -3.823944343059734e-15
  outer loop
    vertex 91.79598993058293 0.6104512142919135 15.88000000000001
    vertex 91.99031796069431 0.5223549971866293 15.019999999999992
    vertex 91.79598993058293 0.6104512142919122 15.019999999999992
  endloop
endfacet
facet normal 0.41289107379821777 0.9107804132598345 -3.823944343059734e-15
  outer loop
    vertex 91.99031796069431 0.5223549971866293 15.019999999999992
    vertex 91.79598993058293 0.6104512142919135 15.88000000000001
    vertex 91.99031796069427 0.5223549971866503 15.88000000000001
  endloop
endfacet
facet normal 0.5921553136463857 0.8058238545242694 3.721748958388737e-15
  outer loop
    vertex 91.99031796069427 0.5223549971866503 15.88000000000001
    vertex 92.15251827066392 0.4031629741603391 15.019999999999996
    vertex 91.99031796069431 0.5223549971866293 15.019999999999992
  endloop
endfacet
facet normal 0.5921553136463857 0.8058238545242694 3.721748958388737e-15
  outer loop
    vertex 92.15251827066392 0.4031629741603391 15.019999999999996
    vertex 91.99031796069427 0.5223549971866503 15.88000000000001
    vertex 92.15251827066392 0.40316297416033486 15.88000000000001
  endloop
endfacet
facet normal 0.7708037373130219 0.6370726791695575 2.613420374029504e-15
  outer loop
    vertex 92.27844738883194 0.25079945568867756 15.019999999999996
    vertex 92.15251827066392 0.40316297416033486 15.88000000000001
    vertex 92.27844738883194 0.25079945568867473 15.88000000000001
  endloop
endfacet
facet normal 0.7708037373130219 0.6370726791695575 2.613420374029504e-15
  outer loop
    vertex 92.15251827066392 0.40316297416033486 15.88000000000001
    vertex 92.27844738883194 0.25079945568867756 15.019999999999996
    vertex 92.15251827066392 0.4031629741603391 15.019999999999996
  endloop
endfacet
facet normal 0.9193390001994606 0.39346639337083955 1.3181282710006333e-14
  outer loop
    vertex 92.35929253053234 0.061903801589487224 15.019999999999992
    vertex 92.27844738883194 0.25079945568867473 15.88000000000001
    vertex 92.35929253053233 0.06190380158948441 15.88000000000001
  endloop
endfacet
facet normal 0.9193390001994606 0.39346639337083955 1.3181282710006333e-14
  outer loop
    vertex 92.27844738883194 0.25079945568867473 15.88000000000001
    vertex 92.35929253053234 0.061903801589487224 15.019999999999992
    vertex 92.27844738883194 0.25079945568867756 15.019999999999996
  endloop
endfacet
facet normal 0.993134428222195 0.11697866249779894 6.752273599167993e-15
  outer loop
    vertex 92.38624091109912 -0.1668846283194211 15.019999999999996
    vertex 92.35929253053233 0.06190380158948441 15.88000000000001
    vertex 92.38624091109914 -0.16688462831942252 15.88000000000001
  endloop
endfacet
facet normal 0.993134428222195 0.11697866249779894 6.752273599167993e-15
  outer loop
    vertex 92.35929253053233 0.06190380158948441 15.88000000000001
    vertex 92.38624091109912 -0.1668846283194211 15.019999999999996
    vertex 92.35929253053234 0.061903801589487224 15.019999999999992
  endloop
endfacet
facet normal 0.9955585810569253 -0.09414410063260394 1.550361659824379e-16
  outer loop
    vertex 92.38624091109912 -0.1668846283194211 15.019999999999996
    vertex 92.36188615401412 -0.4244322307991791 15.88000000000001
    vertex 92.36188615401412 -0.4244322307991833 15.019999999999998
  endloop
endfacet
facet normal 0.9955585810569253 -0.09414410063260394 1.550361659824379e-16
  outer loop
    vertex 92.36188615401412 -0.4244322307991791 15.88000000000001
    vertex 92.38624091109912 -0.1668846283194211 15.019999999999996
    vertex 92.38624091109914 -0.16688462831942252 15.88000000000001
  endloop
endfacet
facet normal 0.9458923726570148 -0.3244805377049341 6.464321697047886e-15
  outer loop
    vertex 92.28882188275905 -0.6374216981574761 15.019999999999996
    vertex 92.36188615401412 -0.4244322307991791 15.88000000000001
    vertex 92.28882188275905 -0.637421698157479 15.88000000000001
  endloop
endfacet
facet normal 0.9458923726570148 -0.3244805377049341 6.464321697047886e-15
  outer loop
    vertex 92.36188615401412 -0.4244322307991791 15.88000000000001
    vertex 92.28882188275905 -0.6374216981574761 15.019999999999996
    vertex 92.36188615401412 -0.4244322307991833 15.019999999999998
  endloop
endfacet
facet normal 0.8261129774227116 -0.5635045239692248 -1.3832819540227452e-15
  outer loop
    vertex 92.17093062516795 -0.8102534921858182 15.019999999999998
    vertex 92.28882188275905 -0.637421698157479 15.88000000000001
    vertex 92.17093062516795 -0.8102534921858195 15.88000000000001
  endloop
endfacet
facet normal 0.8261129774227116 -0.5635045239692248 -1.3832819540227452e-15
  outer loop
    vertex 92.28882188275905 -0.637421698157479 15.88000000000001
    vertex 92.17093062516795 -0.8102534921858182 15.019999999999998
    vertex 92.28882188275905 -0.6374216981574761 15.019999999999996
  endloop
endfacet
facet normal 0.6533421306015139 -0.7570627849663952 -2.5376564083870525e-15
  outer loop
    vertex 92.17093062516795 -0.8102534921858195 15.88000000000001
    vertex 92.01209490907486 -0.9473280746756837 15.019999999999998
    vertex 92.17093062516795 -0.8102534921858182 15.019999999999998
  endloop
endfacet
facet normal 0.6533421306015139 -0.7570627849663952 -2.5376564083870525e-15
  outer loop
    vertex 92.01209490907486 -0.9473280746756837 15.019999999999998
    vertex 92.17093062516795 -0.8102534921858195 15.88000000000001
    vertex 92.01209490907485 -0.9473280746756978 15.88000000000001
  endloop
endfacet
facet normal 0.46434868718448824 -0.8856524694879152 -5.748785789969363e-15
  outer loop
    vertex 92.01209490907485 -0.9473280746756978 15.88000000000001
    vertex 91.8149083579615 -1.0507132277627274 15.019999999999998
    vertex 92.01209490907486 -0.9473280746756837 15.019999999999998
  endloop
endfacet
facet normal 0.46434868718448824 -0.8856524694879152 -5.748785789969363e-15
  outer loop
    vertex 91.8149083579615 -1.0507132277627274 15.019999999999998
    vertex 92.01209490907485 -0.9473280746756978 15.88000000000001
    vertex 91.81490835796147 -1.0507132277627422 15.88000000000001
  endloop
endfacet
facet normal 0.2944175175579183 -0.9556768938061823 -5.143868300971951e-15
  outer loop
    vertex 91.81490835796147 -1.0507132277627422 15.88000000000001
    vertex 91.58196459530966 -1.122476733582579 15.019999999999998
    vertex 91.8149083579615 -1.0507132277627274 15.019999999999998
  endloop
endfacet
facet normal 0.2944175175579183 -0.9556768938061823 -5.143868300971951e-15
  outer loop
    vertex 91.58196459530966 -1.122476733582579 15.019999999999998
    vertex 91.81490835796147 -1.0507132277627422 15.88000000000001
    vertex 91.58196459530966 -1.1224767335825803 15.88000000000001
  endloop
endfacet
facet normal 0.11854999619002084 -0.9929480844451769 -1.2178827091617855e-15
  outer loop
    vertex 91.58196459530966 -1.1224767335825803 15.88000000000001
    vertex 91.02642309733395 -1.1888039096959397 15.019999999999998
    vertex 91.58196459530966 -1.122476733582579 15.019999999999998
  endloop
endfacet
facet normal 0.11854999619002084 -0.9929480844451769 -1.2178827091617855e-15
  outer loop
    vertex 91.02642309733395 -1.1888039096959397 15.019999999999998
    vertex 91.58196459530966 -1.1224767335825803 15.88000000000001
    vertex 91.02642309733395 -1.1888039096959404 15.88000000000001
  endloop
endfacet
facet normal 1.0 0.0 0.0
  outer loop
    vertex 91.02642309733395 -1.1888039096959397 15.019999999999998
    vertex 91.02642309733395 -2.4180232922870335 15.88000000000001
    vertex 91.02642309733395 -2.4180232922870335 15.019999999999998
  endloop
endfacet
facet normal 1.0 0.0 0.0
  outer loop
    vertex 91.02642309733395 -2.4180232922870335 15.88000000000001
    vertex 91.02642309733395 -1.1888039096959397 15.019999999999998
    vertex 91.02642309733395 -1.1888039096959404 15.88000000000001
  endloop
endfacet
facet normal 1.0 3.3383968289158685e-14 2.6232246349282443e-14
  outer loop
    vertex 91.02642309733399 -0.7514304279145604 15.019999999999998
    vertex 91.02642309733395 -0.07566499269189134 15.88000000000001
    vertex 91.02642309733395 -0.7514304279145646 15.88000000000001
  endloop
endfacet
facet normal 1.0 3.3383968289158685e-14 2.6232246349282443e-14
  outer loop
    vertex 91.02642309733395 -0.07566499269189134 15.88000000000001
    vertex 91.02642309733399 -0.7514304279145604 15.019999999999998
    vertex 91.02642309733395 -0.07566499269188992 15.019999999999996
  endloop
endfacet
facet normal -0.1409119375522115 0.9900221340229126 -9.00273386648879e-16
  outer loop
    vertex 91.02642309733395 -0.7514304279145646 15.88000000000001
    vertex 91.31042486858907 -0.711007857064355 15.019999999999998
    vertex 91.02642309733399 -0.7514304279145604 15.019999999999998
  endloop
endfacet
facet normal -0.1409119375522115 0.9900221340229126 -9.00273386648879e-16
  outer loop
    vertex 91.31042486858907 -0.711007857064355 15.019999999999998
    vertex 91.02642309733395 -0.7514304279145646 15.88000000000001
    vertex 91.31042486858901 -0.711007857064362 15.88000000000001
  endloop
endfacet
facet normal -0.4201651747425187 0.9074476436321761 -1.2665895460590518e-14
  outer loop
    vertex 91.31042486858907 -0.711007857064355 15.019999999999998
    vertex 91.52082466615985 -0.6135888287242807 15.88000000000001
    vertex 91.52082466615987 -0.6135888287242857 15.019999999999996
  endloop
endfacet
facet normal -0.4201651747425187 0.9074476436321761 -1.2665895460590518e-14
  outer loop
    vertex 91.52082466615985 -0.6135888287242807 15.88000000000001
    vertex 91.31042486858907 -0.711007857064355 15.019999999999998
    vertex 91.31042486858901 -0.711007857064362 15.88000000000001
  endloop
endfacet
facet normal -0.7929694405612936 0.6092614105094044 -7.945974877046316e-15
  outer loop
    vertex 91.52082466615985 -0.6135888287242807 15.88000000000001
    vertex 91.65142309733395 -0.4436116020036362 15.019999999999996
    vertex 91.52082466615987 -0.6135888287242857 15.019999999999996
  endloop
endfacet
facet normal -0.7929694405612936 0.6092614105094044 -7.945974877046316e-15
  outer loop
    vertex 91.65142309733395 -0.4436116020036362 15.019999999999996
    vertex 91.52082466615985 -0.6135888287242807 15.88000000000001
    vertex 91.65142309733395 -0.44361160200363337 15.88000000000001
  endloop
endfacet
facet normal -0.9856422045861499 0.1688474001533768 6.1886267288409e-15
  outer loop
    vertex 91.65142309733395 -0.44361160200363337 15.88000000000001
    vertex 91.69598913984406 -0.18345851495909868 15.019999999999996
    vertex 91.65142309733395 -0.4436116020036362 15.019999999999996
  endloop
endfacet
facet normal -0.9856422045861499 0.1688474001533768 6.1886267288409e-15
  outer loop
    vertex 91.69598913984406 -0.18345851495909868 15.019999999999996
    vertex 91.65142309733395 -0.44361160200363337 15.88000000000001
    vertex 91.69598913984407 -0.18345851495909868 15.88000000000001
  endloop
endfacet
facet normal -0.9764039755574333 -0.2159520236433072 1.2720206004675478e-14
  outer loop
    vertex 91.64830758620035 0.03212852957531459 15.88000000000001
    vertex 91.69598913984406 -0.18345851495909868 15.019999999999996
    vertex 91.69598913984407 -0.18345851495909868 15.88000000000001
  endloop
endfacet
facet normal -0.9764039755574333 -0.2159520236433072 1.2720206004675478e-14
  outer loop
    vertex 91.69598913984406 -0.18345851495909868 15.019999999999996
    vertex 91.64830758620035 0.03212852957531459 15.88000000000001
    vertex 91.64830758620033 0.032128529575316 15.019999999999996
  endloop
endfacet
facet normal -0.7641793765428878 -0.645003783296287 3.4195617752326465e-15
  outer loop
    vertex 91.52496813781978 0.17825707208543548 15.88000000000001
    vertex 91.64830758620033 0.032128529575316 15.019999999999996
    vertex 91.64830758620035 0.03212852957531459 15.88000000000001
  endloop
endfacet
facet normal -0.7641793765428878 -0.645003783296287 3.4195617752326465e-15
  outer loop
    vertex 91.64830758620033 0.032128529575316 15.019999999999996
    vertex 91.52496813781978 0.17825707208543548 15.88000000000001
    vertex 91.52496813781978 0.17825707208543973 15.019999999999996
  endloop
endfacet
facet normal -0.44054513156557223 -0.8977304645904989 -5.4096117711669845e-15
  outer loop
    vertex 91.52496813781978 0.17825707208543548 15.88000000000001
    vertex 91.3560346864028 0.26115813483846767 15.019999999999996
    vertex 91.52496813781978 0.17825707208543973 15.019999999999996
  endloop
endfacet
facet normal -0.44054513156557223 -0.8977304645904989 -5.4096117711669845e-15
  outer loop
    vertex 91.3560346864028 0.26115813483846767 15.019999999999996
    vertex 91.52496813781978 0.17825707208543548 15.88000000000001
    vertex 91.35603468640278 0.2611581348384719 15.88000000000001
  endloop
endfacet
facet normal -0.13751803632240367 -0.9904992628397208 -1.985883522190123e-15
  outer loop
    vertex 91.35603468640278 0.2611581348384719 15.88000000000001
    vertex 91.16945194348783 0.2870627401016317 15.019999999999996
    vertex 91.3560346864028 0.26115813483846767 15.019999999999996
  endloop
endfacet
facet normal -0.13751803632240367 -0.9904992628397208 -1.985883522190123e-15
  outer loop
    vertex 91.16945194348783 0.2870627401016317 15.019999999999996
    vertex 91.35603468640278 0.2611581348384719 15.88000000000001
    vertex 91.1694519434878 0.2870627401016303 15.88000000000001
  endloop
endfacet
facet normal 0.025296132936737277 -0.999680001629745 -8.095463215939181e-16
  outer loop
    vertex 91.1694519434878 0.2870627401016303 15.88000000000001
    vertex 91.0875788412611 0.2849910042716723 15.019999999999996
    vertex 91.16945194348783 0.2870627401016317 15.019999999999996
  endloop
endfacet
facet normal 0.025296132936737277 -0.999680001629745 -8.095463215939181e-16
  outer loop
    vertex 91.0875788412611 0.2849910042716723 15.019999999999996
    vertex 91.1694519434878 0.2870627401016303 15.88000000000001
    vertex 91.08757884126108 0.28499100427167084 15.88000000000001
  endloop
endfacet
facet normal 0.08737211375532226 -0.99617574440353 8.547390454130394e-17
  outer loop
    vertex 91.08757884126108 0.28499100427167084 15.88000000000001
    vertex 90.9932753240546 0.27671987572916273 15.019999999999996
    vertex 91.0875788412611 0.2849910042716723 15.019999999999996
  endloop
endfacet
facet normal 0.08737211375532226 -0.99617574440353 8.547390454130394e-17
  outer loop
    vertex 90.9932753240546 0.27671987572916273 15.019999999999996
    vertex 91.08757884126108 0.28499100427167084 15.88000000000001
    vertex 90.9932753240546 0.2767198757291613 15.88000000000001
  endloop
endfacet
facet normal 0.9956048502842548 0.09365352150595614 1.5500402109090894e-16
  outer loop
    vertex 91.02642309733395 -0.07566499269188992 15.019999999999996
    vertex 90.9932753240546 0.2767198757291613 15.88000000000001
    vertex 91.02642309733395 -0.07566499269189134 15.88000000000001
  endloop
endfacet
facet normal 0.9956048502842548 0.09365352150595614 1.5500402109090894e-16
  outer loop
    vertex 90.9932753240546 0.2767198757291613 15.88000000000001
    vertex 91.02642309733395 -0.07566499269188992 15.019999999999996
    vertex 90.9932753240546 0.27671987572916273 15.019999999999996
  endloop
endfacet
facet normal 0.0 0.0 1.0
  outer loop
    vertex 91.58196459530966 -1.1224767335825803 15.88000000000001
    vertex 91.02642309733395 -0.7514304279145646 15.88000000000001
    vertex 91.02642309733395 -1.1888039096959404 15.88000000000001
  endloop
endfacet
facet normal 0.0 0.0 1.0
  outer loop
    vertex 91.02642309733395 -0.7514304279145646 15.88000000000001
    vertex 91.58196459530966 -1.1224767335825803 15.88000000000001
    vertex 91.31042486858901 -0.711007857064362 15.88000000000001
  endloop
endfacet
facet normal 0.0 0.0 1.0
  outer loop
    vertex 91.31042486858901 -0.711007857064362 15.88000000000001
    vertex 91.58196459530966 -1.1224767335825803 15.88000000000001
    vertex 91.52082466615985 -0.6135888287242807 15.88000000000001
  endloop
endfacet
facet normal 0.0 0.0 1.0
  outer loop
    vertex 91.52082466615985 -0.6135888287242807 15.88000000000001
    vertex 91.58196459530966 -1.1224767335825803 15.88000000000001
    vertex 91.65142309733395 -0.44361160200363337 15.88000000000001
  endloop
endfacet
facet normal 0.0 0.0 1.0
  outer loop
    vertex 91.65142309733395 -0.44361160200363337 15.88000000000001
    vertex 91.58196459530966 -1.1224767335825803 15.88000000000001
    vertex 91.81490835796147 -1.0507132277627422 15.88000000000001
  endloop
endfacet
facet normal 0.0 0.0 1.0
  outer loop
    vertex 91.65142309733395 -0.44361160200363337 15.88000000000001
    vertex 91.81490835796147 -1.0507132277627422 15.88000000000001
    vertex 91.69598913984407 -0.18345851495909868 15.88000000000001
  endloop
endfacet
facet normal 0.0 0.0 1.0
  outer loop
    vertex 91.69598913984407 -0.18345851495909868 15.88000000000001
    vertex 91.81490835796147 -1.0507132277627422 15.88000000000001
    vertex 91.79598993058293 0.6104512142919135 15.88000000000001
  endloop
endfacet
facet normal 0.0 0.0 1.0
  outer loop
    vertex 91.79598993058293 0.6104512142919135 15.88000000000001
    vertex 91.81490835796147 -1.0507132277627422 15.88000000000001
    vertex 91.99031796069427 0.5223549971866503 15.88000000000001
  endloop
endfacet
facet normal 0.0 0.0 1.0
  outer loop
    vertex 91.99031796069427 0.5223549971866503 15.88000000000001
    vertex 91.81490835796147 -1.0507132277627422 15.88000000000001
    vertex 92.01209490907485 -0.9473280746756978 15.88000000000001
  endloop
endfacet
facet normal 0.0 0.0 1.0
  outer loop
    vertex 91.99031796069427 0.5223549971866503 15.88000000000001
    vertex 92.01209490907485 -0.9473280746756978 15.88000000000001
    vertex 92.15251827066392 0.40316297416033486 15.88000000000001
  endloop
endfacet
facet normal 0.0 0.0 1.0
  outer loop
    vertex 92.15251827066392 0.40316297416033486 15.88000000000001
    vertex 92.01209490907485 -0.9473280746756978 15.88000000000001
    vertex 92.17093062516795 -0.8102534921858195 15.88000000000001
  endloop
endfacet
facet normal 0.0 0.0 1.0
  outer loop
    vertex 92.15251827066392 0.40316297416033486 15.88000000000001
    vertex 92.17093062516795 -0.8102534921858195 15.88000000000001
    vertex 92.27844738883194 0.25079945568867473 15.88000000000001
  endloop
endfacet
facet normal 0.0 0.0 1.0
  outer loop
    vertex 92.27844738883194 0.25079945568867473 15.88000000000001
    vertex 92.17093062516795 -0.8102534921858195 15.88000000000001
    vertex 92.28882188275905 -0.637421698157479 15.88000000000001
  endloop
endfacet
facet normal 0.0 0.0 1.0
  outer loop
    vertex 92.27844738883194 0.25079945568867473 15.88000000000001
    vertex 92.28882188275905 -0.637421698157479 15.88000000000001
    vertex 92.35929253053233 0.06190380158948441 15.88000000000001
  endloop
endfacet
facet normal 0.0 0.0 1.0
  outer loop
    vertex 92.35929253053233 0.06190380158948441 15.88000000000001
    vertex 92.28882188275905 -0.637421698157479 15.88000000000001
    vertex 92.36188615401412 -0.4244322307991791 15.88000000000001
  endloop
endfacet
facet normal 0.0 0.0 1.0
  outer loop
    vertex 92.35929253053233 0.06190380158948441 15.88000000000001
    vertex 92.36188615401412 -0.4244322307991791 15.88000000000001
    vertex 92.38624091109914 -0.16688462831942252 15.88000000000001
  endloop
endfacet
facet normal 0.0 0.0 1.0
  outer loop
    vertex 90.9932753240546 0.2767198757291613 15.88000000000001
    vertex 91.08031985846756 0.7140933575105365 15.88000000000001
    vertex 90.89065323397362 0.7089061105469738 15.88000000000001
  endloop
endfacet
facet normal 0.0 0.0 1.0
  outer loop
    vertex 91.08031985846756 0.7140933575105365 15.88000000000001
    vertex 90.9932753240546 0.2767198757291613 15.88000000000001
    vertex 91.08757884126108 0.28499100427167084 15.88000000000001
  endloop
endfacet
facet normal 0.0 0.0 1.0
  outer loop
    vertex 91.08031985846756 0.7140933575105365 15.88000000000001
    vertex 91.08757884126108 0.28499100427167084 15.88000000000001
    vertex 91.57367765198983 0.6695273150004151 15.88000000000001
  endloop
endfacet
facet normal 0.0 0.0 1.0
  outer loop
    vertex 91.57367765198983 0.6695273150004151 15.88000000000001
    vertex 91.08757884126108 0.28499100427167084 15.88000000000001
    vertex 91.1694519434878 0.2870627401016303 15.88000000000001
  endloop
endfacet
facet normal 0.0 0.0 1.0
  outer loop
    vertex 91.57367765198983 0.6695273150004151 15.88000000000001
    vertex 91.1694519434878 0.2870627401016303 15.88000000000001
    vertex 91.35603468640278 0.2611581348384719 15.88000000000001
  endloop
endfacet
facet normal 0.0 0.0 1.0
  outer loop
    vertex 91.57367765198983 0.6695273150004151 15.88000000000001
    vertex 91.35603468640278 0.2611581348384719 15.88000000000001
    vertex 91.52496813781978 0.17825707208543548 15.88000000000001
  endloop
endfacet
facet normal 0.0 0.0 1.0
  outer loop
    vertex 91.57367765198983 0.6695273150004151 15.88000000000001
    vertex 91.52496813781978 0.17825707208543548 15.88000000000001
    vertex 91.64830758620035 0.03212852957531459 15.88000000000001
  endloop
endfacet
facet normal 0.0 0.0 1.0
  outer loop
    vertex 91.57367765198983 0.6695273150004151 15.88000000000001
    vertex 91.64830758620035 0.03212852957531459 15.88000000000001
    vertex 91.79598993058293 0.6104512142919135 15.88000000000001
  endloop
endfacet
facet normal 0.0 0.0 1.0
  outer loop
    vertex 91.79598993058293 0.6104512142919135 15.88000000000001
    vertex 91.64830758620035 0.03212852957531459 15.88000000000001
    vertex 91.69598913984407 -0.18345851495909868 15.88000000000001
  endloop
endfacet
facet normal 0.0 0.0 1.0
  outer loop
    vertex 91.02642309733395 -2.4180232922870335 15.88000000000001
    vertex 90.29884845158496 0.1979306550813874 15.88000000000001
    vertex 90.29884845158496 -2.4180232922870335 15.88000000000001
  endloop
endfacet
facet normal 0.0 0.0 1.0
  outer loop
    vertex 90.29884845158496 0.1979306550813874 15.88000000000001
    vertex 91.02642309733395 -2.4180232922870335 15.88000000000001
    vertex 90.42944688275905 0.6736707866603354 15.88000000000001
  endloop
endfacet
facet normal 0.0 0.0 1.0
  outer loop
    vertex 90.42944688275905 0.6736707866603354 15.88000000000001
    vertex 91.02642309733395 -2.4180232922870335 15.88000000000001
    vertex 90.66367954976309 0.6954319202635735 15.88000000000001
  endloop
endfacet
facet normal 0.0 0.0 1.0
  outer loop
    vertex 90.66367954976309 0.6954319202635735 15.88000000000001
    vertex 91.02642309733395 -2.4180232922870335 15.88000000000001
    vertex 90.89065323397362 0.7089061105469738 15.88000000000001
  endloop
endfacet
facet normal 0.0 0.0 1.0
  outer loop
    vertex 90.89065323397362 0.7089061105469738 15.88000000000001
    vertex 91.02642309733395 -2.4180232922870335 15.88000000000001
    vertex 90.9932753240546 0.2767198757291613 15.88000000000001
  endloop
endfacet
facet normal 0.0 0.0 1.0
  outer loop
    vertex 90.9932753240546 0.2767198757291613 15.88000000000001
    vertex 91.02642309733395 -2.4180232922870335 15.88000000000001
    vertex 91.02642309733395 -0.07566499269189134 15.88000000000001
  endloop
endfacet
facet normal 0.0 0.0 1.0
  outer loop
    vertex 91.02642309733395 -0.07566499269189134 15.88000000000001
    vertex 91.02642309733395 -2.4180232922870335 15.88000000000001
    vertex 91.02642309733395 -1.1888039096959404 15.88000000000001
  endloop
endfacet
facet normal 0.0 0.0 1.0
  outer loop
    vertex 91.02642309733395 -0.07566499269189134 15.88000000000001
    vertex 91.02642309733395 -1.1888039096959404 15.88000000000001
    vertex 91.02642309733395 -0.7514304279145646 15.88000000000001
  endloop
endfacet
facet normal 0.0 0.0 1.0
  outer loop
    vertex 90.42944688275905 0.6736707866603354 15.88000000000001
    vertex 90.22009086049185 0.6456786307898894 15.88000000000001
    vertex 90.29884845158496 0.1979306550813874 15.88000000000001
  endloop
endfacet
facet normal -1.0 0.0 0.0
  outer loop
    vertex 93.38371054672666 0.21867964293563807 15.88000000000001
    vertex 93.38371054672666 -2.4180232922870335 15.019999999999998
    vertex 93.38371054672666 -2.4180232922870335 15.88000000000001
  endloop
endfacet
facet normal -1.0 0.0 0.0
  outer loop
    vertex 93.38371054672666 -2.4180232922870335 15.019999999999998
    vertex 93.38371054672666 0.21867964293563807 15.88000000000001
    vertex 93.38371054672666 0.21867964293563807 15.019999999999996
  endloop
endfacet
facet normal 0.0 -1.0 0.0
  outer loop
    vertex 93.38371054672666 0.21867964293563807 15.88000000000001
    vertex 92.56700381595743 0.21867964293563807 15.019999999999996
    vertex 93.38371054672666 0.21867964293563807 15.019999999999996
  endloop
endfacet
facet normal 0.0 -1.0 0.0
  outer loop
    vertex 92.56700381595743 0.21867964293563807 15.019999999999996
    vertex 93.38371054672666 0.21867964293563807 15.88000000000001
    vertex 92.56700381595743 0.21867964293563807 15.88000000000001
  endloop
endfacet
facet normal -1.0 0.0 0.0
  outer loop
    vertex 92.56700381595743 0.6912884486036546 15.88000000000001
    vertex 92.56700381595743 0.21867964293563807 15.019999999999996
    vertex 92.56700381595743 0.21867964293563807 15.88000000000001
  endloop
endfacet
facet normal -1.0 0.0 0.0
  outer loop
    vertex 92.56700381595743 0.21867964293563807 15.019999999999996
    vertex 92.56700381595743 0.6912884486036546 15.88000000000001
    vertex 92.56700381595743 0.6912884486036546 15.019999999999992
  endloop
endfacet
facet normal 0.0 1.0 0.0
  outer loop
    vertex 92.56700381595743 0.6912884486036546 15.019999999999992
    vertex 94.91970497992504 0.6912884486036546 15.88000000000001
    vertex 94.91970497992504 0.6912884486036546 15.01999999999999
  endloop
endfacet
facet normal 0.0 1.0 0.0
  outer loop
    vertex 94.91970497992504 0.6912884486036546 15.88000000000001
    vertex 92.56700381595743 0.6912884486036546 15.019999999999992
    vertex 92.56700381595743 0.6912884486036546 15.88000000000001
  endloop
endfacet
facet normal 1.0 0.0 0.0
  outer loop
    vertex 94.91970497992504 0.6912884486036546 15.01999999999999
    vertex 94.91970497992504 0.21867964293563807 15.88000000000001
    vertex 94.91970497992504 0.21867964293563807 15.019999999999992
  endloop
endfacet
facet normal 1.0 0.0 0.0
  outer loop
    vertex 94.91970497992504 0.21867964293563807 15.88000000000001
    vertex 94.91970497992504 0.6912884486036546 15.01999999999999
    vertex 94.91970497992504 0.6912884486036546 15.88000000000001
  endloop
endfacet
facet normal 0.0 -1.0 0.0
  outer loop
    vertex 94.91970497992504 0.21867964293563807 15.88000000000001
    vertex 94.11128519247565 0.21867964293563807 15.019999999999992
    vertex 94.91970497992504 0.21867964293563807 15.019999999999992
  endloop
endfacet
facet normal 0.0 -1.0 0.0
  outer loop
    vertex 94.11128519247565 0.21867964293563807 15.019999999999992
    vertex 94.91970497992504 0.21867964293563807 15.88000000000001
    vertex 94.11128519247565 0.21867964293563807 15.88000000000001
  endloop
endfacet
facet normal 1.0 0.0 0.0
  outer loop
    vertex 94.11128519247565 0.21867964293563807 15.019999999999992
    vertex 94.11128519247565 -2.4180232922870335 15.88000000000001
    vertex 94.11128519247565 -2.4180232922870335 15.019999999999996
  endloop
endfacet
facet normal 1.0 0.0 0.0
  outer loop
    vertex 94.11128519247565 -2.4180232922870335 15.88000000000001
    vertex 94.11128519247565 0.21867964293563807 15.019999999999992
    vertex 94.11128519247565 0.21867964293563807 15.88000000000001
  endloop
endfacet
facet normal 0.0 -1.0 0.0
  outer loop
    vertex 94.11128519247565 -2.4180232922870335 15.88000000000001
    vertex 93.38371054672666 -2.4180232922870335 15.019999999999998
    vertex 94.11128519247565 -2.4180232922870335 15.019999999999996
  endloop
endfacet
facet normal 0.0 -1.0 0.0
  outer loop
    vertex 93.38371054672666 -2.4180232922870335 15.019999999999998
    vertex 94.11128519247565 -2.4180232922870335 15.88000000000001
    vertex 93.38371054672666 -2.4180232922870335 15.88000000000001
  endloop
endfacet
facet normal 0.0 0.0 1.0
  outer loop
    vertex 94.11128519247565 -2.4180232922870335 15.88000000000001
    vertex 93.38371054672666 0.21867964293563807 15.88000000000001
    vertex 93.38371054672666 -2.4180232922870335 15.88000000000001
  endloop
endfacet
facet normal 0.0 0.0 1.0
  outer loop
    vertex 93.38371054672666 0.21867964293563807 15.88000000000001
    vertex 92.56700381595743 0.6912884486036546 15.88000000000001
    vertex 92.56700381595743 0.21867964293563807 15.88000000000001
  endloop
endfacet
facet normal 0.0 0.0 1.0
  outer loop
    vertex 92.56700381595743 0.6912884486036546 15.88000000000001
    vertex 93.38371054672666 0.21867964293563807 15.88000000000001
    vertex 94.91970497992504 0.6912884486036546 15.88000000000001
  endloop
endfacet
facet normal 0.0 0.0 1.0
  outer loop
    vertex 94.91970497992504 0.6912884486036546 15.88000000000001
    vertex 93.38371054672666 0.21867964293563807 15.88000000000001
    vertex 94.11128519247565 0.21867964293563807 15.88000000000001
  endloop
endfacet
facet normal 0.0 0.0 1.0
  outer loop
    vertex 94.11128519247565 0.21867964293563807 15.88000000000001
    vertex 93.38371054672666 0.21867964293563807 15.88000000000001
    vertex 94.11128519247565 -2.4180232922870335 15.88000000000001
  endloop
endfacet
facet normal 0.0 0.0 1.0
  outer loop
    vertex 94.91970497992504 0.6912884486036546 15.88000000000001
    vertex 94.11128519247565 0.21867964293563807 15.88000000000001
    vertex 94.91970497992504 0.21867964293563807 15.88000000000001
  endloop
endfacet
facet normal -2.452144767432951e-16 5.936771542206098e-16 -1.0
  outer loop
    vertex 96.29075035582667 1.4500000000000057 12.999999999999993
    vertex 84.79075035582666 -3.2999999999999954 12.999999999999993
    vertex 84.79075035582666 1.4500000000000057 12.999999999999998
  endloop
endfacet
facet normal -2.452144767432951e-16 5.936771542206098e-16 -1.0
  outer loop
    vertex 84.79075035582666 -3.2999999999999954 12.999999999999993
    vertex 96.29075035582667 1.4500000000000057 12.999999999999993
    vertex 96.29075035582667 -3.2999999999999954 12.999999999999993
  endloop
endfacet
facet normal 0.0 -1.0 0.0
  outer loop
    vertex 96.29075035582666 2.4500000000000055 14.999999999999993
    vertex 84.79075035582666 2.4500000000000055 12.999999999999993
    vertex 96.29075035582666 2.4500000000000055 12.999999999999993
  endloop
endfacet
facet normal 0.0 -1.0 0.0
  outer loop
    vertex 84.79075035582666 2.4500000000000055 12.999999999999993
    vertex 96.29075035582666 2.4500000000000055 14.999999999999993
    vertex 84.79075035582666 2.4500000000000055 14.999999999999993
  endloop
endfacet
facet normal -1.0 -3.959924844093353e-31 -3.4379077955965425e-33
  outer loop
    vertex 84.79075035582666 3.8000000000000043 15.859999999999996
    vertex 84.79075035582666 3.0000000000000044 14.999999999999993
    vertex 84.79075035582666 3.0000000000000044 15.859999999999996
  endloop
endfacet
facet normal -1.0 -3.959924844093353e-31 -3.4379077955965425e-33
  outer loop
    vertex 84.79075035582666 5.200000000000005 15.859999999999996
    vertex 84.79075035582666 4.400000000000005 14.999999999999993
    vertex 84.79075035582666 4.400000000000005 15.859999999999996
  endloop
endfacet
facet normal -1.0 -3.959924844093353e-31 -3.4379077955965425e-33
  outer loop
    vertex 84.79075035582666 6.600000000000005 15.859999999999996
    vertex 84.79075035582666 5.800000000000005 14.999999999999993
    vertex 84.79075035582666 5.800000000000005 15.859999999999996
  endloop
endfacet
facet normal -1.0 -3.959924844093353e-31 -3.4379077955965425e-33
  outer loop
    vertex 84.79075035582666 3.0000000000000044 14.999999999999993
    vertex 84.79075035582666 2.4500000000000055 12.999999999999993
    vertex 84.79075035582666 2.4500000000000055 14.999999999999993
  endloop
endfacet
facet normal -1.0 -3.959924844093353e-31 -3.4379077955965425e-33
  outer loop
    vertex 84.79075035582666 2.4500000000000055 12.999999999999993
    vertex 84.79075035582666 3.0000000000000044 14.999999999999993
    vertex 84.79075035582666 7.2000000000000055 12.999999999999993
  endloop
endfacet
facet normal -1.0 -3.959924844093353e-31 -3.4379077955965425e-33
  outer loop
    vertex 84.79075035582666 7.2000000000000055 12.999999999999993
    vertex 84.79075035582666 3.0000000000000044 14.999999999999993
    vertex 84.79075035582666 3.8000000000000043 14.999999999999993
  endloop
endfacet
facet normal -1.0 -3.959924844093353e-31 -3.4379077955965425e-33
  outer loop
    vertex 84.79075035582666 3.8000000000000043 14.999999999999993
    vertex 84.79075035582666 3.0000000000000044 14.999999999999993
    vertex 84.79075035582666 3.8000000000000043 15.859999999999996
  endloop
endfacet
facet normal -1.0 -3.959924844093353e-31 -3.4379077955965425e-33
  outer loop
    vertex 84.79075035582666 7.2000000000000055 12.999999999999993
    vertex 84.79075035582666 3.8000000000000043 14.999999999999993
    vertex 84.79075035582666 4.400000000000005 14.999999999999993
  endloop
endfacet
facet normal -1.0 -3.959924844093353e-31 -3.4379077955965425e-33
  outer loop
    vertex 84.79075035582666 7.2000000000000055 12.999999999999993
    vertex 84.79075035582666 4.400000000000005 14.999999999999993
    vertex 84.79075035582666 5.200000000000005 14.999999999999993
  endloop
endfacet
facet normal -1.0 -3.959924844093353e-31 -3.4379077955965425e-33
  outer loop
    vertex 84.79075035582666 5.200000000000005 14.999999999999993
    vertex 84.79075035582666 4.400000000000005 14.999999999999993
    vertex 84.79075035582666 5.200000000000005 15.859999999999996
  endloop
endfacet
facet normal -1.0 -3.959924844093353e-31 -3.4379077955965425e-33
  outer loop
    vertex 84.79075035582666 7.2000000000000055 12.999999999999993
    vertex 84.79075035582666 5.200000000000005 14.999999999999993
    vertex 84.79075035582666 5.800000000000005 14.999999999999993
  endloop
endfacet
facet normal -1.0 -3.959924844093353e-31 -3.4379077955965425e-33
  outer loop
    vertex 84.79075035582666 7.2000000000000055 12.999999999999993
    vertex 84.79075035582666 5.800000000000005 14.999999999999993
    vertex 84.79075035582666 6.600000000000005 14.999999999999993
  endloop
endfacet
facet normal -1.0 -3.959924844093353e-31 -3.4379077955965425e-33
  outer loop
    vertex 84.79075035582666 6.600000000000005 14.999999999999993
    vertex 84.79075035582666 5.800000000000005 14.999999999999993
    vertex 84.79075035582666 6.600000000000005 15.859999999999996
  endloop
endfacet
facet normal -1.0 -3.959924844093353e-31 -3.4379077955965425e-33
  outer loop
    vertex 84.79075035582666 7.2000000000000055 12.999999999999993
    vertex 84.79075035582666 6.600000000000005 14.999999999999993
    vertex 84.79075035582666 7.2000000000000055 14.999999999999993
  endloop
endfacet
facet normal 1.0 0.0 0.0
  outer loop
    vertex 96.29075035582666 7.2000000000000055 12.999999999999993
    vertex 96.29075035582666 2.4500000000000055 14.999999999999993
    vertex 96.29075035582666 2.4500000000000055 12.999999999999993
  endloop
endfacet
facet normal 1.0 0.0 0.0
  outer loop
    vertex 96.29075035582666 2.4500000000000055 14.999999999999993
    vertex 96.29075035582666 7.2000000000000055 12.999999999999993
    vertex 96.29075035582666 3.0000000000000044 14.999999999999993
  endloop
endfacet
facet normal 1.0 0.0 0.0
  outer loop
    vertex 96.29075035582666 3.0000000000000044 14.999999999999993
    vertex 96.29075035582666 7.2000000000000055 12.999999999999993
    vertex 96.29075035582666 3.8000000000000043 14.999999999999993
  endloop
endfacet
facet normal 1.0 0.0 0.0
  outer loop
    vertex 96.29075035582666 3.0000000000000044 14.999999999999993
    vertex 96.29075035582666 3.8000000000000043 14.999999999999993
    vertex 96.29075035582666 3.0000000000000044 15.859999999999996
  endloop
endfacet
facet normal 1.0 0.0 0.0
  outer loop
    vertex 96.29075035582666 3.8000000000000043 14.999999999999993
    vertex 96.29075035582666 7.2000000000000055 12.999999999999993
    vertex 96.29075035582666 4.400000000000005 14.999999999999993
  endloop
endfacet
facet normal 1.0 0.0 0.0
  outer loop
    vertex 96.29075035582666 4.400000000000005 14.999999999999993
    vertex 96.29075035582666 7.2000000000000055 12.999999999999993
    vertex 96.29075035582666 5.200000000000005 14.999999999999993
  endloop
endfacet
facet normal 1.0 0.0 0.0
  outer loop
    vertex 96.29075035582666 4.400000000000005 14.999999999999993
    vertex 96.29075035582666 5.200000000000005 14.999999999999993
    vertex 96.29075035582666 4.400000000000005 15.859999999999996
  endloop
endfacet
facet normal 1.0 0.0 0.0
  outer loop
    vertex 96.29075035582666 5.200000000000005 14.999999999999993
    vertex 96.29075035582666 7.2000000000000055 12.999999999999993
    vertex 96.29075035582666 5.800000000000005 14.999999999999993
  endloop
endfacet
facet normal 1.0 0.0 0.0
  outer loop
    vertex 96.29075035582666 5.800000000000005 14.999999999999993
    vertex 96.29075035582666 7.2000000000000055 12.999999999999993
    vertex 96.29075035582666 5.800000000000005 15.859999999999996
  endloop
endfacet
facet normal 1.0 0.0 0.0
  outer loop
    vertex 96.29075035582666 5.800000000000005 15.859999999999996
    vertex 96.29075035582666 7.2000000000000055 12.999999999999993
    vertex 96.29075035582666 6.600000000000005 14.999999999999993
  endloop
endfacet
facet normal 1.0 0.0 0.0
  outer loop
    vertex 96.29075035582666 6.600000000000005 14.999999999999993
    vertex 96.29075035582666 7.2000000000000055 12.999999999999993
    vertex 96.29075035582666 7.2000000000000055 14.999999999999993
  endloop
endfacet
facet normal 1.0 0.0 0.0
  outer loop
    vertex 96.29075035582666 6.600000000000005 15.859999999999996
    vertex 96.29075035582666 5.800000000000005 15.859999999999996
    vertex 96.29075035582666 6.600000000000005 14.999999999999993
  endloop
endfacet
facet normal 1.0 0.0 0.0
  outer loop
    vertex 96.29075035582666 5.200000000000005 15.859999999999996
    vertex 96.29075035582666 4.400000000000005 15.859999999999996
    vertex 96.29075035582666 5.200000000000005 14.999999999999993
  endloop
endfacet
facet normal 1.0 0.0 0.0
  outer loop
    vertex 96.29075035582666 3.8000000000000043 15.859999999999996
    vertex 96.29075035582666 3.0000000000000044 15.859999999999996
    vertex 96.29075035582666 3.8000000000000043 14.999999999999993
  endloop
endfacet
facet normal 0.0 1.0 0.0
  outer loop
    vertex 84.79075035582666 7.2000000000000055 14.999999999999993
    vertex 96.29075035582666 7.2000000000000055 12.999999999999993
    vertex 84.79075035582666 7.2000000000000055 12.999999999999993
  endloop
endfacet
facet normal 0.0 1.0 0.0
  outer loop
    vertex 96.29075035582666 7.2000000000000055 12.999999999999993
    vertex 84.79075035582666 7.2000000000000055 14.999999999999993
    vertex 96.29075035582666 7.2000000000000055 14.999999999999993
  endloop
endfacet
facet normal 0.0 5.551115123125783e-17 1.0
  outer loop
    vertex 96.29075035582666 6.600000000000005 14.999999999999993
    vertex 84.79075035582666 7.2000000000000055 14.999999999999993
    vertex 84.79075035582666 6.600000000000005 14.999999999999993
  endloop
endfacet
facet normal 0.0 5.551115123125783e-17 1.0
  outer loop
    vertex 84.79075035582666 7.2000000000000055 14.999999999999993
    vertex 96.29075035582666 6.600000000000005 14.999999999999993
    vertex 96.29075035582666 7.2000000000000055 14.999999999999993
  endloop
endfacet
facet normal 0.0 5.551115123125783e-17 1.0
  outer loop
    vertex 96.29075035582666 5.800000000000005 15.859999999999996
    vertex 84.79075035582666 6.600000000000005 15.859999999999996
    vertex 84.79075035582666 5.800000000000005 15.859999999999996
  endloop
endfacet
facet normal 0.0 5.551115123125783e-17 1.0
  outer loop
    vertex 84.79075035582666 6.600000000000005 15.859999999999996
    vertex 96.29075035582666 5.800000000000005 15.859999999999996
    vertex 96.29075035582666 6.600000000000005 15.859999999999996
  endloop
endfacet
facet normal 0.0 1.0 -5.551115123125783e-17
  outer loop
    vertex 84.79075035582666 6.600000000000005 15.859999999999996
    vertex 96.29075035582666 6.600000000000005 14.999999999999993
    vertex 84.79075035582666 6.600000000000005 14.999999999999993
  endloop
endfacet
facet normal 0.0 1.0 -5.551115123125783e-17
  outer loop
    vertex 96.29075035582666 6.600000000000005 14.999999999999993
    vertex 84.79075035582666 6.600000000000005 15.859999999999996
    vertex 96.29075035582666 6.600000000000005 15.859999999999996
  endloop
endfacet
facet normal 0.0 -1.0 5.551115123125783e-17
  outer loop
    vertex 96.29075035582666 5.800000000000005 15.859999999999996
    vertex 84.79075035582666 5.800000000000005 14.999999999999993
    vertex 96.29075035582666 5.800000000000005 14.999999999999993
  endloop
endfacet
facet normal 0.0 -1.0 5.551115123125783e-17
  outer loop
    vertex 84.79075035582666 5.800000000000005 14.999999999999993
    vertex 96.29075035582666 5.800000000000005 15.859999999999996
    vertex 84.79075035582666 5.800000000000005 15.859999999999996
  endloop
endfacet
facet normal 0.0 5.551115123125783e-17 1.0
  outer loop
    vertex 96.29075035582666 5.200000000000005 14.999999999999993
    vertex 84.79075035582666 5.800000000000005 14.999999999999993
    vertex 84.79075035582666 5.200000000000005 14.999999999999993
  endloop
endfacet
facet normal 0.0 5.551115123125783e-17 1.0
  outer loop
    vertex 84.79075035582666 5.800000000000005 14.999999999999993
    vertex 96.29075035582666 5.200000000000005 14.999999999999993
    vertex 96.29075035582666 5.800000000000005 14.999999999999993
  endloop
endfacet
facet normal 0.0 -1.0 5.551115123125783e-17
  outer loop
    vertex 96.29075035582666 4.400000000000005 15.859999999999996
    vertex 84.79075035582666 4.400000000000005 14.999999999999993
    vertex 96.29075035582666 4.400000000000005 14.999999999999993
  endloop
endfacet
facet normal 0.0 -1.0 5.551115123125783e-17
  outer loop
    vertex 84.79075035582666 4.400000000000005 14.999999999999993
    vertex 96.29075035582666 4.400000000000005 15.859999999999996
    vertex 84.79075035582666 4.400000000000005 15.859999999999996
  endloop
endfacet
facet normal 0.0 5.551115123125783e-17 1.0
  outer loop
    vertex 96.29075035582666 4.400000000000005 15.859999999999996
    vertex 84.79075035582666 5.200000000000005 15.859999999999996
    vertex 84.79075035582666 4.400000000000005 15.859999999999996
  endloop
endfacet
facet normal 0.0 5.551115123125783e-17 1.0
  outer loop
    vertex 84.79075035582666 5.200000000000005 15.859999999999996
    vertex 96.29075035582666 4.400000000000005 15.859999999999996
    vertex 96.29075035582666 5.200000000000005 15.859999999999996
  endloop
endfacet
facet normal 0.0 1.0 -5.551115123125783e-17
  outer loop
    vertex 84.79075035582666 5.200000000000005 15.859999999999996
    vertex 96.29075035582666 5.200000000000005 14.999999999999993
    vertex 84.79075035582666 5.200000000000005 14.999999999999993
  endloop
endfacet
facet normal 0.0 1.0 -5.551115123125783e-17
  outer loop
    vertex 96.29075035582666 5.200000000000005 14.999999999999993
    vertex 84.79075035582666 5.200000000000005 15.859999999999996
    vertex 96.29075035582666 5.200000000000005 15.859999999999996
  endloop
endfacet
facet normal 0.0 5.551115123125783e-17 1.0
  outer loop
    vertex 96.29075035582666 2.4500000000000055 14.999999999999993
    vertex 84.79075035582666 3.0000000000000044 14.999999999999993
    vertex 84.79075035582666 2.4500000000000055 14.999999999999993
  endloop
endfacet
facet normal 0.0 5.551115123125783e-17 1.0
  outer loop
    vertex 84.79075035582666 3.0000000000000044 14.999999999999993
    vertex 96.29075035582666 2.4500000000000055 14.999999999999993
    vertex 96.29075035582666 3.0000000000000044 14.999999999999993
  endloop
endfacet
facet normal 0.0 5.551115123125783e-17 1.0
  outer loop
    vertex 96.29075035582666 3.8000000000000043 14.999999999999993
    vertex 84.79075035582666 4.400000000000005 14.999999999999993
    vertex 84.79075035582666 3.8000000000000043 14.999999999999993
  endloop
endfacet
facet normal 0.0 5.551115123125783e-17 1.0
  outer loop
    vertex 84.79075035582666 4.400000000000005 14.999999999999993
    vertex 96.29075035582666 3.8000000000000043 14.999999999999993
    vertex 96.29075035582666 4.400000000000005 14.999999999999993
  endloop
endfacet
facet normal 0.0 5.551115123125783e-17 1.0
  outer loop
    vertex 96.29075035582666 3.0000000000000044 15.859999999999996
    vertex 84.79075035582666 3.8000000000000043 15.859999999999996
    vertex 84.79075035582666 3.0000000000000044 15.859999999999996
  endloop
endfacet
facet normal 0.0 5.551115123125783e-17 1.0
  outer loop
    vertex 84.79075035582666 3.8000000000000043 15.859999999999996
    vertex 96.29075035582666 3.0000000000000044 15.859999999999996
    vertex 96.29075035582666 3.8000000000000043 15.859999999999996
  endloop
endfacet
facet normal 0.0 -1.0 5.551115123125783e-17
  outer loop
    vertex 96.29075035582666 3.0000000000000044 15.859999999999996
    vertex 84.79075035582666 3.0000000000000044 14.999999999999993
    vertex 96.29075035582666 3.0000000000000044 14.999999999999993
  endloop
endfacet
facet normal 0.0 -1.0 5.551115123125783e-17
  outer loop
    vertex 84.79075035582666 3.0000000000000044 14.999999999999993
    vertex 96.29075035582666 3.0000000000000044 15.859999999999996
    vertex 84.79075035582666 3.0000000000000044 15.859999999999996
  endloop
endfacet
facet normal 0.0 1.0 -5.551115123125783e-17
  outer loop
    vertex 84.79075035582666 3.8000000000000043 15.859999999999996
    vertex 96.29075035582666 3.8000000000000043 14.999999999999993
    vertex 84.79075035582666 3.8000000000000043 14.999999999999993
  endloop
endfacet
facet normal 0.0 1.0 -5.551115123125783e-17
  outer loop
    vertex 96.29075035582666 3.8000000000000043 14.999999999999993
    vertex 84.79075035582666 3.8000000000000043 15.859999999999996
    vertex 96.29075035582666 3.8000000000000043 15.859999999999996
  endloop
endfacet
facet normal 0.0 0.0 -1.0
  outer loop
    vertex 96.29075035582666 7.2000000000000055 12.999999999999993
    vertex 84.79075035582666 2.4500000000000055 12.999999999999993
    vertex 84.79075035582666 7.2000000000000055 12.999999999999993
  endloop
endfacet
facet normal 0.0 0.0 -1.0
  outer loop
    vertex 84.79075035582666 2.4500000000000055 12.999999999999993
    vertex 96.29075035582666 7.2000000000000055 12.999999999999993
    vertex 96.29075035582666 2.4500000000000055 12.999999999999993
  endloop
endfacet
endsolid Korry19x16_button_V5
