solid Korry19x16_button_V5
facet normal 0.0 -1.0 5.551115123125783e-17
  outer loop
    vertex 96.29075035582666 4.4 15.860000000000015
    vertex 84.79075035582666 4.4 16.000000000000014
    vertex 84.79075035582666 4.4 15.860000000000015
  endloop
endfacet
facet normal 0.0 -1.0 5.551115123125783e-17
  outer loop
    vertex 84.79075035582666 4.4 16.000000000000014
    vertex 96.29075035582666 4.4 15.860000000000015
    vertex 96.29075035582666 4.4 16.000000000000014
  endloop
endfacet
facet normal 0.0 1.0 -5.551115123125783e-17
  outer loop
    vertex 96.29075035582666 5.2 16.000000000000014
    vertex 84.79075035582666 5.2 15.860000000000015
    vertex 84.79075035582666 5.2 16.000000000000014
  endloop
endfacet
facet normal 0.0 1.0 -5.551115123125783e-17
  outer loop
    vertex 84.79075035582666 5.2 15.860000000000015
    vertex 96.29075035582666 5.2 16.000000000000014
    vertex 96.29075035582666 5.2 15.860000000000015
  endloop
endfacet
facet normal -1.0 0.0 0.0
  outer loop
    vertex 84.79075035582666 5.2 15.860000000000015
    vertex 84.79075035582666 4.4 16.000000000000014
    vertex 84.79075035582666 5.2 16.000000000000014
  endloop
endfacet
facet normal -1.0 0.0 0.0
  outer loop
    vertex 84.79075035582666 4.4 16.000000000000014
    vertex 84.79075035582666 5.2 15.860000000000015
    vertex 84.79075035582666 4.4 15.860000000000015
  endloop
endfacet
facet normal 0.0 5.551115123125783e-17 1.0
  outer loop
    vertex 96.29075035582666 5.2 16.000000000000014
    vertex 84.79075035582666 4.4 16.000000000000014
    vertex 96.29075035582666 4.4 16.000000000000014
  endloop
endfacet
facet normal 0.0 5.551115123125783e-17 1.0
  outer loop
    vertex 84.79075035582666 4.4 16.000000000000014
    vertex 96.29075035582666 5.2 16.000000000000014
    vertex 84.79075035582666 5.2 16.000000000000014
  endloop
endfacet
facet normal 1.0 0.0 0.0
  outer loop
    vertex 96.29075035582666 4.4 15.860000000000015
    vertex 96.29075035582666 5.2 16.000000000000014
    vertex 96.29075035582666 4.4 16.000000000000014
  endloop
endfacet
facet normal 1.0 0.0 0.0
  outer loop
    vertex 96.29075035582666 5.2 16.000000000000014
    vertex 96.29075035582666 4.4 15.860000000000015
    vertex 96.29075035582666 5.2 15.860000000000015
  endloop
endfacet
facet normal 0.0 -5.551115123125783e-17 -1.0
  outer loop
    vertex 84.79075035582666 5.2 15.860000000000015
    vertex 96.29075035582666 4.4 15.860000000000015
    vertex 84.79075035582666 4.4 15.860000000000015
  endloop
endfacet
facet normal 0.0 -5.551115123125783e-17 -1.0
  outer loop
    vertex 96.29075035582666 4.4 15.860000000000015
    vertex 84.79075035582666 5.2 15.860000000000015
    vertex 96.29075035582666 5.2 15.860000000000015
  endloop
endfacet
facet normal 0.0 -1.0 5.551115123125783e-17
  outer loop
    vertex 96.29075035582666 5.800000000000001 15.860000000000015
    vertex 84.79075035582666 5.800000000000001 16.000000000000014
    vertex 84.79075035582666 5.800000000000001 15.860000000000015
  endloop
endfacet
facet normal 0.0 -1.0 5.551115123125783e-17
  outer loop
    vertex 84.79075035582666 5.800000000000001 16.000000000000014
    vertex 96.29075035582666 5.800000000000001 15.860000000000015
    vertex 96.29075035582666 5.800000000000001 16.000000000000014
  endloop
endfacet
facet normal -1.0 0.0 0.0
  outer loop
    vertex 84.79075035582666 6.6000000000000005 15.860000000000015
    vertex 84.79075035582666 5.800000000000001 16.000000000000014
    vertex 84.79075035582666 6.6000000000000005 16.000000000000014
  endloop
endfacet
facet normal -1.0 0.0 0.0
  outer loop
    vertex 84.79075035582666 5.800000000000001 16.000000000000014
    vertex 84.79075035582666 6.6000000000000005 15.860000000000015
    vertex 84.79075035582666 5.800000000000001 15.860000000000015
  endloop
endfacet
facet normal 1.0 0.0 0.0
  outer loop
    vertex 96.29075035582666 5.800000000000001 15.860000000000015
    vertex 96.29075035582666 6.6000000000000005 16.000000000000014
    vertex 96.29075035582666 5.800000000000001 16.000000000000014
  endloop
endfacet
facet normal 1.0 0.0 0.0
  outer loop
    vertex 96.29075035582666 6.6000000000000005 16.000000000000014
    vertex 96.29075035582666 5.800000000000001 15.860000000000015
    vertex 96.29075035582666 6.6000000000000005 15.860000000000015
  endloop
endfacet
facet normal 0.0 1.0 -5.551115123125783e-17
  outer loop
    vertex 96.29075035582666 6.6000000000000005 16.000000000000014
    vertex 84.79075035582666 6.6000000000000005 15.860000000000015
    vertex 84.79075035582666 6.6000000000000005 16.000000000000014
  endloop
endfacet
facet normal 0.0 1.0 -5.551115123125783e-17
  outer loop
    vertex 84.79075035582666 6.6000000000000005 15.860000000000015
    vertex 96.29075035582666 6.6000000000000005 16.000000000000014
    vertex 96.29075035582666 6.6000000000000005 15.860000000000015
  endloop
endfacet
facet normal 0.0 5.551115123125783e-17 1.0
  outer loop
    vertex 96.29075035582666 6.6000000000000005 16.000000000000014
    vertex 84.79075035582666 5.800000000000001 16.000000000000014
    vertex 96.29075035582666 5.800000000000001 16.000000000000014
  endloop
endfacet
facet normal 0.0 5.551115123125783e-17 1.0
  outer loop
    vertex 84.79075035582666 5.800000000000001 16.000000000000014
    vertex 96.29075035582666 6.6000000000000005 16.000000000000014
    vertex 84.79075035582666 6.6000000000000005 16.000000000000014
  endloop
endfacet
facet normal 0.0 -5.551115123125783e-17 -1.0
  outer loop
    vertex 84.79075035582666 6.6000000000000005 15.860000000000015
    vertex 96.29075035582666 5.800000000000001 15.860000000000015
    vertex 84.79075035582666 5.800000000000001 15.860000000000015
  endloop
endfacet
facet normal 0.0 -5.551115123125783e-17 -1.0
  outer loop
    vertex 96.29075035582666 5.800000000000001 15.860000000000015
    vertex 84.79075035582666 6.6000000000000005 15.860000000000015
    vertex 96.29075035582666 6.6000000000000005 15.860000000000015
  endloop
endfacet
facet normal 0.0 5.551115123125783e-17 1.0
  outer loop
    vertex 96.29075035582666 3.8000000000000003 16.000000000000014
    vertex 84.79075035582666 3.0 16.000000000000014
    vertex 96.29075035582666 3.0 16.000000000000014
  endloop
endfacet
facet normal 0.0 5.551115123125783e-17 1.0
  outer loop
    vertex 84.79075035582666 3.0 16.000000000000014
    vertex 96.29075035582666 3.8000000000000003 16.000000000000014
    vertex 84.79075035582666 3.8000000000000003 16.000000000000014
  endloop
endfacet
facet normal 0.0 1.0 -5.551115123125783e-17
  outer loop
    vertex 96.29075035582666 3.8000000000000003 16.000000000000014
    vertex 84.79075035582666 3.8000000000000003 15.860000000000015
    vertex 84.79075035582666 3.8000000000000003 16.000000000000014
  endloop
endfacet
facet normal 0.0 1.0 -5.551115123125783e-17
  outer loop
    vertex 84.79075035582666 3.8000000000000003 15.860000000000015
    vertex 96.29075035582666 3.8000000000000003 16.000000000000014
    vertex 96.29075035582666 3.8000000000000003 15.860000000000015
  endloop
endfacet
facet normal -1.0 0.0 0.0
  outer loop
    vertex 84.79075035582666 3.8000000000000003 15.860000000000015
    vertex 84.79075035582666 3.0 16.000000000000014
    vertex 84.79075035582666 3.8000000000000003 16.000000000000014
  endloop
endfacet
facet normal -1.0 0.0 0.0
  outer loop
    vertex 84.79075035582666 3.0 16.000000000000014
    vertex 84.79075035582666 3.8000000000000003 15.860000000000015
    vertex 84.79075035582666 3.0 15.860000000000015
  endloop
endfacet
facet normal 0.0 -1.0 5.551115123125783e-17
  outer loop
    vertex 96.29075035582666 3.0 15.860000000000015
    vertex 84.79075035582666 3.0 16.000000000000014
    vertex 84.79075035582666 3.0 15.860000000000015
  endloop
endfacet
facet normal 0.0 -1.0 5.551115123125783e-17
  outer loop
    vertex 84.79075035582666 3.0 16.000000000000014
    vertex 96.29075035582666 3.0 15.860000000000015
    vertex 96.29075035582666 3.0 16.000000000000014
  endloop
endfacet
facet normal 1.0 0.0 0.0
  outer loop
    vertex 96.29075035582666 3.0 15.860000000000015
    vertex 96.29075035582666 3.8000000000000003 16.000000000000014
    vertex 96.29075035582666 3.0 16.000000000000014
  endloop
endfacet
facet normal 1.0 0.0 0.0
  outer loop
    vertex 96.29075035582666 3.8000000000000003 16.000000000000014
    vertex 96.29075035582666 3.0 15.860000000000015
    vertex 96.29075035582666 3.8000000000000003 15.860000000000015
  endloop
endfacet
facet normal 0.0 -5.551115123125783e-17 -1.0
  outer loop
    vertex 84.79075035582666 3.8000000000000003 15.860000000000015
    vertex 96.29075035582666 3.0 15.860000000000015
    vertex 84.79075035582666 3.0 15.860000000000015
  endloop
endfacet
facet normal 0.0 -5.551115123125783e-17 -1.0
  outer loop
    vertex 96.29075035582666 3.0 15.860000000000015
    vertex 84.79075035582666 3.8000000000000003 15.860000000000015
    vertex 96.29075035582666 3.8000000000000003 15.860000000000015
  endloop
endfacet
facet normal 0.0 0.0 -1.0
  outer loop
    vertex 86.79489475725298 0.7451852097372565 15.860000000000015
    vertex 86.8798833706133 -2.418023292287035 15.860000000000015
    vertex 86.11084237871047 0.6747145619639774 15.860000000000015
  endloop
endfacet
facet normal 0.0 0.0 -1.0
  outer loop
    vertex 86.8798833706133 -2.418023292287035 15.860000000000015
    vertex 86.79489475725298 0.7451852097372565 15.860000000000015
    vertex 87.1389926823542 -0.6353499623275206 15.860000000000015
  endloop
endfacet
facet normal 0.0 0.0 -1.0
  outer loop
    vertex 86.8798833706133 -2.418023292287035 15.860000000000015
    vertex 87.1389926823542 -0.6353499623275206 15.860000000000015
    vertex 87.30688235846756 -1.6324084137445247 15.860000000000015
  endloop
endfacet
facet normal 0.0 0.0 -1.0
  outer loop
    vertex 86.8798833706133 -2.418023292287035 15.860000000000015
    vertex 87.30688235846756 -1.6324084137445247 15.860000000000015
    vertex 87.61574495968212 -2.418023292287035 15.860000000000015
  endloop
endfacet
facet normal 0.0 0.0 -1.0
  outer loop
    vertex 87.61574495968212 -2.418023292287035 15.860000000000015
    vertex 87.30688235846756 -1.6324084137445247 15.860000000000015
    vertex 87.40018954470237 -0.6249754684003952 15.860000000000015
  endloop
endfacet
facet normal 0.0 0.0 -1.0
  outer loop
    vertex 87.61574495968212 -2.418023292287035 15.860000000000015
    vertex 87.40018954470237 -0.6249754684003952 15.860000000000015
    vertex 87.72768195360926 0.6912884486036536 15.860000000000015
  endloop
endfacet
facet normal 0.0 0.0 -1.0
  outer loop
    vertex 87.61574495968212 -2.418023292287035 15.860000000000015
    vertex 87.72768195360926 0.6912884486036536 15.860000000000015
    vertex 87.86865487871046 -1.3815860453234723 15.860000000000015
  endloop
endfacet
facet normal 0.0 0.0 -1.0
  outer loop
    vertex 87.86865487871046 -1.3815860453234723 15.860000000000015
    vertex 87.72768195360926 0.6912884486036536 15.860000000000015
    vertex 88.03654455482382 -0.4073325028133507 15.860000000000015
  endloop
endfacet
facet normal 0.0 0.0 -1.0
  outer loop
    vertex 88.03654455482382 -0.4073325028133507 15.860000000000015
    vertex 87.72768195360926 0.6912884486036536 15.860000000000015
    vertex 88.31637122486431 0.6912884486036536 15.860000000000015
  endloop
endfacet
facet normal 0.0 0.0 -1.0
  outer loop
    vertex 88.03654455482382 -0.4073325028133507 15.860000000000015
    vertex 88.31637122486431 0.6912884486036536 15.860000000000015
    vertex 88.12982011150399 -1.3815860453234723 15.860000000000015
  endloop
endfacet
facet normal 0.0 0.0 -1.0
  outer loop
    vertex 88.12982011150399 -1.3815860453234723 15.860000000000015
    vertex 88.31637122486431 0.6912884486036536 15.860000000000015
    vertex 88.38892942324487 -2.418023292287035 15.860000000000015
  endloop
endfacet
facet normal 0.0 0.0 -1.0
  outer loop
    vertex 88.38892942324487 -2.418023292287035 15.860000000000015
    vertex 88.31637122486431 0.6912884486036536 15.860000000000015
    vertex 88.64389526332585 -0.6270630190076828 15.860000000000015
  endloop
endfacet
facet normal 0.0 0.0 -1.0
  outer loop
    vertex 88.38892942324487 -2.418023292287035 15.860000000000015
    vertex 88.64389526332585 -0.6270630190076828 15.860000000000015
    vertex 88.81387249004649 -1.6531257720441197 15.860000000000015
  endloop
endfacet
facet normal 0.0 0.0 -1.0
  outer loop
    vertex 88.38892942324487 -2.418023292287035 15.860000000000015
    vertex 88.81387249004649 -1.6531257720441197 15.860000000000015
    vertex 89.12479101231371 -2.418023292287035 15.860000000000015
  endloop
endfacet
facet normal 0.0 0.0 -1.0
  outer loop
    vertex 89.12479101231371 -2.418023292287035 15.860000000000015
    vertex 88.81387249004649 -1.6531257720441197 15.860000000000015
    vertex 88.90714804672666 -0.6312064906676017 15.860000000000015
  endloop
endfacet
facet normal 0.0 0.0 -1.0
  outer loop
    vertex 89.12479101231371 -2.418023292287035 15.860000000000015
    vertex 88.90714804672666 -0.6312064906676017 15.860000000000015
    vertex 89.23672800624084 0.6912884486036536 15.860000000000015
  endloop
endfacet
facet normal 0.0 0.0 -1.0
  outer loop
    vertex 89.12479101231371 -2.418023292287035 15.860000000000015
    vertex 89.23672800624084 0.6912884486036536 15.860000000000015
    vertex 89.89797547587645 0.6912884486036536 15.860000000000015
  endloop
endfacet
facet normal 0.0 0.0 -1.0
  outer loop
    vertex 91.07203291514772 0.7140933575105355 15.860000000000015
    vertex 90.98498838073476 0.2767198757291595 15.860000000000015
    vertex 90.88236629065379 0.7089061105469728 15.860000000000015
  endloop
endfacet
facet normal 0.0 0.0 -1.0
  outer loop
    vertex 90.98498838073476 0.2767198757291595 15.860000000000015
    vertex 91.07203291514772 0.7140933575105355 15.860000000000015
    vertex 91.07929189794123 0.2849910042716698 15.860000000000015
  endloop
endfacet
facet normal 0.0 0.0 -1.0
  outer loop
    vertex 91.07929189794123 0.2849910042716698 15.860000000000015
    vertex 91.07203291514772 0.7140933575105355 15.860000000000015
    vertex 91.56539070866998 0.6695273150004141 15.860000000000015
  endloop
endfacet
facet normal 0.0 0.0 -1.0
  outer loop
    vertex 91.07929189794123 0.2849910042716698 15.860000000000015
    vertex 91.56539070866998 0.6695273150004141 15.860000000000015
    vertex 91.16116500016795 0.28706274010162924 15.860000000000015
  endloop
endfacet
facet normal 0.0 0.0 -1.0
  outer loop
    vertex 91.16116500016795 0.28706274010162924 15.860000000000015
    vertex 91.56539070866998 0.6695273150004141 15.860000000000015
    vertex 91.34774774308293 0.26115813483847083 15.860000000000015
  endloop
endfacet
facet normal 0.0 0.0 -1.0
  outer loop
    vertex 91.34774774308293 0.26115813483847083 15.860000000000015
    vertex 91.56539070866998 0.6695273150004141 15.860000000000015
    vertex 91.51668119449994 0.17825707208543443 15.860000000000015
  endloop
endfacet
facet normal 0.0 0.0 -1.0
  outer loop
    vertex 91.51668119449994 0.17825707208543443 15.860000000000015
    vertex 91.56539070866998 0.6695273150004141 15.860000000000015
    vertex 91.64002064288051 0.03212852957531353 15.860000000000015
  endloop
endfacet
facet normal 0.0 0.0 -1.0
  outer loop
    vertex 91.64002064288051 0.03212852957531353 15.860000000000015
    vertex 91.56539070866998 0.6695273150004141 15.860000000000015
    vertex 91.7877029872631 0.6104512142919125 15.860000000000015
  endloop
endfacet
facet normal 0.0 0.0 -1.0
  outer loop
    vertex 91.64002064288051 0.03212852957531353 15.860000000000015
    vertex 91.7877029872631 0.6104512142919125 15.860000000000015
    vertex 91.68770219652423 -0.18345851495909973 15.860000000000015
  endloop
endfacet
facet normal 0.0 0.0 -1.0
  outer loop
    vertex 91.30213792526918 -0.7110078570643631 15.860000000000015
    vertex 91.01813615401412 -1.1888039096959415 15.860000000000015
    vertex 91.01813615401412 -0.7514304279145656 15.860000000000015
  endloop
endfacet
facet normal 0.0 0.0 -1.0
  outer loop
    vertex 91.01813615401412 -1.1888039096959415 15.860000000000015
    vertex 91.30213792526918 -0.7110078570643631 15.860000000000015
    vertex 91.57367765198983 -1.1224767335825814 15.860000000000015
  endloop
endfacet
facet normal 0.0 0.0 -1.0
  outer loop
    vertex 91.57367765198983 -1.1224767335825814 15.860000000000015
    vertex 91.30213792526918 -0.7110078570643631 15.860000000000015
    vertex 91.51253772284002 -0.6135888287242818 15.860000000000015
  endloop
endfacet
facet normal 0.0 0.0 -1.0
  outer loop
    vertex 91.57367765198983 -1.1224767335825814 15.860000000000015
    vertex 91.51253772284002 -0.6135888287242818 15.860000000000015
    vertex 91.64313615401412 -0.4436116020036344 15.860000000000015
  endloop
endfacet
facet normal 0.0 0.0 -1.0
  outer loop
    vertex 91.57367765198983 -1.1224767335825814 15.860000000000015
    vertex 91.64313615401412 -0.4436116020036344 15.860000000000015
    vertex 91.80662141464164 -1.0507132277627431 15.860000000000015
  endloop
endfacet
facet normal 0.0 0.0 -1.0
  outer loop
    vertex 91.80662141464164 -1.0507132277627431 15.860000000000015
    vertex 91.64313615401412 -0.4436116020036344 15.860000000000015
    vertex 91.68770219652423 -0.18345851495909973 15.860000000000015
  endloop
endfacet
facet normal 0.0 0.0 -1.0
  outer loop
    vertex 91.80662141464164 -1.0507132277627431 15.860000000000015
    vertex 91.68770219652423 -0.18345851495909973 15.860000000000015
    vertex 91.7877029872631 0.6104512142919125 15.860000000000015
  endloop
endfacet
facet normal 0.0 0.0 -1.0
  outer loop
    vertex 91.80662141464164 -1.0507132277627431 15.860000000000015
    vertex 91.7877029872631 0.6104512142919125 15.860000000000015
    vertex 91.98203101737444 0.5223549971866494 15.860000000000015
  endloop
endfacet
facet normal 0.0 0.0 -1.0
  outer loop
    vertex 91.80662141464164 -1.0507132277627431 15.860000000000015
    vertex 91.98203101737444 0.5223549971866494 15.860000000000015
    vertex 92.003807965755 -0.9473280746756988 15.860000000000015
  endloop
endfacet
facet normal 0.0 0.0 -1.0
  outer loop
    vertex 92.003807965755 -0.9473280746756988 15.860000000000015
    vertex 91.98203101737444 0.5223549971866494 15.860000000000015
    vertex 92.14423132734407 0.4031629741603338 15.860000000000015
  endloop
endfacet
facet normal 0.0 0.0 -1.0
  outer loop
    vertex 92.003807965755 -0.9473280746756988 15.860000000000015
    vertex 92.14423132734407 0.4031629741603338 15.860000000000015
    vertex 92.16264368184812 -0.8102534921858207 15.860000000000015
  endloop
endfacet
facet normal 0.0 0.0 -1.0
  outer loop
    vertex 92.16264368184812 -0.8102534921858207 15.860000000000015
    vertex 92.14423132734407 0.4031629741603338 15.860000000000015
    vertex 92.27016044551209 0.2507994556886737 15.860000000000015
  endloop
endfacet
facet normal 0.0 0.0 -1.0
  outer loop
    vertex 92.16264368184812 -0.8102534921858207 15.860000000000015
    vertex 92.27016044551209 0.2507994556886737 15.860000000000015
    vertex 92.28053493943922 -0.63742169815748 15.860000000000015
  endloop
endfacet
facet normal 0.0 0.0 -1.0
  outer loop
    vertex 92.28053493943922 -0.63742169815748 15.860000000000015
    vertex 92.27016044551209 0.2507994556886737 15.860000000000015
    vertex 92.35100558721248 0.061903801589483345 15.860000000000015
  endloop
endfacet
facet normal 0.0 0.0 -1.0
  outer loop
    vertex 92.28053493943922 -0.63742169815748 15.860000000000015
    vertex 92.35100558721248 0.061903801589483345 15.860000000000015
    vertex 92.35359921069427 -0.42443223079918013 15.860000000000015
  endloop
endfacet
facet normal 0.0 0.0 -1.0
  outer loop
    vertex 92.35359921069427 -0.42443223079918013 15.860000000000015
    vertex 92.35100558721248 0.061903801589483345 15.860000000000015
    vertex 92.37795396777929 -0.16688462831942358 15.860000000000015
  endloop
endfacet
facet normal 0.0 0.0 -1.0
  outer loop
    vertex 90.4211599394392 0.6736707866603336 15.860000000000015
    vertex 90.29056150826513 0.19793065508138635 15.860000000000015
    vertex 90.211803917172 0.6456786307898883 15.860000000000015
  endloop
endfacet
facet normal 0.0 0.0 -1.0
  outer loop
    vertex 90.29056150826513 0.19793065508138635 15.860000000000015
    vertex 90.4211599394392 0.6736707866603336 15.860000000000015
    vertex 90.29056150826513 -2.418023292287035 15.860000000000015
  endloop
endfacet
facet normal 0.0 0.0 -1.0
  outer loop
    vertex 90.29056150826513 -2.418023292287035 15.860000000000015
    vertex 90.4211599394392 0.6736707866603336 15.860000000000015
    vertex 91.01813615401412 -2.418023292287035 15.860000000000015
  endloop
endfacet
facet normal 0.0 0.0 -1.0
  outer loop
    vertex 91.01813615401412 -2.418023292287035 15.860000000000015
    vertex 90.4211599394392 0.6736707866603336 15.860000000000015
    vertex 90.65539260644326 0.6954319202635725 15.860000000000015
  endloop
endfacet
facet normal 0.0 0.0 -1.0
  outer loop
    vertex 91.01813615401412 -2.418023292287035 15.860000000000015
    vertex 90.65539260644326 0.6954319202635725 15.860000000000015
    vertex 90.88236629065379 0.7089061105469728 15.860000000000015
  endloop
endfacet
facet normal 0.0 0.0 -1.0
  outer loop
    vertex 91.01813615401412 -2.418023292287035 15.860000000000015
    vertex 90.88236629065379 0.7089061105469728 15.860000000000015
    vertex 90.98498838073476 0.2767198757291595 15.860000000000015
  endloop
endfacet
facet normal 0.0 0.0 -1.0
  outer loop
    vertex 91.01813615401412 -2.418023292287035 15.860000000000015
    vertex 90.98498838073476 0.2767198757291595 15.860000000000015
    vertex 91.01813615401412 -0.0756649926918931 15.860000000000015
  endloop
endfacet
facet normal 0.0 0.0 -1.0
  outer loop
    vertex 91.01813615401412 -2.418023292287035 15.860000000000015
    vertex 91.01813615401412 -0.0756649926918931 15.860000000000015
    vertex 91.01813615401412 -0.7514304279145656 15.860000000000015
  endloop
endfacet
facet normal 0.0 0.0 -1.0
  outer loop
    vertex 91.01813615401412 -2.418023292287035 15.860000000000015
    vertex 91.01813615401412 -0.7514304279145656 15.860000000000015
    vertex 91.01813615401412 -1.1888039096959415 15.860000000000015
  endloop
endfacet
facet normal 0.0 0.0 -1.0
  outer loop
    vertex 94.9114180366052 0.6912884486036536 15.860000000000015
    vertex 92.55871687263759 0.218679642935637 15.860000000000015
    vertex 92.55871687263759 0.6912884486036536 15.860000000000015
  endloop
endfacet
facet normal 0.0 0.0 -1.0
  outer loop
    vertex 92.55871687263759 0.218679642935637 15.860000000000015
    vertex 94.9114180366052 0.6912884486036536 15.860000000000015
    vertex 93.37542360340682 0.218679642935637 15.860000000000015
  endloop
endfacet
facet normal 0.0 0.0 -1.0
  outer loop
    vertex 93.37542360340682 0.218679642935637 15.860000000000015
    vertex 94.9114180366052 0.6912884486036536 15.860000000000015
    vertex 94.10299824915582 0.218679642935637 15.860000000000015
  endloop
endfacet
facet normal 0.0 0.0 -1.0
  outer loop
    vertex 93.37542360340682 0.218679642935637 15.860000000000015
    vertex 94.10299824915582 0.218679642935637 15.860000000000015
    vertex 93.37542360340682 -2.418023292287035 15.860000000000015
  endloop
endfacet
facet normal 0.0 0.0 -1.0
  outer loop
    vertex 94.10299824915582 0.218679642935637 15.860000000000015
    vertex 94.9114180366052 0.6912884486036536 15.860000000000015
    vertex 94.9114180366052 0.218679642935637 15.860000000000015
  endloop
endfacet
facet normal 0.0 0.0 -1.0
  outer loop
    vertex 94.10299824915582 -2.418023292287035 15.860000000000015
    vertex 93.37542360340682 -2.418023292287035 15.860000000000015
    vertex 94.10299824915582 0.218679642935637 15.860000000000015
  endloop
endfacet
facet normal 0.0 0.0 1.0
  outer loop
    vertex 86.8798833706133 -2.418023292287035 16.00000000000002
    vertex 86.79489475725298 0.7451852097372565 16.00000000000002
    vertex 86.11084237871047 0.6747145619639774 16.00000000000002
  endloop
endfacet
facet normal 0.0 0.0 1.0
  outer loop
    vertex 86.79489475725298 0.7451852097372565 16.00000000000002
    vertex 86.8798833706133 -2.418023292287035 16.00000000000002
    vertex 87.1389926823542 -0.6353499623275206 16.00000000000002
  endloop
endfacet
facet normal 0.0 0.0 1.0
  outer loop
    vertex 87.1389926823542 -0.6353499623275206 16.00000000000002
    vertex 86.8798833706133 -2.418023292287035 16.00000000000002
    vertex 87.30688235846756 -1.6324084137445247 16.00000000000002
  endloop
endfacet
facet normal 0.0 0.0 1.0
  outer loop
    vertex 87.30688235846756 -1.6324084137445247 16.00000000000002
    vertex 86.8798833706133 -2.418023292287035 16.00000000000002
    vertex 87.61574495968212 -2.418023292287035 16.00000000000002
  endloop
endfacet
facet normal 0.0 0.0 1.0
  outer loop
    vertex 87.30688235846756 -1.6324084137445247 16.00000000000002
    vertex 87.61574495968212 -2.418023292287035 16.00000000000002
    vertex 87.40018954470237 -0.6249754684003952 16.00000000000002
  endloop
endfacet
facet normal 0.0 0.0 1.0
  outer loop
    vertex 87.40018954470237 -0.6249754684003952 16.00000000000002
    vertex 87.61574495968212 -2.418023292287035 16.00000000000002
    vertex 87.72768195360926 0.6912884486036536 16.00000000000002
  endloop
endfacet
facet normal 0.0 0.0 1.0
  outer loop
    vertex 87.72768195360926 0.6912884486036536 16.00000000000002
    vertex 87.61574495968212 -2.418023292287035 16.00000000000002
    vertex 87.86865487871046 -1.3815860453234723 16.00000000000002
  endloop
endfacet
facet normal 0.0 0.0 1.0
  outer loop
    vertex 87.72768195360926 0.6912884486036536 16.00000000000002
    vertex 87.86865487871046 -1.3815860453234723 16.00000000000002
    vertex 88.03654455482382 -0.4073325028133507 16.00000000000002
  endloop
endfacet
facet normal 0.0 0.0 1.0
  outer loop
    vertex 87.72768195360926 0.6912884486036536 16.00000000000002
    vertex 88.03654455482382 -0.4073325028133507 16.00000000000002
    vertex 88.31637122486431 0.6912884486036536 16.00000000000002
  endloop
endfacet
facet normal 0.0 0.0 1.0
  outer loop
    vertex 88.31637122486431 0.6912884486036536 16.00000000000002
    vertex 88.03654455482382 -0.4073325028133507 16.00000000000002
    vertex 88.12982011150399 -1.3815860453234723 16.00000000000002
  endloop
endfacet
facet normal 0.0 0.0 1.0
  outer loop
    vertex 88.31637122486431 0.6912884486036536 16.00000000000002
    vertex 88.12982011150399 -1.3815860453234723 16.00000000000002
    vertex 88.38892942324487 -2.418023292287035 16.00000000000002
  endloop
endfacet
facet normal 0.0 0.0 1.0
  outer loop
    vertex 88.31637122486431 0.6912884486036536 16.00000000000002
    vertex 88.38892942324487 -2.418023292287035 16.00000000000002
    vertex 88.64389526332585 -0.6270630190076828 16.00000000000002
  endloop
endfacet
facet normal 0.0 0.0 1.0
  outer loop
    vertex 88.64389526332585 -0.6270630190076828 16.00000000000002
    vertex 88.38892942324487 -2.418023292287035 16.00000000000002
    vertex 88.81387249004649 -1.6531257720441197 16.00000000000002
  endloop
endfacet
facet normal 0.0 0.0 1.0
  outer loop
    vertex 88.81387249004649 -1.6531257720441197 16.00000000000002
    vertex 88.38892942324487 -2.418023292287035 16.00000000000002
    vertex 89.12479101231371 -2.418023292287035 16.00000000000002
  endloop
endfacet
facet normal 0.0 0.0 1.0
  outer loop
    vertex 88.81387249004649 -1.6531257720441197 16.00000000000002
    vertex 89.12479101231371 -2.418023292287035 16.00000000000002
    vertex 88.90714804672666 -0.6312064906676017 16.00000000000002
  endloop
endfacet
facet normal 0.0 0.0 1.0
  outer loop
    vertex 88.90714804672666 -0.6312064906676017 16.00000000000002
    vertex 89.12479101231371 -2.418023292287035 16.00000000000002
    vertex 89.23672800624084 0.6912884486036536 16.00000000000002
  endloop
endfacet
facet normal 0.0 0.0 1.0
  outer loop
    vertex 89.23672800624084 0.6912884486036536 16.00000000000002
    vertex 89.12479101231371 -2.418023292287035 16.00000000000002
    vertex 89.89797547587645 0.6912884486036536 16.00000000000002
  endloop
endfacet
facet normal -0.9954481436486586 -0.0953047391604405 0.0
  outer loop
    vertex 88.03654455482382 -0.4073325028133507 16.00000000000002
    vertex 88.12982011150399 -1.3815860453234723 15.860000000000015
    vertex 88.12982011150399 -1.3815860453234723 16.00000000000002
  endloop
endfacet
facet normal -0.9954481436486586 -0.0953047391604405 0.0
  outer loop
    vertex 88.12982011150399 -1.3815860453234723 15.860000000000015
    vertex 88.03654455482382 -0.4073325028133507 16.00000000000002
    vertex 88.03654455482382 -0.4073325028133507 15.860000000000015
  endloop
endfacet
facet normal 0.9854745205161339 -0.16982334766897092 0.0
  outer loop
    vertex 88.03654455482382 -0.4073325028133507 15.860000000000015
    vertex 87.86865487871046 -1.3815860453234723 16.00000000000002
    vertex 87.86865487871046 -1.3815860453234723 15.860000000000015
  endloop
endfacet
facet normal 0.9854745205161339 -0.16982334766897092 0.0
  outer loop
    vertex 87.86865487871046 -1.3815860453234723 16.00000000000002
    vertex 88.03654455482382 -0.4073325028133507 15.860000000000015
    vertex 88.03654455482382 -0.4073325028133507 16.00000000000002
  endloop
endfacet
facet normal 0.9714943641997983 -0.23706265063908652 0.0
  outer loop
    vertex 87.86865487871046 -1.3815860453234723 15.860000000000015
    vertex 87.61574495968212 -2.418023292287035 16.00000000000002
    vertex 87.61574495968212 -2.418023292287035 15.860000000000015
  endloop
endfacet
facet normal 0.9714943641997983 -0.23706265063908652 0.0
  outer loop
    vertex 87.61574495968212 -2.418023292287035 16.00000000000002
    vertex 87.86865487871046 -1.3815860453234723 15.860000000000015
    vertex 87.86865487871046 -1.3815860453234723 16.00000000000002
  endloop
endfacet
facet normal 0.0 -1.0 0.0
  outer loop
    vertex 87.61574495968212 -2.418023292287035 16.00000000000002
    vertex 86.8798833706133 -2.418023292287035 15.860000000000015
    vertex 87.61574495968212 -2.418023292287035 15.860000000000015
  endloop
endfacet
facet normal 0.0 -1.0 0.0
  outer loop
    vertex 86.8798833706133 -2.418023292287035 15.860000000000015
    vertex 87.61574495968212 -2.418023292287035 16.00000000000002
    vertex 86.8798833706133 -2.418023292287035 16.00000000000002
  endloop
endfacet
facet normal -0.9704476460046507 -0.24131176176065736 0.0
  outer loop
    vertex 86.11084237871047 0.6747145619639774 16.00000000000002
    vertex 86.8798833706133 -2.418023292287035 15.860000000000015
    vertex 86.8798833706133 -2.418023292287035 16.00000000000002
  endloop
endfacet
facet normal -0.9704476460046507 -0.24131176176065736 0.0
  outer loop
    vertex 86.8798833706133 -2.418023292287035 15.860000000000015
    vertex 86.11084237871047 0.6747145619639774 16.00000000000002
    vertex 86.11084237871047 0.6747145619639774 15.860000000000015
  endloop
endfacet
facet normal -0.10247701530335268 0.9947353725159855 0.0
  outer loop
    vertex 86.11084237871047 0.6747145619639774 16.00000000000002
    vertex 86.79489475725298 0.7451852097372565 15.860000000000015
    vertex 86.11084237871047 0.6747145619639774 15.860000000000015
  endloop
endfacet
facet normal -0.10247701530335268 0.9947353725159855 0.0
  outer loop
    vertex 86.79489475725298 0.7451852097372565 15.860000000000015
    vertex 86.11084237871047 0.6747145619639774 16.00000000000002
    vertex 86.79489475725298 0.7451852097372565 16.00000000000002
  endloop
endfacet
facet normal 0.9703135671060972 0.24185032869492135 0.0
  outer loop
    vertex 86.79489475725298 0.7451852097372565 15.860000000000015
    vertex 87.1389926823542 -0.6353499623275206 16.00000000000002
    vertex 87.1389926823542 -0.6353499623275206 15.860000000000015
  endloop
endfacet
facet normal 0.9703135671060972 0.24185032869492135 0.0
  outer loop
    vertex 87.1389926823542 -0.6353499623275206 16.00000000000002
    vertex 86.79489475725298 0.7451852097372565 15.860000000000015
    vertex 86.79489475725298 0.7451852097372565 16.00000000000002
  endloop
endfacet
facet normal 0.9861177674433581 0.16604742916566767 0.0
  outer loop
    vertex 87.1389926823542 -0.6353499623275206 15.860000000000015
    vertex 87.30688235846756 -1.6324084137445247 16.00000000000002
    vertex 87.30688235846756 -1.6324084137445247 15.860000000000015
  endloop
endfacet
facet normal 0.9861177674433581 0.16604742916566767 0.0
  outer loop
    vertex 87.30688235846756 -1.6324084137445247 16.00000000000002
    vertex 87.1389926823542 -0.6353499623275206 15.860000000000015
    vertex 87.1389926823542 -0.6353499623275206 16.00000000000002
  endloop
endfacet
facet normal -0.9957382820048218 0.09222404106352163 0.0
  outer loop
    vertex 87.40018954470237 -0.6249754684003952 16.00000000000002
    vertex 87.30688235846756 -1.6324084137445247 15.860000000000015
    vertex 87.30688235846756 -1.6324084137445247 16.00000000000002
  endloop
endfacet
facet normal -0.9957382820048218 0.09222404106352163 0.0
  outer loop
    vertex 87.30688235846756 -1.6324084137445247 15.860000000000015
    vertex 87.40018954470237 -0.6249754684003952 16.00000000000002
    vertex 87.40018954470237 -0.6249754684003952 15.860000000000015
  endloop
endfacet
facet normal -0.9704148536784002 0.2414435995431012 0.0
  outer loop
    vertex 87.72768195360926 0.6912884486036536 16.00000000000002
    vertex 87.40018954470237 -0.6249754684003952 15.860000000000015
    vertex 87.40018954470237 -0.6249754684003952 16.00000000000002
  endloop
endfacet
facet normal -0.9704148536784002 0.2414435995431012 0.0
  outer loop
    vertex 87.40018954470237 -0.6249754684003952 15.860000000000015
    vertex 87.72768195360926 0.6912884486036536 16.00000000000002
    vertex 87.72768195360926 0.6912884486036536 15.860000000000015
  endloop
endfacet
facet normal 0.0 1.0 0.0
  outer loop
    vertex 87.72768195360926 0.6912884486036536 16.00000000000002
    vertex 88.31637122486431 0.6912884486036536 15.860000000000015
    vertex 87.72768195360926 0.6912884486036536 15.860000000000015
  endloop
endfacet
facet normal 0.0 1.0 0.0
  outer loop
    vertex 88.31637122486431 0.6912884486036536 15.860000000000015
    vertex 87.72768195360926 0.6912884486036536 16.00000000000002
    vertex 88.31637122486431 0.6912884486036536 16.00000000000002
  endloop
endfacet
facet normal 0.970498923698133 0.2411054522418888 0.0
  outer loop
    vertex 88.31637122486431 0.6912884486036536 15.860000000000015
    vertex 88.64389526332585 -0.6270630190076828 16.00000000000002
    vertex 88.64389526332585 -0.6270630190076828 15.860000000000015
  endloop
endfacet
facet normal 0.970498923698133 0.2411054522418888 0.0
  outer loop
    vertex 88.64389526332585 -0.6270630190076828 16.00000000000002
    vertex 88.31637122486431 0.6912884486036536 15.860000000000015
    vertex 88.31637122486431 0.6912884486036536 16.00000000000002
  endloop
endfacet
facet normal 0.9865545498856578 0.16343231045269832 0.0
  outer loop
    vertex 88.64389526332585 -0.6270630190076828 15.860000000000015
    vertex 88.81387249004649 -1.6531257720441197 16.00000000000002
    vertex 88.81387249004649 -1.6531257720441197 15.860000000000015
  endloop
endfacet
facet normal 0.9865545498856578 0.16343231045269832 0.0
  outer loop
    vertex 88.81387249004649 -1.6531257720441197 16.00000000000002
    vertex 88.64389526332585 -0.6270630190076828 15.860000000000015
    vertex 88.64389526332585 -0.6270630190076828 16.00000000000002
  endloop
endfacet
facet normal -0.9958602967548021 0.09089702606487063 0.0
  outer loop
    vertex 88.90714804672666 -0.6312064906676017 16.00000000000002
    vertex 88.81387249004649 -1.6531257720441197 15.860000000000015
    vertex 88.81387249004649 -1.6531257720441197 16.00000000000002
  endloop
endfacet
facet normal -0.9958602967548021 0.09089702606487063 0.0
  outer loop
    vertex 88.81387249004649 -1.6531257720441197 15.860000000000015
    vertex 88.90714804672666 -0.6312064906676017 16.00000000000002
    vertex 88.90714804672666 -0.6312064906676017 15.860000000000015
  endloop
endfacet
facet normal -0.9703224263136919 0.24181478241147686 0.0
  outer loop
    vertex 89.23672800624084 0.6912884486036536 16.00000000000002
    vertex 88.90714804672666 -0.6312064906676017 15.860000000000015
    vertex 88.90714804672666 -0.6312064906676017 16.00000000000002
  endloop
endfacet
facet normal -0.9703224263136919 0.24181478241147686 0.0
  outer loop
    vertex 88.90714804672666 -0.6312064906676017 15.860000000000015
    vertex 89.23672800624084 0.6912884486036536 16.00000000000002
    vertex 89.23672800624084 0.6912884486036536 15.860000000000015
  endloop
endfacet
facet normal 0.0 1.0 0.0
  outer loop
    vertex 89.23672800624084 0.6912884486036536 16.00000000000002
    vertex 89.89797547587645 0.6912884486036536 15.860000000000015
    vertex 89.23672800624084 0.6912884486036536 15.860000000000015
  endloop
endfacet
facet normal 0.0 1.0 0.0
  outer loop
    vertex 89.89797547587645 0.6912884486036536 15.860000000000015
    vertex 89.23672800624084 0.6912884486036536 16.00000000000002
    vertex 89.89797547587645 0.6912884486036536 16.00000000000002
  endloop
endfacet
facet normal 0.9704460230394083 -0.2413182885050286 0.0
  outer loop
    vertex 89.89797547587645 0.6912884486036536 15.860000000000015
    vertex 89.12479101231371 -2.418023292287035 16.00000000000002
    vertex 89.12479101231371 -2.418023292287035 15.860000000000015
  endloop
endfacet
facet normal 0.9704460230394083 -0.2413182885050286 0.0
  outer loop
    vertex 89.12479101231371 -2.418023292287035 16.00000000000002
    vertex 89.89797547587645 0.6912884486036536 15.860000000000015
    vertex 89.89797547587645 0.6912884486036536 16.00000000000002
  endloop
endfacet
facet normal 0.0 -1.0 0.0
  outer loop
    vertex 89.12479101231371 -2.418023292287035 16.00000000000002
    vertex 88.38892942324487 -2.418023292287035 15.860000000000015
    vertex 89.12479101231371 -2.418023292287035 15.860000000000015
  endloop
endfacet
facet normal 0.0 -1.0 0.0
  outer loop
    vertex 88.38892942324487 -2.418023292287035 15.860000000000015
    vertex 89.12479101231371 -2.418023292287035 16.00000000000002
    vertex 88.38892942324487 -2.418023292287035 16.00000000000002
  endloop
endfacet
facet normal -0.9701425001453319 -0.24253562503633316 0.0
  outer loop
    vertex 88.12982011150399 -1.3815860453234723 16.00000000000002
    vertex 88.38892942324487 -2.418023292287035 15.860000000000015
    vertex 88.38892942324487 -2.418023292287035 16.00000000000002
  endloop
endfacet
facet normal -0.9701425001453319 -0.24253562503633316 0.0
  outer loop
    vertex 88.38892942324487 -2.418023292287035 15.860000000000015
    vertex 88.12982011150399 -1.3815860453234723 16.00000000000002
    vertex 88.12982011150399 -1.3815860453234723 15.860000000000015
  endloop
endfacet
facet normal 0.0 0.0 1.0
  outer loop
    vertex 91.57367765198983 -1.1224767335825814 16.000000000000014
    vertex 91.01813615401412 -0.7514304279145656 16.000000000000014
    vertex 91.01813615401412 -1.1888039096959415 16.000000000000014
  endloop
endfacet
facet normal 0.0 0.0 1.0
  outer loop
    vertex 91.01813615401412 -0.7514304279145656 16.000000000000014
    vertex 91.57367765198983 -1.1224767335825814 16.000000000000014
    vertex 91.30213792526918 -0.7110078570643631 16.000000000000014
  endloop
endfacet
facet normal 0.0 0.0 1.0
  outer loop
    vertex 91.30213792526918 -0.7110078570643631 16.000000000000014
    vertex 91.57367765198983 -1.1224767335825814 16.000000000000014
    vertex 91.51253772284002 -0.6135888287242818 16.000000000000014
  endloop
endfacet
facet normal 0.0 0.0 1.0
  outer loop
    vertex 91.51253772284002 -0.6135888287242818 16.000000000000014
    vertex 91.57367765198983 -1.1224767335825814 16.000000000000014
    vertex 91.64313615401412 -0.4436116020036344 16.000000000000014
  endloop
endfacet
facet normal 0.0 0.0 1.0
  outer loop
    vertex 91.64313615401412 -0.4436116020036344 16.000000000000014
    vertex 91.57367765198983 -1.1224767335825814 16.000000000000014
    vertex 91.80662141464164 -1.0507132277627431 16.000000000000014
  endloop
endfacet
facet normal 0.0 0.0 1.0
  outer loop
    vertex 91.64313615401412 -0.4436116020036344 16.000000000000014
    vertex 91.80662141464164 -1.0507132277627431 16.000000000000014
    vertex 91.68770219652423 -0.18345851495909973 16.000000000000014
  endloop
endfacet
facet normal 0.0 0.0 1.0
  outer loop
    vertex 91.68770219652423 -0.18345851495909973 16.000000000000014
    vertex 91.80662141464164 -1.0507132277627431 16.000000000000014
    vertex 91.7877029872631 0.6104512142919125 16.000000000000014
  endloop
endfacet
facet normal 0.0 0.0 1.0
  outer loop
    vertex 91.7877029872631 0.6104512142919125 16.000000000000014
    vertex 91.80662141464164 -1.0507132277627431 16.000000000000014
    vertex 91.98203101737444 0.5223549971866494 16.000000000000014
  endloop
endfacet
facet normal 0.0 0.0 1.0
  outer loop
    vertex 91.98203101737444 0.5223549971866494 16.000000000000014
    vertex 91.80662141464164 -1.0507132277627431 16.000000000000014
    vertex 92.003807965755 -0.9473280746756988 16.000000000000014
  endloop
endfacet
facet normal 0.0 0.0 1.0
  outer loop
    vertex 91.98203101737444 0.5223549971866494 16.000000000000014
    vertex 92.003807965755 -0.9473280746756988 16.000000000000014
    vertex 92.14423132734407 0.4031629741603338 16.000000000000014
  endloop
endfacet
facet normal 0.0 0.0 1.0
  outer loop
    vertex 92.14423132734407 0.4031629741603338 16.000000000000014
    vertex 92.003807965755 -0.9473280746756988 16.000000000000014
    vertex 92.16264368184812 -0.8102534921858207 16.000000000000014
  endloop
endfacet
facet normal 0.0 0.0 1.0
  outer loop
    vertex 92.14423132734407 0.4031629741603338 16.000000000000014
    vertex 92.16264368184812 -0.8102534921858207 16.000000000000014
    vertex 92.27016044551209 0.2507994556886737 16.000000000000014
  endloop
endfacet
facet normal 0.0 0.0 1.0
  outer loop
    vertex 92.27016044551209 0.2507994556886737 16.000000000000014
    vertex 92.16264368184812 -0.8102534921858207 16.000000000000014
    vertex 92.28053493943922 -0.63742169815748 16.000000000000014
  endloop
endfacet
facet normal 0.0 0.0 1.0
  outer loop
    vertex 92.27016044551209 0.2507994556886737 16.000000000000014
    vertex 92.28053493943922 -0.63742169815748 16.000000000000014
    vertex 92.35100558721248 0.061903801589483345 16.000000000000014
  endloop
endfacet
facet normal 0.0 0.0 1.0
  outer loop
    vertex 92.35100558721248 0.061903801589483345 16.000000000000014
    vertex 92.28053493943922 -0.63742169815748 16.000000000000014
    vertex 92.35359921069427 -0.42443223079918013 16.000000000000014
  endloop
endfacet
facet normal 0.0 0.0 1.0
  outer loop
    vertex 92.35100558721248 0.061903801589483345 16.000000000000014
    vertex 92.35359921069427 -0.42443223079918013 16.000000000000014
    vertex 92.37795396777929 -0.16688462831942358 16.000000000000014
  endloop
endfacet
facet normal 0.0 0.0 1.0
  outer loop
    vertex 90.98498838073476 0.2767198757291595 16.000000000000014
    vertex 91.07203291514772 0.7140933575105355 16.000000000000014
    vertex 90.88236629065379 0.7089061105469728 16.000000000000014
  endloop
endfacet
facet normal 0.0 0.0 1.0
  outer loop
    vertex 91.07203291514772 0.7140933575105355 16.000000000000014
    vertex 90.98498838073476 0.2767198757291595 16.000000000000014
    vertex 91.07929189794123 0.2849910042716698 16.000000000000014
  endloop
endfacet
facet normal 0.0 0.0 1.0
  outer loop
    vertex 91.07203291514772 0.7140933575105355 16.000000000000014
    vertex 91.07929189794123 0.2849910042716698 16.000000000000014
    vertex 91.56539070866998 0.6695273150004141 16.000000000000014
  endloop
endfacet
facet normal 0.0 0.0 1.0
  outer loop
    vertex 91.56539070866998 0.6695273150004141 16.000000000000014
    vertex 91.07929189794123 0.2849910042716698 16.000000000000014
    vertex 91.16116500016795 0.28706274010162924 16.000000000000014
  endloop
endfacet
facet normal 0.0 0.0 1.0
  outer loop
    vertex 91.56539070866998 0.6695273150004141 16.000000000000014
    vertex 91.16116500016795 0.28706274010162924 16.000000000000014
    vertex 91.34774774308293 0.26115813483847083 16.000000000000014
  endloop
endfacet
facet normal 0.0 0.0 1.0
  outer loop
    vertex 91.56539070866998 0.6695273150004141 16.000000000000014
    vertex 91.34774774308293 0.26115813483847083 16.000000000000014
    vertex 91.51668119449994 0.17825707208543443 16.000000000000014
  endloop
endfacet
facet normal 0.0 0.0 1.0
  outer loop
    vertex 91.56539070866998 0.6695273150004141 16.000000000000014
    vertex 91.51668119449994 0.17825707208543443 16.000000000000014
    vertex 91.64002064288051 0.03212852957531353 16.000000000000014
  endloop
endfacet
facet normal 0.0 0.0 1.0
  outer loop
    vertex 91.56539070866998 0.6695273150004141 16.000000000000014
    vertex 91.64002064288051 0.03212852957531353 16.000000000000014
    vertex 91.7877029872631 0.6104512142919125 16.000000000000014
  endloop
endfacet
facet normal 0.0 0.0 1.0
  outer loop
    vertex 91.7877029872631 0.6104512142919125 16.000000000000014
    vertex 91.64002064288051 0.03212852957531353 16.000000000000014
    vertex 91.68770219652423 -0.18345851495909973 16.000000000000014
  endloop
endfacet
facet normal 0.0 0.0 1.0
  outer loop
    vertex 91.01813615401412 -2.418023292287035 16.000000000000014
    vertex 90.29056150826513 0.19793065508138635 16.000000000000014
    vertex 90.29056150826513 -2.418023292287035 16.000000000000014
  endloop
endfacet
facet normal 0.0 0.0 1.0
  outer loop
    vertex 90.29056150826513 0.19793065508138635 16.000000000000014
    vertex 91.01813615401412 -2.418023292287035 16.000000000000014
    vertex 90.4211599394392 0.6736707866603336 16.000000000000014
  endloop
endfacet
facet normal 0.0 0.0 1.0
  outer loop
    vertex 90.4211599394392 0.6736707866603336 16.000000000000014
    vertex 91.01813615401412 -2.418023292287035 16.000000000000014
    vertex 90.65539260644326 0.6954319202635725 16.000000000000014
  endloop
endfacet
facet normal 0.0 0.0 1.0
  outer loop
    vertex 90.65539260644326 0.6954319202635725 16.000000000000014
    vertex 91.01813615401412 -2.418023292287035 16.000000000000014
    vertex 90.88236629065379 0.7089061105469728 16.000000000000014
  endloop
endfacet
facet normal 0.0 0.0 1.0
  outer loop
    vertex 90.88236629065379 0.7089061105469728 16.000000000000014
    vertex 91.01813615401412 -2.418023292287035 16.000000000000014
    vertex 90.98498838073476 0.2767198757291595 16.000000000000014
  endloop
endfacet
facet normal 0.0 0.0 1.0
  outer loop
    vertex 90.98498838073476 0.2767198757291595 16.000000000000014
    vertex 91.01813615401412 -2.418023292287035 16.000000000000014
    vertex 91.01813615401412 -0.0756649926918931 16.000000000000014
  endloop
endfacet
facet normal 0.0 0.0 1.0
  outer loop
    vertex 91.01813615401412 -0.0756649926918931 16.000000000000014
    vertex 91.01813615401412 -2.418023292287035 16.000000000000014
    vertex 91.01813615401412 -1.1888039096959415 16.000000000000014
  endloop
endfacet
facet normal 0.0 0.0 1.0
  outer loop
    vertex 91.01813615401412 -0.0756649926918931 16.000000000000014
    vertex 91.01813615401412 -1.1888039096959415 16.000000000000014
    vertex 91.01813615401412 -0.7514304279145656 16.000000000000014
  endloop
endfacet
facet normal 0.0 0.0 1.0
  outer loop
    vertex 90.4211599394392 0.6736707866603336 16.000000000000014
    vertex 90.211803917172 0.6456786307898883 16.000000000000014
    vertex 90.29056150826513 0.19793065508138635 16.000000000000014
  endloop
endfacet
facet normal 0.0 -1.0 0.0
  outer loop
    vertex 91.01813615401412 -2.418023292287035 16.000000000000014
    vertex 90.29056150826513 -2.418023292287035 15.860000000000015
    vertex 91.01813615401412 -2.418023292287035 15.860000000000015
  endloop
endfacet
facet normal 0.0 -1.0 0.0
  outer loop
    vertex 90.29056150826513 -2.418023292287035 15.860000000000015
    vertex 91.01813615401412 -2.418023292287035 16.000000000000014
    vertex 90.29056150826513 -2.418023292287035 16.000000000000014
  endloop
endfacet
facet normal -1.0 0.0 0.0
  outer loop
    vertex 90.29056150826513 0.19793065508138635 16.000000000000014
    vertex 90.29056150826513 -2.418023292287035 15.860000000000015
    vertex 90.29056150826513 -2.418023292287035 16.000000000000014
  endloop
endfacet
facet normal -1.0 0.0 0.0
  outer loop
    vertex 90.29056150826513 -2.418023292287035 15.860000000000015
    vertex 90.29056150826513 0.19793065508138635 16.000000000000014
    vertex 90.29056150826513 0.19793065508138635 15.860000000000015
  endloop
endfacet
facet normal -0.9848800620705576 -0.173237592155672 0.0
  outer loop
    vertex 90.211803917172 0.6456786307898883 16.000000000000014
    vertex 90.29056150826513 0.19793065508138635 15.860000000000015
    vertex 90.29056150826513 0.19793065508138635 16.000000000000014
  endloop
endfacet
facet normal -0.9848800620705576 -0.173237592155672 0.0
  outer loop
    vertex 90.29056150826513 0.19793065508138635 15.860000000000015
    vertex 90.211803917172 0.6456786307898883 16.000000000000014
    vertex 90.211803917172 0.6456786307898883 15.860000000000015
  endloop
endfacet
facet normal -0.13252663666764333 0.9911794441843327 0.0
  outer loop
    vertex 90.211803917172 0.6456786307898883 16.000000000000014
    vertex 90.4211599394392 0.6736707866603336 15.860000000000015
    vertex 90.211803917172 0.6456786307898883 15.860000000000015
  endloop
endfacet
facet normal -0.13252663666764333 0.9911794441843327 0.0
  outer loop
    vertex 90.4211599394392 0.6736707866603336 15.860000000000015
    vertex 90.211803917172 0.6456786307898883 16.000000000000014
    vertex 90.4211599394392 0.6736707866603336 16.000000000000014
  endloop
endfacet
facet normal -0.0925055662866539 0.9957121673485694 0.0
  outer loop
    vertex 90.4211599394392 0.6736707866603336 16.000000000000014
    vertex 90.65539260644326 0.6954319202635725 15.860000000000015
    vertex 90.4211599394392 0.6736707866603336 15.860000000000015
  endloop
endfacet
facet normal -0.0925055662866539 0.9957121673485694 0.0
  outer loop
    vertex 90.65539260644326 0.6954319202635725 15.860000000000015
    vertex 90.4211599394392 0.6736707866603336 16.000000000000014
    vertex 90.65539260644326 0.6954319202635725 16.000000000000014
  endloop
endfacet
facet normal -0.05926021939221689 0.9982425689167872 0.0
  outer loop
    vertex 90.65539260644326 0.6954319202635725 16.000000000000014
    vertex 90.88236629065379 0.7089061105469728 15.860000000000015
    vertex 90.65539260644326 0.6954319202635725 15.860000000000015
  endloop
endfacet
facet normal -0.05926021939221689 0.9982425689167872 0.0
  outer loop
    vertex 90.88236629065379 0.7089061105469728 15.860000000000015
    vertex 90.65539260644326 0.6954319202635725 16.000000000000014
    vertex 90.88236629065379 0.7089061105469728 16.000000000000014
  endloop
endfacet
facet normal -0.027339064410775264 0.9996262179220509 0.0
  outer loop
    vertex 90.88236629065379 0.7089061105469728 16.000000000000014
    vertex 91.07203291514772 0.7140933575105355 15.860000000000015
    vertex 90.88236629065379 0.7089061105469728 15.860000000000015
  endloop
endfacet
facet normal -0.027339064410775264 0.9996262179220509 0.0
  outer loop
    vertex 91.07203291514772 0.7140933575105355 15.860000000000015
    vertex 90.88236629065379 0.7089061105469728 16.000000000000014
    vertex 91.07203291514772 0.7140933575105355 16.000000000000014
  endloop
endfacet
facet normal 0.08996578427628486 0.9959448567363322 0.0
  outer loop
    vertex 91.07203291514772 0.7140933575105355 16.000000000000014
    vertex 91.56539070866998 0.6695273150004141 15.860000000000015
    vertex 91.07203291514772 0.7140933575105355 15.860000000000015
  endloop
endfacet
facet normal 0.08996578427628486 0.9959448567363322 0.0
  outer loop
    vertex 91.56539070866998 0.6695273150004141 15.860000000000015
    vertex 91.07203291514772 0.7140933575105355 16.000000000000014
    vertex 91.56539070866998 0.6695273150004141 16.000000000000014
  endloop
endfacet
facet normal 0.2568217006340538 0.9664588010274584 0.0
  outer loop
    vertex 91.56539070866998 0.6695273150004141 16.000000000000014
    vertex 91.7877029872631 0.6104512142919125 15.860000000000015
    vertex 91.56539070866998 0.6695273150004141 15.860000000000015
  endloop
endfacet
facet normal 0.2568217006340538 0.9664588010274584 0.0
  outer loop
    vertex 91.7877029872631 0.6104512142919125 15.860000000000015
    vertex 91.56539070866998 0.6695273150004141 16.000000000000014
    vertex 91.7877029872631 0.6104512142919125 16.000000000000014
  endloop
endfacet
facet normal 0.4128910737982093 0.9107804132598384 0.0
  outer loop
    vertex 91.7877029872631 0.6104512142919125 16.000000000000014
    vertex 91.98203101737444 0.5223549971866494 15.860000000000015
    vertex 91.7877029872631 0.6104512142919125 15.860000000000015
  endloop
endfacet
facet normal 0.4128910737982093 0.9107804132598384 0.0
  outer loop
    vertex 91.98203101737444 0.5223549971866494 15.860000000000015
    vertex 91.7877029872631 0.6104512142919125 16.000000000000014
    vertex 91.98203101737444 0.5223549971866494 16.000000000000014
  endloop
endfacet
facet normal 0.5921553136463894 0.8058238545242665 0.0
  outer loop
    vertex 91.98203101737444 0.5223549971866494 16.000000000000014
    vertex 92.14423132734407 0.4031629741603338 15.860000000000015
    vertex 91.98203101737444 0.5223549971866494 15.860000000000015
  endloop
endfacet
facet normal 0.5921553136463894 0.8058238545242665 0.0
  outer loop
    vertex 92.14423132734407 0.4031629741603338 15.860000000000015
    vertex 91.98203101737444 0.5223549971866494 16.000000000000014
    vertex 92.14423132734407 0.4031629741603338 16.000000000000014
  endloop
endfacet
facet normal 0.7708037373130233 0.6370726791695559 0.0
  outer loop
    vertex 92.14423132734407 0.4031629741603338 15.860000000000015
    vertex 92.27016044551209 0.2507994556886737 16.000000000000014
    vertex 92.27016044551209 0.2507994556886737 15.860000000000015
  endloop
endfacet
facet normal 0.7708037373130233 0.6370726791695559 0.0
  outer loop
    vertex 92.27016044551209 0.2507994556886737 16.000000000000014
    vertex 92.14423132734407 0.4031629741603338 15.860000000000015
    vertex 92.14423132734407 0.4031629741603338 16.000000000000014
  endloop
endfacet
facet normal 0.9193390001994616 0.3934663933708372 0.0
  outer loop
    vertex 92.27016044551209 0.2507994556886737 15.860000000000015
    vertex 92.35100558721248 0.061903801589483345 16.000000000000014
    vertex 92.35100558721248 0.061903801589483345 15.860000000000015
  endloop
endfacet
facet normal 0.9193390001994616 0.3934663933708372 0.0
  outer loop
    vertex 92.35100558721248 0.061903801589483345 16.000000000000014
    vertex 92.27016044551209 0.2507994556886737 15.860000000000015
    vertex 92.27016044551209 0.2507994556886737 16.000000000000014
  endloop
endfacet
facet normal 0.9931344282221899 0.11697866249784139 0.0
  outer loop
    vertex 92.35100558721248 0.061903801589483345 15.860000000000015
    vertex 92.37795396777929 -0.16688462831942358 16.000000000000014
    vertex 92.37795396777929 -0.16688462831942358 15.860000000000015
  endloop
endfacet
facet normal 0.9931344282221899 0.11697866249784139 0.0
  outer loop
    vertex 92.37795396777929 -0.16688462831942358 16.000000000000014
    vertex 92.35100558721248 0.061903801589483345 15.860000000000015
    vertex 92.35100558721248 0.061903801589483345 16.000000000000014
  endloop
endfacet
facet normal 0.995558581056922 -0.09414410063263721 0.0
  outer loop
    vertex 92.37795396777929 -0.16688462831942358 15.860000000000015
    vertex 92.35359921069427 -0.42443223079918013 16.000000000000014
    vertex 92.35359921069427 -0.42443223079918013 15.860000000000015
  endloop
endfacet
facet normal 0.995558581056922 -0.09414410063263721 0.0
  outer loop
    vertex 92.35359921069427 -0.42443223079918013 16.000000000000014
    vertex 92.37795396777929 -0.16688462831942358 15.860000000000015
    vertex 92.37795396777929 -0.16688462831942358 16.000000000000014
  endloop
endfacet
facet normal 0.9458923726570191 -0.32448053770492136 0.0
  outer loop
    vertex 92.35359921069427 -0.42443223079918013 15.860000000000015
    vertex 92.28053493943922 -0.63742169815748 16.000000000000014
    vertex 92.28053493943922 -0.63742169815748 15.860000000000015
  endloop
endfacet
facet normal 0.9458923726570191 -0.32448053770492136 0.0
  outer loop
    vertex 92.28053493943922 -0.63742169815748 16.000000000000014
    vertex 92.35359921069427 -0.42443223079918013 15.860000000000015
    vertex 92.35359921069427 -0.42443223079918013 16.000000000000014
  endloop
endfacet
facet normal 0.8261129774227146 -0.5635045239692201 0.0
  outer loop
    vertex 92.28053493943922 -0.63742169815748 15.860000000000015
    vertex 92.16264368184812 -0.8102534921858207 16.000000000000014
    vertex 92.16264368184812 -0.8102534921858207 15.860000000000015
  endloop
endfacet
facet normal 0.8261129774227146 -0.5635045239692201 0.0
  outer loop
    vertex 92.16264368184812 -0.8102534921858207 16.000000000000014
    vertex 92.28053493943922 -0.63742169815748 15.860000000000015
    vertex 92.28053493943922 -0.63742169815748 16.000000000000014
  endloop
endfacet
facet normal 0.6533421306015106 -0.7570627849663981 0.0
  outer loop
    vertex 92.16264368184812 -0.8102534921858207 16.000000000000014
    vertex 92.003807965755 -0.9473280746756988 15.860000000000015
    vertex 92.16264368184812 -0.8102534921858207 15.860000000000015
  endloop
endfacet
facet normal 0.6533421306015106 -0.7570627849663981 0.0
  outer loop
    vertex 92.003807965755 -0.9473280746756988 15.860000000000015
    vertex 92.16264368184812 -0.8102534921858207 16.000000000000014
    vertex 92.003807965755 -0.9473280746756988 16.000000000000014
  endloop
endfacet
facet normal 0.4643486871844908 -0.8856524694879139 0.0
  outer loop
    vertex 92.003807965755 -0.9473280746756988 16.000000000000014
    vertex 91.80662141464164 -1.0507132277627431 15.860000000000015
    vertex 92.003807965755 -0.9473280746756988 15.860000000000015
  endloop
endfacet
facet normal 0.4643486871844908 -0.8856524694879139 0.0
  outer loop
    vertex 91.80662141464164 -1.0507132277627431 15.860000000000015
    vertex 92.003807965755 -0.9473280746756988 16.000000000000014
    vertex 91.80662141464164 -1.0507132277627431 16.000000000000014
  endloop
endfacet
facet normal 0.2944175175578981 -0.9556768938061886 0.0
  outer loop
    vertex 91.80662141464164 -1.0507132277627431 16.000000000000014
    vertex 91.57367765198983 -1.1224767335825814 15.860000000000015
    vertex 91.80662141464164 -1.0507132277627431 15.860000000000015
  endloop
endfacet
facet normal 0.2944175175578981 -0.9556768938061886 0.0
  outer loop
    vertex 91.57367765198983 -1.1224767335825814 15.860000000000015
    vertex 91.80662141464164 -1.0507132277627431 16.000000000000014
    vertex 91.57367765198983 -1.1224767335825814 16.000000000000014
  endloop
endfacet
facet normal 0.11854999619002156 -0.9929480844451768 0.0
  outer loop
    vertex 91.57367765198983 -1.1224767335825814 16.000000000000014
    vertex 91.01813615401412 -1.1888039096959415 15.860000000000015
    vertex 91.57367765198983 -1.1224767335825814 15.860000000000015
  endloop
endfacet
facet normal 0.11854999619002156 -0.9929480844451768 0.0
  outer loop
    vertex 91.01813615401412 -1.1888039096959415 15.860000000000015
    vertex 91.57367765198983 -1.1224767335825814 16.000000000000014
    vertex 91.01813615401412 -1.1888039096959415 16.000000000000014
  endloop
endfacet
facet normal 1.0 0.0 0.0
  outer loop
    vertex 91.01813615401412 -1.1888039096959415 15.860000000000015
    vertex 91.01813615401412 -2.418023292287035 16.000000000000014
    vertex 91.01813615401412 -2.418023292287035 15.860000000000015
  endloop
endfacet
facet normal 1.0 0.0 0.0
  outer loop
    vertex 91.01813615401412 -2.418023292287035 16.000000000000014
    vertex 91.01813615401412 -1.1888039096959415 15.860000000000015
    vertex 91.01813615401412 -1.1888039096959415 16.000000000000014
  endloop
endfacet
facet normal 1.0 0.0 0.0
  outer loop
    vertex 91.01813615401412 -0.0756649926918931 15.860000000000015
    vertex 91.01813615401412 -0.7514304279145656 16.000000000000014
    vertex 91.01813615401412 -0.7514304279145656 15.860000000000015
  endloop
endfacet
facet normal 1.0 0.0 0.0
  outer loop
    vertex 91.01813615401412 -0.7514304279145656 16.000000000000014
    vertex 91.01813615401412 -0.0756649926918931 15.860000000000015
    vertex 91.01813615401412 -0.0756649926918931 16.000000000000014
  endloop
endfacet
facet normal -0.14091193755220943 0.9900221340229127 0.0
  outer loop
    vertex 91.01813615401412 -0.7514304279145656 16.000000000000014
    vertex 91.30213792526918 -0.7110078570643631 15.860000000000015
    vertex 91.01813615401412 -0.7514304279145656 15.860000000000015
  endloop
endfacet
facet normal -0.14091193755220943 0.9900221340229127 0.0
  outer loop
    vertex 91.30213792526918 -0.7110078570643631 15.860000000000015
    vertex 91.01813615401412 -0.7514304279145656 16.000000000000014
    vertex 91.30213792526918 -0.7110078570643631 16.000000000000014
  endloop
endfacet
facet normal -0.4201651747425016 0.9074476436321839 0.0
  outer loop
    vertex 91.30213792526918 -0.7110078570643631 16.000000000000014
    vertex 91.51253772284002 -0.6135888287242818 15.860000000000015
    vertex 91.30213792526918 -0.7110078570643631 15.860000000000015
  endloop
endfacet
facet normal -0.4201651747425016 0.9074476436321839 0.0
  outer loop
    vertex 91.51253772284002 -0.6135888287242818 15.860000000000015
    vertex 91.30213792526918 -0.7110078570643631 16.000000000000014
    vertex 91.51253772284002 -0.6135888287242818 16.000000000000014
  endloop
endfacet
facet normal -0.7929694405612909 0.6092614105094081 0.0
  outer loop
    vertex 91.64313615401412 -0.4436116020036344 16.000000000000014
    vertex 91.51253772284002 -0.6135888287242818 15.860000000000015
    vertex 91.51253772284002 -0.6135888287242818 16.000000000000014
  endloop
endfacet
facet normal -0.7929694405612909 0.6092614105094081 0.0
  outer loop
    vertex 91.51253772284002 -0.6135888287242818 15.860000000000015
    vertex 91.64313615401412 -0.4436116020036344 16.000000000000014
    vertex 91.64313615401412 -0.4436116020036344 15.860000000000015
  endloop
endfacet
facet normal -0.9856422045861426 0.1688474001534194 0.0
  outer loop
    vertex 91.68770219652423 -0.18345851495909973 16.000000000000014
    vertex 91.64313615401412 -0.4436116020036344 15.860000000000015
    vertex 91.64313615401412 -0.4436116020036344 16.000000000000014
  endloop
endfacet
facet normal -0.9856422045861426 0.1688474001534194 0.0
  outer loop
    vertex 91.64313615401412 -0.4436116020036344 15.860000000000015
    vertex 91.68770219652423 -0.18345851495909973 16.000000000000014
    vertex 91.68770219652423 -0.18345851495909973 15.860000000000015
  endloop
endfacet
facet normal -0.9764039755574316 -0.2159520236433139 0.0
  outer loop
    vertex 91.64002064288051 0.03212852957531353 16.000000000000014
    vertex 91.68770219652423 -0.18345851495909973 15.860000000000015
    vertex 91.68770219652423 -0.18345851495909973 16.000000000000014
  endloop
endfacet
facet normal -0.9764039755574316 -0.2159520236433139 0.0
  outer loop
    vertex 91.68770219652423 -0.18345851495909973 15.860000000000015
    vertex 91.64002064288051 0.03212852957531353 16.000000000000014
    vertex 91.64002064288051 0.03212852957531353 15.860000000000015
  endloop
endfacet
facet normal -0.7641793765428735 -0.6450037832963039 0.0
  outer loop
    vertex 91.51668119449994 0.17825707208543443 16.000000000000014
    vertex 91.64002064288051 0.03212852957531353 15.860000000000015
    vertex 91.64002064288051 0.03212852957531353 16.000000000000014
  endloop
endfacet
facet normal -0.7641793765428735 -0.6450037832963039 0.0
  outer loop
    vertex 91.64002064288051 0.03212852957531353 15.860000000000015
    vertex 91.51668119449994 0.17825707208543443 16.000000000000014
    vertex 91.51668119449994 0.17825707208543443 15.860000000000015
  endloop
endfacet
facet normal -0.44054513156556807 -0.8977304645905007 0.0
  outer loop
    vertex 91.51668119449994 0.17825707208543443 16.000000000000014
    vertex 91.34774774308293 0.26115813483847083 15.860000000000015
    vertex 91.51668119449994 0.17825707208543443 15.860000000000015
  endloop
endfacet
facet normal -0.44054513156556807 -0.8977304645905007 0.0
  outer loop
    vertex 91.34774774308293 0.26115813483847083 15.860000000000015
    vertex 91.51668119449994 0.17825707208543443 16.000000000000014
    vertex 91.34774774308293 0.26115813483847083 16.000000000000014
  endloop
endfacet
facet normal -0.13751803632238307 -0.9904992628397237 0.0
  outer loop
    vertex 91.34774774308293 0.26115813483847083 16.000000000000014
    vertex 91.16116500016795 0.28706274010162924 15.860000000000015
    vertex 91.34774774308293 0.26115813483847083 15.860000000000015
  endloop
endfacet
facet normal -0.13751803632238307 -0.9904992628397237 0.0
  outer loop
    vertex 91.16116500016795 0.28706274010162924 15.860000000000015
    vertex 91.34774774308293 0.26115813483847083 16.000000000000014
    vertex 91.16116500016795 0.28706274010162924 16.000000000000014
  endloop
endfacet
facet normal 0.025296132936742013 -0.9996800016297448 0.0
  outer loop
    vertex 91.16116500016795 0.28706274010162924 16.000000000000014
    vertex 91.07929189794123 0.2849910042716698 15.860000000000015
    vertex 91.16116500016795 0.28706274010162924 15.860000000000015
  endloop
endfacet
facet normal 0.025296132936742013 -0.9996800016297448 0.0
  outer loop
    vertex 91.07929189794123 0.2849910042716698 15.860000000000015
    vertex 91.16116500016795 0.28706274010162924 16.000000000000014
    vertex 91.07929189794123 0.2849910042716698 16.000000000000014
  endloop
endfacet
facet normal 0.08737211375533024 -0.9961757444035293 0.0
  outer loop
    vertex 91.07929189794123 0.2849910042716698 16.000000000000014
    vertex 90.98498838073476 0.2767198757291595 15.860000000000015
    vertex 91.07929189794123 0.2849910042716698 15.860000000000015
  endloop
endfacet
facet normal 0.08737211375533024 -0.9961757444035293 0.0
  outer loop
    vertex 90.98498838073476 0.2767198757291595 15.860000000000015
    vertex 91.07929189794123 0.2849910042716698 16.000000000000014
    vertex 90.98498838073476 0.2767198757291595 16.000000000000014
  endloop
endfacet
facet normal 0.9956048502842546 0.09365352150596008 0.0
  outer loop
    vertex 90.98498838073476 0.2767198757291595 15.860000000000015
    vertex 91.01813615401412 -0.0756649926918931 16.000000000000014
    vertex 91.01813615401412 -0.0756649926918931 15.860000000000015
  endloop
endfacet
facet normal 0.9956048502842546 0.09365352150596008 0.0
  outer loop
    vertex 91.01813615401412 -0.0756649926918931 16.000000000000014
    vertex 90.98498838073476 0.2767198757291595 15.860000000000015
    vertex 90.98498838073476 0.2767198757291595 16.000000000000014
  endloop
endfacet
facet normal 0.0 0.0 1.0
  outer loop
    vertex 94.10299824915582 -2.418023292287035 16.000000000000032
    vertex 93.37542360340682 0.218679642935637 16.000000000000032
    vertex 93.37542360340682 -2.418023292287035 16.000000000000032
  endloop
endfacet
facet normal 0.0 0.0 1.0
  outer loop
    vertex 93.37542360340682 0.218679642935637 16.000000000000032
    vertex 92.55871687263759 0.6912884486036536 16.000000000000032
    vertex 92.55871687263759 0.218679642935637 16.000000000000032
  endloop
endfacet
facet normal 0.0 0.0 1.0
  outer loop
    vertex 92.55871687263759 0.6912884486036536 16.000000000000032
    vertex 93.37542360340682 0.218679642935637 16.000000000000032
    vertex 94.9114180366052 0.6912884486036536 16.000000000000032
  endloop
endfacet
facet normal 0.0 0.0 1.0
  outer loop
    vertex 94.9114180366052 0.6912884486036536 16.000000000000032
    vertex 93.37542360340682 0.218679642935637 16.000000000000032
    vertex 94.10299824915582 0.218679642935637 16.000000000000032
  endloop
endfacet
facet normal 0.0 0.0 1.0
  outer loop
    vertex 94.10299824915582 0.218679642935637 16.000000000000032
    vertex 93.37542360340682 0.218679642935637 16.000000000000032
    vertex 94.10299824915582 -2.418023292287035 16.000000000000032
  endloop
endfacet
facet normal 0.0 0.0 1.0
  outer loop
    vertex 94.9114180366052 0.6912884486036536 16.000000000000032
    vertex 94.10299824915582 0.218679642935637 16.000000000000032
    vertex 94.9114180366052 0.218679642935637 16.000000000000032
  endloop
endfacet
facet normal -1.0 0.0 0.0
  outer loop
    vertex 93.37542360340682 0.218679642935637 16.000000000000032
    vertex 93.37542360340682 -2.418023292287035 15.860000000000015
    vertex 93.37542360340682 -2.418023292287035 16.000000000000032
  endloop
endfacet
facet normal -1.0 0.0 0.0
  outer loop
    vertex 93.37542360340682 -2.418023292287035 15.860000000000015
    vertex 93.37542360340682 0.218679642935637 16.000000000000032
    vertex 93.37542360340682 0.218679642935637 15.860000000000015
  endloop
endfacet
facet normal 0.0 -1.0 0.0
  outer loop
    vertex 93.37542360340682 0.218679642935637 16.000000000000032
    vertex 92.55871687263759 0.218679642935637 15.860000000000015
    vertex 93.37542360340682 0.218679642935637 15.860000000000015
  endloop
endfacet
facet normal 0.0 -1.0 0.0
  outer loop
    vertex 92.55871687263759 0.218679642935637 15.860000000000015
    vertex 93.37542360340682 0.218679642935637 16.000000000000032
    vertex 92.55871687263759 0.218679642935637 16.000000000000032
  endloop
endfacet
facet normal -1.0 0.0 0.0
  outer loop
    vertex 92.55871687263759 0.6912884486036536 16.000000000000032
    vertex 92.55871687263759 0.218679642935637 15.860000000000015
    vertex 92.55871687263759 0.218679642935637 16.000000000000032
  endloop
endfacet
facet normal -1.0 0.0 0.0
  outer loop
    vertex 92.55871687263759 0.218679642935637 15.860000000000015
    vertex 92.55871687263759 0.6912884486036536 16.000000000000032
    vertex 92.55871687263759 0.6912884486036536 15.860000000000015
  endloop
endfacet
facet normal 0.0 1.0 0.0
  outer loop
    vertex 92.55871687263759 0.6912884486036536 16.000000000000032
    vertex 94.9114180366052 0.6912884486036536 15.860000000000015
    vertex 92.55871687263759 0.6912884486036536 15.860000000000015
  endloop
endfacet
facet normal 0.0 1.0 0.0
  outer loop
    vertex 94.9114180366052 0.6912884486036536 15.860000000000015
    vertex 92.55871687263759 0.6912884486036536 16.000000000000032
    vertex 94.9114180366052 0.6912884486036536 16.000000000000032
  endloop
endfacet
facet normal 1.0 0.0 0.0
  outer loop
    vertex 94.9114180366052 0.6912884486036536 15.860000000000015
    vertex 94.9114180366052 0.218679642935637 16.000000000000032
    vertex 94.9114180366052 0.218679642935637 15.860000000000015
  endloop
endfacet
facet normal 1.0 0.0 0.0
  outer loop
    vertex 94.9114180366052 0.218679642935637 16.000000000000032
    vertex 94.9114180366052 0.6912884486036536 15.860000000000015
    vertex 94.9114180366052 0.6912884486036536 16.000000000000032
  endloop
endfacet
facet normal 0.0 -1.0 0.0
  outer loop
    vertex 94.9114180366052 0.218679642935637 16.000000000000032
    vertex 94.10299824915582 0.218679642935637 15.860000000000015
    vertex 94.9114180366052 0.218679642935637 15.860000000000015
  endloop
endfacet
facet normal 0.0 -1.0 0.0
  outer loop
    vertex 94.10299824915582 0.218679642935637 15.860000000000015
    vertex 94.9114180366052 0.218679642935637 16.000000000000032
    vertex 94.10299824915582 0.218679642935637 16.000000000000032
  endloop
endfacet
facet normal 1.0 0.0 0.0
  outer loop
    vertex 94.10299824915582 0.218679642935637 15.860000000000015
    vertex 94.10299824915582 -2.418023292287035 16.000000000000032
    vertex 94.10299824915582 -2.418023292287035 15.860000000000015
  endloop
endfacet
facet normal 1.0 0.0 0.0
  outer loop
    vertex 94.10299824915582 -2.418023292287035 16.000000000000032
    vertex 94.10299824915582 0.218679642935637 15.860000000000015
    vertex 94.10299824915582 0.218679642935637 16.000000000000032
  endloop
endfacet
facet normal 0.0 -1.0 0.0
  outer loop
    vertex 94.10299824915582 -2.418023292287035 16.000000000000032
    vertex 93.37542360340682 -2.418023292287035 15.860000000000015
    vertex 94.10299824915582 -2.418023292287035 15.860000000000015
  endloop
endfacet
facet normal 0.0 -1.0 0.0
  outer loop
    vertex 93.37542360340682 -2.418023292287035 15.860000000000015
    vertex 94.10299824915582 -2.418023292287035 16.000000000000032
    vertex 93.37542360340682 -2.418023292287035 16.000000000000032
  endloop
endfacet
endsolid Korry19x16_button_V5
