solid PushPullBlackSelector
facet normal -0.1305261922200588 0.9914448613738096 0.0
  outer loop
    vertex -15.629451019086535 48.74396309682672 4.499999999999989
    vertex -14.852993883778971 48.84618561795951 -1.127986593019159e-14
    vertex -15.629451019086535 48.74396309682672 -1.127986593019159e-14
  endloop
endfacet
facet normal -0.1305261922200588 0.9914448613738096 0.0
  outer loop
    vertex -14.852993883778971 48.84618561795951 -1.127986593019159e-14
    vertex -15.629451019086535 48.74396309682672 4.499999999999989
    vertex -14.852993883778971 48.84618561795951 4.499999999999989
  endloop
endfacet
facet normal -0.38268343236508334 0.9238795325112894 0.0
  outer loop
    vertex -14.852993883778971 48.84618561795951 4.499999999999989
    vertex -14.129451019086536 49.145886885473395 -1.127986593019159e-14
    vertex -14.852993883778971 48.84618561795951 -1.127986593019159e-14
  endloop
endfacet
facet normal -0.38268343236508334 0.9238795325112894 0.0
  outer loop
    vertex -14.129451019086536 49.145886885473395 -1.127986593019159e-14
    vertex -14.852993883778971 48.84618561795951 4.499999999999989
    vertex -14.129451019086536 49.145886885473395 4.499999999999989
  endloop
endfacet
facet normal -0.9238795325112871 -0.3826834323650891 0.0
  outer loop
    vertex -13.031374807733233 53.24396309682673 4.499999999999989
    vertex -12.731673540219335 52.52042023213427 -1.127986593019159e-14
    vertex -12.731673540219335 52.52042023213427 4.499999999999989
  endloop
endfacet
facet normal -0.9238795325112871 -0.3826834323650891 0.0
  outer loop
    vertex -12.731673540219335 52.52042023213427 -1.127986593019159e-14
    vertex -13.031374807733233 53.24396309682673 4.499999999999989
    vertex -13.031374807733233 53.24396309682673 -1.127986593019159e-14
  endloop
endfacet
facet normal -1.0 0.0 0.0
  outer loop
    vertex -20.87945101908653 67.7439630968267 4.499999999999989
    vertex -20.87945101908653 35.74396309682671 -1.127986593019159e-14
    vertex -20.87945101908653 35.74396309682671 4.499999999999989
  endloop
endfacet
facet normal -1.0 0.0 0.0
  outer loop
    vertex -20.87945101908653 35.74396309682671 -1.127986593019159e-14
    vertex -20.87945101908653 67.7439630968267 4.499999999999989
    vertex -20.87945101908653 67.7439630968267 -1.127986593019159e-14
  endloop
endfacet
facet normal 0.0 -1.0 0.0
  outer loop
    vertex -9.879451019086531 42.14396309682671 4.499999999999989
    vertex -10.379451019086531 42.14396309682671 -1.127986593019159e-14
    vertex -9.879451019086531 42.14396309682671 -1.127986593019159e-14
  endloop
endfacet
facet normal 0.0 -1.0 0.0
  outer loop
    vertex -10.379451019086531 42.14396309682671 -1.127986593019159e-14
    vertex -9.879451019086531 42.14396309682671 4.499999999999989
    vertex -10.379451019086531 42.14396309682671 4.499999999999989
  endloop
endfacet
facet normal 0.9238795325112846 0.3826834323650952 0.0
  outer loop
    vertex -18.527228497953733 50.967505961519144 -1.127986593019159e-14
    vertex -18.227527230439843 50.24396309682672 4.499999999999989
    vertex -18.227527230439843 50.24396309682672 -1.127986593019159e-14
  endloop
endfacet
facet normal 0.9238795325112846 0.3826834323650952 0.0
  outer loop
    vertex -18.227527230439843 50.24396309682672 4.499999999999989
    vertex -18.527228497953733 50.967505961519144 -1.127986593019159e-14
    vertex -18.527228497953733 50.967505961519144 4.499999999999989
  endloop
endfacet
facet normal 1.0 0.0 0.0
  outer loop
    vertex -10.379451019086531 42.14396309682671 -1.127986593019159e-14
    vertex -10.379451019086531 39.14396309682671 4.499999999999989
    vertex -10.379451019086531 39.14396309682671 -1.127986593019159e-14
  endloop
endfacet
facet normal 1.0 0.0 0.0
  outer loop
    vertex -10.379451019086531 39.14396309682671 4.499999999999989
    vertex -10.379451019086531 42.14396309682671 -1.127986593019159e-14
    vertex -10.379451019086531 42.14396309682671 4.499999999999989
  endloop
endfacet
facet normal -0.7933533402912337 0.6087614290087225 -1.4063858919849917e-15
  outer loop
    vertex -13.508130675526886 49.62264275326709 4.499999999999989
    vertex -13.031374807733213 50.24396309682672 -1.127986593019159e-14
    vertex -13.508130675526894 49.62264275326707 -1.127986593019159e-14
  endloop
endfacet
facet normal -0.7933533402912337 0.6087614290087225 -1.4063858919849917e-15
  outer loop
    vertex -13.031374807733213 50.24396309682672 -1.127986593019159e-14
    vertex -13.508130675526886 49.62264275326709 4.499999999999989
    vertex -13.031374807733217 50.24396309682673 4.499999999999989
  endloop
endfacet
facet normal -0.9914448613738098 -0.13052619222005626 3.107906027538237e-16
  outer loop
    vertex -12.731673540219335 52.52042023213427 4.499999999999989
    vertex -12.62945101908654 51.743963096826725 -1.127986593019159e-14
    vertex -12.629451019086536 51.743963096826725 4.499999999999989
  endloop
endfacet
facet normal -0.9914448613738098 -0.13052619222005626 3.107906027538237e-16
  outer loop
    vertex -12.62945101908654 51.743963096826725 -1.127986593019159e-14
    vertex -12.731673540219335 52.52042023213427 4.499999999999989
    vertex -12.731673540219335 52.52042023213427 -1.127986593019159e-14
  endloop
endfacet
facet normal 0.6087614290087178 -0.7933533402912376 -5.730493372485388e-16
  outer loop
    vertex -17.129451019086538 54.34203930818001 4.4999999999999885
    vertex -17.75077136264618 53.86528344038635 -1.127986593019159e-14
    vertex -17.129451019086527 54.34203930818003 -1.127986593019159e-14
  endloop
endfacet
facet normal 0.6087614290087178 -0.7933533402912376 -5.730493372485388e-16
  outer loop
    vertex -17.75077136264618 53.86528344038635 -1.127986593019159e-14
    vertex -17.129451019086538 54.34203930818001 4.4999999999999885
    vertex -17.75077136264616 53.865283440386364 4.499999999999989
  endloop
endfacet
facet normal 0.7933533402912395 0.6087614290087152 -2.9303677760244667e-18
  outer loop
    vertex -18.227527230439843 50.24396309682672 -1.127986593019159e-14
    vertex -17.75077136264618 49.62264275326708 4.4999999999999885
    vertex -17.75077136264618 49.62264275326708 -1.127986593019159e-14
  endloop
endfacet
facet normal 0.7933533402912395 0.6087614290087152 -2.9303677760244667e-18
  outer loop
    vertex -17.75077136264618 49.62264275326708 4.4999999999999885
    vertex -18.227527230439843 50.24396309682672 -1.127986593019159e-14
    vertex -18.227527230439843 50.24396309682672 4.499999999999989
  endloop
endfacet
facet normal 0.0 1.0 0.0
  outer loop
    vertex -10.379451019086531 61.3439630968267 4.499999999999989
    vertex -9.879451019086531 61.3439630968267 -1.127986593019159e-14
    vertex -10.379451019086531 61.3439630968267 -1.127986593019159e-14
  endloop
endfacet
facet normal 0.0 1.0 0.0
  outer loop
    vertex -9.879451019086531 61.3439630968267 -1.127986593019159e-14
    vertex -10.379451019086531 61.3439630968267 4.499999999999989
    vertex -9.879451019086531 61.3439630968267 4.499999999999989
  endloop
endfacet
facet normal 0.9914448613738098 -0.13052619222005712 -7.847957728540166e-16
  outer loop
    vertex -18.629451019086524 51.743963096826725 -1.127986593019159e-14
    vertex -18.527228497953725 52.52042023213427 4.499999999999989
    vertex -18.629451019086524 51.74396309682672 4.499999999999989
  endloop
endfacet
facet normal 0.9914448613738098 -0.13052619222005712 -7.847957728540166e-16
  outer loop
    vertex -18.527228497953725 52.52042023213427 4.499999999999989
    vertex -18.629451019086524 51.743963096826725 -1.127986593019159e-14
    vertex -18.52722849795373 52.52042023213427 -1.127986593019159e-14
  endloop
endfacet
facet normal 0.6087614290087224 0.7933533402912338 0.0
  outer loop
    vertex -17.75077136264618 49.62264275326708 4.4999999999999885
    vertex -17.129451019086538 49.1458868854734 -1.127986593019159e-14
    vertex -17.75077136264618 49.62264275326708 -1.127986593019159e-14
  endloop
endfacet
facet normal 0.6087614290087224 0.7933533402912338 0.0
  outer loop
    vertex -17.129451019086538 49.1458868854734 -1.127986593019159e-14
    vertex -17.75077136264618 49.62264275326708 4.4999999999999885
    vertex -17.129451019086538 49.1458868854734 4.4999999999999885
  endloop
endfacet
facet normal -0.13052619222004533 -0.9914448613738114 4.1479945292443675e-17
  outer loop
    vertex -14.852993883778973 54.64174057569392 4.499999999999989
    vertex -15.629451019086535 54.74396309682671 -1.127986593019159e-14
    vertex -14.852993883778977 54.64174057569392 -1.127986593019159e-14
  endloop
endfacet
facet normal -0.13052619222004533 -0.9914448613738114 4.1479945292443675e-17
  outer loop
    vertex -15.629451019086535 54.74396309682671 -1.127986593019159e-14
    vertex -14.852993883778973 54.64174057569392 4.499999999999989
    vertex -15.629451019086535 54.74396309682671 4.499999999999989
  endloop
endfacet
facet normal -0.9914448613738112 0.13052619222004638 -4.7490690804132e-16
  outer loop
    vertex -12.731673540219331 50.96750596151917 4.499999999999989
    vertex -12.62945101908654 51.743963096826725 -1.127986593019159e-14
    vertex -12.731673540219326 50.96750596151916 -1.127986593019159e-14
  endloop
endfacet
facet normal -0.9914448613738112 0.13052619222004638 -4.7490690804132e-16
  outer loop
    vertex -12.62945101908654 51.743963096826725 -1.127986593019159e-14
    vertex -12.731673540219331 50.96750596151917 4.499999999999989
    vertex -12.629451019086536 51.743963096826725 4.499999999999989
  endloop
endfacet
facet normal -0.7933533402912307 -0.6087614290087268 0.0
  outer loop
    vertex -13.508130675526903 53.865283440386364 4.499999999999989
    vertex -13.031374807733233 53.24396309682673 -1.127986593019159e-14
    vertex -13.031374807733233 53.24396309682673 4.499999999999989
  endloop
endfacet
facet normal -0.7933533402912307 -0.6087614290087268 0.0
  outer loop
    vertex -13.031374807733233 53.24396309682673 -1.127986593019159e-14
    vertex -13.508130675526903 53.865283440386364 4.499999999999989
    vertex -13.508130675526903 53.865283440386364 -1.127986593019159e-14
  endloop
endfacet
facet normal 1.0 0.0 0.0
  outer loop
    vertex -9.879451019086531 61.3439630968267 -1.127986593019159e-14
    vertex -9.879451019086531 42.14396309682671 4.499999999999989
    vertex -9.879451019086531 42.14396309682671 -1.127986593019159e-14
  endloop
endfacet
facet normal 1.0 0.0 0.0
  outer loop
    vertex -9.879451019086531 42.14396309682671 4.499999999999989
    vertex -9.879451019086531 61.3439630968267 -1.127986593019159e-14
    vertex -9.879451019086531 61.3439630968267 4.499999999999989
  endloop
endfacet
facet normal 0.38268343236508706 -0.9238795325112881 -6.761832042319969e-16
  outer loop
    vertex -16.405908154394094 54.64174057569391 4.499999999999989
    vertex -17.129451019086527 54.34203930818003 -1.127986593019159e-14
    vertex -16.405908154394094 54.64174057569391 -1.127986593019159e-14
  endloop
endfacet
facet normal 0.38268343236508706 -0.9238795325112881 -6.761832042319969e-16
  outer loop
    vertex -17.129451019086527 54.34203930818003 -1.127986593019159e-14
    vertex -16.405908154394094 54.64174057569391 4.499999999999989
    vertex -17.129451019086538 54.34203930818001 4.4999999999999885
  endloop
endfacet
facet normal 0.7933533402912368 -0.6087614290087188 -1.9771747573202042e-16
  outer loop
    vertex -17.75077136264618 53.86528344038635 -1.127986593019159e-14
    vertex -18.22752723043983 53.24396309682673 4.499999999999989
    vertex -18.227527230439836 53.24396309682671 -1.127986593019159e-14
  endloop
endfacet
facet normal 0.7933533402912368 -0.6087614290087188 -1.9771747573202042e-16
  outer loop
    vertex -18.22752723043983 53.24396309682673 4.499999999999989
    vertex -17.75077136264618 53.86528344038635 -1.127986593019159e-14
    vertex -17.75077136264616 53.865283440386364 4.499999999999989
  endloop
endfacet
facet normal 0.13052619222005926 -0.9914448613738094 0.0
  outer loop
    vertex -15.629451019086535 54.74396309682671 4.499999999999989
    vertex -16.405908154394094 54.64174057569391 -1.127986593019159e-14
    vertex -15.629451019086535 54.74396309682671 -1.127986593019159e-14
  endloop
endfacet
facet normal 0.13052619222005926 -0.9914448613738094 0.0
  outer loop
    vertex -16.405908154394094 54.64174057569391 -1.127986593019159e-14
    vertex -15.629451019086535 54.74396309682671 4.499999999999989
    vertex -16.405908154394094 54.64174057569391 4.499999999999989
  endloop
endfacet
facet normal -0.9238795325112886 0.38268343236508545 -1.8277199444959866e-15
  outer loop
    vertex -13.031374807733217 50.24396309682673 4.499999999999989
    vertex -12.731673540219326 50.96750596151916 -1.127986593019159e-14
    vertex -13.031374807733213 50.24396309682672 -1.127986593019159e-14
  endloop
endfacet
facet normal -0.9238795325112886 0.38268343236508545 -1.8277199444959866e-15
  outer loop
    vertex -12.731673540219326 50.96750596151916 -1.127986593019159e-14
    vertex -13.031374807733217 50.24396309682673 4.499999999999989
    vertex -12.731673540219331 50.96750596151917 4.499999999999989
  endloop
endfacet
facet normal 0.13052619222005218 0.9914448613738105 0.0
  outer loop
    vertex -16.405908154394094 48.84618561795951 4.499999999999989
    vertex -15.629451019086535 48.74396309682672 -1.127986593019159e-14
    vertex -16.405908154394094 48.84618561795951 -1.127986593019159e-14
  endloop
endfacet
facet normal 0.13052619222005218 0.9914448613738105 0.0
  outer loop
    vertex -15.629451019086535 48.74396309682672 -1.127986593019159e-14
    vertex -16.405908154394094 48.84618561795951 4.499999999999989
    vertex -15.629451019086535 48.74396309682672 4.499999999999989
  endloop
endfacet
facet normal 0.9914448613738112 0.13052619222004627 1.6411630528749576e-16
  outer loop
    vertex -18.629451019086524 51.743963096826725 -1.127986593019159e-14
    vertex -18.527228497953733 50.967505961519144 4.499999999999989
    vertex -18.527228497953733 50.967505961519144 -1.127986593019159e-14
  endloop
endfacet
facet normal 0.9914448613738112 0.13052619222004627 1.6411630528749576e-16
  outer loop
    vertex -18.527228497953733 50.967505961519144 4.499999999999989
    vertex -18.629451019086524 51.743963096826725 -1.127986593019159e-14
    vertex -18.629451019086524 51.74396309682672 4.499999999999989
  endloop
endfacet
facet normal -0.38268343236509383 -0.9238795325112852 1.2161304615450884e-16
  outer loop
    vertex -14.129451019086536 54.34203930818003 4.499999999999989
    vertex -14.852993883778977 54.64174057569392 -1.127986593019159e-14
    vertex -14.129451019086536 54.34203930818003 -1.127986593019159e-14
  endloop
endfacet
facet normal -0.38268343236509383 -0.9238795325112852 1.2161304615450884e-16
  outer loop
    vertex -14.852993883778977 54.64174057569392 -1.127986593019159e-14
    vertex -14.129451019086536 54.34203930818003 4.499999999999989
    vertex -14.852993883778973 54.64174057569392 4.499999999999989
  endloop
endfacet
facet normal -0.6087614290087267 0.7933533402912306 -9.188320281745633e-16
  outer loop
    vertex -14.129451019086536 49.145886885473395 4.499999999999989
    vertex -13.508130675526894 49.62264275326707 -1.127986593019159e-14
    vertex -14.129451019086536 49.145886885473395 -1.127986593019159e-14
  endloop
endfacet
facet normal -0.6087614290087267 0.7933533402912306 -9.188320281745633e-16
  outer loop
    vertex -13.508130675526894 49.62264275326707 -1.127986593019159e-14
    vertex -14.129451019086536 49.145886885473395 4.499999999999989
    vertex -13.508130675526886 49.62264275326709 4.499999999999989
  endloop
endfacet
facet normal -0.6087614290087187 -0.7933533402912368 0.0
  outer loop
    vertex -13.508130675526903 53.865283440386364 4.499999999999989
    vertex -14.129451019086536 54.34203930818003 -1.127986593019159e-14
    vertex -13.508130675526903 53.865283440386364 -1.127986593019159e-14
  endloop
endfacet
facet normal -0.6087614290087187 -0.7933533402912368 0.0
  outer loop
    vertex -14.129451019086536 54.34203930818003 -1.127986593019159e-14
    vertex -13.508130675526903 53.865283440386364 4.499999999999989
    vertex -14.129451019086536 54.34203930818003 4.499999999999989
  endloop
endfacet
facet normal 1.0 0.0 0.0
  outer loop
    vertex -10.379451019086531 64.3439630968267 -1.127986593019159e-14
    vertex -10.379451019086531 61.3439630968267 4.499999999999989
    vertex -10.379451019086531 61.3439630968267 -1.127986593019159e-14
  endloop
endfacet
facet normal 1.0 0.0 0.0
  outer loop
    vertex -10.379451019086531 61.3439630968267 4.499999999999989
    vertex -10.379451019086531 64.3439630968267 -1.127986593019159e-14
    vertex -10.379451019086531 64.3439630968267 4.499999999999989
  endloop
endfacet
facet normal 0.38268343236509195 0.923879532511286 1.0950820234501758e-18
  outer loop
    vertex -17.129451019086538 49.1458868854734 4.4999999999999885
    vertex -16.405908154394094 48.84618561795951 -1.127986593019159e-14
    vertex -17.129451019086538 49.1458868854734 -1.127986593019159e-14
  endloop
endfacet
facet normal 0.38268343236509195 0.923879532511286 1.0950820234501758e-18
  outer loop
    vertex -16.405908154394094 48.84618561795951 -1.127986593019159e-14
    vertex -17.129451019086538 49.1458868854734 4.4999999999999885
    vertex -16.405908154394094 48.84618561795951 4.499999999999989
  endloop
endfacet
facet normal 0.9238795325112868 -0.38268343236508956 -4.838784260134044e-16
  outer loop
    vertex -18.227527230439836 53.24396309682671 -1.127986593019159e-14
    vertex -18.527228497953725 52.52042023213427 4.499999999999989
    vertex -18.52722849795373 52.52042023213427 -1.127986593019159e-14
  endloop
endfacet
facet normal 0.9238795325112868 -0.38268343236508956 -4.838784260134044e-16
  outer loop
    vertex -18.527228497953725 52.52042023213427 4.499999999999989
    vertex -18.227527230439836 53.24396309682671 -1.127986593019159e-14
    vertex -18.22752723043983 53.24396309682673 4.499999999999989
  endloop
endfacet
facet normal 0.5331200416770137 0.846039609688754 2.5044743985735524e-16
  outer loop
    vertex 11.427649313583377 40.01650717803838 4.499999999999989
    vertex 11.670939510592577 39.8632012589256 -1.127986593019159e-14
    vertex 11.427649313583377 40.01650717803838 -1.127986593019159e-14
  endloop
endfacet
facet normal 0.5331200416770137 0.846039609688754 2.5044743985735524e-16
  outer loop
    vertex 11.670939510592577 39.8632012589256 -1.127986593019159e-14
    vertex 11.427649313583377 40.01650717803838 4.499999999999989
    vertex 11.670939510592577 39.8632012589256 4.499999999999989
  endloop
endfacet
facet normal -0.1122199419728875 0.993683392546943 0.0
  outer loop
    vertex 10.58480180599519 40.111692726174695 4.499999999999989
    vertex 10.870548980913469 40.14396309682672 -1.127986593019159e-14
    vertex 10.58480180599519 40.111692726174695 -1.127986593019159e-14
  endloop
endfacet
facet normal -0.1122199419728875 0.993683392546943 0.0
  outer loop
    vertex 10.870548980913469 40.14396309682672 -1.127986593019159e-14
    vertex 10.58480180599519 40.111692726174695 4.499999999999989
    vertex 10.870548980913469 40.14396309682672 4.499999999999989
  endloop
endfacet
facet normal -0.8479529339877362 0.5300715251186295 0.0
  outer loop
    vertex 9.867186535683281 39.65949748799016 4.4999999999999885
    vertex 9.714757258970659 39.41565708855507 -1.127986593019159e-14
    vertex 9.714757258970659 39.41565708855507 4.4999999999999885
  endloop
endfacet
facet normal -0.8479529339877362 0.5300715251186295 0.0
  outer loop
    vertex 9.714757258970659 39.41565708855507 -1.127986593019159e-14
    vertex 9.867186535683281 39.65949748799016 4.4999999999999885
    vertex 9.867186535683281 39.65949748799016 -1.127986593019159e-14
  endloop
endfacet
facet normal 0.7083781466452929 0.7058331257141307 9.983389072382411e-16
  outer loop
    vertex 11.670939510592577 39.8632012589256 -1.127986593019159e-14
    vertex 11.873911426143644 39.65949748799016 4.499999999999989
    vertex 11.873911426143655 39.65949748799016 -1.127986593019159e-14
  endloop
endfacet
facet normal 0.7083781466452929 0.7058331257141307 9.983389072382411e-16
  outer loop
    vertex 11.873911426143644 39.65949748799016 4.499999999999989
    vertex 11.670939510592577 39.8632012589256 -1.127986593019159e-14
    vertex 11.670939510592577 39.8632012589256 4.499999999999989
  endloop
endfacet
facet normal -0.9448135664419981 0.32760849297164474 6.565115994954149e-20
  outer loop
    vertex 9.714757258970659 39.41565708855507 4.4999999999999885
    vertex 9.62054898091347 39.14396309682671 -1.127986593019159e-14
    vertex 9.62054898091347 39.14396309682671 4.499999999999989
  endloop
endfacet
facet normal -0.9448135664419981 0.32760849297164474 6.565115994954149e-20
  outer loop
    vertex 9.62054898091347 39.14396309682671 -1.127986593019159e-14
    vertex 9.714757258970659 39.41565708855507 4.4999999999999885
    vertex 9.714757258970659 39.41565708855507 -1.127986593019159e-14
  endloop
endfacet
facet normal -0.7083781466452965 0.7058331257141273 -4.441139991758376e-16
  outer loop
    vertex 10.070158451234361 39.8632012589256 4.4999999999999885
    vertex 9.867186535683281 39.65949748799016 -1.127986593019159e-14
    vertex 9.867186535683281 39.65949748799016 4.4999999999999885
  endloop
endfacet
facet normal -0.7083781466452965 0.7058331257141273 -4.441139991758376e-16
  outer loop
    vertex 9.867186535683281 39.65949748799016 -1.127986593019159e-14
    vertex 10.070158451234361 39.8632012589256 4.4999999999999885
    vertex 10.070158451234361 39.8632012589256 -1.127986593019159e-14
  endloop
endfacet
facet normal 0.0 -1.0 0.0
  outer loop
    vertex 12.120548980913465 35.74396309682671 4.499999999999989
    vertex -20.87945101908653 35.74396309682671 -1.127986593019159e-14
    vertex 12.120548980913465 35.74396309682671 -1.127986593019159e-14
  endloop
endfacet
facet normal 0.0 -1.0 0.0
  outer loop
    vertex -20.87945101908653 35.74396309682671 -1.127986593019159e-14
    vertex 12.120548980913465 35.74396309682671 4.499999999999989
    vertex -20.87945101908653 35.74396309682671 4.499999999999989
  endloop
endfacet
facet normal 0.0 1.0 0.0
  outer loop
    vertex -10.379451019086531 39.14396309682671 4.499999999999989
    vertex 9.62054898091347 39.14396309682671 -1.127986593019159e-14
    vertex -10.379451019086531 39.14396309682671 -1.127986593019159e-14
  endloop
endfacet
facet normal 0.0 1.0 0.0
  outer loop
    vertex 9.62054898091347 39.14396309682671 -1.127986593019159e-14
    vertex -10.379451019086531 39.14396309682671 4.499999999999989
    vertex 9.62054898091347 39.14396309682671 4.499999999999989
  endloop
endfacet
facet normal -0.5331200416770036 0.8460396096887604 -3.3531774040337806e-16
  outer loop
    vertex 10.070158451234361 39.8632012589256 4.4999999999999885
    vertex 10.31344864824356 40.01650717803838 -1.127986593019159e-14
    vertex 10.070158451234361 39.8632012589256 -1.127986593019159e-14
  endloop
endfacet
facet normal -0.5331200416770036 0.8460396096887604 -3.3531774040337806e-16
  outer loop
    vertex 10.31344864824356 40.01650717803838 -1.127986593019159e-14
    vertex 10.070158451234361 39.8632012589256 4.4999999999999885
    vertex 10.31344864824356 40.01650717803838 4.499999999999989
  endloop
endfacet
facet normal 0.11221994197288801 0.9936833925469428 0.0
  outer loop
    vertex 10.870548980913469 40.14396309682672 4.499999999999989
    vertex 11.156296155831747 40.111692726174695 -1.127986593019159e-14
    vertex 10.870548980913469 40.14396309682672 -1.127986593019159e-14
  endloop
endfacet
facet normal 0.11221994197288801 0.9936833925469428 0.0
  outer loop
    vertex 11.156296155831747 40.111692726174695 -1.127986593019159e-14
    vertex 10.870548980913469 40.14396309682672 4.499999999999989
    vertex 11.156296155831747 40.111692726174695 4.499999999999989
  endloop
endfacet
facet normal -0.33100694143550585 0.9436283191604159 0.0
  outer loop
    vertex 10.31344864824356 40.01650717803838 4.499999999999989
    vertex 10.58480180599519 40.111692726174695 -1.127986593019159e-14
    vertex 10.31344864824356 40.01650717803838 -1.127986593019159e-14
  endloop
endfacet
facet normal -0.33100694143550585 0.9436283191604159 0.0
  outer loop
    vertex 10.58480180599519 40.111692726174695 -1.127986593019159e-14
    vertex 10.31344864824356 40.01650717803838 4.499999999999989
    vertex 10.58480180599519 40.111692726174695 4.499999999999989
  endloop
endfacet
facet normal 0.33100694143550136 0.9436283191604175 0.0
  outer loop
    vertex 11.156296155831747 40.111692726174695 4.499999999999989
    vertex 11.427649313583377 40.01650717803838 -1.127986593019159e-14
    vertex 11.156296155831747 40.111692726174695 -1.127986593019159e-14
  endloop
endfacet
facet normal 0.33100694143550136 0.9436283191604175 0.0
  outer loop
    vertex 11.427649313583377 40.01650717803838 -1.127986593019159e-14
    vertex 11.156296155831747 40.111692726174695 4.499999999999989
    vertex 11.427649313583377 40.01650717803838 4.499999999999989
  endloop
endfacet
facet normal 0.8479529339877351 0.5300715251186312 1.3308795152315854e-15
  outer loop
    vertex 11.873911426143655 39.65949748799016 -1.127986593019159e-14
    vertex 12.026340702856267 39.41565708855507 4.4999999999999885
    vertex 12.026340702856277 39.41565708855507 -1.127986593019159e-14
  endloop
endfacet
facet normal 0.8479529339877351 0.5300715251186312 1.3308795152315854e-15
  outer loop
    vertex 12.026340702856267 39.41565708855507 4.4999999999999885
    vertex 11.873911426143655 39.65949748799016 -1.127986593019159e-14
    vertex 11.873911426143644 39.65949748799016 4.499999999999989
  endloop
endfacet
facet normal 0.9448135664419974 0.3276084929716469 1.485600922685177e-16
  outer loop
    vertex 12.026340702856277 39.41565708855507 -1.127986593019159e-14
    vertex 12.120548980913465 39.14396309682671 4.499999999999989
    vertex 12.120548980913465 39.14396309682671 -1.127986593019159e-14
  endloop
endfacet
facet normal 0.9448135664419974 0.3276084929716469 1.485600922685177e-16
  outer loop
    vertex 12.120548980913465 39.14396309682671 4.499999999999989
    vertex 12.026340702856277 39.41565708855507 -1.127986593019159e-14
    vertex 12.026340702856267 39.41565708855507 4.4999999999999885
  endloop
endfacet
facet normal 1.0 2.0735047665793365e-16 -4.699944137579828e-16
  outer loop
    vertex 12.120548980913465 39.14396309682671 -1.127986593019159e-14
    vertex 12.120548980913465 35.74396309682671 4.499999999999989
    vertex 12.120548980913465 35.74396309682671 -1.127986593019159e-14
  endloop
endfacet
facet normal 1.0 2.0735047665793365e-16 -4.699944137579828e-16
  outer loop
    vertex 12.120548980913465 35.74396309682671 4.499999999999989
    vertex 12.120548980913465 39.14396309682671 -1.127986593019159e-14
    vertex 12.120548980913465 39.14396309682671 4.499999999999989
  endloop
endfacet
facet normal 0.8479529339877384 -0.5300715251186261 -1.0980391072661958e-18
  outer loop
    vertex 12.026340702856267 64.07226910509834 -1.127986593019159e-14
    vertex 11.873911426143655 63.828428705663256 4.4999999999999885
    vertex 11.873911426143655 63.828428705663256 -1.127986593019159e-14
  endloop
endfacet
facet normal 0.8479529339877384 -0.5300715251186261 -1.0980391072661958e-18
  outer loop
    vertex 11.873911426143655 63.828428705663256 4.4999999999999885
    vertex 12.026340702856267 64.07226910509834 -1.127986593019159e-14
    vertex 12.026340702856267 64.07226910509834 4.499999999999989
  endloop
endfacet
facet normal 0.7083781466453088 -0.7058331257141148 8.79111654013925e-21
  outer loop
    vertex 11.873911426143655 63.828428705663256 -1.127986593019159e-14
    vertex 11.670939510592577 63.62472493472781 4.499999999999989
    vertex 11.670939510592577 63.62472493472781 -1.127986593019159e-14
  endloop
endfacet
facet normal 0.7083781466453088 -0.7058331257141148 8.79111654013925e-21
  outer loop
    vertex 11.670939510592577 63.62472493472781 4.499999999999989
    vertex 11.873911426143655 63.828428705663256 -1.127986593019159e-14
    vertex 11.873911426143655 63.828428705663256 4.4999999999999885
  endloop
endfacet
facet normal -6.042879027432595e-16 -1.0 -1.7812106765945246e-31
  outer loop
    vertex 9.62054898091347 64.3439630968267 4.499999999999989
    vertex -10.379451019086531 64.3439630968267 -1.127986593019159e-14
    vertex 9.62054898091347 64.3439630968267 -1.127986593019159e-14
  endloop
endfacet
facet normal -6.042879027432595e-16 -1.0 -1.7812106765945246e-31
  outer loop
    vertex -10.379451019086531 64.3439630968267 -1.127986593019159e-14
    vertex 9.62054898091347 64.3439630968267 4.499999999999989
    vertex -10.379451019086531 64.3439630968267 4.499999999999989
  endloop
endfacet
facet normal -0.7083781466453075 -0.7058331257141162 -9.951521274925212e-16
  outer loop
    vertex 9.867186535683281 63.828428705663256 4.4999999999999885
    vertex 10.070158451234361 63.62472493472781 -1.127986593019159e-14
    vertex 10.070158451234361 63.62472493472781 4.4999999999999885
  endloop
endfacet
facet normal -0.7083781466453075 -0.7058331257141162 -9.951521274925212e-16
  outer loop
    vertex 10.070158451234361 63.62472493472781 -1.127986593019159e-14
    vertex 9.867186535683281 63.828428705663256 4.4999999999999885
    vertex 9.867186535683281 63.82842870566326 -1.127986593019159e-14
  endloop
endfacet
facet normal 1.0 -2.0735047665793194e-15 0.0
  outer loop
    vertex 12.120548980913465 67.7439630968267 -1.127986593019159e-14
    vertex 12.120548980913465 64.34396309682668 4.499999999999989
    vertex 12.120548980913465 64.34396309682668 -1.127986593019159e-14
  endloop
endfacet
facet normal 1.0 -2.0735047665793194e-15 0.0
  outer loop
    vertex 12.120548980913465 64.34396309682668 4.499999999999989
    vertex 12.120548980913465 67.7439630968267 -1.127986593019159e-14
    vertex 12.120548980913465 67.7439630968267 4.499999999999989
  endloop
endfacet
facet normal -0.11221994197288913 -0.9936833925469428 0.0
  outer loop
    vertex 10.870548980913469 63.34396309682669 4.499999999999989
    vertex 10.584801805995202 63.37623346747871 -1.127986593019159e-14
    vertex 10.870548980913469 63.34396309682669 -1.127986593019159e-14
  endloop
endfacet
facet normal -0.11221994197288913 -0.9936833925469428 0.0
  outer loop
    vertex 10.584801805995202 63.37623346747871 -1.127986593019159e-14
    vertex 10.870548980913469 63.34396309682669 4.499999999999989
    vertex 10.584801805995202 63.37623346747871 4.499999999999989
  endloop
endfacet
facet normal -0.5331200416770158 -0.8460396096887529 -8.378940083463026e-17
  outer loop
    vertex 10.31344864824356 63.47141901561503 4.4999999999999885
    vertex 10.070158451234361 63.62472493472781 -1.127986593019159e-14
    vertex 10.31344864824356 63.47141901561503 -1.127986593019159e-14
  endloop
endfacet
facet normal -0.5331200416770158 -0.8460396096887529 -8.378940083463026e-17
  outer loop
    vertex 10.070158451234361 63.62472493472781 -1.127986593019159e-14
    vertex 10.31344864824356 63.47141901561503 4.4999999999999885
    vertex 10.070158451234361 63.62472493472781 4.4999999999999885
  endloop
endfacet
facet normal 7.281315338350293e-18 -8.251361189010295e-19 1.0
  outer loop
    vertex -20.87945101908653 35.74396309682671 4.499999999999989
    vertex -18.527228497953733 50.967505961519144 4.499999999999989
    vertex -20.87945101908653 67.7439630968267 4.499999999999989
  endloop
endfacet
facet normal 7.281315338350293e-18 -8.251361189010295e-19 1.0
  outer loop
    vertex -18.527228497953733 50.967505961519144 4.499999999999989
    vertex -20.87945101908653 35.74396309682671 4.499999999999989
    vertex -18.227527230439843 50.24396309682672 4.499999999999989
  endloop
endfacet
facet normal 7.281315338350293e-18 -8.251361189010295e-19 1.0
  outer loop
    vertex -18.227527230439843 50.24396309682672 4.499999999999989
    vertex -20.87945101908653 35.74396309682671 4.499999999999989
    vertex -10.379451019086531 39.14396309682671 4.499999999999989
  endloop
endfacet
facet normal 7.281315338350293e-18 -8.251361189010295e-19 1.0
  outer loop
    vertex -10.379451019086531 39.14396309682671 4.499999999999989
    vertex -20.87945101908653 35.74396309682671 4.499999999999989
    vertex 12.120548980913465 35.74396309682671 4.499999999999989
  endloop
endfacet
facet normal 7.281315338350293e-18 -8.251361189010295e-19 1.0
  outer loop
    vertex -20.87945101908653 67.7439630968267 4.499999999999989
    vertex -18.527228497953733 50.967505961519144 4.499999999999989
    vertex -18.629451019086524 51.74396309682672 4.499999999999989
  endloop
endfacet
facet normal 7.281315338350293e-18 -8.251361189010295e-19 1.0
  outer loop
    vertex -18.227527230439843 50.24396309682672 4.499999999999989
    vertex -10.379451019086531 39.14396309682671 4.499999999999989
    vertex -17.75077136264618 49.62264275326708 4.4999999999999885
  endloop
endfacet
facet normal 7.281315338350293e-18 -8.251361189010295e-19 1.0
  outer loop
    vertex -17.75077136264618 49.62264275326708 4.4999999999999885
    vertex -10.379451019086531 39.14396309682671 4.499999999999989
    vertex -17.129451019086538 49.1458868854734 4.4999999999999885
  endloop
endfacet
facet normal 7.281315338350293e-18 -8.251361189010295e-19 1.0
  outer loop
    vertex -17.129451019086538 49.1458868854734 4.4999999999999885
    vertex -10.379451019086531 39.14396309682671 4.499999999999989
    vertex -16.405908154394094 48.84618561795951 4.499999999999989
  endloop
endfacet
facet normal 7.281315338350293e-18 -8.251361189010295e-19 1.0
  outer loop
    vertex -16.405908154394094 48.84618561795951 4.499999999999989
    vertex -10.379451019086531 39.14396309682671 4.499999999999989
    vertex -15.629451019086535 48.74396309682672 4.499999999999989
  endloop
endfacet
facet normal 7.281315338350293e-18 -8.251361189010295e-19 1.0
  outer loop
    vertex -15.629451019086535 48.74396309682672 4.499999999999989
    vertex -10.379451019086531 39.14396309682671 4.499999999999989
    vertex -14.852993883778971 48.84618561795951 4.499999999999989
  endloop
endfacet
facet normal 7.281315338350293e-18 -8.251361189010295e-19 1.0
  outer loop
    vertex -14.852993883778971 48.84618561795951 4.499999999999989
    vertex -10.379451019086531 39.14396309682671 4.499999999999989
    vertex -14.129451019086536 49.145886885473395 4.499999999999989
  endloop
endfacet
facet normal 7.281315338350293e-18 -8.251361189010295e-19 1.0
  outer loop
    vertex -14.129451019086536 49.145886885473395 4.499999999999989
    vertex -10.379451019086531 39.14396309682671 4.499999999999989
    vertex -13.508130675526886 49.62264275326709 4.499999999999989
  endloop
endfacet
facet normal 7.281315338350293e-18 -8.251361189010295e-19 1.0
  outer loop
    vertex -13.508130675526886 49.62264275326709 4.499999999999989
    vertex -10.379451019086531 39.14396309682671 4.499999999999989
    vertex -13.031374807733217 50.24396309682673 4.499999999999989
  endloop
endfacet
facet normal 7.281315338350293e-18 -8.251361189010295e-19 1.0
  outer loop
    vertex -13.031374807733217 50.24396309682673 4.499999999999989
    vertex -10.379451019086531 39.14396309682671 4.499999999999989
    vertex -12.731673540219331 50.96750596151917 4.499999999999989
  endloop
endfacet
facet normal 7.281315338350293e-18 -8.251361189010295e-19 1.0
  outer loop
    vertex -12.731673540219331 50.96750596151917 4.499999999999989
    vertex -10.379451019086531 39.14396309682671 4.499999999999989
    vertex -12.629451019086536 51.743963096826725 4.499999999999989
  endloop
endfacet
facet normal 7.281315338350293e-18 -8.251361189010295e-19 1.0
  outer loop
    vertex -10.379451019086531 39.14396309682671 4.499999999999989
    vertex 12.120548980913465 35.74396309682671 4.499999999999989
    vertex 9.62054898091347 39.14396309682671 4.499999999999989
  endloop
endfacet
facet normal 7.281315338350293e-18 -8.251361189010295e-19 1.0
  outer loop
    vertex 9.62054898091347 39.14396309682671 4.499999999999989
    vertex 12.120548980913465 35.74396309682671 4.499999999999989
    vertex 9.714757258970659 39.41565708855507 4.4999999999999885
  endloop
endfacet
facet normal 7.281315338350293e-18 -8.251361189010295e-19 1.0
  outer loop
    vertex 9.714757258970659 39.41565708855507 4.4999999999999885
    vertex 12.120548980913465 35.74396309682671 4.499999999999989
    vertex 9.867186535683281 39.65949748799016 4.4999999999999885
  endloop
endfacet
facet normal 7.281315338350293e-18 -8.251361189010295e-19 1.0
  outer loop
    vertex 9.867186535683281 39.65949748799016 4.4999999999999885
    vertex 12.120548980913465 35.74396309682671 4.499999999999989
    vertex 10.070158451234361 39.8632012589256 4.4999999999999885
  endloop
endfacet
facet normal 7.281315338350293e-18 -8.251361189010295e-19 1.0
  outer loop
    vertex 10.070158451234361 39.8632012589256 4.4999999999999885
    vertex 12.120548980913465 35.74396309682671 4.499999999999989
    vertex 10.31344864824356 40.01650717803838 4.499999999999989
  endloop
endfacet
facet normal 7.281315338350293e-18 -8.251361189010295e-19 1.0
  outer loop
    vertex 10.31344864824356 40.01650717803838 4.499999999999989
    vertex 12.120548980913465 35.74396309682671 4.499999999999989
    vertex 10.58480180599519 40.111692726174695 4.499999999999989
  endloop
endfacet
facet normal 7.281315338350293e-18 -8.251361189010295e-19 1.0
  outer loop
    vertex 10.58480180599519 40.111692726174695 4.499999999999989
    vertex 12.120548980913465 35.74396309682671 4.499999999999989
    vertex 10.870548980913469 40.14396309682672 4.499999999999989
  endloop
endfacet
facet normal 7.281315338350293e-18 -8.251361189010295e-19 1.0
  outer loop
    vertex 10.870548980913469 40.14396309682672 4.499999999999989
    vertex 12.120548980913465 35.74396309682671 4.499999999999989
    vertex 11.156296155831747 40.111692726174695 4.499999999999989
  endloop
endfacet
facet normal 7.281315338350293e-18 -8.251361189010295e-19 1.0
  outer loop
    vertex 11.156296155831747 40.111692726174695 4.499999999999989
    vertex 12.120548980913465 35.74396309682671 4.499999999999989
    vertex 11.427649313583377 40.01650717803838 4.499999999999989
  endloop
endfacet
facet normal 7.281315338350293e-18 -8.251361189010295e-19 1.0
  outer loop
    vertex 11.427649313583377 40.01650717803838 4.499999999999989
    vertex 12.120548980913465 35.74396309682671 4.499999999999989
    vertex 11.670939510592577 39.8632012589256 4.499999999999989
  endloop
endfacet
facet normal 7.281315338350293e-18 -8.251361189010295e-19 1.0
  outer loop
    vertex 11.670939510592577 39.8632012589256 4.499999999999989
    vertex 12.120548980913465 35.74396309682671 4.499999999999989
    vertex 11.873911426143644 39.65949748799016 4.499999999999989
  endloop
endfacet
facet normal 7.281315338350293e-18 -8.251361189010295e-19 1.0
  outer loop
    vertex 11.873911426143644 39.65949748799016 4.499999999999989
    vertex 12.120548980913465 35.74396309682671 4.499999999999989
    vertex 12.026340702856267 39.41565708855507 4.4999999999999885
  endloop
endfacet
facet normal 7.281315338350293e-18 -8.251361189010295e-19 1.0
  outer loop
    vertex 12.026340702856267 39.41565708855507 4.4999999999999885
    vertex 12.120548980913465 35.74396309682671 4.499999999999989
    vertex 12.120548980913465 39.14396309682671 4.499999999999989
  endloop
endfacet
facet normal 7.281315338350293e-18 -8.251361189010295e-19 1.0
  outer loop
    vertex -9.879451019086531 42.14396309682671 4.499999999999989
    vertex -10.379451019086531 61.3439630968267 4.499999999999989
    vertex -10.379451019086531 42.14396309682671 4.499999999999989
  endloop
endfacet
facet normal 7.281315338350293e-18 -8.251361189010295e-19 1.0
  outer loop
    vertex -10.379451019086531 61.3439630968267 4.499999999999989
    vertex -9.879451019086531 42.14396309682671 4.499999999999989
    vertex -9.879451019086531 61.3439630968267 4.499999999999989
  endloop
endfacet
facet normal 7.281315338350293e-18 -8.251361189010295e-19 1.0
  outer loop
    vertex -20.87945101908653 67.7439630968267 4.499999999999989
    vertex -10.379451019086531 64.3439630968267 4.499999999999989
    vertex 12.120548980913465 67.7439630968267 4.499999999999989
  endloop
endfacet
facet normal 7.281315338350293e-18 -8.251361189010295e-19 1.0
  outer loop
    vertex -10.379451019086531 64.3439630968267 4.499999999999989
    vertex -20.87945101908653 67.7439630968267 4.499999999999989
    vertex -18.22752723043983 53.24396309682673 4.499999999999989
  endloop
endfacet
facet normal 7.281315338350293e-18 -8.251361189010295e-19 1.0
  outer loop
    vertex -18.22752723043983 53.24396309682673 4.499999999999989
    vertex -20.87945101908653 67.7439630968267 4.499999999999989
    vertex -18.527228497953725 52.52042023213427 4.499999999999989
  endloop
endfacet
facet normal 7.281315338350293e-18 -8.251361189010295e-19 1.0
  outer loop
    vertex -18.527228497953725 52.52042023213427 4.499999999999989
    vertex -20.87945101908653 67.7439630968267 4.499999999999989
    vertex -18.629451019086524 51.74396309682672 4.499999999999989
  endloop
endfacet
facet normal 7.281315338350293e-18 -8.251361189010295e-19 1.0
  outer loop
    vertex -10.379451019086531 64.3439630968267 4.499999999999989
    vertex -18.22752723043983 53.24396309682673 4.499999999999989
    vertex -17.75077136264616 53.865283440386364 4.499999999999989
  endloop
endfacet
facet normal 7.281315338350293e-18 -8.251361189010295e-19 1.0
  outer loop
    vertex -10.379451019086531 64.3439630968267 4.499999999999989
    vertex -17.75077136264616 53.865283440386364 4.499999999999989
    vertex -17.129451019086538 54.34203930818001 4.4999999999999885
  endloop
endfacet
facet normal 7.281315338350293e-18 -8.251361189010295e-19 1.0
  outer loop
    vertex -10.379451019086531 64.3439630968267 4.499999999999989
    vertex -17.129451019086538 54.34203930818001 4.4999999999999885
    vertex -16.405908154394094 54.64174057569391 4.499999999999989
  endloop
endfacet
facet normal 7.281315338350293e-18 -8.251361189010295e-19 1.0
  outer loop
    vertex -10.379451019086531 64.3439630968267 4.499999999999989
    vertex -16.405908154394094 54.64174057569391 4.499999999999989
    vertex -15.629451019086535 54.74396309682671 4.499999999999989
  endloop
endfacet
facet normal 7.281315338350293e-18 -8.251361189010295e-19 1.0
  outer loop
    vertex -10.379451019086531 64.3439630968267 4.499999999999989
    vertex -15.629451019086535 54.74396309682671 4.499999999999989
    vertex -14.852993883778973 54.64174057569392 4.499999999999989
  endloop
endfacet
facet normal 7.281315338350293e-18 -8.251361189010295e-19 1.0
  outer loop
    vertex -10.379451019086531 64.3439630968267 4.499999999999989
    vertex -14.852993883778973 54.64174057569392 4.499999999999989
    vertex -14.129451019086536 54.34203930818003 4.499999999999989
  endloop
endfacet
facet normal 7.281315338350293e-18 -8.251361189010295e-19 1.0
  outer loop
    vertex -10.379451019086531 64.3439630968267 4.499999999999989
    vertex -14.129451019086536 54.34203930818003 4.499999999999989
    vertex -13.508130675526903 53.865283440386364 4.499999999999989
  endloop
endfacet
facet normal 7.281315338350293e-18 -8.251361189010295e-19 1.0
  outer loop
    vertex -10.379451019086531 64.3439630968267 4.499999999999989
    vertex -13.508130675526903 53.865283440386364 4.499999999999989
    vertex -13.031374807733233 53.24396309682673 4.499999999999989
  endloop
endfacet
facet normal 7.281315338350293e-18 -8.251361189010295e-19 1.0
  outer loop
    vertex -10.379451019086531 64.3439630968267 4.499999999999989
    vertex -13.031374807733233 53.24396309682673 4.499999999999989
    vertex -12.731673540219335 52.52042023213427 4.499999999999989
  endloop
endfacet
facet normal 7.281315338350293e-18 -8.251361189010295e-19 1.0
  outer loop
    vertex -10.379451019086531 64.3439630968267 4.499999999999989
    vertex -12.731673540219335 52.52042023213427 4.499999999999989
    vertex -12.629451019086536 51.743963096826725 4.499999999999989
  endloop
endfacet
facet normal 7.281315338350293e-18 -8.251361189010295e-19 1.0
  outer loop
    vertex -10.379451019086531 64.3439630968267 4.499999999999989
    vertex -12.629451019086536 51.743963096826725 4.499999999999989
    vertex -10.379451019086531 39.14396309682671 4.499999999999989
  endloop
endfacet
facet normal 7.281315338350293e-18 -8.251361189010295e-19 1.0
  outer loop
    vertex -10.379451019086531 64.3439630968267 4.499999999999989
    vertex -10.379451019086531 39.14396309682671 4.499999999999989
    vertex -10.379451019086531 42.14396309682671 4.499999999999989
  endloop
endfacet
facet normal 7.281315338350293e-18 -8.251361189010295e-19 1.0
  outer loop
    vertex -10.379451019086531 64.3439630968267 4.499999999999989
    vertex -10.379451019086531 42.14396309682671 4.499999999999989
    vertex -10.379451019086531 61.3439630968267 4.499999999999989
  endloop
endfacet
facet normal 7.281315338350293e-18 -8.251361189010295e-19 1.0
  outer loop
    vertex 12.120548980913465 67.7439630968267 4.499999999999989
    vertex -10.379451019086531 64.3439630968267 4.499999999999989
    vertex 9.62054898091347 64.3439630968267 4.499999999999989
  endloop
endfacet
facet normal 7.281315338350293e-18 -8.251361189010295e-19 1.0
  outer loop
    vertex 12.120548980913465 67.7439630968267 4.499999999999989
    vertex 9.62054898091347 64.3439630968267 4.499999999999989
    vertex 9.714757258970671 64.07226910509834 4.499999999999989
  endloop
endfacet
facet normal 7.281315338350293e-18 -8.251361189010295e-19 1.0
  outer loop
    vertex 12.120548980913465 67.7439630968267 4.499999999999989
    vertex 9.714757258970671 64.07226910509834 4.499999999999989
    vertex 9.867186535683281 63.828428705663256 4.4999999999999885
  endloop
endfacet
facet normal 7.281315338350293e-18 -8.251361189010295e-19 1.0
  outer loop
    vertex 12.120548980913465 67.7439630968267 4.499999999999989
    vertex 9.867186535683281 63.828428705663256 4.4999999999999885
    vertex 10.070158451234361 63.62472493472781 4.4999999999999885
  endloop
endfacet
facet normal 7.281315338350293e-18 -8.251361189010295e-19 1.0
  outer loop
    vertex 12.120548980913465 67.7439630968267 4.499999999999989
    vertex 10.070158451234361 63.62472493472781 4.4999999999999885
    vertex 10.31344864824356 63.47141901561503 4.4999999999999885
  endloop
endfacet
facet normal 7.281315338350293e-18 -8.251361189010295e-19 1.0
  outer loop
    vertex 12.120548980913465 67.7439630968267 4.499999999999989
    vertex 10.31344864824356 63.47141901561503 4.4999999999999885
    vertex 10.584801805995202 63.37623346747871 4.499999999999989
  endloop
endfacet
facet normal 7.281315338350293e-18 -8.251361189010295e-19 1.0
  outer loop
    vertex 12.120548980913465 67.7439630968267 4.499999999999989
    vertex 10.584801805995202 63.37623346747871 4.499999999999989
    vertex 10.870548980913469 63.34396309682669 4.499999999999989
  endloop
endfacet
facet normal 7.281315338350293e-18 -8.251361189010295e-19 1.0
  outer loop
    vertex 12.120548980913465 67.7439630968267 4.499999999999989
    vertex 10.870548980913469 63.34396309682669 4.499999999999989
    vertex 11.156296155831736 63.37623346747871 4.499999999999989
  endloop
endfacet
facet normal 7.281315338350293e-18 -8.251361189010295e-19 1.0
  outer loop
    vertex 12.120548980913465 67.7439630968267 4.499999999999989
    vertex 11.156296155831736 63.37623346747871 4.499999999999989
    vertex 11.427649313583377 63.47141901561503 4.499999999999989
  endloop
endfacet
facet normal 7.281315338350293e-18 -8.251361189010295e-19 1.0
  outer loop
    vertex 12.120548980913465 67.7439630968267 4.499999999999989
    vertex 11.427649313583377 63.47141901561503 4.499999999999989
    vertex 11.670939510592577 63.62472493472781 4.499999999999989
  endloop
endfacet
facet normal 7.281315338350293e-18 -8.251361189010295e-19 1.0
  outer loop
    vertex 12.120548980913465 67.7439630968267 4.499999999999989
    vertex 11.670939510592577 63.62472493472781 4.499999999999989
    vertex 11.873911426143655 63.828428705663256 4.4999999999999885
  endloop
endfacet
facet normal 7.281315338350293e-18 -8.251361189010295e-19 1.0
  outer loop
    vertex 12.120548980913465 67.7439630968267 4.499999999999989
    vertex 11.873911426143655 63.828428705663256 4.4999999999999885
    vertex 12.026340702856267 64.07226910509834 4.499999999999989
  endloop
endfacet
facet normal 7.281315338350293e-18 -8.251361189010295e-19 1.0
  outer loop
    vertex 12.120548980913465 67.7439630968267 4.499999999999989
    vertex 12.026340702856267 64.07226910509834 4.499999999999989
    vertex 12.120548980913465 64.34396309682668 4.499999999999989
  endloop
endfacet
facet normal 0.0 0.0 -1.0
  outer loop
    vertex -20.87945101908653 67.7439630968267 -1.127986593019159e-14
    vertex -18.52722849795373 52.52042023213427 -1.127986593019159e-14
    vertex -20.87945101908653 35.74396309682671 -1.127986593019159e-14
  endloop
endfacet
facet normal 0.0 0.0 -1.0
  outer loop
    vertex -18.52722849795373 52.52042023213427 -1.127986593019159e-14
    vertex -20.87945101908653 67.7439630968267 -1.127986593019159e-14
    vertex -18.227527230439836 53.24396309682671 -1.127986593019159e-14
  endloop
endfacet
facet normal 0.0 0.0 -1.0
  outer loop
    vertex -18.227527230439836 53.24396309682671 -1.127986593019159e-14
    vertex -20.87945101908653 67.7439630968267 -1.127986593019159e-14
    vertex -10.379451019086531 64.3439630968267 -1.127986593019159e-14
  endloop
endfacet
facet normal 0.0 0.0 -1.0
  outer loop
    vertex -10.379451019086531 64.3439630968267 -1.127986593019159e-14
    vertex -20.87945101908653 67.7439630968267 -1.127986593019159e-14
    vertex 12.120548980913465 67.7439630968267 -1.127986593019159e-14
  endloop
endfacet
facet normal 0.0 0.0 -1.0
  outer loop
    vertex -20.87945101908653 35.74396309682671 -1.127986593019159e-14
    vertex -18.52722849795373 52.52042023213427 -1.127986593019159e-14
    vertex -18.629451019086524 51.743963096826725 -1.127986593019159e-14
  endloop
endfacet
facet normal 0.0 0.0 -1.0
  outer loop
    vertex -18.227527230439836 53.24396309682671 -1.127986593019159e-14
    vertex -10.379451019086531 64.3439630968267 -1.127986593019159e-14
    vertex -17.75077136264618 53.86528344038635 -1.127986593019159e-14
  endloop
endfacet
facet normal 0.0 0.0 -1.0
  outer loop
    vertex -17.75077136264618 53.86528344038635 -1.127986593019159e-14
    vertex -10.379451019086531 64.3439630968267 -1.127986593019159e-14
    vertex -17.129451019086527 54.34203930818003 -1.127986593019159e-14
  endloop
endfacet
facet normal 0.0 0.0 -1.0
  outer loop
    vertex -17.129451019086527 54.34203930818003 -1.127986593019159e-14
    vertex -10.379451019086531 64.3439630968267 -1.127986593019159e-14
    vertex -16.405908154394094 54.64174057569391 -1.127986593019159e-14
  endloop
endfacet
facet normal 0.0 0.0 -1.0
  outer loop
    vertex -16.405908154394094 54.64174057569391 -1.127986593019159e-14
    vertex -10.379451019086531 64.3439630968267 -1.127986593019159e-14
    vertex -15.629451019086535 54.74396309682671 -1.127986593019159e-14
  endloop
endfacet
facet normal 0.0 0.0 -1.0
  outer loop
    vertex -15.629451019086535 54.74396309682671 -1.127986593019159e-14
    vertex -10.379451019086531 64.3439630968267 -1.127986593019159e-14
    vertex -14.852993883778977 54.64174057569392 -1.127986593019159e-14
  endloop
endfacet
facet normal 0.0 0.0 -1.0
  outer loop
    vertex -14.852993883778977 54.64174057569392 -1.127986593019159e-14
    vertex -10.379451019086531 64.3439630968267 -1.127986593019159e-14
    vertex -14.129451019086536 54.34203930818003 -1.127986593019159e-14
  endloop
endfacet
facet normal 0.0 0.0 -1.0
  outer loop
    vertex -14.129451019086536 54.34203930818003 -1.127986593019159e-14
    vertex -10.379451019086531 64.3439630968267 -1.127986593019159e-14
    vertex -13.508130675526903 53.865283440386364 -1.127986593019159e-14
  endloop
endfacet
facet normal 0.0 0.0 -1.0
  outer loop
    vertex -13.508130675526903 53.865283440386364 -1.127986593019159e-14
    vertex -10.379451019086531 64.3439630968267 -1.127986593019159e-14
    vertex -13.031374807733233 53.24396309682673 -1.127986593019159e-14
  endloop
endfacet
facet normal 0.0 0.0 -1.0
  outer loop
    vertex -13.031374807733233 53.24396309682673 -1.127986593019159e-14
    vertex -10.379451019086531 64.3439630968267 -1.127986593019159e-14
    vertex -12.731673540219335 52.52042023213427 -1.127986593019159e-14
  endloop
endfacet
facet normal 0.0 0.0 -1.0
  outer loop
    vertex -12.731673540219335 52.52042023213427 -1.127986593019159e-14
    vertex -10.379451019086531 64.3439630968267 -1.127986593019159e-14
    vertex -12.62945101908654 51.743963096826725 -1.127986593019159e-14
  endloop
endfacet
facet normal 0.0 0.0 -1.0
  outer loop
    vertex -10.379451019086531 64.3439630968267 -1.127986593019159e-14
    vertex 12.120548980913465 67.7439630968267 -1.127986593019159e-14
    vertex 9.62054898091347 64.3439630968267 -1.127986593019159e-14
  endloop
endfacet
facet normal 0.0 0.0 -1.0
  outer loop
    vertex 9.62054898091347 64.3439630968267 -1.127986593019159e-14
    vertex 12.120548980913465 67.7439630968267 -1.127986593019159e-14
    vertex 9.714757258970671 64.07226910509834 -1.127986593019159e-14
  endloop
endfacet
facet normal 0.0 0.0 -1.0
  outer loop
    vertex 9.714757258970671 64.07226910509834 -1.127986593019159e-14
    vertex 12.120548980913465 67.7439630968267 -1.127986593019159e-14
    vertex 9.867186535683281 63.82842870566326 -1.127986593019159e-14
  endloop
endfacet
facet normal 0.0 0.0 -1.0
  outer loop
    vertex 9.867186535683281 63.82842870566326 -1.127986593019159e-14
    vertex 12.120548980913465 67.7439630968267 -1.127986593019159e-14
    vertex 10.070158451234361 63.62472493472781 -1.127986593019159e-14
  endloop
endfacet
facet normal 0.0 0.0 -1.0
  outer loop
    vertex 10.070158451234361 63.62472493472781 -1.127986593019159e-14
    vertex 12.120548980913465 67.7439630968267 -1.127986593019159e-14
    vertex 10.31344864824356 63.47141901561503 -1.127986593019159e-14
  endloop
endfacet
facet normal 0.0 0.0 -1.0
  outer loop
    vertex 10.31344864824356 63.47141901561503 -1.127986593019159e-14
    vertex 12.120548980913465 67.7439630968267 -1.127986593019159e-14
    vertex 10.584801805995202 63.37623346747871 -1.127986593019159e-14
  endloop
endfacet
facet normal 0.0 0.0 -1.0
  outer loop
    vertex 10.584801805995202 63.37623346747871 -1.127986593019159e-14
    vertex 12.120548980913465 67.7439630968267 -1.127986593019159e-14
    vertex 10.870548980913469 63.34396309682669 -1.127986593019159e-14
  endloop
endfacet
facet normal 0.0 0.0 -1.0
  outer loop
    vertex 10.870548980913469 63.34396309682669 -1.127986593019159e-14
    vertex 12.120548980913465 67.7439630968267 -1.127986593019159e-14
    vertex 11.156296155831747 63.3762334674787 -1.127986593019159e-14
  endloop
endfacet
facet normal 0.0 0.0 -1.0
  outer loop
    vertex 11.156296155831747 63.3762334674787 -1.127986593019159e-14
    vertex 12.120548980913465 67.7439630968267 -1.127986593019159e-14
    vertex 11.427649313583377 63.47141901561503 -1.127986593019159e-14
  endloop
endfacet
facet normal 0.0 0.0 -1.0
  outer loop
    vertex 11.427649313583377 63.47141901561503 -1.127986593019159e-14
    vertex 12.120548980913465 67.7439630968267 -1.127986593019159e-14
    vertex 11.670939510592577 63.62472493472781 -1.127986593019159e-14
  endloop
endfacet
facet normal 0.0 0.0 -1.0
  outer loop
    vertex 11.670939510592577 63.62472493472781 -1.127986593019159e-14
    vertex 12.120548980913465 67.7439630968267 -1.127986593019159e-14
    vertex 11.873911426143655 63.828428705663256 -1.127986593019159e-14
  endloop
endfacet
facet normal 0.0 0.0 -1.0
  outer loop
    vertex 11.873911426143655 63.828428705663256 -1.127986593019159e-14
    vertex 12.120548980913465 67.7439630968267 -1.127986593019159e-14
    vertex 12.026340702856267 64.07226910509834 -1.127986593019159e-14
  endloop
endfacet
facet normal 0.0 0.0 -1.0
  outer loop
    vertex 12.026340702856267 64.07226910509834 -1.127986593019159e-14
    vertex 12.120548980913465 67.7439630968267 -1.127986593019159e-14
    vertex 12.120548980913465 64.34396309682668 -1.127986593019159e-14
  endloop
endfacet
facet normal 0.0 0.0 -1.0
  outer loop
    vertex -9.879451019086531 61.3439630968267 -1.127986593019159e-14
    vertex -10.379451019086531 42.14396309682671 -1.127986593019159e-14
    vertex -10.379451019086531 61.3439630968267 -1.127986593019159e-14
  endloop
endfacet
facet normal 0.0 0.0 -1.0
  outer loop
    vertex -10.379451019086531 42.14396309682671 -1.127986593019159e-14
    vertex -9.879451019086531 61.3439630968267 -1.127986593019159e-14
    vertex -9.879451019086531 42.14396309682671 -1.127986593019159e-14
  endloop
endfacet
facet normal 0.0 0.0 -1.0
  outer loop
    vertex -20.87945101908653 35.74396309682671 -1.127986593019159e-14
    vertex -10.379451019086531 39.14396309682671 -1.127986593019159e-14
    vertex 12.120548980913465 35.74396309682671 -1.127986593019159e-14
  endloop
endfacet
facet normal 0.0 0.0 -1.0
  outer loop
    vertex -10.379451019086531 39.14396309682671 -1.127986593019159e-14
    vertex -20.87945101908653 35.74396309682671 -1.127986593019159e-14
    vertex -18.227527230439843 50.24396309682672 -1.127986593019159e-14
  endloop
endfacet
facet normal 0.0 0.0 -1.0
  outer loop
    vertex -18.227527230439843 50.24396309682672 -1.127986593019159e-14
    vertex -20.87945101908653 35.74396309682671 -1.127986593019159e-14
    vertex -18.527228497953733 50.967505961519144 -1.127986593019159e-14
  endloop
endfacet
facet normal 0.0 0.0 -1.0
  outer loop
    vertex -18.527228497953733 50.967505961519144 -1.127986593019159e-14
    vertex -20.87945101908653 35.74396309682671 -1.127986593019159e-14
    vertex -18.629451019086524 51.743963096826725 -1.127986593019159e-14
  endloop
endfacet
facet normal 0.0 0.0 -1.0
  outer loop
    vertex -10.379451019086531 39.14396309682671 -1.127986593019159e-14
    vertex -18.227527230439843 50.24396309682672 -1.127986593019159e-14
    vertex -17.75077136264618 49.62264275326708 -1.127986593019159e-14
  endloop
endfacet
facet normal 0.0 0.0 -1.0
  outer loop
    vertex -10.379451019086531 39.14396309682671 -1.127986593019159e-14
    vertex -17.75077136264618 49.62264275326708 -1.127986593019159e-14
    vertex -17.129451019086538 49.1458868854734 -1.127986593019159e-14
  endloop
endfacet
facet normal 0.0 0.0 -1.0
  outer loop
    vertex -10.379451019086531 39.14396309682671 -1.127986593019159e-14
    vertex -17.129451019086538 49.1458868854734 -1.127986593019159e-14
    vertex -16.405908154394094 48.84618561795951 -1.127986593019159e-14
  endloop
endfacet
facet normal 0.0 0.0 -1.0
  outer loop
    vertex -10.379451019086531 39.14396309682671 -1.127986593019159e-14
    vertex -16.405908154394094 48.84618561795951 -1.127986593019159e-14
    vertex -15.629451019086535 48.74396309682672 -1.127986593019159e-14
  endloop
endfacet
facet normal 0.0 0.0 -1.0
  outer loop
    vertex -10.379451019086531 39.14396309682671 -1.127986593019159e-14
    vertex -15.629451019086535 48.74396309682672 -1.127986593019159e-14
    vertex -14.852993883778971 48.84618561795951 -1.127986593019159e-14
  endloop
endfacet
facet normal 0.0 0.0 -1.0
  outer loop
    vertex -10.379451019086531 39.14396309682671 -1.127986593019159e-14
    vertex -14.852993883778971 48.84618561795951 -1.127986593019159e-14
    vertex -14.129451019086536 49.145886885473395 -1.127986593019159e-14
  endloop
endfacet
facet normal 0.0 0.0 -1.0
  outer loop
    vertex -10.379451019086531 39.14396309682671 -1.127986593019159e-14
    vertex -14.129451019086536 49.145886885473395 -1.127986593019159e-14
    vertex -13.508130675526894 49.62264275326707 -1.127986593019159e-14
  endloop
endfacet
facet normal 0.0 0.0 -1.0
  outer loop
    vertex -10.379451019086531 39.14396309682671 -1.127986593019159e-14
    vertex -13.508130675526894 49.62264275326707 -1.127986593019159e-14
    vertex -13.031374807733213 50.24396309682672 -1.127986593019159e-14
  endloop
endfacet
facet normal 0.0 0.0 -1.0
  outer loop
    vertex -10.379451019086531 39.14396309682671 -1.127986593019159e-14
    vertex -13.031374807733213 50.24396309682672 -1.127986593019159e-14
    vertex -12.731673540219326 50.96750596151916 -1.127986593019159e-14
  endloop
endfacet
facet normal 0.0 0.0 -1.0
  outer loop
    vertex -10.379451019086531 39.14396309682671 -1.127986593019159e-14
    vertex -12.731673540219326 50.96750596151916 -1.127986593019159e-14
    vertex -12.62945101908654 51.743963096826725 -1.127986593019159e-14
  endloop
endfacet
facet normal 0.0 0.0 -1.0
  outer loop
    vertex -10.379451019086531 39.14396309682671 -1.127986593019159e-14
    vertex -12.62945101908654 51.743963096826725 -1.127986593019159e-14
    vertex -10.379451019086531 64.3439630968267 -1.127986593019159e-14
  endloop
endfacet
facet normal 0.0 0.0 -1.0
  outer loop
    vertex -10.379451019086531 39.14396309682671 -1.127986593019159e-14
    vertex -10.379451019086531 64.3439630968267 -1.127986593019159e-14
    vertex -10.379451019086531 61.3439630968267 -1.127986593019159e-14
  endloop
endfacet
facet normal 0.0 0.0 -1.0
  outer loop
    vertex -10.379451019086531 39.14396309682671 -1.127986593019159e-14
    vertex -10.379451019086531 61.3439630968267 -1.127986593019159e-14
    vertex -10.379451019086531 42.14396309682671 -1.127986593019159e-14
  endloop
endfacet
facet normal 0.0 0.0 -1.0
  outer loop
    vertex 12.120548980913465 35.74396309682671 -1.127986593019159e-14
    vertex -10.379451019086531 39.14396309682671 -1.127986593019159e-14
    vertex 9.62054898091347 39.14396309682671 -1.127986593019159e-14
  endloop
endfacet
facet normal 0.0 0.0 -1.0
  outer loop
    vertex 12.120548980913465 35.74396309682671 -1.127986593019159e-14
    vertex 9.62054898091347 39.14396309682671 -1.127986593019159e-14
    vertex 9.714757258970659 39.41565708855507 -1.127986593019159e-14
  endloop
endfacet
facet normal 0.0 0.0 -1.0
  outer loop
    vertex 12.120548980913465 35.74396309682671 -1.127986593019159e-14
    vertex 9.714757258970659 39.41565708855507 -1.127986593019159e-14
    vertex 9.867186535683281 39.65949748799016 -1.127986593019159e-14
  endloop
endfacet
facet normal 0.0 0.0 -1.0
  outer loop
    vertex 12.120548980913465 35.74396309682671 -1.127986593019159e-14
    vertex 9.867186535683281 39.65949748799016 -1.127986593019159e-14
    vertex 10.070158451234361 39.8632012589256 -1.127986593019159e-14
  endloop
endfacet
facet normal 0.0 0.0 -1.0
  outer loop
    vertex 12.120548980913465 35.74396309682671 -1.127986593019159e-14
    vertex 10.070158451234361 39.8632012589256 -1.127986593019159e-14
    vertex 10.31344864824356 40.01650717803838 -1.127986593019159e-14
  endloop
endfacet
facet normal 0.0 0.0 -1.0
  outer loop
    vertex 12.120548980913465 35.74396309682671 -1.127986593019159e-14
    vertex 10.31344864824356 40.01650717803838 -1.127986593019159e-14
    vertex 10.58480180599519 40.111692726174695 -1.127986593019159e-14
  endloop
endfacet
facet normal 0.0 0.0 -1.0
  outer loop
    vertex 12.120548980913465 35.74396309682671 -1.127986593019159e-14
    vertex 10.58480180599519 40.111692726174695 -1.127986593019159e-14
    vertex 10.870548980913469 40.14396309682672 -1.127986593019159e-14
  endloop
endfacet
facet normal 0.0 0.0 -1.0
  outer loop
    vertex 12.120548980913465 35.74396309682671 -1.127986593019159e-14
    vertex 10.870548980913469 40.14396309682672 -1.127986593019159e-14
    vertex 11.156296155831747 40.111692726174695 -1.127986593019159e-14
  endloop
endfacet
facet normal 0.0 0.0 -1.0
  outer loop
    vertex 12.120548980913465 35.74396309682671 -1.127986593019159e-14
    vertex 11.156296155831747 40.111692726174695 -1.127986593019159e-14
    vertex 11.427649313583377 40.01650717803838 -1.127986593019159e-14
  endloop
endfacet
facet normal 0.0 0.0 -1.0
  outer loop
    vertex 12.120548980913465 35.74396309682671 -1.127986593019159e-14
    vertex 11.427649313583377 40.01650717803838 -1.127986593019159e-14
    vertex 11.670939510592577 39.8632012589256 -1.127986593019159e-14
  endloop
endfacet
facet normal 0.0 0.0 -1.0
  outer loop
    vertex 12.120548980913465 35.74396309682671 -1.127986593019159e-14
    vertex 11.670939510592577 39.8632012589256 -1.127986593019159e-14
    vertex 11.873911426143655 39.65949748799016 -1.127986593019159e-14
  endloop
endfacet
facet normal 0.0 0.0 -1.0
  outer loop
    vertex 12.120548980913465 35.74396309682671 -1.127986593019159e-14
    vertex 11.873911426143655 39.65949748799016 -1.127986593019159e-14
    vertex 12.026340702856277 39.41565708855507 -1.127986593019159e-14
  endloop
endfacet
facet normal 0.0 0.0 -1.0
  outer loop
    vertex 12.120548980913465 35.74396309682671 -1.127986593019159e-14
    vertex 12.026340702856277 39.41565708855507 -1.127986593019159e-14
    vertex 12.120548980913465 39.14396309682671 -1.127986593019159e-14
  endloop
endfacet
facet normal -0.8479529339877395 -0.5300715251186243 -6.642847002071834e-16
  outer loop
    vertex 9.714757258970671 64.07226910509834 4.499999999999989
    vertex 9.867186535683281 63.82842870566326 -1.127986593019159e-14
    vertex 9.867186535683281 63.828428705663256 4.4999999999999885
  endloop
endfacet
facet normal -0.8479529339877395 -0.5300715251186243 -6.642847002071834e-16
  outer loop
    vertex 9.867186535683281 63.82842870566326 -1.127986593019159e-14
    vertex 9.714757258970671 64.07226910509834 4.499999999999989
    vertex 9.714757258970671 64.07226910509834 -1.127986593019159e-14
  endloop
endfacet
facet normal -0.3310069414354967 -0.9436283191604192 9.001868068870742e-19
  outer loop
    vertex 10.584801805995202 63.37623346747871 4.499999999999989
    vertex 10.31344864824356 63.47141901561503 -1.127986593019159e-14
    vertex 10.584801805995202 63.37623346747871 -1.127986593019159e-14
  endloop
endfacet
facet normal -0.3310069414354967 -0.9436283191604192 9.001868068870742e-19
  outer loop
    vertex 10.31344864824356 63.47141901561503 -1.127986593019159e-14
    vertex 10.584801805995202 63.37623346747871 4.499999999999989
    vertex 10.31344864824356 63.47141901561503 4.4999999999999885
  endloop
endfacet
facet normal -0.9448135664419892 -0.3276084929716705 -4.4385151628055167e-16
  outer loop
    vertex 9.62054898091347 64.3439630968267 4.499999999999989
    vertex 9.714757258970671 64.07226910509834 -1.127986593019159e-14
    vertex 9.714757258970671 64.07226910509834 4.499999999999989
  endloop
endfacet
facet normal -0.9448135664419892 -0.3276084929716705 -4.4385151628055167e-16
  outer loop
    vertex 9.714757258970671 64.07226910509834 -1.127986593019159e-14
    vertex 9.62054898091347 64.3439630968267 4.499999999999989
    vertex 9.62054898091347 64.3439630968267 -1.127986593019159e-14
  endloop
endfacet
facet normal 0.11221994197286786 -0.9936833925469452 1.2980440307229876e-15
  outer loop
    vertex 11.156296155831736 63.37623346747871 4.499999999999989
    vertex 10.870548980913469 63.34396309682669 -1.127986593019159e-14
    vertex 11.156296155831747 63.3762334674787 -1.127986593019159e-14
  endloop
endfacet
facet normal 0.11221994197286786 -0.9936833925469452 1.2980440307229876e-15
  outer loop
    vertex 10.870548980913469 63.34396309682669 -1.127986593019159e-14
    vertex 11.156296155831736 63.37623346747871 4.499999999999989
    vertex 10.870548980913469 63.34396309682669 4.499999999999989
  endloop
endfacet
facet normal 0.9448135664419934 -0.3276084929716585 0.0
  outer loop
    vertex 12.120548980913465 64.34396309682668 -1.127986593019159e-14
    vertex 12.026340702856267 64.07226910509834 4.499999999999989
    vertex 12.026340702856267 64.07226910509834 -1.127986593019159e-14
  endloop
endfacet
facet normal 0.9448135664419934 -0.3276084929716585 0.0
  outer loop
    vertex 12.026340702856267 64.07226910509834 4.499999999999989
    vertex 12.120548980913465 64.34396309682668 -1.127986593019159e-14
    vertex 12.120548980913465 64.34396309682668 4.499999999999989
  endloop
endfacet
facet normal 0.0 1.0 0.0
  outer loop
    vertex -20.87945101908653 67.7439630968267 4.499999999999989
    vertex 12.120548980913465 67.7439630968267 -1.127986593019159e-14
    vertex -20.87945101908653 67.7439630968267 -1.127986593019159e-14
  endloop
endfacet
facet normal 0.0 1.0 0.0
  outer loop
    vertex 12.120548980913465 67.7439630968267 -1.127986593019159e-14
    vertex -20.87945101908653 67.7439630968267 4.499999999999989
    vertex 12.120548980913465 67.7439630968267 4.499999999999989
  endloop
endfacet
facet normal 0.33100694143551795 -0.9436283191604116 1.3387051351133612e-15
  outer loop
    vertex 11.427649313583377 63.47141901561503 4.499999999999989
    vertex 11.156296155831747 63.3762334674787 -1.127986593019159e-14
    vertex 11.427649313583377 63.47141901561503 -1.127986593019159e-14
  endloop
endfacet
facet normal 0.33100694143551795 -0.9436283191604116 1.3387051351133612e-15
  outer loop
    vertex 11.156296155831747 63.3762334674787 -1.127986593019159e-14
    vertex 11.427649313583377 63.47141901561503 4.499999999999989
    vertex 11.156296155831736 63.37623346747871 4.499999999999989
  endloop
endfacet
facet normal 0.5331200416770081 -0.8460396096887577 0.0
  outer loop
    vertex 11.670939510592577 63.62472493472781 4.499999999999989
    vertex 11.427649313583377 63.47141901561503 -1.127986593019159e-14
    vertex 11.670939510592577 63.62472493472781 -1.127986593019159e-14
  endloop
endfacet
facet normal 0.5331200416770081 -0.8460396096887577 0.0
  outer loop
    vertex 11.427649313583377 63.47141901561503 -1.127986593019159e-14
    vertex 11.670939510592577 63.62472493472781 4.499999999999989
    vertex 11.427649313583377 63.47141901561503 4.499999999999989
  endloop
endfacet
endsolid PushPullBlackSelector
