solid PushPullBlackSelector
facet normal -1.0 -9.399888275159675e-17 -9.399888275159659e-16
  outer loop
    vertex 6.370548980913471 145.8190397403664 4.499999999999989
    vertex 6.370548980913473 132.81903974036643 2.999999999999998
    vertex 6.370548980913471 132.81903974036643 4.499999999999997
  endloop
endfacet
facet normal -1.0 -9.399888275159675e-17 -9.399888275159659e-16
  outer loop
    vertex 6.370548980913473 132.81903974036643 2.999999999999998
    vertex 6.370548980913471 145.8190397403664 4.499999999999989
    vertex 6.370548980913471 145.8190397403664 2.999999999999989
  endloop
endfacet
facet normal -1.0 5.0356544331212383e-17 2.349972068789914e-16
  outer loop
    vertex -4.129451019086531 152.8190397403664 4.499999999999989
    vertex -4.129451019086532 145.8190397403664 2.999999999999989
    vertex -4.129451019086532 145.8190397403664 4.499999999999989
  endloop
endfacet
facet normal -1.0 5.0356544331212383e-17 2.349972068789914e-16
  outer loop
    vertex -4.129451019086532 145.8190397403664 2.999999999999989
    vertex -4.129451019086531 152.8190397403664 4.499999999999989
    vertex -4.129451019086532 152.8190397403664 2.999999999999989
  endloop
endfacet
facet normal 1.0 0.0 0.0
  outer loop
    vertex -13.12945101908653 152.8190397403664 2.999999999999989
    vertex -13.12945101908653 132.81903974036643 4.499999999999997
    vertex -13.12945101908653 132.81903974036643 2.999999999999998
  endloop
endfacet
facet normal 1.0 0.0 0.0
  outer loop
    vertex -13.12945101908653 132.81903974036643 4.499999999999997
    vertex -13.12945101908653 152.8190397403664 2.999999999999989
    vertex -13.12945101908653 152.8190397403664 4.499999999999989
  endloop
endfacet
facet normal 0.0 -1.0 0.0
  outer loop
    vertex -4.129451019086531 152.8190397403664 4.499999999999989
    vertex -13.12945101908653 152.8190397403664 2.999999999999989
    vertex -4.129451019086532 152.8190397403664 2.999999999999989
  endloop
endfacet
facet normal 0.0 -1.0 0.0
  outer loop
    vertex -13.12945101908653 152.8190397403664 2.999999999999989
    vertex -4.129451019086531 152.8190397403664 4.499999999999989
    vertex -13.12945101908653 152.8190397403664 4.499999999999989
  endloop
endfacet
facet normal 1.0 0.0 0.0
  outer loop
    vertex 1.8705489809134708 175.81903974036643 4.499999999999989
    vertex 1.8705489809134708 173.81903974036643 15.49999999999999
    vertex 1.8705489809134708 173.81903974036643 4.499999999999989
  endloop
endfacet
facet normal 1.0 0.0 0.0
  outer loop
    vertex 1.8705489809134708 173.81903974036643 15.49999999999999
    vertex 1.8705489809134708 175.81903974036643 4.499999999999989
    vertex 1.8705489809134708 175.81903974036643 15.49999999999999
  endloop
endfacet
facet normal 0.0 -1.0 0.0
  outer loop
    vertex 1.8705489809134708 173.81903974036643 15.49999999999999
    vertex -4.129451019086529 173.81903974036643 4.499999999999989
    vertex 1.8705489809134708 173.81903974036643 4.499999999999989
  endloop
endfacet
facet normal 0.0 -1.0 0.0
  outer loop
    vertex -4.129451019086529 173.81903974036643 4.499999999999989
    vertex 1.8705489809134708 173.81903974036643 15.49999999999999
    vertex -4.129451019086532 173.81903974036643 15.499999999999982
  endloop
endfacet
facet normal 0.0 -1.0 0.0
  outer loop
    vertex -12.129451019086531 173.81903974036643 15.499999999999977
    vertex -14.62945101908653 173.81903974036643 4.499999999999989
    vertex -12.129451019086531 173.81903974036643 4.4999999999999885
  endloop
endfacet
facet normal 0.0 -1.0 0.0
  outer loop
    vertex -14.62945101908653 173.81903974036643 4.499999999999989
    vertex -12.129451019086531 173.81903974036643 15.499999999999977
    vertex -14.62945101908653 173.81903974036643 15.49999999999999
  endloop
endfacet
facet normal 1.0 1.0574874309554611e-16 3.204507366531701e-17
  outer loop
    vertex -4.129451019086529 173.81903974036643 4.499999999999989
    vertex -4.129451019086529 163.81903974036643 15.499999999999982
    vertex -4.129451019086531 163.81903974036643 4.499999999999989
  endloop
endfacet
facet normal 1.0 1.0574874309554611e-16 3.204507366531701e-17
  outer loop
    vertex -4.129451019086529 163.81903974036643 15.499999999999982
    vertex -4.129451019086529 173.81903974036643 4.499999999999989
    vertex -4.129451019086532 173.81903974036643 15.499999999999982
  endloop
endfacet
facet normal 0.0 -1.0 0.0
  outer loop
    vertex -4.129451019086529 163.81903974036643 15.499999999999982
    vertex -12.129451019086531 163.81903974036643 4.499999999999989
    vertex -4.129451019086531 163.81903974036643 4.499999999999989
  endloop
endfacet
facet normal 0.0 -1.0 0.0
  outer loop
    vertex -12.129451019086531 163.81903974036643 4.499999999999989
    vertex -4.129451019086529 163.81903974036643 15.499999999999982
    vertex -12.129451019086531 163.81903974036643 15.499999999999982
  endloop
endfacet
facet normal -1.0 0.0 0.0
  outer loop
    vertex -12.129451019086531 173.81903974036643 15.499999999999977
    vertex -12.129451019086531 163.81903974036643 4.499999999999989
    vertex -12.129451019086531 163.81903974036643 15.499999999999982
  endloop
endfacet
facet normal -1.0 0.0 0.0
  outer loop
    vertex -12.129451019086531 163.81903974036643 4.499999999999989
    vertex -12.129451019086531 173.81903974036643 15.499999999999977
    vertex -12.129451019086531 173.81903974036643 4.4999999999999885
  endloop
endfacet
facet normal -7.424398444013626e-19 6.172277607602178e-17 1.0
  outer loop
    vertex -13.129451019086519 129.31903974036643 4.499999999999988
    vertex -13.12945101908653 132.81903974036643 4.499999999999997
    vertex -14.629451019086519 129.3190397403664 4.499999999999988
  endloop
endfacet
facet normal -7.424398444013626e-19 6.172277607602178e-17 1.0
  outer loop
    vertex 6.370548980913471 145.8190397403664 4.499999999999989
    vertex 5.870548980913472 152.8190397403664 4.499999999999989
    vertex 5.870548980913472 145.8190397403664 4.499999999999989
  endloop
endfacet
facet normal -7.424398444013626e-19 6.172277607602178e-17 1.0
  outer loop
    vertex 7.870548980913468 129.3190397403664 4.499999999999989
    vertex 6.370548980913471 132.81903974036643 4.499999999999997
    vertex 6.370548980913468 129.31903974036643 4.4999999999999885
  endloop
endfacet
facet normal -7.424398444013626e-19 6.172277607602178e-17 1.0
  outer loop
    vertex 6.370548980913471 132.81903974036643 4.499999999999997
    vertex 7.870548980913468 129.3190397403664 4.499999999999989
    vertex 6.370548980913471 145.8190397403664 4.499999999999989
  endloop
endfacet
facet normal -7.424398444013626e-19 6.172277607602178e-17 1.0
  outer loop
    vertex -1.6294510190865283 145.8190397403664 4.499999999999989
    vertex -4.129451019086531 152.8190397403664 4.499999999999989
    vertex -4.129451019086532 145.8190397403664 4.499999999999989
  endloop
endfacet
facet normal -7.424398444013626e-19 6.172277607602178e-17 1.0
  outer loop
    vertex -4.129451019086531 152.8190397403664 4.499999999999989
    vertex -1.6294510190865283 145.8190397403664 4.499999999999989
    vertex -4.129451019086531 163.81903974036643 4.499999999999989
  endloop
endfacet
facet normal -7.424398444013626e-19 6.172277607602178e-17 1.0
  outer loop
    vertex -4.129451019086531 163.81903974036643 4.499999999999989
    vertex -1.6294510190865283 145.8190397403664 4.499999999999989
    vertex -4.129451019086529 173.81903974036643 4.499999999999989
  endloop
endfacet
facet normal -7.424398444013626e-19 6.172277607602178e-17 1.0
  outer loop
    vertex -4.129451019086529 173.81903974036643 4.499999999999989
    vertex -1.6294510190865283 145.8190397403664 4.499999999999989
    vertex -1.6294510190865283 152.8190397403664 4.499999999999989
  endloop
endfacet
facet normal -7.424398444013626e-19 6.172277607602178e-17 1.0
  outer loop
    vertex -4.129451019086529 173.81903974036643 4.499999999999989
    vertex -1.6294510190865283 152.8190397403664 4.499999999999989
    vertex 1.8705489809134708 173.81903974036643 4.499999999999989
  endloop
endfacet
facet normal -7.424398444013626e-19 6.172277607602178e-17 1.0
  outer loop
    vertex 1.8705489809134708 173.81903974036643 4.499999999999989
    vertex -1.6294510190865283 152.8190397403664 4.499999999999989
    vertex 5.870548980913472 152.8190397403664 4.499999999999989
  endloop
endfacet
facet normal -7.424398444013626e-19 6.172277607602178e-17 1.0
  outer loop
    vertex 1.8705489809134708 173.81903974036643 4.499999999999989
    vertex 5.870548980913472 152.8190397403664 4.499999999999989
    vertex 1.8705489809134708 175.81903974036643 4.499999999999989
  endloop
endfacet
facet normal -7.424398444013626e-19 6.172277607602178e-17 1.0
  outer loop
    vertex 1.8705489809134708 175.81903974036643 4.499999999999989
    vertex 5.870548980913472 152.8190397403664 4.499999999999989
    vertex 7.870548980913471 175.81903974036643 4.499999999999989
  endloop
endfacet
facet normal -7.424398444013626e-19 6.172277607602178e-17 1.0
  outer loop
    vertex 7.870548980913471 175.81903974036643 4.499999999999989
    vertex 5.870548980913472 152.8190397403664 4.499999999999989
    vertex 6.370548980913471 145.8190397403664 4.499999999999989
  endloop
endfacet
facet normal -7.424398444013626e-19 6.172277607602178e-17 1.0
  outer loop
    vertex 7.870548980913471 175.81903974036643 4.499999999999989
    vertex 6.370548980913471 145.8190397403664 4.499999999999989
    vertex 7.870548980913468 129.3190397403664 4.499999999999989
  endloop
endfacet
facet normal -7.424398444013626e-19 6.172277607602178e-17 1.0
  outer loop
    vertex -4.129451019086531 152.8190397403664 4.499999999999989
    vertex -12.129451019086531 163.81903974036643 4.499999999999989
    vertex -13.12945101908653 152.8190397403664 4.499999999999989
  endloop
endfacet
facet normal -7.424398444013626e-19 6.172277607602178e-17 1.0
  outer loop
    vertex -12.129451019086531 163.81903974036643 4.499999999999989
    vertex -4.129451019086531 152.8190397403664 4.499999999999989
    vertex -4.129451019086531 163.81903974036643 4.499999999999989
  endloop
endfacet
facet normal -7.424398444013626e-19 6.172277607602178e-17 1.0
  outer loop
    vertex -14.629451019086519 129.3190397403664 4.499999999999988
    vertex -12.129451019086531 173.81903974036643 4.4999999999999885
    vertex -14.62945101908653 173.81903974036643 4.499999999999989
  endloop
endfacet
facet normal -7.424398444013626e-19 6.172277607602178e-17 1.0
  outer loop
    vertex -12.129451019086531 173.81903974036643 4.4999999999999885
    vertex -14.629451019086519 129.3190397403664 4.499999999999988
    vertex -13.12945101908653 152.8190397403664 4.499999999999989
  endloop
endfacet
facet normal -7.424398444013626e-19 6.172277607602178e-17 1.0
  outer loop
    vertex -13.12945101908653 152.8190397403664 4.499999999999989
    vertex -14.629451019086519 129.3190397403664 4.499999999999988
    vertex -13.12945101908653 132.81903974036643 4.499999999999997
  endloop
endfacet
facet normal -7.424398444013626e-19 6.172277607602178e-17 1.0
  outer loop
    vertex -12.129451019086531 173.81903974036643 4.4999999999999885
    vertex -13.12945101908653 152.8190397403664 4.499999999999989
    vertex -12.129451019086531 163.81903974036643 4.499999999999989
  endloop
endfacet
facet normal 0.0 1.0 0.0
  outer loop
    vertex -16.12945101908653 175.81903974036643 2.999999999999989
    vertex 1.8705489809134708 175.81903974036643 4.499999999999989
    vertex 8.870548980913469 175.81903974036643 2.999999999999989
  endloop
endfacet
facet normal 0.0 1.0 0.0
  outer loop
    vertex 1.8705489809134708 175.81903974036643 4.499999999999989
    vertex -16.12945101908653 175.81903974036643 2.999999999999989
    vertex -16.12945101908653 175.81903974036643 15.499999999999982
  endloop
endfacet
facet normal 0.0 1.0 0.0
  outer loop
    vertex 1.8705489809134708 175.81903974036643 4.499999999999989
    vertex -16.12945101908653 175.81903974036643 15.499999999999982
    vertex 1.8705489809134708 175.81903974036643 15.49999999999999
  endloop
endfacet
facet normal 0.0 1.0 0.0
  outer loop
    vertex 8.870548980913469 175.81903974036643 2.999999999999989
    vertex 7.870548980913471 175.81903974036643 4.499999999999989
    vertex 8.870548980913469 175.81903974036643 15.49999999999999
  endloop
endfacet
facet normal 0.0 1.0 0.0
  outer loop
    vertex 7.870548980913471 175.81903974036643 4.499999999999989
    vertex 8.870548980913469 175.81903974036643 2.999999999999989
    vertex 1.8705489809134708 175.81903974036643 4.499999999999989
  endloop
endfacet
facet normal 0.0 1.0 0.0
  outer loop
    vertex 8.870548980913469 175.81903974036643 15.49999999999999
    vertex 7.870548980913471 175.81903974036643 4.499999999999989
    vertex 7.870548980913471 175.81903974036643 15.49999999999999
  endloop
endfacet
facet normal 0.0 -1.0 0.0
  outer loop
    vertex 6.370548980913471 145.8190397403664 4.499999999999989
    vertex -4.129451019086532 145.8190397403664 2.999999999999989
    vertex 6.370548980913471 145.8190397403664 2.999999999999989
  endloop
endfacet
facet normal 0.0 -1.0 0.0
  outer loop
    vertex -4.129451019086532 145.8190397403664 2.999999999999989
    vertex 6.370548980913471 145.8190397403664 4.499999999999989
    vertex -4.129451019086532 145.8190397403664 4.499999999999989
  endloop
endfacet
facet normal 0.0 -1.0 0.0
  outer loop
    vertex -4.129451019086532 145.8190397403664 4.499999999999989
    vertex 6.370548980913471 145.8190397403664 4.499999999999989
    vertex 5.870548980913472 145.8190397403664 4.499999999999989
  endloop
endfacet
facet normal 0.0 -1.0 0.0
  outer loop
    vertex -4.129451019086532 145.8190397403664 4.499999999999989
    vertex 5.870548980913472 145.8190397403664 4.499999999999989
    vertex -1.6294510190865283 145.8190397403664 4.499999999999989
  endloop
endfacet
facet normal 0.0 -1.0 0.0
  outer loop
    vertex -1.6294510190865283 145.8190397403664 4.499999999999989
    vertex 5.870548980913472 145.8190397403664 4.499999999999989
    vertex 5.870548980913472 145.8190397403664 15.499999999999982
  endloop
endfacet
facet normal 0.0 -1.0 0.0
  outer loop
    vertex -1.6294510190865283 145.8190397403664 4.499999999999989
    vertex 5.870548980913472 145.8190397403664 15.499999999999982
    vertex -1.6294510190865283 145.8190397403664 15.499999999999982
  endloop
endfacet
facet normal 0.0 1.0 0.0
  outer loop
    vertex -1.6294510190865283 152.8190397403664 15.499999999999982
    vertex 5.870548980913472 152.8190397403664 4.499999999999989
    vertex -1.6294510190865283 152.8190397403664 4.499999999999989
  endloop
endfacet
facet normal 0.0 1.0 0.0
  outer loop
    vertex 5.870548980913472 152.8190397403664 4.499999999999989
    vertex -1.6294510190865283 152.8190397403664 15.499999999999982
    vertex 5.870548980913472 152.8190397403664 15.499999999999982
  endloop
endfacet
facet normal 0.0 0.0 1.0
  outer loop
    vertex 5.870548980913472 145.8190397403664 15.499999999999982
    vertex -1.6294510190865283 152.8190397403664 15.499999999999982
    vertex -1.6294510190865283 145.8190397403664 15.499999999999982
  endloop
endfacet
facet normal 0.0 0.0 1.0
  outer loop
    vertex -1.6294510190865283 152.8190397403664 15.499999999999982
    vertex 5.870548980913472 145.8190397403664 15.499999999999982
    vertex 5.870548980913472 152.8190397403664 15.499999999999982
  endloop
endfacet
facet normal -1.0 0.0 0.0
  outer loop
    vertex -1.6294510190865283 152.8190397403664 15.499999999999982
    vertex -1.6294510190865283 145.8190397403664 4.499999999999989
    vertex -1.6294510190865283 145.8190397403664 15.499999999999982
  endloop
endfacet
facet normal -1.0 0.0 0.0
  outer loop
    vertex -1.6294510190865283 145.8190397403664 4.499999999999989
    vertex -1.6294510190865283 152.8190397403664 15.499999999999982
    vertex -1.6294510190865283 152.8190397403664 4.499999999999989
  endloop
endfacet
facet normal 1.0 1.8400014334131336e-16 2.704262310778423e-16
  outer loop
    vertex -14.629451019086519 129.3190397403664 4.499999999999988
    vertex -14.62945101908653 135.8190397403664 15.499999999999982
    vertex -14.629451019086522 129.3190397403664 18.49999999999999
  endloop
endfacet
facet normal 1.0 1.8400014334131336e-16 2.704262310778423e-16
  outer loop
    vertex -14.62945101908653 135.8190397403664 15.499999999999982
    vertex -14.629451019086519 129.3190397403664 4.499999999999988
    vertex -14.62945101908653 173.81903974036643 4.499999999999989
  endloop
endfacet
facet normal 1.0 1.8400014334131336e-16 2.704262310778423e-16
  outer loop
    vertex -14.62945101908653 135.8190397403664 15.499999999999982
    vertex -14.62945101908653 173.81903974036643 4.499999999999989
    vertex -14.62945101908653 173.81903974036643 15.49999999999999
  endloop
endfacet
facet normal 1.0 1.8400014334131336e-16 2.704262310778423e-16
  outer loop
    vertex -14.62945101908653 135.8190397403664 18.499999999999982
    vertex -14.629451019086522 129.3190397403664 18.49999999999999
    vertex -14.62945101908653 135.8190397403664 15.499999999999982
  endloop
endfacet
facet normal -1.0 4.91142203476586e-17 5.3158248383267395e-17
  outer loop
    vertex 7.870548980913471 135.8190397403664 18.49999999999999
    vertex 7.870548980913468 129.3190397403664 4.499999999999989
    vertex 7.870548980913468 129.3190397403664 18.49999999999999
  endloop
endfacet
facet normal -1.0 4.91142203476586e-17 5.3158248383267395e-17
  outer loop
    vertex 7.870548980913468 129.3190397403664 4.499999999999989
    vertex 7.870548980913471 135.8190397403664 18.49999999999999
    vertex 7.870548980913471 135.8190397403664 15.49999999999999
  endloop
endfacet
facet normal -1.0 4.91142203476586e-17 5.3158248383267395e-17
  outer loop
    vertex 7.870548980913468 129.3190397403664 4.499999999999989
    vertex 7.870548980913471 135.8190397403664 15.49999999999999
    vertex 7.870548980913471 175.81903974036643 4.499999999999989
  endloop
endfacet
facet normal -1.0 4.91142203476586e-17 5.3158248383267395e-17
  outer loop
    vertex 7.870548980913471 175.81903974036643 4.499999999999989
    vertex 7.870548980913471 135.8190397403664 15.49999999999999
    vertex 7.870548980913471 175.81903974036643 15.49999999999999
  endloop
endfacet
facet normal 1.0 0.0 0.0
  outer loop
    vertex 5.870548980913472 152.8190397403664 4.499999999999989
    vertex 5.870548980913472 145.8190397403664 15.499999999999982
    vertex 5.870548980913472 145.8190397403664 4.499999999999989
  endloop
endfacet
facet normal 1.0 0.0 0.0
  outer loop
    vertex 5.870548980913472 145.8190397403664 15.499999999999982
    vertex 5.870548980913472 152.8190397403664 4.499999999999989
    vertex 5.870548980913472 152.8190397403664 15.499999999999982
  endloop
endfacet
facet normal -2.2615033972595047e-15 -1.0 -3.529922056076228e-16
  outer loop
    vertex 8.870548980913469 127.81903974036642 18.49999999999999
    vertex 5.870548980913469 127.81903974036642 2.999999999999989
    vertex 8.870548980913469 127.81903974036642 2.999999999999989
  endloop
endfacet
facet normal -2.2615033972595047e-15 -1.0 -3.529922056076228e-16
  outer loop
    vertex 5.870548980913469 127.81903974036642 2.999999999999989
    vertex 8.870548980913469 127.81903974036642 18.49999999999999
    vertex 5.870548980913469 127.81903974036643 4.499999999999989
  endloop
endfacet
facet normal -2.2615033972595047e-15 -1.0 -3.529922056076228e-16
  outer loop
    vertex 5.870548980913469 127.81903974036643 4.499999999999989
    vertex 8.870548980913469 127.81903974036642 18.49999999999999
    vertex 5.870548980913469 127.81903974036642 18.49999999999999
  endloop
endfacet
facet normal 1.0 0.0 0.0
  outer loop
    vertex 8.870548980913469 127.81903974036642 2.999999999999989
    vertex 8.870548980913469 135.8190397403664 15.49999999999999
    vertex 8.870548980913469 127.81903974036642 18.49999999999999
  endloop
endfacet
facet normal 1.0 0.0 0.0
  outer loop
    vertex 8.870548980913469 135.8190397403664 15.49999999999999
    vertex 8.870548980913469 127.81903974036642 2.999999999999989
    vertex 8.870548980913469 175.81903974036643 2.999999999999989
  endloop
endfacet
facet normal 1.0 0.0 0.0
  outer loop
    vertex 8.870548980913469 135.8190397403664 15.49999999999999
    vertex 8.870548980913469 175.81903974036643 2.999999999999989
    vertex 8.870548980913469 175.81903974036643 15.49999999999999
  endloop
endfacet
facet normal 1.0 0.0 0.0
  outer loop
    vertex 8.870548980913469 135.8190397403664 18.49999999999999
    vertex 8.870548980913469 127.81903974036642 18.49999999999999
    vertex 8.870548980913469 135.8190397403664 15.49999999999999
  endloop
endfacet
facet normal 0.0 0.0 1.0
  outer loop
    vertex 5.870548980913469 127.81903974036642 18.49999999999999
    vertex 7.870548980913468 129.3190397403664 18.49999999999999
    vertex 5.870548980913466 129.3190397403664 18.49999999999999
  endloop
endfacet
facet normal 0.0 0.0 1.0
  outer loop
    vertex 7.870548980913468 129.3190397403664 18.49999999999999
    vertex 5.870548980913469 127.81903974036642 18.49999999999999
    vertex 8.870548980913469 127.81903974036642 18.49999999999999
  endloop
endfacet
facet normal 0.0 0.0 1.0
  outer loop
    vertex 7.870548980913468 129.3190397403664 18.49999999999999
    vertex 8.870548980913469 127.81903974036642 18.49999999999999
    vertex 7.870548980913471 135.8190397403664 18.49999999999999
  endloop
endfacet
facet normal 0.0 0.0 1.0
  outer loop
    vertex 7.870548980913471 135.8190397403664 18.49999999999999
    vertex 8.870548980913469 127.81903974036642 18.49999999999999
    vertex 8.870548980913469 135.8190397403664 18.49999999999999
  endloop
endfacet
facet normal 1.0 0.0 0.0
  outer loop
    vertex -13.12945101908653 127.81903974036643 4.499999999999989
    vertex -13.129451019086519 129.3190397403664 18.49999999999999
    vertex -13.12945101908653 127.81903974036642 18.49999999999999
  endloop
endfacet
facet normal 1.0 0.0 0.0
  outer loop
    vertex -13.129451019086519 129.3190397403664 18.49999999999999
    vertex -13.12945101908653 127.81903974036643 4.499999999999989
    vertex -13.129451019086519 129.31903974036643 4.499999999999988
  endloop
endfacet
facet normal -7.519910620127713e-15 1.0 8.057047092993985e-16
  outer loop
    vertex -14.629451019086522 129.3190397403664 18.49999999999999
    vertex -13.129451019086519 129.31903974036643 4.499999999999988
    vertex -14.629451019086519 129.3190397403664 4.499999999999988
  endloop
endfacet
facet normal -7.519910620127713e-15 1.0 8.057047092993985e-16
  outer loop
    vertex -13.129451019086519 129.31903974036643 4.499999999999988
    vertex -14.629451019086522 129.3190397403664 18.49999999999999
    vertex -13.129451019086519 129.3190397403664 18.49999999999999
  endloop
endfacet
facet normal -1.4456489219132653e-16 7.342374787612075e-16 1.0
  outer loop
    vertex -16.12945101908653 127.81903974036642 18.49999999999999
    vertex -14.629451019086522 129.3190397403664 18.49999999999999
    vertex -16.12945101908653 135.8190397403664 18.499999999999982
  endloop
endfacet
facet normal -1.4456489219132653e-16 7.342374787612075e-16 1.0
  outer loop
    vertex -14.629451019086522 129.3190397403664 18.49999999999999
    vertex -16.12945101908653 127.81903974036642 18.49999999999999
    vertex -13.12945101908653 127.81903974036642 18.49999999999999
  endloop
endfacet
facet normal -1.4456489219132653e-16 7.342374787612075e-16 1.0
  outer loop
    vertex -16.12945101908653 135.8190397403664 18.499999999999982
    vertex -14.629451019086522 129.3190397403664 18.49999999999999
    vertex -14.62945101908653 135.8190397403664 18.499999999999982
  endloop
endfacet
facet normal -1.4456489219132653e-16 7.342374787612075e-16 1.0
  outer loop
    vertex -14.629451019086522 129.3190397403664 18.49999999999999
    vertex -13.12945101908653 127.81903974036642 18.49999999999999
    vertex -13.129451019086519 129.3190397403664 18.49999999999999
  endloop
endfacet
facet normal 0.0 0.0 -1.0
  outer loop
    vertex -16.12945101908653 175.81903974036643 2.999999999999989
    vertex -13.12945101908653 152.8190397403664 2.999999999999989
    vertex -16.12945101908653 127.81903974036642 2.999999999999989
  endloop
endfacet
facet normal 0.0 0.0 -1.0
  outer loop
    vertex -13.12945101908653 152.8190397403664 2.999999999999989
    vertex -16.12945101908653 175.81903974036643 2.999999999999989
    vertex 8.870548980913469 175.81903974036643 2.999999999999989
  endloop
endfacet
facet normal 0.0 0.0 -1.0
  outer loop
    vertex -13.12945101908653 152.8190397403664 2.999999999999989
    vertex 8.870548980913469 175.81903974036643 2.999999999999989
    vertex -4.129451019086532 152.8190397403664 2.999999999999989
  endloop
endfacet
facet normal 0.0 0.0 -1.0
  outer loop
    vertex -4.129451019086532 152.8190397403664 2.999999999999989
    vertex 8.870548980913469 175.81903974036643 2.999999999999989
    vertex -4.129451019086532 145.8190397403664 2.999999999999989
  endloop
endfacet
facet normal 0.0 0.0 -1.0
  outer loop
    vertex -4.129451019086532 145.8190397403664 2.999999999999989
    vertex 8.870548980913469 175.81903974036643 2.999999999999989
    vertex 6.370548980913471 145.8190397403664 2.999999999999989
  endloop
endfacet
facet normal 0.0 0.0 -1.0
  outer loop
    vertex 6.370548980913471 145.8190397403664 2.999999999999989
    vertex 8.870548980913469 175.81903974036643 2.999999999999989
    vertex 6.370548980913473 132.81903974036643 2.999999999999998
  endloop
endfacet
facet normal 0.0 0.0 -1.0
  outer loop
    vertex -13.12945101908653 152.8190397403664 2.999999999999989
    vertex -13.12945101908653 127.81903974036642 2.999999999999989
    vertex -16.12945101908653 127.81903974036642 2.999999999999989
  endloop
endfacet
facet normal 0.0 0.0 -1.0
  outer loop
    vertex -13.12945101908653 127.81903974036642 2.999999999999989
    vertex -13.12945101908653 152.8190397403664 2.999999999999989
    vertex -13.12945101908653 132.81903974036643 2.999999999999998
  endloop
endfacet
facet normal 0.0 0.0 -1.0
  outer loop
    vertex -13.12945101908653 127.81903974036642 2.999999999999989
    vertex -13.12945101908653 132.81903974036643 2.999999999999998
    vertex 6.370548980913473 132.81903974036643 2.999999999999998
  endloop
endfacet
facet normal 0.0 0.0 -1.0
  outer loop
    vertex -13.12945101908653 127.81903974036642 2.999999999999989
    vertex 6.370548980913473 132.81903974036643 2.999999999999998
    vertex 5.870548980913469 127.81903974036642 2.999999999999989
  endloop
endfacet
facet normal 0.0 0.0 -1.0
  outer loop
    vertex 5.870548980913469 127.81903974036642 2.999999999999989
    vertex 6.370548980913473 132.81903974036643 2.999999999999998
    vertex 8.870548980913469 127.81903974036642 2.999999999999989
  endloop
endfacet
facet normal 0.0 0.0 -1.0
  outer loop
    vertex 8.870548980913469 127.81903974036642 2.999999999999989
    vertex 6.370548980913473 132.81903974036643 2.999999999999998
    vertex 8.870548980913469 175.81903974036643 2.999999999999989
  endloop
endfacet
facet normal 2.261503397259504e-15 -1.0 -3.529922056076229e-16
  outer loop
    vertex -13.12945101908653 127.81903974036643 4.499999999999989
    vertex -16.12945101908653 127.81903974036642 2.999999999999989
    vertex -13.12945101908653 127.81903974036642 2.999999999999989
  endloop
endfacet
facet normal 2.261503397259504e-15 -1.0 -3.529922056076229e-16
  outer loop
    vertex -16.12945101908653 127.81903974036642 2.999999999999989
    vertex -13.12945101908653 127.81903974036643 4.499999999999989
    vertex -16.12945101908653 127.81903974036642 18.49999999999999
  endloop
endfacet
facet normal 2.261503397259504e-15 -1.0 -3.529922056076229e-16
  outer loop
    vertex -16.12945101908653 127.81903974036642 18.49999999999999
    vertex -13.12945101908653 127.81903974036643 4.499999999999989
    vertex -13.12945101908653 127.81903974036642 18.49999999999999
  endloop
endfacet
facet normal -1.0 0.0 0.0
  outer loop
    vertex -16.12945101908653 135.8190397403664 18.499999999999982
    vertex -16.12945101908653 127.81903974036642 2.999999999999989
    vertex -16.12945101908653 127.81903974036642 18.49999999999999
  endloop
endfacet
facet normal -1.0 0.0 0.0
  outer loop
    vertex -16.12945101908653 127.81903974036642 2.999999999999989
    vertex -16.12945101908653 135.8190397403664 18.499999999999982
    vertex -16.12945101908653 135.8190397403664 15.499999999999982
  endloop
endfacet
facet normal -1.0 0.0 0.0
  outer loop
    vertex -16.12945101908653 127.81903974036642 2.999999999999989
    vertex -16.12945101908653 135.8190397403664 15.499999999999982
    vertex -16.12945101908653 175.81903974036643 2.999999999999989
  endloop
endfacet
facet normal -1.0 0.0 0.0
  outer loop
    vertex -16.12945101908653 175.81903974036643 2.999999999999989
    vertex -16.12945101908653 135.8190397403664 15.499999999999982
    vertex -16.12945101908653 175.81903974036643 15.499999999999982
  endloop
endfacet
facet normal 0.0 -1.0 1.503982124025544e-14
  outer loop
    vertex 5.870548980913469 127.81903974036643 4.499999999999989
    vertex -13.12945101908653 127.81903974036642 2.999999999999989
    vertex 5.870548980913469 127.81903974036642 2.999999999999989
  endloop
endfacet
facet normal 0.0 -1.0 1.503982124025544e-14
  outer loop
    vertex -13.12945101908653 127.81903974036642 2.999999999999989
    vertex 5.870548980913469 127.81903974036643 4.499999999999989
    vertex -13.12945101908653 127.81903974036643 4.499999999999989
  endloop
endfacet
facet normal 3.181362854060703e-16 1.0 4.359326937861565e-15
  outer loop
    vertex -13.12945101908653 132.81903974036643 4.499999999999997
    vertex 6.370548980913473 132.81903974036643 2.999999999999998
    vertex -13.12945101908653 132.81903974036643 2.999999999999998
  endloop
endfacet
facet normal 3.181362854060703e-16 1.0 4.359326937861565e-15
  outer loop
    vertex 6.370548980913473 132.81903974036643 2.999999999999998
    vertex -13.12945101908653 132.81903974036643 4.499999999999997
    vertex 6.370548980913471 132.81903974036643 4.499999999999997
  endloop
endfacet
facet normal 3.181362854060703e-16 1.0 4.359326937861565e-15
  outer loop
    vertex 6.370548980913471 132.81903974036643 4.499999999999997
    vertex -13.12945101908653 132.81903974036643 4.499999999999997
    vertex 5.870548980913469 132.8190397403664 4.499999999999998
  endloop
endfacet
facet normal 1.40998324127414e-15 -4.359326937861566e-15 1.0
  outer loop
    vertex 6.370548980913468 129.31903974036643 4.4999999999999885
    vertex 5.870548980913469 132.8190397403664 4.499999999999998
    vertex 5.870548980913466 129.3190397403664 4.499999999999989
  endloop
endfacet
facet normal 1.40998324127414e-15 -4.359326937861566e-15 1.0
  outer loop
    vertex 5.870548980913469 132.8190397403664 4.499999999999998
    vertex 6.370548980913468 129.31903974036643 4.4999999999999885
    vertex 6.370548980913471 132.81903974036643 4.499999999999997
  endloop
endfacet
facet normal -2.4736548092526595e-17 -1.4841928855515321e-15 1.0
  outer loop
    vertex 5.870548980913469 127.81903974036643 4.499999999999989
    vertex -13.129451019086519 129.31903974036643 4.499999999999988
    vertex -13.12945101908653 127.81903974036643 4.499999999999989
  endloop
endfacet
facet normal -2.4736548092526595e-17 -1.4841928855515321e-15 1.0
  outer loop
    vertex -13.129451019086519 129.31903974036643 4.499999999999988
    vertex 5.870548980913469 127.81903974036643 4.499999999999989
    vertex 5.870548980913466 129.3190397403664 4.499999999999989
  endloop
endfacet
facet normal -2.4736548092526595e-17 -1.4841928855515321e-15 1.0
  outer loop
    vertex -13.129451019086519 129.31903974036643 4.499999999999988
    vertex 5.870548980913469 132.8190397403664 4.499999999999998
    vertex -13.12945101908653 132.81903974036643 4.499999999999997
  endloop
endfacet
facet normal -2.4736548092526595e-17 -1.4841928855515321e-15 1.0
  outer loop
    vertex 5.870548980913469 132.8190397403664 4.499999999999998
    vertex -13.129451019086519 129.31903974036643 4.499999999999988
    vertex 5.870548980913466 129.3190397403664 4.499999999999989
  endloop
endfacet
facet normal -1.0 0.0 0.0
  outer loop
    vertex 5.870548980913466 129.3190397403664 18.49999999999999
    vertex 5.870548980913469 127.81903974036643 4.499999999999989
    vertex 5.870548980913469 127.81903974036642 18.49999999999999
  endloop
endfacet
facet normal -1.0 0.0 0.0
  outer loop
    vertex 5.870548980913469 127.81903974036643 4.499999999999989
    vertex 5.870548980913466 129.3190397403664 18.49999999999999
    vertex 5.870548980913466 129.3190397403664 4.499999999999989
  endloop
endfacet
facet normal 1.8047785488306478e-15 1.0 5.156510139516158e-16
  outer loop
    vertex 5.870548980913466 129.3190397403664 4.499999999999989
    vertex 7.870548980913468 129.3190397403664 4.499999999999989
    vertex 6.370548980913468 129.31903974036643 4.4999999999999885
  endloop
endfacet
facet normal 1.8047785488306478e-15 1.0 5.156510139516158e-16
  outer loop
    vertex 7.870548980913468 129.3190397403664 4.499999999999989
    vertex 5.870548980913466 129.3190397403664 4.499999999999989
    vertex 5.870548980913466 129.3190397403664 18.49999999999999
  endloop
endfacet
facet normal 1.8047785488306478e-15 1.0 5.156510139516158e-16
  outer loop
    vertex 7.870548980913468 129.3190397403664 4.499999999999989
    vertex 5.870548980913466 129.3190397403664 18.49999999999999
    vertex 7.870548980913468 129.3190397403664 18.49999999999999
  endloop
endfacet
facet normal -2.293639371389001e-16 -3.0000806236511333e-18 1.0
  outer loop
    vertex -4.129451019086529 163.81903974036643 15.499999999999982
    vertex -12.129451019086531 173.81903974036643 15.499999999999977
    vertex -12.129451019086531 163.81903974036643 15.499999999999982
  endloop
endfacet
facet normal -2.293639371389001e-16 -3.0000806236511333e-18 1.0
  outer loop
    vertex -12.129451019086531 173.81903974036643 15.499999999999977
    vertex -4.129451019086529 163.81903974036643 15.499999999999982
    vertex -4.129451019086532 173.81903974036643 15.499999999999982
  endloop
endfacet
facet normal -2.293639371389001e-16 -3.0000806236511333e-18 1.0
  outer loop
    vertex -14.62945101908653 135.8190397403664 15.499999999999982
    vertex -16.12945101908653 175.81903974036643 15.499999999999982
    vertex -16.12945101908653 135.8190397403664 15.499999999999982
  endloop
endfacet
facet normal -2.293639371389001e-16 -3.0000806236511333e-18 1.0
  outer loop
    vertex -16.12945101908653 175.81903974036643 15.499999999999982
    vertex -14.62945101908653 135.8190397403664 15.499999999999982
    vertex -14.62945101908653 173.81903974036643 15.49999999999999
  endloop
endfacet
facet normal -2.293639371389001e-16 -3.0000806236511333e-18 1.0
  outer loop
    vertex -16.12945101908653 175.81903974036643 15.499999999999982
    vertex -14.62945101908653 173.81903974036643 15.49999999999999
    vertex 1.8705489809134708 175.81903974036643 15.49999999999999
  endloop
endfacet
facet normal -2.293639371389001e-16 -3.0000806236511333e-18 1.0
  outer loop
    vertex 1.8705489809134708 175.81903974036643 15.49999999999999
    vertex -14.62945101908653 173.81903974036643 15.49999999999999
    vertex -12.129451019086531 173.81903974036643 15.499999999999977
  endloop
endfacet
facet normal -2.293639371389001e-16 -3.0000806236511333e-18 1.0
  outer loop
    vertex 1.8705489809134708 175.81903974036643 15.49999999999999
    vertex -12.129451019086531 173.81903974036643 15.499999999999977
    vertex -4.129451019086532 173.81903974036643 15.499999999999982
  endloop
endfacet
facet normal -2.293639371389001e-16 -3.0000806236511333e-18 1.0
  outer loop
    vertex 1.8705489809134708 175.81903974036643 15.49999999999999
    vertex -4.129451019086532 173.81903974036643 15.499999999999982
    vertex 1.8705489809134708 173.81903974036643 15.49999999999999
  endloop
endfacet
facet normal 0.0 1.0 3.000080623651134e-18
  outer loop
    vertex -16.12945101908653 135.8190397403664 18.499999999999982
    vertex -14.62945101908653 135.8190397403664 15.499999999999982
    vertex -16.12945101908653 135.8190397403664 15.499999999999982
  endloop
endfacet
facet normal 0.0 1.0 3.000080623651134e-18
  outer loop
    vertex -14.62945101908653 135.8190397403664 15.499999999999982
    vertex -16.12945101908653 135.8190397403664 18.499999999999982
    vertex -14.62945101908653 135.8190397403664 18.499999999999982
  endloop
endfacet
facet normal 0.0 0.0 1.0
  outer loop
    vertex 8.870548980913469 135.8190397403664 15.49999999999999
    vertex 7.870548980913471 175.81903974036643 15.49999999999999
    vertex 7.870548980913471 135.8190397403664 15.49999999999999
  endloop
endfacet
facet normal 0.0 0.0 1.0
  outer loop
    vertex 7.870548980913471 175.81903974036643 15.49999999999999
    vertex 8.870548980913469 135.8190397403664 15.49999999999999
    vertex 8.870548980913469 175.81903974036643 15.49999999999999
  endloop
endfacet
facet normal 0.0 1.0 0.0
  outer loop
    vertex 7.870548980913471 135.8190397403664 18.49999999999999
    vertex 8.870548980913469 135.8190397403664 15.49999999999999
    vertex 7.870548980913471 135.8190397403664 15.49999999999999
  endloop
endfacet
facet normal 0.0 1.0 0.0
  outer loop
    vertex 8.870548980913469 135.8190397403664 15.49999999999999
    vertex 7.870548980913471 135.8190397403664 18.49999999999999
    vertex 8.870548980913469 135.8190397403664 18.49999999999999
  endloop
endfacet
endsolid PushPullBlackSelector
