solid PushPullBlackSelector
facet normal 0.0 -1.0 0.0
  outer loop
    vertex 23.405941705748184 95.36019829968858 29.500000000000004
    vertex -3.594058294251819 95.36019829968858 -0.5000000000000001
    vertex 23.405941705748184 95.36019829968858 -0.5000000000000001
  endloop
endfacet
facet normal 0.0 -1.0 0.0
  outer loop
    vertex -3.594058294251819 95.36019829968858 -0.5000000000000001
    vertex 23.405941705748184 95.36019829968858 29.500000000000004
    vertex -3.594058294251819 95.36019829968858 29.500000000000004
  endloop
endfacet
facet normal 0.0 -1.0 0.0
  outer loop
    vertex 22.40594170574818 109.46019829968859 29.500000000000004
    vertex 3.40594170574818 109.46019829968859 -0.5000000000000001
    vertex 22.40594170574818 109.46019829968859 -0.5000000000000001
  endloop
endfacet
facet normal 0.0 -1.0 0.0
  outer loop
    vertex 3.40594170574818 109.46019829968859 -0.5000000000000001
    vertex 22.40594170574818 109.46019829968859 29.500000000000004
    vertex 3.40594170574818 109.46019829968859 7.999999999999999
  endloop
endfacet
facet normal 0.0 -1.0 0.0
  outer loop
    vertex 3.40594170574818 109.46019829968859 7.999999999999999
    vertex 22.40594170574818 109.46019829968859 29.500000000000004
    vertex -2.5940582942518193 109.46019829968859 7.999999999999999
  endloop
endfacet
facet normal 0.0 -1.0 0.0
  outer loop
    vertex -2.5940582942518193 109.46019829968859 7.999999999999999
    vertex 22.40594170574818 109.46019829968859 29.500000000000004
    vertex -2.5940582942518193 109.46019829968859 29.500000000000004
  endloop
endfacet
facet normal -1.0 2.169204986575306e-16 0.0
  outer loop
    vertex 22.40594170574818 109.46019829968859 29.500000000000004
    vertex 22.40594170574818 96.26019829968858 -0.5000000000000001
    vertex 22.40594170574818 96.26019829968858 29.500000000000004
  endloop
endfacet
facet normal -1.0 2.169204986575306e-16 0.0
  outer loop
    vertex 22.40594170574818 96.26019829968858 -0.5000000000000001
    vertex 22.40594170574818 109.46019829968859 29.500000000000004
    vertex 22.40594170574818 109.46019829968859 -0.5000000000000001
  endloop
endfacet
facet normal 0.0 1.0 0.0
  outer loop
    vertex -3.594058294251819 110.46019829968857 29.500000000000004
    vertex 11.405941705748182 110.46019829968857 24.5
    vertex -3.594058294251819 110.46019829968857 10.0
  endloop
endfacet
facet normal 0.0 1.0 0.0
  outer loop
    vertex 11.405941705748182 110.46019829968857 24.5
    vertex -3.594058294251819 110.46019829968857 29.500000000000004
    vertex 11.405941705748182 110.46019829968857 29.500000000000004
  endloop
endfacet
facet normal 0.0 1.0 0.0
  outer loop
    vertex -2.5940582942518198 110.46019829968857 10.0
    vertex 3.40594170574818 110.46019829968857 7.999999999999999
    vertex -2.5940582942518198 110.46019829968857 7.999999999999999
  endloop
endfacet
facet normal 0.0 1.0 0.0
  outer loop
    vertex 3.40594170574818 110.46019829968857 7.999999999999999
    vertex 22.40594170574818 110.46019829968857 -0.5000000000000001
    vertex 3.40594170574818 110.46019829968857 -0.5000000000000001
  endloop
endfacet
facet normal 0.0 1.0 0.0
  outer loop
    vertex 22.40594170574818 110.46019829968857 -0.5000000000000001
    vertex 3.40594170574818 110.46019829968857 7.999999999999999
    vertex 22.40594170574818 110.46019829968857 29.500000000000004
  endloop
endfacet
facet normal 0.0 1.0 0.0
  outer loop
    vertex 22.40594170574818 110.46019829968857 29.500000000000004
    vertex 3.40594170574818 110.46019829968857 7.999999999999999
    vertex -2.5940582942518198 110.46019829968857 10.0
  endloop
endfacet
facet normal 0.0 1.0 0.0
  outer loop
    vertex 22.40594170574818 110.46019829968857 29.500000000000004
    vertex -2.5940582942518198 110.46019829968857 10.0
    vertex 12.405941705748186 110.46019829968857 24.5
  endloop
endfacet
facet normal 0.0 1.0 0.0
  outer loop
    vertex 22.40594170574818 110.46019829968857 29.500000000000004
    vertex 12.405941705748186 110.46019829968857 24.5
    vertex 12.405941705748182 110.46019829968857 29.500000000000004
  endloop
endfacet
facet normal -1.0 0.0 0.0
  outer loop
    vertex -3.594058294251819 110.46019829968857 29.500000000000004
    vertex -3.594058294251819 95.36019829968858 -0.5000000000000001
    vertex -3.594058294251819 95.36019829968858 29.500000000000004
  endloop
endfacet
facet normal -1.0 0.0 0.0
  outer loop
    vertex -3.594058294251819 95.36019829968858 -0.5000000000000001
    vertex -3.594058294251819 110.46019829968857 29.500000000000004
    vertex -3.594058294251819 110.46019829968857 10.0
  endloop
endfacet
facet normal -1.0 0.0 0.0
  outer loop
    vertex -3.594058294251819 95.36019829968858 -0.5000000000000001
    vertex -3.594058294251819 110.46019829968857 10.0
    vertex -3.594058294251819 115.46019829968857 -0.5000000000000001
  endloop
endfacet
facet normal -1.0 0.0 0.0
  outer loop
    vertex -3.594058294251819 115.46019829968857 -0.5000000000000001
    vertex -3.594058294251819 110.46019829968857 10.0
    vertex -3.594058294251819 115.46019829968857 10.0
  endloop
endfacet
facet normal 0.0 0.0 -1.0
  outer loop
    vertex -3.594058294251819 115.46019829968857 -0.5000000000000001
    vertex -2.5940582942518198 114.46019829968857 -0.5000000000000001
    vertex -3.594058294251819 95.36019829968858 -0.5000000000000001
  endloop
endfacet
facet normal 0.0 0.0 -1.0
  outer loop
    vertex -2.5940582942518198 114.46019829968857 -0.5000000000000001
    vertex -3.594058294251819 115.46019829968857 -0.5000000000000001
    vertex 23.405941705748184 115.46019829968857 -0.5000000000000001
  endloop
endfacet
facet normal 0.0 0.0 -1.0
  outer loop
    vertex -2.5940582942518198 114.46019829968857 -0.5000000000000001
    vertex 23.405941705748184 115.46019829968857 -0.5000000000000001
    vertex 22.40594170574818 114.46019829968857 -0.5000000000000001
  endloop
endfacet
facet normal 0.0 0.0 -1.0
  outer loop
    vertex 22.40594170574818 114.46019829968857 -0.5000000000000001
    vertex 23.405941705748184 115.46019829968857 -0.5000000000000001
    vertex 22.40594170574818 110.46019829968857 -0.5000000000000001
  endloop
endfacet
facet normal 0.0 0.0 -1.0
  outer loop
    vertex 22.40594170574818 110.46019829968857 -0.5000000000000001
    vertex 23.405941705748184 115.46019829968857 -0.5000000000000001
    vertex 22.40594170574818 109.46019829968859 -0.5000000000000001
  endloop
endfacet
facet normal 0.0 0.0 -1.0
  outer loop
    vertex 22.40594170574818 109.46019829968859 -0.5000000000000001
    vertex 23.405941705748184 115.46019829968857 -0.5000000000000001
    vertex 22.40594170574818 96.26019829968858 -0.5000000000000001
  endloop
endfacet
facet normal 0.0 0.0 -1.0
  outer loop
    vertex -3.594058294251819 95.36019829968858 -0.5000000000000001
    vertex -2.5940582942518193 96.26019829968858 -0.5000000000000001
    vertex 23.405941705748184 95.36019829968858 -0.5000000000000001
  endloop
endfacet
facet normal 0.0 0.0 -1.0
  outer loop
    vertex -2.5940582942518193 96.26019829968858 -0.5000000000000001
    vertex -3.594058294251819 95.36019829968858 -0.5000000000000001
    vertex -2.5940582942518198 114.46019829968857 -0.5000000000000001
  endloop
endfacet
facet normal 0.0 0.0 -1.0
  outer loop
    vertex 23.405941705748184 95.36019829968858 -0.5000000000000001
    vertex -2.5940582942518193 96.26019829968858 -0.5000000000000001
    vertex 22.40594170574818 96.26019829968858 -0.5000000000000001
  endloop
endfacet
facet normal 0.0 0.0 -1.0
  outer loop
    vertex 23.405941705748184 95.36019829968858 -0.5000000000000001
    vertex 22.40594170574818 96.26019829968858 -0.5000000000000001
    vertex 23.405941705748184 115.46019829968857 -0.5000000000000001
  endloop
endfacet
facet normal 0.0 0.0 -1.0
  outer loop
    vertex 22.40594170574818 110.46019829968857 -0.5000000000000001
    vertex 3.40594170574818 109.46019829968859 -0.5000000000000001
    vertex 3.40594170574818 110.46019829968857 -0.5000000000000001
  endloop
endfacet
facet normal 0.0 0.0 -1.0
  outer loop
    vertex 3.40594170574818 109.46019829968859 -0.5000000000000001
    vertex 22.40594170574818 110.46019829968857 -0.5000000000000001
    vertex 22.40594170574818 109.46019829968859 -0.5000000000000001
  endloop
endfacet
facet normal 0.6950220968474747 -5.029207743527886e-17 -0.7189883760491123
  outer loop
    vertex 12.405941705748186 114.46019829968854 24.5
    vertex -2.5940582942518198 110.46019829968857 10.0
    vertex -2.5940582942518198 114.46019829968857 10.0
  endloop
endfacet
facet normal 0.6950220968474747 -5.029207743527886e-17 -0.7189883760491123
  outer loop
    vertex -2.5940582942518198 110.46019829968857 10.0
    vertex 12.405941705748186 114.46019829968854 24.5
    vertex 12.405941705748186 110.46019829968857 24.5
  endloop
endfacet
facet normal -0.6950220968474748 2.1457953039026598e-18 0.718988376049112
  outer loop
    vertex 11.405941705748182 110.46019829968857 24.5
    vertex -3.594058294251819 115.46019829968857 10.0
    vertex -3.594058294251819 110.46019829968857 10.0
  endloop
endfacet
facet normal -0.6950220968474748 2.1457953039026598e-18 0.718988376049112
  outer loop
    vertex -3.594058294251819 115.46019829968857 10.0
    vertex 11.405941705748182 110.46019829968857 24.5
    vertex 11.405941705748182 115.46019829968853 24.5
  endloop
endfacet
facet normal -1.0 0.0 0.0
  outer loop
    vertex 11.405941705748182 115.46019829968857 29.500000000000004
    vertex 11.405941705748182 110.46019829968857 24.5
    vertex 11.405941705748182 110.46019829968857 29.500000000000004
  endloop
endfacet
facet normal -1.0 0.0 0.0
  outer loop
    vertex 11.405941705748182 110.46019829968857 24.5
    vertex 11.405941705748182 115.46019829968857 29.500000000000004
    vertex 11.405941705748182 115.46019829968853 24.5
  endloop
endfacet
facet normal 1.0 -1.7624790515924396e-16 4.2299497238218485e-16
  outer loop
    vertex 12.405941705748186 114.46019829968854 24.5
    vertex 12.405941705748182 110.46019829968857 29.500000000000004
    vertex 12.405941705748186 110.46019829968857 24.5
  endloop
endfacet
facet normal 1.0 -1.7624790515924396e-16 4.2299497238218485e-16
  outer loop
    vertex 12.405941705748182 110.46019829968857 29.500000000000004
    vertex 12.405941705748186 114.46019829968854 24.5
    vertex 12.405941705748182 114.46019829968857 29.500000000000004
  endloop
endfacet
facet normal -1.0 0.0 0.0
  outer loop
    vertex 22.40594170574818 114.46019829968857 29.500000000000004
    vertex 22.40594170574818 110.46019829968857 -0.5000000000000001
    vertex 22.40594170574818 110.46019829968857 29.500000000000004
  endloop
endfacet
facet normal -1.0 0.0 0.0
  outer loop
    vertex 22.40594170574818 110.46019829968857 -0.5000000000000001
    vertex 22.40594170574818 114.46019829968857 29.500000000000004
    vertex 22.40594170574818 114.46019829968857 -0.5000000000000001
  endloop
endfacet
facet normal 0.0 0.0 1.0
  outer loop
    vertex -3.594058294251819 95.36019829968858 29.500000000000004
    vertex -2.5940582942518193 101.26019829968858 29.500000000000004
    vertex -3.594058294251819 110.46019829968857 29.500000000000004
  endloop
endfacet
facet normal 0.0 0.0 1.0
  outer loop
    vertex -2.5940582942518193 101.26019829968858 29.500000000000004
    vertex -3.594058294251819 95.36019829968858 29.500000000000004
    vertex 9.40594170574818 96.26019829968858 29.500000000000004
  endloop
endfacet
facet normal 0.0 0.0 1.0
  outer loop
    vertex 9.40594170574818 96.26019829968858 29.500000000000004
    vertex -3.594058294251819 95.36019829968858 29.500000000000004
    vertex 23.405941705748184 95.36019829968858 29.500000000000004
  endloop
endfacet
facet normal 0.0 0.0 1.0
  outer loop
    vertex 9.40594170574818 96.26019829968858 29.500000000000004
    vertex 23.405941705748184 95.36019829968858 29.500000000000004
    vertex 22.40594170574818 96.26019829968858 29.500000000000004
  endloop
endfacet
facet normal 0.0 0.0 1.0
  outer loop
    vertex 22.40594170574818 96.26019829968858 29.500000000000004
    vertex 23.405941705748184 95.36019829968858 29.500000000000004
    vertex 22.40594170574818 109.46019829968859 29.500000000000004
  endloop
endfacet
facet normal 0.0 0.0 1.0
  outer loop
    vertex 22.40594170574818 109.46019829968859 29.500000000000004
    vertex 23.405941705748184 95.36019829968858 29.500000000000004
    vertex 22.40594170574818 110.46019829968857 29.500000000000004
  endloop
endfacet
facet normal 0.0 0.0 1.0
  outer loop
    vertex 22.40594170574818 110.46019829968857 29.500000000000004
    vertex 23.405941705748184 95.36019829968858 29.500000000000004
    vertex 22.40594170574818 114.46019829968857 29.500000000000004
  endloop
endfacet
facet normal 0.0 0.0 1.0
  outer loop
    vertex 11.405941705748182 115.46019829968857 29.500000000000004
    vertex 12.405941705748182 114.46019829968857 29.500000000000004
    vertex 23.405941705748184 115.46019829968857 29.500000000000004
  endloop
endfacet
facet normal 0.0 0.0 1.0
  outer loop
    vertex 12.405941705748182 114.46019829968857 29.500000000000004
    vertex 11.405941705748182 115.46019829968857 29.500000000000004
    vertex 12.405941705748182 110.46019829968857 29.500000000000004
  endloop
endfacet
facet normal 0.0 0.0 1.0
  outer loop
    vertex 23.405941705748184 115.46019829968857 29.500000000000004
    vertex 12.405941705748182 114.46019829968857 29.500000000000004
    vertex 22.40594170574818 114.46019829968857 29.500000000000004
  endloop
endfacet
facet normal 0.0 0.0 1.0
  outer loop
    vertex 23.405941705748184 115.46019829968857 29.500000000000004
    vertex 22.40594170574818 114.46019829968857 29.500000000000004
    vertex 23.405941705748184 95.36019829968858 29.500000000000004
  endloop
endfacet
facet normal 0.0 0.0 1.0
  outer loop
    vertex -3.594058294251819 110.46019829968857 29.500000000000004
    vertex -2.5940582942518193 109.46019829968859 29.500000000000004
    vertex 11.405941705748182 110.46019829968857 29.500000000000004
  endloop
endfacet
facet normal 0.0 0.0 1.0
  outer loop
    vertex -2.5940582942518193 109.46019829968859 29.500000000000004
    vertex -3.594058294251819 110.46019829968857 29.500000000000004
    vertex -2.5940582942518193 101.26019829968858 29.500000000000004
  endloop
endfacet
facet normal 0.0 0.0 1.0
  outer loop
    vertex 11.405941705748182 110.46019829968857 29.500000000000004
    vertex -2.5940582942518193 109.46019829968859 29.500000000000004
    vertex 22.40594170574818 109.46019829968859 29.500000000000004
  endloop
endfacet
facet normal 0.0 0.0 1.0
  outer loop
    vertex 11.405941705748182 110.46019829968857 29.500000000000004
    vertex 22.40594170574818 109.46019829968859 29.500000000000004
    vertex 12.405941705748182 110.46019829968857 29.500000000000004
  endloop
endfacet
facet normal 0.0 0.0 1.0
  outer loop
    vertex 11.405941705748182 110.46019829968857 29.500000000000004
    vertex 12.405941705748182 110.46019829968857 29.500000000000004
    vertex 11.405941705748182 115.46019829968857 29.500000000000004
  endloop
endfacet
facet normal 0.0 0.0 1.0
  outer loop
    vertex 12.405941705748182 110.46019829968857 29.500000000000004
    vertex 22.40594170574818 109.46019829968859 29.500000000000004
    vertex 22.40594170574818 110.46019829968857 29.500000000000004
  endloop
endfacet
facet normal 0.0 0.0 1.0
  outer loop
    vertex 9.40594170574818 101.26019829968858 29.500000000000004
    vertex -2.5940582942518193 101.26019829968858 29.500000000000004
    vertex 9.40594170574818 96.26019829968858 29.500000000000004
  endloop
endfacet
facet normal 3.726426079079343e-16 -1.0 -1.3816573673620267e-16
  outer loop
    vertex 22.40594170574818 114.46019829968857 29.500000000000004
    vertex -2.5940582942518198 114.46019829968857 -0.5000000000000001
    vertex 22.40594170574818 114.46019829968857 -0.5000000000000001
  endloop
endfacet
facet normal 3.726426079079343e-16 -1.0 -1.3816573673620267e-16
  outer loop
    vertex -2.5940582942518198 114.46019829968857 -0.5000000000000001
    vertex 22.40594170574818 114.46019829968857 29.500000000000004
    vertex -2.5940582942518198 114.46019829968857 10.0
  endloop
endfacet
facet normal 3.726426079079343e-16 -1.0 -1.3816573673620267e-16
  outer loop
    vertex -2.5940582942518198 114.46019829968857 10.0
    vertex 22.40594170574818 114.46019829968857 29.500000000000004
    vertex 12.405941705748186 114.46019829968854 24.5
  endloop
endfacet
facet normal 3.726426079079343e-16 -1.0 -1.3816573673620267e-16
  outer loop
    vertex 12.405941705748186 114.46019829968854 24.5
    vertex 22.40594170574818 114.46019829968857 29.500000000000004
    vertex 12.405941705748182 114.46019829968857 29.500000000000004
  endloop
endfacet
facet normal 1.0 0.0 0.0
  outer loop
    vertex 23.405941705748184 115.46019829968857 -0.5000000000000001
    vertex 23.405941705748184 95.36019829968858 29.500000000000004
    vertex 23.405941705748184 95.36019829968858 -0.5000000000000001
  endloop
endfacet
facet normal 1.0 0.0 0.0
  outer loop
    vertex 23.405941705748184 95.36019829968858 29.500000000000004
    vertex 23.405941705748184 115.46019829968857 -0.5000000000000001
    vertex 23.405941705748184 115.46019829968857 29.500000000000004
  endloop
endfacet
facet normal -2.3211894835306093e-16 1.0 4.154173227741142e-16
  outer loop
    vertex -3.594058294251819 115.46019829968857 10.0
    vertex 23.405941705748184 115.46019829968857 -0.5000000000000001
    vertex -3.594058294251819 115.46019829968857 -0.5000000000000001
  endloop
endfacet
facet normal -2.3211894835306093e-16 1.0 4.154173227741142e-16
  outer loop
    vertex 23.405941705748184 115.46019829968857 -0.5000000000000001
    vertex -3.594058294251819 115.46019829968857 10.0
    vertex 23.405941705748184 115.46019829968857 29.500000000000004
  endloop
endfacet
facet normal -2.3211894835306093e-16 1.0 4.154173227741142e-16
  outer loop
    vertex 23.405941705748184 115.46019829968857 29.500000000000004
    vertex -3.594058294251819 115.46019829968857 10.0
    vertex 11.405941705748182 115.46019829968853 24.5
  endloop
endfacet
facet normal -2.3211894835306093e-16 1.0 4.154173227741142e-16
  outer loop
    vertex 23.405941705748184 115.46019829968857 29.500000000000004
    vertex 11.405941705748182 115.46019829968853 24.5
    vertex 11.405941705748182 115.46019829968857 29.500000000000004
  endloop
endfacet
facet normal -1.0 0.0 0.0
  outer loop
    vertex 3.40594170574818 110.46019829968857 7.999999999999999
    vertex 3.40594170574818 109.46019829968859 -0.5000000000000001
    vertex 3.40594170574818 109.46019829968859 7.999999999999999
  endloop
endfacet
facet normal -1.0 0.0 0.0
  outer loop
    vertex 3.40594170574818 109.46019829968859 -0.5000000000000001
    vertex 3.40594170574818 110.46019829968857 7.999999999999999
    vertex 3.40594170574818 110.46019829968857 -0.5000000000000001
  endloop
endfacet
facet normal 0.0 0.0 -1.0
  outer loop
    vertex 3.40594170574818 110.46019829968857 7.999999999999999
    vertex -2.5940582942518193 109.46019829968859 7.999999999999999
    vertex -2.5940582942518198 110.46019829968857 7.999999999999999
  endloop
endfacet
facet normal 0.0 0.0 -1.0
  outer loop
    vertex -2.5940582942518193 109.46019829968859 7.999999999999999
    vertex 3.40594170574818 110.46019829968857 7.999999999999999
    vertex 3.40594170574818 109.46019829968859 7.999999999999999
  endloop
endfacet
facet normal 0.0 1.0 0.0
  outer loop
    vertex -2.5940582942518193 96.26019829968858 28.500000000000004
    vertex 22.40594170574818 96.26019829968858 -0.5000000000000001
    vertex -2.5940582942518193 96.26019829968858 -0.5000000000000001
  endloop
endfacet
facet normal 0.0 1.0 0.0
  outer loop
    vertex 22.40594170574818 96.26019829968858 -0.5000000000000001
    vertex -2.5940582942518193 96.26019829968858 28.500000000000004
    vertex 9.40594170574818 96.26019829968858 28.500000000000004
  endloop
endfacet
facet normal 0.0 1.0 0.0
  outer loop
    vertex 22.40594170574818 96.26019829968858 -0.5000000000000001
    vertex 9.40594170574818 96.26019829968858 28.500000000000004
    vertex 22.40594170574818 96.26019829968858 29.500000000000004
  endloop
endfacet
facet normal 0.0 1.0 0.0
  outer loop
    vertex 22.40594170574818 96.26019829968858 29.500000000000004
    vertex 9.40594170574818 96.26019829968858 28.500000000000004
    vertex 9.40594170574818 96.26019829968858 29.500000000000004
  endloop
endfacet
facet normal 1.0 3.188183614326464e-17 -8.68632091890463e-18
  outer loop
    vertex -2.5940582942518198 114.46019829968857 -0.5000000000000001
    vertex -2.5940582942518193 96.26019829968858 28.500000000000004
    vertex -2.5940582942518193 96.26019829968858 -0.5000000000000001
  endloop
endfacet
facet normal 1.0 3.188183614326464e-17 -8.68632091890463e-18
  outer loop
    vertex -2.5940582942518193 96.26019829968858 28.500000000000004
    vertex -2.5940582942518198 114.46019829968857 -0.5000000000000001
    vertex -2.5940582942518193 109.46019829968859 7.999999999999999
  endloop
endfacet
facet normal 1.0 3.188183614326464e-17 -8.68632091890463e-18
  outer loop
    vertex -2.5940582942518193 96.26019829968858 28.500000000000004
    vertex -2.5940582942518193 109.46019829968859 7.999999999999999
    vertex -2.5940582942518193 101.26019829968858 28.500000000000004
  endloop
endfacet
facet normal 1.0 3.188183614326464e-17 -8.68632091890463e-18
  outer loop
    vertex -2.5940582942518193 101.26019829968858 28.500000000000004
    vertex -2.5940582942518193 109.46019829968859 7.999999999999999
    vertex -2.5940582942518193 101.26019829968858 29.500000000000004
  endloop
endfacet
facet normal 1.0 3.188183614326464e-17 -8.68632091890463e-18
  outer loop
    vertex -2.5940582942518193 109.46019829968859 7.999999999999999
    vertex -2.5940582942518198 114.46019829968857 -0.5000000000000001
    vertex -2.5940582942518198 110.46019829968857 7.999999999999999
  endloop
endfacet
facet normal 1.0 3.188183614326464e-17 -8.68632091890463e-18
  outer loop
    vertex -2.5940582942518198 110.46019829968857 7.999999999999999
    vertex -2.5940582942518198 114.46019829968857 -0.5000000000000001
    vertex -2.5940582942518198 110.46019829968857 10.0
  endloop
endfacet
facet normal 1.0 3.188183614326464e-17 -8.68632091890463e-18
  outer loop
    vertex -2.5940582942518198 110.46019829968857 10.0
    vertex -2.5940582942518198 114.46019829968857 -0.5000000000000001
    vertex -2.5940582942518198 114.46019829968857 10.0
  endloop
endfacet
facet normal 1.0 3.188183614326464e-17 -8.68632091890463e-18
  outer loop
    vertex -2.5940582942518193 109.46019829968859 29.500000000000004
    vertex -2.5940582942518193 101.26019829968858 29.500000000000004
    vertex -2.5940582942518193 109.46019829968859 7.999999999999999
  endloop
endfacet
facet normal 0.0 1.0 0.0
  outer loop
    vertex -2.5940582942518193 101.26019829968858 29.500000000000004
    vertex 9.40594170574818 101.26019829968858 28.500000000000004
    vertex -2.5940582942518193 101.26019829968858 28.500000000000004
  endloop
endfacet
facet normal 0.0 1.0 0.0
  outer loop
    vertex 9.40594170574818 101.26019829968858 28.500000000000004
    vertex -2.5940582942518193 101.26019829968858 29.500000000000004
    vertex 9.40594170574818 101.26019829968858 29.500000000000004
  endloop
endfacet
facet normal 1.0 0.0 0.0
  outer loop
    vertex 9.40594170574818 101.26019829968858 28.500000000000004
    vertex 9.40594170574818 96.26019829968858 29.500000000000004
    vertex 9.40594170574818 96.26019829968858 28.500000000000004
  endloop
endfacet
facet normal 1.0 0.0 0.0
  outer loop
    vertex 9.40594170574818 96.26019829968858 29.500000000000004
    vertex 9.40594170574818 101.26019829968858 28.500000000000004
    vertex 9.40594170574818 101.26019829968858 29.500000000000004
  endloop
endfacet
facet normal 0.0 0.0 -1.0
  outer loop
    vertex 9.40594170574818 101.26019829968858 28.500000000000004
    vertex -2.5940582942518193 96.26019829968858 28.500000000000004
    vertex -2.5940582942518193 101.26019829968858 28.500000000000004
  endloop
endfacet
facet normal 0.0 0.0 -1.0
  outer loop
    vertex -2.5940582942518193 96.26019829968858 28.500000000000004
    vertex 9.40594170574818 101.26019829968858 28.500000000000004
    vertex 9.40594170574818 96.26019829968858 28.500000000000004
  endloop
endfacet
endsolid PushPullBlackSelector
