solid Rotary_PushPull_Switch_Outer_case
facet normal 6.533623732640176e-14 0.999999999999234 -1.237789593357367e-06
  outer loop
    vertex -8.94430160522461 -44.3561668395996 -8.185148239135742
    vertex 9.122979164123537 -44.356170654296875 -11.26700973510742
    vertex -8.94430160522461 -44.356170654296875 -11.267011642456053
  endloop
endfacet
facet normal 6.533623732640176e-14 0.999999999999234 -1.237789593357367e-06
  outer loop
    vertex 9.122979164123537 -44.356170654296875 -11.26700973510742
    vertex -8.94430160522461 -44.3561668395996 -8.185148239135742
    vertex 9.122979164123537 -44.3561668395996 -8.185148239135742
  endloop
endfacet
facet normal 0.0 -1.0 0.0
  outer loop
    vertex 4.3779411315917995 -51.96669387817382 3.795307159423827
    vertex -5.922527313232421 -51.96669387817382 -8.185148239135742
    vertex 6.117958545684817 -51.96669387817382 -8.185148239135742
  endloop
endfacet
facet normal 0.0 -1.0 0.0
  outer loop
    vertex -5.922527313232421 -51.96669387817382 -8.185148239135742
    vertex 4.3779411315917995 -51.96669387817382 3.795307159423827
    vertex -4.182510375976562 -51.96669387817382 3.795307159423827
  endloop
endfacet
facet normal 0.0 1.0 0.0
  outer loop
    vertex -4.2637786865234375 -61.79006958007812 9.94928741455078
    vertex 4.442459583282474 -61.79006958007812 7.602862834930419
    vertex -4.2637786865234375 -61.79006958007812 7.602862834930419
  endloop
endfacet
facet normal 0.0 1.0 0.0
  outer loop
    vertex 4.442459583282474 -61.79006958007812 7.602862834930419
    vertex -4.2637786865234375 -61.79006958007812 9.94928741455078
    vertex 4.442459583282474 -61.79006958007812 9.94928741455078
  endloop
endfacet
facet normal 0.0 1.0 0.0
  outer loop
    vertex -12.437836647033691 -64.23490905761719 9.94928741455078
    vertex -9.489002227783203 -64.23490905761719 7.631312847137451
    vertex -12.437836647033691 -64.23490905761719 7.631312847137451
  endloop
endfacet
facet normal 0.0 1.0 0.0
  outer loop
    vertex -9.489002227783203 -64.23490905761719 7.631312847137451
    vertex 9.667683601379395 -64.23490905761719 -8.185149192810059
    vertex -9.489002227783203 -64.23490905761719 -8.185149192810059
  endloop
endfacet
facet normal 0.0 1.0 0.0
  outer loop
    vertex 9.667683601379395 -64.23490905761719 -8.185149192810059
    vertex -9.489002227783203 -64.23490905761719 7.631312847137451
    vertex -5.418522357940673 -64.23490905761719 7.600615978240966
  endloop
endfacet
facet normal 0.0 1.0 0.0
  outer loop
    vertex -5.418522357940673 -64.23490905761719 7.600615978240966
    vertex -9.489002227783203 -64.23490905761719 7.631312847137451
    vertex -5.418522357940673 -64.23490905761719 9.94928741455078
  endloop
endfacet
facet normal 0.0 1.0 0.0
  outer loop
    vertex -5.418522357940673 -64.23490905761719 9.94928741455078
    vertex -9.489002227783203 -64.23490905761719 7.631312847137451
    vertex -12.437836647033691 -64.23490905761719 9.94928741455078
  endloop
endfacet
facet normal 0.0 1.0 0.0
  outer loop
    vertex 9.667683601379395 -64.23490905761719 -8.185149192810059
    vertex 5.597206115722657 -64.23490905761719 7.602862834930419
    vertex 9.667683601379395 -64.23490905761719 7.631312847137451
  endloop
endfacet
facet normal 0.0 1.0 0.0
  outer loop
    vertex 5.597206115722657 -64.23490905761719 7.602862834930419
    vertex 9.667683601379395 -64.23490905761719 -8.185149192810059
    vertex -5.418522357940673 -64.23490905761719 7.600615978240966
  endloop
endfacet
facet normal 0.0 1.0 0.0
  outer loop
    vertex 9.667683601379395 -64.23490905761719 7.631312847137451
    vertex 5.597206115722657 -64.23490905761719 7.602862834930419
    vertex 5.597206115722657 -64.23490905761719 9.94928741455078
  endloop
endfacet
facet normal 0.0 1.0 0.0
  outer loop
    vertex 9.667683601379395 -64.23490905761719 7.631312847137451
    vertex 12.530535697937012 -64.23490905761719 9.94928741455078
    vertex 12.530535697937012 -64.23490905761719 7.629065513610839
  endloop
endfacet
facet normal 0.0 1.0 0.0
  outer loop
    vertex 12.530535697937012 -64.23490905761719 9.94928741455078
    vertex 9.667683601379395 -64.23490905761719 7.631312847137451
    vertex 5.597206115722657 -64.23490905761719 9.94928741455078
  endloop
endfacet
facet normal 1.0 0.0 0.0
  outer loop
    vertex 5.597206115722657 -63.23490905761718 7.602862834930419
    vertex 5.597206115722657 -64.23490905761719 9.94928741455078
    vertex 5.597206115722657 -64.23490905761719 7.602862834930419
  endloop
endfacet
facet normal 1.0 0.0 0.0
  outer loop
    vertex 5.597206115722657 -64.23490905761719 9.94928741455078
    vertex 5.597206115722657 -63.23490905761718 7.602862834930419
    vertex 5.597206115722657 -63.23490905761718 9.94928741455078
  endloop
endfacet
facet normal 0.0 -1.0 0.0
  outer loop
    vertex 12.530535697937012 -67.27871704101561 9.94928741455078
    vertex -12.437836647033691 -67.27871704101561 -11.267012596130371
    vertex 12.530535697937012 -67.27871704101561 -11.267012596130371
  endloop
endfacet
facet normal 0.0 -1.0 0.0
  outer loop
    vertex -12.437836647033691 -67.27871704101561 -11.267012596130371
    vertex 12.530535697937012 -67.27871704101561 9.94928741455078
    vertex -12.437836647033691 -67.27871704101561 9.94928741455078
  endloop
endfacet
facet normal 0.7811654375370435 0.6243240818657884 0.0
  outer loop
    vertex 4.442459583282474 -61.79006958007812 7.602862834930419
    vertex 5.597206115722657 -63.23490905761718 9.94928741455078
    vertex 5.597206115722657 -63.23490905761718 7.602862834930419
  endloop
endfacet
facet normal 0.7811654375370435 0.6243240818657884 0.0
  outer loop
    vertex 5.597206115722657 -63.23490905761718 9.94928741455078
    vertex 4.442459583282474 -61.79006958007812 7.602862834930419
    vertex 4.442459583282474 -61.79006958007812 9.94928741455078
  endloop
endfacet
facet normal -0.9896169473799206 -4.321007142852802e-09 0.14372994628276944
  outer loop
    vertex -4.182510375976562 -45.05978775024413 3.795307636260986
    vertex -5.922527313232421 -51.96669387817382 -8.185148239135742
    vertex -4.182510375976562 -51.96669387817382 3.795307159423827
  endloop
endfacet
facet normal -0.9896169473799206 -4.321007142852802e-09 0.14372994628276944
  outer loop
    vertex -5.922527313232421 -51.96669387817382 -8.185148239135742
    vertex -4.182510375976562 -45.05978775024413 3.795307636260986
    vertex -5.922527313232421 -45.05978775024413 -8.185148239135742
  endloop
endfacet
facet normal 0.989616941721778 -4.961396332840436e-09 0.1437299852405028
  outer loop
    vertex 6.117958545684817 -45.05978775024413 -8.185148239135742
    vertex 4.3779411315917995 -51.96669387817382 3.795307159423827
    vertex 6.117958545684817 -51.96669387817382 -8.185148239135742
  endloop
endfacet
facet normal 0.989616941721778 -4.961396332840436e-09 0.1437299852405028
  outer loop
    vertex 4.3779411315917995 -51.96669387817382 3.795307159423827
    vertex 6.117958545684817 -45.05978775024413 -8.185148239135742
    vertex 4.3779411315917995 -45.05978775024413 3.795307636260986
  endloop
endfacet
facet normal 0.00012554603608259666 0.000777545321354197 -0.999999689830685
  outer loop
    vertex -4.2637786865234375 -61.79006958007812 7.602862834930419
    vertex -5.418522357940673 -64.23490905761719 7.600615978240966
    vertex -5.418522357940673 -63.23490905761718 7.600615978240966
  endloop
endfacet
facet normal 0.00012554603608259666 0.000777545321354197 -0.999999689830685
  outer loop
    vertex -5.418522357940673 -64.23490905761719 7.600615978240966
    vertex -4.2637786865234375 -61.79006958007812 7.602862834930419
    vertex 5.597206115722657 -64.23490905761719 7.602862834930419
  endloop
endfacet
facet normal 0.00012554603608259666 0.000777545321354197 -0.999999689830685
  outer loop
    vertex 5.597206115722657 -64.23490905761719 7.602862834930419
    vertex -4.2637786865234375 -61.79006958007812 7.602862834930419
    vertex 4.442459583282474 -61.79006958007812 7.602862834930419
  endloop
endfacet
facet normal 0.00012554603608259666 0.000777545321354197 -0.999999689830685
  outer loop
    vertex 5.597206115722657 -64.23490905761719 7.602862834930419
    vertex 4.442459583282474 -61.79006958007812 7.602862834930419
    vertex 5.597206115722657 -63.23490905761718 7.602862834930419
  endloop
endfacet
facet normal -1.0 0.0 0.0
  outer loop
    vertex -5.418522357940673 -63.23490905761718 9.94928741455078
    vertex -5.418522357940673 -64.23490905761719 7.600615978240966
    vertex -5.418522357940673 -64.23490905761719 9.94928741455078
  endloop
endfacet
facet normal -1.0 0.0 0.0
  outer loop
    vertex -5.418522357940673 -64.23490905761719 7.600615978240966
    vertex -5.418522357940673 -63.23490905761718 9.94928741455078
    vertex -5.418522357940673 -63.23490905761718 7.600615978240966
  endloop
endfacet
facet normal 0.0 1.0 0.0
  outer loop
    vertex -4.182510375976562 -45.05978775024413 3.795307636260986
    vertex 6.117958545684817 -45.05978775024413 -8.185148239135742
    vertex -5.922527313232421 -45.05978775024413 -8.185148239135742
  endloop
endfacet
facet normal 0.0 1.0 0.0
  outer loop
    vertex 6.117958545684817 -45.05978775024413 -8.185148239135742
    vertex -4.182510375976562 -45.05978775024413 3.795307636260986
    vertex 4.3779411315917995 -45.05978775024413 3.795307636260986
  endloop
endfacet
facet normal -0.781166191930582 0.6243231379539551 1.0800711480026516e-17
  outer loop
    vertex -4.2637786865234375 -61.79006958007812 9.94928741455078
    vertex -5.418522357940673 -63.23490905761718 7.600615978240966
    vertex -5.418522357940673 -63.23490905761718 9.94928741455078
  endloop
endfacet
facet normal -0.781166191930582 0.6243231379539551 1.0800711480026516e-17
  outer loop
    vertex -5.418522357940673 -63.23490905761718 7.600615978240966
    vertex -4.2637786865234375 -61.79006958007812 9.94928741455078
    vertex -4.2637786865234375 -61.79006958007812 7.602862834930419
  endloop
endfacet
facet normal 0.0 0.0 1.0
  outer loop
    vertex 12.530535697937012 -67.27871704101561 9.94928741455078
    vertex -12.437836647033691 -64.23490905761719 9.94928741455078
    vertex -12.437836647033691 -67.27871704101561 9.94928741455078
  endloop
endfacet
facet normal 0.0 0.0 1.0
  outer loop
    vertex -12.437836647033691 -64.23490905761719 9.94928741455078
    vertex 12.530535697937012 -67.27871704101561 9.94928741455078
    vertex -5.418522357940673 -64.23490905761719 9.94928741455078
  endloop
endfacet
facet normal 0.0 0.0 1.0
  outer loop
    vertex -5.418522357940673 -64.23490905761719 9.94928741455078
    vertex 12.530535697937012 -67.27871704101561 9.94928741455078
    vertex -5.418522357940673 -63.23490905761718 9.94928741455078
  endloop
endfacet
facet normal 0.0 0.0 1.0
  outer loop
    vertex -5.418522357940673 -63.23490905761718 9.94928741455078
    vertex 12.530535697937012 -67.27871704101561 9.94928741455078
    vertex -4.2637786865234375 -61.79006958007812 9.94928741455078
  endloop
endfacet
facet normal 0.0 0.0 1.0
  outer loop
    vertex -4.2637786865234375 -61.79006958007812 9.94928741455078
    vertex 12.530535697937012 -67.27871704101561 9.94928741455078
    vertex 5.597206115722657 -64.23490905761719 9.94928741455078
  endloop
endfacet
facet normal 0.0 0.0 1.0
  outer loop
    vertex -4.2637786865234375 -61.79006958007812 9.94928741455078
    vertex 5.597206115722657 -64.23490905761719 9.94928741455078
    vertex 4.442459583282474 -61.79006958007812 9.94928741455078
  endloop
endfacet
facet normal 0.0 0.0 1.0
  outer loop
    vertex 5.597206115722657 -64.23490905761719 9.94928741455078
    vertex 12.530535697937012 -67.27871704101561 9.94928741455078
    vertex 12.530535697937012 -64.23490905761719 9.94928741455078
  endloop
endfacet
facet normal 0.0 0.0 1.0
  outer loop
    vertex 5.597206115722657 -63.23490905761718 9.94928741455078
    vertex 4.442459583282474 -61.79006958007812 9.94928741455078
    vertex 5.597206115722657 -64.23490905761719 9.94928741455078
  endloop
endfacet
facet normal 0.0 -6.90377354208635e-08 0.9999999999999978
  outer loop
    vertex 4.3779411315917995 -51.96669387817382 3.795307159423827
    vertex -4.182510375976562 -45.05978775024413 3.795307636260986
    vertex -4.182510375976562 -51.96669387817382 3.795307159423827
  endloop
endfacet
facet normal 0.0 -6.90377354208635e-08 0.9999999999999978
  outer loop
    vertex -4.182510375976562 -45.05978775024413 3.795307636260986
    vertex 4.3779411315917995 -51.96669387817382 3.795307159423827
    vertex 4.3779411315917995 -45.05978775024413 3.795307636260986
  endloop
endfacet
facet normal -1.0 0.0 0.0
  outer loop
    vertex -12.437836647033693 -21.536283493041992 7.629068374633786
    vertex -12.437836647033693 -26.3514652252197 -11.267010016550248
    vertex -12.437836647033693 -26.351465225219723 7.62906789779663
  endloop
endfacet
facet normal -1.0 0.0 0.0
  outer loop
    vertex -12.437836647033693 -26.3514652252197 -11.267010016550248
    vertex -12.437836647033693 -21.536283493041992 7.629068374633786
    vertex -12.437836647033693 -21.536283493041992 -11.26700973510742
  endloop
endfacet
facet normal -8.322211574786984e-16 -1.0 1.4923553951299088e-16
  outer loop
    vertex -12.437836647033691 -29.005630493164066 -11.267010586133718
    vertex -15.826318740844728 -29.00563049316406 7.62906789779663
    vertex -15.826318740844728 -29.00563049316406 -11.267010688781738
  endloop
endfacet
facet normal -8.322211574786984e-16 -1.0 1.4923553951299088e-16
  outer loop
    vertex -15.826318740844728 -29.00563049316406 7.62906789779663
    vertex -12.437836647033691 -29.005630493164066 -11.267010586133718
    vertex -12.437836647033693 -29.00563049316406 7.62906789779663
  endloop
endfacet
facet normal -3.3288845960825315e-15 1.0 5.969421881792957e-16
  outer loop
    vertex -15.826318740844728 -26.351465225219723 -11.26700973510742
    vertex -12.437836647033693 -26.351465225219723 7.62906789779663
    vertex -12.437836647033693 -26.3514652252197 -11.267010016550248
  endloop
endfacet
facet normal -3.3288845960825315e-15 1.0 5.969421881792957e-16
  outer loop
    vertex -12.437836647033693 -26.351465225219723 7.62906789779663
    vertex -15.826318740844728 -26.351465225219723 -11.26700973510742
    vertex -15.826318740844728 -26.351465225219723 7.62906789779663
  endloop
endfacet
facet normal -1.0 0.0 0.0
  outer loop
    vertex -15.826318740844728 -18.79333877563477 7.629068374633786
    vertex -15.826318740844728 -21.536283493041992 -11.26700973510742
    vertex -15.826318740844728 -21.536283493041992 7.629068374633786
  endloop
endfacet
facet normal -1.0 0.0 0.0
  outer loop
    vertex -15.826318740844728 -21.536283493041992 -11.26700973510742
    vertex -15.826318740844728 -18.79333877563477 7.629068374633786
    vertex -15.826318740844728 -18.79333877563477 -11.26700973510742
  endloop
endfacet
facet normal 0.0 1.0 0.0
  outer loop
    vertex -15.826318740844728 -18.79333877563477 7.629068374633786
    vertex -12.437836647033693 -18.79333877563477 -11.26700973510742
    vertex -15.826318740844728 -18.79333877563477 -11.26700973510742
  endloop
endfacet
facet normal 0.0 1.0 0.0
  outer loop
    vertex -12.437836647033693 -18.79333877563477 -11.26700973510742
    vertex -15.826318740844728 -18.79333877563477 7.629068374633786
    vertex -12.437836647033693 -18.79333877563477 7.629068374633786
  endloop
endfacet
facet normal -1.447401187588153e-11 0.9999999999999942 1.0819516113516876e-07
  outer loop
    vertex -12.437836647033693 -4.6514062881469815 -11.267008781433105
    vertex -9.489002227783205 -4.6514062881469815 -8.185145378112793
    vertex 12.530535697937006 -4.6514062881469815 -11.267008781433105
  endloop
endfacet
facet normal -1.447401187588153e-11 0.9999999999999942 1.0819516113516876e-07
  outer loop
    vertex -9.489002227783205 -4.6514062881469815 -8.185145378112793
    vertex -12.437836647033693 -4.6514062881469815 -11.267008781433105
    vertex -12.437836647033693 -4.651408195495607 7.629069805145261
  endloop
endfacet
facet normal -1.447401187588153e-11 0.9999999999999942 1.0819516113516876e-07
  outer loop
    vertex -9.489002227783205 -4.6514062881469815 -8.185145378112793
    vertex -12.437836647033693 -4.651408195495607 7.629069805145261
    vertex -9.489002227783205 -4.651408195495607 7.629069805145261
  endloop
endfacet
facet normal -1.447401187588153e-11 0.9999999999999942 1.0819516113516876e-07
  outer loop
    vertex 12.530535697937006 -4.6514062881469815 -11.267008781433105
    vertex 9.66768360137939 -4.6514062881469815 -8.185145378112793
    vertex 12.530535697937006 -4.651408195495607 7.629069805145261
  endloop
endfacet
facet normal -1.447401187588153e-11 0.9999999999999942 1.0819516113516876e-07
  outer loop
    vertex 9.66768360137939 -4.6514062881469815 -8.185145378112793
    vertex 12.530535697937006 -4.6514062881469815 -11.267008781433105
    vertex -9.489002227783205 -4.6514062881469815 -8.185145378112793
  endloop
endfacet
facet normal -1.447401187588153e-11 0.9999999999999942 1.0819516113516876e-07
  outer loop
    vertex 12.530535697937006 -4.651408195495607 7.629069805145261
    vertex 9.66768360137939 -4.6514062881469815 -8.185145378112793
    vertex 9.66768360137939 -4.651408195495607 7.629069805145261
  endloop
endfacet
facet normal 8.373180054882734e-16 -1.0 1.4923553951299095e-16
  outer loop
    vertex 15.89839172363281 -29.005626678466797 7.62906789779663
    vertex 12.530535697937006 -29.005626678466804 -11.267010586133585
    vertex 15.89839172363281 -29.005626678466797 -11.267010688781738
  endloop
endfacet
facet normal 8.373180054882734e-16 -1.0 1.4923553951299095e-16
  outer loop
    vertex 12.530535697937006 -29.005626678466804 -11.267010586133585
    vertex 15.89839172363281 -29.005626678466797 7.62906789779663
    vertex 12.530535697937006 -29.005626678466797 7.62906789779663
  endloop
endfacet
facet normal 1.0 3.984571889732794e-12 2.393257719742721e-11
  outer loop
    vertex -9.489002227783203 -44.3561668395996 -8.185148239135742
    vertex -9.489002227783203 -64.23490905761719 7.631312847137451
    vertex -9.489002227783203 -64.23490905761719 -8.185149192810059
  endloop
endfacet
facet normal 1.0 3.984571889732794e-12 2.393257719742721e-11
  outer loop
    vertex -9.489002227783203 -64.23490905761719 7.631312847137451
    vertex -9.489002227783203 -44.3561668395996 -8.185148239135742
    vertex -9.489002227783205 -4.651408195495607 7.629069805145261
  endloop
endfacet
facet normal 1.0 3.984571889732794e-12 2.393257719742721e-11
  outer loop
    vertex -9.489002227783205 -4.651408195495607 7.629069805145261
    vertex -9.489002227783203 -44.3561668395996 -8.185148239135742
    vertex -9.489002227783205 -4.6514062881469815 -8.185145378112793
  endloop
endfacet
facet normal -1.0 3.2173487537410953e-10 -6.198979803568148e-12
  outer loop
    vertex 9.122979164123537 -44.3561668395996 -8.185148239135742
    vertex 9.122979164123532 -25.808317184448242 -11.26700973510742
    vertex 9.122979164123537 -44.356170654296875 -11.26700973510742
  endloop
endfacet
facet normal -1.0 3.2173487537410953e-10 -6.198979803568148e-12
  outer loop
    vertex 9.122979164123532 -25.808317184448242 -11.26700973510742
    vertex 9.122979164123537 -44.3561668395996 -8.185148239135742
    vertex 9.122979164123532 -25.808317184448242 -8.18514633178711
  endloop
endfacet
facet normal 1.0 0.0 0.0
  outer loop
    vertex 12.530535697937006 -26.35146522521971 -11.267010016550248
    vertex 12.530535697937006 -21.536285400390625 7.629068374633786
    vertex 12.530535697937006 -26.351465225219723 7.62906789779663
  endloop
endfacet
facet normal 1.0 0.0 0.0
  outer loop
    vertex 12.530535697937006 -21.536285400390625 7.629068374633786
    vertex 12.530535697937006 -26.35146522521971 -11.267010016550248
    vertex 12.530535697937006 -21.536285400390625 -11.26700973510742
  endloop
endfacet
facet normal 0.9999999999992266 3.1148430634198895e-07 -1.2040026308128641e-06
  outer loop
    vertex 12.530535697937012 -67.27871704101561 -11.267012596130371
    vertex 12.530535697937012 -64.23490905761719 7.629065513610839
    vertex 12.530535697937012 -67.27871704101561 9.94928741455078
  endloop
endfacet
facet normal 0.9999999999992266 3.1148430634198895e-07 -1.2040026308128641e-06
  outer loop
    vertex 12.530535697937012 -64.23490905761719 7.629065513610839
    vertex 12.530535697937012 -67.27871704101561 -11.267012596130371
    vertex 12.530535697937006 -29.005626678466804 -11.267010586133585
  endloop
endfacet
facet normal 0.9999999999992266 3.1148430634198895e-07 -1.2040026308128641e-06
  outer loop
    vertex 12.530535697937012 -64.23490905761719 7.629065513610839
    vertex 12.530535697937006 -29.005626678466804 -11.267010586133585
    vertex 12.530535697937006 -29.005626678466797 7.62906789779663
  endloop
endfacet
facet normal 0.9999999999992266 3.1148430634198895e-07 -1.2040026308128641e-06
  outer loop
    vertex 12.530535697937012 -64.23490905761719 9.94928741455078
    vertex 12.530535697937012 -67.27871704101561 9.94928741455078
    vertex 12.530535697937012 -64.23490905761719 7.629065513610839
  endloop
endfacet
facet normal -3.1321671290401815e-06 3.775126684451402e-06 -0.999999999987969
  outer loop
    vertex 12.530535697937006 -4.6514062881469815 -11.267008781433105
    vertex -12.437836647033693 -18.79333877563477 -11.26700973510742
    vertex -12.437836647033693 -4.6514062881469815 -11.267008781433105
  endloop
endfacet
facet normal -3.1321671290401815e-06 3.775126684451402e-06 -0.999999999987969
  outer loop
    vertex -12.437836647033693 -18.79333877563477 -11.26700973510742
    vertex 12.530535697937006 -4.6514062881469815 -11.267008781433105
    vertex -12.437836647033693 -21.536283493041992 -11.26700973510742
  endloop
endfacet
facet normal -3.1321671290401815e-06 3.775126684451402e-06 -0.999999999987969
  outer loop
    vertex -12.437836647033693 -21.536283493041992 -11.26700973510742
    vertex 12.530535697937006 -4.6514062881469815 -11.267008781433105
    vertex -12.437836647033693 -26.3514652252197 -11.267010016550248
  endloop
endfacet
facet normal -3.1321671290401815e-06 3.775126684451402e-06 -0.999999999987969
  outer loop
    vertex -12.437836647033693 -26.3514652252197 -11.267010016550248
    vertex 12.530535697937006 -4.6514062881469815 -11.267008781433105
    vertex -12.437836647033691 -29.005630493164066 -11.267010586133718
  endloop
endfacet
facet normal -3.1321671290401815e-06 3.775126684451402e-06 -0.999999999987969
  outer loop
    vertex -12.437836647033691 -29.005630493164066 -11.267010586133718
    vertex 12.530535697937006 -4.6514062881469815 -11.267008781433105
    vertex -8.944297790527346 -25.808317184448242 -11.26700973510742
  endloop
endfacet
facet normal -3.1321671290401815e-06 3.775126684451402e-06 -0.999999999987969
  outer loop
    vertex -12.437836647033691 -29.005630493164066 -11.267010586133718
    vertex -8.944297790527346 -25.808317184448242 -11.26700973510742
    vertex -12.437836647033691 -67.27871704101561 -11.267012596130371
  endloop
endfacet
facet normal -3.1321671290401815e-06 3.775126684451402e-06 -0.999999999987969
  outer loop
    vertex -12.437836647033691 -67.27871704101561 -11.267012596130371
    vertex -8.944297790527346 -25.808317184448242 -11.26700973510742
    vertex -8.94430160522461 -44.356170654296875 -11.267011642456053
  endloop
endfacet
facet normal -3.1321671290401815e-06 3.775126684451402e-06 -0.999999999987969
  outer loop
    vertex -8.944297790527346 -25.808317184448242 -11.26700973510742
    vertex 12.530535697937006 -4.6514062881469815 -11.267008781433105
    vertex 9.122979164123532 -25.808317184448242 -11.26700973510742
  endloop
endfacet
facet normal -3.1321671290401815e-06 3.775126684451402e-06 -0.999999999987969
  outer loop
    vertex 9.122979164123532 -25.808317184448242 -11.26700973510742
    vertex 12.530535697937006 -4.6514062881469815 -11.267008781433105
    vertex 9.122979164123537 -44.356170654296875 -11.26700973510742
  endloop
endfacet
facet normal -3.1321671290401815e-06 3.775126684451402e-06 -0.999999999987969
  outer loop
    vertex 15.89839172363281 -18.79333877563477 -11.26700973510742
    vertex 12.530535697937006 -21.536285400390625 -11.26700973510742
    vertex 12.530535697937006 -18.79333877563477 -11.26700973510742
  endloop
endfacet
facet normal -3.1321671290401815e-06 3.775126684451402e-06 -0.999999999987969
  outer loop
    vertex 12.530535697937006 -21.536285400390625 -11.26700973510742
    vertex 15.89839172363281 -18.79333877563477 -11.26700973510742
    vertex 15.89839172363281 -21.536285400390625 -11.26700973510742
  endloop
endfacet
facet normal -3.1321671290401815e-06 3.775126684451402e-06 -0.999999999987969
  outer loop
    vertex 15.89839172363281 -26.351465225219723 -11.26700973510742
    vertex 12.530535697937006 -29.005626678466804 -11.267010586133585
    vertex 12.530535697937006 -26.35146522521971 -11.267010016550248
  endloop
endfacet
facet normal -3.1321671290401815e-06 3.775126684451402e-06 -0.999999999987969
  outer loop
    vertex 12.530535697937006 -29.005626678466804 -11.267010586133585
    vertex 15.89839172363281 -26.351465225219723 -11.26700973510742
    vertex 15.89839172363281 -29.005626678466797 -11.267010688781738
  endloop
endfacet
facet normal -3.1321671290401815e-06 3.775126684451402e-06 -0.999999999987969
  outer loop
    vertex -8.94430160522461 -44.356170654296875 -11.267011642456053
    vertex 12.530535697937012 -67.27871704101561 -11.267012596130371
    vertex -12.437836647033691 -67.27871704101561 -11.267012596130371
  endloop
endfacet
facet normal -3.1321671290401815e-06 3.775126684451402e-06 -0.999999999987969
  outer loop
    vertex 12.530535697937012 -67.27871704101561 -11.267012596130371
    vertex -8.94430160522461 -44.356170654296875 -11.267011642456053
    vertex 9.122979164123537 -44.356170654296875 -11.26700973510742
  endloop
endfacet
facet normal -3.1321671290401815e-06 3.775126684451402e-06 -0.999999999987969
  outer loop
    vertex 12.530535697937012 -67.27871704101561 -11.267012596130371
    vertex 9.122979164123537 -44.356170654296875 -11.26700973510742
    vertex 12.530535697937006 -29.005626678466804 -11.267010586133585
  endloop
endfacet
facet normal -3.1321671290401815e-06 3.775126684451402e-06 -0.999999999987969
  outer loop
    vertex 12.530535697937006 -29.005626678466804 -11.267010586133585
    vertex 9.122979164123537 -44.356170654296875 -11.26700973510742
    vertex 12.530535697937006 -4.6514062881469815 -11.267008781433105
  endloop
endfacet
facet normal -3.1321671290401815e-06 3.775126684451402e-06 -0.999999999987969
  outer loop
    vertex 12.530535697937006 -29.005626678466804 -11.267010586133585
    vertex 12.530535697937006 -4.6514062881469815 -11.267008781433105
    vertex 12.530535697937006 -18.79333877563477 -11.26700973510742
  endloop
endfacet
facet normal -3.1321671290401815e-06 3.775126684451402e-06 -0.999999999987969
  outer loop
    vertex 12.530535697937006 -29.005626678466804 -11.267010586133585
    vertex 12.530535697937006 -18.79333877563477 -11.26700973510742
    vertex 12.530535697937006 -21.536285400390625 -11.26700973510742
  endloop
endfacet
facet normal -3.1321671290401815e-06 3.775126684451402e-06 -0.999999999987969
  outer loop
    vertex 12.530535697937006 -29.005626678466804 -11.267010586133585
    vertex 12.530535697937006 -21.536285400390625 -11.26700973510742
    vertex 12.530535697937006 -26.35146522521971 -11.267010016550248
  endloop
endfacet
facet normal -3.1321671290401815e-06 3.775126684451402e-06 -0.999999999987969
  outer loop
    vertex -12.437836647033693 -26.3514652252197 -11.267010016550248
    vertex -15.826318740844728 -29.00563049316406 -11.267010688781738
    vertex -15.826318740844728 -26.351465225219723 -11.26700973510742
  endloop
endfacet
facet normal -3.1321671290401815e-06 3.775126684451402e-06 -0.999999999987969
  outer loop
    vertex -15.826318740844728 -29.00563049316406 -11.267010688781738
    vertex -12.437836647033693 -26.3514652252197 -11.267010016550248
    vertex -12.437836647033691 -29.005630493164066 -11.267010586133718
  endloop
endfacet
facet normal -3.1321671290401815e-06 3.775126684451402e-06 -0.999999999987969
  outer loop
    vertex -12.437836647033693 -18.79333877563477 -11.26700973510742
    vertex -15.826318740844728 -21.536283493041992 -11.26700973510742
    vertex -15.826318740844728 -18.79333877563477 -11.26700973510742
  endloop
endfacet
facet normal -3.1321671290401815e-06 3.775126684451402e-06 -0.999999999987969
  outer loop
    vertex -15.826318740844728 -21.536283493041992 -11.26700973510742
    vertex -12.437836647033693 -18.79333877563477 -11.26700973510742
    vertex -12.437836647033693 -21.536283493041992 -11.26700973510742
  endloop
endfacet
facet normal 3.527127622849305e-05 1.7717077378050412e-05 0.9999999992210211
  outer loop
    vertex 12.530535697937012 -64.23490905761719 7.629065513610839
    vertex 12.530535697937006 -29.005626678466797 7.62906789779663
    vertex 9.667683601379395 -64.23490905761719 7.631312847137451
  endloop
endfacet
facet normal 3.527127622849305e-05 1.7717077378050412e-05 0.9999999992210211
  outer loop
    vertex 15.89839172363281 -29.005626678466797 7.62906789779663
    vertex 12.530535697937006 -26.351465225219723 7.62906789779663
    vertex 12.530535697937006 -29.005626678466797 7.62906789779663
  endloop
endfacet
facet normal 3.527127622849305e-05 1.7717077378050412e-05 0.9999999992210211
  outer loop
    vertex 12.530535697937006 -26.351465225219723 7.62906789779663
    vertex 15.89839172363281 -29.005626678466797 7.62906789779663
    vertex 15.89839172363281 -26.351465225219723 7.62906789779663
  endloop
endfacet
facet normal 3.527127622849305e-05 1.7717077378050412e-05 0.9999999992210211
  outer loop
    vertex 15.89839172363281 -21.536285400390625 7.629068374633786
    vertex 12.530535697937006 -18.79333877563477 7.629068374633786
    vertex 12.530535697937006 -21.536285400390625 7.629068374633786
  endloop
endfacet
facet normal 3.527127622849305e-05 1.7717077378050412e-05 0.9999999992210211
  outer loop
    vertex 12.530535697937006 -18.79333877563477 7.629068374633786
    vertex 15.89839172363281 -21.536285400390625 7.629068374633786
    vertex 15.89839172363281 -18.79333877563477 7.629068374633786
  endloop
endfacet
facet normal 3.527127622849305e-05 1.7717077378050412e-05 0.9999999992210211
  outer loop
    vertex 9.667683601379395 -64.23490905761719 7.631312847137451
    vertex 9.66768360137939 -4.651408195495607 7.629069805145261
    vertex 9.66768360137939 -28.321971893310547 7.62906789779663
  endloop
endfacet
facet normal 3.527127622849305e-05 1.7717077378050412e-05 0.9999999992210211
  outer loop
    vertex 9.66768360137939 -4.651408195495607 7.629069805145261
    vertex 9.667683601379395 -64.23490905761719 7.631312847137451
    vertex 12.530535697937006 -4.651408195495607 7.629069805145261
  endloop
endfacet
facet normal 3.527127622849305e-05 1.7717077378050412e-05 0.9999999992210211
  outer loop
    vertex 12.530535697937006 -4.651408195495607 7.629069805145261
    vertex 9.667683601379395 -64.23490905761719 7.631312847137451
    vertex 12.530535697937006 -29.005626678466797 7.62906789779663
  endloop
endfacet
facet normal 3.527127622849305e-05 1.7717077378050412e-05 0.9999999992210211
  outer loop
    vertex 12.530535697937006 -4.651408195495607 7.629069805145261
    vertex 12.530535697937006 -29.005626678466797 7.62906789779663
    vertex 12.530535697937006 -26.351465225219723 7.62906789779663
  endloop
endfacet
facet normal 3.527127622849305e-05 1.7717077378050412e-05 0.9999999992210211
  outer loop
    vertex 12.530535697937006 -4.651408195495607 7.629069805145261
    vertex 12.530535697937006 -26.351465225219723 7.62906789779663
    vertex 12.530535697937006 -21.536285400390625 7.629068374633786
  endloop
endfacet
facet normal 3.527127622849305e-05 1.7717077378050412e-05 0.9999999992210211
  outer loop
    vertex 12.530535697937006 -4.651408195495607 7.629069805145261
    vertex 12.530535697937006 -21.536285400390625 7.629068374633786
    vertex 12.530535697937006 -18.79333877563477 7.629068374633786
  endloop
endfacet
facet normal 0.9999999999999796 -2.0263844916786523e-07 -3.875981662801449e-11
  outer loop
    vertex -8.944297790527346 -25.808317184448242 -11.26700973510742
    vertex -8.94430160522461 -44.3561668395996 -8.185148239135742
    vertex -8.94430160522461 -44.356170654296875 -11.267011642456053
  endloop
endfacet
facet normal 0.9999999999999796 -2.0263844916786523e-07 -3.875981662801449e-11
  outer loop
    vertex -8.94430160522461 -44.3561668395996 -8.185148239135742
    vertex -8.944297790527346 -25.808317184448242 -11.26700973510742
    vertex -8.944297790527346 -25.808317184448242 -8.18514633178711
  endloop
endfacet
facet normal -1.0 -5.5941710134272734e-11 8.762340341101635e-12
  outer loop
    vertex -12.437836647033691 -64.23490905761719 9.94928741455078
    vertex -12.437836647033691 -67.27871704101561 -11.267012596130371
    vertex -12.437836647033691 -67.27871704101561 9.94928741455078
  endloop
endfacet
facet normal -1.0 -5.5941710134272734e-11 8.762340341101635e-12
  outer loop
    vertex -12.437836647033691 -67.27871704101561 -11.267012596130371
    vertex -12.437836647033691 -64.23490905761719 9.94928741455078
    vertex -12.437836647033691 -64.23490905761719 7.631312847137451
  endloop
endfacet
facet normal -1.0 -5.5941710134272734e-11 8.762340341101635e-12
  outer loop
    vertex -12.437836647033691 -67.27871704101561 -11.267012596130371
    vertex -12.437836647033691 -64.23490905761719 7.631312847137451
    vertex -12.437836647033691 -29.005630493164066 -11.267010586133718
  endloop
endfacet
facet normal -1.0 -5.5941710134272734e-11 8.762340341101635e-12
  outer loop
    vertex -12.437836647033691 -29.005630493164066 -11.267010586133718
    vertex -12.437836647033691 -64.23490905761719 7.631312847137451
    vertex -12.437836647033693 -29.00563049316406 7.62906789779663
  endloop
endfacet
facet normal 1.0 0.0 0.0
  outer loop
    vertex 15.89839172363281 -26.351465225219723 -11.26700973510742
    vertex 15.89839172363281 -29.005626678466797 7.62906789779663
    vertex 15.89839172363281 -29.005626678466797 -11.267010688781738
  endloop
endfacet
facet normal 1.0 0.0 0.0
  outer loop
    vertex 15.89839172363281 -29.005626678466797 7.62906789779663
    vertex 15.89839172363281 -26.351465225219723 -11.26700973510742
    vertex 15.89839172363281 -26.351465225219723 7.62906789779663
  endloop
endfacet
facet normal 6.1643921428912196e-06 6.509501482383918e-07 0.9999999999807883
  outer loop
    vertex -9.489002227783203 -64.23490905761719 -8.185149192810059
    vertex -5.922527313232421 -51.96669387817382 -8.185148239135742
    vertex -9.489002227783203 -44.3561668395996 -8.185148239135742
  endloop
endfacet
facet normal 6.1643921428912196e-06 6.509501482383918e-07 0.9999999999807883
  outer loop
    vertex -5.922527313232421 -51.96669387817382 -8.185148239135742
    vertex -9.489002227783203 -64.23490905761719 -8.185149192810059
    vertex 9.667683601379395 -64.23490905761719 -8.185149192810059
  endloop
endfacet
facet normal 6.1643921428912196e-06 6.509501482383918e-07 0.9999999999807883
  outer loop
    vertex -9.489002227783203 -44.3561668395996 -8.185148239135742
    vertex -5.922527313232421 -51.96669387817382 -8.185148239135742
    vertex -8.94430160522461 -44.3561668395996 -8.185148239135742
  endloop
endfacet
facet normal 6.1643921428912196e-06 6.509501482383918e-07 0.9999999999807883
  outer loop
    vertex -5.922527313232421 -51.96669387817382 -8.185148239135742
    vertex 9.667683601379395 -64.23490905761719 -8.185149192810059
    vertex 6.117958545684817 -51.96669387817382 -8.185148239135742
  endloop
endfacet
facet normal 6.1643921428912196e-06 6.509501482383918e-07 0.9999999999807883
  outer loop
    vertex 6.117958545684817 -51.96669387817382 -8.185148239135742
    vertex 9.667683601379395 -64.23490905761719 -8.185149192810059
    vertex 6.117958545684817 -45.05978775024413 -8.185148239135742
  endloop
endfacet
facet normal 6.1643921428912196e-06 6.509501482383918e-07 0.9999999999807883
  outer loop
    vertex 6.117958545684817 -45.05978775024413 -8.185148239135742
    vertex 9.667683601379395 -64.23490905761719 -8.185149192810059
    vertex 9.122979164123537 -44.3561668395996 -8.185148239135742
  endloop
endfacet
facet normal 6.1643921428912196e-06 6.509501482383918e-07 0.9999999999807883
  outer loop
    vertex 9.122979164123537 -44.3561668395996 -8.185148239135742
    vertex 9.667683601379395 -64.23490905761719 -8.185149192810059
    vertex 9.66768360137939 -4.6514062881469815 -8.185145378112793
  endloop
endfacet
facet normal 6.1643921428912196e-06 6.509501482383918e-07 0.9999999999807883
  outer loop
    vertex -9.489002227783205 -4.6514062881469815 -8.185145378112793
    vertex -8.944297790527346 -25.808317184448242 -8.18514633178711
    vertex 9.66768360137939 -4.6514062881469815 -8.185145378112793
  endloop
endfacet
facet normal 6.1643921428912196e-06 6.509501482383918e-07 0.9999999999807883
  outer loop
    vertex -8.944297790527346 -25.808317184448242 -8.18514633178711
    vertex -9.489002227783205 -4.6514062881469815 -8.185145378112793
    vertex -9.489002227783203 -44.3561668395996 -8.185148239135742
  endloop
endfacet
facet normal 6.1643921428912196e-06 6.509501482383918e-07 0.9999999999807883
  outer loop
    vertex -8.944297790527346 -25.808317184448242 -8.18514633178711
    vertex -9.489002227783203 -44.3561668395996 -8.185148239135742
    vertex -8.94430160522461 -44.3561668395996 -8.185148239135742
  endloop
endfacet
facet normal 6.1643921428912196e-06 6.509501482383918e-07 0.9999999999807883
  outer loop
    vertex 9.66768360137939 -4.6514062881469815 -8.185145378112793
    vertex -8.944297790527346 -25.808317184448242 -8.18514633178711
    vertex 9.122979164123532 -25.808317184448242 -8.18514633178711
  endloop
endfacet
facet normal 6.1643921428912196e-06 6.509501482383918e-07 0.9999999999807883
  outer loop
    vertex 9.66768360137939 -4.6514062881469815 -8.185145378112793
    vertex 9.122979164123532 -25.808317184448242 -8.18514633178711
    vertex 9.122979164123537 -44.3561668395996 -8.185148239135742
  endloop
endfacet
facet normal 6.1643921428912196e-06 6.509501482383918e-07 0.9999999999807883
  outer loop
    vertex -8.94430160522461 -44.3561668395996 -8.185148239135742
    vertex -5.922527313232421 -45.05978775024413 -8.185148239135742
    vertex 9.122979164123537 -44.3561668395996 -8.185148239135742
  endloop
endfacet
facet normal 6.1643921428912196e-06 6.509501482383918e-07 0.9999999999807883
  outer loop
    vertex -5.922527313232421 -45.05978775024413 -8.185148239135742
    vertex -8.94430160522461 -44.3561668395996 -8.185148239135742
    vertex -5.922527313232421 -51.96669387817382 -8.185148239135742
  endloop
endfacet
facet normal 6.1643921428912196e-06 6.509501482383918e-07 0.9999999999807883
  outer loop
    vertex 9.122979164123537 -44.3561668395996 -8.185148239135742
    vertex -5.922527313232421 -45.05978775024413 -8.185148239135742
    vertex 6.117958545684817 -45.05978775024413 -8.185148239135742
  endloop
endfacet
facet normal -1.0 0.0 0.0
  outer loop
    vertex -15.826318740844728 -26.351465225219723 7.62906789779663
    vertex -15.826318740844728 -29.00563049316406 -11.267010688781738
    vertex -15.826318740844728 -29.00563049316406 7.62906789779663
  endloop
endfacet
facet normal -1.0 0.0 0.0
  outer loop
    vertex -15.826318740844728 -29.00563049316406 -11.267010688781738
    vertex -15.826318740844728 -26.351465225219723 7.62906789779663
    vertex -15.826318740844728 -26.351465225219723 -11.26700973510742
  endloop
endfacet
facet normal 1.0 0.0 0.0
  outer loop
    vertex 15.89839172363281 -18.79333877563477 -11.26700973510742
    vertex 15.89839172363281 -21.536285400390625 7.629068374633786
    vertex 15.89839172363281 -21.536285400390625 -11.26700973510742
  endloop
endfacet
facet normal 1.0 0.0 0.0
  outer loop
    vertex 15.89839172363281 -21.536285400390625 7.629068374633786
    vertex 15.89839172363281 -18.79333877563477 -11.26700973510742
    vertex 15.89839172363281 -18.79333877563477 7.629068374633786
  endloop
endfacet
facet normal 0.0 -1.0 0.0
  outer loop
    vertex 9.122979164123532 -25.808317184448242 -8.18514633178711
    vertex -8.944297790527346 -25.808317184448242 -11.26700973510742
    vertex 9.122979164123532 -25.808317184448242 -11.26700973510742
  endloop
endfacet
facet normal 0.0 -1.0 0.0
  outer loop
    vertex -8.944297790527346 -25.808317184448242 -11.26700973510742
    vertex 9.122979164123532 -25.808317184448242 -8.18514633178711
    vertex -8.944297790527346 -25.808317184448242 -8.18514633178711
  endloop
endfacet
facet normal 1.0 0.0 0.0
  outer loop
    vertex 12.530535697937006 -4.6514062881469815 -11.267008781433105
    vertex 12.530535697937006 -18.79333877563477 7.629068374633786
    vertex 12.530535697937006 -18.79333877563477 -11.26700973510742
  endloop
endfacet
facet normal 1.0 0.0 0.0
  outer loop
    vertex 12.530535697937006 -18.79333877563477 7.629068374633786
    vertex 12.530535697937006 -4.6514062881469815 -11.267008781433105
    vertex 12.530535697937006 -4.651408195495607 7.629069805145261
  endloop
endfacet
facet normal -1.0 -3.8933475011273494e-11 -6.484516731596726e-10
  outer loop
    vertex 9.66768360137939 -28.321971893310547 7.62906789779663
    vertex 9.667683601379395 -64.23490905761719 -8.185149192810059
    vertex 9.667683601379395 -64.23490905761719 7.631312847137451
  endloop
endfacet
facet normal -1.0 -3.8933475011273494e-11 -6.484516731596726e-10
  outer loop
    vertex 9.667683601379395 -64.23490905761719 -8.185149192810059
    vertex 9.66768360137939 -28.321971893310547 7.62906789779663
    vertex 9.66768360137939 -4.6514062881469815 -8.185145378112793
  endloop
endfacet
facet normal -1.0 -3.8933475011273494e-11 -6.484516731596726e-10
  outer loop
    vertex 9.66768360137939 -4.6514062881469815 -8.185145378112793
    vertex 9.66768360137939 -28.321971893310547 7.62906789779663
    vertex 9.66768360137939 -4.651408195495607 7.629069805145261
  endloop
endfacet
facet normal 0.0 -1.0 0.0
  outer loop
    vertex 15.89839172363281 -21.536285400390625 7.629068374633786
    vertex 12.530535697937006 -21.536285400390625 -11.26700973510742
    vertex 15.89839172363281 -21.536285400390625 -11.26700973510742
  endloop
endfacet
facet normal 0.0 -1.0 0.0
  outer loop
    vertex 12.530535697937006 -21.536285400390625 -11.26700973510742
    vertex 15.89839172363281 -21.536285400390625 7.629068374633786
    vertex 12.530535697937006 -21.536285400390625 7.629068374633786
  endloop
endfacet
facet normal 0.0 1.0 0.0
  outer loop
    vertex 12.530535697937006 -18.79333877563477 7.629068374633786
    vertex 15.89839172363281 -18.79333877563477 -11.26700973510742
    vertex 12.530535697937006 -18.79333877563477 -11.26700973510742
  endloop
endfacet
facet normal 0.0 1.0 0.0
  outer loop
    vertex 15.89839172363281 -18.79333877563477 -11.26700973510742
    vertex 12.530535697937006 -18.79333877563477 7.629068374633786
    vertex 15.89839172363281 -18.79333877563477 7.629068374633786
  endloop
endfacet
facet normal -3.5233177600020024e-05 3.7787904017727175e-05 0.9999999986653487
  outer loop
    vertex -12.437836647033693 -29.00563049316406 7.62906789779663
    vertex -15.826318740844728 -26.351465225219723 7.62906789779663
    vertex -15.826318740844728 -29.00563049316406 7.62906789779663
  endloop
endfacet
facet normal -3.5233177600020024e-05 3.7787904017727175e-05 0.9999999986653487
  outer loop
    vertex -15.826318740844728 -26.351465225219723 7.62906789779663
    vertex -12.437836647033693 -29.00563049316406 7.62906789779663
    vertex -12.437836647033693 -26.351465225219723 7.62906789779663
  endloop
endfacet
facet normal -3.5233177600020024e-05 3.7787904017727175e-05 0.9999999986653487
  outer loop
    vertex -12.437836647033693 -26.351465225219723 7.62906789779663
    vertex -12.437836647033693 -29.00563049316406 7.62906789779663
    vertex -12.437836647033691 -64.23490905761719 7.631312847137451
  endloop
endfacet
facet normal -3.5233177600020024e-05 3.7787904017727175e-05 0.9999999986653487
  outer loop
    vertex -12.437836647033693 -26.351465225219723 7.62906789779663
    vertex -12.437836647033691 -64.23490905761719 7.631312847137451
    vertex -12.437836647033693 -21.536283493041992 7.629068374633786
  endloop
endfacet
facet normal -3.5233177600020024e-05 3.7787904017727175e-05 0.9999999986653487
  outer loop
    vertex -12.437836647033693 -21.536283493041992 7.629068374633786
    vertex -12.437836647033691 -64.23490905761719 7.631312847137451
    vertex -12.437836647033693 -18.79333877563477 7.629068374633786
  endloop
endfacet
facet normal -3.5233177600020024e-05 3.7787904017727175e-05 0.9999999986653487
  outer loop
    vertex -12.437836647033693 -18.79333877563477 7.629068374633786
    vertex -12.437836647033691 -64.23490905761719 7.631312847137451
    vertex -12.437836647033693 -4.651408195495607 7.629069805145261
  endloop
endfacet
facet normal -3.5233177600020024e-05 3.7787904017727175e-05 0.9999999986653487
  outer loop
    vertex -12.437836647033693 -4.651408195495607 7.629069805145261
    vertex -12.437836647033691 -64.23490905761719 7.631312847137451
    vertex -9.489002227783205 -4.651408195495607 7.629069805145261
  endloop
endfacet
facet normal -3.5233177600020024e-05 3.7787904017727175e-05 0.9999999986653487
  outer loop
    vertex -9.489002227783205 -4.651408195495607 7.629069805145261
    vertex -12.437836647033691 -64.23490905761719 7.631312847137451
    vertex -9.489002227783203 -64.23490905761719 7.631312847137451
  endloop
endfacet
facet normal -3.5233177600020024e-05 3.7787904017727175e-05 0.9999999986653487
  outer loop
    vertex -12.437836647033693 -21.536283493041992 7.629068374633786
    vertex -15.826318740844728 -18.79333877563477 7.629068374633786
    vertex -15.826318740844728 -21.536283493041992 7.629068374633786
  endloop
endfacet
facet normal -3.5233177600020024e-05 3.7787904017727175e-05 0.9999999986653487
  outer loop
    vertex -15.826318740844728 -18.79333877563477 7.629068374633786
    vertex -12.437836647033693 -21.536283493041992 7.629068374633786
    vertex -12.437836647033693 -18.79333877563477 7.629068374633786
  endloop
endfacet
facet normal 2.511953990935213e-15 1.0 4.477066411344718e-16
  outer loop
    vertex 12.530535697937006 -26.351465225219723 7.62906789779663
    vertex 15.89839172363281 -26.351465225219723 -11.26700973510742
    vertex 12.530535697937006 -26.35146522521971 -11.267010016550248
  endloop
endfacet
facet normal 2.511953990935213e-15 1.0 4.477066411344718e-16
  outer loop
    vertex 15.89839172363281 -26.351465225219723 -11.26700973510742
    vertex 12.530535697937006 -26.351465225219723 7.62906789779663
    vertex 15.89839172363281 -26.351465225219723 7.62906789779663
  endloop
endfacet
facet normal 0.0 -1.0 0.0
  outer loop
    vertex -12.437836647033693 -21.536283493041992 7.629068374633786
    vertex -15.826318740844728 -21.536283493041992 -11.26700973510742
    vertex -12.437836647033693 -21.536283493041992 -11.26700973510742
  endloop
endfacet
facet normal 0.0 -1.0 0.0
  outer loop
    vertex -15.826318740844728 -21.536283493041992 -11.26700973510742
    vertex -12.437836647033693 -21.536283493041992 7.629068374633786
    vertex -15.826318740844728 -21.536283493041992 7.629068374633786
  endloop
endfacet
facet normal -1.0 0.0 0.0
  outer loop
    vertex -12.437836647033693 -4.651408195495607 7.629069805145261
    vertex -12.437836647033693 -18.79333877563477 -11.26700973510742
    vertex -12.437836647033693 -18.79333877563477 7.629068374633786
  endloop
endfacet
facet normal -1.0 0.0 0.0
  outer loop
    vertex -12.437836647033693 -18.79333877563477 -11.26700973510742
    vertex -12.437836647033693 -4.651408195495607 7.629069805145261
    vertex -12.437836647033693 -4.6514062881469815 -11.267008781433105
  endloop
endfacet
endsolid Rotary_PushPull_Switch_Outer_case
