  0
SECTION
  2
HEADER
  9
$ACADVER
  1
AC1014
  9
$ACADMAINTVER
 70
     9
  9
$DWGCODEPAGE
  3
ANSI_1252
  9
$INSBASE
 10
0.0
 20
0.0
 30
0.0
  9
$EXTMIN
 10
1.000000000000000E+20
 20
1.000000000000000E+20
 30
1.000000000000000E+20
  9
$EXTMAX
 10
-1.000000000000000E+20
 20
-1.000000000000000E+20
 30
-1.000000000000000E+20
  9
$LIMMIN
 10
0.0
 20
0.0
  9
$LIMMAX
 10
12.0
 20
9.0
  9
$ORTHOMODE
 70
     0
  9
$REGENMODE
 70
     1
  9
$FILLMODE
 70
     1
  9
$QTEXTMODE
 70
     0
  9
$MIRRTEXT
 70
     1
  9
$DRAGMODE
 70
     2
  9
$LTSCALE
 40
25.4
  9
$OSMODE
 70
    37
  9
$ATTMODE
 70
     1
  9
$TEXTSIZE
 40
0.2
  9
$TRACEWID
 40
0.05
  9
$TEXTSTYLE
  7
STANDARD
  9
$CLAYER
  8
0
  9
$CELTYPE
  6
BYLAYER
  9
$CECOLOR
 62
   256
  9
$CELTSCALE
 40
1.0
  9
$DELOBJ
 70
     1
  9
$DISPSILH
 70
     0
  9
$DIMSCALE
 40
1.0
  9
$DIMASZ
 40
0.18
  9
$DIMEXO
 40
0.0625
  9
$DIMDLI
 40
0.38
  9
$DIMRND
 40
0.0
  9
$DIMDLE
 40
0.0
  9
$DIMEXE
 40
0.18
  9
$DIMTP
 40
0.0
  9
$DIMTM
 40
0.0
  9
$DIMTXT
 40
0.18
  9
$DIMCEN
 40
0.09
  9
$DIMTSZ
 40
0.0
  9
$DIMTOL
 70
     0
  9
$DIMLIM
 70
     0
  9
$DIMTIH
 70
     1
  9
$DIMTOH
 70
     1
  9
$DIMSE1
 70
     0
  9
$DIMSE2
 70
     0
  9
$DIMTAD
 70
     0
  9
$DIMZIN
 70
     0
  9
$DIMBLK
  1

  9
$DIMASO
 70
     1
  9
$DIMSHO
 70
     1
  9
$DIMPOST
  1

  9
$DIMAPOST
  1

  9
$DIMALT
 70
     0
  9
$DIMALTD
 70
     2
  9
$DIMALTF
 40
25.4
  9
$DIMLFAC
 40
1.0
  9
$DIMTOFL
 70
     0
  9
$DIMTVP
 40
0.0
  9
$DIMTIX
 70
     0
  9
$DIMSOXD
 70
     0
  9
$DIMSAH
 70
     0
  9
$DIMBLK1
  1

  9
$DIMBLK2
  1

  9
$DIMSTYLE
  2
STANDARD
  9
$DIMCLRD
 70
     0
  9
$DIMCLRE
 70
     0
  9
$DIMCLRT
 70
     0
  9
$DIMTFAC
 40
1.0
  9
$DIMGAP
 40
0.09
  9
$DIMJUST
 70
     0
  9
$DIMSD1
 70
     0
  9
$DIMSD2
 70
     0
  9
$DIMTOLJ
 70
     1
  9
$DIMTZIN
 70
     0
  9
$DIMALTZ
 70
     0
  9
$DIMALTTZ
 70
     0
  9
$DIMFIT
 70
     3
  9
$DIMUPT
 70
     0
  9
$DIMUNIT
 70
     2
  9
$DIMDEC
 70
     4
  9
$DIMTDEC
 70
     4
  9
$DIMALTU
 70
     2
  9
$DIMALTTD
 70
     2
  9
$DIMTXSTY
  7
STANDARD
  9
$DIMAUNIT
 70
     0
  9
$LUNITS
 70
     2
  9
$LUPREC
 70
     4
  9
$SKETCHINC
 40
0.1
  9
$FILLETRAD
 40
0.0
  9
$AUNITS
 70
     0
  9
$AUPREC
 70
     0
  9
$MENU
  1
.
  9
$ELEVATION
 40
0.0
  9
$PELEVATION
 40
0.0
  9
$THICKNESS
 40
0.0
  9
$LIMCHECK
 70
     0
  9
$CHAMFERA
 40
0.0
  9
$CHAMFERB
 40
0.0
  9
$CHAMFERC
 40
0.0
  9
$CHAMFERD
 40
0.0
  9
$SKPOLY
 70
     0
  9
$TDCREATE
 40
2460426.423306458
  9
$TDUPDATE
 40
2460426.423307211
  9
$TDINDWG
 40
0.0000000116
  9
$TDUSRTIMER
 40
0.0000000116
  9
$USRTIMER
 70
     1
  9
$ANGBASE
 50
0.0
  9
$ANGDIR
 70
     0
  9
$PDMODE
 70
     0
  9
$PDSIZE
 40
0.0
  9
$PLINEWID
 40
0.0
  9
$COORDS
 70
     1
  9
$SPLFRAME
 70
     0
  9
$SPLINETYPE
 70
     6
  9
$SPLINESEGS
 70
     8
  9
$ATTDIA
 70
     0
  9
$ATTREQ
 70
     1
  9
$HANDLING
 70
     1
  9
$HANDSEED
  5
4A0
  9
$SURFTAB1
 70
     6
  9
$SURFTAB2
 70
     6
  9
$SURFTYPE
 70
     6
  9
$SURFU
 70
     6
  9
$SURFV
 70
     6
  9
$UCSNAME
  2

  9
$UCSORG
 10
0.0
 20
0.0
 30
0.0
  9
$UCSXDIR
 10
1.0
 20
0.0
 30
0.0
  9
$UCSYDIR
 10
0.0
 20
1.0
 30
0.0
  9
$PUCSNAME
  2

  9
$PUCSORG
 10
0.0
 20
0.0
 30
0.0
  9
$PUCSXDIR
 10
1.0
 20
0.0
 30
0.0
  9
$PUCSYDIR
 10
0.0
 20
1.0
 30
0.0
  9
$USERI1
 70
     0
  9
$USERI2
 70
     0
  9
$USERI3
 70
     0
  9
$USERI4
 70
     0
  9
$USERI5
 70
     0
  9
$USERR1
 40
0.0
  9
$USERR2
 40
0.0
  9
$USERR3
 40
0.0
  9
$USERR4
 40
0.0
  9
$USERR5
 40
0.0
  9
$WORLDVIEW
 70
     1
  9
$SHADEDGE
 70
     3
  9
$SHADEDIF
 70
    70
  9
$TILEMODE
 70
     1
  9
$MAXACTVP
 70
    64
  9
$PINSBASE
 10
0.0
 20
0.0
 30
0.0
  9
$PLIMCHECK
 70
     0
  9
$PEXTMIN
 10
1.000000000000000E+20
 20
1.000000000000000E+20
 30
1.000000000000000E+20
  9
$PEXTMAX
 10
-1.000000000000000E+20
 20
-1.000000000000000E+20
 30
-1.000000000000000E+20
  9
$PLIMMIN
 10
0.0
 20
0.0
  9
$PLIMMAX
 10
12.0
 20
9.0
  9
$UNITMODE
 70
     0
  9
$VISRETAIN
 70
     1
  9
$PLINEGEN
 70
     0
  9
$PSLTSCALE
 70
     1
  9
$TREEDEPTH
 70
  3020
  9
$PICKSTYLE
 70
     1
  9
$CMLSTYLE
  2
STANDARD
  9
$CMLJUST
 70
     0
  9
$CMLSCALE
 40
1.0
  9
$PROXYGRAPHICS
 70
     1
  9
$MEASUREMENT
 70
     1
  0
ENDSEC
  0
SECTION
  2
CLASSES
  0
CLASS
  1
ACDBDICTIONARYWDFLT
  2
AcDbDictionaryWithDefault
  3
ObjectDBX Classes
 90
        0
280
     0
281
     0
  0
CLASS
  1
VISUALSTYLE
  2
AcDbVisualStyle
  3
ObjectDBX Classes
 90
     4095
280
     0
281
     0
  0
CLASS
  1
MATERIAL
  2
AcDbMaterial
  3
ObjectDBX Classes
 90
     1153
280
     0
281
     0
  0
CLASS
  1
SCALE
  2
AcDbScale
  3
ObjectDBX Classes
 90
     1153
280
     0
281
     0
  0
CLASS
  1
TABLESTYLE
  2
AcDbTableStyle
  3
ObjectDBX Classes
 90
     4095
280
     0
281
     0
  0
CLASS
  1
MLEADERSTYLE
  2
AcDbMLeaderStyle
  3
ACDB_MLEADERSTYLE_CLASS
 90
     4095
280
     0
281
     0
  0
CLASS
  1
SUN
  2
AcDbSun
  3
SCENEOE
 90
     1153
280
     0
281
     0
  0
CLASS
  1
DICTIONARYVAR
  2
AcDbDictionaryVar
  3
ObjectDBX Classes
 90
        0
280
     0
281
     0
  0
CLASS
  1
XRECORD
  2
AcDbXrecord
  3
ObjectDBX Classes
 90
        0
280
     0
281
     0
  0
CLASS
  1
LWPOLYLINE
  2
AcDbPolyline
  3
ObjectDBX Classes
 90
        0
280
     0
281
     1
  0
CLASS
  1
HATCH
  2
AcDbHatch
  3
ObjectDBX Classes
 90
        0
280
     0
281
     1
  0
CLASS
  1
ACDBPLACEHOLDER
  2
AcDbPlaceHolder
  3
ObjectDBX Classes
 90
        0
280
     0
281
     0
  0
CLASS
  1
LAYOUT
  2
AcDbLayout
  3
ObjectDBX Classes
 90
        0
280
     0
281
     0
  0
ENDSEC
  0
SECTION
  2
TABLES
  0
TABLE
  2
VPORT
  5
8
102
{ACAD_XDICTIONARY
360
495
102
}
330
0
100
AcDbSymbolTable
 70
     1
  0
VPORT
  5
29
330
8
100
AcDbSymbolTableRecord
100
AcDbViewportTableRecord
  2
*ACTIVE
 70
     0
 10
0.0
 20
0.0
 11
1.0
 21
1.0
 12
0.0
 22
0.0
 13
0.0
 23
0.0
 14
0.5
 24
0.5
 15
0.5
 25
0.5
 16
-0.4321472013474128
 26
-0.8981442292783193
 36
0.08115257101073599
 17
8.735805372695978
 27
9.28707486025857
 37
10.19146790175377
 40
63.03879212834422
 41
1.3333
 42
42.81760027191017
 43
-74.56675273075578
 44
25300.03324726924
 50
0.0
 51
0.0
 71
     1
 72
   100
 73
     1
 74
     3
 75
     0
 76
     0
 77
     0
 78
     0
  0
ENDTAB
  0
TABLE
  2
LTYPE
  5
5
330
0
100
AcDbSymbolTable
 70
     1
  0
LTYPE
  5
14
330
5
100
AcDbSymbolTableRecord
100
AcDbLinetypeTableRecord
  2
BYBLOCK
 70
     0
  3

 72
    65
 73
     0
 40
0.0
  0
LTYPE
  5
15
330
5
100
AcDbSymbolTableRecord
100
AcDbLinetypeTableRecord
  2
BYLAYER
 70
     0
  3

 72
    65
 73
     0
 40
0.0
  0
LTYPE
  5
16
330
5
100
AcDbSymbolTableRecord
100
AcDbLinetypeTableRecord
  2
CONTINUOUS
 70
     0
  3
Solid line
 72
    65
 73
     0
 40
0.0
  0
ENDTAB
  0
TABLE
  2
LAYER
  5
2
330
0
100
AcDbSymbolTable
 70
     1
  0
LAYER
  5
10
330
2
100
AcDbSymbolTableRecord
100
AcDbLayerTableRecord
  2
0
 70
     0
 62
     7
  6
CONTINUOUS
  0
ENDTAB
  0
TABLE
  2
STYLE
  5
3
330
0
100
AcDbSymbolTable
 70
     2
  0
STYLE
  5
11
330
3
100
AcDbSymbolTableRecord
100
AcDbTextStyleTableRecord
  2
STANDARD
 70
     0
 40
0.0
 41
1.0
 50
0.0
 71
     0
 42
0.2
  3
txt
  4

  0
STYLE
  5
5E
330
3
100
AcDbSymbolTableRecord
100
AcDbTextStyleTableRecord
  2
TAHOMA
 70
     0
 40
0.0
 41
1.0
 50
0.0
 71
     0
 42
0.2
  3

  4

1001
ACAD
1000
Tahoma
1071
       34
  0
ENDTAB
  0
TABLE
  2
VIEW
  5
6
330
0
100
AcDbSymbolTable
 70
     0
  0
ENDTAB
  0
TABLE
  2
UCS
  5
7
330
0
100
AcDbSymbolTable
 70
     0
  0
ENDTAB
  0
TABLE
  2
APPID
  5
9
330
0
100
AcDbSymbolTable
 70
     3
  0
APPID
  5
12
330
9
100
AcDbSymbolTableRecord
100
AcDbRegAppTableRecord
  2
ACAD
 70
     0
  0
APPID
  5
63
330
9
100
AcDbSymbolTableRecord
100
AcDbRegAppTableRecord
  2
ACAD_MATERIAL_MAPPER
 70
     0
  0
APPID
  5
49F
330
9
100
AcDbSymbolTableRecord
100
AcDbRegAppTableRecord
  2
ACAD_MLEADERVER
 70
     0
  0
ENDTAB
  0
TABLE
  2
DIMSTYLE
  5
A
330
0
100
AcDbSymbolTable
 70
     2
  0
DIMSTYLE
105
27
330
A
100
AcDbSymbolTableRecord
100
AcDbDimStyleTableRecord
  2
STANDARD
 70
     0
  3

  4

  5

  6

  7

 40
1.0
 41
0.18
 42
0.0625
 43
0.38
 44
0.18
 45
0.0
 46
0.0
 47
0.0
 48
0.0
140
0.18
141
0.09
142
0.0
143
25.4
144
1.0
145
0.0
146
1.0
147
0.09
 71
     0
 72
     0
 73
     1
 74
     1
 75
     0
 76
     0
 77
     0
 78
     0
170
     0
171
     2
172
     0
173
     0
174
     0
175
     0
176
     0
177
     0
178
     0
270
     2
271
     4
272
     4
273
     2
274
     2
340
11
275
     0
280
     0
281
     0
282
     0
283
     1
284
     0
285
     0
286
     0
287
     3
288
     0
  0
DIMSTYLE
105
5F
330
A
100
AcDbSymbolTableRecord
100
AcDbDimStyleTableRecord
  2
DIMENSIONS
 70
     0
  3
mm
  4

  5

  6

  7

 40
1.0
 41
12.7
 42
12.7
 43
0.38
 44
12.7
 45
0.0
 46
0.0
 47
0.0
 48
0.0
140
25.4
141
0.09
142
0.0
143
25.4
144
1.0
145
0.0
146
1.0
147
2.54
 71
     0
 72
     0
 73
     1
 74
     1
 75
     0
 76
     0
 77
     0
 78
     0
170
     0
171
     2
172
     0
173
     0
174
     0
175
     0
176
     0
177
     0
178
     0
270
     2
271
     1
272
     4
273
     2
274
     2
340
5E
275
     0
280
     0
281
     0
282
     0
283
     1
284
     0
285
     0
286
     0
287
     3
288
     0
  0
ENDTAB
  0
TABLE
  2
BLOCK_RECORD
  5
1
330
0
100
AcDbSymbolTable
 70
     1
  0
BLOCK_RECORD
  5
1F
330
1
100
AcDbSymbolTableRecord
100
AcDbBlockTableRecord
  2
*MODEL_SPACE
  0
BLOCK_RECORD
  5
1B
330
1
100
AcDbSymbolTableRecord
100
AcDbBlockTableRecord
  2
*PAPER_SPACE
  0
BLOCK_RECORD
  5
60
330
1
100
AcDbSymbolTableRecord
100
AcDbBlockTableRecord
  2
GRUPPO_1
  0
ENDTAB
  0
ENDSEC
  0
SECTION
  2
BLOCKS
  0
BLOCK
  5
20
330
1F
100
AcDbEntity
  8
0
100
AcDbBlockBegin
  2
*MODEL_SPACE
 70
     0
 10
0.0
 20
0.0
 30
0.0
  3
*MODEL_SPACE
  1

  0
ENDBLK
  5
21
330
1F
100
AcDbEntity
  8
0
100
AcDbBlockEnd
  0
BLOCK
  5
1C
330
1B
100
AcDbEntity
 67
     1
  8
0
100
AcDbBlockBegin
  2
*PAPER_SPACE
 70
     0
 10
0.0
 20
0.0
 30
0.0
  3
*PAPER_SPACE
  1

  0
ENDBLK
  5
1D
330
1B
100
AcDbEntity
 67
     1
  8
0
100
AcDbBlockEnd
  0
BLOCK
  5
61
330
60
100
AcDbEntity
  8
0
100
AcDbBlockBegin
  2
GRUPPO_1
 70
     0
 10
0.0
 20
0.0
 30
0.0
  3
GRUPPO_1
  1

  0
POLYLINE
  5
64
330
60
100
AcDbEntity
  8
0
 62
     0
100
AcDbPolyFaceMesh
 66
     1
 10
0.0
 20
0.0
 30
0.0
 70
    64
 71
     9
 72
     7
1001
ACAD_MATERIAL_MAPPER
1070
     1
1070
     1
1070
     1
1011
0.0
1021
0.0
1031
0.0000000000000358
1011
25.4
1021
0.0
1031
0.0000000000000358
1011
0.0
1021
0.0
1031
25.40000000000004
1011
0.0
1021
1.0
1031
0.0000000000000358
  0
VERTEX
  5
65
330
64
100
AcDbEntity
  8
0
 62
     0
100
AcDbVertex
100
AcDbPolyFaceMeshVertex
 10
2.0
 20
6.0
 30
17.5
 70
   192
  0
VERTEX
  5
66
330
64
100
AcDbEntity
  8
0
 62
     0
100
AcDbVertex
100
AcDbPolyFaceMeshVertex
 10
0.9999999999999981
 20
6.0
 30
16.5
 70
   192
  0
VERTEX
  5
67
330
64
100
AcDbEntity
  8
0
 62
     0
100
AcDbVertex
100
AcDbPolyFaceMeshVertex
 10
3.0
 20
6.0
 30
16.5
 70
   192
  0
VERTEX
  5
68
330
64
100
AcDbEntity
  8
0
 62
     0
100
AcDbVertex
100
AcDbPolyFaceMeshVertex
 10
0.0
 20
6.0
 30
0.0000000000000014
 70
   192
  0
VERTEX
  5
69
330
64
100
AcDbEntity
  8
0
 62
     0
100
AcDbVertex
100
AcDbPolyFaceMeshVertex
 10
0.9999999999999981
 20
6.0
 30
1.000000000000001
 70
   192
  0
VERTEX
  5
6A
330
64
100
AcDbEntity
  8
0
 62
     0
100
AcDbVertex
100
AcDbPolyFaceMeshVertex
 10
0.0
 20
6.0
 30
17.5
 70
   192
  0
VERTEX
  5
6B
330
64
100
AcDbEntity
  8
0
 62
     0
100
AcDbVertex
100
AcDbPolyFaceMeshVertex
 10
2.01068025126211
 20
6.0
 30
0.0094223597734164
 70
   192
  0
VERTEX
  5
6C
330
64
100
AcDbEntity
  8
0
 62
     0
100
AcDbVertex
100
AcDbPolyFaceMeshVertex
 10
2.505025253540073
 20
6.0
 30
0.5050252535410169
 70
   192
  0
VERTEX
  5
6D
330
64
100
AcDbEntity
  8
0
 62
     0
100
AcDbVertex
100
AcDbPolyFaceMeshVertex
 10
3.0
 20
6.0
 30
1.000000000000001
 70
   192
  0
VERTEX
  5
6E
330
64
100
AcDbEntity
  8
0
 62
     0
100
AcDbFaceRecord
 10
0.0
 20
0.0
 30
0.0
 70
   128
 71
    -1
 72
     2
 73
     3
  0
VERTEX
  5
6F
330
64
100
AcDbEntity
  8
0
 62
     0
100
AcDbFaceRecord
 10
0.0
 20
0.0
 30
0.0
 70
   128
 71
    -4
 72
    -5
 73
     6
  0
VERTEX
  5
70
330
64
100
AcDbEntity
  8
0
 62
     0
100
AcDbFaceRecord
 10
0.0
 20
0.0
 30
0.0
 70
   128
 71
    -5
 72
     4
 73
    -7
  0
VERTEX
  5
71
330
64
100
AcDbEntity
  8
0
 62
     0
100
AcDbFaceRecord
 10
0.0
 20
0.0
 30
0.0
 70
   128
 71
    -5
 72
     7
 73
    -8
  0
VERTEX
  5
72
330
64
100
AcDbEntity
  8
0
 62
     0
100
AcDbFaceRecord
 10
0.0
 20
0.0
 30
0.0
 70
   128
 71
    -5
 72
     8
 73
     9
  0
VERTEX
  5
73
330
64
100
AcDbEntity
  8
0
 62
     0
100
AcDbFaceRecord
 10
0.0
 20
0.0
 30
0.0
 70
   128
 71
    -6
 72
     5
 73
    -2
  0
VERTEX
  5
74
330
64
100
AcDbEntity
  8
0
 62
     0
100
AcDbFaceRecord
 10
0.0
 20
0.0
 30
0.0
 70
   128
 71
    -6
 72
    -2
 73
     1
  0
SEQEND
  5
75
330
64
100
AcDbEntity
  8
0
 62
     0
  0
LINE
  5
76
330
60
100
AcDbEntity
  8
0
 62
     0
100
AcDbLine
 10
0.9999999999999981
 20
6.0
 30
16.5
 11
3.0
 21
6.0
 31
16.5
  0
LINE
  5
77
330
60
100
AcDbEntity
  8
0
 62
     0
100
AcDbLine
 10
2.0
 20
6.0
 30
17.5
 11
3.0
 21
6.0
 31
16.5
  0
LINE
  5
78
330
60
100
AcDbEntity
  8
0
 62
     0
100
AcDbLine
 10
2.0
 20
6.0
 30
17.5
 11
0.0
 21
6.0
 31
17.5
  0
LINE
  5
79
330
60
100
AcDbEntity
  8
0
 62
     0
100
AcDbLine
 10
0.0
 20
6.0
 30
17.5
 11
0.0
 21
6.0
 31
0.0000000000000014
  0
LINE
  5
7A
330
60
100
AcDbEntity
  8
0
 62
     0
100
AcDbLine
 10
0.0
 20
6.0
 30
0.0000000000000014
 11
2.01068025126211
 21
6.0
 31
0.0094223597734164
  0
LINE
  5
7B
330
60
100
AcDbEntity
  8
0
 62
     0
100
AcDbLine
 10
2.505025253540073
 20
6.0
 30
0.5050252535410169
 11
2.01068025126211
 21
6.0
 31
0.0094223597734164
  0
LINE
  5
7C
330
60
100
AcDbEntity
  8
0
 62
     0
100
AcDbLine
 10
3.0
 20
6.0
 30
1.000000000000001
 11
2.505025253540073
 21
6.0
 31
0.5050252535410169
  0
LINE
  5
7D
330
60
100
AcDbEntity
  8
0
 62
     0
100
AcDbLine
 10
3.0
 20
6.0
 30
1.000000000000001
 11
0.9999999999999981
 21
6.0
 31
1.000000000000001
  0
LINE
  5
7E
330
60
100
AcDbEntity
  8
0
 62
     0
100
AcDbLine
 10
0.9999999999999981
 20
6.0
 30
1.000000000000001
 11
0.9999999999999981
 21
6.0
 31
16.5
  0
POLYLINE
  5
7F
330
60
100
AcDbEntity
  8
0
 62
     0
100
AcDbPolyFaceMesh
 66
     1
 10
0.0
 20
0.0
 30
0.0
 70
    64
 71
     4
 72
     2
1001
ACAD_MATERIAL_MAPPER
1070
     1
1070
     1
1070
     1
1011
0.0
1021
0.0
1031
0.0
1011
1.0
1021
0.0
1031
0.0
1011
0.0
1021
1.0
1031
0.0
1011
0.0
1021
0.0
1031
1.0
  0
VERTEX
  5
80
330
7F
100
AcDbEntity
  8
0
 62
     0
100
AcDbVertex
100
AcDbPolyFaceMeshVertex
 10
9.810660171779816
 20
18.0
 30
7.68933982822018
 70
   192
  0
VERTEX
  5
81
330
7F
100
AcDbEntity
  8
0
 62
     0
100
AcDbVertex
100
AcDbPolyFaceMeshVertex
 10
9.499999999999995
 20
16.5
 30
7.450961894323342
 70
   192
  0
VERTEX
  5
82
330
7F
100
AcDbEntity
  8
0
 62
     0
100
AcDbVertex
100
AcDbPolyFaceMeshVertex
 10
9.499999999999995
 20
18.0
 30
7.450961894323342
 70
   192
  0
VERTEX
  5
83
330
7F
100
AcDbEntity
  8
0
 62
     0
100
AcDbVertex
100
AcDbPolyFaceMeshVertex
 10
9.810660171779816
 20
16.5
 30
7.68933982822018
 70
   192
  0
VERTEX
  5
84
330
7F
100
AcDbEntity
  8
0
 62
     0
100
AcDbFaceRecord
 10
0.0
 20
0.0
 30
0.0
 70
   128
 71
    -1
 72
     2
 73
     3
  0
VERTEX
  5
85
330
7F
100
AcDbEntity
  8
0
 62
     0
100
AcDbFaceRecord
 10
0.0
 20
0.0
 30
0.0
 70
   128
 71
    -2
 72
     1
 73
     4
  0
SEQEND
  5
86
330
7F
100
AcDbEntity
  8
0
 62
     0
  0
ARC
  5
87
330
60
100
AcDbEntity
  8
0
 62
     0
100
AcDbCircle
 10
8.749999999999995
 20
8.75
 30
-18.0
 40
1.500000000000001
210
0.0
220
-1.0
230
0.0
100
AcDbArc
 50
199.6202859532824
 51
340.3797140467175
  0
LINE
  5
88
330
60
100
AcDbEntity
  8
0
 62
     0
100
AcDbLine
 10
9.810660171779816
 20
18.0
 30
7.68933982822018
 11
9.810660171779816
 21
16.5
 31
7.68933982822018
  0
ARC
  5
89
330
60
100
AcDbEntity
  8
0
 62
     0
100
AcDbCircle
 10
8.749999999999995
 20
8.75
 30
-16.5
 40
1.499999999999999
210
0.0
220
-1.0
230
0.0
100
AcDbArc
 50
199.6202859532824
 51
340.3797140467175
  0
LINE
  5
8A
330
60
100
AcDbEntity
  8
0
 62
     0
100
AcDbLine
 10
9.499999999999995
 20
18.0
 30
7.450961894323342
 11
9.499999999999995
 21
16.5
 31
7.450961894323342
  0
POLYLINE
  5
8B
330
60
100
AcDbEntity
  8
0
 62
     0
100
AcDbPolyFaceMesh
 66
     1
 10
0.0
 20
0.0
 30
0.0
 70
    64
 71
    12
 72
    10
1001
ACAD_MATERIAL_MAPPER
1070
     1
1070
     1
1070
     1
1011
0.0000000000000002
1021
0.0000000000000001
1031
0.0
1011
25.4
1021
0.0000000000000001
1031
0.0
1011
0.0000000000000002
1021
25.4
1031
0.0
1011
0.0000000000000002
1021
0.0000000000000001
1031
1.0
  0
VERTEX
  5
8C
330
8B
100
AcDbEntity
  8
0
 62
     0
100
AcDbVertex
100
AcDbPolyFaceMeshVertex
 10
16.5
 20
-0.4999999999999998
 30
16.5
 70
   192
  0
VERTEX
  5
8D
330
8B
100
AcDbEntity
  8
0
 62
     0
100
AcDbVertex
100
AcDbPolyFaceMeshVertex
 10
0.9999999999999981
 20
6.0
 30
16.5
 70
   192
  0
VERTEX
  5
8E
330
8B
100
AcDbEntity
  8
0
 62
     0
100
AcDbVertex
100
AcDbPolyFaceMeshVertex
 10
0.9999999999999981
 20
-0.4999999999999998
 30
16.5
 70
   192
  0
VERTEX
  5
8F
330
8B
100
AcDbEntity
  8
0
 62
     0
100
AcDbVertex
100
AcDbPolyFaceMeshVertex
 10
3.0
 20
6.0
 30
16.5
 70
   192
  0
VERTEX
  5
90
330
8B
100
AcDbEntity
  8
0
 62
     0
100
AcDbVertex
100
AcDbPolyFaceMeshVertex
 10
4.999999999999999
 20
6.0
 30
16.5
 70
   192
  0
VERTEX
  5
91
330
8B
100
AcDbEntity
  8
0
 62
     0
100
AcDbVertex
100
AcDbPolyFaceMeshVertex
 10
3.0
 20
22.8
 30
16.5
 70
   192
  0
VERTEX
  5
92
330
8B
100
AcDbEntity
  8
0
 62
     0
100
AcDbVertex
100
AcDbPolyFaceMeshVertex
 10
12.5
 20
6.0
 30
16.5
 70
   192
  0
VERTEX
  5
93
330
8B
100
AcDbEntity
  8
0
 62
     0
100
AcDbVertex
100
AcDbPolyFaceMeshVertex
 10
14.5
 20
6.0
 30
16.5
 70
   192
  0
VERTEX
  5
94
330
8B
100
AcDbEntity
  8
0
 62
     0
100
AcDbVertex
100
AcDbPolyFaceMeshVertex
 10
12.5
 20
22.8
 30
16.5
 70
   192
  0
VERTEX
  5
95
330
8B
100
AcDbEntity
  8
0
 62
     0
100
AcDbVertex
100
AcDbPolyFaceMeshVertex
 10
16.5
 20
6.0
 30
16.5
 70
   192
  0
VERTEX
  5
96
330
8B
100
AcDbEntity
  8
0
 62
     0
100
AcDbVertex
100
AcDbPolyFaceMeshVertex
 10
14.5
 20
22.8
 30
16.5
 70
   192
  0
VERTEX
  5
97
330
8B
100
AcDbEntity
  8
0
 62
     0
100
AcDbVertex
100
AcDbPolyFaceMeshVertex
 10
4.999999999999999
 20
22.8
 30
16.5
 70
   192
  0
VERTEX
  5
98
330
8B
100
AcDbEntity
  8
0
 62
     0
100
AcDbFaceRecord
 10
0.0
 20
0.0
 30
0.0
 70
   128
 71
    -1
 72
     2
 73
     3
  0
VERTEX
  5
99
330
8B
100
AcDbEntity
  8
0
 62
     0
100
AcDbFaceRecord
 10
0.0
 20
0.0
 30
0.0
 70
   128
 71
    -2
 72
    -1
 73
     4
  0
VERTEX
  5
9A
330
8B
100
AcDbEntity
  8
0
 62
     0
100
AcDbFaceRecord
 10
0.0
 20
0.0
 30
0.0
 70
   128
 71
    -4
 72
    -1
 73
    -5
  0
VERTEX
  5
9B
330
8B
100
AcDbEntity
  8
0
 62
     0
100
AcDbFaceRecord
 10
0.0
 20
0.0
 30
0.0
 70
   128
 71
    -4
 72
    -5
 73
     6
  0
VERTEX
  5
9C
330
8B
100
AcDbEntity
  8
0
 62
     0
100
AcDbFaceRecord
 10
0.0
 20
0.0
 30
0.0
 70
   128
 71
    -5
 72
    -1
 73
     7
  0
VERTEX
  5
9D
330
8B
100
AcDbEntity
  8
0
 62
     0
100
AcDbFaceRecord
 10
0.0
 20
0.0
 30
0.0
 70
   128
 71
    -7
 72
    -1
 73
    -8
  0
VERTEX
  5
9E
330
8B
100
AcDbEntity
  8
0
 62
     0
100
AcDbFaceRecord
 10
0.0
 20
0.0
 30
0.0
 70
   128
 71
    -7
 72
    -8
 73
     9
  0
VERTEX
  5
9F
330
8B
100
AcDbEntity
  8
0
 62
     0
100
AcDbFaceRecord
 10
0.0
 20
0.0
 30
0.0
 70
   128
 71
    -8
 72
     1
 73
    10
  0
VERTEX
  5
A0
330
8B
100
AcDbEntity
  8
0
 62
     0
100
AcDbFaceRecord
 10
0.0
 20
0.0
 30
0.0
 70
   128
 71
    11
 72
    -9
 73
     8
  0
VERTEX
  5
A1
330
8B
100
AcDbEntity
  8
0
 62
     0
100
AcDbFaceRecord
 10
0.0
 20
0.0
 30
0.0
 70
   128
 71
    12
 72
    -6
 73
     5
  0
SEQEND
  5
A2
330
8B
100
AcDbEntity
  8
0
 62
     0
  0
LINE
  5
A3
330
60
100
AcDbEntity
  8
0
 62
     0
100
AcDbLine
 10
12.5
 20
6.0
 30
16.5
 11
12.5
 21
22.8
 31
16.5
  0
LINE
  5
A4
330
60
100
AcDbEntity
  8
0
 62
     0
100
AcDbLine
 10
4.999999999999999
 20
6.0
 30
16.5
 11
12.5
 21
6.0
 31
16.5
  0
LINE
  5
A5
330
60
100
AcDbEntity
  8
0
 62
     0
100
AcDbLine
 10
4.999999999999999
 20
6.0
 30
16.5
 11
4.999999999999999
 21
22.8
 31
16.5
  0
LINE
  5
A6
330
60
100
AcDbEntity
  8
0
 62
     0
100
AcDbLine
 10
3.0
 20
22.8
 30
16.5
 11
4.999999999999999
 21
22.8
 31
16.5
  0
LINE
  5
A7
330
60
100
AcDbEntity
  8
0
 62
     0
100
AcDbLine
 10
3.0
 20
6.0
 30
16.5
 11
3.0
 21
22.8
 31
16.5
  0
LINE
  5
A8
330
60
100
AcDbEntity
  8
0
 62
     0
100
AcDbLine
 10
0.9999999999999981
 20
6.0
 30
16.5
 11
3.0
 21
6.0
 31
16.5
  0
LINE
  5
A9
330
60
100
AcDbEntity
  8
0
 62
     0
100
AcDbLine
 10
0.9999999999999981
 20
-0.4999999999999998
 30
16.5
 11
0.9999999999999981
 21
6.0
 31
16.5
  0
LINE
  5
AA
330
60
100
AcDbEntity
  8
0
 62
     0
100
AcDbLine
 10
16.5
 20
-0.4999999999999998
 30
16.5
 11
0.9999999999999981
 21
-0.4999999999999998
 31
16.5
  0
LINE
  5
AB
330
60
100
AcDbEntity
  8
0
 62
     0
100
AcDbLine
 10
16.5
 20
-0.4999999999999998
 30
16.5
 11
16.5
 21
6.0
 31
16.5
  0
LINE
  5
AC
330
60
100
AcDbEntity
  8
0
 62
     0
100
AcDbLine
 10
14.5
 20
6.0
 30
16.5
 11
16.5
 21
6.0
 31
16.5
  0
LINE
  5
AD
330
60
100
AcDbEntity
  8
0
 62
     0
100
AcDbLine
 10
14.5
 20
6.0
 30
16.5
 11
14.5
 21
22.8
 31
16.5
  0
LINE
  5
AE
330
60
100
AcDbEntity
  8
0
 62
     0
100
AcDbLine
 10
12.5
 20
22.8
 30
16.5
 11
14.5
 21
22.8
 31
16.5
  0
POLYLINE
  5
AF
330
60
100
AcDbEntity
  8
0
 62
     0
100
AcDbPolyFaceMesh
 66
     1
 10
0.0
 20
0.0
 30
0.0
 70
    64
 71
     4
 72
     2
1001
ACAD_MATERIAL_MAPPER
1070
     1
1070
     1
1070
     1
1011
0.0
1021
0.0
1031
0.0
1011
1.0
1021
0.0
1031
0.0
1011
0.0
1021
1.0
1031
0.0
1011
0.0
1021
0.0
1031
1.0
  0
VERTEX
  5
B0
330
AF
100
AcDbEntity
  8
0
 62
     0
100
AcDbVertex
100
AcDbPolyFaceMeshVertex
 10
7.999999999999996
 20
18.0
 30
7.450961894323344
 70
   192
  0
VERTEX
  5
B1
330
AF
100
AcDbEntity
  8
0
 62
     0
100
AcDbVertex
100
AcDbPolyFaceMeshVertex
 10
7.689339828220174
 20
16.5
 30
7.68933982822018
 70
   192
  0
VERTEX
  5
B2
330
AF
100
AcDbEntity
  8
0
 62
     0
100
AcDbVertex
100
AcDbPolyFaceMeshVertex
 10
7.689339828220174
 20
18.0
 30
7.68933982822018
 70
   192
  0
VERTEX
  5
B3
330
AF
100
AcDbEntity
  8
0
 62
     0
100
AcDbVertex
100
AcDbPolyFaceMeshVertex
 10
7.999999999999996
 20
16.5
 30
7.450961894323344
 70
   192
  0
VERTEX
  5
B4
330
AF
100
AcDbEntity
  8
0
 62
     0
100
AcDbFaceRecord
 10
0.0
 20
0.0
 30
0.0
 70
   128
 71
    -1
 72
     2
 73
     3
  0
VERTEX
  5
B5
330
AF
100
AcDbEntity
  8
0
 62
     0
100
AcDbFaceRecord
 10
0.0
 20
0.0
 30
0.0
 70
   128
 71
    -2
 72
     1
 73
     4
  0
SEQEND
  5
B6
330
AF
100
AcDbEntity
  8
0
 62
     0
  0
ARC
  5
B7
330
60
100
AcDbEntity
  8
0
 62
     0
100
AcDbCircle
 10
8.749999999999995
 20
8.75
 30
-18.0
 40
1.500000000000001
210
0.0
220
-1.0
230
0.0
100
AcDbArc
 50
199.6202859532824
 51
340.3797140467175
  0
LINE
  5
B8
330
60
100
AcDbEntity
  8
0
 62
     0
100
AcDbLine
 10
7.999999999999996
 20
18.0
 30
7.450961894323344
 11
7.999999999999996
 21
16.5
 31
7.450961894323344
  0
ARC
  5
B9
330
60
100
AcDbEntity
  8
0
 62
     0
100
AcDbCircle
 10
8.749999999999995
 20
8.75
 30
-16.5
 40
1.499999999999999
210
0.0
220
-1.0
230
0.0
100
AcDbArc
 50
199.6202859532824
 51
340.3797140467175
  0
LINE
  5
BA
330
60
100
AcDbEntity
  8
0
 62
     0
100
AcDbLine
 10
7.689339828220174
 20
18.0
 30
7.68933982822018
 11
7.689339828220174
 21
16.5
 31
7.68933982822018
  0
POLYLINE
  5
BB
330
60
100
AcDbEntity
  8
0
 62
     0
100
AcDbPolyFaceMesh
 66
     1
 10
0.0
 20
0.0
 30
0.0
 70
    64
 71
     4
 72
     2
1001
ACAD_MATERIAL_MAPPER
1070
     1
1070
     1
1070
     1
1011
0.0000000000000009
1021
-0.0000000000000001
1031
0.0
1011
25.4
1021
-0.0000000000000001
1031
0.0
1011
0.0000000000000009
1021
25.4
1031
0.0
1011
0.0000000000000009
1021
-0.0000000000000001
1031
1.0
  0
VERTEX
  5
BC
330
BB
100
AcDbEntity
  8
0
 62
     0
100
AcDbVertex
100
AcDbPolyFaceMeshVertex
 10
15.5
 20
-0.4999999999999998
 30
2.0
 70
   192
  0
VERTEX
  5
BD
330
BB
100
AcDbEntity
  8
0
 62
     0
100
AcDbVertex
100
AcDbPolyFaceMeshVertex
 10
1.999999999999996
 20
22.8
 30
2.000000000000002
 70
   192
  0
VERTEX
  5
BE
330
BB
100
AcDbEntity
  8
0
 62
     0
100
AcDbVertex
100
AcDbPolyFaceMeshVertex
 10
1.999999999999996
 20
-0.4999999999999998
 30
2.000000000000002
 70
   192
  0
VERTEX
  5
BF
330
BB
100
AcDbEntity
  8
0
 62
     0
100
AcDbVertex
100
AcDbPolyFaceMeshVertex
 10
15.5
 20
22.8
 30
2.0
 70
   192
  0
VERTEX
  5
C0
330
BB
100
AcDbEntity
  8
0
 62
     0
100
AcDbFaceRecord
 10
0.0
 20
0.0
 30
0.0
 70
   128
 71
    -1
 72
     2
 73
     3
  0
VERTEX
  5
C1
330
BB
100
AcDbEntity
  8
0
 62
     0
100
AcDbFaceRecord
 10
0.0
 20
0.0
 30
0.0
 70
   128
 71
    -2
 72
     1
 73
     4
  0
SEQEND
  5
C2
330
BB
100
AcDbEntity
  8
0
 62
     0
  0
LINE
  5
C3
330
60
100
AcDbEntity
  8
0
 62
     0
100
AcDbLine
 10
15.5
 20
-0.4999999999999998
 30
2.0
 11
15.5
 21
22.8
 31
2.0
  0
LINE
  5
C4
330
60
100
AcDbEntity
  8
0
 62
     0
100
AcDbLine
 10
1.999999999999996
 20
22.8
 30
2.000000000000002
 11
15.5
 21
22.8
 31
2.0
  0
LINE
  5
C5
330
60
100
AcDbEntity
  8
0
 62
     0
100
AcDbLine
 10
1.999999999999996
 20
-0.4999999999999998
 30
2.000000000000002
 11
1.999999999999996
 21
22.8
 31
2.000000000000002
  0
LINE
  5
C6
330
60
100
AcDbEntity
  8
0
 62
     0
100
AcDbLine
 10
15.5
 20
-0.4999999999999998
 30
2.0
 11
1.999999999999996
 21
-0.4999999999999998
 31
2.000000000000002
  0
POLYLINE
  5
C7
330
60
100
AcDbEntity
  8
0
 62
     0
100
AcDbPolyFaceMesh
 66
     1
 10
0.0
 20
0.0
 30
0.0
 70
    64
 71
     4
 72
     2
1001
ACAD_MATERIAL_MAPPER
1070
     1
1070
     1
1070
     1
1011
0.0
1021
0.0
1031
-0.0000000000000002
1011
0.0
1021
25.4
1031
-0.0000000000000002
1011
0.0
1021
0.0
1031
25.4
1011
1.0
1021
0.0
1031
-0.0000000000000002
  0
VERTEX
  5
C8
330
C7
100
AcDbEntity
  8
0
 62
     0
100
AcDbVertex
100
AcDbPolyFaceMeshVertex
 10
16.5
 20
6.0
 30
1.000000000000001
 70
   192
  0
VERTEX
  5
C9
330
C7
100
AcDbEntity
  8
0
 62
     0
100
AcDbVertex
100
AcDbPolyFaceMeshVertex
 10
16.5
 20
-0.4999999999999998
 30
16.5
 70
   192
  0
VERTEX
  5
CA
330
C7
100
AcDbEntity
  8
0
 62
     0
100
AcDbVertex
100
AcDbPolyFaceMeshVertex
 10
16.5
 20
-0.4999999999999998
 30
1.000000000000001
 70
   192
  0
VERTEX
  5
CB
330
C7
100
AcDbEntity
  8
0
 62
     0
100
AcDbVertex
100
AcDbPolyFaceMeshVertex
 10
16.5
 20
6.0
 30
16.5
 70
   192
  0
VERTEX
  5
CC
330
C7
100
AcDbEntity
  8
0
 62
     0
100
AcDbFaceRecord
 10
0.0
 20
0.0
 30
0.0
 70
   128
 71
    -1
 72
     2
 73
     3
  0
VERTEX
  5
CD
330
C7
100
AcDbEntity
  8
0
 62
     0
100
AcDbFaceRecord
 10
0.0
 20
0.0
 30
0.0
 70
   128
 71
    -2
 72
     1
 73
     4
  0
SEQEND
  5
CE
330
C7
100
AcDbEntity
  8
0
 62
     0
  0
LINE
  5
CF
330
60
100
AcDbEntity
  8
0
 62
     0
100
AcDbLine
 10
16.5
 20
-0.4999999999999998
 30
1.000000000000001
 11
16.5
 21
-0.4999999999999998
 31
16.5
  0
LINE
  5
D0
330
60
100
AcDbEntity
  8
0
 62
     0
100
AcDbLine
 10
16.5
 20
-0.4999999999999998
 30
1.000000000000001
 11
16.5
 21
6.0
 31
1.000000000000001
  0
LINE
  5
D1
330
60
100
AcDbEntity
  8
0
 62
     0
100
AcDbLine
 10
16.5
 20
6.0
 30
16.5
 11
16.5
 21
6.0
 31
1.000000000000001
  0
LINE
  5
D2
330
60
100
AcDbEntity
  8
0
 62
     0
100
AcDbLine
 10
16.5
 20
-0.4999999999999998
 30
16.5
 11
16.5
 21
6.0
 31
16.5
  0
POLYLINE
  5
D3
330
60
100
AcDbEntity
  8
0
 62
     0
100
AcDbPolyFaceMesh
 66
     1
 10
0.0
 20
0.0
 30
0.0
 70
    64
 71
     4
 72
     2
1001
ACAD_MATERIAL_MAPPER
1070
     1
1070
     1
1070
     1
1011
0.0
1021
0.0000000000001492
1031
0.0000000000000672
1011
0.0
1021
-25.39999999999987
1031
0.0000000000000672
1011
0.0
1021
0.0000000000001492
1031
25.40000000000007
1011
1.0
1021
0.0000000000001492
1031
0.0000000000000672
  0
VERTEX
  5
D4
330
D3
100
AcDbEntity
  8
0
 62
     0
100
AcDbVertex
100
AcDbPolyFaceMeshVertex
 10
12.74999999999999
 20
22.8
 30
9.250000000000002
 70
   192
  0
VERTEX
  5
D5
330
D3
100
AcDbEntity
  8
0
 62
     0
100
AcDbVertex
100
AcDbPolyFaceMeshVertex
 10
12.74999999999999
 20
18.0
 30
8.250000000000002
 70
   192
  0
VERTEX
  5
D6
330
D3
100
AcDbEntity
  8
0
 62
     0
100
AcDbVertex
100
AcDbPolyFaceMeshVertex
 10
12.74999999999999
 20
18.0
 30
9.250000000000002
 70
   192
  0
VERTEX
  5
D7
330
D3
100
AcDbEntity
  8
0
 62
     0
100
AcDbVertex
100
AcDbPolyFaceMeshVertex
 10
12.74999999999999
 20
22.8
 30
8.250000000000002
 70
   192
  0
VERTEX
  5
D8
330
D3
100
AcDbEntity
  8
0
 62
     0
100
AcDbFaceRecord
 10
0.0
 20
0.0
 30
0.0
 70
   128
 71
    -1
 72
     2
 73
     3
  0
VERTEX
  5
D9
330
D3
100
AcDbEntity
  8
0
 62
     0
100
AcDbFaceRecord
 10
0.0
 20
0.0
 30
0.0
 70
   128
 71
    -2
 72
     1
 73
     4
  0
SEQEND
  5
DA
330
D3
100
AcDbEntity
  8
0
 62
     0
  0
LINE
  5
DB
330
60
100
AcDbEntity
  8
0
 62
     0
100
AcDbLine
 10
12.74999999999999
 20
22.8
 30
9.250000000000002
 11
12.74999999999999
 21
22.8
 31
8.250000000000002
  0
LINE
  5
DC
330
60
100
AcDbEntity
  8
0
 62
     0
100
AcDbLine
 10
12.74999999999999
 20
18.0
 30
8.250000000000002
 11
12.74999999999999
 21
22.8
 31
8.250000000000002
  0
LINE
  5
DD
330
60
100
AcDbEntity
  8
0
 62
     0
100
AcDbLine
 10
12.74999999999999
 20
18.0
 30
9.250000000000002
 11
12.74999999999999
 21
18.0
 31
8.250000000000002
  0
LINE
  5
DE
330
60
100
AcDbEntity
  8
0
 62
     0
100
AcDbLine
 10
12.74999999999999
 20
22.8
 30
9.250000000000002
 11
12.74999999999999
 21
18.0
 31
9.250000000000002
  0
POLYLINE
  5
DF
330
60
100
AcDbEntity
  8
0
 62
     0
100
AcDbPolyFaceMesh
 66
     1
 10
0.0
 20
0.0
 30
0.0
 70
    64
 71
    12
 72
    10
1001
ACAD_MATERIAL_MAPPER
1070
     1
1070
     1
1070
     1
1011
0.0
1021
0.0000000000000022
1031
0.0
1011
25.40000000000001
1021
0.0000000000000022
1031
0.0
1011
0.0
1021
25.40000000000001
1031
0.0
1011
0.0
1021
0.0000000000000022
1031
1.0
  0
VERTEX
  5
E0
330
DF
100
AcDbEntity
  8
0
 62
     0
100
AcDbVertex
100
AcDbPolyFaceMeshVertex
 10
1.999999999999996
 20
-0.4999999999999998
 30
9.250000000000002
 70
   192
  0
VERTEX
  5
E1
330
DF
100
AcDbEntity
  8
0
 62
     0
100
AcDbVertex
100
AcDbPolyFaceMeshVertex
 10
4.749999999999997
 20
18.0
 30
9.250000000000002
 70
   192
  0
VERTEX
  5
E2
330
DF
100
AcDbEntity
  8
0
 62
     0
100
AcDbVertex
100
AcDbPolyFaceMeshVertex
 10
1.999999999999996
 20
22.8
 30
9.250000000000002
 70
   192
  0
VERTEX
  5
E3
330
DF
100
AcDbEntity
  8
0
 62
     0
100
AcDbVertex
100
AcDbPolyFaceMeshVertex
 10
15.5
 20
-0.4999999999999998
 30
9.250000000000002
 70
   192
  0
VERTEX
  5
E4
330
DF
100
AcDbEntity
  8
0
 62
     0
100
AcDbVertex
100
AcDbPolyFaceMeshVertex
 10
7.347408503730063
 20
15.5
 30
9.250000000000002
 70
   192
  0
VERTEX
  5
E5
330
DF
100
AcDbEntity
  8
0
 62
     0
100
AcDbVertex
100
AcDbPolyFaceMeshVertex
 10
10.15259149626993
 20
15.5
 30
9.250000000000002
 70
   192
  0
VERTEX
  5
E6
330
DF
100
AcDbEntity
  8
0
 62
     0
100
AcDbVertex
100
AcDbPolyFaceMeshVertex
 10
12.74999999999999
 20
18.0
 30
9.250000000000002
 70
   192
  0
VERTEX
  5
E7
330
DF
100
AcDbEntity
  8
0
 62
     0
100
AcDbVertex
100
AcDbPolyFaceMeshVertex
 10
12.74999999999999
 20
22.8
 30
9.250000000000002
 70
   192
  0
VERTEX
  5
E8
330
DF
100
AcDbEntity
  8
0
 62
     0
100
AcDbVertex
100
AcDbPolyFaceMeshVertex
 10
15.5
 20
22.8
 30
9.250000000000002
 70
   192
  0
VERTEX
  5
E9
330
DF
100
AcDbEntity
  8
0
 62
     0
100
AcDbVertex
100
AcDbPolyFaceMeshVertex
 10
10.15259149626993
 20
18.0
 30
9.250000000000002
 70
   192
  0
VERTEX
  5
EA
330
DF
100
AcDbEntity
  8
0
 62
     0
100
AcDbVertex
100
AcDbPolyFaceMeshVertex
 10
7.347408503730064
 20
18.0
 30
9.250000000000004
 70
   192
  0
VERTEX
  5
EB
330
DF
100
AcDbEntity
  8
0
 62
     0
100
AcDbVertex
100
AcDbPolyFaceMeshVertex
 10
4.749999999999997
 20
22.8
 30
9.250000000000002
 70
   192
  0
VERTEX
  5
EC
330
DF
100
AcDbEntity
  8
0
 62
     0
100
AcDbFaceRecord
 10
0.0
 20
0.0
 30
0.0
 70
   128
 71
    -1
 72
    -2
 73
     3
  0
VERTEX
  5
ED
330
DF
100
AcDbEntity
  8
0
 62
     0
100
AcDbFaceRecord
 10
0.0
 20
0.0
 30
0.0
 70
   128
 71
    -2
 72
     1
 73
    -4
  0
VERTEX
  5
EE
330
DF
100
AcDbEntity
  8
0
 62
     0
100
AcDbFaceRecord
 10
0.0
 20
0.0
 30
0.0
 70
   128
 71
    -2
 72
    -4
 73
    -5
  0
VERTEX
  5
EF
330
DF
100
AcDbEntity
  8
0
 62
     0
100
AcDbFaceRecord
 10
0.0
 20
0.0
 30
0.0
 70
   128
 71
    -5
 72
    -4
 73
     6
  0
VERTEX
  5
F0
330
DF
100
AcDbEntity
  8
0
 62
     0
100
AcDbFaceRecord
 10
0.0
 20
0.0
 30
0.0
 70
   128
 71
    -6
 72
    -4
 73
    -7
  0
VERTEX
  5
F1
330
DF
100
AcDbEntity
  8
0
 62
     0
100
AcDbFaceRecord
 10
0.0
 20
0.0
 30
0.0
 70
   128
 71
    -7
 72
    -4
 73
     8
  0
VERTEX
  5
F2
330
DF
100
AcDbEntity
  8
0
 62
     0
100
AcDbFaceRecord
 10
0.0
 20
0.0
 30
0.0
 70
   128
 71
    -8
 72
     4
 73
     9
  0
VERTEX
  5
F3
330
DF
100
AcDbEntity
  8
0
 62
     0
100
AcDbFaceRecord
 10
0.0
 20
0.0
 30
0.0
 70
   128
 71
     7
 72
    10
 73
    -6
  0
VERTEX
  5
F4
330
DF
100
AcDbEntity
  8
0
 62
     0
100
AcDbFaceRecord
 10
0.0
 20
0.0
 30
0.0
 70
   128
 71
    11
 72
    -2
 73
     5
  0
VERTEX
  5
F5
330
DF
100
AcDbEntity
  8
0
 62
     0
100
AcDbFaceRecord
 10
0.0
 20
0.0
 30
0.0
 70
   128
 71
    12
 72
    -3
 73
     2
  0
SEQEND
  5
F6
330
DF
100
AcDbEntity
  8
0
 62
     0
  0
LINE
  5
F7
330
60
100
AcDbEntity
  8
0
 62
     0
100
AcDbLine
 10
12.74999999999999
 20
18.0
 30
9.250000000000002
 11
10.15259149626993
 21
18.0
 31
9.250000000000002
  0
LINE
  5
F8
330
60
100
AcDbEntity
  8
0
 62
     0
100
AcDbLine
 10
10.15259149626993
 20
15.5
 30
9.250000000000002
 11
10.15259149626993
 21
18.0
 31
9.250000000000002
  0
LINE
  5
F9
330
60
100
AcDbEntity
  8
0
 62
     0
100
AcDbLine
 10
7.347408503730063
 20
15.5
 30
9.250000000000002
 11
10.15259149626993
 21
15.5
 31
9.250000000000002
  0
LINE
  5
FA
330
60
100
AcDbEntity
  8
0
 62
     0
100
AcDbLine
 10
7.347408503730064
 20
18.0
 30
9.250000000000004
 11
7.347408503730063
 21
15.5
 31
9.250000000000002
  0
LINE
  5
FB
330
60
100
AcDbEntity
  8
0
 62
     0
100
AcDbLine
 10
7.347408503730064
 20
18.0
 30
9.250000000000004
 11
4.749999999999997
 21
18.0
 31
9.250000000000002
  0
LINE
  5
FC
330
60
100
AcDbEntity
  8
0
 62
     0
100
AcDbLine
 10
4.749999999999997
 20
18.0
 30
9.250000000000002
 11
4.749999999999997
 21
22.8
 31
9.250000000000002
  0
LINE
  5
FD
330
60
100
AcDbEntity
  8
0
 62
     0
100
AcDbLine
 10
1.999999999999996
 20
22.8
 30
9.250000000000002
 11
4.749999999999997
 21
22.8
 31
9.250000000000002
  0
LINE
  5
FE
330
60
100
AcDbEntity
  8
0
 62
     0
100
AcDbLine
 10
1.999999999999996
 20
-0.4999999999999998
 30
9.250000000000002
 11
1.999999999999996
 21
22.8
 31
9.250000000000002
  0
LINE
  5
FF
330
60
100
AcDbEntity
  8
0
 62
     0
100
AcDbLine
 10
15.5
 20
-0.4999999999999998
 30
9.250000000000002
 11
1.999999999999996
 21
-0.4999999999999998
 31
9.250000000000002
  0
LINE
  5
100
330
60
100
AcDbEntity
  8
0
 62
     0
100
AcDbLine
 10
15.5
 20
22.8
 30
9.250000000000002
 11
15.5
 21
-0.4999999999999998
 31
9.250000000000002
  0
LINE
  5
101
330
60
100
AcDbEntity
  8
0
 62
     0
100
AcDbLine
 10
12.74999999999999
 20
22.8
 30
9.250000000000002
 11
15.5
 21
22.8
 31
9.250000000000002
  0
LINE
  5
102
330
60
100
AcDbEntity
  8
0
 62
     0
100
AcDbLine
 10
12.74999999999999
 20
22.8
 30
9.250000000000002
 11
12.74999999999999
 21
18.0
 31
9.250000000000002
  0
POLYLINE
  5
103
330
60
100
AcDbEntity
  8
0
 62
     0
100
AcDbPolyFaceMesh
 66
     1
 10
0.0
 20
0.0
 30
0.0
 70
    64
 71
     4
 72
     2
1001
ACAD_MATERIAL_MAPPER
1070
     1
1070
     1
1070
     1
1011
-5.750000000000007
1021
0.0
1031
0.0
1011
-5.750000000000007
1021
-25.4
1031
0.0
1011
12.21051224213832
1021
0.0
1031
0.0
1011
-5.750000000000007
1021
0.0
1031
1.0
  0
VERTEX
  5
104
330
103
100
AcDbEntity
  8
0
 62
     0
100
AcDbVertex
100
AcDbPolyFaceMeshVertex
 10
6.000000000000003
 20
6.0
 30
17.5
 70
   192
  0
VERTEX
  5
105
330
103
100
AcDbEntity
  8
0
 62
     0
100
AcDbVertex
100
AcDbPolyFaceMeshVertex
 10
4.999999999999999
 20
22.8
 30
16.5
 70
   192
  0
VERTEX
  5
106
330
103
100
AcDbEntity
  8
0
 62
     0
100
AcDbVertex
100
AcDbPolyFaceMeshVertex
 10
4.999999999999999
 20
6.0
 30
16.5
 70
   192
  0
VERTEX
  5
107
330
103
100
AcDbEntity
  8
0
 62
     0
100
AcDbVertex
100
AcDbPolyFaceMeshVertex
 10
6.000000000000003
 20
22.8
 30
17.5
 70
   192
  0
VERTEX
  5
108
330
103
100
AcDbEntity
  8
0
 62
     0
100
AcDbFaceRecord
 10
0.0
 20
0.0
 30
0.0
 70
   128
 71
    -1
 72
     2
 73
     3
  0
VERTEX
  5
109
330
103
100
AcDbEntity
  8
0
 62
     0
100
AcDbFaceRecord
 10
0.0
 20
0.0
 30
0.0
 70
   128
 71
    -2
 72
     1
 73
     4
  0
SEQEND
  5
10A
330
103
100
AcDbEntity
  8
0
 62
     0
  0
LINE
  5
10B
330
60
100
AcDbEntity
  8
0
 62
     0
100
AcDbLine
 10
4.999999999999999
 20
6.0
 30
16.5
 11
4.999999999999999
 21
22.8
 31
16.5
  0
LINE
  5
10C
330
60
100
AcDbEntity
  8
0
 62
     0
100
AcDbLine
 10
6.000000000000003
 20
6.0
 30
17.5
 11
4.999999999999999
 21
6.0
 31
16.5
  0
LINE
  5
10D
330
60
100
AcDbEntity
  8
0
 62
     0
100
AcDbLine
 10
6.000000000000003
 20
22.8
 30
17.5
 11
6.000000000000003
 21
6.0
 31
17.5
  0
LINE
  5
10E
330
60
100
AcDbEntity
  8
0
 62
     0
100
AcDbLine
 10
4.999999999999999
 20
22.8
 30
16.5
 11
6.000000000000003
 21
22.8
 31
17.5
  0
POLYLINE
  5
10F
330
60
100
AcDbEntity
  8
0
 62
     0
100
AcDbPolyFaceMesh
 66
     1
 10
0.0
 20
0.0
 30
0.0
 70
    64
 71
     4
 72
     2
1001
ACAD_MATERIAL_MAPPER
1070
     1
1070
     1
1070
     1
1011
0.0
1021
0.0
1031
0.0
1011
25.40000000000001
1021
0.0
1031
0.0
1011
0.0
1021
25.4
1031
0.0
1011
0.0
1021
0.0
1031
1.0
  0
VERTEX
  5
110
330
10F
100
AcDbEntity
  8
0
 62
     0
100
AcDbVertex
100
AcDbPolyFaceMeshVertex
 10
11.5
 20
6.0
 30
17.5
 70
   192
  0
VERTEX
  5
111
330
10F
100
AcDbEntity
  8
0
 62
     0
100
AcDbVertex
100
AcDbPolyFaceMeshVertex
 10
6.000000000000003
 20
22.8
 30
17.5
 70
   192
  0
VERTEX
  5
112
330
10F
100
AcDbEntity
  8
0
 62
     0
100
AcDbVertex
100
AcDbPolyFaceMeshVertex
 10
6.000000000000003
 20
6.0
 30
17.5
 70
   192
  0
VERTEX
  5
113
330
10F
100
AcDbEntity
  8
0
 62
     0
100
AcDbVertex
100
AcDbPolyFaceMeshVertex
 10
11.5
 20
22.8
 30
17.5
 70
   192
  0
VERTEX
  5
114
330
10F
100
AcDbEntity
  8
0
 62
     0
100
AcDbFaceRecord
 10
0.0
 20
0.0
 30
0.0
 70
   128
 71
    -1
 72
     2
 73
     3
  0
VERTEX
  5
115
330
10F
100
AcDbEntity
  8
0
 62
     0
100
AcDbFaceRecord
 10
0.0
 20
0.0
 30
0.0
 70
   128
 71
    -2
 72
     1
 73
     4
  0
SEQEND
  5
116
330
10F
100
AcDbEntity
  8
0
 62
     0
  0
LINE
  5
117
330
60
100
AcDbEntity
  8
0
 62
     0
100
AcDbLine
 10
11.5
 20
6.0
 30
17.5
 11
6.000000000000003
 21
6.0
 31
17.5
  0
LINE
  5
118
330
60
100
AcDbEntity
  8
0
 62
     0
100
AcDbLine
 10
11.5
 20
22.8
 30
17.5
 11
11.5
 21
6.0
 31
17.5
  0
LINE
  5
119
330
60
100
AcDbEntity
  8
0
 62
     0
100
AcDbLine
 10
11.5
 20
22.8
 30
17.5
 11
6.000000000000003
 21
22.8
 31
17.5
  0
LINE
  5
11A
330
60
100
AcDbEntity
  8
0
 62
     0
100
AcDbLine
 10
6.000000000000003
 20
22.8
 30
17.5
 11
6.000000000000003
 21
6.0
 31
17.5
  0
POLYLINE
  5
11B
330
60
100
AcDbEntity
  8
0
 62
     0
100
AcDbPolyFaceMesh
 66
     1
 10
0.0
 20
0.0
 30
0.0
 70
    64
 71
     8
 72
     6
1001
ACAD_MATERIAL_MAPPER
1070
     1
1070
     1
1070
     1
1011
0.0
1021
0.0
1031
0.0
1011
25.40000000000002
1021
0.0
1031
0.0
1011
-0.0000000000000358
1021
0.0
1031
25.4
1011
0.0
1021
1.0
1031
0.0
  0
VERTEX
  5
11C
330
11B
100
AcDbEntity
  8
0
 62
     0
100
AcDbVertex
100
AcDbPolyFaceMeshVertex
 10
17.5
 20
6.0
 30
0.0
 70
   192
  0
VERTEX
  5
11D
330
11B
100
AcDbEntity
  8
0
 62
     0
100
AcDbVertex
100
AcDbPolyFaceMeshVertex
 10
16.5
 20
6.0
 30
1.000000000000001
 70
   192
  0
VERTEX
  5
11E
330
11B
100
AcDbEntity
  8
0
 62
     0
100
AcDbVertex
100
AcDbPolyFaceMeshVertex
 10
15.5
 20
6.0
 30
0.0000000000000001
 70
   192
  0
VERTEX
  5
11F
330
11B
100
AcDbEntity
  8
0
 62
     0
100
AcDbVertex
100
AcDbPolyFaceMeshVertex
 10
17.5
 20
6.0
 30
17.5
 70
   192
  0
VERTEX
  5
120
330
11B
100
AcDbEntity
  8
0
 62
     0
100
AcDbVertex
100
AcDbPolyFaceMeshVertex
 10
16.5
 20
6.0
 30
16.5
 70
   192
  0
VERTEX
  5
121
330
11B
100
AcDbEntity
  8
0
 62
     0
100
AcDbVertex
100
AcDbPolyFaceMeshVertex
 10
14.5
 20
6.0
 30
16.5
 70
   192
  0
VERTEX
  5
122
330
11B
100
AcDbEntity
  8
0
 62
     0
100
AcDbVertex
100
AcDbPolyFaceMeshVertex
 10
15.5
 20
6.0
 30
17.5
 70
   192
  0
VERTEX
  5
123
330
11B
100
AcDbEntity
  8
0
 62
     0
100
AcDbVertex
100
AcDbPolyFaceMeshVertex
 10
14.5
 20
6.0
 30
1.000000000000001
 70
   192
  0
VERTEX
  5
124
330
11B
100
AcDbEntity
  8
0
 62
     0
100
AcDbFaceRecord
 10
0.0
 20
0.0
 30
0.0
 70
   128
 71
    -1
 72
    -2
 73
     3
  0
VERTEX
  5
125
330
11B
100
AcDbEntity
  8
0
 62
     0
100
AcDbFaceRecord
 10
0.0
 20
0.0
 30
0.0
 70
   128
 71
    -2
 72
     1
 73
    -4
  0
VERTEX
  5
126
330
11B
100
AcDbEntity
  8
0
 62
     0
100
AcDbFaceRecord
 10
0.0
 20
0.0
 30
0.0
 70
   128
 71
    -2
 72
    -4
 73
     5
  0
VERTEX
  5
127
330
11B
100
AcDbEntity
  8
0
 62
     0
100
AcDbFaceRecord
 10
0.0
 20
0.0
 30
0.0
 70
   128
 71
    -5
 72
    -4
 73
     6
  0
VERTEX
  5
128
330
11B
100
AcDbEntity
  8
0
 62
     0
100
AcDbFaceRecord
 10
0.0
 20
0.0
 30
0.0
 70
   128
 71
    -6
 72
     4
 73
     7
  0
VERTEX
  5
129
330
11B
100
AcDbEntity
  8
0
 62
     0
100
AcDbFaceRecord
 10
0.0
 20
0.0
 30
0.0
 70
   128
 71
     8
 72
    -3
 73
     2
  0
SEQEND
  5
12A
330
11B
100
AcDbEntity
  8
0
 62
     0
  0
LINE
  5
12B
330
60
100
AcDbEntity
  8
0
 62
     0
100
AcDbLine
 10
17.5
 20
6.0
 30
17.5
 11
15.5
 21
6.0
 31
17.5
  0
LINE
  5
12C
330
60
100
AcDbEntity
  8
0
 62
     0
100
AcDbLine
 10
15.5
 20
6.0
 30
17.5
 11
14.5
 21
6.0
 31
16.5
  0
LINE
  5
12D
330
60
100
AcDbEntity
  8
0
 62
     0
100
AcDbLine
 10
14.5
 20
6.0
 30
16.5
 11
16.5
 21
6.0
 31
16.5
  0
LINE
  5
12E
330
60
100
AcDbEntity
  8
0
 62
     0
100
AcDbLine
 10
16.5
 20
6.0
 30
16.5
 11
16.5
 21
6.0
 31
1.000000000000001
  0
LINE
  5
12F
330
60
100
AcDbEntity
  8
0
 62
     0
100
AcDbLine
 10
16.5
 20
6.0
 30
1.000000000000001
 11
14.5
 21
6.0
 31
1.000000000000001
  0
LINE
  5
130
330
60
100
AcDbEntity
  8
0
 62
     0
100
AcDbLine
 10
15.5
 20
6.0
 30
0.0000000000000001
 11
14.5
 21
6.0
 31
1.000000000000001
  0
LINE
  5
131
330
60
100
AcDbEntity
  8
0
 62
     0
100
AcDbLine
 10
15.5
 20
6.0
 30
0.0000000000000001
 11
17.5
 21
6.0
 31
0.0
  0
LINE
  5
132
330
60
100
AcDbEntity
  8
0
 62
     0
100
AcDbLine
 10
17.5
 20
6.0
 30
0.0
 11
17.5
 21
6.0
 31
17.5
  0
POLYLINE
  5
133
330
60
100
AcDbEntity
  8
0
 62
     0
100
AcDbPolyFaceMesh
 66
     1
 10
0.0
 20
0.0
 30
0.0
 70
    64
 71
    12
 72
    10
1001
ACAD_MATERIAL_MAPPER
1070
     1
1070
     1
1070
     1
1011
-0.0000000000000919
1021
-0.0000000000001471
1031
0.0
1011
-25.40000000000009
1021
-0.0000000000001471
1031
0.0
1011
-0.0000000000000919
1021
25.39999999999987
1031
0.0
1011
-0.0000000000000919
1021
-0.0000000000001471
1031
1.0
  0
VERTEX
  5
134
330
133
100
AcDbEntity
  8
0
 62
     0
100
AcDbVertex
100
AcDbPolyFaceMeshVertex
 10
12.74999999999999
 20
18.0
 30
8.250000000000002
 70
   192
  0
VERTEX
  5
135
330
133
100
AcDbEntity
  8
0
 62
     0
100
AcDbVertex
100
AcDbPolyFaceMeshVertex
 10
10.15259149626993
 20
16.5
 30
8.250000000000002
 70
   192
  0
VERTEX
  5
136
330
133
100
AcDbEntity
  8
0
 62
     0
100
AcDbVertex
100
AcDbPolyFaceMeshVertex
 10
10.15259149626993
 20
18.0
 30
8.250000000000002
 70
   192
  0
VERTEX
  5
137
330
133
100
AcDbEntity
  8
0
 62
     0
100
AcDbVertex
100
AcDbPolyFaceMeshVertex
 10
15.5
 20
22.8
 30
8.250000000000002
 70
   192
  0
VERTEX
  5
138
330
133
100
AcDbEntity
  8
0
 62
     0
100
AcDbVertex
100
AcDbPolyFaceMeshVertex
 10
12.74999999999999
 20
22.8
 30
8.250000000000002
 70
   192
  0
VERTEX
  5
139
330
133
100
AcDbEntity
  8
0
 62
     0
100
AcDbVertex
100
AcDbPolyFaceMeshVertex
 10
4.749999999999997
 20
22.8
 30
8.250000000000002
 70
   192
  0
VERTEX
  5
13A
330
133
100
AcDbEntity
  8
0
 62
     0
100
AcDbVertex
100
AcDbPolyFaceMeshVertex
 10
1.999999999999996
 20
-0.4999999999999998
 30
8.250000000000002
 70
   192
  0
VERTEX
  5
13B
330
133
100
AcDbEntity
  8
0
 62
     0
100
AcDbVertex
100
AcDbPolyFaceMeshVertex
 10
1.999999999999996
 20
22.8
 30
8.250000000000002
 70
   192
  0
VERTEX
  5
13C
330
133
100
AcDbEntity
  8
0
 62
     0
100
AcDbVertex
100
AcDbPolyFaceMeshVertex
 10
4.749999999999997
 20
18.0
 30
8.250000000000002
 70
   192
  0
VERTEX
  5
13D
330
133
100
AcDbEntity
  8
0
 62
     0
100
AcDbVertex
100
AcDbPolyFaceMeshVertex
 10
15.5
 20
-0.4999999999999998
 30
8.250000000000002
 70
   192
  0
VERTEX
  5
13E
330
133
100
AcDbEntity
  8
0
 62
     0
100
AcDbVertex
100
AcDbPolyFaceMeshVertex
 10
7.347408503730063
 20
16.5
 30
8.250000000000002
 70
   192
  0
VERTEX
  5
13F
330
133
100
AcDbEntity
  8
0
 62
     0
100
AcDbVertex
100
AcDbPolyFaceMeshVertex
 10
7.347408503730063
 20
18.0
 30
8.250000000000004
 70
   192
  0
VERTEX
  5
140
330
133
100
AcDbEntity
  8
0
 62
     0
100
AcDbFaceRecord
 10
0.0
 20
0.0
 30
0.0
 70
   128
 71
    -1
 72
     2
 73
     3
  0
VERTEX
  5
141
330
133
100
AcDbEntity
  8
0
 62
     0
100
AcDbFaceRecord
 10
0.0
 20
0.0
 30
0.0
 70
   128
 71
    -4
 72
     1
 73
     5
  0
VERTEX
  5
142
330
133
100
AcDbEntity
  8
0
 62
     0
100
AcDbFaceRecord
 10
0.0
 20
0.0
 30
0.0
 70
   128
 71
    -6
 72
     7
 73
     8
  0
VERTEX
  5
143
330
133
100
AcDbEntity
  8
0
 62
     0
100
AcDbFaceRecord
 10
0.0
 20
0.0
 30
0.0
 70
   128
 71
    -7
 72
     6
 73
    -9
  0
VERTEX
  5
144
330
133
100
AcDbEntity
  8
0
 62
     0
100
AcDbFaceRecord
 10
0.0
 20
0.0
 30
0.0
 70
   128
 71
    -7
 72
    -9
 73
    10
  0
VERTEX
  5
145
330
133
100
AcDbEntity
  8
0
 62
     0
100
AcDbFaceRecord
 10
0.0
 20
0.0
 30
0.0
 70
   128
 71
   -10
 72
    -9
 73
   -11
  0
VERTEX
  5
146
330
133
100
AcDbEntity
  8
0
 62
     0
100
AcDbFaceRecord
 10
0.0
 20
0.0
 30
0.0
 70
   128
 71
   -11
 72
     9
 73
    12
  0
VERTEX
  5
147
330
133
100
AcDbEntity
  8
0
 62
     0
100
AcDbFaceRecord
 10
0.0
 20
0.0
 30
0.0
 70
   128
 71
   -10
 72
    11
 73
    -2
  0
VERTEX
  5
148
330
133
100
AcDbEntity
  8
0
 62
     0
100
AcDbFaceRecord
 10
0.0
 20
0.0
 30
0.0
 70
   128
 71
   -10
 72
    -2
 73
    -1
  0
VERTEX
  5
149
330
133
100
AcDbEntity
  8
0
 62
     0
100
AcDbFaceRecord
 10
0.0
 20
0.0
 30
0.0
 70
   128
 71
   -10
 72
    -1
 73
     4
  0
SEQEND
  5
14A
330
133
100
AcDbEntity
  8
0
 62
     0
  0
LINE
  5
14B
330
60
100
AcDbEntity
  8
0
 62
     0
100
AcDbLine
 10
4.749999999999997
 20
18.0
 30
8.250000000000002
 11
7.347408503730063
 21
18.0
 31
8.250000000000004
  0
LINE
  5
14C
330
60
100
AcDbEntity
  8
0
 62
     0
100
AcDbLine
 10
7.347408503730063
 20
16.5
 30
8.250000000000002
 11
7.347408503730063
 21
18.0
 31
8.250000000000004
  0
LINE
  5
14D
330
60
100
AcDbEntity
  8
0
 62
     0
100
AcDbLine
 10
10.15259149626993
 20
16.5
 30
8.250000000000002
 11
7.347408503730063
 21
16.5
 31
8.250000000000002
  0
LINE
  5
14E
330
60
100
AcDbEntity
  8
0
 62
     0
100
AcDbLine
 10
10.15259149626993
 20
18.0
 30
8.250000000000002
 11
10.15259149626993
 21
16.5
 31
8.250000000000002
  0
LINE
  5
14F
330
60
100
AcDbEntity
  8
0
 62
     0
100
AcDbLine
 10
10.15259149626993
 20
18.0
 30
8.250000000000002
 11
12.74999999999999
 21
18.0
 31
8.250000000000002
  0
LINE
  5
150
330
60
100
AcDbEntity
  8
0
 62
     0
100
AcDbLine
 10
12.74999999999999
 20
18.0
 30
8.250000000000002
 11
12.74999999999999
 21
22.8
 31
8.250000000000002
  0
LINE
  5
151
330
60
100
AcDbEntity
  8
0
 62
     0
100
AcDbLine
 10
12.74999999999999
 20
22.8
 30
8.250000000000002
 11
15.5
 21
22.8
 31
8.250000000000002
  0
LINE
  5
152
330
60
100
AcDbEntity
  8
0
 62
     0
100
AcDbLine
 10
15.5
 20
22.8
 30
8.250000000000002
 11
15.5
 21
-0.4999999999999998
 31
8.250000000000002
  0
LINE
  5
153
330
60
100
AcDbEntity
  8
0
 62
     0
100
AcDbLine
 10
15.5
 20
-0.4999999999999998
 30
8.250000000000002
 11
1.999999999999996
 21
-0.4999999999999998
 31
8.250000000000002
  0
LINE
  5
154
330
60
100
AcDbEntity
  8
0
 62
     0
100
AcDbLine
 10
1.999999999999996
 20
-0.4999999999999998
 30
8.250000000000002
 11
1.999999999999996
 21
22.8
 31
8.250000000000002
  0
LINE
  5
155
330
60
100
AcDbEntity
  8
0
 62
     0
100
AcDbLine
 10
1.999999999999996
 20
22.8
 30
8.250000000000002
 11
4.749999999999997
 21
22.8
 31
8.250000000000002
  0
LINE
  5
156
330
60
100
AcDbEntity
  8
0
 62
     0
100
AcDbLine
 10
4.749999999999997
 20
22.8
 30
8.250000000000002
 11
4.749999999999997
 21
18.0
 31
8.250000000000002
  0
POLYLINE
  5
157
330
60
100
AcDbEntity
  8
0
 62
     0
100
AcDbPolyFaceMesh
 66
     1
 10
0.0
 20
0.0
 30
0.0
 70
    64
 71
     4
 72
     2
1001
ACAD_MATERIAL_MAPPER
1070
     1
1070
     1
1070
     1
1011
0.0
1021
0.0
1031
0.0
1011
0.0
1021
1.0
1031
0.0
1011
0.0
1021
0.0
1031
1.0
1011
1.0
1021
0.0
1031
0.0
  0
VERTEX
  5
158
330
157
100
AcDbEntity
  8
0
 62
     0
100
AcDbVertex
100
AcDbPolyFaceMeshVertex
 10
10.04903810567665
 20
18.0
 30
8.0
 70
   192
  0
VERTEX
  5
159
330
157
100
AcDbEntity
  8
0
 62
     0
100
AcDbVertex
100
AcDbPolyFaceMeshVertex
 10
10.15259149626993
 20
16.5
 30
8.250000000000002
 70
   192
  0
VERTEX
  5
15A
330
157
100
AcDbEntity
  8
0
 62
     0
100
AcDbVertex
100
AcDbPolyFaceMeshVertex
 10
10.04903810567665
 20
16.5
 30
8.0
 70
   192
  0
VERTEX
  5
15B
330
157
100
AcDbEntity
  8
0
 62
     0
100
AcDbVertex
100
AcDbPolyFaceMeshVertex
 10
10.15259149626993
 20
18.0
 30
8.250000000000002
 70
   192
  0
VERTEX
  5
15C
330
157
100
AcDbEntity
  8
0
 62
     0
100
AcDbFaceRecord
 10
0.0
 20
0.0
 30
0.0
 70
   128
 71
    -1
 72
     2
 73
     3
  0
VERTEX
  5
15D
330
157
100
AcDbEntity
  8
0
 62
     0
100
AcDbFaceRecord
 10
0.0
 20
0.0
 30
0.0
 70
   128
 71
    -2
 72
     1
 73
     4
  0
SEQEND
  5
15E
330
157
100
AcDbEntity
  8
0
 62
     0
  0
ARC
  5
15F
330
60
100
AcDbEntity
  8
0
 62
     0
100
AcDbCircle
 10
8.749999999999995
 20
8.75
 30
-18.0
 40
1.500000000000001
210
0.0
220
-1.0
230
0.0
100
AcDbArc
 50
199.6202859532824
 51
340.3797140467175
  0
LINE
  5
160
330
60
100
AcDbEntity
  8
0
 62
     0
100
AcDbLine
 10
10.15259149626993
 20
18.0
 30
8.250000000000002
 11
10.15259149626993
 21
16.5
 31
8.250000000000002
  0
ARC
  5
161
330
60
100
AcDbEntity
  8
0
 62
     0
100
AcDbCircle
 10
8.749999999999995
 20
8.75
 30
-16.5
 40
1.499999999999999
210
0.0
220
-1.0
230
0.0
100
AcDbArc
 50
199.6202859532824
 51
340.3797140467175
  0
LINE
  5
162
330
60
100
AcDbEntity
  8
0
 62
     0
100
AcDbLine
 10
10.04903810567665
 20
18.0
 30
8.0
 11
10.04903810567665
 21
16.5
 31
8.0
  0
POLYLINE
  5
163
330
60
100
AcDbEntity
  8
0
 62
     0
100
AcDbPolyFaceMesh
 66
     1
 10
0.0
 20
0.0
 30
0.0
 70
    64
 71
     4
 72
     2
1001
ACAD_MATERIAL_MAPPER
1070
     1
1070
     1
1070
     1
1011
0.0
1021
0.0000000000000732
1031
-0.0779287264483066
1011
0.0
1021
-25.39999999999992
1031
-0.0779287264483066
1011
0.0
1021
0.0000000000000732
1031
20.07324611694908
1011
1.0
1021
0.0000000000000732
1031
-0.0779287264483066
  0
VERTEX
  5
164
330
163
100
AcDbEntity
  8
0
 62
     0
100
AcDbVertex
100
AcDbPolyFaceMeshVertex
 10
7.689339828220174
 20
18.0
 30
9.810660171779823
 70
   192
  0
VERTEX
  5
165
330
163
100
AcDbEntity
  8
0
 62
     0
100
AcDbVertex
100
AcDbPolyFaceMeshVertex
 10
7.450961894323338
 20
15.5
 30
9.500000000000002
 70
   192
  0
VERTEX
  5
166
330
163
100
AcDbEntity
  8
0
 62
     0
100
AcDbVertex
100
AcDbPolyFaceMeshVertex
 10
7.689339828220174
 20
15.5
 30
9.810660171779823
 70
   192
  0
VERTEX
  5
167
330
163
100
AcDbEntity
  8
0
 62
     0
100
AcDbVertex
100
AcDbPolyFaceMeshVertex
 10
7.450961894323338
 20
18.0
 30
9.500000000000002
 70
   192
  0
VERTEX
  5
168
330
163
100
AcDbEntity
  8
0
 62
     0
100
AcDbFaceRecord
 10
0.0
 20
0.0
 30
0.0
 70
   128
 71
    -1
 72
     2
 73
     3
  0
VERTEX
  5
169
330
163
100
AcDbEntity
  8
0
 62
     0
100
AcDbFaceRecord
 10
0.0
 20
0.0
 30
0.0
 70
   128
 71
    -2
 72
     1
 73
     4
  0
SEQEND
  5
16A
330
163
100
AcDbEntity
  8
0
 62
     0
  0
ARC
  5
16B
330
60
100
AcDbEntity
  8
0
 62
     0
100
AcDbCircle
 10
8.749999999999995
 20
8.75
 30
-18.0
 40
1.5
210
0.0
220
-1.0
230
0.0
100
AcDbArc
 50
19.6202859532825
 51
160.3797140467175
  0
LINE
  5
16C
330
60
100
AcDbEntity
  8
0
 62
     0
100
AcDbLine
 10
7.450961894323338
 20
18.0
 30
9.500000000000002
 11
7.450961894323338
 21
15.5
 31
9.500000000000002
  0
ARC
  5
16D
330
60
100
AcDbEntity
  8
0
 62
     0
100
AcDbCircle
 10
8.749999999999995
 20
8.75
 30
-15.5
 40
1.499999999999999
210
0.0
220
-1.0
230
0.0
100
AcDbArc
 50
19.62028595328251
 51
160.3797140467175
  0
LINE
  5
16E
330
60
100
AcDbEntity
  8
0
 62
     0
100
AcDbLine
 10
7.689339828220174
 20
18.0
 30
9.810660171779823
 11
7.689339828220174
 21
15.5
 31
9.810660171779823
  0
POLYLINE
  5
16F
330
60
100
AcDbEntity
  8
0
 62
     0
100
AcDbPolyFaceMesh
 66
     1
 10
0.0
 20
0.0
 30
0.0
 70
    64
 71
     4
 72
     2
1001
ACAD_MATERIAL_MAPPER
1070
     1
1070
     1
1070
     1
1011
0.0
1021
0.0
1031
0.0
1011
1.0
1021
0.0
1031
0.0
1011
0.0
1021
1.0
1031
0.0
1011
0.0
1021
0.0
1031
1.0
  0
VERTEX
  5
170
330
16F
100
AcDbEntity
  8
0
 62
     0
100
AcDbVertex
100
AcDbPolyFaceMeshVertex
 10
8.361771432346213
 20
18.0
 30
7.301111260566398
 70
   192
  0
VERTEX
  5
171
330
16F
100
AcDbEntity
  8
0
 62
     0
100
AcDbVertex
100
AcDbPolyFaceMeshVertex
 10
7.999999999999996
 20
16.5
 30
7.450961894323344
 70
   192
  0
VERTEX
  5
172
330
16F
100
AcDbEntity
  8
0
 62
     0
100
AcDbVertex
100
AcDbPolyFaceMeshVertex
 10
7.999999999999996
 20
18.0
 30
7.450961894323344
 70
   192
  0
VERTEX
  5
173
330
16F
100
AcDbEntity
  8
0
 62
     0
100
AcDbVertex
100
AcDbPolyFaceMeshVertex
 10
8.361771432346213
 20
16.5
 30
7.301111260566398
 70
   192
  0
VERTEX
  5
174
330
16F
100
AcDbEntity
  8
0
 62
     0
100
AcDbFaceRecord
 10
0.0
 20
0.0
 30
0.0
 70
   128
 71
    -1
 72
     2
 73
     3
  0
VERTEX
  5
175
330
16F
100
AcDbEntity
  8
0
 62
     0
100
AcDbFaceRecord
 10
0.0
 20
0.0
 30
0.0
 70
   128
 71
    -2
 72
     1
 73
     4
  0
SEQEND
  5
176
330
16F
100
AcDbEntity
  8
0
 62
     0
  0
ARC
  5
177
330
60
100
AcDbEntity
  8
0
 62
     0
100
AcDbCircle
 10
8.749999999999995
 20
8.75
 30
-18.0
 40
1.500000000000001
210
0.0
220
-1.0
230
0.0
100
AcDbArc
 50
199.6202859532824
 51
340.3797140467175
  0
LINE
  5
178
330
60
100
AcDbEntity
  8
0
 62
     0
100
AcDbLine
 10
8.361771432346213
 20
18.0
 30
7.301111260566398
 11
8.361771432346213
 21
16.5
 31
7.301111260566398
  0
ARC
  5
179
330
60
100
AcDbEntity
  8
0
 62
     0
100
AcDbCircle
 10
8.749999999999995
 20
8.75
 30
-16.5
 40
1.499999999999999
210
0.0
220
-1.0
230
0.0
100
AcDbArc
 50
199.6202859532824
 51
340.3797140467175
  0
LINE
  5
17A
330
60
100
AcDbEntity
  8
0
 62
     0
100
AcDbLine
 10
7.999999999999996
 20
18.0
 30
7.450961894323344
 11
7.999999999999996
 21
16.5
 31
7.450961894323344
  0
POLYLINE
  5
17B
330
60
100
AcDbEntity
  8
0
 62
     0
100
AcDbPolyFaceMesh
 66
     1
 10
0.0
 20
0.0
 30
0.0
 70
    64
 71
     4
 72
     2
1001
ACAD_MATERIAL_MAPPER
1070
     1
1070
     1
1070
     1
1011
-0.0000000000000382
1021
0.0
1031
0.0
1011
25.39999999999995
1021
0.0
1031
0.0
1011
0.0
1021
0.0
1031
25.39999999999993
1011
-0.0000000000000382
1021
1.0
1031
0.0
  0
VERTEX
  5
17C
330
17B
100
AcDbEntity
  8
0
 62
     0
100
AcDbVertex
100
AcDbPolyFaceMeshVertex
 10
11.5
 20
6.0
 30
17.5
 70
   192
  0
VERTEX
  5
17D
330
17B
100
AcDbEntity
  8
0
 62
     0
100
AcDbVertex
100
AcDbPolyFaceMeshVertex
 10
4.999999999999999
 20
6.0
 30
16.5
 70
   192
  0
VERTEX
  5
17E
330
17B
100
AcDbEntity
  8
0
 62
     0
100
AcDbVertex
100
AcDbPolyFaceMeshVertex
 10
12.5
 20
6.0
 30
16.5
 70
   192
  0
VERTEX
  5
17F
330
17B
100
AcDbEntity
  8
0
 62
     0
100
AcDbVertex
100
AcDbPolyFaceMeshVertex
 10
6.000000000000003
 20
6.0
 30
17.5
 70
   192
  0
VERTEX
  5
180
330
17B
100
AcDbEntity
  8
0
 62
     0
100
AcDbFaceRecord
 10
0.0
 20
0.0
 30
0.0
 70
   128
 71
    -1
 72
     2
 73
     3
  0
VERTEX
  5
181
330
17B
100
AcDbEntity
  8
0
 62
     0
100
AcDbFaceRecord
 10
0.0
 20
0.0
 30
0.0
 70
   128
 71
    -2
 72
     1
 73
     4
  0
SEQEND
  5
182
330
17B
100
AcDbEntity
  8
0
 62
     0
  0
LINE
  5
183
330
60
100
AcDbEntity
  8
0
 62
     0
100
AcDbLine
 10
4.999999999999999
 20
6.0
 30
16.5
 11
12.5
 21
6.0
 31
16.5
  0
LINE
  5
184
330
60
100
AcDbEntity
  8
0
 62
     0
100
AcDbLine
 10
11.5
 20
6.0
 30
17.5
 11
12.5
 21
6.0
 31
16.5
  0
LINE
  5
185
330
60
100
AcDbEntity
  8
0
 62
     0
100
AcDbLine
 10
11.5
 20
6.0
 30
17.5
 11
6.000000000000003
 21
6.0
 31
17.5
  0
LINE
  5
186
330
60
100
AcDbEntity
  8
0
 62
     0
100
AcDbLine
 10
6.000000000000003
 20
6.0
 30
17.5
 11
4.999999999999999
 21
6.0
 31
16.5
  0
POLYLINE
  5
187
330
60
100
AcDbEntity
  8
0
 62
     0
100
AcDbPolyFaceMesh
 66
     1
 10
0.0
 20
0.0
 30
0.0
 70
    64
 71
     4
 72
     2
1001
ACAD_MATERIAL_MAPPER
1070
     1
1070
     1
1070
     1
1011
3.0
1021
0.0
1031
0.0
1011
3.0
1021
-25.4
1031
0.0
1011
-14.96051224213829
1021
0.0
1031
0.0
1011
3.0
1021
0.0
1031
1.0
  0
VERTEX
  5
188
330
187
100
AcDbEntity
  8
0
 62
     0
100
AcDbVertex
100
AcDbPolyFaceMeshVertex
 10
5.0
 20
22.8
 30
1.000000000000001
 70
   192
  0
VERTEX
  5
189
330
187
100
AcDbEntity
  8
0
 62
     0
100
AcDbVertex
100
AcDbPolyFaceMeshVertex
 10
6.0
 20
6.0
 30
0.0000000000000009
 70
   192
  0
VERTEX
  5
18A
330
187
100
AcDbEntity
  8
0
 62
     0
100
AcDbVertex
100
AcDbPolyFaceMeshVertex
 10
5.0
 20
6.0
 30
1.000000000000001
 70
   192
  0
VERTEX
  5
18B
330
187
100
AcDbEntity
  8
0
 62
     0
100
AcDbVertex
100
AcDbPolyFaceMeshVertex
 10
6.0
 20
22.8
 30
0.0000000000000009
 70
   192
  0
VERTEX
  5
18C
330
187
100
AcDbEntity
  8
0
 62
     0
100
AcDbFaceRecord
 10
0.0
 20
0.0
 30
0.0
 70
   128
 71
    -1
 72
     2
 73
     3
  0
VERTEX
  5
18D
330
187
100
AcDbEntity
  8
0
 62
     0
100
AcDbFaceRecord
 10
0.0
 20
0.0
 30
0.0
 70
   128
 71
    -2
 72
     1
 73
     4
  0
SEQEND
  5
18E
330
187
100
AcDbEntity
  8
0
 62
     0
  0
LINE
  5
18F
330
60
100
AcDbEntity
  8
0
 62
     0
100
AcDbLine
 10
5.0
 20
6.0
 30
1.000000000000001
 11
5.0
 21
22.8
 31
1.000000000000001
  0
LINE
  5
190
330
60
100
AcDbEntity
  8
0
 62
     0
100
AcDbLine
 10
5.0
 20
22.8
 30
1.000000000000001
 11
6.0
 21
22.8
 31
0.0000000000000009
  0
LINE
  5
191
330
60
100
AcDbEntity
  8
0
 62
     0
100
AcDbLine
 10
6.0
 20
22.8
 30
0.0000000000000009
 11
6.0
 21
6.0
 31
0.0000000000000009
  0
LINE
  5
192
330
60
100
AcDbEntity
  8
0
 62
     0
100
AcDbLine
 10
6.0
 20
6.0
 30
0.0000000000000009
 11
5.0
 21
6.0
 31
1.000000000000001
  0
POLYLINE
  5
193
330
60
100
AcDbEntity
  8
0
 62
     0
100
AcDbPolyFaceMesh
 66
     1
 10
0.0
 20
0.0
 30
0.0
 70
    64
 71
     4
 72
     2
1001
ACAD_MATERIAL_MAPPER
1070
     1
1070
     1
1070
     1
1011
0.0
1021
0.0
1031
0.0
1011
1.0
1021
0.0
1031
0.0
1011
0.0
1021
1.0
1031
0.0
1011
0.0
1021
0.0
1031
1.0
  0
VERTEX
  5
194
330
193
100
AcDbEntity
  8
0
 62
     0
100
AcDbVertex
100
AcDbPolyFaceMeshVertex
 10
9.138228567653776
 20
18.0
 30
7.301111260566398
 70
   192
  0
VERTEX
  5
195
330
193
100
AcDbEntity
  8
0
 62
     0
100
AcDbVertex
100
AcDbPolyFaceMeshVertex
 10
8.749999999999995
 20
16.5
 30
7.250000000000001
 70
   192
  0
VERTEX
  5
196
330
193
100
AcDbEntity
  8
0
 62
     0
100
AcDbVertex
100
AcDbPolyFaceMeshVertex
 10
8.749999999999995
 20
18.0
 30
7.250000000000001
 70
   192
  0
VERTEX
  5
197
330
193
100
AcDbEntity
  8
0
 62
     0
100
AcDbVertex
100
AcDbPolyFaceMeshVertex
 10
9.138228567653776
 20
16.5
 30
7.301111260566398
 70
   192
  0
VERTEX
  5
198
330
193
100
AcDbEntity
  8
0
 62
     0
100
AcDbFaceRecord
 10
0.0
 20
0.0
 30
0.0
 70
   128
 71
    -1
 72
     2
 73
     3
  0
VERTEX
  5
199
330
193
100
AcDbEntity
  8
0
 62
     0
100
AcDbFaceRecord
 10
0.0
 20
0.0
 30
0.0
 70
   128
 71
    -2
 72
     1
 73
     4
  0
SEQEND
  5
19A
330
193
100
AcDbEntity
  8
0
 62
     0
  0
ARC
  5
19B
330
60
100
AcDbEntity
  8
0
 62
     0
100
AcDbCircle
 10
8.749999999999995
 20
8.75
 30
-18.0
 40
1.500000000000001
210
0.0
220
-1.0
230
0.0
100
AcDbArc
 50
199.6202859532824
 51
340.3797140467175
  0
LINE
  5
19C
330
60
100
AcDbEntity
  8
0
 62
     0
100
AcDbLine
 10
9.138228567653776
 20
18.0
 30
7.301111260566398
 11
9.138228567653776
 21
16.5
 31
7.301111260566398
  0
ARC
  5
19D
330
60
100
AcDbEntity
  8
0
 62
     0
100
AcDbCircle
 10
8.749999999999995
 20
8.75
 30
-16.5
 40
1.499999999999999
210
0.0
220
-1.0
230
0.0
100
AcDbArc
 50
199.6202859532824
 51
340.3797140467175
  0
LINE
  5
19E
330
60
100
AcDbEntity
  8
0
 62
     0
100
AcDbLine
 10
8.749999999999995
 20
18.0
 30
7.250000000000001
 11
8.749999999999995
 21
16.5
 31
7.250000000000001
  0
POLYLINE
  5
19F
330
60
100
AcDbEntity
  8
0
 62
     0
100
AcDbPolyFaceMesh
 66
     1
 10
0.0
 20
0.0
 30
0.0
 70
    64
 71
     4
 72
     2
1001
ACAD_MATERIAL_MAPPER
1070
     1
1070
     1
1070
     1
1011
0.0
1021
0.0
1031
0.0
1011
0.0
1021
1.0
1031
0.0
1011
0.0
1021
0.0
1031
1.0
1011
1.0
1021
0.0
1031
0.0
  0
VERTEX
  5
1A0
330
19F
100
AcDbEntity
  8
0
 62
     0
100
AcDbVertex
100
AcDbPolyFaceMeshVertex
 10
7.347408503730063
 20
18.0
 30
8.250000000000004
 70
   192
  0
VERTEX
  5
1A1
330
19F
100
AcDbEntity
  8
0
 62
     0
100
AcDbVertex
100
AcDbPolyFaceMeshVertex
 10
7.450961894323338
 20
16.5
 30
8.0
 70
   192
  0
VERTEX
  5
1A2
330
19F
100
AcDbEntity
  8
0
 62
     0
100
AcDbVertex
100
AcDbPolyFaceMeshVertex
 10
7.347408503730063
 20
16.5
 30
8.250000000000002
 70
   192
  0
VERTEX
  5
1A3
330
19F
100
AcDbEntity
  8
0
 62
     0
100
AcDbVertex
100
AcDbPolyFaceMeshVertex
 10
7.450961894323338
 20
18.0
 30
8.0
 70
   192
  0
VERTEX
  5
1A4
330
19F
100
AcDbEntity
  8
0
 62
     0
100
AcDbFaceRecord
 10
0.0
 20
0.0
 30
0.0
 70
   128
 71
    -1
 72
     2
 73
     3
  0
VERTEX
  5
1A5
330
19F
100
AcDbEntity
  8
0
 62
     0
100
AcDbFaceRecord
 10
0.0
 20
0.0
 30
0.0
 70
   128
 71
    -2
 72
     1
 73
     4
  0
SEQEND
  5
1A6
330
19F
100
AcDbEntity
  8
0
 62
     0
  0
ARC
  5
1A7
330
60
100
AcDbEntity
  8
0
 62
     0
100
AcDbCircle
 10
8.749999999999995
 20
8.75
 30
-16.5
 40
1.499999999999999
210
0.0
220
-1.0
230
0.0
100
AcDbArc
 50
199.6202859532824
 51
340.3797140467175
  0
LINE
  5
1A8
330
60
100
AcDbEntity
  8
0
 62
     0
100
AcDbLine
 10
7.347408503730063
 20
16.5
 30
8.250000000000002
 11
7.347408503730063
 21
18.0
 31
8.250000000000004
  0
ARC
  5
1A9
330
60
100
AcDbEntity
  8
0
 62
     0
100
AcDbCircle
 10
8.749999999999995
 20
8.75
 30
-18.0
 40
1.500000000000001
210
0.0
220
-1.0
230
0.0
100
AcDbArc
 50
199.6202859532824
 51
340.3797140467175
  0
LINE
  5
1AA
330
60
100
AcDbEntity
  8
0
 62
     0
100
AcDbLine
 10
7.450961894323338
 20
18.0
 30
8.0
 11
7.450961894323338
 21
16.5
 31
8.0
  0
POLYLINE
  5
1AB
330
60
100
AcDbEntity
  8
0
 62
     0
100
AcDbPolyFaceMesh
 66
     1
 10
0.0
 20
0.0
 30
0.0
 70
    64
 71
     4
 72
     2
1001
ACAD_MATERIAL_MAPPER
1070
     1
1070
     1
1070
     1
1011
-0.0000000000000008
1021
0.0
1031
0.0
1011
-25.40000000000001
1021
0.0
1031
0.0
1011
-0.0000000000000008
1021
25.40000000000001
1031
0.0
1011
-0.0000000000000008
1021
0.0
1031
1.0
  0
VERTEX
  5
1AC
330
1AB
100
AcDbEntity
  8
0
 62
     0
100
AcDbVertex
100
AcDbPolyFaceMeshVertex
 10
11.5
 20
22.8
 30
0.0
 70
   192
  0
VERTEX
  5
1AD
330
1AB
100
AcDbEntity
  8
0
 62
     0
100
AcDbVertex
100
AcDbPolyFaceMeshVertex
 10
6.0
 20
6.0
 30
0.0000000000000009
 70
   192
  0
VERTEX
  5
1AE
330
1AB
100
AcDbEntity
  8
0
 62
     0
100
AcDbVertex
100
AcDbPolyFaceMeshVertex
 10
6.0
 20
22.8
 30
0.0000000000000009
 70
   192
  0
VERTEX
  5
1AF
330
1AB
100
AcDbEntity
  8
0
 62
     0
100
AcDbVertex
100
AcDbPolyFaceMeshVertex
 10
11.5
 20
6.0
 30
0.0000000000000003
 70
   192
  0
VERTEX
  5
1B0
330
1AB
100
AcDbEntity
  8
0
 62
     0
100
AcDbFaceRecord
 10
0.0
 20
0.0
 30
0.0
 70
   128
 71
    -1
 72
     2
 73
     3
  0
VERTEX
  5
1B1
330
1AB
100
AcDbEntity
  8
0
 62
     0
100
AcDbFaceRecord
 10
0.0
 20
0.0
 30
0.0
 70
   128
 71
    -2
 72
     1
 73
     4
  0
SEQEND
  5
1B2
330
1AB
100
AcDbEntity
  8
0
 62
     0
  0
LINE
  5
1B3
330
60
100
AcDbEntity
  8
0
 62
     0
100
AcDbLine
 10
6.0
 20
6.0
 30
0.0000000000000009
 11
11.5
 21
6.0
 31
0.0000000000000003
  0
LINE
  5
1B4
330
60
100
AcDbEntity
  8
0
 62
     0
100
AcDbLine
 10
6.0
 20
22.8
 30
0.0000000000000009
 11
6.0
 21
6.0
 31
0.0000000000000009
  0
LINE
  5
1B5
330
60
100
AcDbEntity
  8
0
 62
     0
100
AcDbLine
 10
6.0
 20
22.8
 30
0.0000000000000009
 11
11.5
 21
22.8
 31
0.0
  0
LINE
  5
1B6
330
60
100
AcDbEntity
  8
0
 62
     0
100
AcDbLine
 10
11.5
 20
6.0
 30
0.0000000000000003
 11
11.5
 21
22.8
 31
0.0
  0
POLYLINE
  5
1B7
330
60
100
AcDbEntity
  8
0
 62
     0
100
AcDbPolyFaceMesh
 66
     1
 10
0.0
 20
0.0
 30
0.0
 70
    64
 71
     4
 72
     2
1001
ACAD_MATERIAL_MAPPER
1070
     1
1070
     1
1070
     1
1011
0.0
1021
-0.0000000000000002
1031
0.0
1011
0.0
1021
25.4
1031
0.0
1011
0.0
1021
-0.0000000000000002
1031
25.4
1011
1.0
1021
-0.0000000000000002
1031
0.0
  0
VERTEX
  5
1B8
330
1B7
100
AcDbEntity
  8
0
 62
     0
100
AcDbVertex
100
AcDbPolyFaceMeshVertex
 10
1.999999999999996
 20
22.8
 30
9.250000000000002
 70
   192
  0
VERTEX
  5
1B9
330
1B7
100
AcDbEntity
  8
0
 62
     0
100
AcDbVertex
100
AcDbPolyFaceMeshVertex
 10
1.999999999999996
 20
-0.4999999999999998
 30
15.5
 70
   192
  0
VERTEX
  5
1BA
330
1B7
100
AcDbEntity
  8
0
 62
     0
100
AcDbVertex
100
AcDbPolyFaceMeshVertex
 10
1.999999999999996
 20
-0.4999999999999998
 30
9.250000000000002
 70
   192
  0
VERTEX
  5
1BB
330
1B7
100
AcDbEntity
  8
0
 62
     0
100
AcDbVertex
100
AcDbPolyFaceMeshVertex
 10
1.999999999999996
 20
22.8
 30
15.5
 70
   192
  0
VERTEX
  5
1BC
330
1B7
100
AcDbEntity
  8
0
 62
     0
100
AcDbFaceRecord
 10
0.0
 20
0.0
 30
0.0
 70
   128
 71
    -1
 72
     2
 73
     3
  0
VERTEX
  5
1BD
330
1B7
100
AcDbEntity
  8
0
 62
     0
100
AcDbFaceRecord
 10
0.0
 20
0.0
 30
0.0
 70
   128
 71
    -2
 72
     1
 73
     4
  0
SEQEND
  5
1BE
330
1B7
100
AcDbEntity
  8
0
 62
     0
  0
LINE
  5
1BF
330
60
100
AcDbEntity
  8
0
 62
     0
100
AcDbLine
 10
1.999999999999996
 20
-0.4999999999999998
 30
9.250000000000002
 11
1.999999999999996
 21
-0.4999999999999998
 31
15.5
  0
LINE
  5
1C0
330
60
100
AcDbEntity
  8
0
 62
     0
100
AcDbLine
 10
1.999999999999996
 20
-0.4999999999999998
 30
9.250000000000002
 11
1.999999999999996
 21
22.8
 31
9.250000000000002
  0
LINE
  5
1C1
330
60
100
AcDbEntity
  8
0
 62
     0
100
AcDbLine
 10
1.999999999999996
 20
22.8
 30
15.5
 11
1.999999999999996
 21
22.8
 31
9.250000000000002
  0
LINE
  5
1C2
330
60
100
AcDbEntity
  8
0
 62
     0
100
AcDbLine
 10
1.999999999999996
 20
-0.4999999999999998
 30
15.5
 11
1.999999999999996
 21
22.8
 31
15.5
  0
POLYLINE
  5
1C3
330
60
100
AcDbEntity
  8
0
 62
     0
100
AcDbPolyFaceMesh
 66
     1
 10
0.0
 20
0.0
 30
0.0
 70
    64
 71
     4
 72
     2
1001
ACAD_MATERIAL_MAPPER
1070
     1
1070
     1
1070
     1
1011
0.0
1021
0.0
1031
0.0
1011
0.0
1021
1.0
1031
0.0
1011
0.0
1021
0.0
1031
1.0
1011
1.0
1021
0.0
1031
0.0
  0
VERTEX
  5
1C4
330
1C3
100
AcDbEntity
  8
0
 62
     0
100
AcDbVertex
100
AcDbPolyFaceMeshVertex
 10
7.450961894323338
 20
18.0
 30
8.0
 70
   192
  0
VERTEX
  5
1C5
330
1C3
100
AcDbEntity
  8
0
 62
     0
100
AcDbVertex
100
AcDbPolyFaceMeshVertex
 10
7.689339828220174
 20
16.5
 30
7.68933982822018
 70
   192
  0
VERTEX
  5
1C6
330
1C3
100
AcDbEntity
  8
0
 62
     0
100
AcDbVertex
100
AcDbPolyFaceMeshVertex
 10
7.450961894323338
 20
16.5
 30
8.0
 70
   192
  0
VERTEX
  5
1C7
330
1C3
100
AcDbEntity
  8
0
 62
     0
100
AcDbVertex
100
AcDbPolyFaceMeshVertex
 10
7.689339828220174
 20
18.0
 30
7.68933982822018
 70
   192
  0
VERTEX
  5
1C8
330
1C3
100
AcDbEntity
  8
0
 62
     0
100
AcDbFaceRecord
 10
0.0
 20
0.0
 30
0.0
 70
   128
 71
    -1
 72
     2
 73
     3
  0
VERTEX
  5
1C9
330
1C3
100
AcDbEntity
  8
0
 62
     0
100
AcDbFaceRecord
 10
0.0
 20
0.0
 30
0.0
 70
   128
 71
    -2
 72
     1
 73
     4
  0
SEQEND
  5
1CA
330
1C3
100
AcDbEntity
  8
0
 62
     0
  0
ARC
  5
1CB
330
60
100
AcDbEntity
  8
0
 62
     0
100
AcDbCircle
 10
8.749999999999995
 20
8.75
 30
-18.0
 40
1.500000000000001
210
0.0
220
-1.0
230
0.0
100
AcDbArc
 50
199.6202859532824
 51
340.3797140467175
  0
LINE
  5
1CC
330
60
100
AcDbEntity
  8
0
 62
     0
100
AcDbLine
 10
7.689339828220174
 20
18.0
 30
7.68933982822018
 11
7.689339828220174
 21
16.5
 31
7.68933982822018
  0
ARC
  5
1CD
330
60
100
AcDbEntity
  8
0
 62
     0
100
AcDbCircle
 10
8.749999999999995
 20
8.75
 30
-16.5
 40
1.499999999999999
210
0.0
220
-1.0
230
0.0
100
AcDbArc
 50
199.6202859532824
 51
340.3797140467175
  0
LINE
  5
1CE
330
60
100
AcDbEntity
  8
0
 62
     0
100
AcDbLine
 10
7.450961894323338
 20
18.0
 30
8.0
 11
7.450961894323338
 21
16.5
 31
8.0
  0
POLYLINE
  5
1CF
330
60
100
AcDbEntity
  8
0
 62
     0
100
AcDbPolyFaceMesh
 66
     1
 10
0.0
 20
0.0
 30
0.0
 70
    64
 71
     4
 72
     2
1001
ACAD_MATERIAL_MAPPER
1070
     1
1070
     1
1070
     1
1011
1.475522116135694
1021
-0.0000000000000732
1031
0.0
1011
1.475522116135694
1021
25.3999999999999
1031
0.0
1011
-23.70717736275916
1021
-0.0000000000000732
1031
0.0
1011
1.475522116135694
1021
-0.0000000000000732
1031
1.0
  0
VERTEX
  5
1D0
330
1CF
100
AcDbEntity
  8
0
 62
     0
100
AcDbVertex
100
AcDbPolyFaceMeshVertex
 10
9.138228567653778
 20
15.5
 30
10.1988887394336
 70
   192
  0
VERTEX
  5
1D1
330
1CF
100
AcDbEntity
  8
0
 62
     0
100
AcDbVertex
100
AcDbPolyFaceMeshVertex
 10
8.749999999999995
 20
18.0
 30
10.25
 70
   192
  0
VERTEX
  5
1D2
330
1CF
100
AcDbEntity
  8
0
 62
     0
100
AcDbVertex
100
AcDbPolyFaceMeshVertex
 10
8.749999999999995
 20
15.5
 30
10.25
 70
   192
  0
VERTEX
  5
1D3
330
1CF
100
AcDbEntity
  8
0
 62
     0
100
AcDbVertex
100
AcDbPolyFaceMeshVertex
 10
9.138228567653778
 20
18.0
 30
10.1988887394336
 70
   192
  0
VERTEX
  5
1D4
330
1CF
100
AcDbEntity
  8
0
 62
     0
100
AcDbFaceRecord
 10
0.0
 20
0.0
 30
0.0
 70
   128
 71
    -1
 72
     2
 73
     3
  0
VERTEX
  5
1D5
330
1CF
100
AcDbEntity
  8
0
 62
     0
100
AcDbFaceRecord
 10
0.0
 20
0.0
 30
0.0
 70
   128
 71
    -2
 72
     1
 73
     4
  0
SEQEND
  5
1D6
330
1CF
100
AcDbEntity
  8
0
 62
     0
  0
ARC
  5
1D7
330
60
100
AcDbEntity
  8
0
 62
     0
100
AcDbCircle
 10
8.749999999999995
 20
8.75
 30
-18.0
 40
1.5
210
0.0
220
-1.0
230
0.0
100
AcDbArc
 50
19.6202859532825
 51
160.3797140467175
  0
LINE
  5
1D8
330
60
100
AcDbEntity
  8
0
 62
     0
100
AcDbLine
 10
8.749999999999995
 20
18.0
 30
10.25
 11
8.749999999999995
 21
15.5
 31
10.25
  0
ARC
  5
1D9
330
60
100
AcDbEntity
  8
0
 62
     0
100
AcDbCircle
 10
8.749999999999995
 20
8.75
 30
-15.5
 40
1.499999999999999
210
0.0
220
-1.0
230
0.0
100
AcDbArc
 50
19.62028595328251
 51
160.3797140467175
  0
LINE
  5
1DA
330
60
100
AcDbEntity
  8
0
 62
     0
100
AcDbLine
 10
9.138228567653778
 20
18.0
 30
10.1988887394336
 11
9.138228567653778
 21
15.5
 31
10.1988887394336
  0
POLYLINE
  5
1DB
330
60
100
AcDbEntity
  8
0
 62
     0
100
AcDbPolyFaceMesh
 66
     1
 10
0.0
 20
0.0
 30
0.0
 70
    64
 71
     4
 72
     2
1001
ACAD_MATERIAL_MAPPER
1070
     1
1070
     1
1070
     1
1011
-1.177373096164755
1021
0.0000000000005853
1031
0.0
1011
-1.177373096164755
1021
-25.39999999999941
1031
0.0
1011
24.00532638272999
1021
0.0000000000005853
1031
0.0
1011
-1.177373096164755
1021
0.0000000000005853
1031
1.0
  0
VERTEX
  5
1DC
330
1DB
100
AcDbEntity
  8
0
 62
     0
100
AcDbVertex
100
AcDbPolyFaceMeshVertex
 10
8.749999999999995
 20
15.5
 30
10.25
 70
   192
  0
VERTEX
  5
1DD
330
1DB
100
AcDbEntity
  8
0
 62
     0
100
AcDbVertex
100
AcDbPolyFaceMeshVertex
 10
8.361771432346215
 20
18.0
 30
10.1988887394336
 70
   192
  0
VERTEX
  5
1DE
330
1DB
100
AcDbEntity
  8
0
 62
     0
100
AcDbVertex
100
AcDbPolyFaceMeshVertex
 10
8.361771432346215
 20
15.5
 30
10.1988887394336
 70
   192
  0
VERTEX
  5
1DF
330
1DB
100
AcDbEntity
  8
0
 62
     0
100
AcDbVertex
100
AcDbPolyFaceMeshVertex
 10
8.749999999999995
 20
18.0
 30
10.25
 70
   192
  0
VERTEX
  5
1E0
330
1DB
100
AcDbEntity
  8
0
 62
     0
100
AcDbFaceRecord
 10
0.0
 20
0.0
 30
0.0
 70
   128
 71
    -1
 72
     2
 73
     3
  0
VERTEX
  5
1E1
330
1DB
100
AcDbEntity
  8
0
 62
     0
100
AcDbFaceRecord
 10
0.0
 20
0.0
 30
0.0
 70
   128
 71
    -2
 72
     1
 73
     4
  0
SEQEND
  5
1E2
330
1DB
100
AcDbEntity
  8
0
 62
     0
  0
ARC
  5
1E3
330
60
100
AcDbEntity
  8
0
 62
     0
100
AcDbCircle
 10
8.749999999999995
 20
8.75
 30
-18.0
 40
1.5
210
0.0
220
-1.0
230
0.0
100
AcDbArc
 50
19.6202859532825
 51
160.3797140467175
  0
LINE
  5
1E4
330
60
100
AcDbEntity
  8
0
 62
     0
100
AcDbLine
 10
8.361771432346215
 20
18.0
 30
10.1988887394336
 11
8.361771432346215
 21
15.5
 31
10.1988887394336
  0
ARC
  5
1E5
330
60
100
AcDbEntity
  8
0
 62
     0
100
AcDbCircle
 10
8.749999999999995
 20
8.75
 30
-15.5
 40
1.499999999999999
210
0.0
220
-1.0
230
0.0
100
AcDbArc
 50
19.62028595328251
 51
160.3797140467175
  0
LINE
  5
1E6
330
60
100
AcDbEntity
  8
0
 62
     0
100
AcDbLine
 10
8.749999999999995
 20
18.0
 30
10.25
 11
8.749999999999995
 21
15.5
 31
10.25
  0
POLYLINE
  5
1E7
330
60
100
AcDbEntity
  8
0
 62
     0
100
AcDbPolyFaceMesh
 66
     1
 10
0.0
 20
0.0
 30
0.0
 70
    64
 71
     4
 72
     2
1001
ACAD_MATERIAL_MAPPER
1070
     1
1070
     1
1070
     1
1011
0.0
1021
0.0000000000001059
1031
4.944114283826868
1011
0.0
1021
25.4000000000001
1031
4.944114283826881
1011
0.0
1021
0.0000000000001059
1031
28.41065440961356
1011
1.0
1021
0.0000000000001059
1031
4.944114283826868
  0
VERTEX
  5
1E8
330
1E7
100
AcDbEntity
  8
0
 62
     0
100
AcDbVertex
100
AcDbPolyFaceMeshVertex
 10
10.15259149626993
 20
18.0
 30
9.250000000000002
 70
   192
  0
VERTEX
  5
1E9
330
1E7
100
AcDbEntity
  8
0
 62
     0
100
AcDbVertex
100
AcDbPolyFaceMeshVertex
 10
10.04903810567665
 20
15.5
 30
9.500000000000002
 70
   192
  0
VERTEX
  5
1EA
330
1E7
100
AcDbEntity
  8
0
 62
     0
100
AcDbVertex
100
AcDbPolyFaceMeshVertex
 10
10.15259149626993
 20
15.5
 30
9.250000000000002
 70
   192
  0
VERTEX
  5
1EB
330
1E7
100
AcDbEntity
  8
0
 62
     0
100
AcDbVertex
100
AcDbPolyFaceMeshVertex
 10
10.04903810567665
 20
18.0
 30
9.500000000000002
 70
   192
  0
VERTEX
  5
1EC
330
1E7
100
AcDbEntity
  8
0
 62
     0
100
AcDbFaceRecord
 10
0.0
 20
0.0
 30
0.0
 70
   128
 71
    -1
 72
     2
 73
     3
  0
VERTEX
  5
1ED
330
1E7
100
AcDbEntity
  8
0
 62
     0
100
AcDbFaceRecord
 10
0.0
 20
0.0
 30
0.0
 70
   128
 71
    -2
 72
     1
 73
     4
  0
SEQEND
  5
1EE
330
1E7
100
AcDbEntity
  8
0
 62
     0
  0
ARC
  5
1EF
330
60
100
AcDbEntity
  8
0
 62
     0
100
AcDbCircle
 10
8.749999999999995
 20
8.75
 30
-15.5
 40
1.499999999999999
210
0.0
220
-1.0
230
0.0
100
AcDbArc
 50
19.62028595328251
 51
160.3797140467175
  0
LINE
  5
1F0
330
60
100
AcDbEntity
  8
0
 62
     0
100
AcDbLine
 10
10.15259149626993
 20
15.5
 30
9.250000000000002
 11
10.15259149626993
 21
18.0
 31
9.250000000000002
  0
ARC
  5
1F1
330
60
100
AcDbEntity
  8
0
 62
     0
100
AcDbCircle
 10
8.749999999999995
 20
8.75
 30
-18.0
 40
1.5
210
0.0
220
-1.0
230
0.0
100
AcDbArc
 50
19.6202859532825
 51
160.3797140467175
  0
LINE
  5
1F2
330
60
100
AcDbEntity
  8
0
 62
     0
100
AcDbLine
 10
10.04903810567665
 20
18.0
 30
9.500000000000002
 11
10.04903810567665
 21
15.5
 31
9.500000000000002
  0
POLYLINE
  5
1F3
330
60
100
AcDbEntity
  8
0
 62
     0
100
AcDbPolyFaceMesh
 66
     1
 10
0.0
 20
0.0
 30
0.0
 70
    64
 71
     4
 72
     2
1001
ACAD_MATERIAL_MAPPER
1070
     1
1070
     1
1070
     1
1011
-1.888588898228175
1021
-0.0000000000000732
1031
0.0
1011
-1.888588898228175
1021
-25.40000000000005
1031
0.0
1011
18.26258594516927
1021
-0.0000000000000732
1031
0.0
1011
-1.888588898228175
1021
-0.0000000000000732
1031
1.0
  0
VERTEX
  5
1F4
330
1F3
100
AcDbEntity
  8
0
 62
     0
100
AcDbVertex
100
AcDbPolyFaceMeshVertex
 10
7.999999999999996
 20
15.5
 30
10.04903810567666
 70
   192
  0
VERTEX
  5
1F5
330
1F3
100
AcDbEntity
  8
0
 62
     0
100
AcDbVertex
100
AcDbPolyFaceMeshVertex
 10
7.689339828220174
 20
18.0
 30
9.810660171779823
 70
   192
  0
VERTEX
  5
1F6
330
1F3
100
AcDbEntity
  8
0
 62
     0
100
AcDbVertex
100
AcDbPolyFaceMeshVertex
 10
7.689339828220174
 20
15.5
 30
9.810660171779823
 70
   192
  0
VERTEX
  5
1F7
330
1F3
100
AcDbEntity
  8
0
 62
     0
100
AcDbVertex
100
AcDbPolyFaceMeshVertex
 10
7.999999999999996
 20
18.0
 30
10.04903810567666
 70
   192
  0
VERTEX
  5
1F8
330
1F3
100
AcDbEntity
  8
0
 62
     0
100
AcDbFaceRecord
 10
0.0
 20
0.0
 30
0.0
 70
   128
 71
    -1
 72
     2
 73
     3
  0
VERTEX
  5
1F9
330
1F3
100
AcDbEntity
  8
0
 62
     0
100
AcDbFaceRecord
 10
0.0
 20
0.0
 30
0.0
 70
   128
 71
    -2
 72
     1
 73
     4
  0
SEQEND
  5
1FA
330
1F3
100
AcDbEntity
  8
0
 62
     0
  0
ARC
  5
1FB
330
60
100
AcDbEntity
  8
0
 62
     0
100
AcDbCircle
 10
8.749999999999995
 20
8.75
 30
-18.0
 40
1.5
210
0.0
220
-1.0
230
0.0
100
AcDbArc
 50
19.6202859532825
 51
160.3797140467175
  0
LINE
  5
1FC
330
60
100
AcDbEntity
  8
0
 62
     0
100
AcDbLine
 10
7.689339828220174
 20
18.0
 30
9.810660171779823
 11
7.689339828220174
 21
15.5
 31
9.810660171779823
  0
ARC
  5
1FD
330
60
100
AcDbEntity
  8
0
 62
     0
100
AcDbCircle
 10
8.749999999999995
 20
8.75
 30
-15.5
 40
1.499999999999999
210
0.0
220
-1.0
230
0.0
100
AcDbArc
 50
19.62028595328251
 51
160.3797140467175
  0
LINE
  5
1FE
330
60
100
AcDbEntity
  8
0
 62
     0
100
AcDbLine
 10
7.999999999999996
 20
18.0
 30
10.04903810567666
 11
7.999999999999996
 21
15.5
 31
10.04903810567666
  0
POLYLINE
  5
1FF
330
60
100
AcDbEntity
  8
0
 62
     0
100
AcDbPolyFaceMesh
 66
     1
 10
0.0
 20
0.0
 30
0.0
 70
    64
 71
     4
 72
     2
1001
ACAD_MATERIAL_MAPPER
1070
     1
1070
     1
1070
     1
1011
8.373922253581096
1021
0.0000000000000732
1031
0.0
1011
8.373922253581096
1021
25.40000000000005
1031
0.0
1011
-11.77725258981632
1021
0.0000000000000732
1031
0.0
1011
8.373922253581096
1021
0.0000000000000732
1031
1.0
  0
VERTEX
  5
200
330
1FF
100
AcDbEntity
  8
0
 62
     0
100
AcDbVertex
100
AcDbPolyFaceMeshVertex
 10
9.810660171779816
 20
15.5
 30
9.810660171779823
 70
   192
  0
VERTEX
  5
201
330
1FF
100
AcDbEntity
  8
0
 62
     0
100
AcDbVertex
100
AcDbPolyFaceMeshVertex
 10
9.499999999999995
 20
18.0
 30
10.04903810567666
 70
   192
  0
VERTEX
  5
202
330
1FF
100
AcDbEntity
  8
0
 62
     0
100
AcDbVertex
100
AcDbPolyFaceMeshVertex
 10
9.499999999999995
 20
15.5
 30
10.04903810567666
 70
   192
  0
VERTEX
  5
203
330
1FF
100
AcDbEntity
  8
0
 62
     0
100
AcDbVertex
100
AcDbPolyFaceMeshVertex
 10
9.810660171779816
 20
18.0
 30
9.810660171779823
 70
   192
  0
VERTEX
  5
204
330
1FF
100
AcDbEntity
  8
0
 62
     0
100
AcDbFaceRecord
 10
0.0
 20
0.0
 30
0.0
 70
   128
 71
    -1
 72
     2
 73
     3
  0
VERTEX
  5
205
330
1FF
100
AcDbEntity
  8
0
 62
     0
100
AcDbFaceRecord
 10
0.0
 20
0.0
 30
0.0
 70
   128
 71
    -2
 72
     1
 73
     4
  0
SEQEND
  5
206
330
1FF
100
AcDbEntity
  8
0
 62
     0
  0
ARC
  5
207
330
60
100
AcDbEntity
  8
0
 62
     0
100
AcDbCircle
 10
8.749999999999995
 20
8.75
 30
-18.0
 40
1.5
210
0.0
220
-1.0
230
0.0
100
AcDbArc
 50
19.6202859532825
 51
160.3797140467175
  0
LINE
  5
208
330
60
100
AcDbEntity
  8
0
 62
     0
100
AcDbLine
 10
9.499999999999995
 20
18.0
 30
10.04903810567666
 11
9.499999999999995
 21
15.5
 31
10.04903810567666
  0
ARC
  5
209
330
60
100
AcDbEntity
  8
0
 62
     0
100
AcDbCircle
 10
8.749999999999995
 20
8.75
 30
-15.5
 40
1.499999999999999
210
0.0
220
-1.0
230
0.0
100
AcDbArc
 50
19.62028595328251
 51
160.3797140467175
  0
LINE
  5
20A
330
60
100
AcDbEntity
  8
0
 62
     0
100
AcDbLine
 10
9.810660171779816
 20
18.0
 30
9.810660171779823
 11
9.810660171779816
 21
15.5
 31
9.810660171779823
  0
POLYLINE
  5
20B
330
60
100
AcDbEntity
  8
0
 62
     0
100
AcDbPolyFaceMesh
 66
     1
 10
0.0
 20
0.0
 30
0.0
 70
    64
 71
     4
 72
     2
1001
ACAD_MATERIAL_MAPPER
1070
     1
1070
     1
1070
     1
1011
0.0
1021
0.0
1031
0.0
1011
25.4
1021
0.0
1031
0.0
1011
0.0
1021
0.0
1031
25.39999999999999
1011
0.0
1021
1.0
1031
0.0
  0
VERTEX
  5
20C
330
20B
100
AcDbEntity
  8
0
 62
     0
100
AcDbVertex
100
AcDbPolyFaceMeshVertex
 10
12.5
 20
6.0
 30
1.000000000000001
 70
   192
  0
VERTEX
  5
20D
330
20B
100
AcDbEntity
  8
0
 62
     0
100
AcDbVertex
100
AcDbPolyFaceMeshVertex
 10
6.0
 20
6.0
 30
0.0000000000000009
 70
   192
  0
VERTEX
  5
20E
330
20B
100
AcDbEntity
  8
0
 62
     0
100
AcDbVertex
100
AcDbPolyFaceMeshVertex
 10
11.5
 20
6.0
 30
0.0000000000000003
 70
   192
  0
VERTEX
  5
20F
330
20B
100
AcDbEntity
  8
0
 62
     0
100
AcDbVertex
100
AcDbPolyFaceMeshVertex
 10
5.0
 20
6.0
 30
1.000000000000001
 70
   192
  0
VERTEX
  5
210
330
20B
100
AcDbEntity
  8
0
 62
     0
100
AcDbFaceRecord
 10
0.0
 20
0.0
 30
0.0
 70
   128
 71
    -1
 72
     2
 73
     3
  0
VERTEX
  5
211
330
20B
100
AcDbEntity
  8
0
 62
     0
100
AcDbFaceRecord
 10
0.0
 20
0.0
 30
0.0
 70
   128
 71
    -2
 72
     1
 73
     4
  0
SEQEND
  5
212
330
20B
100
AcDbEntity
  8
0
 62
     0
  0
LINE
  5
213
330
60
100
AcDbEntity
  8
0
 62
     0
100
AcDbLine
 10
12.5
 20
6.0
 30
1.000000000000001
 11
5.0
 21
6.0
 31
1.000000000000001
  0
LINE
  5
214
330
60
100
AcDbEntity
  8
0
 62
     0
100
AcDbLine
 10
6.0
 20
6.0
 30
0.0000000000000009
 11
5.0
 21
6.0
 31
1.000000000000001
  0
LINE
  5
215
330
60
100
AcDbEntity
  8
0
 62
     0
100
AcDbLine
 10
6.0
 20
6.0
 30
0.0000000000000009
 11
11.5
 21
6.0
 31
0.0000000000000003
  0
LINE
  5
216
330
60
100
AcDbEntity
  8
0
 62
     0
100
AcDbLine
 10
12.5
 20
6.0
 30
1.000000000000001
 11
11.5
 21
6.0
 31
0.0000000000000003
  0
POLYLINE
  5
217
330
60
100
AcDbEntity
  8
0
 62
     0
100
AcDbPolyFaceMesh
 66
     1
 10
0.0
 20
0.0
 30
0.0
 70
    64
 71
     4
 72
     2
1001
ACAD_MATERIAL_MAPPER
1070
     1
1070
     1
1070
     1
1011
0.0
1021
0.0
1031
0.0
1011
1.0
1021
0.0
1031
0.0
1011
0.0
1021
1.0
1031
0.0
1011
0.0
1021
0.0
1031
1.0
  0
VERTEX
  5
218
330
217
100
AcDbEntity
  8
0
 62
     0
100
AcDbVertex
100
AcDbPolyFaceMeshVertex
 10
8.749999999999995
 20
18.0
 30
7.250000000000001
 70
   192
  0
VERTEX
  5
219
330
217
100
AcDbEntity
  8
0
 62
     0
100
AcDbVertex
100
AcDbPolyFaceMeshVertex
 10
8.361771432346213
 20
16.5
 30
7.301111260566398
 70
   192
  0
VERTEX
  5
21A
330
217
100
AcDbEntity
  8
0
 62
     0
100
AcDbVertex
100
AcDbPolyFaceMeshVertex
 10
8.361771432346213
 20
18.0
 30
7.301111260566398
 70
   192
  0
VERTEX
  5
21B
330
217
100
AcDbEntity
  8
0
 62
     0
100
AcDbVertex
100
AcDbPolyFaceMeshVertex
 10
8.749999999999995
 20
16.5
 30
7.250000000000001
 70
   192
  0
VERTEX
  5
21C
330
217
100
AcDbEntity
  8
0
 62
     0
100
AcDbFaceRecord
 10
0.0
 20
0.0
 30
0.0
 70
   128
 71
    -1
 72
     2
 73
     3
  0
VERTEX
  5
21D
330
217
100
AcDbEntity
  8
0
 62
     0
100
AcDbFaceRecord
 10
0.0
 20
0.0
 30
0.0
 70
   128
 71
    -2
 72
     1
 73
     4
  0
SEQEND
  5
21E
330
217
100
AcDbEntity
  8
0
 62
     0
  0
ARC
  5
21F
330
60
100
AcDbEntity
  8
0
 62
     0
100
AcDbCircle
 10
8.749999999999995
 20
8.75
 30
-18.0
 40
1.500000000000001
210
0.0
220
-1.0
230
0.0
100
AcDbArc
 50
199.6202859532824
 51
340.3797140467175
  0
LINE
  5
220
330
60
100
AcDbEntity
  8
0
 62
     0
100
AcDbLine
 10
8.749999999999995
 20
18.0
 30
7.250000000000001
 11
8.749999999999995
 21
16.5
 31
7.250000000000001
  0
ARC
  5
221
330
60
100
AcDbEntity
  8
0
 62
     0
100
AcDbCircle
 10
8.749999999999995
 20
8.75
 30
-16.5
 40
1.499999999999999
210
0.0
220
-1.0
230
0.0
100
AcDbArc
 50
199.6202859532824
 51
340.3797140467175
  0
LINE
  5
222
330
60
100
AcDbEntity
  8
0
 62
     0
100
AcDbLine
 10
8.361771432346213
 20
18.0
 30
7.301111260566398
 11
8.361771432346213
 21
16.5
 31
7.301111260566398
  0
POLYLINE
  5
223
330
60
100
AcDbEntity
  8
0
 62
     0
100
AcDbPolyFaceMesh
 66
     1
 10
0.0
 20
0.0
 30
0.0
 70
    64
 71
     4
 72
     2
1001
ACAD_MATERIAL_MAPPER
1070
     1
1070
     1
1070
     1
1011
5.750000000000005
1021
0.0
1031
0.0
1011
5.750000000000005
1021
25.4
1031
0.0
1011
23.71051224213829
1021
0.0
1031
0.0
1011
5.750000000000005
1021
0.0
1031
1.0
  0
VERTEX
  5
224
330
223
100
AcDbEntity
  8
0
 62
     0
100
AcDbVertex
100
AcDbPolyFaceMeshVertex
 10
12.5
 20
22.8
 30
1.0
 70
   192
  0
VERTEX
  5
225
330
223
100
AcDbEntity
  8
0
 62
     0
100
AcDbVertex
100
AcDbPolyFaceMeshVertex
 10
11.5
 20
6.0
 30
0.0000000000000003
 70
   192
  0
VERTEX
  5
226
330
223
100
AcDbEntity
  8
0
 62
     0
100
AcDbVertex
100
AcDbPolyFaceMeshVertex
 10
11.5
 20
22.8
 30
0.0
 70
   192
  0
VERTEX
  5
227
330
223
100
AcDbEntity
  8
0
 62
     0
100
AcDbVertex
100
AcDbPolyFaceMeshVertex
 10
12.5
 20
6.0
 30
1.000000000000001
 70
   192
  0
VERTEX
  5
228
330
223
100
AcDbEntity
  8
0
 62
     0
100
AcDbFaceRecord
 10
0.0
 20
0.0
 30
0.0
 70
   128
 71
    -1
 72
     2
 73
     3
  0
VERTEX
  5
229
330
223
100
AcDbEntity
  8
0
 62
     0
100
AcDbFaceRecord
 10
0.0
 20
0.0
 30
0.0
 70
   128
 71
    -2
 72
     1
 73
     4
  0
SEQEND
  5
22A
330
223
100
AcDbEntity
  8
0
 62
     0
  0
LINE
  5
22B
330
60
100
AcDbEntity
  8
0
 62
     0
100
AcDbLine
 10
12.5
 20
22.8
 30
1.0
 11
12.5
 21
6.0
 31
1.000000000000001
  0
LINE
  5
22C
330
60
100
AcDbEntity
  8
0
 62
     0
100
AcDbLine
 10
12.5
 20
6.0
 30
1.000000000000001
 11
11.5
 21
6.0
 31
0.0000000000000003
  0
LINE
  5
22D
330
60
100
AcDbEntity
  8
0
 62
     0
100
AcDbLine
 10
11.5
 20
6.0
 30
0.0000000000000003
 11
11.5
 21
22.8
 31
0.0
  0
LINE
  5
22E
330
60
100
AcDbEntity
  8
0
 62
     0
100
AcDbLine
 10
11.5
 20
22.8
 30
0.0
 11
12.5
 21
22.8
 31
1.0
  0
POLYLINE
  5
22F
330
60
100
AcDbEntity
  8
0
 62
     0
100
AcDbPolyFaceMesh
 66
     1
 10
0.0
 20
0.0
 30
0.0
 70
    64
 71
     4
 72
     2
1001
ACAD_MATERIAL_MAPPER
1070
     1
1070
     1
1070
     1
1011
0.0
1021
0.0
1031
-0.0000000000000005
1011
0.0
1021
-25.4
1031
-0.0000000000000005
1011
0.0
1021
0.0
1031
25.4
1011
1.0
1021
0.0
1031
-0.0000000000000005
  0
VERTEX
  5
230
330
22F
100
AcDbEntity
  8
0
 62
     0
100
AcDbVertex
100
AcDbPolyFaceMeshVertex
 10
15.5
 20
22.8
 30
8.250000000000002
 70
   192
  0
VERTEX
  5
231
330
22F
100
AcDbEntity
  8
0
 62
     0
100
AcDbVertex
100
AcDbPolyFaceMeshVertex
 10
15.5
 20
-0.4999999999999998
 30
2.0
 70
   192
  0
VERTEX
  5
232
330
22F
100
AcDbEntity
  8
0
 62
     0
100
AcDbVertex
100
AcDbPolyFaceMeshVertex
 10
15.5
 20
-0.4999999999999998
 30
8.250000000000002
 70
   192
  0
VERTEX
  5
233
330
22F
100
AcDbEntity
  8
0
 62
     0
100
AcDbVertex
100
AcDbPolyFaceMeshVertex
 10
15.5
 20
22.8
 30
2.0
 70
   192
  0
VERTEX
  5
234
330
22F
100
AcDbEntity
  8
0
 62
     0
100
AcDbFaceRecord
 10
0.0
 20
0.0
 30
0.0
 70
   128
 71
    -1
 72
     2
 73
     3
  0
VERTEX
  5
235
330
22F
100
AcDbEntity
  8
0
 62
     0
100
AcDbFaceRecord
 10
0.0
 20
0.0
 30
0.0
 70
   128
 71
    -2
 72
     1
 73
     4
  0
SEQEND
  5
236
330
22F
100
AcDbEntity
  8
0
 62
     0
  0
LINE
  5
237
330
60
100
AcDbEntity
  8
0
 62
     0
100
AcDbLine
 10
15.5
 20
-0.4999999999999998
 30
8.250000000000002
 11
15.5
 21
-0.4999999999999998
 31
2.0
  0
LINE
  5
238
330
60
100
AcDbEntity
  8
0
 62
     0
100
AcDbLine
 10
15.5
 20
22.8
 30
8.250000000000002
 11
15.5
 21
-0.4999999999999998
 31
8.250000000000002
  0
LINE
  5
239
330
60
100
AcDbEntity
  8
0
 62
     0
100
AcDbLine
 10
15.5
 20
22.8
 30
2.0
 11
15.5
 21
22.8
 31
8.250000000000002
  0
LINE
  5
23A
330
60
100
AcDbEntity
  8
0
 62
     0
100
AcDbLine
 10
15.5
 20
-0.4999999999999998
 30
2.0
 11
15.5
 21
22.8
 31
2.0
  0
POLYLINE
  5
23B
330
60
100
AcDbEntity
  8
0
 62
     0
100
AcDbPolyFaceMesh
 66
     1
 10
0.0
 20
0.0
 30
0.0
 70
    64
 71
     4
 72
     2
1001
ACAD_MATERIAL_MAPPER
1070
     1
1070
     1
1070
     1
1011
0.0
1021
-0.000000000000006
1031
7.75
1011
0.0
1021
-25.4
1031
7.75
1011
0.0
1021
-0.000000000000006
1031
25.71051224213831
1011
1.0
1021
-0.000000000000006
1031
7.75
  0
VERTEX
  5
23C
330
23B
100
AcDbEntity
  8
0
 62
     0
100
AcDbVertex
100
AcDbPolyFaceMeshVertex
 10
14.5
 20
22.8
 30
1.0
 70
   192
  0
VERTEX
  5
23D
330
23B
100
AcDbEntity
  8
0
 62
     0
100
AcDbVertex
100
AcDbPolyFaceMeshVertex
 10
15.5
 20
6.0
 30
0.0000000000000001
 70
   192
  0
VERTEX
  5
23E
330
23B
100
AcDbEntity
  8
0
 62
     0
100
AcDbVertex
100
AcDbPolyFaceMeshVertex
 10
14.5
 20
6.0
 30
1.000000000000001
 70
   192
  0
VERTEX
  5
23F
330
23B
100
AcDbEntity
  8
0
 62
     0
100
AcDbVertex
100
AcDbPolyFaceMeshVertex
 10
15.49999999999999
 20
22.8
 30
0.0000000000000004
 70
   192
  0
VERTEX
  5
240
330
23B
100
AcDbEntity
  8
0
 62
     0
100
AcDbFaceRecord
 10
0.0
 20
0.0
 30
0.0
 70
   128
 71
    -1
 72
     2
 73
     3
  0
VERTEX
  5
241
330
23B
100
AcDbEntity
  8
0
 62
     0
100
AcDbFaceRecord
 10
0.0
 20
0.0
 30
0.0
 70
   128
 71
    -2
 72
     1
 73
     4
  0
SEQEND
  5
242
330
23B
100
AcDbEntity
  8
0
 62
     0
  0
LINE
  5
243
330
60
100
AcDbEntity
  8
0
 62
     0
100
AcDbLine
 10
15.5
 20
6.0
 30
0.0000000000000001
 11
14.5
 21
6.0
 31
1.000000000000001
  0
LINE
  5
244
330
60
100
AcDbEntity
  8
0
 62
     0
100
AcDbLine
 10
14.5
 20
6.0
 30
1.000000000000001
 11
14.5
 21
22.8
 31
1.0
  0
LINE
  5
245
330
60
100
AcDbEntity
  8
0
 62
     0
100
AcDbLine
 10
14.5
 20
22.8
 30
1.0
 11
15.49999999999999
 21
22.8
 31
0.0000000000000004
  0
LINE
  5
246
330
60
100
AcDbEntity
  8
0
 62
     0
100
AcDbLine
 10
15.49999999999999
 20
22.8
 30
0.0000000000000004
 11
15.5
 21
6.0
 31
0.0000000000000001
  0
POLYLINE
  5
247
330
60
100
AcDbEntity
  8
0
 62
     0
100
AcDbPolyFaceMesh
 66
     1
 10
0.0
 20
0.0
 30
0.0
 70
    64
 71
     4
 72
     2
1001
ACAD_MATERIAL_MAPPER
1070
     1
1070
     1
1070
     1
1011
0.0
1021
0.0000000000001791
1031
0.0000000000000746
1011
0.0
1021
25.40000000000019
1031
0.0000000000000746
1011
0.0
1021
0.0000000000001791
1031
25.40000000000007
1011
1.0
1021
0.0000000000001791
1031
0.0000000000000746
  0
VERTEX
  5
248
330
247
100
AcDbEntity
  8
0
 62
     0
100
AcDbVertex
100
AcDbPolyFaceMeshVertex
 10
4.749999999999997
 20
22.8
 30
8.250000000000002
 70
   192
  0
VERTEX
  5
249
330
247
100
AcDbEntity
  8
0
 62
     0
100
AcDbVertex
100
AcDbPolyFaceMeshVertex
 10
4.749999999999997
 20
18.0
 30
9.250000000000002
 70
   192
  0
VERTEX
  5
24A
330
247
100
AcDbEntity
  8
0
 62
     0
100
AcDbVertex
100
AcDbPolyFaceMeshVertex
 10
4.749999999999997
 20
18.0
 30
8.250000000000002
 70
   192
  0
VERTEX
  5
24B
330
247
100
AcDbEntity
  8
0
 62
     0
100
AcDbVertex
100
AcDbPolyFaceMeshVertex
 10
4.749999999999997
 20
22.8
 30
9.250000000000002
 70
   192
  0
VERTEX
  5
24C
330
247
100
AcDbEntity
  8
0
 62
     0
100
AcDbFaceRecord
 10
0.0
 20
0.0
 30
0.0
 70
   128
 71
    -1
 72
     2
 73
     3
  0
VERTEX
  5
24D
330
247
100
AcDbEntity
  8
0
 62
     0
100
AcDbFaceRecord
 10
0.0
 20
0.0
 30
0.0
 70
   128
 71
    -2
 72
     1
 73
     4
  0
SEQEND
  5
24E
330
247
100
AcDbEntity
  8
0
 62
     0
  0
LINE
  5
24F
330
60
100
AcDbEntity
  8
0
 62
     0
100
AcDbLine
 10
4.749999999999997
 20
18.0
 30
9.250000000000002
 11
4.749999999999997
 21
18.0
 31
8.250000000000002
  0
LINE
  5
250
330
60
100
AcDbEntity
  8
0
 62
     0
100
AcDbLine
 10
4.749999999999997
 20
22.8
 30
8.250000000000002
 11
4.749999999999997
 21
18.0
 31
8.250000000000002
  0
LINE
  5
251
330
60
100
AcDbEntity
  8
0
 62
     0
100
AcDbLine
 10
4.749999999999997
 20
22.8
 30
9.250000000000002
 11
4.749999999999997
 21
22.8
 31
8.250000000000002
  0
LINE
  5
252
330
60
100
AcDbEntity
  8
0
 62
     0
100
AcDbLine
 10
4.749999999999997
 20
18.0
 30
9.250000000000002
 11
4.749999999999997
 21
22.8
 31
9.250000000000002
  0
POLYLINE
  5
253
330
60
100
AcDbEntity
  8
0
 62
     0
100
AcDbPolyFaceMesh
 66
     1
 10
0.0
 20
0.0
 30
0.0
 70
    64
 71
     4
 72
     2
1001
ACAD_MATERIAL_MAPPER
1070
     1
1070
     1
1070
     1
1011
0.0
1021
0.0
1031
0.0
1011
0.0
1021
1.0
1031
0.0
1011
0.0
1021
0.0
1031
1.0
1011
1.0
1021
0.0
1031
0.0
  0
VERTEX
  5
254
330
253
100
AcDbEntity
  8
0
 62
     0
100
AcDbVertex
100
AcDbPolyFaceMeshVertex
 10
9.810660171779816
 20
18.0
 30
7.68933982822018
 70
   192
  0
VERTEX
  5
255
330
253
100
AcDbEntity
  8
0
 62
     0
100
AcDbVertex
100
AcDbPolyFaceMeshVertex
 10
10.04903810567665
 20
16.5
 30
8.0
 70
   192
  0
VERTEX
  5
256
330
253
100
AcDbEntity
  8
0
 62
     0
100
AcDbVertex
100
AcDbPolyFaceMeshVertex
 10
9.810660171779816
 20
16.5
 30
7.68933982822018
 70
   192
  0
VERTEX
  5
257
330
253
100
AcDbEntity
  8
0
 62
     0
100
AcDbVertex
100
AcDbPolyFaceMeshVertex
 10
10.04903810567665
 20
18.0
 30
8.0
 70
   192
  0
VERTEX
  5
258
330
253
100
AcDbEntity
  8
0
 62
     0
100
AcDbFaceRecord
 10
0.0
 20
0.0
 30
0.0
 70
   128
 71
    -1
 72
     2
 73
     3
  0
VERTEX
  5
259
330
253
100
AcDbEntity
  8
0
 62
     0
100
AcDbFaceRecord
 10
0.0
 20
0.0
 30
0.0
 70
   128
 71
    -2
 72
     1
 73
     4
  0
SEQEND
  5
25A
330
253
100
AcDbEntity
  8
0
 62
     0
  0
ARC
  5
25B
330
60
100
AcDbEntity
  8
0
 62
     0
100
AcDbCircle
 10
8.749999999999995
 20
8.75
 30
-18.0
 40
1.500000000000001
210
0.0
220
-1.0
230
0.0
100
AcDbArc
 50
199.6202859532824
 51
340.3797140467175
  0
LINE
  5
25C
330
60
100
AcDbEntity
  8
0
 62
     0
100
AcDbLine
 10
10.04903810567665
 20
18.0
 30
8.0
 11
10.04903810567665
 21
16.5
 31
8.0
  0
ARC
  5
25D
330
60
100
AcDbEntity
  8
0
 62
     0
100
AcDbCircle
 10
8.749999999999995
 20
8.75
 30
-16.5
 40
1.499999999999999
210
0.0
220
-1.0
230
0.0
100
AcDbArc
 50
199.6202859532824
 51
340.3797140467175
  0
LINE
  5
25E
330
60
100
AcDbEntity
  8
0
 62
     0
100
AcDbLine
 10
9.810660171779816
 20
18.0
 30
7.68933982822018
 11
9.810660171779816
 21
16.5
 31
7.68933982822018
  0
POLYLINE
  5
25F
330
60
100
AcDbEntity
  8
0
 62
     0
100
AcDbPolyFaceMesh
 66
     1
 10
0.0
 20
0.0
 30
0.0
 70
    64
 71
     4
 72
     2
1001
ACAD_MATERIAL_MAPPER
1070
     1
1070
     1
1070
     1
1011
0.0
1021
0.000000000000001
1031
0.0
1011
0.0
1021
25.4
1031
0.0
1011
0.0
1021
0.000000000000001
1031
25.4
1011
1.0
1021
0.000000000000001
1031
0.0
  0
VERTEX
  5
260
330
25F
100
AcDbEntity
  8
0
 62
     0
100
AcDbVertex
100
AcDbPolyFaceMeshVertex
 10
17.5
 20
22.8
 30
0.0
 70
   192
  0
VERTEX
  5
261
330
25F
100
AcDbEntity
  8
0
 62
     0
100
AcDbVertex
100
AcDbPolyFaceMeshVertex
 10
17.5
 20
6.0
 30
17.5
 70
   192
  0
VERTEX
  5
262
330
25F
100
AcDbEntity
  8
0
 62
     0
100
AcDbVertex
100
AcDbPolyFaceMeshVertex
 10
17.5
 20
6.0
 30
0.0
 70
   192
  0
VERTEX
  5
263
330
25F
100
AcDbEntity
  8
0
 62
     0
100
AcDbVertex
100
AcDbPolyFaceMeshVertex
 10
17.5
 20
22.8
 30
17.5
 70
   192
  0
VERTEX
  5
264
330
25F
100
AcDbEntity
  8
0
 62
     0
100
AcDbFaceRecord
 10
0.0
 20
0.0
 30
0.0
 70
   128
 71
    -1
 72
     2
 73
     3
  0
VERTEX
  5
265
330
25F
100
AcDbEntity
  8
0
 62
     0
100
AcDbFaceRecord
 10
0.0
 20
0.0
 30
0.0
 70
   128
 71
    -2
 72
     1
 73
     4
  0
SEQEND
  5
266
330
25F
100
AcDbEntity
  8
0
 62
     0
  0
LINE
  5
267
330
60
100
AcDbEntity
  8
0
 62
     0
100
AcDbLine
 10
17.5
 20
6.0
 30
0.0
 11
17.5
 21
6.0
 31
17.5
  0
LINE
  5
268
330
60
100
AcDbEntity
  8
0
 62
     0
100
AcDbLine
 10
17.5
 20
6.0
 30
0.0
 11
17.5
 21
22.8
 31
0.0
  0
LINE
  5
269
330
60
100
AcDbEntity
  8
0
 62
     0
100
AcDbLine
 10
17.5
 20
22.8
 30
0.0
 11
17.5
 21
22.8
 31
17.5
  0
LINE
  5
26A
330
60
100
AcDbEntity
  8
0
 62
     0
100
AcDbLine
 10
17.5
 20
6.0
 30
17.5
 11
17.5
 21
22.8
 31
17.5
  0
POLYLINE
  5
26B
330
60
100
AcDbEntity
  8
0
 62
     0
100
AcDbPolyFaceMesh
 66
     1
 10
0.0
 20
0.0
 30
0.0
 70
    64
 71
     4
 72
     2
1001
ACAD_MATERIAL_MAPPER
1070
     1
1070
     1
1070
     1
1011
0.0
1021
0.0000000000000001
1031
-0.0000000000000004
1011
0.0
1021
-25.4
1031
-0.0000000000000004
1011
0.0
1021
0.0000000000000001
1031
25.4
1011
1.0
1021
0.0000000000000001
1031
-0.0000000000000004
  0
VERTEX
  5
26C
330
26B
100
AcDbEntity
  8
0
 62
     0
100
AcDbVertex
100
AcDbPolyFaceMeshVertex
 10
0.9999999999999981
 20
6.0
 30
16.5
 70
   192
  0
VERTEX
  5
26D
330
26B
100
AcDbEntity
  8
0
 62
     0
100
AcDbVertex
100
AcDbPolyFaceMeshVertex
 10
0.9999999999999981
 20
-0.4999999999999998
 30
1.000000000000001
 70
   192
  0
VERTEX
  5
26E
330
26B
100
AcDbEntity
  8
0
 62
     0
100
AcDbVertex
100
AcDbPolyFaceMeshVertex
 10
0.9999999999999981
 20
-0.4999999999999998
 30
16.5
 70
   192
  0
VERTEX
  5
26F
330
26B
100
AcDbEntity
  8
0
 62
     0
100
AcDbVertex
100
AcDbPolyFaceMeshVertex
 10
0.9999999999999981
 20
6.0
 30
1.000000000000001
 70
   192
  0
VERTEX
  5
270
330
26B
100
AcDbEntity
  8
0
 62
     0
100
AcDbFaceRecord
 10
0.0
 20
0.0
 30
0.0
 70
   128
 71
    -1
 72
     2
 73
     3
  0
VERTEX
  5
271
330
26B
100
AcDbEntity
  8
0
 62
     0
100
AcDbFaceRecord
 10
0.0
 20
0.0
 30
0.0
 70
   128
 71
    -2
 72
     1
 73
     4
  0
SEQEND
  5
272
330
26B
100
AcDbEntity
  8
0
 62
     0
  0
LINE
  5
273
330
60
100
AcDbEntity
  8
0
 62
     0
100
AcDbLine
 10
0.9999999999999981
 20
-0.4999999999999998
 30
16.5
 11
0.9999999999999981
 21
-0.4999999999999998
 31
1.000000000000001
  0
LINE
  5
274
330
60
100
AcDbEntity
  8
0
 62
     0
100
AcDbLine
 10
0.9999999999999981
 20
-0.4999999999999998
 30
16.5
 11
0.9999999999999981
 21
6.0
 31
16.5
  0
LINE
  5
275
330
60
100
AcDbEntity
  8
0
 62
     0
100
AcDbLine
 10
0.9999999999999981
 20
6.0
 30
1.000000000000001
 11
0.9999999999999981
 21
6.0
 31
16.5
  0
LINE
  5
276
330
60
100
AcDbEntity
  8
0
 62
     0
100
AcDbLine
 10
0.9999999999999981
 20
-0.4999999999999998
 30
1.000000000000001
 11
0.9999999999999981
 21
6.0
 31
1.000000000000001
  0
POLYLINE
  5
277
330
60
100
AcDbEntity
  8
0
 62
     0
100
AcDbPolyFaceMesh
 66
     1
 10
0.0
 20
0.0
 30
0.0
 70
    64
 71
     4
 72
     2
1001
ACAD_MATERIAL_MAPPER
1070
     1
1070
     1
1070
     1
1011
0.0
1021
0.0
1031
-0.0000000000000005
1011
0.0
1021
25.4
1031
-0.0000000000000005
1011
0.0
1021
0.0
1031
25.4
1011
1.0
1021
0.0
1031
-0.0000000000000005
  0
VERTEX
  5
278
330
277
100
AcDbEntity
  8
0
 62
     0
100
AcDbVertex
100
AcDbPolyFaceMeshVertex
 10
1.999999999999996
 20
22.8
 30
2.000000000000002
 70
   192
  0
VERTEX
  5
279
330
277
100
AcDbEntity
  8
0
 62
     0
100
AcDbVertex
100
AcDbPolyFaceMeshVertex
 10
1.999999999999996
 20
-0.4999999999999998
 30
8.250000000000002
 70
   192
  0
VERTEX
  5
27A
330
277
100
AcDbEntity
  8
0
 62
     0
100
AcDbVertex
100
AcDbPolyFaceMeshVertex
 10
1.999999999999996
 20
-0.4999999999999998
 30
2.000000000000002
 70
   192
  0
VERTEX
  5
27B
330
277
100
AcDbEntity
  8
0
 62
     0
100
AcDbVertex
100
AcDbPolyFaceMeshVertex
 10
1.999999999999996
 20
22.8
 30
8.250000000000002
 70
   192
  0
VERTEX
  5
27C
330
277
100
AcDbEntity
  8
0
 62
     0
100
AcDbFaceRecord
 10
0.0
 20
0.0
 30
0.0
 70
   128
 71
    -1
 72
     2
 73
     3
  0
VERTEX
  5
27D
330
277
100
AcDbEntity
  8
0
 62
     0
100
AcDbFaceRecord
 10
0.0
 20
0.0
 30
0.0
 70
   128
 71
    -2
 72
     1
 73
     4
  0
SEQEND
  5
27E
330
277
100
AcDbEntity
  8
0
 62
     0
  0
LINE
  5
27F
330
60
100
AcDbEntity
  8
0
 62
     0
100
AcDbLine
 10
1.999999999999996
 20
22.8
 30
8.250000000000002
 11
1.999999999999996
 21
22.8
 31
2.000000000000002
  0
LINE
  5
280
330
60
100
AcDbEntity
  8
0
 62
     0
100
AcDbLine
 10
1.999999999999996
 20
-0.4999999999999998
 30
8.250000000000002
 11
1.999999999999996
 21
22.8
 31
8.250000000000002
  0
LINE
  5
281
330
60
100
AcDbEntity
  8
0
 62
     0
100
AcDbLine
 10
1.999999999999996
 20
-0.4999999999999998
 30
2.000000000000002
 11
1.999999999999996
 21
-0.4999999999999998
 31
8.250000000000002
  0
LINE
  5
282
330
60
100
AcDbEntity
  8
0
 62
     0
100
AcDbLine
 10
1.999999999999996
 20
-0.4999999999999998
 30
2.000000000000002
 11
1.999999999999996
 21
22.8
 31
2.000000000000002
  0
POLYLINE
  5
283
330
60
100
AcDbEntity
  8
0
 62
     0
100
AcDbPolyFaceMesh
 66
     1
 10
0.0
 20
0.0
 30
0.0
 70
    64
 71
    12
 72
    14
1001
ACAD_MATERIAL_MAPPER
1070
     1
1070
     1
1070
     1
1011
-0.0000000000000014
1021
0.0
1031
-0.0000000000000001
1011
25.4
1021
0.0
1031
-0.0000000000000001
1011
0.0000000000000757
1021
0.0
1031
25.4
1011
-0.0000000000000014
1021
1.0
1031
-0.0000000000000001
  0
VERTEX
  5
284
330
283
100
AcDbEntity
  8
0
 62
     0
100
AcDbVertex
100
AcDbPolyFaceMeshVertex
 10
16.5
 20
-0.4999999999999998
 30
1.000000000000001
 70
   192
  0
VERTEX
  5
285
330
283
100
AcDbEntity
  8
0
 62
     0
100
AcDbVertex
100
AcDbPolyFaceMeshVertex
 10
15.5
 20
-0.4999999999999998
 30
2.0
 70
   192
  0
VERTEX
  5
286
330
283
100
AcDbEntity
  8
0
 62
     0
100
AcDbVertex
100
AcDbPolyFaceMeshVertex
 10
0.9999999999999981
 20
-0.4999999999999998
 30
1.000000000000001
 70
   192
  0
VERTEX
  5
287
330
283
100
AcDbEntity
  8
0
 62
     0
100
AcDbVertex
100
AcDbPolyFaceMeshVertex
 10
16.5
 20
-0.4999999999999998
 30
16.5
 70
   192
  0
VERTEX
  5
288
330
283
100
AcDbEntity
  8
0
 62
     0
100
AcDbVertex
100
AcDbPolyFaceMeshVertex
 10
15.5
 20
-0.4999999999999998
 30
8.250000000000002
 70
   192
  0
VERTEX
  5
289
330
283
100
AcDbEntity
  8
0
 62
     0
100
AcDbVertex
100
AcDbPolyFaceMeshVertex
 10
15.5
 20
-0.4999999999999998
 30
9.250000000000002
 70
   192
  0
VERTEX
  5
28A
330
283
100
AcDbEntity
  8
0
 62
     0
100
AcDbVertex
100
AcDbPolyFaceMeshVertex
 10
1.999999999999996
 20
-0.4999999999999998
 30
8.250000000000002
 70
   192
  0
VERTEX
  5
28B
330
283
100
AcDbEntity
  8
0
 62
     0
100
AcDbVertex
100
AcDbPolyFaceMeshVertex
 10
15.5
 20
-0.4999999999999998
 30
15.5
 70
   192
  0
VERTEX
  5
28C
330
283
100
AcDbEntity
  8
0
 62
     0
100
AcDbVertex
100
AcDbPolyFaceMeshVertex
 10
1.999999999999996
 20
-0.4999999999999998
 30
15.5
 70
   192
  0
VERTEX
  5
28D
330
283
100
AcDbEntity
  8
0
 62
     0
100
AcDbVertex
100
AcDbPolyFaceMeshVertex
 10
1.999999999999996
 20
-0.4999999999999998
 30
2.000000000000002
 70
   192
  0
VERTEX
  5
28E
330
283
100
AcDbEntity
  8
0
 62
     0
100
AcDbVertex
100
AcDbPolyFaceMeshVertex
 10
0.9999999999999981
 20
-0.4999999999999998
 30
16.5
 70
   192
  0
VERTEX
  5
28F
330
283
100
AcDbEntity
  8
0
 62
     0
100
AcDbVertex
100
AcDbPolyFaceMeshVertex
 10
1.999999999999996
 20
-0.4999999999999998
 30
9.250000000000002
 70
   192
  0
VERTEX
  5
290
330
283
100
AcDbEntity
  8
0
 62
     0
100
AcDbFaceRecord
 10
0.0
 20
0.0
 30
0.0
 70
   128
 71
    -1
 72
    -2
 73
     3
  0
VERTEX
  5
291
330
283
100
AcDbEntity
  8
0
 62
     0
100
AcDbFaceRecord
 10
0.0
 20
0.0
 30
0.0
 70
   128
 71
    -2
 72
     1
 73
    -4
  0
VERTEX
  5
292
330
283
100
AcDbEntity
  8
0
 62
     0
100
AcDbFaceRecord
 10
0.0
 20
0.0
 30
0.0
 70
   128
 71
    -2
 72
    -4
 73
     5
  0
VERTEX
  5
293
330
283
100
AcDbEntity
  8
0
 62
     0
100
AcDbFaceRecord
 10
0.0
 20
0.0
 30
0.0
 70
   128
 71
    -5
 72
    -4
 73
    -6
  0
VERTEX
  5
294
330
283
100
AcDbEntity
  8
0
 62
     0
100
AcDbFaceRecord
 10
0.0
 20
0.0
 30
0.0
 70
   128
 71
    -5
 72
    -6
 73
     7
  0
VERTEX
  5
295
330
283
100
AcDbEntity
  8
0
 62
     0
100
AcDbFaceRecord
 10
0.0
 20
0.0
 30
0.0
 70
   128
 71
    -6
 72
    -4
 73
     8
  0
VERTEX
  5
296
330
283
100
AcDbEntity
  8
0
 62
     0
100
AcDbFaceRecord
 10
0.0
 20
0.0
 30
0.0
 70
   128
 71
    -8
 72
    -4
 73
     9
  0
VERTEX
  5
297
330
283
100
AcDbEntity
  8
0
 62
     0
100
AcDbFaceRecord
 10
0.0
 20
0.0
 30
0.0
 70
   128
 71
    -3
 72
   -10
 73
    11
  0
VERTEX
  5
298
330
283
100
AcDbEntity
  8
0
 62
     0
100
AcDbFaceRecord
 10
0.0
 20
0.0
 30
0.0
 70
   128
 71
   -10
 72
    -3
 73
     2
  0
VERTEX
  5
299
330
283
100
AcDbEntity
  8
0
 62
     0
100
AcDbFaceRecord
 10
0.0
 20
0.0
 30
0.0
 70
   128
 71
   -11
 72
    10
 73
    -7
  0
VERTEX
  5
29A
330
283
100
AcDbEntity
  8
0
 62
     0
100
AcDbFaceRecord
 10
0.0
 20
0.0
 30
0.0
 70
   128
 71
   -11
 72
    -7
 73
   -12
  0
VERTEX
  5
29B
330
283
100
AcDbEntity
  8
0
 62
     0
100
AcDbFaceRecord
 10
0.0
 20
0.0
 30
0.0
 70
   128
 71
   -12
 72
    -7
 73
     6
  0
VERTEX
  5
29C
330
283
100
AcDbEntity
  8
0
 62
     0
100
AcDbFaceRecord
 10
0.0
 20
0.0
 30
0.0
 70
   128
 71
   -11
 72
    12
 73
    -9
  0
VERTEX
  5
29D
330
283
100
AcDbEntity
  8
0
 62
     0
100
AcDbFaceRecord
 10
0.0
 20
0.0
 30
0.0
 70
   128
 71
   -11
 72
    -9
 73
     4
  0
SEQEND
  5
29E
330
283
100
AcDbEntity
  8
0
 62
     0
  0
LINE
  5
29F
330
60
100
AcDbEntity
  8
0
 62
     0
100
AcDbLine
 10
16.5
 20
-0.4999999999999998
 30
16.5
 11
0.9999999999999981
 21
-0.4999999999999998
 31
16.5
  0
LINE
  5
2A0
330
60
100
AcDbEntity
  8
0
 62
     0
100
AcDbLine
 10
0.9999999999999981
 20
-0.4999999999999998
 30
16.5
 11
0.9999999999999981
 21
-0.4999999999999998
 31
1.000000000000001
  0
LINE
  5
2A1
330
60
100
AcDbEntity
  8
0
 62
     0
100
AcDbLine
 10
0.9999999999999981
 20
-0.4999999999999998
 30
1.000000000000001
 11
16.5
 21
-0.4999999999999998
 31
1.000000000000001
  0
LINE
  5
2A2
330
60
100
AcDbEntity
  8
0
 62
     0
100
AcDbLine
 10
16.5
 20
-0.4999999999999998
 30
1.000000000000001
 11
16.5
 21
-0.4999999999999998
 31
16.5
  0
LINE
  5
2A3
330
60
100
AcDbEntity
  8
0
 62
     0
100
AcDbLine
 10
15.5
 20
-0.4999999999999998
 30
8.250000000000002
 11
1.999999999999996
 21
-0.4999999999999998
 31
8.250000000000002
  0
LINE
  5
2A4
330
60
100
AcDbEntity
  8
0
 62
     0
100
AcDbLine
 10
15.5
 20
-0.4999999999999998
 30
8.250000000000002
 11
15.5
 21
-0.4999999999999998
 31
2.0
  0
LINE
  5
2A5
330
60
100
AcDbEntity
  8
0
 62
     0
100
AcDbLine
 10
15.5
 20
-0.4999999999999998
 30
2.0
 11
1.999999999999996
 21
-0.4999999999999998
 31
2.000000000000002
  0
LINE
  5
2A6
330
60
100
AcDbEntity
  8
0
 62
     0
100
AcDbLine
 10
1.999999999999996
 20
-0.4999999999999998
 30
2.000000000000002
 11
1.999999999999996
 21
-0.4999999999999998
 31
8.250000000000002
  0
LINE
  5
2A7
330
60
100
AcDbEntity
  8
0
 62
     0
100
AcDbLine
 10
15.5
 20
-0.4999999999999998
 30
15.5
 11
15.5
 21
-0.4999999999999998
 31
9.250000000000002
  0
LINE
  5
2A8
330
60
100
AcDbEntity
  8
0
 62
     0
100
AcDbLine
 10
15.5
 20
-0.4999999999999998
 30
9.250000000000002
 11
1.999999999999996
 21
-0.4999999999999998
 31
9.250000000000002
  0
LINE
  5
2A9
330
60
100
AcDbEntity
  8
0
 62
     0
100
AcDbLine
 10
1.999999999999996
 20
-0.4999999999999998
 30
9.250000000000002
 11
1.999999999999996
 21
-0.4999999999999998
 31
15.5
  0
LINE
  5
2AA
330
60
100
AcDbEntity
  8
0
 62
     0
100
AcDbLine
 10
1.999999999999996
 20
-0.4999999999999998
 30
15.5
 11
15.5
 21
-0.4999999999999998
 31
15.5
  0
POLYLINE
  5
2AB
330
60
100
AcDbEntity
  8
0
 62
     0
100
AcDbPolyFaceMesh
 66
     1
 10
0.0
 20
0.0
 30
0.0
 70
    64
 71
     4
 72
     2
1001
ACAD_MATERIAL_MAPPER
1070
     1
1070
     1
1070
     1
1011
0.0
1021
0.0
1031
0.0
1011
-25.39999999999997
1021
0.0
1031
0.0
1011
0.0000000000000043
1021
25.39999999999998
1031
0.0
1011
0.0
1021
0.0
1031
1.0
  0
VERTEX
  5
2AC
330
2AB
100
AcDbEntity
  8
0
 62
     0
100
AcDbVertex
100
AcDbPolyFaceMeshVertex
 10
17.5
 20
22.8
 30
0.0
 70
   192
  0
VERTEX
  5
2AD
330
2AB
100
AcDbEntity
  8
0
 62
     0
100
AcDbVertex
100
AcDbPolyFaceMeshVertex
 10
15.5
 20
6.0
 30
0.0000000000000001
 70
   192
  0
VERTEX
  5
2AE
330
2AB
100
AcDbEntity
  8
0
 62
     0
100
AcDbVertex
100
AcDbPolyFaceMeshVertex
 10
15.49999999999999
 20
22.8
 30
0.0000000000000004
 70
   192
  0
VERTEX
  5
2AF
330
2AB
100
AcDbEntity
  8
0
 62
     0
100
AcDbVertex
100
AcDbPolyFaceMeshVertex
 10
17.5
 20
6.0
 30
0.0
 70
   192
  0
VERTEX
  5
2B0
330
2AB
100
AcDbEntity
  8
0
 62
     0
100
AcDbFaceRecord
 10
0.0
 20
0.0
 30
0.0
 70
   128
 71
    -1
 72
     2
 73
     3
  0
VERTEX
  5
2B1
330
2AB
100
AcDbEntity
  8
0
 62
     0
100
AcDbFaceRecord
 10
0.0
 20
0.0
 30
0.0
 70
   128
 71
    -2
 72
     1
 73
     4
  0
SEQEND
  5
2B2
330
2AB
100
AcDbEntity
  8
0
 62
     0
  0
LINE
  5
2B3
330
60
100
AcDbEntity
  8
0
 62
     0
100
AcDbLine
 10
15.5
 20
6.0
 30
0.0000000000000001
 11
17.5
 21
6.0
 31
0.0
  0
LINE
  5
2B4
330
60
100
AcDbEntity
  8
0
 62
     0
100
AcDbLine
 10
15.49999999999999
 20
22.8
 30
0.0000000000000004
 11
15.5
 21
6.0
 31
0.0000000000000001
  0
LINE
  5
2B5
330
60
100
AcDbEntity
  8
0
 62
     0
100
AcDbLine
 10
15.49999999999999
 20
22.8
 30
0.0000000000000004
 11
17.5
 21
22.8
 31
0.0
  0
LINE
  5
2B6
330
60
100
AcDbEntity
  8
0
 62
     0
100
AcDbLine
 10
17.5
 20
6.0
 30
0.0
 11
17.5
 21
22.8
 31
0.0
  0
POLYLINE
  5
2B7
330
60
100
AcDbEntity
  8
0
 62
     0
100
AcDbPolyFaceMesh
 66
     1
 10
0.0
 20
0.0
 30
0.0
 70
    64
 71
     4
 72
     2
1001
ACAD_MATERIAL_MAPPER
1070
     1
1070
     1
1070
     1
1011
9.750000000000002
1021
0.0
1031
0.0
1011
9.750000000000002
1021
25.4
1031
0.0
1011
-8.210512242138295
1021
0.0
1031
0.0
1011
9.750000000000002
1021
0.0
1031
1.0
  0
VERTEX
  5
2B8
330
2B7
100
AcDbEntity
  8
0
 62
     0
100
AcDbVertex
100
AcDbPolyFaceMeshVertex
 10
3.0
 20
22.8
 30
16.5
 70
   192
  0
VERTEX
  5
2B9
330
2B7
100
AcDbEntity
  8
0
 62
     0
100
AcDbVertex
100
AcDbPolyFaceMeshVertex
 10
2.0
 20
6.0
 30
17.5
 70
   192
  0
VERTEX
  5
2BA
330
2B7
100
AcDbEntity
  8
0
 62
     0
100
AcDbVertex
100
AcDbPolyFaceMeshVertex
 10
3.0
 20
6.0
 30
16.5
 70
   192
  0
VERTEX
  5
2BB
330
2B7
100
AcDbEntity
  8
0
 62
     0
100
AcDbVertex
100
AcDbPolyFaceMeshVertex
 10
2.0
 20
22.8
 30
17.5
 70
   192
  0
VERTEX
  5
2BC
330
2B7
100
AcDbEntity
  8
0
 62
     0
100
AcDbFaceRecord
 10
0.0
 20
0.0
 30
0.0
 70
   128
 71
    -1
 72
     2
 73
     3
  0
VERTEX
  5
2BD
330
2B7
100
AcDbEntity
  8
0
 62
     0
100
AcDbFaceRecord
 10
0.0
 20
0.0
 30
0.0
 70
   128
 71
    -2
 72
     1
 73
     4
  0
SEQEND
  5
2BE
330
2B7
100
AcDbEntity
  8
0
 62
     0
  0
LINE
  5
2BF
330
60
100
AcDbEntity
  8
0
 62
     0
100
AcDbLine
 10
3.0
 20
6.0
 30
16.5
 11
3.0
 21
22.8
 31
16.5
  0
LINE
  5
2C0
330
60
100
AcDbEntity
  8
0
 62
     0
100
AcDbLine
 10
3.0
 20
22.8
 30
16.5
 11
2.0
 21
22.8
 31
17.5
  0
LINE
  5
2C1
330
60
100
AcDbEntity
  8
0
 62
     0
100
AcDbLine
 10
2.0
 20
22.8
 30
17.5
 11
2.0
 21
6.0
 31
17.5
  0
LINE
  5
2C2
330
60
100
AcDbEntity
  8
0
 62
     0
100
AcDbLine
 10
2.0
 20
6.0
 30
17.5
 11
3.0
 21
6.0
 31
16.5
  0
POLYLINE
  5
2C3
330
60
100
AcDbEntity
  8
0
 62
     0
100
AcDbPolyFaceMesh
 66
     1
 10
0.0
 20
0.0
 30
0.0
 70
    64
 71
     4
 72
     2
1001
ACAD_MATERIAL_MAPPER
1070
     1
1070
     1
1070
     1
1011
0.0000000000000002
1021
0.0000000000000005
1031
0.0
1011
-25.4
1021
0.0000000000000005
1031
0.0
1011
0.0000000000000002
1021
25.4
1031
0.0
1011
0.0000000000000002
1021
0.0000000000000005
1031
1.0
  0
VERTEX
  5
2C4
330
2C3
100
AcDbEntity
  8
0
 62
     0
100
AcDbVertex
100
AcDbPolyFaceMeshVertex
 10
15.5
 20
22.8
 30
15.5
 70
   192
  0
VERTEX
  5
2C5
330
2C3
100
AcDbEntity
  8
0
 62
     0
100
AcDbVertex
100
AcDbPolyFaceMeshVertex
 10
1.999999999999996
 20
-0.4999999999999998
 30
15.5
 70
   192
  0
VERTEX
  5
2C6
330
2C3
100
AcDbEntity
  8
0
 62
     0
100
AcDbVertex
100
AcDbPolyFaceMeshVertex
 10
1.999999999999996
 20
22.8
 30
15.5
 70
   192
  0
VERTEX
  5
2C7
330
2C3
100
AcDbEntity
  8
0
 62
     0
100
AcDbVertex
100
AcDbPolyFaceMeshVertex
 10
15.5
 20
-0.4999999999999998
 30
15.5
 70
   192
  0
VERTEX
  5
2C8
330
2C3
100
AcDbEntity
  8
0
 62
     0
100
AcDbFaceRecord
 10
0.0
 20
0.0
 30
0.0
 70
   128
 71
    -1
 72
     2
 73
     3
  0
VERTEX
  5
2C9
330
2C3
100
AcDbEntity
  8
0
 62
     0
100
AcDbFaceRecord
 10
0.0
 20
0.0
 30
0.0
 70
   128
 71
    -2
 72
     1
 73
     4
  0
SEQEND
  5
2CA
330
2C3
100
AcDbEntity
  8
0
 62
     0
  0
LINE
  5
2CB
330
60
100
AcDbEntity
  8
0
 62
     0
100
AcDbLine
 10
1.999999999999996
 20
-0.4999999999999998
 30
15.5
 11
1.999999999999996
 21
22.8
 31
15.5
  0
LINE
  5
2CC
330
60
100
AcDbEntity
  8
0
 62
     0
100
AcDbLine
 10
15.5
 20
22.8
 30
15.5
 11
1.999999999999996
 21
22.8
 31
15.5
  0
LINE
  5
2CD
330
60
100
AcDbEntity
  8
0
 62
     0
100
AcDbLine
 10
15.5
 20
-0.4999999999999998
 30
15.5
 11
15.5
 21
22.8
 31
15.5
  0
LINE
  5
2CE
330
60
100
AcDbEntity
  8
0
 62
     0
100
AcDbLine
 10
1.999999999999996
 20
-0.4999999999999998
 30
15.5
 11
15.5
 21
-0.4999999999999998
 31
15.5
  0
POLYLINE
  5
2CF
330
60
100
AcDbEntity
  8
0
 62
     0
100
AcDbPolyFaceMesh
 66
     1
 10
0.0
 20
0.0
 30
0.0
 70
    64
 71
    33
 72
    33
1001
ACAD_MATERIAL_MAPPER
1070
     1
1070
     1
1070
     1
1011
0.0
1021
0.0
1031
0.0000000000000008
1011
-25.40000000000001
1021
0.0
1031
0.0000000000000008
1011
0.0
1021
0.0
1031
25.40000000000001
1011
0.0
1021
1.0
1031
0.0000000000000008
  0
VERTEX
  5
2D0
330
2CF
100
AcDbEntity
  8
0
 62
     0
100
AcDbVertex
100
AcDbPolyFaceMeshVertex
 10
6.0
 20
22.8
 30
0.0000000000000009
 70
   192
  0
VERTEX
  5
2D1
330
2CF
100
AcDbEntity
  8
0
 62
     0
100
AcDbVertex
100
AcDbPolyFaceMeshVertex
 10
12.5
 20
22.8
 30
1.0
 70
   192
  0
VERTEX
  5
2D2
330
2CF
100
AcDbEntity
  8
0
 62
     0
100
AcDbVertex
100
AcDbPolyFaceMeshVertex
 10
11.5
 20
22.8
 30
0.0
 70
   192
  0
VERTEX
  5
2D3
330
2CF
100
AcDbEntity
  8
0
 62
     0
100
AcDbVertex
100
AcDbPolyFaceMeshVertex
 10
5.0
 20
22.8
 30
1.000000000000001
 70
   192
  0
VERTEX
  5
2D4
330
2CF
100
AcDbEntity
  8
0
 62
     0
100
AcDbVertex
100
AcDbPolyFaceMeshVertex
 10
14.5
 20
22.8
 30
1.0
 70
   192
  0
VERTEX
  5
2D5
330
2CF
100
AcDbEntity
  8
0
 62
     0
100
AcDbVertex
100
AcDbPolyFaceMeshVertex
 10
0.0
 20
22.8
 30
17.5
 70
   192
  0
VERTEX
  5
2D6
330
2CF
100
AcDbEntity
  8
0
 62
     0
100
AcDbVertex
100
AcDbPolyFaceMeshVertex
 10
2.010050506346494
 20
22.8
 30
0.0050252531617958
 70
   192
  0
VERTEX
  5
2D7
330
2CF
100
AcDbEntity
  8
0
 62
     0
100
AcDbVertex
100
AcDbPolyFaceMeshVertex
 10
0.0
 20
22.8
 30
0.0000000000000014
 70
   192
  0
VERTEX
  5
2D8
330
2CF
100
AcDbEntity
  8
0
 62
     0
100
AcDbVertex
100
AcDbPolyFaceMeshVertex
 10
1.999999999999996
 20
22.8
 30
2.000000000000002
 70
   192
  0
VERTEX
  5
2D9
330
2CF
100
AcDbEntity
  8
0
 62
     0
100
AcDbVertex
100
AcDbPolyFaceMeshVertex
 10
2.50502525922141
 20
22.8
 30
0.5025126326521021
 70
   192
  0
VERTEX
  5
2DA
330
2CF
100
AcDbEntity
  8
0
 62
     0
100
AcDbVertex
100
AcDbPolyFaceMeshVertex
 10
3.0
 20
22.8
 30
1.000000000000001
 70
   192
  0
VERTEX
  5
2DB
330
2CF
100
AcDbEntity
  8
0
 62
     0
100
AcDbVertex
100
AcDbPolyFaceMeshVertex
 10
15.5
 20
22.8
 30
2.0
 70
   192
  0
VERTEX
  5
2DC
330
2CF
100
AcDbEntity
  8
0
 62
     0
100
AcDbVertex
100
AcDbPolyFaceMeshVertex
 10
1.999999999999996
 20
22.8
 30
8.250000000000002
 70
   192
  0
VERTEX
  5
2DD
330
2CF
100
AcDbEntity
  8
0
 62
     0
100
AcDbVertex
100
AcDbPolyFaceMeshVertex
 10
1.999999999999996
 20
22.8
 30
9.250000000000002
 70
   192
  0
VERTEX
  5
2DE
330
2CF
100
AcDbEntity
  8
0
 62
     0
100
AcDbVertex
100
AcDbPolyFaceMeshVertex
 10
4.749999999999997
 20
22.8
 30
8.250000000000002
 70
   192
  0
VERTEX
  5
2DF
330
2CF
100
AcDbEntity
  8
0
 62
     0
100
AcDbVertex
100
AcDbPolyFaceMeshVertex
 10
1.999999999999996
 20
22.8
 30
15.5
 70
   192
  0
VERTEX
  5
2E0
330
2CF
100
AcDbEntity
  8
0
 62
     0
100
AcDbVertex
100
AcDbPolyFaceMeshVertex
 10
3.0
 20
22.8
 30
16.5
 70
   192
  0
VERTEX
  5
2E1
330
2CF
100
AcDbEntity
  8
0
 62
     0
100
AcDbVertex
100
AcDbPolyFaceMeshVertex
 10
15.5
 20
22.8
 30
15.5
 70
   192
  0
VERTEX
  5
2E2
330
2CF
100
AcDbEntity
  8
0
 62
     0
100
AcDbVertex
100
AcDbPolyFaceMeshVertex
 10
2.0
 20
22.8
 30
17.5
 70
   192
  0
VERTEX
  5
2E3
330
2CF
100
AcDbEntity
  8
0
 62
     0
100
AcDbVertex
100
AcDbPolyFaceMeshVertex
 10
6.000000000000003
 20
22.8
 30
17.5
 70
   192
  0
VERTEX
  5
2E4
330
2CF
100
AcDbEntity
  8
0
 62
     0
100
AcDbVertex
100
AcDbPolyFaceMeshVertex
 10
12.5
 20
22.8
 30
16.5
 70
   192
  0
VERTEX
  5
2E5
330
2CF
100
AcDbEntity
  8
0
 62
     0
100
AcDbVertex
100
AcDbPolyFaceMeshVertex
 10
4.999999999999999
 20
22.8
 30
16.5
 70
   192
  0
VERTEX
  5
2E6
330
2CF
100
AcDbEntity
  8
0
 62
     0
100
AcDbVertex
100
AcDbPolyFaceMeshVertex
 10
11.5
 20
22.8
 30
17.5
 70
   192
  0
VERTEX
  5
2E7
330
2CF
100
AcDbEntity
  8
0
 62
     0
100
AcDbVertex
100
AcDbPolyFaceMeshVertex
 10
15.49999999999999
 20
22.8
 30
0.0000000000000004
 70
   192
  0
VERTEX
  5
2E8
330
2CF
100
AcDbEntity
  8
0
 62
     0
100
AcDbVertex
100
AcDbPolyFaceMeshVertex
 10
17.5
 20
22.8
 30
17.5
 70
   192
  0
VERTEX
  5
2E9
330
2CF
100
AcDbEntity
  8
0
 62
     0
100
AcDbVertex
100
AcDbPolyFaceMeshVertex
 10
17.5
 20
22.8
 30
0.0
 70
   192
  0
VERTEX
  5
2EA
330
2CF
100
AcDbEntity
  8
0
 62
     0
100
AcDbVertex
100
AcDbPolyFaceMeshVertex
 10
15.5
 20
22.8
 30
8.250000000000002
 70
   192
  0
VERTEX
  5
2EB
330
2CF
100
AcDbEntity
  8
0
 62
     0
100
AcDbVertex
100
AcDbPolyFaceMeshVertex
 10
15.5
 20
22.8
 30
9.250000000000002
 70
   192
  0
VERTEX
  5
2EC
330
2CF
100
AcDbEntity
  8
0
 62
     0
100
AcDbVertex
100
AcDbPolyFaceMeshVertex
 10
12.74999999999999
 20
22.8
 30
9.250000000000002
 70
   192
  0
VERTEX
  5
2ED
330
2CF
100
AcDbEntity
  8
0
 62
     0
100
AcDbVertex
100
AcDbPolyFaceMeshVertex
 10
14.5
 20
22.8
 30
16.5
 70
   192
  0
VERTEX
  5
2EE
330
2CF
100
AcDbEntity
  8
0
 62
     0
100
AcDbVertex
100
AcDbPolyFaceMeshVertex
 10
15.5
 20
22.8
 30
17.5
 70
   192
  0
VERTEX
  5
2EF
330
2CF
100
AcDbEntity
  8
0
 62
     0
100
AcDbVertex
100
AcDbPolyFaceMeshVertex
 10
4.749999999999997
 20
22.8
 30
9.250000000000002
 70
   192
  0
VERTEX
  5
2F0
330
2CF
100
AcDbEntity
  8
0
 62
     0
100
AcDbVertex
100
AcDbPolyFaceMeshVertex
 10
12.74999999999999
 20
22.8
 30
8.250000000000002
 70
   192
  0
VERTEX
  5
2F1
330
2CF
100
AcDbEntity
  8
0
 62
     0
100
AcDbFaceRecord
 10
0.0
 20
0.0
 30
0.0
 70
   128
 71
    -1
 72
     2
 73
     3
  0
VERTEX
  5
2F2
330
2CF
100
AcDbEntity
  8
0
 62
     0
100
AcDbFaceRecord
 10
0.0
 20
0.0
 30
0.0
 70
   128
 71
    -2
 72
     1
 73
    -4
  0
VERTEX
  5
2F3
330
2CF
100
AcDbEntity
  8
0
 62
     0
100
AcDbFaceRecord
 10
0.0
 20
0.0
 30
0.0
 70
   128
 71
    -2
 72
    -4
 73
     5
  0
VERTEX
  5
2F4
330
2CF
100
AcDbEntity
  8
0
 62
     0
100
AcDbFaceRecord
 10
0.0
 20
0.0
 30
0.0
 70
   128
 71
    -6
 72
     7
 73
     8
  0
VERTEX
  5
2F5
330
2CF
100
AcDbEntity
  8
0
 62
     0
100
AcDbFaceRecord
 10
0.0
 20
0.0
 30
0.0
 70
   128
 71
    -7
 72
    -6
 73
    -9
  0
VERTEX
  5
2F6
330
2CF
100
AcDbEntity
  8
0
 62
     0
100
AcDbFaceRecord
 10
0.0
 20
0.0
 30
0.0
 70
   128
 71
    -7
 72
    -9
 73
    10
  0
VERTEX
  5
2F7
330
2CF
100
AcDbEntity
  8
0
 62
     0
100
AcDbFaceRecord
 10
0.0
 20
0.0
 30
0.0
 70
   128
 71
   -10
 72
    -9
 73
    11
  0
VERTEX
  5
2F8
330
2CF
100
AcDbEntity
  8
0
 62
     0
100
AcDbFaceRecord
 10
0.0
 20
0.0
 30
0.0
 70
   128
 71
   -11
 72
    -9
 73
     4
  0
VERTEX
  5
2F9
330
2CF
100
AcDbEntity
  8
0
 62
     0
100
AcDbFaceRecord
 10
0.0
 20
0.0
 30
0.0
 70
   128
 71
    -4
 72
     9
 73
   -12
  0
VERTEX
  5
2FA
330
2CF
100
AcDbEntity
  8
0
 62
     0
100
AcDbFaceRecord
 10
0.0
 20
0.0
 30
0.0
 70
   128
 71
    -9
 72
    -6
 73
    13
  0
VERTEX
  5
2FB
330
2CF
100
AcDbEntity
  8
0
 62
     0
100
AcDbFaceRecord
 10
0.0
 20
0.0
 30
0.0
 70
   128
 71
   -13
 72
    -6
 73
   -14
  0
VERTEX
  5
2FC
330
2CF
100
AcDbEntity
  8
0
 62
     0
100
AcDbFaceRecord
 10
0.0
 20
0.0
 30
0.0
 70
   128
 71
   -13
 72
   -14
 73
    15
  0
VERTEX
  5
2FD
330
2CF
100
AcDbEntity
  8
0
 62
     0
100
AcDbFaceRecord
 10
0.0
 20
0.0
 30
0.0
 70
   128
 71
   -14
 72
    -6
 73
    16
  0
VERTEX
  5
2FE
330
2CF
100
AcDbEntity
  8
0
 62
     0
100
AcDbFaceRecord
 10
0.0
 20
0.0
 30
0.0
 70
   128
 71
   -16
 72
    -6
 73
   -17
  0
VERTEX
  5
2FF
330
2CF
100
AcDbEntity
  8
0
 62
     0
100
AcDbFaceRecord
 10
0.0
 20
0.0
 30
0.0
 70
   128
 71
   -16
 72
   -17
 73
    18
  0
VERTEX
  5
300
330
2CF
100
AcDbEntity
  8
0
 62
     0
100
AcDbFaceRecord
 10
0.0
 20
0.0
 30
0.0
 70
   128
 71
   -17
 72
     6
 73
    19
  0
VERTEX
  5
301
330
2CF
100
AcDbEntity
  8
0
 62
     0
100
AcDbFaceRecord
 10
0.0
 20
0.0
 30
0.0
 70
   128
 71
   -20
 72
   -21
 73
    22
  0
VERTEX
  5
302
330
2CF
100
AcDbEntity
  8
0
 62
     0
100
AcDbFaceRecord
 10
0.0
 20
0.0
 30
0.0
 70
   128
 71
   -21
 72
    20
 73
    23
  0
VERTEX
  5
303
330
2CF
100
AcDbEntity
  8
0
 62
     0
100
AcDbFaceRecord
 10
0.0
 20
0.0
 30
0.0
 70
   128
 71
   -24
 72
    25
 73
    26
  0
VERTEX
  5
304
330
2CF
100
AcDbEntity
  8
0
 62
     0
100
AcDbFaceRecord
 10
0.0
 20
0.0
 30
0.0
 70
   128
 71
   -25
 72
   -24
 73
   -12
  0
VERTEX
  5
305
330
2CF
100
AcDbEntity
  8
0
 62
     0
100
AcDbFaceRecord
 10
0.0
 20
0.0
 30
0.0
 70
   128
 71
   -12
 72
    24
 73
    -5
  0
VERTEX
  5
306
330
2CF
100
AcDbEntity
  8
0
 62
     0
100
AcDbFaceRecord
 10
0.0
 20
0.0
 30
0.0
 70
   128
 71
   -12
 72
    -5
 73
    -4
  0
VERTEX
  5
307
330
2CF
100
AcDbEntity
  8
0
 62
     0
100
AcDbFaceRecord
 10
0.0
 20
0.0
 30
0.0
 70
   128
 71
   -25
 72
    12
 73
   -27
  0
VERTEX
  5
308
330
2CF
100
AcDbEntity
  8
0
 62
     0
100
AcDbFaceRecord
 10
0.0
 20
0.0
 30
0.0
 70
   128
 71
   -25
 72
   -27
 73
   -28
  0
VERTEX
  5
309
330
2CF
100
AcDbEntity
  8
0
 62
     0
100
AcDbFaceRecord
 10
0.0
 20
0.0
 30
0.0
 70
   128
 71
   -28
 72
   -27
 73
    29
  0
VERTEX
  5
30A
330
2CF
100
AcDbEntity
  8
0
 62
     0
100
AcDbFaceRecord
 10
0.0
 20
0.0
 30
0.0
 70
   128
 71
   -25
 72
    28
 73
   -18
  0
VERTEX
  5
30B
330
2CF
100
AcDbEntity
  8
0
 62
     0
100
AcDbFaceRecord
 10
0.0
 20
0.0
 30
0.0
 70
   128
 71
   -25
 72
   -18
 73
   -30
  0
VERTEX
  5
30C
330
2CF
100
AcDbEntity
  8
0
 62
     0
100
AcDbFaceRecord
 10
0.0
 20
0.0
 30
0.0
 70
   128
 71
   -30
 72
   -18
 73
   -17
  0
VERTEX
  5
30D
330
2CF
100
AcDbEntity
  8
0
 62
     0
100
AcDbFaceRecord
 10
0.0
 20
0.0
 30
0.0
 70
   128
 71
   -30
 72
    17
 73
   -22
  0
VERTEX
  5
30E
330
2CF
100
AcDbEntity
  8
0
 62
     0
100
AcDbFaceRecord
 10
0.0
 20
0.0
 30
0.0
 70
   128
 71
   -30
 72
   -22
 73
    21
  0
VERTEX
  5
30F
330
2CF
100
AcDbEntity
  8
0
 62
     0
100
AcDbFaceRecord
 10
0.0
 20
0.0
 30
0.0
 70
   128
 71
   -25
 72
    30
 73
    31
  0
VERTEX
  5
310
330
2CF
100
AcDbEntity
  8
0
 62
     0
100
AcDbFaceRecord
 10
0.0
 20
0.0
 30
0.0
 70
   128
 71
    32
 72
   -15
 73
    14
  0
VERTEX
  5
311
330
2CF
100
AcDbEntity
  8
0
 62
     0
100
AcDbFaceRecord
 10
0.0
 20
0.0
 30
0.0
 70
   128
 71
   -29
 72
    27
 73
    33
  0
SEQEND
  5
312
330
2CF
100
AcDbEntity
  8
0
 62
     0
  0
LINE
  5
313
330
60
100
AcDbEntity
  8
0
 62
     0
100
AcDbLine
 10
11.5
 20
22.8
 30
17.5
 11
6.000000000000003
 21
22.8
 31
17.5
  0
LINE
  5
314
330
60
100
AcDbEntity
  8
0
 62
     0
100
AcDbLine
 10
12.5
 20
22.8
 30
16.5
 11
11.5
 21
22.8
 31
17.5
  0
LINE
  5
315
330
60
100
AcDbEntity
  8
0
 62
     0
100
AcDbLine
 10
12.5
 20
22.8
 30
16.5
 11
14.5
 21
22.8
 31
16.5
  0
LINE
  5
316
330
60
100
AcDbEntity
  8
0
 62
     0
100
AcDbLine
 10
14.5
 20
22.8
 30
16.5
 11
15.5
 21
22.8
 31
17.5
  0
LINE
  5
317
330
60
100
AcDbEntity
  8
0
 62
     0
100
AcDbLine
 10
17.5
 20
22.8
 30
17.5
 11
15.5
 21
22.8
 31
17.5
  0
LINE
  5
318
330
60
100
AcDbEntity
  8
0
 62
     0
100
AcDbLine
 10
17.5
 20
22.8
 30
0.0
 11
17.5
 21
22.8
 31
17.5
  0
LINE
  5
319
330
60
100
AcDbEntity
  8
0
 62
     0
100
AcDbLine
 10
15.49999999999999
 20
22.8
 30
0.0000000000000004
 11
17.5
 21
22.8
 31
0.0
  0
LINE
  5
31A
330
60
100
AcDbEntity
  8
0
 62
     0
100
AcDbLine
 10
14.5
 20
22.8
 30
1.0
 11
15.49999999999999
 21
22.8
 31
0.0000000000000004
  0
LINE
  5
31B
330
60
100
AcDbEntity
  8
0
 62
     0
100
AcDbLine
 10
14.5
 20
22.8
 30
1.0
 11
12.5
 21
22.8
 31
1.0
  0
LINE
  5
31C
330
60
100
AcDbEntity
  8
0
 62
     0
100
AcDbLine
 10
11.5
 20
22.8
 30
0.0
 11
12.5
 21
22.8
 31
1.0
  0
LINE
  5
31D
330
60
100
AcDbEntity
  8
0
 62
     0
100
AcDbLine
 10
6.0
 20
22.8
 30
0.0000000000000009
 11
11.5
 21
22.8
 31
0.0
  0
LINE
  5
31E
330
60
100
AcDbEntity
  8
0
 62
     0
100
AcDbLine
 10
5.0
 20
22.8
 30
1.000000000000001
 11
6.0
 21
22.8
 31
0.0000000000000009
  0
LINE
  5
31F
330
60
100
AcDbEntity
  8
0
 62
     0
100
AcDbLine
 10
5.0
 20
22.8
 30
1.000000000000001
 11
3.0
 21
22.8
 31
1.000000000000001
  0
LINE
  5
320
330
60
100
AcDbEntity
  8
0
 62
     0
100
AcDbLine
 10
2.50502525922141
 20
22.8
 30
0.5025126326521021
 11
3.0
 21
22.8
 31
1.000000000000001
  0
LINE
  5
321
330
60
100
AcDbEntity
  8
0
 62
     0
100
AcDbLine
 10
2.010050506346494
 20
22.8
 30
0.0050252531617958
 11
2.50502525922141
 21
22.8
 31
0.5025126326521021
  0
LINE
  5
322
330
60
100
AcDbEntity
  8
0
 62
     0
100
AcDbLine
 10
0.0
 20
22.8
 30
0.0000000000000014
 11
2.010050506346494
 21
22.8
 31
0.0050252531617958
  0
LINE
  5
323
330
60
100
AcDbEntity
  8
0
 62
     0
100
AcDbLine
 10
0.0
 20
22.8
 30
17.5
 11
0.0
 21
22.8
 31
0.0000000000000014
  0
LINE
  5
324
330
60
100
AcDbEntity
  8
0
 62
     0
100
AcDbLine
 10
2.0
 20
22.8
 30
17.5
 11
0.0
 21
22.8
 31
17.5
  0
LINE
  5
325
330
60
100
AcDbEntity
  8
0
 62
     0
100
AcDbLine
 10
3.0
 20
22.8
 30
16.5
 11
2.0
 21
22.8
 31
17.5
  0
LINE
  5
326
330
60
100
AcDbEntity
  8
0
 62
     0
100
AcDbLine
 10
3.0
 20
22.8
 30
16.5
 11
4.999999999999999
 21
22.8
 31
16.5
  0
LINE
  5
327
330
60
100
AcDbEntity
  8
0
 62
     0
100
AcDbLine
 10
4.999999999999999
 20
22.8
 30
16.5
 11
6.000000000000003
 21
22.8
 31
17.5
  0
LINE
  5
328
330
60
100
AcDbEntity
  8
0
 62
     0
100
AcDbLine
 10
15.5
 20
22.8
 30
2.0
 11
15.5
 21
22.8
 31
8.250000000000002
  0
LINE
  5
329
330
60
100
AcDbEntity
  8
0
 62
     0
100
AcDbLine
 10
12.74999999999999
 20
22.8
 30
8.250000000000002
 11
15.5
 21
22.8
 31
8.250000000000002
  0
LINE
  5
32A
330
60
100
AcDbEntity
  8
0
 62
     0
100
AcDbLine
 10
12.74999999999999
 20
22.8
 30
9.250000000000002
 11
12.74999999999999
 21
22.8
 31
8.250000000000002
  0
LINE
  5
32B
330
60
100
AcDbEntity
  8
0
 62
     0
100
AcDbLine
 10
12.74999999999999
 20
22.8
 30
9.250000000000002
 11
15.5
 21
22.8
 31
9.250000000000002
  0
LINE
  5
32C
330
60
100
AcDbEntity
  8
0
 62
     0
100
AcDbLine
 10
15.5
 20
22.8
 30
9.250000000000002
 11
15.5
 21
22.8
 31
15.5
  0
LINE
  5
32D
330
60
100
AcDbEntity
  8
0
 62
     0
100
AcDbLine
 10
15.5
 20
22.8
 30
15.5
 11
1.999999999999996
 21
22.8
 31
15.5
  0
LINE
  5
32E
330
60
100
AcDbEntity
  8
0
 62
     0
100
AcDbLine
 10
1.999999999999996
 20
22.8
 30
15.5
 11
1.999999999999996
 21
22.8
 31
9.250000000000002
  0
LINE
  5
32F
330
60
100
AcDbEntity
  8
0
 62
     0
100
AcDbLine
 10
1.999999999999996
 20
22.8
 30
9.250000000000002
 11
4.749999999999997
 21
22.8
 31
9.250000000000002
  0
LINE
  5
330
330
60
100
AcDbEntity
  8
0
 62
     0
100
AcDbLine
 10
4.749999999999997
 20
22.8
 30
9.250000000000002
 11
4.749999999999997
 21
22.8
 31
8.250000000000002
  0
LINE
  5
331
330
60
100
AcDbEntity
  8
0
 62
     0
100
AcDbLine
 10
1.999999999999996
 20
22.8
 30
8.250000000000002
 11
4.749999999999997
 21
22.8
 31
8.250000000000002
  0
LINE
  5
332
330
60
100
AcDbEntity
  8
0
 62
     0
100
AcDbLine
 10
1.999999999999996
 20
22.8
 30
8.250000000000002
 11
1.999999999999996
 21
22.8
 31
2.000000000000002
  0
LINE
  5
333
330
60
100
AcDbEntity
  8
0
 62
     0
100
AcDbLine
 10
1.999999999999996
 20
22.8
 30
2.000000000000002
 11
15.5
 21
22.8
 31
2.0
  0
POLYLINE
  5
334
330
60
100
AcDbEntity
  8
0
 62
     0
100
AcDbPolyFaceMesh
 66
     1
 10
0.0
 20
0.0
 30
0.0
 70
    64
 71
     4
 72
     2
1001
ACAD_MATERIAL_MAPPER
1070
     1
1070
     1
1070
     1
1011
0.0
1021
0.0
1031
0.0
1011
0.9130579264222749
1021
25.38358377422767
1031
0.0
1011
25.38331987874566
1021
-0.9130638291411867
1031
0.0
1011
0.0
1021
0.0
1031
1.0
  0
VERTEX
  5
335
330
334
100
AcDbEntity
  8
0
 62
     0
100
AcDbVertex
100
AcDbPolyFaceMeshVertex
 10
0.0
 20
22.8
 30
0.0000000000000014
 70
   192
  0
VERTEX
  5
336
330
334
100
AcDbEntity
  8
0
 62
     0
100
AcDbVertex
100
AcDbPolyFaceMeshVertex
 10
2.01068025126211
 20
6.0
 30
0.0094223597734164
 70
   192
  0
VERTEX
  5
337
330
334
100
AcDbEntity
  8
0
 62
     0
100
AcDbVertex
100
AcDbPolyFaceMeshVertex
 10
0.0
 20
6.0
 30
0.0000000000000014
 70
   192
  0
VERTEX
  5
338
330
334
100
AcDbEntity
  8
0
 62
     0
100
AcDbVertex
100
AcDbPolyFaceMeshVertex
 10
2.010050506346494
 20
22.8
 30
0.0050252531617958
 70
   192
  0
VERTEX
  5
339
330
334
100
AcDbEntity
  8
0
 62
     0
100
AcDbFaceRecord
 10
0.0
 20
0.0
 30
0.0
 70
   128
 71
    -1
 72
     2
 73
     3
  0
VERTEX
  5
33A
330
334
100
AcDbEntity
  8
0
 62
     0
100
AcDbFaceRecord
 10
0.0
 20
0.0
 30
0.0
 70
   128
 71
    -2
 72
     1
 73
     4
  0
SEQEND
  5
33B
330
334
100
AcDbEntity
  8
0
 62
     0
  0
LINE
  5
33C
330
60
100
AcDbEntity
  8
0
 62
     0
100
AcDbLine
 10
0.0
 20
22.8
 30
0.0000000000000014
 11
2.010050506346494
 21
22.8
 31
0.0050252531617958
  0
LINE
  5
33D
330
60
100
AcDbEntity
  8
0
 62
     0
100
AcDbLine
 10
2.01068025126211
 20
6.0
 30
0.0094223597734164
 11
2.010050506346494
 21
22.8
 31
0.0050252531617958
  0
LINE
  5
33E
330
60
100
AcDbEntity
  8
0
 62
     0
100
AcDbLine
 10
0.0
 20
6.0
 30
0.0000000000000014
 11
2.01068025126211
 21
6.0
 31
0.0094223597734164
  0
LINE
  5
33F
330
60
100
AcDbEntity
  8
0
 62
     0
100
AcDbLine
 10
0.0
 20
6.0
 30
0.0000000000000014
 11
0.0
 21
22.8
 31
0.0000000000000014
  0
POLYLINE
  5
340
330
60
100
AcDbEntity
  8
0
 62
     0
100
AcDbPolyFaceMesh
 66
     1
 10
0.0
 20
0.0
 30
0.0
 70
    64
 71
     4
 72
     2
1001
ACAD_MATERIAL_MAPPER
1070
     1
1070
     1
1070
     1
1011
-0.0000000000000171
1021
0.0
1031
0.0
1011
25.4
1021
0.0
1031
0.0
1011
-0.0000000000000171
1021
25.39999999999998
1031
0.0
1011
-0.0000000000000171
1021
0.0
1031
1.0
  0
VERTEX
  5
341
330
340
100
AcDbEntity
  8
0
 62
     0
100
AcDbVertex
100
AcDbPolyFaceMeshVertex
 10
17.5
 20
6.0
 30
17.5
 70
   192
  0
VERTEX
  5
342
330
340
100
AcDbEntity
  8
0
 62
     0
100
AcDbVertex
100
AcDbPolyFaceMeshVertex
 10
15.5
 20
22.8
 30
17.5
 70
   192
  0
VERTEX
  5
343
330
340
100
AcDbEntity
  8
0
 62
     0
100
AcDbVertex
100
AcDbPolyFaceMeshVertex
 10
15.5
 20
6.0
 30
17.5
 70
   192
  0
VERTEX
  5
344
330
340
100
AcDbEntity
  8
0
 62
     0
100
AcDbVertex
100
AcDbPolyFaceMeshVertex
 10
17.5
 20
22.8
 30
17.5
 70
   192
  0
VERTEX
  5
345
330
340
100
AcDbEntity
  8
0
 62
     0
100
AcDbFaceRecord
 10
0.0
 20
0.0
 30
0.0
 70
   128
 71
    -1
 72
     2
 73
     3
  0
VERTEX
  5
346
330
340
100
AcDbEntity
  8
0
 62
     0
100
AcDbFaceRecord
 10
0.0
 20
0.0
 30
0.0
 70
   128
 71
    -2
 72
     1
 73
     4
  0
SEQEND
  5
347
330
340
100
AcDbEntity
  8
0
 62
     0
  0
LINE
  5
348
330
60
100
AcDbEntity
  8
0
 62
     0
100
AcDbLine
 10
17.5
 20
22.8
 30
17.5
 11
15.5
 21
22.8
 31
17.5
  0
LINE
  5
349
330
60
100
AcDbEntity
  8
0
 62
     0
100
AcDbLine
 10
15.5
 20
22.8
 30
17.5
 11
15.5
 21
6.0
 31
17.5
  0
LINE
  5
34A
330
60
100
AcDbEntity
  8
0
 62
     0
100
AcDbLine
 10
17.5
 20
6.0
 30
17.5
 11
15.5
 21
6.0
 31
17.5
  0
LINE
  5
34B
330
60
100
AcDbEntity
  8
0
 62
     0
100
AcDbLine
 10
17.5
 20
6.0
 30
17.5
 11
17.5
 21
22.8
 31
17.5
  0
POLYLINE
  5
34C
330
60
100
AcDbEntity
  8
0
 62
     0
100
AcDbPolyFaceMesh
 66
     1
 10
0.0
 20
0.0
 30
0.0
 70
    64
 71
     4
 72
     2
1001
ACAD_MATERIAL_MAPPER
1070
     1
1070
     1
1070
     1
1011
-1.00000000000001
1021
0.0
1031
0.0
1011
-1.00000000000001
1021
-25.4
1031
0.0
1011
16.96051224213828
1021
0.0
1031
0.0
1011
-1.00000000000001
1021
0.0
1031
1.0
  0
VERTEX
  5
34D
330
34C
100
AcDbEntity
  8
0
 62
     0
100
AcDbVertex
100
AcDbPolyFaceMeshVertex
 10
15.5
 20
6.0
 30
17.5
 70
   192
  0
VERTEX
  5
34E
330
34C
100
AcDbEntity
  8
0
 62
     0
100
AcDbVertex
100
AcDbPolyFaceMeshVertex
 10
14.5
 20
22.8
 30
16.5
 70
   192
  0
VERTEX
  5
34F
330
34C
100
AcDbEntity
  8
0
 62
     0
100
AcDbVertex
100
AcDbPolyFaceMeshVertex
 10
14.5
 20
6.0
 30
16.5
 70
   192
  0
VERTEX
  5
350
330
34C
100
AcDbEntity
  8
0
 62
     0
100
AcDbVertex
100
AcDbPolyFaceMeshVertex
 10
15.5
 20
22.8
 30
17.5
 70
   192
  0
VERTEX
  5
351
330
34C
100
AcDbEntity
  8
0
 62
     0
100
AcDbFaceRecord
 10
0.0
 20
0.0
 30
0.0
 70
   128
 71
    -1
 72
     2
 73
     3
  0
VERTEX
  5
352
330
34C
100
AcDbEntity
  8
0
 62
     0
100
AcDbFaceRecord
 10
0.0
 20
0.0
 30
0.0
 70
   128
 71
    -2
 72
     1
 73
     4
  0
SEQEND
  5
353
330
34C
100
AcDbEntity
  8
0
 62
     0
  0
LINE
  5
354
330
60
100
AcDbEntity
  8
0
 62
     0
100
AcDbLine
 10
14.5
 20
6.0
 30
16.5
 11
14.5
 21
22.8
 31
16.5
  0
LINE
  5
355
330
60
100
AcDbEntity
  8
0
 62
     0
100
AcDbLine
 10
15.5
 20
6.0
 30
17.5
 11
14.5
 21
6.0
 31
16.5
  0
LINE
  5
356
330
60
100
AcDbEntity
  8
0
 62
     0
100
AcDbLine
 10
15.5
 20
22.8
 30
17.5
 11
15.5
 21
6.0
 31
17.5
  0
LINE
  5
357
330
60
100
AcDbEntity
  8
0
 62
     0
100
AcDbLine
 10
14.5
 20
22.8
 30
16.5
 11
15.5
 21
22.8
 31
17.5
  0
POLYLINE
  5
358
330
60
100
AcDbEntity
  8
0
 62
     0
100
AcDbPolyFaceMesh
 66
     1
 10
0.0
 20
0.0
 30
0.0
 70
    64
 71
     4
 72
     2
1001
ACAD_MATERIAL_MAPPER
1070
     1
1070
     1
1070
     1
1011
14.5
1021
-0.000000000000003
1031
0.0
1011
14.5
1021
25.39999999999999
1031
0.0
1011
-3.460512242138288
1021
-0.000000000000003
1031
0.0
1011
14.5
1021
-0.000000000000003
1031
1.0
  0
VERTEX
  5
359
330
358
100
AcDbEntity
  8
0
 62
     0
100
AcDbVertex
100
AcDbPolyFaceMeshVertex
 10
12.5
 20
22.8
 30
16.5
 70
   192
  0
VERTEX
  5
35A
330
358
100
AcDbEntity
  8
0
 62
     0
100
AcDbVertex
100
AcDbPolyFaceMeshVertex
 10
11.5
 20
6.0
 30
17.5
 70
   192
  0
VERTEX
  5
35B
330
358
100
AcDbEntity
  8
0
 62
     0
100
AcDbVertex
100
AcDbPolyFaceMeshVertex
 10
12.5
 20
6.0
 30
16.5
 70
   192
  0
VERTEX
  5
35C
330
358
100
AcDbEntity
  8
0
 62
     0
100
AcDbVertex
100
AcDbPolyFaceMeshVertex
 10
11.5
 20
22.8
 30
17.5
 70
   192
  0
VERTEX
  5
35D
330
358
100
AcDbEntity
  8
0
 62
     0
100
AcDbFaceRecord
 10
0.0
 20
0.0
 30
0.0
 70
   128
 71
    -1
 72
     2
 73
     3
  0
VERTEX
  5
35E
330
358
100
AcDbEntity
  8
0
 62
     0
100
AcDbFaceRecord
 10
0.0
 20
0.0
 30
0.0
 70
   128
 71
    -2
 72
     1
 73
     4
  0
SEQEND
  5
35F
330
358
100
AcDbEntity
  8
0
 62
     0
  0
LINE
  5
360
330
60
100
AcDbEntity
  8
0
 62
     0
100
AcDbLine
 10
12.5
 20
6.0
 30
16.5
 11
12.5
 21
22.8
 31
16.5
  0
LINE
  5
361
330
60
100
AcDbEntity
  8
0
 62
     0
100
AcDbLine
 10
12.5
 20
22.8
 30
16.5
 11
11.5
 21
22.8
 31
17.5
  0
LINE
  5
362
330
60
100
AcDbEntity
  8
0
 62
     0
100
AcDbLine
 10
11.5
 20
22.8
 30
17.5
 11
11.5
 21
6.0
 31
17.5
  0
LINE
  5
363
330
60
100
AcDbEntity
  8
0
 62
     0
100
AcDbLine
 10
11.5
 20
6.0
 30
17.5
 11
12.5
 21
6.0
 31
16.5
  0
POLYLINE
  5
364
330
60
100
AcDbEntity
  8
0
 62
     0
100
AcDbPolyFaceMesh
 66
     1
 10
0.0
 20
0.0
 30
0.0
 70
    64
 71
     4
 72
     2
1001
ACAD_MATERIAL_MAPPER
1070
     1
1070
     1
1070
     1
1011
0.0
1021
0.0
1031
0.0
1011
1.0
1021
0.0
1031
0.0
1011
0.0
1021
1.0
1031
0.0
1011
0.0
1021
0.0
1031
1.0
  0
VERTEX
  5
365
330
364
100
AcDbEntity
  8
0
 62
     0
100
AcDbVertex
100
AcDbPolyFaceMeshVertex
 10
9.499999999999995
 20
18.0
 30
7.450961894323342
 70
   192
  0
VERTEX
  5
366
330
364
100
AcDbEntity
  8
0
 62
     0
100
AcDbVertex
100
AcDbPolyFaceMeshVertex
 10
9.138228567653776
 20
16.5
 30
7.301111260566398
 70
   192
  0
VERTEX
  5
367
330
364
100
AcDbEntity
  8
0
 62
     0
100
AcDbVertex
100
AcDbPolyFaceMeshVertex
 10
9.138228567653776
 20
18.0
 30
7.301111260566398
 70
   192
  0
VERTEX
  5
368
330
364
100
AcDbEntity
  8
0
 62
     0
100
AcDbVertex
100
AcDbPolyFaceMeshVertex
 10
9.499999999999995
 20
16.5
 30
7.450961894323342
 70
   192
  0
VERTEX
  5
369
330
364
100
AcDbEntity
  8
0
 62
     0
100
AcDbFaceRecord
 10
0.0
 20
0.0
 30
0.0
 70
   128
 71
    -1
 72
     2
 73
     3
  0
VERTEX
  5
36A
330
364
100
AcDbEntity
  8
0
 62
     0
100
AcDbFaceRecord
 10
0.0
 20
0.0
 30
0.0
 70
   128
 71
    -2
 72
     1
 73
     4
  0
SEQEND
  5
36B
330
364
100
AcDbEntity
  8
0
 62
     0
  0
ARC
  5
36C
330
60
100
AcDbEntity
  8
0
 62
     0
100
AcDbCircle
 10
8.749999999999995
 20
8.75
 30
-18.0
 40
1.500000000000001
210
0.0
220
-1.0
230
0.0
100
AcDbArc
 50
199.6202859532824
 51
340.3797140467175
  0
LINE
  5
36D
330
60
100
AcDbEntity
  8
0
 62
     0
100
AcDbLine
 10
9.499999999999995
 20
18.0
 30
7.450961894323342
 11
9.499999999999995
 21
16.5
 31
7.450961894323342
  0
ARC
  5
36E
330
60
100
AcDbEntity
  8
0
 62
     0
100
AcDbCircle
 10
8.749999999999995
 20
8.75
 30
-16.5
 40
1.499999999999999
210
0.0
220
-1.0
230
0.0
100
AcDbArc
 50
199.6202859532824
 51
340.3797140467175
  0
LINE
  5
36F
330
60
100
AcDbEntity
  8
0
 62
     0
100
AcDbLine
 10
9.138228567653776
 20
18.0
 30
7.301111260566398
 11
9.138228567653776
 21
16.5
 31
7.301111260566398
  0
POLYLINE
  5
370
330
60
100
AcDbEntity
  8
0
 62
     0
100
AcDbPolyFaceMesh
 66
     1
 10
0.0
 20
0.0
 30
0.0
 70
    64
 71
     4
 72
     2
1001
ACAD_MATERIAL_MAPPER
1070
     1
1070
     1
1070
     1
1011
0.0
1021
-0.0000000000003176
1031
-1.243070051555523
1011
0.0
1021
-25.4000000000003
1031
-1.243070051555523
1011
0.0
1021
-0.0000000000003176
1031
22.223470074231
1011
1.0
1021
-0.0000000000003176
1031
-1.243070051555523
  0
VERTEX
  5
371
330
370
100
AcDbEntity
  8
0
 62
     0
100
AcDbVertex
100
AcDbPolyFaceMeshVertex
 10
7.450961894323338
 20
18.0
 30
9.500000000000002
 70
   192
  0
VERTEX
  5
372
330
370
100
AcDbEntity
  8
0
 62
     0
100
AcDbVertex
100
AcDbPolyFaceMeshVertex
 10
7.347408503730063
 20
15.5
 30
9.250000000000002
 70
   192
  0
VERTEX
  5
373
330
370
100
AcDbEntity
  8
0
 62
     0
100
AcDbVertex
100
AcDbPolyFaceMeshVertex
 10
7.450961894323338
 20
15.5
 30
9.500000000000002
 70
   192
  0
VERTEX
  5
374
330
370
100
AcDbEntity
  8
0
 62
     0
100
AcDbVertex
100
AcDbPolyFaceMeshVertex
 10
7.347408503730064
 20
18.0
 30
9.250000000000004
 70
   192
  0
VERTEX
  5
375
330
370
100
AcDbEntity
  8
0
 62
     0
100
AcDbFaceRecord
 10
0.0
 20
0.0
 30
0.0
 70
   128
 71
    -1
 72
     2
 73
     3
  0
VERTEX
  5
376
330
370
100
AcDbEntity
  8
0
 62
     0
100
AcDbFaceRecord
 10
0.0
 20
0.0
 30
0.0
 70
   128
 71
    -2
 72
     1
 73
     4
  0
SEQEND
  5
377
330
370
100
AcDbEntity
  8
0
 62
     0
  0
ARC
  5
378
330
60
100
AcDbEntity
  8
0
 62
     0
100
AcDbCircle
 10
8.749999999999995
 20
8.75
 30
-18.0
 40
1.5
210
0.0
220
-1.0
230
0.0
100
AcDbArc
 50
19.6202859532825
 51
160.3797140467175
  0
LINE
  5
379
330
60
100
AcDbEntity
  8
0
 62
     0
100
AcDbLine
 10
7.347408503730064
 20
18.0
 30
9.250000000000004
 11
7.347408503730063
 21
15.5
 31
9.250000000000002
  0
ARC
  5
37A
330
60
100
AcDbEntity
  8
0
 62
     0
100
AcDbCircle
 10
8.749999999999995
 20
8.75
 30
-15.5
 40
1.499999999999999
210
0.0
220
-1.0
230
0.0
100
AcDbArc
 50
19.62028595328251
 51
160.3797140467175
  0
LINE
  5
37B
330
60
100
AcDbEntity
  8
0
 62
     0
100
AcDbLine
 10
7.450961894323338
 20
18.0
 30
9.500000000000002
 11
7.450961894323338
 21
15.5
 31
9.500000000000002
  0
POLYLINE
  5
37C
330
60
100
AcDbEntity
  8
0
 62
     0
100
AcDbPolyFaceMesh
 66
     1
 10
0.0
 20
0.0
 30
0.0
 70
    64
 71
     4
 72
     2
1001
ACAD_MATERIAL_MAPPER
1070
     1
1070
     1
1070
     1
1011
0.0
1021
0.0
1031
-0.000000000000001
1011
0.0
1021
-25.4
1031
-0.000000000000001
1011
0.0
1021
0.0
1031
25.39999999999999
1011
1.0
1021
0.0
1031
-0.000000000000001
  0
VERTEX
  5
37D
330
37C
100
AcDbEntity
  8
0
 62
     0
100
AcDbVertex
100
AcDbPolyFaceMeshVertex
 10
0.0
 20
22.8
 30
17.5
 70
   192
  0
VERTEX
  5
37E
330
37C
100
AcDbEntity
  8
0
 62
     0
100
AcDbVertex
100
AcDbPolyFaceMeshVertex
 10
0.0
 20
6.0
 30
0.0000000000000014
 70
   192
  0
VERTEX
  5
37F
330
37C
100
AcDbEntity
  8
0
 62
     0
100
AcDbVertex
100
AcDbPolyFaceMeshVertex
 10
0.0
 20
6.0
 30
17.5
 70
   192
  0
VERTEX
  5
380
330
37C
100
AcDbEntity
  8
0
 62
     0
100
AcDbVertex
100
AcDbPolyFaceMeshVertex
 10
0.0
 20
22.8
 30
0.0000000000000014
 70
   192
  0
VERTEX
  5
381
330
37C
100
AcDbEntity
  8
0
 62
     0
100
AcDbFaceRecord
 10
0.0
 20
0.0
 30
0.0
 70
   128
 71
    -1
 72
     2
 73
     3
  0
VERTEX
  5
382
330
37C
100
AcDbEntity
  8
0
 62
     0
100
AcDbFaceRecord
 10
0.0
 20
0.0
 30
0.0
 70
   128
 71
    -2
 72
     1
 73
     4
  0
SEQEND
  5
383
330
37C
100
AcDbEntity
  8
0
 62
     0
  0
LINE
  5
384
330
60
100
AcDbEntity
  8
0
 62
     0
100
AcDbLine
 10
0.0
 20
6.0
 30
17.5
 11
0.0
 21
6.0
 31
0.0000000000000014
  0
LINE
  5
385
330
60
100
AcDbEntity
  8
0
 62
     0
100
AcDbLine
 10
0.0
 20
6.0
 30
17.5
 11
0.0
 21
22.8
 31
17.5
  0
LINE
  5
386
330
60
100
AcDbEntity
  8
0
 62
     0
100
AcDbLine
 10
0.0
 20
22.8
 30
17.5
 11
0.0
 21
22.8
 31
0.0000000000000014
  0
LINE
  5
387
330
60
100
AcDbEntity
  8
0
 62
     0
100
AcDbLine
 10
0.0
 20
6.0
 30
0.0000000000000014
 11
0.0
 21
22.8
 31
0.0000000000000014
  0
POLYLINE
  5
388
330
60
100
AcDbEntity
  8
0
 62
     0
100
AcDbPolyFaceMesh
 66
     1
 10
0.0
 20
0.0
 30
0.0
 70
    64
 71
     6
 72
     4
1001
ACAD_MATERIAL_MAPPER
1070
     1
1070
     1
1070
     1
1011
0.0
1021
-0.0001230546756246
1031
-0.9996498910634004
1011
0.0
1021
25.39987659644547
1031
-1.000930602247377
1011
0.0
1021
-0.002324145835856
1031
16.98367069333928
1011
1.0
1021
-0.0001230546756246
1031
-0.9996498910634004
  0
VERTEX
  5
389
330
388
100
AcDbEntity
  8
0
 62
     0
100
AcDbVertex
100
AcDbPolyFaceMeshVertex
 10
2.010050506346494
 20
22.8
 30
0.0050252531617958
 70
   192
  0
VERTEX
  5
38A
330
388
100
AcDbEntity
  8
0
 62
     0
100
AcDbVertex
100
AcDbPolyFaceMeshVertex
 10
2.505025253540073
 20
6.0
 30
0.5050252535410169
 70
   192
  0
VERTEX
  5
38B
330
388
100
AcDbEntity
  8
0
 62
     0
100
AcDbVertex
100
AcDbPolyFaceMeshVertex
 10
2.01068025126211
 20
6.0
 30
0.0094223597734164
 70
   192
  0
VERTEX
  5
38C
330
388
100
AcDbEntity
  8
0
 62
     0
100
AcDbVertex
100
AcDbPolyFaceMeshVertex
 10
3.0
 20
6.0
 30
1.000000000000001
 70
   192
  0
VERTEX
  5
38D
330
388
100
AcDbEntity
  8
0
 62
     0
100
AcDbVertex
100
AcDbPolyFaceMeshVertex
 10
3.0
 20
22.8
 30
1.000000000000001
 70
   192
  0
VERTEX
  5
38E
330
388
100
AcDbEntity
  8
0
 62
     0
100
AcDbVertex
100
AcDbPolyFaceMeshVertex
 10
2.50502525922141
 20
22.8
 30
0.5025126326521021
 70
   192
  0
VERTEX
  5
38F
330
388
100
AcDbEntity
  8
0
 62
     0
100
AcDbFaceRecord
 10
0.0
 20
0.0
 30
0.0
 70
   128
 71
    -1
 72
     2
 73
     3
  0
VERTEX
  5
390
330
388
100
AcDbEntity
  8
0
 62
     0
100
AcDbFaceRecord
 10
0.0
 20
0.0
 30
0.0
 70
   128
 71
    -2
 72
    -1
 73
     4
  0
VERTEX
  5
391
330
388
100
AcDbEntity
  8
0
 62
     0
100
AcDbFaceRecord
 10
0.0
 20
0.0
 30
0.0
 70
   128
 71
    -4
 72
    -1
 73
     5
  0
VERTEX
  5
392
330
388
100
AcDbEntity
  8
0
 62
     0
100
AcDbFaceRecord
 10
0.0
 20
0.0
 30
0.0
 70
   128
 71
    -5
 72
     1
 73
     6
  0
SEQEND
  5
393
330
388
100
AcDbEntity
  8
0
 62
     0
  0
LINE
  5
394
330
60
100
AcDbEntity
  8
0
 62
     0
100
AcDbLine
 10
2.010050506346494
 20
22.8
 30
0.0050252531617958
 11
2.50502525922141
 21
22.8
 31
0.5025126326521021
  0
LINE
  5
395
330
60
100
AcDbEntity
  8
0
 62
     0
100
AcDbLine
 10
2.50502525922141
 20
22.8
 30
0.5025126326521021
 11
3.0
 21
22.8
 31
1.000000000000001
  0
LINE
  5
396
330
60
100
AcDbEntity
  8
0
 62
     0
100
AcDbLine
 10
3.0
 20
22.8
 30
1.000000000000001
 11
3.0
 21
6.0
 31
1.000000000000001
  0
LINE
  5
397
330
60
100
AcDbEntity
  8
0
 62
     0
100
AcDbLine
 10
3.0
 20
6.0
 30
1.000000000000001
 11
2.505025253540073
 21
6.0
 31
0.5050252535410169
  0
LINE
  5
398
330
60
100
AcDbEntity
  8
0
 62
     0
100
AcDbLine
 10
2.505025253540073
 20
6.0
 30
0.5050252535410169
 11
2.01068025126211
 21
6.0
 31
0.0094223597734164
  0
LINE
  5
399
330
60
100
AcDbEntity
  8
0
 62
     0
100
AcDbLine
 10
2.01068025126211
 20
6.0
 30
0.0094223597734164
 11
2.010050506346494
 21
22.8
 31
0.0050252531617958
  0
POLYLINE
  5
39A
330
60
100
AcDbEntity
  8
0
 62
     0
100
AcDbPolyFaceMesh
 66
     1
 10
0.0
 20
0.0
 30
0.0
 70
    64
 71
    12
 72
    10
1001
ACAD_MATERIAL_MAPPER
1070
     1
1070
     1
1070
     1
1011
0.0000000000000011
1021
0.0000000000000043
1031
0.0
1011
-25.4
1021
0.0000000000000043
1031
0.0
1011
0.0000000000000011
1021
25.4
1031
0.0
1011
0.0000000000000011
1021
0.0000000000000043
1031
1.0
  0
VERTEX
  5
39B
330
39A
100
AcDbEntity
  8
0
 62
     0
100
AcDbVertex
100
AcDbPolyFaceMeshVertex
 10
5.0
 20
22.8
 30
1.000000000000001
 70
   192
  0
VERTEX
  5
39C
330
39A
100
AcDbEntity
  8
0
 62
     0
100
AcDbVertex
100
AcDbPolyFaceMeshVertex
 10
3.0
 20
6.0
 30
1.000000000000001
 70
   192
  0
VERTEX
  5
39D
330
39A
100
AcDbEntity
  8
0
 62
     0
100
AcDbVertex
100
AcDbPolyFaceMeshVertex
 10
3.0
 20
22.8
 30
1.000000000000001
 70
   192
  0
VERTEX
  5
39E
330
39A
100
AcDbEntity
  8
0
 62
     0
100
AcDbVertex
100
AcDbPolyFaceMeshVertex
 10
14.5
 20
22.8
 30
1.0
 70
   192
  0
VERTEX
  5
39F
330
39A
100
AcDbEntity
  8
0
 62
     0
100
AcDbVertex
100
AcDbPolyFaceMeshVertex
 10
12.5
 20
6.0
 30
1.000000000000001
 70
   192
  0
VERTEX
  5
3A0
330
39A
100
AcDbEntity
  8
0
 62
     0
100
AcDbVertex
100
AcDbPolyFaceMeshVertex
 10
12.5
 20
22.8
 30
1.0
 70
   192
  0
VERTEX
  5
3A1
330
39A
100
AcDbEntity
  8
0
 62
     0
100
AcDbVertex
100
AcDbPolyFaceMeshVertex
 10
0.9999999999999981
 20
-0.4999999999999998
 30
1.000000000000001
 70
   192
  0
VERTEX
  5
3A2
330
39A
100
AcDbEntity
  8
0
 62
     0
100
AcDbVertex
100
AcDbPolyFaceMeshVertex
 10
0.9999999999999981
 20
6.0
 30
1.000000000000001
 70
   192
  0
VERTEX
  5
3A3
330
39A
100
AcDbEntity
  8
0
 62
     0
100
AcDbVertex
100
AcDbPolyFaceMeshVertex
 10
16.5
 20
-0.4999999999999998
 30
1.000000000000001
 70
   192
  0
VERTEX
  5
3A4
330
39A
100
AcDbEntity
  8
0
 62
     0
100
AcDbVertex
100
AcDbPolyFaceMeshVertex
 10
5.0
 20
6.0
 30
1.000000000000001
 70
   192
  0
VERTEX
  5
3A5
330
39A
100
AcDbEntity
  8
0
 62
     0
100
AcDbVertex
100
AcDbPolyFaceMeshVertex
 10
14.5
 20
6.0
 30
1.000000000000001
 70
   192
  0
VERTEX
  5
3A6
330
39A
100
AcDbEntity
  8
0
 62
     0
100
AcDbVertex
100
AcDbPolyFaceMeshVertex
 10
16.5
 20
6.0
 30
1.000000000000001
 70
   192
  0
VERTEX
  5
3A7
330
39A
100
AcDbEntity
  8
0
 62
     0
100
AcDbFaceRecord
 10
0.0
 20
0.0
 30
0.0
 70
   128
 71
    -1
 72
     2
 73
     3
  0
VERTEX
  5
3A8
330
39A
100
AcDbEntity
  8
0
 62
     0
100
AcDbFaceRecord
 10
0.0
 20
0.0
 30
0.0
 70
   128
 71
    -4
 72
     5
 73
     6
  0
VERTEX
  5
3A9
330
39A
100
AcDbEntity
  8
0
 62
     0
100
AcDbFaceRecord
 10
0.0
 20
0.0
 30
0.0
 70
   128
 71
    -2
 72
     7
 73
     8
  0
VERTEX
  5
3AA
330
39A
100
AcDbEntity
  8
0
 62
     0
100
AcDbFaceRecord
 10
0.0
 20
0.0
 30
0.0
 70
   128
 71
    -7
 72
    -2
 73
     9
  0
VERTEX
  5
3AB
330
39A
100
AcDbEntity
  8
0
 62
     0
100
AcDbFaceRecord
 10
0.0
 20
0.0
 30
0.0
 70
   128
 71
    -9
 72
    -2
 73
   -10
  0
VERTEX
  5
3AC
330
39A
100
AcDbEntity
  8
0
 62
     0
100
AcDbFaceRecord
 10
0.0
 20
0.0
 30
0.0
 70
   128
 71
   -10
 72
    -2
 73
     1
  0
VERTEX
  5
3AD
330
39A
100
AcDbEntity
  8
0
 62
     0
100
AcDbFaceRecord
 10
0.0
 20
0.0
 30
0.0
 70
   128
 71
    -9
 72
    10
 73
    -5
  0
VERTEX
  5
3AE
330
39A
100
AcDbEntity
  8
0
 62
     0
100
AcDbFaceRecord
 10
0.0
 20
0.0
 30
0.0
 70
   128
 71
    -9
 72
    -5
 73
   -11
  0
VERTEX
  5
3AF
330
39A
100
AcDbEntity
  8
0
 62
     0
100
AcDbFaceRecord
 10
0.0
 20
0.0
 30
0.0
 70
   128
 71
   -11
 72
    -5
 73
     4
  0
VERTEX
  5
3B0
330
39A
100
AcDbEntity
  8
0
 62
     0
100
AcDbFaceRecord
 10
0.0
 20
0.0
 30
0.0
 70
   128
 71
    -9
 72
    11
 73
    12
  0
SEQEND
  5
3B1
330
39A
100
AcDbEntity
  8
0
 62
     0
  0
LINE
  5
3B2
330
60
100
AcDbEntity
  8
0
 62
     0
100
AcDbLine
 10
5.0
 20
6.0
 30
1.000000000000001
 11
5.0
 21
22.8
 31
1.000000000000001
  0
LINE
  5
3B3
330
60
100
AcDbEntity
  8
0
 62
     0
100
AcDbLine
 10
12.5
 20
6.0
 30
1.000000000000001
 11
5.0
 21
6.0
 31
1.000000000000001
  0
LINE
  5
3B4
330
60
100
AcDbEntity
  8
0
 62
     0
100
AcDbLine
 10
12.5
 20
22.8
 30
1.0
 11
12.5
 21
6.0
 31
1.000000000000001
  0
LINE
  5
3B5
330
60
100
AcDbEntity
  8
0
 62
     0
100
AcDbLine
 10
14.5
 20
22.8
 30
1.0
 11
12.5
 21
22.8
 31
1.0
  0
LINE
  5
3B6
330
60
100
AcDbEntity
  8
0
 62
     0
100
AcDbLine
 10
14.5
 20
6.0
 30
1.000000000000001
 11
14.5
 21
22.8
 31
1.0
  0
LINE
  5
3B7
330
60
100
AcDbEntity
  8
0
 62
     0
100
AcDbLine
 10
16.5
 20
6.0
 30
1.000000000000001
 11
14.5
 21
6.0
 31
1.000000000000001
  0
LINE
  5
3B8
330
60
100
AcDbEntity
  8
0
 62
     0
100
AcDbLine
 10
16.5
 20
-0.4999999999999998
 30
1.000000000000001
 11
16.5
 21
6.0
 31
1.000000000000001
  0
LINE
  5
3B9
330
60
100
AcDbEntity
  8
0
 62
     0
100
AcDbLine
 10
0.9999999999999981
 20
-0.4999999999999998
 30
1.000000000000001
 11
16.5
 21
-0.4999999999999998
 31
1.000000000000001
  0
LINE
  5
3BA
330
60
100
AcDbEntity
  8
0
 62
     0
100
AcDbLine
 10
0.9999999999999981
 20
-0.4999999999999998
 30
1.000000000000001
 11
0.9999999999999981
 21
6.0
 31
1.000000000000001
  0
LINE
  5
3BB
330
60
100
AcDbEntity
  8
0
 62
     0
100
AcDbLine
 10
3.0
 20
6.0
 30
1.000000000000001
 11
0.9999999999999981
 21
6.0
 31
1.000000000000001
  0
LINE
  5
3BC
330
60
100
AcDbEntity
  8
0
 62
     0
100
AcDbLine
 10
3.0
 20
22.8
 30
1.000000000000001
 11
3.0
 21
6.0
 31
1.000000000000001
  0
LINE
  5
3BD
330
60
100
AcDbEntity
  8
0
 62
     0
100
AcDbLine
 10
5.0
 20
22.8
 30
1.000000000000001
 11
3.0
 21
22.8
 31
1.000000000000001
  0
POLYLINE
  5
3BE
330
60
100
AcDbEntity
  8
0
 62
     0
100
AcDbPolyFaceMesh
 66
     1
 10
0.0
 20
0.0
 30
0.0
 70
    64
 71
     4
 72
     2
1001
ACAD_MATERIAL_MAPPER
1070
     1
1070
     1
1070
     1
1011
0.0
1021
-0.0000000000000001
1031
0.0
1011
0.0
1021
-25.4
1031
0.0
1011
0.0
1021
-0.0000000000000001
1031
25.4
1011
1.0
1021
-0.0000000000000001
1031
0.0
  0
VERTEX
  5
3BF
330
3BE
100
AcDbEntity
  8
0
 62
     0
100
AcDbVertex
100
AcDbPolyFaceMeshVertex
 10
15.5
 20
22.8
 30
15.5
 70
   192
  0
VERTEX
  5
3C0
330
3BE
100
AcDbEntity
  8
0
 62
     0
100
AcDbVertex
100
AcDbPolyFaceMeshVertex
 10
15.5
 20
-0.4999999999999998
 30
9.250000000000002
 70
   192
  0
VERTEX
  5
3C1
330
3BE
100
AcDbEntity
  8
0
 62
     0
100
AcDbVertex
100
AcDbPolyFaceMeshVertex
 10
15.5
 20
-0.4999999999999998
 30
15.5
 70
   192
  0
VERTEX
  5
3C2
330
3BE
100
AcDbEntity
  8
0
 62
     0
100
AcDbVertex
100
AcDbPolyFaceMeshVertex
 10
15.5
 20
22.8
 30
9.250000000000002
 70
   192
  0
VERTEX
  5
3C3
330
3BE
100
AcDbEntity
  8
0
 62
     0
100
AcDbFaceRecord
 10
0.0
 20
0.0
 30
0.0
 70
   128
 71
    -1
 72
     2
 73
     3
  0
VERTEX
  5
3C4
330
3BE
100
AcDbEntity
  8
0
 62
     0
100
AcDbFaceRecord
 10
0.0
 20
0.0
 30
0.0
 70
   128
 71
    -2
 72
     1
 73
     4
  0
SEQEND
  5
3C5
330
3BE
100
AcDbEntity
  8
0
 62
     0
  0
LINE
  5
3C6
330
60
100
AcDbEntity
  8
0
 62
     0
100
AcDbLine
 10
15.5
 20
22.8
 30
9.250000000000002
 11
15.5
 21
22.8
 31
15.5
  0
LINE
  5
3C7
330
60
100
AcDbEntity
  8
0
 62
     0
100
AcDbLine
 10
15.5
 20
22.8
 30
9.250000000000002
 11
15.5
 21
-0.4999999999999998
 31
9.250000000000002
  0
LINE
  5
3C8
330
60
100
AcDbEntity
  8
0
 62
     0
100
AcDbLine
 10
15.5
 20
-0.4999999999999998
 30
15.5
 11
15.5
 21
-0.4999999999999998
 31
9.250000000000002
  0
LINE
  5
3C9
330
60
100
AcDbEntity
  8
0
 62
     0
100
AcDbLine
 10
15.5
 20
-0.4999999999999998
 30
15.5
 11
15.5
 21
22.8
 31
15.5
  0
POLYLINE
  5
3CA
330
60
100
AcDbEntity
  8
0
 62
     0
100
AcDbPolyFaceMesh
 66
     1
 10
0.0
 20
0.0
 30
0.0
 70
    64
 71
    11
 72
     9
1001
ACAD_MATERIAL_MAPPER
1070
     1
1070
     1
1070
     1
1011
0.0
1021
0.0
1031
0.0
1011
1.0
1021
0.0
1031
0.0
1011
0.0
1021
0.0
1031
1.0
1011
0.0
1021
1.0
1031
0.0
  0
VERTEX
  5
3CB
330
3CA
100
AcDbEntity
  8
0
 62
     0
100
AcDbVertex
100
AcDbPolyFaceMeshVertex
 10
9.138228567653776
 20
16.5
 30
7.301111260566398
 70
   192
  0
VERTEX
  5
3CC
330
3CA
100
AcDbEntity
  8
0
 62
     0
100
AcDbVertex
100
AcDbPolyFaceMeshVertex
 10
8.361771432346213
 20
16.5
 30
7.301111260566398
 70
   192
  0
VERTEX
  5
3CD
330
3CA
100
AcDbEntity
  8
0
 62
     0
100
AcDbVertex
100
AcDbPolyFaceMeshVertex
 10
8.749999999999995
 20
16.5
 30
7.250000000000001
 70
   192
  0
VERTEX
  5
3CE
330
3CA
100
AcDbEntity
  8
0
 62
     0
100
AcDbVertex
100
AcDbPolyFaceMeshVertex
 10
9.499999999999995
 20
16.5
 30
7.450961894323342
 70
   192
  0
VERTEX
  5
3CF
330
3CA
100
AcDbEntity
  8
0
 62
     0
100
AcDbVertex
100
AcDbPolyFaceMeshVertex
 10
7.999999999999996
 20
16.5
 30
7.450961894323344
 70
   192
  0
VERTEX
  5
3D0
330
3CA
100
AcDbEntity
  8
0
 62
     0
100
AcDbVertex
100
AcDbPolyFaceMeshVertex
 10
9.810660171779816
 20
16.5
 30
7.68933982822018
 70
   192
  0
VERTEX
  5
3D1
330
3CA
100
AcDbEntity
  8
0
 62
     0
100
AcDbVertex
100
AcDbPolyFaceMeshVertex
 10
7.689339828220174
 20
16.5
 30
7.68933982822018
 70
   192
  0
VERTEX
  5
3D2
330
3CA
100
AcDbEntity
  8
0
 62
     0
100
AcDbVertex
100
AcDbPolyFaceMeshVertex
 10
10.04903810567665
 20
16.5
 30
8.0
 70
   192
  0
VERTEX
  5
3D3
330
3CA
100
AcDbEntity
  8
0
 62
     0
100
AcDbVertex
100
AcDbPolyFaceMeshVertex
 10
7.450961894323338
 20
16.5
 30
8.0
 70
   192
  0
VERTEX
  5
3D4
330
3CA
100
AcDbEntity
  8
0
 62
     0
100
AcDbVertex
100
AcDbPolyFaceMeshVertex
 10
10.15259149626993
 20
16.5
 30
8.250000000000002
 70
   192
  0
VERTEX
  5
3D5
330
3CA
100
AcDbEntity
  8
0
 62
     0
100
AcDbVertex
100
AcDbPolyFaceMeshVertex
 10
7.347408503730063
 20
16.5
 30
8.250000000000002
 70
   192
  0
VERTEX
  5
3D6
330
3CA
100
AcDbEntity
  8
0
 62
     0
100
AcDbFaceRecord
 10
0.0
 20
0.0
 30
0.0
 70
   128
 71
    -1
 72
     2
 73
     3
  0
VERTEX
  5
3D7
330
3CA
100
AcDbEntity
  8
0
 62
     0
100
AcDbFaceRecord
 10
0.0
 20
0.0
 30
0.0
 70
   128
 71
    -2
 72
     1
 73
    -4
  0
VERTEX
  5
3D8
330
3CA
100
AcDbEntity
  8
0
 62
     0
100
AcDbFaceRecord
 10
0.0
 20
0.0
 30
0.0
 70
   128
 71
    -2
 72
    -4
 73
     5
  0
VERTEX
  5
3D9
330
3CA
100
AcDbEntity
  8
0
 62
     0
100
AcDbFaceRecord
 10
0.0
 20
0.0
 30
0.0
 70
   128
 71
    -5
 72
     4
 73
    -6
  0
VERTEX
  5
3DA
330
3CA
100
AcDbEntity
  8
0
 62
     0
100
AcDbFaceRecord
 10
0.0
 20
0.0
 30
0.0
 70
   128
 71
    -5
 72
    -6
 73
     7
  0
VERTEX
  5
3DB
330
3CA
100
AcDbEntity
  8
0
 62
     0
100
AcDbFaceRecord
 10
0.0
 20
0.0
 30
0.0
 70
   128
 71
    -7
 72
     6
 73
    -8
  0
VERTEX
  5
3DC
330
3CA
100
AcDbEntity
  8
0
 62
     0
100
AcDbFaceRecord
 10
0.0
 20
0.0
 30
0.0
 70
   128
 71
    -7
 72
    -8
 73
     9
  0
VERTEX
  5
3DD
330
3CA
100
AcDbEntity
  8
0
 62
     0
100
AcDbFaceRecord
 10
0.0
 20
0.0
 30
0.0
 70
   128
 71
    -9
 72
     8
 73
   -10
  0
VERTEX
  5
3DE
330
3CA
100
AcDbEntity
  8
0
 62
     0
100
AcDbFaceRecord
 10
0.0
 20
0.0
 30
0.0
 70
   128
 71
    -9
 72
    10
 73
    11
  0
SEQEND
  5
3DF
330
3CA
100
AcDbEntity
  8
0
 62
     0
  0
ARC
  5
3E0
330
60
100
AcDbEntity
  8
0
 62
     0
100
AcDbCircle
 10
8.749999999999995
 20
8.75
 30
-16.5
 40
1.499999999999999
210
0.0
220
-1.0
230
0.0
100
AcDbArc
 50
199.6202859532824
 51
340.3797140467175
  0
LINE
  5
3E1
330
60
100
AcDbEntity
  8
0
 62
     0
100
AcDbLine
 10
10.15259149626993
 20
16.5
 30
8.250000000000002
 11
7.347408503730063
 21
16.5
 31
8.250000000000002
  0
ARC
  5
3E2
330
60
100
AcDbEntity
  8
0
 62
     0
100
AcDbCircle
 10
8.749999999999995
 20
8.75
 30
-16.5
 40
1.499999999999999
210
0.0
220
-1.0
230
0.0
100
AcDbArc
 50
199.6202859532824
 51
340.3797140467175
  0
POLYLINE
  5
3E3
330
60
100
AcDbEntity
  8
0
 62
     0
100
AcDbPolyFaceMesh
 66
     1
 10
0.0
 20
0.0
 30
0.0
 70
    64
 71
     4
 72
     2
1001
ACAD_MATERIAL_MAPPER
1070
     1
1070
     1
1070
     1
1011
0.0
1021
-0.0000000000000011
1031
0.0
1011
25.4
1021
-0.0000000000000011
1031
0.0
1011
0.0
1021
25.4
1031
0.0
1011
0.0
1021
-0.0000000000000011
1031
1.0
  0
VERTEX
  5
3E4
330
3E3
100
AcDbEntity
  8
0
 62
     0
100
AcDbVertex
100
AcDbPolyFaceMeshVertex
 10
2.0
 20
6.0
 30
17.5
 70
   192
  0
VERTEX
  5
3E5
330
3E3
100
AcDbEntity
  8
0
 62
     0
100
AcDbVertex
100
AcDbPolyFaceMeshVertex
 10
0.0
 20
22.8
 30
17.5
 70
   192
  0
VERTEX
  5
3E6
330
3E3
100
AcDbEntity
  8
0
 62
     0
100
AcDbVertex
100
AcDbPolyFaceMeshVertex
 10
0.0
 20
6.0
 30
17.5
 70
   192
  0
VERTEX
  5
3E7
330
3E3
100
AcDbEntity
  8
0
 62
     0
100
AcDbVertex
100
AcDbPolyFaceMeshVertex
 10
2.0
 20
22.8
 30
17.5
 70
   192
  0
VERTEX
  5
3E8
330
3E3
100
AcDbEntity
  8
0
 62
     0
100
AcDbFaceRecord
 10
0.0
 20
0.0
 30
0.0
 70
   128
 71
    -1
 72
     2
 73
     3
  0
VERTEX
  5
3E9
330
3E3
100
AcDbEntity
  8
0
 62
     0
100
AcDbFaceRecord
 10
0.0
 20
0.0
 30
0.0
 70
   128
 71
    -2
 72
     1
 73
     4
  0
SEQEND
  5
3EA
330
3E3
100
AcDbEntity
  8
0
 62
     0
  0
LINE
  5
3EB
330
60
100
AcDbEntity
  8
0
 62
     0
100
AcDbLine
 10
2.0
 20
6.0
 30
17.5
 11
0.0
 21
6.0
 31
17.5
  0
LINE
  5
3EC
330
60
100
AcDbEntity
  8
0
 62
     0
100
AcDbLine
 10
2.0
 20
22.8
 30
17.5
 11
2.0
 21
6.0
 31
17.5
  0
LINE
  5
3ED
330
60
100
AcDbEntity
  8
0
 62
     0
100
AcDbLine
 10
2.0
 20
22.8
 30
17.5
 11
0.0
 21
22.8
 31
17.5
  0
LINE
  5
3EE
330
60
100
AcDbEntity
  8
0
 62
     0
100
AcDbLine
 10
0.0
 20
6.0
 30
17.5
 11
0.0
 21
22.8
 31
17.5
  0
POLYLINE
  5
3EF
330
60
100
AcDbEntity
  8
0
 62
     0
100
AcDbPolyFaceMesh
 66
     1
 10
0.0
 20
0.0
 30
0.0
 70
    64
 71
     4
 72
     2
1001
ACAD_MATERIAL_MAPPER
1070
     1
1070
     1
1070
     1
1011
4.944114283827037
1021
0.0000000000001463
1031
0.0
1011
4.944114283827037
1021
25.40000000000014
1031
0.0
1011
-18.52242584195956
1021
0.0000000000001463
1031
0.0
1011
4.944114283827037
1021
0.0000000000001463
1031
1.0
  0
VERTEX
  5
3F0
330
3EF
100
AcDbEntity
  8
0
 62
     0
100
AcDbVertex
100
AcDbPolyFaceMeshVertex
 10
9.499999999999995
 20
15.5
 30
10.04903810567666
 70
   192
  0
VERTEX
  5
3F1
330
3EF
100
AcDbEntity
  8
0
 62
     0
100
AcDbVertex
100
AcDbPolyFaceMeshVertex
 10
9.138228567653778
 20
18.0
 30
10.1988887394336
 70
   192
  0
VERTEX
  5
3F2
330
3EF
100
AcDbEntity
  8
0
 62
     0
100
AcDbVertex
100
AcDbPolyFaceMeshVertex
 10
9.138228567653778
 20
15.5
 30
10.1988887394336
 70
   192
  0
VERTEX
  5
3F3
330
3EF
100
AcDbEntity
  8
0
 62
     0
100
AcDbVertex
100
AcDbPolyFaceMeshVertex
 10
9.499999999999995
 20
18.0
 30
10.04903810567666
 70
   192
  0
VERTEX
  5
3F4
330
3EF
100
AcDbEntity
  8
0
 62
     0
100
AcDbFaceRecord
 10
0.0
 20
0.0
 30
0.0
 70
   128
 71
    -1
 72
     2
 73
     3
  0
VERTEX
  5
3F5
330
3EF
100
AcDbEntity
  8
0
 62
     0
100
AcDbFaceRecord
 10
0.0
 20
0.0
 30
0.0
 70
   128
 71
    -2
 72
     1
 73
     4
  0
SEQEND
  5
3F6
330
3EF
100
AcDbEntity
  8
0
 62
     0
  0
ARC
  5
3F7
330
60
100
AcDbEntity
  8
0
 62
     0
100
AcDbCircle
 10
8.749999999999995
 20
8.75
 30
-18.0
 40
1.5
210
0.0
220
-1.0
230
0.0
100
AcDbArc
 50
19.6202859532825
 51
160.3797140467175
  0
LINE
  5
3F8
330
60
100
AcDbEntity
  8
0
 62
     0
100
AcDbLine
 10
9.138228567653778
 20
18.0
 30
10.1988887394336
 11
9.138228567653778
 21
15.5
 31
10.1988887394336
  0
ARC
  5
3F9
330
60
100
AcDbEntity
  8
0
 62
     0
100
AcDbCircle
 10
8.749999999999995
 20
8.75
 30
-15.5
 40
1.499999999999999
210
0.0
220
-1.0
230
0.0
100
AcDbArc
 50
19.62028595328251
 51
160.3797140467175
  0
LINE
  5
3FA
330
60
100
AcDbEntity
  8
0
 62
     0
100
AcDbLine
 10
9.499999999999995
 20
18.0
 30
10.04903810567666
 11
9.499999999999995
 21
15.5
 31
10.04903810567666
  0
POLYLINE
  5
3FB
330
60
100
AcDbEntity
  8
0
 62
     0
100
AcDbPolyFaceMesh
 66
     1
 10
0.0
 20
0.0
 30
0.0
 70
    64
 71
     4
 72
     2
1001
ACAD_MATERIAL_MAPPER
1070
     1
1070
     1
1070
     1
1011
-2.381298619209167
1021
0.0
1031
0.0
1011
-2.381298619209167
1021
-25.4
1031
0.0
1011
21.08524150657758
1021
0.0
1031
0.0
1011
-2.381298619209167
1021
0.0
1031
1.0
  0
VERTEX
  5
3FC
330
3FB
100
AcDbEntity
  8
0
 62
     0
100
AcDbVertex
100
AcDbPolyFaceMeshVertex
 10
8.361771432346215
 20
15.5
 30
10.1988887394336
 70
   192
  0
VERTEX
  5
3FD
330
3FB
100
AcDbEntity
  8
0
 62
     0
100
AcDbVertex
100
AcDbPolyFaceMeshVertex
 10
7.999999999999996
 20
18.0
 30
10.04903810567666
 70
   192
  0
VERTEX
  5
3FE
330
3FB
100
AcDbEntity
  8
0
 62
     0
100
AcDbVertex
100
AcDbPolyFaceMeshVertex
 10
7.999999999999996
 20
15.5
 30
10.04903810567666
 70
   192
  0
VERTEX
  5
3FF
330
3FB
100
AcDbEntity
  8
0
 62
     0
100
AcDbVertex
100
AcDbPolyFaceMeshVertex
 10
8.361771432346215
 20
18.0
 30
10.1988887394336
 70
   192
  0
VERTEX
  5
400
330
3FB
100
AcDbEntity
  8
0
 62
     0
100
AcDbFaceRecord
 10
0.0
 20
0.0
 30
0.0
 70
   128
 71
    -1
 72
     2
 73
     3
  0
VERTEX
  5
401
330
3FB
100
AcDbEntity
  8
0
 62
     0
100
AcDbFaceRecord
 10
0.0
 20
0.0
 30
0.0
 70
   128
 71
    -2
 72
     1
 73
     4
  0
SEQEND
  5
402
330
3FB
100
AcDbEntity
  8
0
 62
     0
  0
ARC
  5
403
330
60
100
AcDbEntity
  8
0
 62
     0
100
AcDbCircle
 10
8.749999999999995
 20
8.75
 30
-18.0
 40
1.5
210
0.0
220
-1.0
230
0.0
100
AcDbArc
 50
19.6202859532825
 51
160.3797140467175
  0
LINE
  5
404
330
60
100
AcDbEntity
  8
0
 62
     0
100
AcDbLine
 10
7.999999999999996
 20
18.0
 30
10.04903810567666
 11
7.999999999999996
 21
15.5
 31
10.04903810567666
  0
ARC
  5
405
330
60
100
AcDbEntity
  8
0
 62
     0
100
AcDbCircle
 10
8.749999999999995
 20
8.75
 30
-15.5
 40
1.499999999999999
210
0.0
220
-1.0
230
0.0
100
AcDbArc
 50
19.62028595328251
 51
160.3797140467175
  0
LINE
  5
406
330
60
100
AcDbEntity
  8
0
 62
     0
100
AcDbLine
 10
8.361771432346215
 20
18.0
 30
10.1988887394336
 11
8.361771432346215
 21
15.5
 31
10.1988887394336
  0
POLYLINE
  5
407
330
60
100
AcDbEntity
  8
0
 62
     0
100
AcDbPolyFaceMesh
 66
     1
 10
0.0
 20
0.0
 30
0.0
 70
    64
 71
    11
 72
     9
1001
ACAD_MATERIAL_MAPPER
1070
     1
1070
     1
1070
     1
1011
0.0000000000001021
1021
0.0
1031
0.0000000000001021
1011
25.40000000000011
1021
0.0
1031
0.0000000000001021
1011
0.0000000000001021
1021
0.0
1031
25.40000000000023
1011
0.0000000000001021
1021
1.0
1031
0.0000000000001021
  0
VERTEX
  5
408
330
407
100
AcDbEntity
  8
0
 62
     0
100
AcDbVertex
100
AcDbPolyFaceMeshVertex
 10
10.04903810567665
 20
15.5
 30
9.500000000000002
 70
   192
  0
VERTEX
  5
409
330
407
100
AcDbEntity
  8
0
 62
     0
100
AcDbVertex
100
AcDbPolyFaceMeshVertex
 10
7.347408503730063
 20
15.5
 30
9.250000000000002
 70
   192
  0
VERTEX
  5
40A
330
407
100
AcDbEntity
  8
0
 62
     0
100
AcDbVertex
100
AcDbPolyFaceMeshVertex
 10
10.15259149626993
 20
15.5
 30
9.250000000000002
 70
   192
  0
VERTEX
  5
40B
330
407
100
AcDbEntity
  8
0
 62
     0
100
AcDbVertex
100
AcDbPolyFaceMeshVertex
 10
7.450961894323338
 20
15.5
 30
9.500000000000002
 70
   192
  0
VERTEX
  5
40C
330
407
100
AcDbEntity
  8
0
 62
     0
100
AcDbVertex
100
AcDbPolyFaceMeshVertex
 10
9.810660171779816
 20
15.5
 30
9.810660171779823
 70
   192
  0
VERTEX
  5
40D
330
407
100
AcDbEntity
  8
0
 62
     0
100
AcDbVertex
100
AcDbPolyFaceMeshVertex
 10
7.689339828220174
 20
15.5
 30
9.810660171779823
 70
   192
  0
VERTEX
  5
40E
330
407
100
AcDbEntity
  8
0
 62
     0
100
AcDbVertex
100
AcDbPolyFaceMeshVertex
 10
9.499999999999995
 20
15.5
 30
10.04903810567666
 70
   192
  0
VERTEX
  5
40F
330
407
100
AcDbEntity
  8
0
 62
     0
100
AcDbVertex
100
AcDbPolyFaceMeshVertex
 10
7.999999999999996
 20
15.5
 30
10.04903810567666
 70
   192
  0
VERTEX
  5
410
330
407
100
AcDbEntity
  8
0
 62
     0
100
AcDbVertex
100
AcDbPolyFaceMeshVertex
 10
9.138228567653778
 20
15.5
 30
10.1988887394336
 70
   192
  0
VERTEX
  5
411
330
407
100
AcDbEntity
  8
0
 62
     0
100
AcDbVertex
100
AcDbPolyFaceMeshVertex
 10
8.361771432346215
 20
15.5
 30
10.1988887394336
 70
   192
  0
VERTEX
  5
412
330
407
100
AcDbEntity
  8
0
 62
     0
100
AcDbVertex
100
AcDbPolyFaceMeshVertex
 10
8.749999999999995
 20
15.5
 30
10.25
 70
   192
  0
VERTEX
  5
413
330
407
100
AcDbEntity
  8
0
 62
     0
100
AcDbFaceRecord
 10
0.0
 20
0.0
 30
0.0
 70
   128
 71
    -1
 72
     2
 73
     3
  0
VERTEX
  5
414
330
407
100
AcDbEntity
  8
0
 62
     0
100
AcDbFaceRecord
 10
0.0
 20
0.0
 30
0.0
 70
   128
 71
    -2
 72
    -1
 73
     4
  0
VERTEX
  5
415
330
407
100
AcDbEntity
  8
0
 62
     0
100
AcDbFaceRecord
 10
0.0
 20
0.0
 30
0.0
 70
   128
 71
    -4
 72
     1
 73
    -5
  0
VERTEX
  5
416
330
407
100
AcDbEntity
  8
0
 62
     0
100
AcDbFaceRecord
 10
0.0
 20
0.0
 30
0.0
 70
   128
 71
    -4
 72
    -5
 73
     6
  0
VERTEX
  5
417
330
407
100
AcDbEntity
  8
0
 62
     0
100
AcDbFaceRecord
 10
0.0
 20
0.0
 30
0.0
 70
   128
 71
    -6
 72
     5
 73
    -7
  0
VERTEX
  5
418
330
407
100
AcDbEntity
  8
0
 62
     0
100
AcDbFaceRecord
 10
0.0
 20
0.0
 30
0.0
 70
   128
 71
    -6
 72
    -7
 73
     8
  0
VERTEX
  5
419
330
407
100
AcDbEntity
  8
0
 62
     0
100
AcDbFaceRecord
 10
0.0
 20
0.0
 30
0.0
 70
   128
 71
    -8
 72
     7
 73
    -9
  0
VERTEX
  5
41A
330
407
100
AcDbEntity
  8
0
 62
     0
100
AcDbFaceRecord
 10
0.0
 20
0.0
 30
0.0
 70
   128
 71
    -8
 72
    -9
 73
    10
  0
VERTEX
  5
41B
330
407
100
AcDbEntity
  8
0
 62
     0
100
AcDbFaceRecord
 10
0.0
 20
0.0
 30
0.0
 70
   128
 71
   -10
 72
     9
 73
    11
  0
SEQEND
  5
41C
330
407
100
AcDbEntity
  8
0
 62
     0
  0
ARC
  5
41D
330
60
100
AcDbEntity
  8
0
 62
     0
100
AcDbCircle
 10
8.749999999999995
 20
8.75
 30
-15.5
 40
1.499999999999999
210
0.0
220
-1.0
230
0.0
100
AcDbArc
 50
19.62028595328251
 51
160.3797140467175
  0
LINE
  5
41E
330
60
100
AcDbEntity
  8
0
 62
     0
100
AcDbLine
 10
7.347408503730063
 20
15.5
 30
9.250000000000002
 11
10.15259149626993
 21
15.5
 31
9.250000000000002
  0
ARC
  5
41F
330
60
100
AcDbEntity
  8
0
 62
     0
100
AcDbCircle
 10
8.749999999999995
 20
8.75
 30
-15.5
 40
1.499999999999999
210
0.0
220
-1.0
230
0.0
100
AcDbArc
 50
19.62028595328251
 51
160.3797140467175
  0
POLYLINE
  5
420
330
60
100
AcDbEntity
  8
0
 62
     0
100
AcDbPolyFaceMesh
 66
     1
 10
0.0
 20
0.0
 30
0.0
 70
    64
 71
     4
 72
     2
1001
ACAD_MATERIAL_MAPPER
1070
     1
1070
     1
1070
     1
1011
0.0
1021
0.0
1031
8.373922253581085
1011
0.0
1021
25.4
1031
8.373922253581085
1011
0.0
1021
0.0
1031
28.52509709697836
1011
1.0
1021
0.0
1031
8.373922253581085
  0
VERTEX
  5
421
330
420
100
AcDbEntity
  8
0
 62
     0
100
AcDbVertex
100
AcDbPolyFaceMeshVertex
 10
10.04903810567665
 20
18.0
 30
9.500000000000002
 70
   192
  0
VERTEX
  5
422
330
420
100
AcDbEntity
  8
0
 62
     0
100
AcDbVertex
100
AcDbPolyFaceMeshVertex
 10
9.810660171779816
 20
15.5
 30
9.810660171779823
 70
   192
  0
VERTEX
  5
423
330
420
100
AcDbEntity
  8
0
 62
     0
100
AcDbVertex
100
AcDbPolyFaceMeshVertex
 10
10.04903810567665
 20
15.5
 30
9.500000000000002
 70
   192
  0
VERTEX
  5
424
330
420
100
AcDbEntity
  8
0
 62
     0
100
AcDbVertex
100
AcDbPolyFaceMeshVertex
 10
9.810660171779816
 20
18.0
 30
9.810660171779823
 70
   192
  0
VERTEX
  5
425
330
420
100
AcDbEntity
  8
0
 62
     0
100
AcDbFaceRecord
 10
0.0
 20
0.0
 30
0.0
 70
   128
 71
    -1
 72
     2
 73
     3
  0
VERTEX
  5
426
330
420
100
AcDbEntity
  8
0
 62
     0
100
AcDbFaceRecord
 10
0.0
 20
0.0
 30
0.0
 70
   128
 71
    -2
 72
     1
 73
     4
  0
SEQEND
  5
427
330
420
100
AcDbEntity
  8
0
 62
     0
  0
ARC
  5
428
330
60
100
AcDbEntity
  8
0
 62
     0
100
AcDbCircle
 10
8.749999999999995
 20
8.75
 30
-18.0
 40
1.5
210
0.0
220
-1.0
230
0.0
100
AcDbArc
 50
19.6202859532825
 51
160.3797140467175
  0
LINE
  5
429
330
60
100
AcDbEntity
  8
0
 62
     0
100
AcDbLine
 10
9.810660171779816
 20
18.0
 30
9.810660171779823
 11
9.810660171779816
 21
15.5
 31
9.810660171779823
  0
ARC
  5
42A
330
60
100
AcDbEntity
  8
0
 62
     0
100
AcDbCircle
 10
8.749999999999995
 20
8.75
 30
-15.5
 40
1.499999999999999
210
0.0
220
-1.0
230
0.0
100
AcDbArc
 50
19.62028595328251
 51
160.3797140467175
  0
LINE
  5
42B
330
60
100
AcDbEntity
  8
0
 62
     0
100
AcDbLine
 10
10.04903810567665
 20
18.0
 30
9.500000000000002
 11
10.04903810567665
 21
15.5
 31
9.500000000000002
  0
POLYLINE
  5
42C
330
60
100
AcDbEntity
  8
0
 62
     0
100
AcDbPolyFaceMesh
 66
     1
 10
0.0
 20
0.0
 30
0.0
 70
    64
 71
    26
 72
    24
1001
ACAD_MATERIAL_MAPPER
1070
     1
1070
     1
1070
     1
1011
0.0000000000000138
1021
0.0
1031
0.0000000000000138
1011
-25.39999999999998
1021
0.0
1031
0.0
1011
0.0000000000000138
1021
0.0
1031
25.40000000000001
1011
0.0000000000000138
1021
1.0
1031
0.0000000000000138
  0
VERTEX
  5
42D
330
42C
100
AcDbEntity
  8
0
 62
     0
100
AcDbVertex
100
AcDbPolyFaceMeshVertex
 10
4.749999999999997
 20
18.0
 30
9.250000000000002
 70
   192
  0
VERTEX
  5
42E
330
42C
100
AcDbEntity
  8
0
 62
     0
100
AcDbVertex
100
AcDbPolyFaceMeshVertex
 10
7.347408503730063
 20
18.0
 30
8.250000000000004
 70
   192
  0
VERTEX
  5
42F
330
42C
100
AcDbEntity
  8
0
 62
     0
100
AcDbVertex
100
AcDbPolyFaceMeshVertex
 10
4.749999999999997
 20
18.0
 30
8.250000000000002
 70
   192
  0
VERTEX
  5
430
330
42C
100
AcDbEntity
  8
0
 62
     0
100
AcDbVertex
100
AcDbPolyFaceMeshVertex
 10
7.347408503730064
 20
18.0
 30
9.250000000000004
 70
   192
  0
VERTEX
  5
431
330
42C
100
AcDbEntity
  8
0
 62
     0
100
AcDbVertex
100
AcDbPolyFaceMeshVertex
 10
10.15259149626993
 20
18.0
 30
9.250000000000002
 70
   192
  0
VERTEX
  5
432
330
42C
100
AcDbEntity
  8
0
 62
     0
100
AcDbVertex
100
AcDbPolyFaceMeshVertex
 10
10.04903810567665
 20
18.0
 30
9.500000000000002
 70
   192
  0
VERTEX
  5
433
330
42C
100
AcDbEntity
  8
0
 62
     0
100
AcDbVertex
100
AcDbPolyFaceMeshVertex
 10
7.450961894323338
 20
18.0
 30
9.500000000000002
 70
   192
  0
VERTEX
  5
434
330
42C
100
AcDbEntity
  8
0
 62
     0
100
AcDbVertex
100
AcDbPolyFaceMeshVertex
 10
9.810660171779816
 20
18.0
 30
9.810660171779823
 70
   192
  0
VERTEX
  5
435
330
42C
100
AcDbEntity
  8
0
 62
     0
100
AcDbVertex
100
AcDbPolyFaceMeshVertex
 10
7.689339828220174
 20
18.0
 30
9.810660171779823
 70
   192
  0
VERTEX
  5
436
330
42C
100
AcDbEntity
  8
0
 62
     0
100
AcDbVertex
100
AcDbPolyFaceMeshVertex
 10
7.999999999999996
 20
18.0
 30
10.04903810567666
 70
   192
  0
VERTEX
  5
437
330
42C
100
AcDbEntity
  8
0
 62
     0
100
AcDbVertex
100
AcDbPolyFaceMeshVertex
 10
9.499999999999995
 20
18.0
 30
10.04903810567666
 70
   192
  0
VERTEX
  5
438
330
42C
100
AcDbEntity
  8
0
 62
     0
100
AcDbVertex
100
AcDbPolyFaceMeshVertex
 10
9.138228567653778
 20
18.0
 30
10.1988887394336
 70
   192
  0
VERTEX
  5
439
330
42C
100
AcDbEntity
  8
0
 62
     0
100
AcDbVertex
100
AcDbPolyFaceMeshVertex
 10
8.361771432346215
 20
18.0
 30
10.1988887394336
 70
   192
  0
VERTEX
  5
43A
330
42C
100
AcDbEntity
  8
0
 62
     0
100
AcDbVertex
100
AcDbPolyFaceMeshVertex
 10
8.749999999999995
 20
18.0
 30
10.25
 70
   192
  0
VERTEX
  5
43B
330
42C
100
AcDbEntity
  8
0
 62
     0
100
AcDbVertex
100
AcDbPolyFaceMeshVertex
 10
8.361771432346213
 20
18.0
 30
7.301111260566398
 70
   192
  0
VERTEX
  5
43C
330
42C
100
AcDbEntity
  8
0
 62
     0
100
AcDbVertex
100
AcDbPolyFaceMeshVertex
 10
9.138228567653776
 20
18.0
 30
7.301111260566398
 70
   192
  0
VERTEX
  5
43D
330
42C
100
AcDbEntity
  8
0
 62
     0
100
AcDbVertex
100
AcDbPolyFaceMeshVertex
 10
8.749999999999995
 20
18.0
 30
7.250000000000001
 70
   192
  0
VERTEX
  5
43E
330
42C
100
AcDbEntity
  8
0
 62
     0
100
AcDbVertex
100
AcDbPolyFaceMeshVertex
 10
7.999999999999996
 20
18.0
 30
7.450961894323344
 70
   192
  0
VERTEX
  5
43F
330
42C
100
AcDbEntity
  8
0
 62
     0
100
AcDbVertex
100
AcDbPolyFaceMeshVertex
 10
9.499999999999995
 20
18.0
 30
7.450961894323342
 70
   192
  0
VERTEX
  5
440
330
42C
100
AcDbEntity
  8
0
 62
     0
100
AcDbVertex
100
AcDbPolyFaceMeshVertex
 10
9.810660171779816
 20
18.0
 30
7.68933982822018
 70
   192
  0
VERTEX
  5
441
330
42C
100
AcDbEntity
  8
0
 62
     0
100
AcDbVertex
100
AcDbPolyFaceMeshVertex
 10
7.689339828220174
 20
18.0
 30
7.68933982822018
 70
   192
  0
VERTEX
  5
442
330
42C
100
AcDbEntity
  8
0
 62
     0
100
AcDbVertex
100
AcDbPolyFaceMeshVertex
 10
7.450961894323338
 20
18.0
 30
8.0
 70
   192
  0
VERTEX
  5
443
330
42C
100
AcDbEntity
  8
0
 62
     0
100
AcDbVertex
100
AcDbPolyFaceMeshVertex
 10
10.04903810567665
 20
18.0
 30
8.0
 70
   192
  0
VERTEX
  5
444
330
42C
100
AcDbEntity
  8
0
 62
     0
100
AcDbVertex
100
AcDbPolyFaceMeshVertex
 10
10.15259149626993
 20
18.0
 30
8.250000000000002
 70
   192
  0
VERTEX
  5
445
330
42C
100
AcDbEntity
  8
0
 62
     0
100
AcDbVertex
100
AcDbPolyFaceMeshVertex
 10
12.74999999999999
 20
18.0
 30
8.250000000000002
 70
   192
  0
VERTEX
  5
446
330
42C
100
AcDbEntity
  8
0
 62
     0
100
AcDbVertex
100
AcDbPolyFaceMeshVertex
 10
12.74999999999999
 20
18.0
 30
9.250000000000002
 70
   192
  0
VERTEX
  5
447
330
42C
100
AcDbEntity
  8
0
 62
     0
100
AcDbFaceRecord
 10
0.0
 20
0.0
 30
0.0
 70
   128
 71
    -1
 72
     2
 73
     3
  0
VERTEX
  5
448
330
42C
100
AcDbEntity
  8
0
 62
     0
100
AcDbFaceRecord
 10
0.0
 20
0.0
 30
0.0
 70
   128
 71
    -4
 72
    -5
 73
     1
  0
VERTEX
  5
449
330
42C
100
AcDbEntity
  8
0
 62
     0
100
AcDbFaceRecord
 10
0.0
 20
0.0
 30
0.0
 70
   128
 71
    -5
 72
    -4
 73
     6
  0
VERTEX
  5
44A
330
42C
100
AcDbEntity
  8
0
 62
     0
100
AcDbFaceRecord
 10
0.0
 20
0.0
 30
0.0
 70
   128
 71
    -6
 72
     4
 73
    -7
  0
VERTEX
  5
44B
330
42C
100
AcDbEntity
  8
0
 62
     0
100
AcDbFaceRecord
 10
0.0
 20
0.0
 30
0.0
 70
   128
 71
    -6
 72
    -7
 73
     8
  0
VERTEX
  5
44C
330
42C
100
AcDbEntity
  8
0
 62
     0
100
AcDbFaceRecord
 10
0.0
 20
0.0
 30
0.0
 70
   128
 71
    -8
 72
     7
 73
    -9
  0
VERTEX
  5
44D
330
42C
100
AcDbEntity
  8
0
 62
     0
100
AcDbFaceRecord
 10
0.0
 20
0.0
 30
0.0
 70
   128
 71
    -8
 72
     9
 73
   -10
  0
VERTEX
  5
44E
330
42C
100
AcDbEntity
  8
0
 62
     0
100
AcDbFaceRecord
 10
0.0
 20
0.0
 30
0.0
 70
   128
 71
    -8
 72
   -10
 73
    11
  0
VERTEX
  5
44F
330
42C
100
AcDbEntity
  8
0
 62
     0
100
AcDbFaceRecord
 10
0.0
 20
0.0
 30
0.0
 70
   128
 71
   -11
 72
   -10
 73
    12
  0
VERTEX
  5
450
330
42C
100
AcDbEntity
  8
0
 62
     0
100
AcDbFaceRecord
 10
0.0
 20
0.0
 30
0.0
 70
   128
 71
   -12
 72
    10
 73
   -13
  0
VERTEX
  5
451
330
42C
100
AcDbEntity
  8
0
 62
     0
100
AcDbFaceRecord
 10
0.0
 20
0.0
 30
0.0
 70
   128
 71
   -12
 72
    13
 73
    14
  0
VERTEX
  5
452
330
42C
100
AcDbEntity
  8
0
 62
     0
100
AcDbFaceRecord
 10
0.0
 20
0.0
 30
0.0
 70
   128
 71
   -15
 72
    16
 73
    17
  0
VERTEX
  5
453
330
42C
100
AcDbEntity
  8
0
 62
     0
100
AcDbFaceRecord
 10
0.0
 20
0.0
 30
0.0
 70
   128
 71
   -16
 72
    15
 73
   -18
  0
VERTEX
  5
454
330
42C
100
AcDbEntity
  8
0
 62
     0
100
AcDbFaceRecord
 10
0.0
 20
0.0
 30
0.0
 70
   128
 71
   -16
 72
   -18
 73
    19
  0
VERTEX
  5
455
330
42C
100
AcDbEntity
  8
0
 62
     0
100
AcDbFaceRecord
 10
0.0
 20
0.0
 30
0.0
 70
   128
 71
   -19
 72
   -18
 73
    20
  0
VERTEX
  5
456
330
42C
100
AcDbEntity
  8
0
 62
     0
100
AcDbFaceRecord
 10
0.0
 20
0.0
 30
0.0
 70
   128
 71
   -20
 72
    18
 73
   -21
  0
VERTEX
  5
457
330
42C
100
AcDbEntity
  8
0
 62
     0
100
AcDbFaceRecord
 10
0.0
 20
0.0
 30
0.0
 70
   128
 71
   -20
 72
    21
 73
   -22
  0
VERTEX
  5
458
330
42C
100
AcDbEntity
  8
0
 62
     0
100
AcDbFaceRecord
 10
0.0
 20
0.0
 30
0.0
 70
   128
 71
   -20
 72
   -22
 73
    23
  0
VERTEX
  5
459
330
42C
100
AcDbEntity
  8
0
 62
     0
100
AcDbFaceRecord
 10
0.0
 20
0.0
 30
0.0
 70
   128
 71
   -23
 72
    22
 73
    -2
  0
VERTEX
  5
45A
330
42C
100
AcDbEntity
  8
0
 62
     0
100
AcDbFaceRecord
 10
0.0
 20
0.0
 30
0.0
 70
   128
 71
   -23
 72
    -2
 73
    24
  0
VERTEX
  5
45B
330
42C
100
AcDbEntity
  8
0
 62
     0
100
AcDbFaceRecord
 10
0.0
 20
0.0
 30
0.0
 70
   128
 71
   -24
 72
    -2
 73
    25
  0
VERTEX
  5
45C
330
42C
100
AcDbEntity
  8
0
 62
     0
100
AcDbFaceRecord
 10
0.0
 20
0.0
 30
0.0
 70
   128
 71
   -25
 72
    -2
 73
    26
  0
VERTEX
  5
45D
330
42C
100
AcDbEntity
  8
0
 62
     0
100
AcDbFaceRecord
 10
0.0
 20
0.0
 30
0.0
 70
   128
 71
   -26
 72
    -2
 73
    -1
  0
VERTEX
  5
45E
330
42C
100
AcDbEntity
  8
0
 62
     0
100
AcDbFaceRecord
 10
0.0
 20
0.0
 30
0.0
 70
   128
 71
   -26
 72
    -1
 73
     5
  0
SEQEND
  5
45F
330
42C
100
AcDbEntity
  8
0
 62
     0
  0
ARC
  5
460
330
60
100
AcDbEntity
  8
0
 62
     0
100
AcDbCircle
 10
8.749999999999995
 20
8.75
 30
-18.0
 40
1.5
210
0.0
220
-1.0
230
0.0
100
AcDbArc
 50
19.6202859532825
 51
160.3797140467175
  0
LINE
  5
461
330
60
100
AcDbEntity
  8
0
 62
     0
100
AcDbLine
 10
12.74999999999999
 20
18.0
 30
9.250000000000002
 11
10.15259149626993
 21
18.0
 31
9.250000000000002
  0
LINE
  5
462
330
60
100
AcDbEntity
  8
0
 62
     0
100
AcDbLine
 10
12.74999999999999
 20
18.0
 30
9.250000000000002
 11
12.74999999999999
 21
18.0
 31
8.250000000000002
  0
LINE
  5
463
330
60
100
AcDbEntity
  8
0
 62
     0
100
AcDbLine
 10
10.15259149626993
 20
18.0
 30
8.250000000000002
 11
12.74999999999999
 21
18.0
 31
8.250000000000002
  0
ARC
  5
464
330
60
100
AcDbEntity
  8
0
 62
     0
100
AcDbCircle
 10
8.749999999999995
 20
8.75
 30
-18.0
 40
1.500000000000001
210
0.0
220
-1.0
230
0.0
100
AcDbArc
 50
199.6202859532824
 51
340.3797140467175
  0
LINE
  5
465
330
60
100
AcDbEntity
  8
0
 62
     0
100
AcDbLine
 10
4.749999999999997
 20
18.0
 30
8.250000000000002
 11
7.347408503730063
 21
18.0
 31
8.250000000000004
  0
LINE
  5
466
330
60
100
AcDbEntity
  8
0
 62
     0
100
AcDbLine
 10
4.749999999999997
 20
18.0
 30
9.250000000000002
 11
4.749999999999997
 21
18.0
 31
8.250000000000002
  0
LINE
  5
467
330
60
100
AcDbEntity
  8
0
 62
     0
100
AcDbLine
 10
7.347408503730064
 20
18.0
 30
9.250000000000004
 11
4.749999999999997
 21
18.0
 31
9.250000000000002
  0
ARC
  5
468
330
60
100
AcDbEntity
  8
0
 62
     0
100
AcDbCircle
 10
8.749999999999995
 20
8.75
 30
-18.0
 40
1.5
210
0.0
220
-1.0
230
0.0
100
AcDbArc
 50
19.6202859532825
 51
160.3797140467175
  0
ENDBLK
  5
62
330
60
100
AcDbEntity
  8
0
100
AcDbBlockEnd
  0
ENDSEC
  0
SECTION
  2
ENTITIES
  0
INSERT
  5
469
330
1F
100
AcDbEntity
  8
0
 62
     0
100
AcDbBlockReference
 66
     1
  2
GRUPPO_1
 10
0.0
 20
-2.0
 30
0.0
  0
ATTRIB
  5
46A
330
469
100
AcDbEntity
  8
0
100
AcDbText
 10
0.0
 20
0.0
 30
0.0
 40
1.0
  1

100
AcDbAttribute
  2
Skp_GroupInstanceName
 70
     0
  0
SEQEND
  5
46B
330
469
100
AcDbEntity
  8
0
 62
     0
  0
ENDSEC
  0
SECTION
  2
OBJECTS
  0
DICTIONARY
  5
C
330
0
100
AcDbDictionary
  3
ACAD_GROUP
350
D
  3
ACAD_LAYOUT
350
1A
  3
ACAD_MATERIAL
350
43
  3
ACAD_MLEADERSTYLE
350
5B
  3
ACAD_MLINESTYLE
350
17
  3
ACAD_PLOTSETTINGS
350
19
  3
ACAD_SCALELIST
350
47
  3
ACAD_VISUALSTYLE
350
2A
  3
ACDBHEADERROUNDTRIPXREC
350
46C
  3
ACDBVARIABLEDICTIONARY
350
48D
  3
DWGPROPS
350
494
  0
DICTIONARY
  5
495
330
8
100
AcDbDictionary
280
     1
  3
ACAD_XREC_ROUNDTRIP
360
496
  0
DICTIONARY
  5
D
102
{ACAD_REACTORS
330
C
102
}
330
C
100
AcDbDictionary
  0
DICTIONARY
  5
1A
102
{ACAD_REACTORS
330
C
102
}
330
C
100
AcDbDictionary
  0
DICTIONARY
  5
43
102
{ACAD_REACTORS
330
C
102
}
330
C
100
AcDbDictionary
  3
BYBLOCK
350
45
  3
BYLAYER
350
44
  3
GLOBAL
350
46
  0
DICTIONARY
  5
5B
102
{ACAD_REACTORS
330
C
102
}
330
C
100
AcDbDictionary
  3
STANDARD
350
5C
  0
DICTIONARY
  5
17
102
{ACAD_REACTORS
330
C
102
}
330
C
100
AcDbDictionary
  3
STANDARD
350
18
  0
DICTIONARY
  5
19
102
{ACAD_REACTORS
330
C
102
}
330
C
100
AcDbDictionary
  0
DICTIONARY
  5
47
102
{ACAD_REACTORS
330
C
102
}
330
C
100
AcDbDictionary
  3
A0
350
48
  3
A1
350
49
  3
A2
350
4A
  3
A3
350
4B
  3
A4
350
4C
  3
A5
350
4D
  3
A6
350
4E
  3
A7
350
4F
  3
A8
350
50
  3
A9
350
51
  3
B1
350
52
  3
B2
350
53
  3
B3
350
54
  3
B4
350
55
  3
B5
350
56
  3
B6
350
57
  3
B7
350
58
  0
DICTIONARY
  5
2A
102
{ACAD_REACTORS
330
C
102
}
330
C
100
AcDbDictionary
  3
2DWIREFRAME
350
2F
  3
BASIC
350
32
  3
BRIGHTEN
350
36
  3
COLORCHANGE
350
3A
  3
CONCEPTUAL
350
34
  3
DIM
350
35
  3
EDGECOLOROFF
350
3D
  3
FACEPATTERN
350
39
  3
FLAT
350
2B
  3
FLATWITHEDGES
350
2C
  3
GOURAUD
350
2D
  3
GOURAUDWITHEDGES
350
2E
  3
HIDDEN
350
31
  3
JITTEROFF
350
3B
  3
LINEPATTERN
350
38
  3
OVERHANGOFF
350
3C
  3
REALISTIC
350
33
  3
SHADED
350
42
  3
SHADED_WITH_EDGES
350
41
  3
SHADES_OF_GRAY
350
3E
  3
SKETCHY
350
3F
  3
THICKEN
350
37
  3
WIREFRAME
350
30
  3
X-RAY
350
40
  0
DICTIONARY
  5
46C
102
{ACAD_REACTORS
330
C
102
}
330
C
100
AcDbDictionary
  3
CEPSNID
350
476
  3
CEPSNTYPE
350
475
  3
DIMSTYLEDATA
350
48C
  3
FINGERPRINTGUID
350
477
  3
HYPERLINKBASE
350
46F
  3
INSUNITS
350
474
  3
LAYOUTDICT
350
471
  3
LWETCUNION
350
473
  3
PLOTSETDICT
350
472
  3
PSVPSCALE
350
479
  3
PUCSBASE
350
47C
  3
PUCSORGBACK
350
482
  3
PUCSORGBOTTOM
350
47E
  3
PUCSORGFRONT
350
481
  3
PUCSORGLEFT
350
47F
  3
PUCSORGRIGHT
350
480
  3
PUCSORGTOP
350
47D
  3
PUCSORTHOREF
350
47A
  3
PUCSORTHOVIEW
350
47B
  3
STYLESHEET
350
470
  3
TSTACKALIGN
350
46D
  3
TSTACKSIZE
350
46E
  3
UCSBASE
350
485
  3
UCSORGBACK
350
48B
  3
UCSORGBOTTOM
350
487
  3
UCSORGFRONT
350
48A
  3
UCSORGLEFT
350
488
  3
UCSORGRIGHT
350
489
  3
UCSORGTOP
350
486
  3
UCSORTHOREF
350
483
  3
UCSORTHOVIEW
350
484
  3
VERSIONGUID
350
478
  0
DICTIONARY
  5
48D
102
{ACAD_REACTORS
330
C
102
}
330
C
100
AcDbDictionary
  3
CANNOSCALE
350
497
  3
CMLEADERSTYLE
350
48F
  3
CTABLESTYLE
350
48E
  3
DIMASSOC
350
492
  3
HIDETEXT
350
493
  3
MSLTSCALE
350
498
  0
XRECORD
  5
494
102
{ACAD_REACTORS
330
C
102
}
330
C
100
AcDbXrecord
  1
DWGPROPS COOKIE
  2

  3

  4

  6

  7

  8
sfine
  9

300
=
301
=
302
=
303
=
304
=
305
=
306
=
307
=
308
=
309
=
 40
0.0
 41
2460426.339973125
 42
2460426.339973877
  1

 90
        0
  0
XRECORD
  5
496
102
{ACAD_REACTORS
330
495
102
}
330
495
100
AcDbXrecord
102
VTR_0.000_0.000_1.000_1.000_VISUALSTYLE
340
2F
102
VTR_0.000_0.000_1.000_1.000_GRIDDISPLAY
 70
     3
102
VTR_0.000_0.000_1.000_1.000_GRIDMAJOR
 70
     5
102
VTR_0.000_0.000_1.000_1.000_DEFAULTLIGHTING
280
     1
102
VTR_0.000_0.000_1.000_1.000_DEFAULTLIGHTINGTYPE
 70
     1
102
VTR_0.000_0.000_1.000_1.000_BRIGHTNESS
141
0.0
102
VTR_0.000_0.000_1.000_1.000_CONTRAST
142
0.0
  0
MATERIAL
  5
45
102
{ACAD_REACTORS
330
43
102
}
102
{ACAD_XDICTIONARY
360
49B
102
}
330
43
100
AcDbMaterial
  1
BYBLOCK
  0
MATERIAL
  5
44
102
{ACAD_REACTORS
330
43
102
}
102
{ACAD_XDICTIONARY
360
499
102
}
330
43
100
AcDbMaterial
  1
BYLAYER
  0
MATERIAL
  5
46
102
{ACAD_REACTORS
330
43
102
}
102
{ACAD_XDICTIONARY
360
49D
102
}
330
43
100
AcDbMaterial
  1
GLOBAL
  0
ACAD_PROXY_OBJECT
  5
5C
102
{ACAD_REACTORS
330
5B
102
}
330
5B
100
AcDbProxyObject
 90
      499
 91
      505
 93
      610
310
40901902A4063FBFFFFFE056BD1B81E855B9FC0AD7A3703D0AD73F4214DD185B99185C9900AD7A3703D0AC73F90141901A02B5E8DC0F42B1CFC02B5E8DC0F42B1CFE5764000000000000300FC0
340
14
340
0
340
11
340
0
 94
        0
1001
ACAD_MLEADERVER
1070
     2
  0
MLINESTYLE
  5
18
102
{ACAD_REACTORS
330
17
102
}
330
17
100
AcDbMlineStyle
  2
Standard
 70
     0
  3

 62
   256
 51
90.0
 52
90.0
 71
     2
 49
0.5
 62
   256
  6
BYLAYER
 49
-0.5
 62
   256
  6
BYLAYER
  0
ACAD_PROXY_OBJECT
  5
48
102
{ACAD_REACTORS
330
47
102
}
330
47
100
AcDbProxyObject
 90
      499
 91
      503
 93
       41
310
903313A31580
  0
ACAD_PROXY_OBJECT
  5
49
102
{ACAD_REACTORS
330
47
102
}
330
47
100
AcDbProxyObject
 90
      499
 91
      503
 93
      257
310
90E312F31323822203D2031272D3022000000000000200FC000000000000284000
  0
ACAD_PROXY_OBJECT
  5
4A
102
{ACAD_REACTORS
330
47
102
}
330
47
100
AcDbProxyObject
 90
      499
 91
      503
 93
      249
310
90D312F363422203D2031272D3022000000000000240FC000000000000284000
  0
ACAD_PROXY_OBJECT
  5
4B
102
{ACAD_REACTORS
330
47
102
}
330
47
100
AcDbProxyObject
 90
      499
 91
      503
 93
      249
310
90D312F333222203D2031272D3022000000000000280FC000000000000284000
  0
ACAD_PROXY_OBJECT
  5
4C
102
{ACAD_REACTORS
330
47
102
}
330
47
100
AcDbProxyObject
 90
      499
 91
      503
 93
      249
310
90D312F313622203D2031272D30220000000000002C0FC000000000000284000
  0
ACAD_PROXY_OBJECT
  5
4D
102
{ACAD_REACTORS
330
47
102
}
330
47
100
AcDbProxyObject
 90
      499
 91
      503
 93
      249
310
90D332F333222203D2031272D30220000000000002E0FC000000000000284000
  0
ACAD_PROXY_OBJECT
  5
4E
102
{ACAD_REACTORS
330
47
102
}
330
47
100
AcDbProxyObject
 90
      499
 91
      503
 93
      241
310
90C312F3822203D2031272D3022000000000000300FC000000000000284000
  0
ACAD_PROXY_OBJECT
  5
4F
102
{ACAD_REACTORS
330
47
102
}
330
47
100
AcDbProxyObject
 90
      499
 91
      503
 93
      249
310
90D332F313622203D2031272D3022000000000000320FC000000000000284000
  0
ACAD_PROXY_OBJECT
  5
50
102
{ACAD_REACTORS
330
47
102
}
330
47
100
AcDbProxyObject
 90
      499
 91
      503
 93
      241
310
90C312F3422203D2031272D3022000000000000340FC000000000000284000
  0
ACAD_PROXY_OBJECT
  5
51
102
{ACAD_REACTORS
330
47
102
}
330
47
100
AcDbProxyObject
 90
      499
 91
      503
 93
      241
310
90C332F3822203D2031272D3022000000000000360FC000000000000284000
  0
ACAD_PROXY_OBJECT
  5
52
102
{ACAD_REACTORS
330
47
102
}
330
47
100
AcDbProxyObject
 90
      499
 91
      503
 93
      241
310
90C312F3222203D2031272D3022000000000000380FC000000000000284000
  0
ACAD_PROXY_OBJECT
  5
53
102
{ACAD_REACTORS
330
47
102
}
330
47
100
AcDbProxyObject
 90
      499
 91
      503
 93
      241
310
90C332F3422203D2031272D30220000000000003A0FC000000000000284000
  0
ACAD_PROXY_OBJECT
  5
54
102
{ACAD_REACTORS
330
47
102
}
330
47
100
AcDbProxyObject
 90
      499
 91
      503
 93
      161
310
90A3122203D2031272D30224000000000000284000
  0
ACAD_PROXY_OBJECT
  5
55
102
{ACAD_REACTORS
330
47
102
}
330
47
100
AcDbProxyObject
 90
      499
 91
      503
 93
      257
310
90E312D312F3222203D2031272D30220000000000003E0FC000000000000284000
  0
ACAD_PROXY_OBJECT
  5
56
102
{ACAD_REACTORS
330
47
102
}
330
47
100
AcDbProxyObject
 90
      499
 91
      503
 93
      225
310
90A3322203D2031272D302200000000000002100000000000000284000
  0
ACAD_PROXY_OBJECT
  5
57
102
{ACAD_REACTORS
330
47
102
}
330
47
100
AcDbProxyObject
 90
      499
 91
      503
 93
      225
310
90A3622203D2031272D302200000000000006100000000000000284000
  0
ACAD_PROXY_OBJECT
  5
58
102
{ACAD_REACTORS
330
47
102
}
330
47
100
AcDbProxyObject
 90
      499
 91
      503
 93
      249
310
90D31272D3022203D2031272D30220000000000000A100000000000000284000
  0
ACAD_PROXY_OBJECT
  5
2F
102
{ACAD_REACTORS
330
2A
102
}
330
2A
100
AcDbProxyObject
 90
      499
 91
      501
 93
      436
310
42CC9915DA5C99599C985B595049028333333333333E33F0000000000000F90107901411070040501600405405064090741402480A0340
1001
ACAD
1000
AcDbSavedByObjectVersion
1070
     0
  0
ACAD_PROXY_OBJECT
  5
32
102
{ACAD_REACTORS
330
2A
102
}
330
2A
100
AcDbProxyObject
 90
      499
 91
      501
 93
      388
310
4150985CDA58D07406404333333333333E33F0000000000000F90107A41107004050150841D405064090741402480A0350
1001
ACAD
1000
AcDbSavedByObjectVersion
1070
     0
  0
ACAD_PROXY_OBJECT
  5
36
102
{ACAD_REACTORS
330
2A
102
}
330
2A
100
AcDbProxyObject
 90
      499
 91
      501
 93
      428
310
42109C9A59DA1D195B90C409028333333333333E33F0000000000000F9010790141107004050150841D405064090741402480A029950
1001
ACAD
1000
AcDbSavedByObjectVersion
1070
     0
  0
ACAD_PROXY_OBJECT
  5
3A
102
{ACAD_REACTORS
330
2A
102
}
330
2A
100
AcDbProxyObject
 90
      499
 91
      501
 93
      452
310
42D0DBDB1BDC90DA185B99D95104090240C333333333333E33F0000000000000F90108901411070040501508421405064090741402480A0350
1001
ACAD
1000
AcDbSavedByObjectVersion
1070
     0
  0
ACAD_PROXY_OBJECT
  5
34
102
{ACAD_REACTORS
330
2A
102
}
330
2A
100
AcDbProxyObject
 90
      499
 91
      501
 93
      500
310
4290DBDB98D95C1D1D585B10940D028333333333333E33F0000000000000F90107902409070040501000000000018199010841D405064090740C02480A0340
1001
ACAD
1000
AcDbSavedByObjectVersion
1070
     0
  0
ACAD_PROXY_OBJECT
  5
35
102
{ACAD_REACTORS
330
2A
102
}
330
2A
100
AcDbProxyObject
 90
      499
 91
      501
 93
      412
310
40D11A5B50B409028333333333333E33F0000000000000F9010790141107004050150841D405064090741402480A02677FFFFFD0
1001
ACAD
1000
AcDbSavedByObjectVersion
1070
     0
  0
ACAD_PROXY_OBJECT
  5
3D
102
{ACAD_REACTORS
330
2A
102
}
330
2A
100
AcDbProxyObject
 90
      499
 91
      501
 93
      452
310
43115919D950DBDB1BDC93D999916409028333333333333E33F0000000000000F9010790141107004050150841D405064090741402480A0350
1001
ACAD
1000
AcDbSavedByObjectVersion
1070
     0
  0
ACAD_PROXY_OBJECT
  5
39
102
{ACAD_REACTORS
330
2A
102
}
330
2A
100
AcDbProxyObject
 90
      499
 91
      501
 93
      444
310
42D19858D95C185D1D195C9B90F409028333333333333E33F0000000000000F9010790141107004050150841D405064090741402480A0350
1001
ACAD
1000
AcDbSavedByObjectVersion
1070
     0
  0
ACAD_PROXY_OBJECT
  5
2B
102
{ACAD_REACTORS
330
2A
102
}
330
2A
100
AcDbProxyObject
 90
      499
 91
      501
 93
      380
310
41119B185D240901404333333333333E33F0000000000000F9010740A907004050150841D405064090741402480A1B50
1001
ACAD
1000
AcDbSavedByObjectVersion
1070
     0
  0
ACAD_PROXY_OBJECT
  5
2C
102
{ACAD_REACTORS
330
2A
102
}
330
2A
100
AcDbProxyObject
 90
      499
 91
      501
 93
      468
310
43519B185D15DA5D1A115919D95CD0140901404333333333333E33F0000000000000F90107409019070040501600405405064090741402480A1B50
1001
ACAD
1000
AcDbSavedByObjectVersion
1070
     0
  0
ACAD_PROXY_OBJECT
  5
2D
102
{ACAD_REACTORS
330
2A
102
}
330
2A
100
AcDbProxyObject
 90
      499
 91
      501
 93
      404
310
41D1DBDD5C985D5910240902404333333333333E33F0000000000000F9010740A9070040501641D405064090741402480A1B50
1001
ACAD
1000
AcDbSavedByObjectVersion
1070
     0
  0
ACAD_PROXY_OBJECT
  5
2E
102
{ACAD_REACTORS
330
2A
102
}
330
2A
100
AcDbProxyObject
 90
      499
 91
      501
 93
      492
310
4411DBDD5C985D5915DA5D1A115919D95CD0340902404333333333333E33F0000000000000F90107409019070040501600405405064090741402480A1B50
1001
ACAD
1000
AcDbSavedByObjectVersion
1070
     0
  0
ACAD_PROXY_OBJECT
  5
31
102
{ACAD_REACTORS
330
2A
102
}
330
2A
100
AcDbProxyObject
 90
      499
 91
      501
 93
      476
310
41921A5919195B90640502408333333333333E33F0000000000000F901079024090700405020000000000001110200405405064090740C02480A0340
1001
ACAD
1000
AcDbSavedByObjectVersion
1070
     0
  0
ACAD_PROXY_OBJECT
  5
3B
102
{ACAD_REACTORS
330
2A
102
}
330
2A
100
AcDbProxyObject
 90
      499
 91
      501
 93
      428
310
42529A5D1D195C93D999914409028333333333333E33F0000000000000F9010790141107004050150A41D405064090741402480A0350
1001
ACAD
1000
AcDbSavedByObjectVersion
1070
     0
  0
ACAD_PROXY_OBJECT
  5
38
102
{ACAD_REACTORS
330
2A
102
}
330
2A
100
AcDbProxyObject
 90
      499
 91
      501
 93
      444
310
42D31A5B995C185D1D195C9B90E409028333333333333E33F0000000000000F9010790141107004050750841D405064090741402483A0350
1001
ACAD
1000
AcDbSavedByObjectVersion
1070
     0
  0
ACAD_PROXY_OBJECT
  5
3C
102
{ACAD_REACTORS
330
2A
102
}
330
2A
100
AcDbProxyObject
 90
      499
 91
      501
 93
      444
310
42D3DD995C9A185B99D3D999915409028333333333333E33F0000000000000F9010790141107004050150941D405064090741402480A0350
1001
ACAD
1000
AcDbSavedByObjectVersion
1070
     0
  0
ACAD_PROXY_OBJECT
  5
33
102
{ACAD_REACTORS
330
2A
102
}
330
2A
100
AcDbProxyObject
 90
      499
 91
      501
 93
      428
310
425499585B1A5CDD1A58D08409038333333333333E33F0000000000000F9010740A907004050150800405405064090740C02480A1B40
1001
ACAD
1000
AcDbSavedByObjectVersion
1070
     0
  0
ACAD_PROXY_OBJECT
  5
42
102
{ACAD_REACTORS
330
2A
102
}
330
2A
100
AcDbProxyObject
 90
      499
 91
      501
 93
      420
310
4194DA1859195911B40902404333333333333E33F0000000000000F9010740A41107004050150800405405064090840C02480A0B40
1001
ACAD
1000
AcDbSavedByObjectVersion
1070
     0
  0
ACAD_PROXY_OBJECT
  5
41
102
{ACAD_REACTORS
330
2A
102
}
330
2A
100
AcDbProxyObject
 90
      499
 91
      501
 93
      516
310
4454DA18591959081DDA5D1A08195919D95CD1A40902404333333333333E33F0000000000000F901074090142907004050250800405405064090740C02480A0B40
1001
ACAD
1000
AcDbSavedByObjectVersion
1070
     0
  0
ACAD_PROXY_OBJECT
  5
3E
102
{ACAD_REACTORS
330
2A
102
}
330
2A
100
AcDbProxyObject
 90
      499
 91
      501
 93
      532
310
4394DA1859195CC81BD98811DC985E5174090240C333333333333E33F0000000000000F901079024090741D01000000000000111010841D405064090740C02480A0340
1001
ACAD
1000
AcDbSavedByObjectVersion
1070
     0
  0
ACAD_PROXY_OBJECT
  5
3F
102
{ACAD_REACTORS
330
2A
102
}
330
2A
100
AcDbProxyObject
 90
      499
 91
      501
 93
      476
310
41D4DAD95D18DA1E51840502408333333333333E33F0000000000000F901079024090741D01000000000000111010B41D405064090741802480A0340
1001
ACAD
1000
AcDbSavedByObjectVersion
1070
     0
  0
ACAD_PROXY_OBJECT
  5
37
102
{ACAD_REACTORS
330
2A
102
}
330
2A
100
AcDbProxyObject
 90
      499
 91
      501
 93
      412
310
41D51A1A58DAD95B90D409028333333333333E33F0000000000000F9010790141107004050150C41D405064090741402480A0350
1001
ACAD
1000
AcDbSavedByObjectVersion
1070
     0
  0
ACAD_PROXY_OBJECT
  5
30
102
{ACAD_REACTORS
330
2A
102
}
330
2A
100
AcDbProxyObject
 90
      499
 91
      501
 93
      420
310
4255DA5C99599C985B595059028333333333333E33F0000000000000F90107901411070040501600405405064090740C02480A0340
1001
ACAD
1000
AcDbSavedByObjectVersion
1070
     0
  0
ACAD_PROXY_OBJECT
  5
40
102
{ACAD_REACTORS
330
2A
102
}
330
2A
100
AcDbProxyObject
 90
      499
 91
      501
 93
      404
310
41560B54985E51940902404000000000000E03F0000000000000F9010740501907004050150841D405064090740C02480A1B40
1001
ACAD
1000
AcDbSavedByObjectVersion
1070
     0
  0
XRECORD
  5
476
102
{ACAD_REACTORS
330
46C
102
}
330
46C
100
AcDbXrecord
340
0
  0
XRECORD
  5
475
102
{ACAD_REACTORS
330
46C
102
}
330
46C
100
AcDbXrecord
 90
        0
  0
XRECORD
  5
48C
102
{ACAD_REACTORS
330
46C
102
}
330
46C
100
AcDbXrecord
1000
DSTYLE
1002
{
1070
   171
 70
     2
1070
   143
 40
25.4
1070
   274
 70
     2
1070
    41
 40
0.18
1070
   141
 40
0.09
1070
   271
 70
     4
1070
    43
 40
0.38
1070
   278
 70
    46
1070
    44
 40
0.18
1070
    42
 40
0.0625
1070
   147
 40
0.09
1070
    77
 70
     0
1070
   272
 70
     4
1070
    73
 70
     1
1070
   172
 70
     0
1070
    74
 70
     1
1070
   283
 70
     1
1070
   340
340
11
1070
   140
 40
0.18
1070
   284
 70
     0
1070
    78
 70
     0
1002
}
  0
XRECORD
  5
477
102
{ACAD_REACTORS
330
46C
102
}
330
46C
100
AcDbXrecord
  1
{513406e1-e6e8-42f0-a7b5-979e7f3160d0}
  0
XRECORD
  5
46F
102
{ACAD_REACTORS
330
46C
102
}
330
46C
100
AcDbXrecord
  1

  0
XRECORD
  5
474
102
{ACAD_REACTORS
330
46C
102
}
330
46C
100
AcDbXrecord
 90
        4
  0
XRECORD
  5
471
102
{ACAD_REACTORS
330
46C
102
}
330
46C
100
AcDbXrecord
340
1A
  0
XRECORD
  5
473
102
{ACAD_REACTORS
330
46C
102
}
330
46C
100
AcDbXrecord
 90
    10781
  0
XRECORD
  5
472
102
{ACAD_REACTORS
330
46C
102
}
330
46C
100
AcDbXrecord
340
19
  0
XRECORD
  5
479
102
{ACAD_REACTORS
330
46C
102
}
330
46C
100
AcDbXrecord
 40
0.0
  0
XRECORD
  5
47C
102
{ACAD_REACTORS
330
46C
102
}
330
46C
100
AcDbXrecord
340
0
  0
XRECORD
  5
482
102
{ACAD_REACTORS
330
46C
102
}
330
46C
100
AcDbXrecord
 10
0.0
 20
0.0
 30
0.0
  0
XRECORD
  5
47E
102
{ACAD_REACTORS
330
46C
102
}
330
46C
100
AcDbXrecord
 10
0.0
 20
0.0
 30
0.0
  0
XRECORD
  5
481
102
{ACAD_REACTORS
330
46C
102
}
330
46C
100
AcDbXrecord
 10
0.0
 20
0.0
 30
0.0
  0
XRECORD
  5
47F
102
{ACAD_REACTORS
330
46C
102
}
330
46C
100
AcDbXrecord
 10
0.0
 20
0.0
 30
0.0
  0
XRECORD
  5
480
102
{ACAD_REACTORS
330
46C
102
}
330
46C
100
AcDbXrecord
 10
0.0
 20
0.0
 30
0.0
  0
XRECORD
  5
47D
102
{ACAD_REACTORS
330
46C
102
}
330
46C
100
AcDbXrecord
 10
0.0
 20
0.0
 30
0.0
  0
XRECORD
  5
47A
102
{ACAD_REACTORS
330
46C
102
}
330
46C
100
AcDbXrecord
340
0
  0
XRECORD
  5
47B
102
{ACAD_REACTORS
330
46C
102
}
330
46C
100
AcDbXrecord
 70
     0
  0
XRECORD
  5
470
102
{ACAD_REACTORS
330
46C
102
}
330
46C
100
AcDbXrecord
  1

  0
XRECORD
  5
46D
102
{ACAD_REACTORS
330
46C
102
}
330
46C
100
AcDbXrecord
 90
        1
  0
XRECORD
  5
46E
102
{ACAD_REACTORS
330
46C
102
}
330
46C
100
AcDbXrecord
 90
       70
  0
XRECORD
  5
485
102
{ACAD_REACTORS
330
46C
102
}
330
46C
100
AcDbXrecord
340
0
  0
XRECORD
  5
48B
102
{ACAD_REACTORS
330
46C
102
}
330
46C
100
AcDbXrecord
 10
0.0
 20
0.0
 30
0.0
  0
XRECORD
  5
487
102
{ACAD_REACTORS
330
46C
102
}
330
46C
100
AcDbXrecord
 10
0.0
 20
0.0
 30
0.0
  0
XRECORD
  5
48A
102
{ACAD_REACTORS
330
46C
102
}
330
46C
100
AcDbXrecord
 10
0.0
 20
0.0
 30
0.0
  0
XRECORD
  5
488
102
{ACAD_REACTORS
330
46C
102
}
330
46C
100
AcDbXrecord
 10
0.0
 20
0.0
 30
0.0
  0
XRECORD
  5
489
102
{ACAD_REACTORS
330
46C
102
}
330
46C
100
AcDbXrecord
 10
0.0
 20
0.0
 30
0.0
  0
XRECORD
  5
486
102
{ACAD_REACTORS
330
46C
102
}
330
46C
100
AcDbXrecord
 10
0.0
 20
0.0
 30
0.0
  0
XRECORD
  5
483
102
{ACAD_REACTORS
330
46C
102
}
330
46C
100
AcDbXrecord
340
0
  0
XRECORD
  5
484
102
{ACAD_REACTORS
330
46C
102
}
330
46C
100
AcDbXrecord
 70
     0
  0
XRECORD
  5
478
102
{ACAD_REACTORS
330
46C
102
}
330
46C
100
AcDbXrecord
  1
{FAEB1C32-E019-11D5-929B-00C0DF256EC4}
  0
DICTIONARYVAR
  5
497
102
{ACAD_REACTORS
330
48D
102
}
330
48D
100
DictionaryVariables
280
     0
  1
1:1
  0
DICTIONARYVAR
  5
48F
102
{ACAD_REACTORS
330
48D
102
}
330
48D
100
DictionaryVariables
280
     0
  1
Standard
  0
DICTIONARYVAR
  5
48E
102
{ACAD_REACTORS
330
48D
102
}
330
48D
100
DictionaryVariables
280
     0
  1
Standard
  0
DICTIONARYVAR
  5
492
102
{ACAD_REACTORS
330
48D
102
}
330
48D
100
DictionaryVariables
280
     0
  1
2
  0
DICTIONARYVAR
  5
493
102
{ACAD_REACTORS
330
48D
102
}
330
48D
100
DictionaryVariables
280
     0
  1
1
  0
DICTIONARYVAR
  5
498
102
{ACAD_REACTORS
330
48D
102
}
330
48D
100
DictionaryVariables
280
     0
  1
1
  0
DICTIONARY
  5
49B
330
45
100
AcDbDictionary
280
     1
  3
ACAD_XREC_ROUNDTRIP
360
49C
  0
DICTIONARY
  5
499
330
44
100
AcDbDictionary
280
     1
  3
ACAD_XREC_ROUNDTRIP
360
49A
  0
DICTIONARY
  5
49D
330
46
100
AcDbDictionary
280
     1
  3
ACAD_XREC_ROUNDTRIP
360
49E
  0
XRECORD
  5
49C
102
{ACAD_REACTORS
330
49B
102
}
330
49B
100
AcDbXrecord
102
MATERIAL
148
0.0
149
0.0
149
0.0
 93
        0
 94
      127
282
     0
 72
     1
 77
     1
171
     1
175
     1
179
     1
273
     0
  0
XRECORD
  5
49A
102
{ACAD_REACTORS
330
499
102
}
330
499
100
AcDbXrecord
102
MATERIAL
148
0.0
149
0.0
149
0.0
 93
        0
 94
      127
282
     0
 72
     1
 77
     1
171
     1
175
     1
179
     1
273
     0
  0
XRECORD
  5
49E
102
{ACAD_REACTORS
330
49D
102
}
330
49D
100
AcDbXrecord
102
MATERIAL
148
0.0
149
0.0
149
0.0
 93
        0
 94
      127
282
     0
 72
     1
 77
     1
171
     1
175
     1
179
     1
273
     0
  0
ENDSEC
  0
EOF
