solid Korry19x16_case_v5
facet normal 0.0 0.0 -1.0
  outer loop
    vertex 18.3 3.9999999999999996 2.7000000000000006
    vertex -0.30000000000000016 -1.9999999999999998 2.7000000000000006
    vertex -0.30000000000000016 3.9999999999999996 2.7000000000000006
  endloop
endfacet
facet normal 0.0 0.0 -1.0
  outer loop
    vertex -0.30000000000000016 -1.9999999999999998 2.7000000000000006
    vertex 18.3 3.9999999999999996 2.7000000000000006
    vertex 18.3 -1.9999999999999998 2.7000000000000006
  endloop
endfacet
facet normal -1.0 -4.1963786942677034e-17 -2.782861660409109e-17
  outer loop
    vertex -2.0000000000000004 15.0 20.0
    vertex -1.9999999999999991 3.9999999999999996 1.0000000000000009
    vertex -1.9999999999999991 3.9999999999999996 20.0
  endloop
endfacet
facet normal -1.0 -4.1963786942677034e-17 -2.782861660409109e-17
  outer loop
    vertex -1.9999999999999991 3.9999999999999996 1.0000000000000009
    vertex -2.0000000000000004 15.0 20.0
    vertex -1.9999999999999996 15.0 1.0000000000000009
  endloop
endfacet
facet normal -1.0 0.0 0.0
  outer loop
    vertex -0.30000000000000016 3.9999999999999996 18.3
    vertex -0.30000000000000016 -1.9999999999999998 2.7000000000000006
    vertex -0.30000000000000016 -1.9999999999999998 18.3
  endloop
endfacet
facet normal -1.0 0.0 0.0
  outer loop
    vertex -0.30000000000000016 -1.9999999999999998 2.7000000000000006
    vertex -0.30000000000000016 3.9999999999999996 18.3
    vertex -0.30000000000000016 3.9999999999999996 2.7000000000000006
  endloop
endfacet
facet normal 0.0 -1.0 0.0
  outer loop
    vertex 18.3 -1.9999999999999998 2.7000000000000006
    vertex 17.000000000000004 -1.9999999999999998 4.000000000000001
    vertex -0.30000000000000016 -1.9999999999999998 2.7000000000000006
  endloop
endfacet
facet normal 0.0 -1.0 0.0
  outer loop
    vertex 17.000000000000004 -1.9999999999999998 4.000000000000001
    vertex 18.3 -1.9999999999999998 2.7000000000000006
    vertex 18.3 -1.9999999999999998 18.3
  endloop
endfacet
facet normal 0.0 -1.0 0.0
  outer loop
    vertex 17.000000000000004 -1.9999999999999998 4.000000000000001
    vertex 18.3 -1.9999999999999998 18.3
    vertex 17.0 -1.9999999999999998 17.000000000000004
  endloop
endfacet
facet normal 0.0 -1.0 0.0
  outer loop
    vertex 17.0 -1.9999999999999998 17.000000000000004
    vertex 18.3 -1.9999999999999998 18.3
    vertex 0.9999999999999996 -1.9999999999999998 17.000000000000004
  endloop
endfacet
facet normal 0.0 -1.0 0.0
  outer loop
    vertex -0.30000000000000016 -1.9999999999999998 2.7000000000000006
    vertex 0.9999999999999996 -1.9999999999999998 4.000000000000001
    vertex -0.30000000000000016 -1.9999999999999998 18.3
  endloop
endfacet
facet normal 0.0 -1.0 0.0
  outer loop
    vertex 0.9999999999999996 -1.9999999999999998 4.000000000000001
    vertex -0.30000000000000016 -1.9999999999999998 2.7000000000000006
    vertex 17.000000000000004 -1.9999999999999998 4.000000000000001
  endloop
endfacet
facet normal 0.0 -1.0 0.0
  outer loop
    vertex -0.30000000000000016 -1.9999999999999998 18.3
    vertex 0.9999999999999996 -1.9999999999999998 4.000000000000001
    vertex 0.9999999999999996 -1.9999999999999998 17.000000000000004
  endloop
endfacet
facet normal 0.0 -1.0 0.0
  outer loop
    vertex -0.30000000000000016 -1.9999999999999998 18.3
    vertex 0.9999999999999996 -1.9999999999999998 17.000000000000004
    vertex 18.3 -1.9999999999999998 18.3
  endloop
endfacet
facet normal 0.0 0.0 1.0
  outer loop
    vertex 18.3 -1.9999999999999998 18.3
    vertex -0.30000000000000016 3.9999999999999996 18.3
    vertex -0.30000000000000016 -1.9999999999999998 18.3
  endloop
endfacet
facet normal 0.0 0.0 1.0
  outer loop
    vertex -0.30000000000000016 3.9999999999999996 18.3
    vertex 18.3 -1.9999999999999998 18.3
    vertex 18.3 3.9999999999999996 18.3
  endloop
endfacet
facet normal -1.0 1.5666480458599417e-16 -1.0846024932876528e-16
  outer loop
    vertex 17.000000000000004 6.000000000000005 17.000000000000004
    vertex 17.000000000000004 -1.9999999999999998 4.000000000000001
    vertex 17.0 -1.9999999999999998 17.000000000000004
  endloop
endfacet
facet normal -1.0 1.5666480458599417e-16 -1.0846024932876528e-16
  outer loop
    vertex 17.000000000000004 -1.9999999999999998 4.000000000000001
    vertex 17.000000000000004 6.000000000000005 17.000000000000004
    vertex 17.000000000000004 6.000000000000005 4.000000000000001
  endloop
endfacet
facet normal 1.0 0.0 0.0
  outer loop
    vertex 20.0 15.0 1.0000000000000009
    vertex 20.0 3.9999999999999996 20.0
    vertex 20.0 3.9999999999999996 1.0000000000000009
  endloop
endfacet
facet normal 1.0 0.0 0.0
  outer loop
    vertex 20.0 3.9999999999999996 20.0
    vertex 20.0 15.0 1.0000000000000009
    vertex 20.0 15.0 20.0
  endloop
endfacet
facet normal 1.0 0.0 0.0
  outer loop
    vertex 18.3 3.9999999999999996 2.7000000000000006
    vertex 18.3 -1.9999999999999998 18.3
    vertex 18.3 -1.9999999999999998 2.7000000000000006
  endloop
endfacet
facet normal 1.0 0.0 0.0
  outer loop
    vertex 18.3 -1.9999999999999998 18.3
    vertex 18.3 3.9999999999999996 2.7000000000000006
    vertex 18.3 3.9999999999999996 18.3
  endloop
endfacet
facet normal 1.0 0.0 0.0
  outer loop
    vertex 0.9999999999999996 6.000000000000005 4.000000000000001
    vertex 0.9999999999999996 -1.9999999999999998 17.000000000000004
    vertex 0.9999999999999996 -1.9999999999999998 4.000000000000001
  endloop
endfacet
facet normal 1.0 0.0 0.0
  outer loop
    vertex 0.9999999999999996 -1.9999999999999998 17.000000000000004
    vertex 0.9999999999999996 6.000000000000005 4.000000000000001
    vertex 0.9999999999999996 6.000000000000005 17.000000000000004
  endloop
endfacet
facet normal -1.0 0.0 0.0
  outer loop
    vertex 11.999999999999998 15.0 17.999999999999996
    vertex 11.999999999999998 6.000000000000005 17.000000000000004
    vertex 11.999999999999998 6.000000000000005 17.999999999999996
  endloop
endfacet
facet normal -1.0 0.0 0.0
  outer loop
    vertex 11.999999999999998 6.000000000000005 17.000000000000004
    vertex 11.999999999999998 15.0 17.999999999999996
    vertex 11.999999999999998 15.0 16.999999999999996
  endloop
endfacet
facet normal 1.0 0.0 0.0
  outer loop
    vertex 13.999999999999996 15.0 16.999999999999996
    vertex 13.999999999999996 6.000000000000005 17.999999999999996
    vertex 13.999999999999996 6.000000000000005 17.000000000000004
  endloop
endfacet
facet normal 1.0 0.0 0.0
  outer loop
    vertex 13.999999999999996 6.000000000000005 17.999999999999996
    vertex 13.999999999999996 15.0 16.999999999999996
    vertex 13.999999999999996 15.0 17.999999999999996
  endloop
endfacet
facet normal 1.1749860343949574e-16 1.0 2.510952029235939e-32
  outer loop
    vertex 5.999999999999999 6.000000000000005 17.000000000000007
    vertex 11.999999999999998 6.000000000000005 17.999999999999996
    vertex 11.999999999999998 6.000000000000005 17.000000000000004
  endloop
endfacet
facet normal 1.1749860343949574e-16 1.0 2.510952029235939e-32
  outer loop
    vertex 11.999999999999998 6.000000000000005 17.999999999999996
    vertex 5.999999999999999 6.000000000000005 17.000000000000007
    vertex 5.999999999999999 6.000000000000005 17.999999999999996
  endloop
endfacet
facet normal -5.755033637852851e-17 -2.704684833890278e-16 -1.0
  outer loop
    vertex 5.999999999999999 15.0 16.999999999999996
    vertex 3.9999999999999996 6.000000000000005 17.000000000000007
    vertex 3.9999999999999996 15.0 16.999999999999996
  endloop
endfacet
facet normal -5.755033637852851e-17 -2.704684833890278e-16 -1.0
  outer loop
    vertex 13.999999999999996 15.0 16.999999999999996
    vertex 11.999999999999998 6.000000000000005 17.000000000000004
    vertex 11.999999999999998 15.0 16.999999999999996
  endloop
endfacet
facet normal -5.755033637852851e-17 -2.704684833890278e-16 -1.0
  outer loop
    vertex 3.9999999999999996 6.000000000000005 17.000000000000007
    vertex 0.9999999999999996 -1.9999999999999998 17.000000000000004
    vertex 0.9999999999999996 6.000000000000005 17.000000000000004
  endloop
endfacet
facet normal -5.755033637852851e-17 -2.704684833890278e-16 -1.0
  outer loop
    vertex 0.9999999999999996 -1.9999999999999998 17.000000000000004
    vertex 3.9999999999999996 6.000000000000005 17.000000000000007
    vertex 17.0 -1.9999999999999998 17.000000000000004
  endloop
endfacet
facet normal -5.755033637852851e-17 -2.704684833890278e-16 -1.0
  outer loop
    vertex 17.0 -1.9999999999999998 17.000000000000004
    vertex 3.9999999999999996 6.000000000000005 17.000000000000007
    vertex 5.999999999999999 6.000000000000005 17.000000000000007
  endloop
endfacet
facet normal -5.755033637852851e-17 -2.704684833890278e-16 -1.0
  outer loop
    vertex 5.999999999999999 6.000000000000005 17.000000000000007
    vertex 3.9999999999999996 6.000000000000005 17.000000000000007
    vertex 5.999999999999999 15.0 16.999999999999996
  endloop
endfacet
facet normal -5.755033637852851e-17 -2.704684833890278e-16 -1.0
  outer loop
    vertex 17.0 -1.9999999999999998 17.000000000000004
    vertex 5.999999999999999 6.000000000000005 17.000000000000007
    vertex 11.999999999999998 6.000000000000005 17.000000000000004
  endloop
endfacet
facet normal -5.755033637852851e-17 -2.704684833890278e-16 -1.0
  outer loop
    vertex 17.0 -1.9999999999999998 17.000000000000004
    vertex 11.999999999999998 6.000000000000005 17.000000000000004
    vertex 13.999999999999996 6.000000000000005 17.000000000000004
  endloop
endfacet
facet normal -5.755033637852851e-17 -2.704684833890278e-16 -1.0
  outer loop
    vertex 13.999999999999996 6.000000000000005 17.000000000000004
    vertex 11.999999999999998 6.000000000000005 17.000000000000004
    vertex 13.999999999999996 15.0 16.999999999999996
  endloop
endfacet
facet normal -5.755033637852851e-17 -2.704684833890278e-16 -1.0
  outer loop
    vertex 17.0 -1.9999999999999998 17.000000000000004
    vertex 13.999999999999996 6.000000000000005 17.000000000000004
    vertex 17.000000000000004 6.000000000000005 17.000000000000004
  endloop
endfacet
facet normal -1.0 0.0 0.0
  outer loop
    vertex 3.9999999999999996 15.0 17.999999999999996
    vertex 3.9999999999999996 6.000000000000005 17.000000000000007
    vertex 3.9999999999999996 6.000000000000005 17.999999999999996
  endloop
endfacet
facet normal -1.0 0.0 0.0
  outer loop
    vertex 3.9999999999999996 6.000000000000005 17.000000000000007
    vertex 3.9999999999999996 15.0 17.999999999999996
    vertex 3.9999999999999996 15.0 16.999999999999996
  endloop
endfacet
facet normal 1.0 0.0 0.0
  outer loop
    vertex 5.999999999999999 15.0 16.999999999999996
    vertex 5.999999999999999 6.000000000000005 17.999999999999996
    vertex 5.999999999999999 6.000000000000005 17.000000000000007
  endloop
endfacet
facet normal 1.0 0.0 0.0
  outer loop
    vertex 5.999999999999999 6.000000000000005 17.999999999999996
    vertex 5.999999999999999 15.0 16.999999999999996
    vertex 5.999999999999999 15.0 17.999999999999996
  endloop
endfacet
facet normal -4.838177788685119e-17 1.0 1.3419891255780046e-17
  outer loop
    vertex 0.0 6.000000000000005 2.9999999999999987
    vertex 0.9999999999999996 6.000000000000005 4.000000000000001
    vertex 3.999999999999957 6.000000000000005 2.9999999999999987
  endloop
endfacet
facet normal -4.838177788685119e-17 1.0 1.3419891255780046e-17
  outer loop
    vertex 0.9999999999999996 6.000000000000005 4.000000000000001
    vertex 0.0 6.000000000000005 2.9999999999999987
    vertex 0.0 6.000000000000005 17.999999999999996
  endloop
endfacet
facet normal -4.838177788685119e-17 1.0 1.3419891255780046e-17
  outer loop
    vertex 3.999999999999957 6.000000000000005 2.9999999999999987
    vertex 0.9999999999999996 6.000000000000005 4.000000000000001
    vertex 3.999999999999957 6.000000000000005 3.9999999999999996
  endloop
endfacet
facet normal -4.838177788685119e-17 1.0 1.3419891255780046e-17
  outer loop
    vertex 0.9999999999999996 6.000000000000005 4.000000000000001
    vertex 0.0 6.000000000000005 17.999999999999996
    vertex 0.9999999999999996 6.000000000000005 17.000000000000004
  endloop
endfacet
facet normal -4.838177788685119e-17 1.0 1.3419891255780046e-17
  outer loop
    vertex 0.9999999999999996 6.000000000000005 17.000000000000004
    vertex 0.0 6.000000000000005 17.999999999999996
    vertex 3.9999999999999996 6.000000000000005 17.000000000000007
  endloop
endfacet
facet normal -4.838177788685119e-17 1.0 1.3419891255780046e-17
  outer loop
    vertex 3.9999999999999996 6.000000000000005 17.000000000000007
    vertex 0.0 6.000000000000005 17.999999999999996
    vertex 3.9999999999999996 6.000000000000005 17.999999999999996
  endloop
endfacet
facet normal 1.0 3.7104822138788094e-17 7.049916206369736e-16
  outer loop
    vertex 5.999999999999958 15.0 3.0
    vertex 5.999999999999958 6.000000000000005 3.9999999999999996
    vertex 5.999999999999958 6.000000000000005 2.9999999999999987
  endloop
endfacet
facet normal 1.0 3.7104822138788094e-17 7.049916206369736e-16
  outer loop
    vertex 5.999999999999958 6.000000000000005 3.9999999999999996
    vertex 5.999999999999958 15.0 3.0
    vertex 5.9999999999999565 15.0 4.000000000000001
  endloop
endfacet
facet normal -1.0 0.0 0.0
  outer loop
    vertex 3.999999999999957 15.0 4.000000000000001
    vertex 3.999999999999957 6.000000000000005 2.9999999999999987
    vertex 3.999999999999957 6.000000000000005 3.9999999999999996
  endloop
endfacet
facet normal -1.0 0.0 0.0
  outer loop
    vertex 3.999999999999957 6.000000000000005 2.9999999999999987
    vertex 3.999999999999957 15.0 4.000000000000001
    vertex 3.999999999999957 15.0 3.0
  endloop
endfacet
facet normal -1.1749860343949495e-16 1.0 -1.1131024459501826e-32
  outer loop
    vertex 5.999999999999958 6.000000000000005 3.9999999999999996
    vertex 11.999999999999998 6.000000000000005 2.9999999999999987
    vertex 5.999999999999958 6.000000000000005 2.9999999999999987
  endloop
endfacet
facet normal -1.1749860343949495e-16 1.0 -1.1131024459501826e-32
  outer loop
    vertex 11.999999999999998 6.000000000000005 2.9999999999999987
    vertex 5.999999999999958 6.000000000000005 3.9999999999999996
    vertex 11.999999999999998 6.000000000000005 4.000000000000001
  endloop
endfacet
facet normal 9.676355577370232e-17 1.0 2.5050463677455946e-17
  outer loop
    vertex 13.999999999999996 6.000000000000005 17.999999999999996
    vertex 17.000000000000004 6.000000000000005 17.000000000000004
    vertex 13.999999999999996 6.000000000000005 17.000000000000004
  endloop
endfacet
facet normal 9.676355577370232e-17 1.0 2.5050463677455946e-17
  outer loop
    vertex 13.999999999999996 6.000000000000005 4.000000000000001
    vertex 17.999999999999996 6.000000000000005 2.9999999999999987
    vertex 13.999999999999996 6.000000000000005 2.9999999999999987
  endloop
endfacet
facet normal 9.676355577370232e-17 1.0 2.5050463677455946e-17
  outer loop
    vertex 17.999999999999996 6.000000000000005 2.9999999999999987
    vertex 13.999999999999996 6.000000000000005 4.000000000000001
    vertex 17.000000000000004 6.000000000000005 4.000000000000001
  endloop
endfacet
facet normal 9.676355577370232e-17 1.0 2.5050463677455946e-17
  outer loop
    vertex 17.999999999999996 6.000000000000005 2.9999999999999987
    vertex 17.000000000000004 6.000000000000005 4.000000000000001
    vertex 17.999999999999996 6.000000000000005 17.999999999999996
  endloop
endfacet
facet normal 9.676355577370232e-17 1.0 2.5050463677455946e-17
  outer loop
    vertex 17.999999999999996 6.000000000000005 17.999999999999996
    vertex 17.000000000000004 6.000000000000005 4.000000000000001
    vertex 17.000000000000004 6.000000000000005 17.000000000000004
  endloop
endfacet
facet normal 9.676355577370232e-17 1.0 2.5050463677455946e-17
  outer loop
    vertex 17.999999999999996 6.000000000000005 17.999999999999996
    vertex 17.000000000000004 6.000000000000005 17.000000000000004
    vertex 13.999999999999996 6.000000000000005 17.999999999999996
  endloop
endfacet
facet normal -1.0 0.0 0.0
  outer loop
    vertex 11.999999999999998 15.0 4.000000000000001
    vertex 11.999999999999998 6.000000000000005 2.9999999999999987
    vertex 11.999999999999998 6.000000000000005 4.000000000000001
  endloop
endfacet
facet normal -1.0 0.0 0.0
  outer loop
    vertex 11.999999999999998 6.000000000000005 2.9999999999999987
    vertex 11.999999999999998 15.0 4.000000000000001
    vertex 11.999999999999998 15.0 3.0
  endloop
endfacet
facet normal 1.0 0.0 0.0
  outer loop
    vertex 13.999999999999996 15.0 3.0
    vertex 13.999999999999996 6.000000000000005 4.000000000000001
    vertex 13.999999999999996 6.000000000000005 2.9999999999999987
  endloop
endfacet
facet normal 1.0 0.0 0.0
  outer loop
    vertex 13.999999999999996 6.000000000000005 4.000000000000001
    vertex 13.999999999999996 15.0 3.0
    vertex 13.999999999999996 15.0 3.9999999999999982
  endloop
endfacet
facet normal 1.7984480118289035e-18 2.7711934773465967e-17 1.0
  outer loop
    vertex 13.999999999999996 15.0 3.9999999999999982
    vertex 11.999999999999998 15.0 4.000000000000001
    vertex 13.999999999999996 6.000000000000005 4.000000000000001
  endloop
endfacet
facet normal 1.7984480118289035e-18 2.7711934773465967e-17 1.0
  outer loop
    vertex 17.000000000000004 -1.9999999999999998 4.000000000000001
    vertex 0.9999999999999996 6.000000000000005 4.000000000000001
    vertex 0.9999999999999996 -1.9999999999999998 4.000000000000001
  endloop
endfacet
facet normal 1.7984480118289035e-18 2.7711934773465967e-17 1.0
  outer loop
    vertex 0.9999999999999996 6.000000000000005 4.000000000000001
    vertex 17.000000000000004 -1.9999999999999998 4.000000000000001
    vertex 3.999999999999957 6.000000000000005 3.9999999999999996
  endloop
endfacet
facet normal 1.7984480118289035e-18 2.7711934773465967e-17 1.0
  outer loop
    vertex 3.999999999999957 6.000000000000005 3.9999999999999996
    vertex 17.000000000000004 -1.9999999999999998 4.000000000000001
    vertex 5.999999999999958 6.000000000000005 3.9999999999999996
  endloop
endfacet
facet normal 1.7984480118289035e-18 2.7711934773465967e-17 1.0
  outer loop
    vertex 3.999999999999957 6.000000000000005 3.9999999999999996
    vertex 5.999999999999958 6.000000000000005 3.9999999999999996
    vertex 3.999999999999957 15.0 4.000000000000001
  endloop
endfacet
facet normal 1.7984480118289035e-18 2.7711934773465967e-17 1.0
  outer loop
    vertex 3.999999999999957 15.0 4.000000000000001
    vertex 5.999999999999958 6.000000000000005 3.9999999999999996
    vertex 5.9999999999999565 15.0 4.000000000000001
  endloop
endfacet
facet normal 1.7984480118289035e-18 2.7711934773465967e-17 1.0
  outer loop
    vertex 5.999999999999958 6.000000000000005 3.9999999999999996
    vertex 17.000000000000004 -1.9999999999999998 4.000000000000001
    vertex 11.999999999999998 6.000000000000005 4.000000000000001
  endloop
endfacet
facet normal 1.7984480118289035e-18 2.7711934773465967e-17 1.0
  outer loop
    vertex 11.999999999999998 6.000000000000005 4.000000000000001
    vertex 17.000000000000004 -1.9999999999999998 4.000000000000001
    vertex 13.999999999999996 6.000000000000005 4.000000000000001
  endloop
endfacet
facet normal 1.7984480118289035e-18 2.7711934773465967e-17 1.0
  outer loop
    vertex 11.999999999999998 6.000000000000005 4.000000000000001
    vertex 13.999999999999996 6.000000000000005 4.000000000000001
    vertex 11.999999999999998 15.0 4.000000000000001
  endloop
endfacet
facet normal 1.7984480118289035e-18 2.7711934773465967e-17 1.0
  outer loop
    vertex 13.999999999999996 6.000000000000005 4.000000000000001
    vertex 17.000000000000004 -1.9999999999999998 4.000000000000001
    vertex 17.000000000000004 6.000000000000005 4.000000000000001
  endloop
endfacet
facet normal -1.0 2.226289328327288e-16 9.399888275159659e-17
  outer loop
    vertex 18.000000000000004 15.0 17.999999999999996
    vertex 17.999999999999996 6.000000000000005 2.9999999999999987
    vertex 17.999999999999996 6.000000000000005 17.999999999999996
  endloop
endfacet
facet normal -1.0 2.226289328327288e-16 9.399888275159659e-17
  outer loop
    vertex 17.999999999999996 6.000000000000005 2.9999999999999987
    vertex 18.000000000000004 15.0 17.999999999999996
    vertex 18.0 15.0 3.0
  endloop
endfacet
facet normal 1.0 -4.3156441939995256e-17 -5.8749301719747875e-18
  outer loop
    vertex 7.049916206369744e-16 15.0 3.0
    vertex 0.0 6.000000000000005 17.999999999999996
    vertex 0.0 6.000000000000005 2.9999999999999987
  endloop
endfacet
facet normal 1.0 -4.3156441939995256e-17 -5.8749301719747875e-18
  outer loop
    vertex 0.0 6.000000000000005 17.999999999999996
    vertex 7.049916206369744e-16 15.0 3.0
    vertex 1.0574874309554614e-15 15.0 17.999999999999996
  endloop
endfacet
facet normal 0.0 0.0 1.0
  outer loop
    vertex 20.0 3.9999999999999996 20.0
    vertex 12.0 15.0 20.0
    vertex 12.0 3.9999999999999996 20.0
  endloop
endfacet
facet normal 0.0 0.0 1.0
  outer loop
    vertex 12.0 15.0 20.0
    vertex 20.0 3.9999999999999996 20.0
    vertex 20.0 15.0 20.0
  endloop
endfacet
facet normal 0.0 0.0 1.0
  outer loop
    vertex -1.9999999999999991 3.9999999999999996 20.0
    vertex 6.0 15.0 20.0
    vertex -2.0000000000000004 15.0 20.0
  endloop
endfacet
facet normal 0.0 0.0 1.0
  outer loop
    vertex 6.0 15.0 20.0
    vertex -1.9999999999999991 3.9999999999999996 20.0
    vertex 6.0 3.9999999999999996 20.0
  endloop
endfacet
facet normal 0.0 0.0 1.0
  outer loop
    vertex 12.0 3.999999999999999 25.599999999999998
    vertex 6.0 15.0 25.599999999999998
    vertex 6.0 3.9999999999999982 25.599999999999998
  endloop
endfacet
facet normal 0.0 0.0 1.0
  outer loop
    vertex 6.0 15.0 25.599999999999998
    vertex 12.0 3.999999999999999 25.599999999999998
    vertex 12.0 15.0 25.599999999999998
  endloop
endfacet
facet normal 1.0 0.0 0.0
  outer loop
    vertex 12.0 3.9999999999999996 20.0
    vertex 12.0 15.0 25.599999999999998
    vertex 12.0 3.999999999999999 25.599999999999998
  endloop
endfacet
facet normal 1.0 0.0 0.0
  outer loop
    vertex 12.0 15.0 25.599999999999998
    vertex 12.0 3.9999999999999996 20.0
    vertex 12.0 15.0 20.0
  endloop
endfacet
facet normal -1.0 0.0 0.0
  outer loop
    vertex 6.0 15.0 25.599999999999998
    vertex 6.0 3.9999999999999996 20.0
    vertex 6.0 3.9999999999999982 25.599999999999998
  endloop
endfacet
facet normal -1.0 0.0 0.0
  outer loop
    vertex 6.0 3.9999999999999996 20.0
    vertex 6.0 15.0 25.599999999999998
    vertex 6.0 15.0 20.0
  endloop
endfacet
facet normal 0.13052619222005504 -2.1862544368867238e-17 0.99144486137381
  outer loop
    vertex 9.000000000000002 3.999999999999999 20.9
    vertex 8.58588952783597 15.0 20.954518677937493
    vertex 8.585889527835969 3.9999999999999982 20.954518677937493
  endloop
endfacet
facet normal 0.13052619222005504 -2.1862544368867238e-17 0.99144486137381
  outer loop
    vertex 8.58588952783597 15.0 20.954518677937493
    vertex 9.000000000000002 3.999999999999999 20.9
    vertex 9.000000000000007 15.0 20.9
  endloop
endfacet
facet normal 0.38268343236508895 2.3528394528123846e-17 0.9238795325112871
  outer loop
    vertex 8.585889527835969 3.9999999999999982 20.954518677937493
    vertex 8.200000000000003 15.0 21.1143593539449
    vertex 8.200000000000001 3.9999999999999982 21.1143593539449
  endloop
endfacet
facet normal 0.38268343236508895 2.3528394528123846e-17 0.9238795325112871
  outer loop
    vertex 8.200000000000003 15.0 21.1143593539449
    vertex 8.585889527835969 3.9999999999999982 20.954518677937493
    vertex 8.58588952783597 15.0 20.954518677937493
  endloop
endfacet
facet normal 0.9914448613738103 -3.1489599630361485e-17 -0.1305261922200528
  outer loop
    vertex 7.4 15.0 22.50000000000001
    vertex 7.45451867793749 3.999999999999999 22.91411047216404
    vertex 7.3999999999999995 3.9999999999999982 22.5
  endloop
endfacet
facet normal 0.9914448613738103 -3.1489599630361485e-17 -0.1305261922200528
  outer loop
    vertex 7.45451867793749 3.999999999999999 22.91411047216404
    vertex 7.4 15.0 22.50000000000001
    vertex 7.454518677937491 15.0 22.91411047216404
  endloop
endfacet
facet normal 0.9238795325112835 -3.111664103123221e-17 -0.3826834323650978
  outer loop
    vertex 7.454518677937491 15.0 22.91411047216404
    vertex 7.614359353944905 3.9999999999999996 23.30000000000001
    vertex 7.45451867793749 3.999999999999999 22.91411047216404
  endloop
endfacet
facet normal 0.9238795325112835 -3.111664103123221e-17 -0.3826834323650978
  outer loop
    vertex 7.614359353944905 3.9999999999999996 23.30000000000001
    vertex 7.454518677937491 15.0 22.91411047216404
    vertex 7.614359353944905 15.0 23.30000000000001
  endloop
endfacet
facet normal 0.6087614290087275 2.1303205175543135e-16 -0.79335334029123
  outer loop
    vertex 8.200000000000003 15.0 23.885640646055116
    vertex 7.868629150101529 3.9999999999999982 23.631370849898477
    vertex 7.868629150101528 15.0 23.631370849898477
  endloop
endfacet
facet normal 0.6087614290087275 2.1303205175543135e-16 -0.79335334029123
  outer loop
    vertex 7.868629150101529 3.9999999999999982 23.631370849898477
    vertex 8.200000000000003 15.0 23.885640646055116
    vertex 8.200000000000001 3.9999999999999982 23.8856406460551
  endloop
endfacet
facet normal 0.3826834323650799 1.7083662675123374e-16 -0.9238795325112911
  outer loop
    vertex 8.200000000000003 15.0 23.885640646055116
    vertex 8.585889527835967 3.9999999999999982 24.045481322062507
    vertex 8.200000000000001 3.9999999999999982 23.8856406460551
  endloop
endfacet
facet normal 0.3826834323650799 1.7083662675123374e-16 -0.9238795325112911
  outer loop
    vertex 8.585889527835967 3.9999999999999982 24.045481322062507
    vertex 8.200000000000003 15.0 23.885640646055116
    vertex 8.585889527835974 15.0 24.045481322062507
  endloop
endfacet
facet normal 0.13052619222005304 -7.97652005265493e-17 -0.9914448613738103
  outer loop
    vertex 8.585889527835974 15.0 24.045481322062507
    vertex 9.000000000000004 3.999999999999999 24.100000000000005
    vertex 8.585889527835967 3.9999999999999982 24.045481322062507
  endloop
endfacet
facet normal 0.13052619222005304 -7.97652005265493e-17 -0.9914448613738103
  outer loop
    vertex 9.000000000000004 3.999999999999999 24.100000000000005
    vertex 8.585889527835974 15.0 24.045481322062507
    vertex 9.0 15.0 24.099999999999998
  endloop
endfacet
facet normal -0.13052619222005904 -4.0263557860072596e-17 0.9914448613738096
  outer loop
    vertex 9.414110472164037 3.999999999999999 20.954518677937493
    vertex 9.000000000000007 15.0 20.9
    vertex 9.000000000000002 3.999999999999999 20.9
  endloop
endfacet
facet normal -0.13052619222005904 -4.0263557860072596e-17 0.9914448613738096
  outer loop
    vertex 9.000000000000007 15.0 20.9
    vertex 9.414110472164037 3.999999999999999 20.954518677937493
    vertex 9.414110472164039 15.0 20.954518677937493
  endloop
endfacet
facet normal -0.3826834323650901 -2.2220848303008854e-16 -0.9238795325112867
  outer loop
    vertex 9.800000000000006 15.0 23.88564064605509
    vertex 9.414110472164035 3.999999999999999 24.045481322062507
    vertex 9.414110472164033 15.0 24.045481322062507
  endloop
endfacet
facet normal -0.3826834323650901 -2.2220848303008854e-16 -0.9238795325112867
  outer loop
    vertex 9.414110472164035 3.999999999999999 24.045481322062507
    vertex 9.800000000000006 15.0 23.88564064605509
    vertex 9.800000000000002 3.999999999999999 23.8856406460551
  endloop
endfacet
facet normal -0.6087614290087199 -1.5200767915774044e-16 -0.7933533402912358
  outer loop
    vertex 9.800000000000006 15.0 23.88564064605509
    vertex 10.131370849898477 3.999999999999999 23.631370849898477
    vertex 9.800000000000002 3.999999999999999 23.8856406460551
  endloop
endfacet
facet normal -0.6087614290087199 -1.5200767915774044e-16 -0.7933533402912358
  outer loop
    vertex 10.131370849898477 3.999999999999999 23.631370849898477
    vertex 9.800000000000006 15.0 23.88564064605509
    vertex 10.131370849898477 15.0 23.631370849898477
  endloop
endfacet
facet normal -0.60876142900872 -2.432499223757097e-17 0.7933533402912357
  outer loop
    vertex 10.131370849898477 3.999999999999999 21.368629150101526
    vertex 9.800000000000002 15.000000000000007 21.1143593539449
    vertex 9.8 3.999999999999999 21.1143593539449
  endloop
endfacet
facet normal -0.60876142900872 -2.432499223757097e-17 0.7933533402912357
  outer loop
    vertex 9.800000000000002 15.000000000000007 21.1143593539449
    vertex 10.131370849898477 3.999999999999999 21.368629150101526
    vertex 10.131370849898481 15.000000000000007 21.368629150101526
  endloop
endfacet
facet normal -0.38268343236509195 -1.0467778190005302e-17 0.923879532511286
  outer loop
    vertex 9.8 3.999999999999999 21.1143593539449
    vertex 9.414110472164039 15.0 20.954518677937493
    vertex 9.414110472164037 3.999999999999999 20.954518677937493
  endloop
endfacet
facet normal -0.38268343236509195 -1.0467778190005302e-17 0.923879532511286
  outer loop
    vertex 9.414110472164039 15.0 20.954518677937493
    vertex 9.8 3.999999999999999 21.1143593539449
    vertex 9.800000000000002 15.000000000000007 21.1143593539449
  endloop
endfacet
facet normal -0.1305261922200592 -2.1288254505232732e-16 -0.9914448613738094
  outer loop
    vertex 9.414110472164033 15.0 24.045481322062507
    vertex 9.000000000000004 3.999999999999999 24.100000000000005
    vertex 9.0 15.0 24.099999999999998
  endloop
endfacet
facet normal -0.1305261922200592 -2.1288254505232732e-16 -0.9914448613738094
  outer loop
    vertex 9.000000000000004 3.999999999999999 24.100000000000005
    vertex 9.414110472164033 15.0 24.045481322062507
    vertex 9.414110472164035 3.999999999999999 24.045481322062507
  endloop
endfacet
facet normal 0.7933533402912294 6.734857170655443e-17 -0.6087614290087281
  outer loop
    vertex 7.614359353944905 3.9999999999999996 23.30000000000001
    vertex 7.868629150101528 15.0 23.631370849898477
    vertex 7.868629150101529 3.9999999999999982 23.631370849898477
  endloop
endfacet
facet normal 0.7933533402912294 6.734857170655443e-17 -0.6087614290087281
  outer loop
    vertex 7.868629150101528 15.0 23.631370849898477
    vertex 7.614359353944905 3.9999999999999996 23.30000000000001
    vertex 7.614359353944905 15.0 23.30000000000001
  endloop
endfacet
facet normal -0.7933533402912362 -4.27893498723585e-17 -0.6087614290087197
  outer loop
    vertex 10.131370849898477 15.0 23.631370849898477
    vertex 10.385640646055098 3.999999999999999 23.300000000000004
    vertex 10.131370849898477 3.999999999999999 23.631370849898477
  endloop
endfacet
facet normal -0.7933533402912362 -4.27893498723585e-17 -0.6087614290087197
  outer loop
    vertex 10.385640646055098 3.999999999999999 23.300000000000004
    vertex 10.131370849898477 15.0 23.631370849898477
    vertex 10.385640646055101 15.0 23.3
  endloop
endfacet
facet normal -0.9238795325112854 1.0356627939056285e-16 -0.38268343236509356
  outer loop
    vertex 10.385640646055101 15.0 23.3
    vertex 10.545481322062507 3.999999999999999 22.91411047216404
    vertex 10.385640646055098 3.999999999999999 23.300000000000004
  endloop
endfacet
facet normal -0.9238795325112854 1.0356627939056285e-16 -0.38268343236509356
  outer loop
    vertex 10.545481322062507 3.999999999999999 22.91411047216404
    vertex 10.385640646055101 15.0 23.3
    vertex 10.545481322062509 15.0 22.91411047216404
  endloop
endfacet
facet normal -0.7933533402912384 5.127139289079252e-17 0.6087614290087168
  outer loop
    vertex 10.385640646055109 15.0 21.70000000000001
    vertex 10.131370849898477 3.999999999999999 21.368629150101526
    vertex 10.385640646055105 3.999999999999999 21.70000000000001
  endloop
endfacet
facet normal -0.7933533402912384 5.127139289079252e-17 0.6087614290087168
  outer loop
    vertex 10.131370849898477 3.999999999999999 21.368629150101526
    vertex 10.385640646055109 15.0 21.70000000000001
    vertex 10.131370849898481 15.000000000000007 21.368629150101526
  endloop
endfacet
facet normal -0.9914448613738107 -4.372508873773271e-17 0.13052619222004977
  outer loop
    vertex 10.6 15.0 22.50000000000001
    vertex 10.545481322062507 3.9999999999999982 22.085889527835963
    vertex 10.6 3.9999999999999982 22.5
  endloop
endfacet
facet normal -0.9914448613738107 -4.372508873773271e-17 0.13052619222004977
  outer loop
    vertex 10.545481322062507 3.9999999999999982 22.085889527835963
    vertex 10.6 15.0 22.50000000000001
    vertex 10.545481322062507 15.0 22.085889527835963
  endloop
endfacet
facet normal -0.9238795325112882 4.143356608535518e-17 0.3826834323650863
  outer loop
    vertex 10.545481322062507 15.0 22.085889527835963
    vertex 10.385640646055105 3.999999999999999 21.70000000000001
    vertex 10.545481322062507 3.9999999999999982 22.085889527835963
  endloop
endfacet
facet normal -0.9238795325112882 4.143356608535518e-17 0.3826834323650863
  outer loop
    vertex 10.385640646055105 3.999999999999999 21.70000000000001
    vertex 10.545481322062507 15.0 22.085889527835963
    vertex 10.385640646055109 15.0 21.70000000000001
  endloop
endfacet
facet normal -0.9914448613738103 1.0154911681241214e-16 -0.13052619222005285
  outer loop
    vertex 10.545481322062507 3.999999999999999 22.91411047216404
    vertex 10.6 15.0 22.50000000000001
    vertex 10.6 3.9999999999999982 22.5
  endloop
endfacet
facet normal -0.9914448613738103 1.0154911681241214e-16 -0.13052619222005285
  outer loop
    vertex 10.6 15.0 22.50000000000001
    vertex 10.545481322062507 3.999999999999999 22.91411047216404
    vertex 10.545481322062509 15.0 22.91411047216404
  endloop
endfacet
facet normal 0.6087614290087319 9.102502821365695e-18 0.7933533402912266
  outer loop
    vertex 8.200000000000001 3.9999999999999982 21.1143593539449
    vertex 7.868629150101533 15.0 21.368629150101526
    vertex 7.868629150101522 3.9999999999999982 21.368629150101537
  endloop
endfacet
facet normal 0.6087614290087319 9.102502821365695e-18 0.7933533402912266
  outer loop
    vertex 7.868629150101533 15.0 21.368629150101526
    vertex 8.200000000000001 3.9999999999999982 21.1143593539449
    vertex 8.200000000000003 15.0 21.1143593539449
  endloop
endfacet
facet normal 0.7933533402912295 -6.156749810086289e-17 0.6087614290087281
  outer loop
    vertex 7.868629150101533 15.0 21.368629150101526
    vertex 7.614359353944896 3.9999999999999982 21.70000000000001
    vertex 7.868629150101522 3.9999999999999982 21.368629150101537
  endloop
endfacet
facet normal 0.7933533402912295 -6.156749810086289e-17 0.6087614290087281
  outer loop
    vertex 7.614359353944896 3.9999999999999982 21.70000000000001
    vertex 7.868629150101533 15.0 21.368629150101526
    vertex 7.614359353944899 15.0 21.70000000000001
  endloop
endfacet
facet normal 0.9238795325112867 -6.213271330520903e-17 0.3826834323650901
  outer loop
    vertex 7.614359353944899 15.0 21.70000000000001
    vertex 7.454518677937489 3.999999999999999 22.085889527835974
    vertex 7.614359353944896 3.9999999999999982 21.70000000000001
  endloop
endfacet
facet normal 0.9238795325112867 -6.213271330520903e-17 0.3826834323650901
  outer loop
    vertex 7.454518677937489 3.999999999999999 22.085889527835974
    vertex 7.614359353944899 15.0 21.70000000000001
    vertex 7.454518677937489 15.0 22.085889527835974
  endloop
endfacet
facet normal 0.9914448613738109 -7.715039318455342e-17 0.1305261922200483
  outer loop
    vertex 7.454518677937489 3.999999999999999 22.085889527835974
    vertex 7.4 15.0 22.50000000000001
    vertex 7.3999999999999995 3.9999999999999982 22.5
  endloop
endfacet
facet normal 0.9914448613738109 -7.715039318455342e-17 0.1305261922200483
  outer loop
    vertex 7.4 15.0 22.50000000000001
    vertex 7.454518677937489 3.999999999999999 22.085889527835974
    vertex 7.454518677937489 15.0 22.085889527835974
  endloop
endfacet
facet normal 3.304648221735817e-17 -1.2589136082803113e-17 -1.0
  outer loop
    vertex 12.000000000000004 15.0 1.0000000000000002
    vertex 20.0 3.9999999999999996 1.0000000000000009
    vertex 12.0 3.9999999999999996 1.0000000000000009
  endloop
endfacet
facet normal 3.304648221735817e-17 -1.2589136082803113e-17 -1.0
  outer loop
    vertex 20.0 3.9999999999999996 1.0000000000000009
    vertex 12.000000000000004 15.0 1.0000000000000002
    vertex 20.0 15.0 1.0000000000000009
  endloop
endfacet
facet normal 1.1015494072452723e-17 4.196378694267703e-18 -1.0
  outer loop
    vertex 6.0 15.0 1.0000000000000009
    vertex -1.9999999999999991 3.9999999999999996 1.0000000000000009
    vertex -1.9999999999999996 15.0 1.0000000000000009
  endloop
endfacet
facet normal 1.1015494072452723e-17 4.196378694267703e-18 -1.0
  outer loop
    vertex -1.9999999999999991 3.9999999999999996 1.0000000000000009
    vertex 6.0 15.0 1.0000000000000009
    vertex 6.0 3.9999999999999996 1.0000000000000009
  endloop
endfacet
facet normal -4.699944137579828e-16 3.816820832434172e-32 -1.0
  outer loop
    vertex 12.0 15.0 -4.6
    vertex 5.999999999999997 3.999999999999999 -4.599999999999997
    vertex 5.999999999999997 15.0 -4.599999999999997
  endloop
endfacet
facet normal -4.699944137579828e-16 3.816820832434172e-32 -1.0
  outer loop
    vertex 5.999999999999997 3.999999999999999 -4.599999999999997
    vertex 12.0 15.0 -4.6
    vertex 11.999999999999998 3.9999999999999982 -4.6
  endloop
endfacet
facet normal -1.0 1.678551477707082e-17 4.406197628981091e-16
  outer loop
    vertex 6.0 3.9999999999999996 1.0000000000000009
    vertex 5.999999999999997 15.0 -4.599999999999997
    vertex 5.999999999999997 3.999999999999999 -4.599999999999997
  endloop
endfacet
facet normal -1.0 1.678551477707082e-17 4.406197628981091e-16
  outer loop
    vertex 5.999999999999997 15.0 -4.599999999999997
    vertex 6.0 3.9999999999999996 1.0000000000000009
    vertex 6.0 15.0 1.0000000000000009
  endloop
endfacet
facet normal 1.0 -1.3428411821656654e-16 -5.035654433121245e-16
  outer loop
    vertex 12.0 15.0 -4.6
    vertex 12.0 3.9999999999999996 1.0000000000000009
    vertex 11.999999999999998 3.9999999999999982 -4.6
  endloop
endfacet
facet normal 1.0 -1.3428411821656654e-16 -5.035654433121245e-16
  outer loop
    vertex 12.0 3.9999999999999996 1.0000000000000009
    vertex 12.0 15.0 -4.6
    vertex 12.000000000000004 15.0 1.0000000000000002
  endloop
endfacet
facet normal 1.3408629096268368e-33 -1.0 6.083243802701862e-34
  outer loop
    vertex 12.0 3.9999999999999996 20.0
    vertex 9.414110472164037 3.999999999999999 20.954518677937493
    vertex 6.0 3.9999999999999996 20.0
  endloop
endfacet
facet normal 1.3408629096268368e-33 -1.0 6.083243802701862e-34
  outer loop
    vertex 9.414110472164037 3.999999999999999 20.954518677937493
    vertex 12.0 3.9999999999999996 20.0
    vertex 9.8 3.999999999999999 21.1143593539449
  endloop
endfacet
facet normal 1.3408629096268368e-33 -1.0 6.083243802701862e-34
  outer loop
    vertex 9.8 3.999999999999999 21.1143593539449
    vertex 12.0 3.9999999999999996 20.0
    vertex 10.131370849898477 3.999999999999999 21.368629150101526
  endloop
endfacet
facet normal 1.3408629096268368e-33 -1.0 6.083243802701862e-34
  outer loop
    vertex 10.131370849898477 3.999999999999999 21.368629150101526
    vertex 12.0 3.9999999999999996 20.0
    vertex 10.385640646055105 3.999999999999999 21.70000000000001
  endloop
endfacet
facet normal 1.3408629096268368e-33 -1.0 6.083243802701862e-34
  outer loop
    vertex 10.385640646055105 3.999999999999999 21.70000000000001
    vertex 12.0 3.9999999999999996 20.0
    vertex 10.545481322062507 3.9999999999999982 22.085889527835963
  endloop
endfacet
facet normal 1.3408629096268368e-33 -1.0 6.083243802701862e-34
  outer loop
    vertex 10.545481322062507 3.9999999999999982 22.085889527835963
    vertex 12.0 3.9999999999999996 20.0
    vertex 12.0 3.999999999999999 25.599999999999998
  endloop
endfacet
facet normal 1.3408629096268368e-33 -1.0 6.083243802701862e-34
  outer loop
    vertex 6.0 3.9999999999999996 20.0
    vertex 9.414110472164037 3.999999999999999 20.954518677937493
    vertex 9.000000000000002 3.999999999999999 20.9
  endloop
endfacet
facet normal 1.3408629096268368e-33 -1.0 6.083243802701862e-34
  outer loop
    vertex 10.545481322062507 3.9999999999999982 22.085889527835963
    vertex 12.0 3.999999999999999 25.599999999999998
    vertex 10.6 3.9999999999999982 22.5
  endloop
endfacet
facet normal 1.3408629096268368e-33 -1.0 6.083243802701862e-34
  outer loop
    vertex 10.6 3.9999999999999982 22.5
    vertex 12.0 3.999999999999999 25.599999999999998
    vertex 10.545481322062507 3.999999999999999 22.91411047216404
  endloop
endfacet
facet normal 1.3408629096268368e-33 -1.0 6.083243802701862e-34
  outer loop
    vertex 10.545481322062507 3.999999999999999 22.91411047216404
    vertex 12.0 3.999999999999999 25.599999999999998
    vertex 10.385640646055098 3.999999999999999 23.300000000000004
  endloop
endfacet
facet normal 1.3408629096268368e-33 -1.0 6.083243802701862e-34
  outer loop
    vertex 10.385640646055098 3.999999999999999 23.300000000000004
    vertex 12.0 3.999999999999999 25.599999999999998
    vertex 10.131370849898477 3.999999999999999 23.631370849898477
  endloop
endfacet
facet normal 1.3408629096268368e-33 -1.0 6.083243802701862e-34
  outer loop
    vertex 10.131370849898477 3.999999999999999 23.631370849898477
    vertex 12.0 3.999999999999999 25.599999999999998
    vertex 9.800000000000002 3.999999999999999 23.8856406460551
  endloop
endfacet
facet normal 1.3408629096268368e-33 -1.0 6.083243802701862e-34
  outer loop
    vertex 9.800000000000002 3.999999999999999 23.8856406460551
    vertex 12.0 3.999999999999999 25.599999999999998
    vertex 9.414110472164035 3.999999999999999 24.045481322062507
  endloop
endfacet
facet normal 1.3408629096268368e-33 -1.0 6.083243802701862e-34
  outer loop
    vertex 9.414110472164035 3.999999999999999 24.045481322062507
    vertex 12.0 3.999999999999999 25.599999999999998
    vertex 9.000000000000004 3.999999999999999 24.100000000000005
  endloop
endfacet
facet normal 1.3408629096268368e-33 -1.0 6.083243802701862e-34
  outer loop
    vertex 6.0 3.9999999999999996 20.0
    vertex 7.454518677937489 3.999999999999999 22.085889527835974
    vertex 6.0 3.9999999999999982 25.599999999999998
  endloop
endfacet
facet normal 1.3408629096268368e-33 -1.0 6.083243802701862e-34
  outer loop
    vertex 7.454518677937489 3.999999999999999 22.085889527835974
    vertex 6.0 3.9999999999999996 20.0
    vertex 7.614359353944896 3.9999999999999982 21.70000000000001
  endloop
endfacet
facet normal 1.3408629096268368e-33 -1.0 6.083243802701862e-34
  outer loop
    vertex 7.614359353944896 3.9999999999999982 21.70000000000001
    vertex 6.0 3.9999999999999996 20.0
    vertex 7.868629150101522 3.9999999999999982 21.368629150101537
  endloop
endfacet
facet normal 1.3408629096268368e-33 -1.0 6.083243802701862e-34
  outer loop
    vertex 7.868629150101522 3.9999999999999982 21.368629150101537
    vertex 6.0 3.9999999999999996 20.0
    vertex 8.200000000000001 3.9999999999999982 21.1143593539449
  endloop
endfacet
facet normal 1.3408629096268368e-33 -1.0 6.083243802701862e-34
  outer loop
    vertex 8.200000000000001 3.9999999999999982 21.1143593539449
    vertex 6.0 3.9999999999999996 20.0
    vertex 8.585889527835969 3.9999999999999982 20.954518677937493
  endloop
endfacet
facet normal 1.3408629096268368e-33 -1.0 6.083243802701862e-34
  outer loop
    vertex 8.585889527835969 3.9999999999999982 20.954518677937493
    vertex 6.0 3.9999999999999996 20.0
    vertex 9.000000000000002 3.999999999999999 20.9
  endloop
endfacet
facet normal 1.3408629096268368e-33 -1.0 6.083243802701862e-34
  outer loop
    vertex 6.0 3.9999999999999982 25.599999999999998
    vertex 7.454518677937489 3.999999999999999 22.085889527835974
    vertex 7.3999999999999995 3.9999999999999982 22.5
  endloop
endfacet
facet normal 1.3408629096268368e-33 -1.0 6.083243802701862e-34
  outer loop
    vertex 6.0 3.9999999999999982 25.599999999999998
    vertex 7.3999999999999995 3.9999999999999982 22.5
    vertex 7.45451867793749 3.999999999999999 22.91411047216404
  endloop
endfacet
facet normal 1.3408629096268368e-33 -1.0 6.083243802701862e-34
  outer loop
    vertex 6.0 3.9999999999999982 25.599999999999998
    vertex 7.45451867793749 3.999999999999999 22.91411047216404
    vertex 7.614359353944905 3.9999999999999996 23.30000000000001
  endloop
endfacet
facet normal 1.3408629096268368e-33 -1.0 6.083243802701862e-34
  outer loop
    vertex 6.0 3.9999999999999982 25.599999999999998
    vertex 7.614359353944905 3.9999999999999996 23.30000000000001
    vertex 7.868629150101529 3.9999999999999982 23.631370849898477
  endloop
endfacet
facet normal 1.3408629096268368e-33 -1.0 6.083243802701862e-34
  outer loop
    vertex 6.0 3.9999999999999982 25.599999999999998
    vertex 7.868629150101529 3.9999999999999982 23.631370849898477
    vertex 8.200000000000001 3.9999999999999982 23.8856406460551
  endloop
endfacet
facet normal 1.3408629096268368e-33 -1.0 6.083243802701862e-34
  outer loop
    vertex 6.0 3.9999999999999982 25.599999999999998
    vertex 8.200000000000001 3.9999999999999982 23.8856406460551
    vertex 8.585889527835967 3.9999999999999982 24.045481322062507
  endloop
endfacet
facet normal 1.3408629096268368e-33 -1.0 6.083243802701862e-34
  outer loop
    vertex 6.0 3.9999999999999982 25.599999999999998
    vertex 8.585889527835967 3.9999999999999982 24.045481322062507
    vertex 9.000000000000004 3.999999999999999 24.100000000000005
  endloop
endfacet
facet normal 1.3408629096268368e-33 -1.0 6.083243802701862e-34
  outer loop
    vertex 6.0 3.9999999999999982 25.599999999999998
    vertex 9.000000000000004 3.999999999999999 24.100000000000005
    vertex 12.0 3.999999999999999 25.599999999999998
  endloop
endfacet
facet normal 1.3408629096268368e-33 -1.0 6.083243802701862e-34
  outer loop
    vertex 20.0 3.9999999999999996 1.0000000000000009
    vertex 18.3 3.9999999999999996 2.7000000000000006
    vertex 12.0 3.9999999999999996 1.0000000000000009
  endloop
endfacet
facet normal 1.3408629096268368e-33 -1.0 6.083243802701862e-34
  outer loop
    vertex 18.3 3.9999999999999996 2.7000000000000006
    vertex 20.0 3.9999999999999996 1.0000000000000009
    vertex 20.0 3.9999999999999996 20.0
  endloop
endfacet
facet normal 1.3408629096268368e-33 -1.0 6.083243802701862e-34
  outer loop
    vertex 12.0 3.9999999999999996 1.0000000000000009
    vertex 18.3 3.9999999999999996 2.7000000000000006
    vertex 6.0 3.9999999999999996 1.0000000000000009
  endloop
endfacet
facet normal 1.3408629096268368e-33 -1.0 6.083243802701862e-34
  outer loop
    vertex 6.0 3.9999999999999996 1.0000000000000009
    vertex 18.3 3.9999999999999996 2.7000000000000006
    vertex -1.9999999999999991 3.9999999999999996 1.0000000000000009
  endloop
endfacet
facet normal 1.3408629096268368e-33 -1.0 6.083243802701862e-34
  outer loop
    vertex 18.3 3.9999999999999996 2.7000000000000006
    vertex 20.0 3.9999999999999996 20.0
    vertex 18.3 3.9999999999999996 18.3
  endloop
endfacet
facet normal 1.3408629096268368e-33 -1.0 6.083243802701862e-34
  outer loop
    vertex 18.3 3.9999999999999996 18.3
    vertex 20.0 3.9999999999999996 20.0
    vertex -0.30000000000000016 3.9999999999999996 18.3
  endloop
endfacet
facet normal 1.3408629096268368e-33 -1.0 6.083243802701862e-34
  outer loop
    vertex -1.9999999999999991 3.9999999999999996 1.0000000000000009
    vertex -0.30000000000000016 3.9999999999999996 2.7000000000000006
    vertex -1.9999999999999991 3.9999999999999996 20.0
  endloop
endfacet
facet normal 1.3408629096268368e-33 -1.0 6.083243802701862e-34
  outer loop
    vertex -0.30000000000000016 3.9999999999999996 2.7000000000000006
    vertex -1.9999999999999991 3.9999999999999996 1.0000000000000009
    vertex 18.3 3.9999999999999996 2.7000000000000006
  endloop
endfacet
facet normal 1.3408629096268368e-33 -1.0 6.083243802701862e-34
  outer loop
    vertex -1.9999999999999991 3.9999999999999996 20.0
    vertex -0.30000000000000016 3.9999999999999996 2.7000000000000006
    vertex -0.30000000000000016 3.9999999999999996 18.3
  endloop
endfacet
facet normal 1.3408629096268368e-33 -1.0 6.083243802701862e-34
  outer loop
    vertex -1.9999999999999991 3.9999999999999996 20.0
    vertex -0.30000000000000016 3.9999999999999996 18.3
    vertex 20.0 3.9999999999999996 20.0
  endloop
endfacet
facet normal 1.3408629096268368e-33 -1.0 6.083243802701862e-34
  outer loop
    vertex -1.9999999999999991 3.9999999999999996 20.0
    vertex 20.0 3.9999999999999996 20.0
    vertex 12.0 3.9999999999999996 20.0
  endloop
endfacet
facet normal 1.3408629096268368e-33 -1.0 6.083243802701862e-34
  outer loop
    vertex -1.9999999999999991 3.9999999999999996 20.0
    vertex 12.0 3.9999999999999996 20.0
    vertex 6.0 3.9999999999999996 20.0
  endloop
endfacet
facet normal 1.3408629096268368e-33 -1.0 6.083243802701862e-34
  outer loop
    vertex 11.999999999999998 3.9999999999999982 -4.6
    vertex 9.799999999999997 3.9999999999999982 -2.8856406460551063
    vertex 5.999999999999997 3.999999999999999 -4.599999999999997
  endloop
endfacet
facet normal 1.3408629096268368e-33 -1.0 6.083243802701862e-34
  outer loop
    vertex 9.799999999999997 3.9999999999999982 -2.8856406460551063
    vertex 11.999999999999998 3.9999999999999982 -4.6
    vertex 10.13137084989847 3.9999999999999982 -2.6313708498984774
  endloop
endfacet
facet normal 1.3408629096268368e-33 -1.0 6.083243802701862e-34
  outer loop
    vertex 10.13137084989847 3.9999999999999982 -2.6313708498984774
    vertex 11.999999999999998 3.9999999999999982 -4.6
    vertex 10.385640646055094 3.9999999999999996 -2.300000000000012
  endloop
endfacet
facet normal 1.3408629096268368e-33 -1.0 6.083243802701862e-34
  outer loop
    vertex 10.385640646055094 3.9999999999999996 -2.300000000000012
    vertex 11.999999999999998 3.9999999999999982 -4.6
    vertex 12.0 3.9999999999999996 1.0000000000000009
  endloop
endfacet
facet normal 1.3408629096268368e-33 -1.0 6.083243802701862e-34
  outer loop
    vertex 5.999999999999997 3.999999999999999 -4.599999999999997
    vertex 9.799999999999997 3.9999999999999982 -2.8856406460551063
    vertex 9.414110472164033 3.9999999999999982 -3.045481322062512
  endloop
endfacet
facet normal 1.3408629096268368e-33 -1.0 6.083243802701862e-34
  outer loop
    vertex 5.999999999999997 3.999999999999999 -4.599999999999997
    vertex 9.414110472164033 3.9999999999999982 -3.045481322062512
    vertex 8.999999999999996 3.999999999999999 -3.1000000000000036
  endloop
endfacet
facet normal 1.3408629096268368e-33 -1.0 6.083243802701862e-34
  outer loop
    vertex 10.385640646055094 3.9999999999999996 -2.300000000000012
    vertex 12.0 3.9999999999999996 1.0000000000000009
    vertex 10.545481322062509 3.999999999999999 -1.9141104721640398
  endloop
endfacet
facet normal 1.3408629096268368e-33 -1.0 6.083243802701862e-34
  outer loop
    vertex 10.545481322062509 3.999999999999999 -1.9141104721640398
    vertex 12.0 3.9999999999999996 1.0000000000000009
    vertex 10.6 3.9999999999999982 -1.5000000000000022
  endloop
endfacet
facet normal 1.3408629096268368e-33 -1.0 6.083243802701862e-34
  outer loop
    vertex 10.6 3.9999999999999982 -1.5000000000000022
    vertex 12.0 3.9999999999999996 1.0000000000000009
    vertex 10.54548132206251 3.999999999999999 -1.085889527835976
  endloop
endfacet
facet normal 1.3408629096268368e-33 -1.0 6.083243802701862e-34
  outer loop
    vertex 10.54548132206251 3.999999999999999 -1.085889527835976
    vertex 12.0 3.9999999999999996 1.0000000000000009
    vertex 10.385640646055105 3.9999999999999982 -0.7000000000000114
  endloop
endfacet
facet normal 1.3408629096268368e-33 -1.0 6.083243802701862e-34
  outer loop
    vertex 10.385640646055105 3.9999999999999982 -0.7000000000000114
    vertex 12.0 3.9999999999999996 1.0000000000000009
    vertex 10.13137084989848 3.9999999999999982 -0.36862915010153446
  endloop
endfacet
facet normal 1.3408629096268368e-33 -1.0 6.083243802701862e-34
  outer loop
    vertex 10.13137084989848 3.9999999999999982 -0.36862915010153446
    vertex 12.0 3.9999999999999996 1.0000000000000009
    vertex 9.8 3.9999999999999982 -0.11435935394489993
  endloop
endfacet
facet normal 1.3408629096268368e-33 -1.0 6.083243802701862e-34
  outer loop
    vertex 9.8 3.9999999999999982 -0.11435935394489993
    vertex 12.0 3.9999999999999996 1.0000000000000009
    vertex 9.414110472164033 3.9999999999999982 0.04548132206250873
  endloop
endfacet
facet normal 1.3408629096268368e-33 -1.0 6.083243802701862e-34
  outer loop
    vertex 9.414110472164033 3.9999999999999982 0.04548132206250873
    vertex 12.0 3.9999999999999996 1.0000000000000009
    vertex 8.999999999999998 3.999999999999999 0.09999999999999841
  endloop
endfacet
facet normal 1.3408629096268368e-33 -1.0 6.083243802701862e-34
  outer loop
    vertex 5.999999999999997 3.999999999999999 -4.599999999999997
    vertex 7.614359353944901 3.999999999999999 -2.3000000000000083
    vertex 6.0 3.9999999999999996 1.0000000000000009
  endloop
endfacet
facet normal 1.3408629096268368e-33 -1.0 6.083243802701862e-34
  outer loop
    vertex 7.614359353944901 3.999999999999999 -2.3000000000000083
    vertex 5.999999999999997 3.999999999999999 -4.599999999999997
    vertex 7.868629150101522 3.999999999999999 -2.6313708498984796
  endloop
endfacet
facet normal 1.3408629096268368e-33 -1.0 6.083243802701862e-34
  outer loop
    vertex 7.868629150101522 3.999999999999999 -2.6313708498984796
    vertex 5.999999999999997 3.999999999999999 -4.599999999999997
    vertex 8.199999999999998 3.999999999999999 -2.8856406460551027
  endloop
endfacet
facet normal 1.3408629096268368e-33 -1.0 6.083243802701862e-34
  outer loop
    vertex 8.199999999999998 3.999999999999999 -2.8856406460551027
    vertex 5.999999999999997 3.999999999999999 -4.599999999999997
    vertex 8.585889527835965 3.999999999999999 -3.0454813220625114
  endloop
endfacet
facet normal 1.3408629096268368e-33 -1.0 6.083243802701862e-34
  outer loop
    vertex 8.585889527835965 3.999999999999999 -3.0454813220625114
    vertex 5.999999999999997 3.999999999999999 -4.599999999999997
    vertex 8.999999999999996 3.999999999999999 -3.1000000000000036
  endloop
endfacet
facet normal 1.3408629096268368e-33 -1.0 6.083243802701862e-34
  outer loop
    vertex 6.0 3.9999999999999996 1.0000000000000009
    vertex 7.614359353944901 3.999999999999999 -2.3000000000000083
    vertex 7.454518677937493 3.999999999999999 -1.9141104721640383
  endloop
endfacet
facet normal 1.3408629096268368e-33 -1.0 6.083243802701862e-34
  outer loop
    vertex 6.0 3.9999999999999996 1.0000000000000009
    vertex 7.454518677937493 3.999999999999999 -1.9141104721640383
    vertex 7.4 3.9999999999999982 -1.5000000000000007
  endloop
endfacet
facet normal 1.3408629096268368e-33 -1.0 6.083243802701862e-34
  outer loop
    vertex 6.0 3.9999999999999996 1.0000000000000009
    vertex 7.4 3.9999999999999982 -1.5000000000000007
    vertex 7.454518677937493 3.9999999999999982 -1.0858895278359662
  endloop
endfacet
facet normal 1.3408629096268368e-33 -1.0 6.083243802701862e-34
  outer loop
    vertex 6.0 3.9999999999999996 1.0000000000000009
    vertex 7.454518677937493 3.9999999999999982 -1.0858895278359662
    vertex 7.614359353944896 3.999999999999999 -0.7000000000000057
  endloop
endfacet
facet normal 1.3408629096268368e-33 -1.0 6.083243802701862e-34
  outer loop
    vertex 6.0 3.9999999999999996 1.0000000000000009
    vertex 7.614359353944896 3.999999999999999 -0.7000000000000057
    vertex 7.868629150101522 3.999999999999999 -0.3686291501015288
  endloop
endfacet
facet normal 1.3408629096268368e-33 -1.0 6.083243802701862e-34
  outer loop
    vertex 6.0 3.9999999999999996 1.0000000000000009
    vertex 7.868629150101522 3.999999999999999 -0.3686291501015288
    vertex 8.2 3.999999999999999 -0.11435935394490276
  endloop
endfacet
facet normal 1.3408629096268368e-33 -1.0 6.083243802701862e-34
  outer loop
    vertex 6.0 3.9999999999999996 1.0000000000000009
    vertex 8.2 3.999999999999999 -0.11435935394490276
    vertex 8.585889527835965 3.999999999999999 0.04548132206250873
  endloop
endfacet
facet normal 1.3408629096268368e-33 -1.0 6.083243802701862e-34
  outer loop
    vertex 6.0 3.9999999999999996 1.0000000000000009
    vertex 8.585889527835965 3.999999999999999 0.04548132206250873
    vertex 8.999999999999998 3.999999999999999 0.09999999999999841
  endloop
endfacet
facet normal 1.3408629096268368e-33 -1.0 6.083243802701862e-34
  outer loop
    vertex 6.0 3.9999999999999996 1.0000000000000009
    vertex 8.999999999999998 3.999999999999999 0.09999999999999841
    vertex 12.0 3.9999999999999996 1.0000000000000009
  endloop
endfacet
facet normal -0.13052619222005196 -1.068657287495248e-16 -0.9914448613738105
  outer loop
    vertex 9.000000000000002 15.0 0.099999999999997
    vertex 9.414110472164033 3.9999999999999982 0.04548132206250873
    vertex 8.999999999999998 3.999999999999999 0.09999999999999841
  endloop
endfacet
facet normal -0.13052619222005196 -1.068657287495248e-16 -0.9914448613738105
  outer loop
    vertex 9.414110472164033 3.9999999999999982 0.04548132206250873
    vertex 9.000000000000002 15.0 0.099999999999997
    vertex 9.414110472164039 15.0 0.0454813220625045
  endloop
endfacet
facet normal -0.38268343236509084 -7.516499480523264e-17 -0.9238795325112863
  outer loop
    vertex 9.414110472164039 15.0 0.0454813220625045
    vertex 9.8 3.9999999999999982 -0.11435935394489993
    vertex 9.414110472164033 3.9999999999999982 0.04548132206250873
  endloop
endfacet
facet normal -0.38268343236509084 -7.516499480523264e-17 -0.9238795325112863
  outer loop
    vertex 9.8 3.9999999999999982 -0.11435935394489993
    vertex 9.414110472164039 15.0 0.0454813220625045
    vertex 9.800000000000002 15.0 -0.11435935394490206
  endloop
endfacet
facet normal -0.9914448613738105 -4.954276126828959e-17 0.13052619222005168
  outer loop
    vertex 10.6 15.0 -1.500000000000007
    vertex 10.545481322062509 3.999999999999999 -1.9141104721640398
    vertex 10.6 3.9999999999999982 -1.5000000000000022
  endloop
endfacet
facet normal -0.9914448613738105 -4.954276126828959e-17 0.13052619222005168
  outer loop
    vertex 10.545481322062509 3.999999999999999 -1.9141104721640398
    vertex 10.6 15.0 -1.500000000000007
    vertex 10.545481322062507 15.0 -1.9141104721640405
  endloop
endfacet
facet normal -0.9238795325112827 -5.054019764863405e-17 0.38268343236509955
  outer loop
    vertex 10.545481322062507 15.0 -1.9141104721640405
    vertex 10.385640646055094 3.9999999999999996 -2.300000000000012
    vertex 10.545481322062509 3.999999999999999 -1.9141104721640398
  endloop
endfacet
facet normal -0.9238795325112827 -5.054019764863405e-17 0.38268343236509955
  outer loop
    vertex 10.385640646055094 3.9999999999999996 -2.300000000000012
    vertex 10.545481322062507 15.0 -1.9141104721640405
    vertex 10.385640646055094 15.0 -2.3000000000000087
  endloop
endfacet
facet normal -0.6087614290087289 -1.117400787875971e-16 0.793353340291229
  outer loop
    vertex 10.13137084989847 3.9999999999999982 -2.6313708498984774
    vertex 9.799999999999997 15.0 -2.885640646055103
    vertex 9.799999999999997 3.9999999999999982 -2.8856406460551063
  endloop
endfacet
facet normal -0.6087614290087289 -1.117400787875971e-16 0.793353340291229
  outer loop
    vertex 9.799999999999997 15.0 -2.885640646055103
    vertex 10.13137084989847 3.9999999999999982 -2.6313708498984774
    vertex 10.131370849898474 15.0 -2.631370849898471
  endloop
endfacet
facet normal -0.3826834323650904 -8.78689258232659e-17 0.9238795325112867
  outer loop
    vertex 9.414110472164033 3.9999999999999982 -3.045481322062512
    vertex 9.799999999999997 15.0 -2.885640646055103
    vertex 9.41411047216403 15.0 -3.0454813220625123
  endloop
endfacet
facet normal -0.3826834323650904 -8.78689258232659e-17 0.9238795325112867
  outer loop
    vertex 9.799999999999997 15.0 -2.885640646055103
    vertex 9.414110472164033 3.9999999999999982 -3.045481322062512
    vertex 9.799999999999997 3.9999999999999982 -2.8856406460551063
  endloop
endfacet
facet normal -0.1305261922200528 -7.891010782076403e-18 0.9914448613738103
  outer loop
    vertex 9.414110472164033 3.9999999999999982 -3.045481322062512
    vertex 9.000000000000002 15.0 -3.1000000000000028
    vertex 8.999999999999996 3.999999999999999 -3.1000000000000036
  endloop
endfacet
facet normal -0.1305261922200528 -7.891010782076403e-18 0.9914448613738103
  outer loop
    vertex 9.000000000000002 15.0 -3.1000000000000028
    vertex 9.414110472164033 3.9999999999999982 -3.045481322062512
    vertex 9.41411047216403 15.0 -3.0454813220625123
  endloop
endfacet
facet normal 0.13052619222004777 -6.756374642009007e-17 -0.9914448613738109
  outer loop
    vertex 8.585889527835967 15.0 0.045481322062508024
    vertex 8.999999999999998 3.999999999999999 0.09999999999999841
    vertex 8.585889527835965 3.999999999999999 0.04548132206250873
  endloop
endfacet
facet normal 0.13052619222004777 -6.756374642009007e-17 -0.9914448613738109
  outer loop
    vertex 8.999999999999998 3.999999999999999 0.09999999999999841
    vertex 8.585889527835967 15.0 0.045481322062508024
    vertex 9.000000000000002 15.0 0.099999999999997
  endloop
endfacet
facet normal 0.3826834323650908 8.784059098517139e-17 0.9238795325112863
  outer loop
    vertex 8.585889527835965 3.999999999999999 -3.0454813220625114
    vertex 8.200000000000001 15.0 -2.885640646055107
    vertex 8.199999999999998 3.999999999999999 -2.8856406460551027
  endloop
endfacet
facet normal 0.3826834323650908 8.784059098517139e-17 0.9238795325112863
  outer loop
    vertex 8.200000000000001 15.0 -2.885640646055107
    vertex 8.585889527835965 3.999999999999999 -3.0454813220625114
    vertex 8.585889527835965 15.000000000000007 -3.045481322062513
  endloop
endfacet
facet normal 0.60876142900872 -1.5439263127943238e-17 0.7933533402912357
  outer loop
    vertex 8.199999999999998 3.999999999999999 -2.8856406460551027
    vertex 7.8686291501015235 15.0 -2.6313708498984782
    vertex 7.868629150101522 3.999999999999999 -2.6313708498984796
  endloop
endfacet
facet normal 0.60876142900872 -1.5439263127943238e-17 0.7933533402912357
  outer loop
    vertex 7.8686291501015235 15.0 -2.6313708498984782
    vertex 8.199999999999998 3.999999999999999 -2.8856406460551027
    vertex 8.200000000000001 15.0 -2.885640646055107
  endloop
endfacet
facet normal 0.6087614290087178 -2.4833361721281362e-17 -0.7933533402912374
  outer loop
    vertex 8.200000000000001 15.0 -0.11435935394490276
    vertex 7.868629150101522 3.999999999999999 -0.3686291501015288
    vertex 7.868629150101522 15.0 -0.36862915010152814
  endloop
endfacet
facet normal 0.6087614290087178 -2.4833361721281362e-17 -0.7933533402912374
  outer loop
    vertex 7.868629150101522 3.999999999999999 -0.3686291501015288
    vertex 8.200000000000001 15.0 -0.11435935394490276
    vertex 8.2 3.999999999999999 -0.11435935394490276
  endloop
endfacet
facet normal 0.3826834323650988 -6.671252452607174e-17 -0.9238795325112831
  outer loop
    vertex 8.200000000000001 15.0 -0.11435935394490276
    vertex 8.585889527835965 3.999999999999999 0.04548132206250873
    vertex 8.2 3.999999999999999 -0.11435935394490276
  endloop
endfacet
facet normal 0.3826834323650988 -6.671252452607174e-17 -0.9238795325112831
  outer loop
    vertex 8.585889527835965 3.999999999999999 0.04548132206250873
    vertex 8.200000000000001 15.0 -0.11435935394490276
    vertex 8.585889527835967 15.0 0.045481322062508024
  endloop
endfacet
facet normal 0.13052619222005213 -5.263649684902279e-18 0.9914448613738105
  outer loop
    vertex 8.999999999999996 3.999999999999999 -3.1000000000000036
    vertex 8.585889527835965 15.000000000000007 -3.045481322062513
    vertex 8.585889527835965 3.999999999999999 -3.0454813220625114
  endloop
endfacet
facet normal 0.13052619222005213 -5.263649684902279e-18 0.9914448613738105
  outer loop
    vertex 8.585889527835965 15.000000000000007 -3.045481322062513
    vertex 8.999999999999996 3.999999999999999 -3.1000000000000036
    vertex 9.000000000000002 15.0 -3.1000000000000028
  endloop
endfacet
facet normal -0.7933533402912284 -4.781034255444995e-17 0.6087614290087295
  outer loop
    vertex 10.385640646055094 3.9999999999999996 -2.300000000000012
    vertex 10.131370849898474 15.0 -2.631370849898471
    vertex 10.13137084989847 3.9999999999999982 -2.6313708498984774
  endloop
endfacet
facet normal -0.7933533402912284 -4.781034255444995e-17 0.6087614290087295
  outer loop
    vertex 10.131370849898474 15.0 -2.631370849898471
    vertex 10.385640646055094 3.9999999999999996 -2.300000000000012
    vertex 10.385640646055094 15.0 -2.3000000000000087
  endloop
endfacet
facet normal 0.7933533402912405 -1.8701762288477367e-16 0.608761429008714
  outer loop
    vertex 7.8686291501015235 15.0 -2.6313708498984782
    vertex 7.614359353944901 3.999999999999999 -2.3000000000000083
    vertex 7.868629150101522 3.999999999999999 -2.6313708498984796
  endloop
endfacet
facet normal 0.7933533402912405 -1.8701762288477367e-16 0.608761429008714
  outer loop
    vertex 7.614359353944901 3.999999999999999 -2.3000000000000083
    vertex 7.8686291501015235 15.0 -2.6313708498984782
    vertex 7.614359353944905 15.0 -2.3000000000000016
  endloop
endfacet
facet normal 0.9238795325112843 -1.0413615449034002e-16 0.38268343236509605
  outer loop
    vertex 7.614359353944905 15.0 -2.3000000000000016
    vertex 7.454518677937493 3.999999999999999 -1.9141104721640383
    vertex 7.614359353944901 3.999999999999999 -2.3000000000000083
  endloop
endfacet
facet normal 0.9238795325112843 -1.0413615449034002e-16 0.38268343236509605
  outer loop
    vertex 7.454518677937493 3.999999999999999 -1.9141104721640383
    vertex 7.614359353944905 15.0 -2.3000000000000016
    vertex 7.454518677937493 15.0 -1.91411047216404
  endloop
endfacet
facet normal 0.7933533402912336 9.11777296997416e-17 -0.6087614290087227
  outer loop
    vertex 7.614359353944895 15.0 -0.7000000000000023
    vertex 7.868629150101522 3.999999999999999 -0.3686291501015288
    vertex 7.614359353944896 3.999999999999999 -0.7000000000000057
  endloop
endfacet
facet normal 0.7933533402912336 9.11777296997416e-17 -0.6087614290087227
  outer loop
    vertex 7.868629150101522 3.999999999999999 -0.3686291501015288
    vertex 7.614359353944895 15.0 -0.7000000000000023
    vertex 7.868629150101522 15.0 -0.36862915010152814
  endloop
endfacet
facet normal 0.99144486137381 -1.5900032268267025e-17 -0.13052619222005454
  outer loop
    vertex 7.4 15.0 -1.5000000000000058
    vertex 7.454518677937493 3.9999999999999982 -1.0858895278359662
    vertex 7.4 3.9999999999999982 -1.5000000000000007
  endloop
endfacet
facet normal 0.99144486137381 -1.5900032268267025e-17 -0.13052619222005454
  outer loop
    vertex 7.454518677937493 3.9999999999999982 -1.0858895278359662
    vertex 7.4 15.0 -1.5000000000000058
    vertex 7.454518677937493 15.0 -1.0858895278359668
  endloop
endfacet
facet normal 0.9238795325112895 6.039420165779588e-17 -0.38268343236508323
  outer loop
    vertex 7.454518677937493 15.0 -1.0858895278359668
    vertex 7.614359353944896 3.999999999999999 -0.7000000000000057
    vertex 7.454518677937493 3.9999999999999982 -1.0858895278359662
  endloop
endfacet
facet normal 0.9238795325112895 6.039420165779588e-17 -0.38268343236508323
  outer loop
    vertex 7.614359353944896 3.999999999999999 -0.7000000000000057
    vertex 7.454518677937493 15.0 -1.0858895278359668
    vertex 7.614359353944895 15.0 -0.7000000000000023
  endloop
endfacet
facet normal 0.99144486137381 2.0289103675653277e-17 0.13052619222005482
  outer loop
    vertex 7.454518677937493 3.999999999999999 -1.9141104721640383
    vertex 7.4 15.0 -1.5000000000000058
    vertex 7.4 3.9999999999999982 -1.5000000000000007
  endloop
endfacet
facet normal 0.99144486137381 2.0289103675653277e-17 0.13052619222005482
  outer loop
    vertex 7.4 15.0 -1.5000000000000058
    vertex 7.454518677937493 3.999999999999999 -1.9141104721640383
    vertex 7.454518677937493 15.0 -1.91411047216404
  endloop
endfacet
facet normal -0.6087614290087278 4.74813746899432e-17 -0.7933533402912298
  outer loop
    vertex 9.800000000000002 15.0 -0.11435935394490206
    vertex 10.13137084989848 3.9999999999999982 -0.36862915010153446
    vertex 9.8 3.9999999999999982 -0.11435935394489993
  endloop
endfacet
facet normal -0.6087614290087278 4.74813746899432e-17 -0.7933533402912298
  outer loop
    vertex 10.13137084989848 3.9999999999999982 -0.36862915010153446
    vertex 9.800000000000002 15.0 -0.11435935394490206
    vertex 10.131370849898476 15.0 -0.3686291501015288
  endloop
endfacet
facet normal -0.7933533402912368 2.1960319740892132e-17 -0.6087614290087184
  outer loop
    vertex 10.131370849898476 15.0 -0.3686291501015288
    vertex 10.385640646055105 3.9999999999999982 -0.7000000000000114
    vertex 10.13137084989848 3.9999999999999982 -0.36862915010153446
  endloop
endfacet
facet normal -0.7933533402912368 2.1960319740892132e-17 -0.6087614290087184
  outer loop
    vertex 10.385640646055105 3.9999999999999982 -0.7000000000000114
    vertex 10.131370849898476 15.0 -0.3686291501015288
    vertex 10.385640646055105 15.0 -0.7000000000000121
  endloop
endfacet
facet normal -0.9238795325112873 -6.31265590065543e-18 -0.3826834323650886
  outer loop
    vertex 10.385640646055105 15.0 -0.7000000000000121
    vertex 10.54548132206251 3.999999999999999 -1.085889527835976
    vertex 10.385640646055105 3.9999999999999982 -0.7000000000000114
  endloop
endfacet
facet normal -0.9238795325112873 -6.31265590065543e-18 -0.3826834323650886
  outer loop
    vertex 10.54548132206251 3.999999999999999 -1.085889527835976
    vertex 10.385640646055105 15.0 -0.7000000000000121
    vertex 10.54548132206251 15.0 -1.085889527835976
  endloop
endfacet
facet normal -0.9914448613738109 -4.8497210034448664e-17 -0.13052619222004888
  outer loop
    vertex 10.54548132206251 3.999999999999999 -1.085889527835976
    vertex 10.6 15.0 -1.500000000000007
    vertex 10.6 3.9999999999999982 -1.5000000000000022
  endloop
endfacet
facet normal -0.9914448613738109 -4.8497210034448664e-17 -0.13052619222004888
  outer loop
    vertex 10.6 15.0 -1.500000000000007
    vertex 10.54548132206251 3.999999999999999 -1.085889527835976
    vertex 10.54548132206251 15.0 -1.085889527835976
  endloop
endfacet
facet normal 3.269823586634117e-34 -7.420964427757626e-17 1.0
  outer loop
    vertex 17.999999999999996 6.000000000000005 2.9999999999999987
    vertex 13.999999999999996 15.0 3.0
    vertex 13.999999999999996 6.000000000000005 2.9999999999999987
  endloop
endfacet
facet normal 3.269823586634117e-34 -7.420964427757626e-17 1.0
  outer loop
    vertex 13.999999999999996 15.0 3.0
    vertex 17.999999999999996 6.000000000000005 2.9999999999999987
    vertex 18.0 15.0 3.0
  endloop
endfacet
facet normal 0.0 0.0 -1.0
  outer loop
    vertex 1.0574874309554614e-15 15.0 17.999999999999996
    vertex 3.9999999999999996 6.000000000000005 17.999999999999996
    vertex 0.0 6.000000000000005 17.999999999999996
  endloop
endfacet
facet normal 0.0 0.0 -1.0
  outer loop
    vertex 3.9999999999999996 6.000000000000005 17.999999999999996
    vertex 1.0574874309554614e-15 15.0 17.999999999999996
    vertex 3.9999999999999996 15.0 17.999999999999996
  endloop
endfacet
facet normal 0.0 0.0 -1.0
  outer loop
    vertex 18.000000000000004 15.0 17.999999999999996
    vertex 13.999999999999996 6.000000000000005 17.999999999999996
    vertex 13.999999999999996 15.0 17.999999999999996
  endloop
endfacet
facet normal 0.0 0.0 -1.0
  outer loop
    vertex 13.999999999999996 6.000000000000005 17.999999999999996
    vertex 18.000000000000004 15.0 17.999999999999996
    vertex 17.999999999999996 6.000000000000005 17.999999999999996
  endloop
endfacet
facet normal 0.0 0.0 -1.0
  outer loop
    vertex 11.999999999999998 15.0 17.999999999999996
    vertex 5.999999999999999 6.000000000000005 17.999999999999996
    vertex 5.999999999999999 15.0 17.999999999999996
  endloop
endfacet
facet normal 0.0 0.0 -1.0
  outer loop
    vertex 5.999999999999999 6.000000000000005 17.999999999999996
    vertex 11.999999999999998 15.0 17.999999999999996
    vertex 11.999999999999998 6.000000000000005 17.999999999999996
  endloop
endfacet
facet normal 8.174558966585482e-35 -7.420964427757626e-17 1.0
  outer loop
    vertex 3.999999999999957 6.000000000000005 2.9999999999999987
    vertex 7.049916206369744e-16 15.0 3.0
    vertex 0.0 6.000000000000005 2.9999999999999987
  endloop
endfacet
facet normal 8.174558966585482e-35 -7.420964427757626e-17 1.0
  outer loop
    vertex 7.049916206369744e-16 15.0 3.0
    vertex 3.999999999999957 6.000000000000005 2.9999999999999987
    vertex 3.999999999999957 15.0 3.0
  endloop
endfacet
facet normal 0.0 -7.420964427757625e-17 1.0
  outer loop
    vertex 11.999999999999998 6.000000000000005 2.9999999999999987
    vertex 5.999999999999958 15.0 3.0
    vertex 5.999999999999958 6.000000000000005 2.9999999999999987
  endloop
endfacet
facet normal 0.0 -7.420964427757625e-17 1.0
  outer loop
    vertex 5.999999999999958 15.0 3.0
    vertex 11.999999999999998 6.000000000000005 2.9999999999999987
    vertex 11.999999999999998 15.0 3.0
  endloop
endfacet
facet normal 0.0 1.0 0.0
  outer loop
    vertex 6.0 15.0 20.0
    vertex 8.58588952783597 15.0 20.954518677937493
    vertex 12.0 15.0 20.0
  endloop
endfacet
facet normal 0.0 1.0 0.0
  outer loop
    vertex 8.58588952783597 15.0 20.954518677937493
    vertex 6.0 15.0 20.0
    vertex 8.200000000000003 15.0 21.1143593539449
  endloop
endfacet
facet normal 0.0 1.0 0.0
  outer loop
    vertex 8.200000000000003 15.0 21.1143593539449
    vertex 6.0 15.0 20.0
    vertex 7.868629150101533 15.0 21.368629150101526
  endloop
endfacet
facet normal 0.0 1.0 0.0
  outer loop
    vertex 7.868629150101533 15.0 21.368629150101526
    vertex 6.0 15.0 20.0
    vertex 7.614359353944899 15.0 21.70000000000001
  endloop
endfacet
facet normal 0.0 1.0 0.0
  outer loop
    vertex 7.614359353944899 15.0 21.70000000000001
    vertex 6.0 15.0 20.0
    vertex 7.454518677937489 15.0 22.085889527835974
  endloop
endfacet
facet normal 0.0 1.0 0.0
  outer loop
    vertex 7.454518677937489 15.0 22.085889527835974
    vertex 6.0 15.0 20.0
    vertex 6.0 15.0 25.599999999999998
  endloop
endfacet
facet normal 0.0 1.0 0.0
  outer loop
    vertex 12.0 15.0 20.0
    vertex 8.58588952783597 15.0 20.954518677937493
    vertex 9.000000000000007 15.0 20.9
  endloop
endfacet
facet normal 0.0 1.0 0.0
  outer loop
    vertex 7.454518677937489 15.0 22.085889527835974
    vertex 6.0 15.0 25.599999999999998
    vertex 7.4 15.0 22.50000000000001
  endloop
endfacet
facet normal 0.0 1.0 0.0
  outer loop
    vertex 7.4 15.0 22.50000000000001
    vertex 6.0 15.0 25.599999999999998
    vertex 7.454518677937491 15.0 22.91411047216404
  endloop
endfacet
facet normal 0.0 1.0 0.0
  outer loop
    vertex 7.454518677937491 15.0 22.91411047216404
    vertex 6.0 15.0 25.599999999999998
    vertex 7.614359353944905 15.0 23.30000000000001
  endloop
endfacet
facet normal 0.0 1.0 0.0
  outer loop
    vertex 7.614359353944905 15.0 23.30000000000001
    vertex 6.0 15.0 25.599999999999998
    vertex 7.868629150101528 15.0 23.631370849898477
  endloop
endfacet
facet normal 0.0 1.0 0.0
  outer loop
    vertex 7.868629150101528 15.0 23.631370849898477
    vertex 6.0 15.0 25.599999999999998
    vertex 8.200000000000003 15.0 23.885640646055116
  endloop
endfacet
facet normal 0.0 1.0 0.0
  outer loop
    vertex 8.200000000000003 15.0 23.885640646055116
    vertex 6.0 15.0 25.599999999999998
    vertex 8.585889527835974 15.0 24.045481322062507
  endloop
endfacet
facet normal 0.0 1.0 0.0
  outer loop
    vertex 8.585889527835974 15.0 24.045481322062507
    vertex 6.0 15.0 25.599999999999998
    vertex 9.0 15.0 24.099999999999998
  endloop
endfacet
facet normal 0.0 1.0 0.0
  outer loop
    vertex 12.0 15.0 20.0
    vertex 10.545481322062507 15.0 22.085889527835963
    vertex 12.0 15.0 25.599999999999998
  endloop
endfacet
facet normal 0.0 1.0 0.0
  outer loop
    vertex 10.545481322062507 15.0 22.085889527835963
    vertex 12.0 15.0 20.0
    vertex 10.385640646055109 15.0 21.70000000000001
  endloop
endfacet
facet normal 0.0 1.0 0.0
  outer loop
    vertex 10.385640646055109 15.0 21.70000000000001
    vertex 12.0 15.0 20.0
    vertex 10.131370849898481 15.000000000000007 21.368629150101526
  endloop
endfacet
facet normal 0.0 1.0 0.0
  outer loop
    vertex 10.131370849898481 15.000000000000007 21.368629150101526
    vertex 12.0 15.0 20.0
    vertex 9.800000000000002 15.000000000000007 21.1143593539449
  endloop
endfacet
facet normal 0.0 1.0 0.0
  outer loop
    vertex 9.800000000000002 15.000000000000007 21.1143593539449
    vertex 12.0 15.0 20.0
    vertex 9.414110472164039 15.0 20.954518677937493
  endloop
endfacet
facet normal 0.0 1.0 0.0
  outer loop
    vertex 9.414110472164039 15.0 20.954518677937493
    vertex 12.0 15.0 20.0
    vertex 9.000000000000007 15.0 20.9
  endloop
endfacet
facet normal 0.0 1.0 0.0
  outer loop
    vertex 12.0 15.0 25.599999999999998
    vertex 10.545481322062507 15.0 22.085889527835963
    vertex 10.6 15.0 22.50000000000001
  endloop
endfacet
facet normal 0.0 1.0 0.0
  outer loop
    vertex 12.0 15.0 25.599999999999998
    vertex 10.6 15.0 22.50000000000001
    vertex 10.545481322062509 15.0 22.91411047216404
  endloop
endfacet
facet normal 0.0 1.0 0.0
  outer loop
    vertex 12.0 15.0 25.599999999999998
    vertex 10.545481322062509 15.0 22.91411047216404
    vertex 10.385640646055101 15.0 23.3
  endloop
endfacet
facet normal 0.0 1.0 0.0
  outer loop
    vertex 12.0 15.0 25.599999999999998
    vertex 10.385640646055101 15.0 23.3
    vertex 10.131370849898477 15.0 23.631370849898477
  endloop
endfacet
facet normal 0.0 1.0 0.0
  outer loop
    vertex 12.0 15.0 25.599999999999998
    vertex 10.131370849898477 15.0 23.631370849898477
    vertex 9.800000000000006 15.0 23.88564064605509
  endloop
endfacet
facet normal 0.0 1.0 0.0
  outer loop
    vertex 12.0 15.0 25.599999999999998
    vertex 9.800000000000006 15.0 23.88564064605509
    vertex 9.414110472164033 15.0 24.045481322062507
  endloop
endfacet
facet normal 0.0 1.0 0.0
  outer loop
    vertex 12.0 15.0 25.599999999999998
    vertex 9.414110472164033 15.0 24.045481322062507
    vertex 9.0 15.0 24.099999999999998
  endloop
endfacet
facet normal 0.0 1.0 0.0
  outer loop
    vertex 12.0 15.0 25.599999999999998
    vertex 9.0 15.0 24.099999999999998
    vertex 6.0 15.0 25.599999999999998
  endloop
endfacet
facet normal 0.0 1.0 0.0
  outer loop
    vertex -1.9999999999999996 15.0 1.0000000000000009
    vertex 7.049916206369744e-16 15.0 3.0
    vertex 6.0 15.0 1.0000000000000009
  endloop
endfacet
facet normal 0.0 1.0 0.0
  outer loop
    vertex 7.049916206369744e-16 15.0 3.0
    vertex -1.9999999999999996 15.0 1.0000000000000009
    vertex -2.0000000000000004 15.0 20.0
  endloop
endfacet
facet normal 0.0 1.0 0.0
  outer loop
    vertex 6.0 15.0 1.0000000000000009
    vertex 7.049916206369744e-16 15.0 3.0
    vertex 20.0 15.0 1.0000000000000009
  endloop
endfacet
facet normal 0.0 1.0 0.0
  outer loop
    vertex 7.049916206369744e-16 15.0 3.0
    vertex -2.0000000000000004 15.0 20.0
    vertex 1.0574874309554614e-15 15.0 17.999999999999996
  endloop
endfacet
facet normal 0.0 1.0 0.0
  outer loop
    vertex 1.0574874309554614e-15 15.0 17.999999999999996
    vertex -2.0000000000000004 15.0 20.0
    vertex 3.9999999999999996 15.0 17.999999999999996
  endloop
endfacet
facet normal 0.0 1.0 0.0
  outer loop
    vertex 3.9999999999999996 15.0 17.999999999999996
    vertex -2.0000000000000004 15.0 20.0
    vertex 5.999999999999999 15.0 17.999999999999996
  endloop
endfacet
facet normal 0.0 1.0 0.0
  outer loop
    vertex 5.999999999999999 15.0 17.999999999999996
    vertex -2.0000000000000004 15.0 20.0
    vertex 11.999999999999998 15.0 17.999999999999996
  endloop
endfacet
facet normal 0.0 1.0 0.0
  outer loop
    vertex 11.999999999999998 15.0 17.999999999999996
    vertex -2.0000000000000004 15.0 20.0
    vertex 13.999999999999996 15.0 17.999999999999996
  endloop
endfacet
facet normal 0.0 1.0 0.0
  outer loop
    vertex 13.999999999999996 15.0 17.999999999999996
    vertex -2.0000000000000004 15.0 20.0
    vertex 18.000000000000004 15.0 17.999999999999996
  endloop
endfacet
facet normal 0.0 1.0 0.0
  outer loop
    vertex 20.0 15.0 1.0000000000000009
    vertex 18.0 15.0 3.0
    vertex 20.0 15.0 20.0
  endloop
endfacet
facet normal 0.0 1.0 0.0
  outer loop
    vertex 18.0 15.0 3.0
    vertex 20.0 15.0 1.0000000000000009
    vertex 7.049916206369744e-16 15.0 3.0
  endloop
endfacet
facet normal 0.0 1.0 0.0
  outer loop
    vertex 18.0 15.0 3.0
    vertex 7.049916206369744e-16 15.0 3.0
    vertex 3.999999999999957 15.0 3.0
  endloop
endfacet
facet normal 0.0 1.0 0.0
  outer loop
    vertex 18.0 15.0 3.0
    vertex 3.999999999999957 15.0 3.0
    vertex 5.999999999999958 15.0 3.0
  endloop
endfacet
facet normal 0.0 1.0 0.0
  outer loop
    vertex 18.0 15.0 3.0
    vertex 5.999999999999958 15.0 3.0
    vertex 11.999999999999998 15.0 3.0
  endloop
endfacet
facet normal 0.0 1.0 0.0
  outer loop
    vertex 18.0 15.0 3.0
    vertex 11.999999999999998 15.0 3.0
    vertex 13.999999999999996 15.0 3.0
  endloop
endfacet
facet normal 0.0 1.0 0.0
  outer loop
    vertex 20.0 15.0 20.0
    vertex 18.0 15.0 3.0
    vertex 18.000000000000004 15.0 17.999999999999996
  endloop
endfacet
facet normal 0.0 1.0 0.0
  outer loop
    vertex 20.0 15.0 20.0
    vertex 18.000000000000004 15.0 17.999999999999996
    vertex -2.0000000000000004 15.0 20.0
  endloop
endfacet
facet normal 0.0 1.0 0.0
  outer loop
    vertex 20.0 15.0 20.0
    vertex -2.0000000000000004 15.0 20.0
    vertex 6.0 15.0 20.0
  endloop
endfacet
facet normal 0.0 1.0 0.0
  outer loop
    vertex 20.0 15.0 20.0
    vertex 6.0 15.0 20.0
    vertex 12.0 15.0 20.0
  endloop
endfacet
facet normal 0.0 1.0 0.0
  outer loop
    vertex 11.999999999999998 15.0 17.999999999999996
    vertex 13.999999999999996 15.0 16.999999999999996
    vertex 11.999999999999998 15.0 16.999999999999996
  endloop
endfacet
facet normal 0.0 1.0 0.0
  outer loop
    vertex 13.999999999999996 15.0 16.999999999999996
    vertex 11.999999999999998 15.0 17.999999999999996
    vertex 13.999999999999996 15.0 17.999999999999996
  endloop
endfacet
facet normal 0.0 1.0 0.0
  outer loop
    vertex 3.9999999999999996 15.0 17.999999999999996
    vertex 5.999999999999999 15.0 16.999999999999996
    vertex 3.9999999999999996 15.0 16.999999999999996
  endloop
endfacet
facet normal 0.0 1.0 0.0
  outer loop
    vertex 5.999999999999999 15.0 16.999999999999996
    vertex 3.9999999999999996 15.0 17.999999999999996
    vertex 5.999999999999999 15.0 17.999999999999996
  endloop
endfacet
facet normal 0.0 1.0 0.0
  outer loop
    vertex 3.999999999999957 15.0 4.000000000000001
    vertex 5.999999999999958 15.0 3.0
    vertex 3.999999999999957 15.0 3.0
  endloop
endfacet
facet normal 0.0 1.0 0.0
  outer loop
    vertex 5.999999999999958 15.0 3.0
    vertex 3.999999999999957 15.0 4.000000000000001
    vertex 5.9999999999999565 15.0 4.000000000000001
  endloop
endfacet
facet normal 0.0 1.0 0.0
  outer loop
    vertex 11.999999999999998 15.0 4.000000000000001
    vertex 13.999999999999996 15.0 3.0
    vertex 11.999999999999998 15.0 3.0
  endloop
endfacet
facet normal 0.0 1.0 0.0
  outer loop
    vertex 13.999999999999996 15.0 3.0
    vertex 11.999999999999998 15.0 4.000000000000001
    vertex 13.999999999999996 15.0 3.9999999999999982
  endloop
endfacet
facet normal 0.0 1.0 0.0
  outer loop
    vertex 5.999999999999997 15.0 -4.599999999999997
    vertex 8.585889527835965 15.000000000000007 -3.045481322062513
    vertex 9.000000000000002 15.0 -3.1000000000000028
  endloop
endfacet
facet normal 0.0 1.0 0.0
  outer loop
    vertex 8.585889527835965 15.000000000000007 -3.045481322062513
    vertex 5.999999999999997 15.0 -4.599999999999997
    vertex 8.200000000000001 15.0 -2.885640646055107
  endloop
endfacet
facet normal 0.0 1.0 0.0
  outer loop
    vertex 8.200000000000001 15.0 -2.885640646055107
    vertex 5.999999999999997 15.0 -4.599999999999997
    vertex 7.8686291501015235 15.0 -2.6313708498984782
  endloop
endfacet
facet normal 0.0 1.0 0.0
  outer loop
    vertex 7.8686291501015235 15.0 -2.6313708498984782
    vertex 5.999999999999997 15.0 -4.599999999999997
    vertex 7.614359353944905 15.0 -2.3000000000000016
  endloop
endfacet
facet normal 0.0 1.0 0.0
  outer loop
    vertex 7.614359353944905 15.0 -2.3000000000000016
    vertex 5.999999999999997 15.0 -4.599999999999997
    vertex 6.0 15.0 1.0000000000000009
  endloop
endfacet
facet normal 0.0 1.0 0.0
  outer loop
    vertex 7.614359353944905 15.0 -2.3000000000000016
    vertex 6.0 15.0 1.0000000000000009
    vertex 7.454518677937493 15.0 -1.91411047216404
  endloop
endfacet
facet normal 0.0 1.0 0.0
  outer loop
    vertex 7.454518677937493 15.0 -1.91411047216404
    vertex 6.0 15.0 1.0000000000000009
    vertex 7.4 15.0 -1.5000000000000058
  endloop
endfacet
facet normal 0.0 1.0 0.0
  outer loop
    vertex 7.4 15.0 -1.5000000000000058
    vertex 6.0 15.0 1.0000000000000009
    vertex 7.454518677937493 15.0 -1.0858895278359668
  endloop
endfacet
facet normal 0.0 1.0 0.0
  outer loop
    vertex 7.454518677937493 15.0 -1.0858895278359668
    vertex 6.0 15.0 1.0000000000000009
    vertex 7.614359353944895 15.0 -0.7000000000000023
  endloop
endfacet
facet normal 0.0 1.0 0.0
  outer loop
    vertex 7.614359353944895 15.0 -0.7000000000000023
    vertex 6.0 15.0 1.0000000000000009
    vertex 7.868629150101522 15.0 -0.36862915010152814
  endloop
endfacet
facet normal 0.0 1.0 0.0
  outer loop
    vertex 7.868629150101522 15.0 -0.36862915010152814
    vertex 6.0 15.0 1.0000000000000009
    vertex 8.200000000000001 15.0 -0.11435935394490276
  endloop
endfacet
facet normal 0.0 1.0 0.0
  outer loop
    vertex 8.200000000000001 15.0 -0.11435935394490276
    vertex 6.0 15.0 1.0000000000000009
    vertex 8.585889527835967 15.0 0.045481322062508024
  endloop
endfacet
facet normal 0.0 1.0 0.0
  outer loop
    vertex 8.585889527835967 15.0 0.045481322062508024
    vertex 6.0 15.0 1.0000000000000009
    vertex 9.000000000000002 15.0 0.099999999999997
  endloop
endfacet
facet normal 0.0 1.0 0.0
  outer loop
    vertex 9.000000000000002 15.0 0.099999999999997
    vertex 6.0 15.0 1.0000000000000009
    vertex 12.000000000000004 15.0 1.0000000000000002
  endloop
endfacet
facet normal 0.0 1.0 0.0
  outer loop
    vertex 12.000000000000004 15.0 1.0000000000000002
    vertex 6.0 15.0 1.0000000000000009
    vertex 20.0 15.0 1.0000000000000009
  endloop
endfacet
facet normal 0.0 1.0 0.0
  outer loop
    vertex 12.0 15.0 -4.6
    vertex 10.385640646055094 15.0 -2.3000000000000087
    vertex 12.000000000000004 15.0 1.0000000000000002
  endloop
endfacet
facet normal 0.0 1.0 0.0
  outer loop
    vertex 10.385640646055094 15.0 -2.3000000000000087
    vertex 12.0 15.0 -4.6
    vertex 10.131370849898474 15.0 -2.631370849898471
  endloop
endfacet
facet normal 0.0 1.0 0.0
  outer loop
    vertex 10.131370849898474 15.0 -2.631370849898471
    vertex 12.0 15.0 -4.6
    vertex 9.799999999999997 15.0 -2.885640646055103
  endloop
endfacet
facet normal 0.0 1.0 0.0
  outer loop
    vertex 9.799999999999997 15.0 -2.885640646055103
    vertex 12.0 15.0 -4.6
    vertex 5.999999999999997 15.0 -4.599999999999997
  endloop
endfacet
facet normal 0.0 1.0 0.0
  outer loop
    vertex 9.799999999999997 15.0 -2.885640646055103
    vertex 5.999999999999997 15.0 -4.599999999999997
    vertex 9.41411047216403 15.0 -3.0454813220625123
  endloop
endfacet
facet normal 0.0 1.0 0.0
  outer loop
    vertex 9.41411047216403 15.0 -3.0454813220625123
    vertex 5.999999999999997 15.0 -4.599999999999997
    vertex 9.000000000000002 15.0 -3.1000000000000028
  endloop
endfacet
facet normal 0.0 1.0 0.0
  outer loop
    vertex 12.000000000000004 15.0 1.0000000000000002
    vertex 10.385640646055094 15.0 -2.3000000000000087
    vertex 10.545481322062507 15.0 -1.9141104721640405
  endloop
endfacet
facet normal 0.0 1.0 0.0
  outer loop
    vertex 12.000000000000004 15.0 1.0000000000000002
    vertex 10.545481322062507 15.0 -1.9141104721640405
    vertex 10.6 15.0 -1.500000000000007
  endloop
endfacet
facet normal 0.0 1.0 0.0
  outer loop
    vertex 12.000000000000004 15.0 1.0000000000000002
    vertex 10.6 15.0 -1.500000000000007
    vertex 10.54548132206251 15.0 -1.085889527835976
  endloop
endfacet
facet normal 0.0 1.0 0.0
  outer loop
    vertex 12.000000000000004 15.0 1.0000000000000002
    vertex 10.54548132206251 15.0 -1.085889527835976
    vertex 10.385640646055105 15.0 -0.7000000000000121
  endloop
endfacet
facet normal 0.0 1.0 0.0
  outer loop
    vertex 12.000000000000004 15.0 1.0000000000000002
    vertex 10.385640646055105 15.0 -0.7000000000000121
    vertex 10.131370849898476 15.0 -0.3686291501015288
  endloop
endfacet
facet normal 0.0 1.0 0.0
  outer loop
    vertex 12.000000000000004 15.0 1.0000000000000002
    vertex 10.131370849898476 15.0 -0.3686291501015288
    vertex 9.800000000000002 15.0 -0.11435935394490206
  endloop
endfacet
facet normal 0.0 1.0 0.0
  outer loop
    vertex 12.000000000000004 15.0 1.0000000000000002
    vertex 9.800000000000002 15.0 -0.11435935394490206
    vertex 9.414110472164039 15.0 0.0454813220625045
  endloop
endfacet
facet normal 0.0 1.0 0.0
  outer loop
    vertex 12.000000000000004 15.0 1.0000000000000002
    vertex 9.414110472164039 15.0 0.0454813220625045
    vertex 9.000000000000002 15.0 0.099999999999997
  endloop
endfacet
endsolid Korry19x16_case_v5
