solid FCU_UNIT
facet normal 0.0 1.0 0.0
  outer loop
    vertex -118.49999999999822 133.5 6.099999999999963
    vertex -1.999999999999906 133.5 5.999999999999964
    vertex -118.49999999999822 133.5 5.999999999999964
  endloop
endfacet
facet normal 0.0 1.0 0.0
  outer loop
    vertex -1.999999999999906 133.5 5.999999999999964
    vertex -118.49999999999822 133.5 6.099999999999963
    vertex -1.999999999999906 133.5 6.099999999999963
  endloop
endfacet
facet normal 0.0 0.0 -1.0
  outer loop
    vertex -118.49999999999822 133.5 5.999999999999964
    vertex -201.99999999999991 2.255973186038318e-14 5.999999999999964
    vertex -201.99999999999991 118.50000000000001 5.999999999999964
  endloop
endfacet
facet normal 0.0 0.0 -1.0
  outer loop
    vertex -201.99999999999991 2.255973186038318e-14 5.999999999999964
    vertex -118.49999999999822 133.5 5.999999999999964
    vertex -1.999999999999906 2.255973186038318e-14 5.999999999999964
  endloop
endfacet
facet normal 0.0 0.0 -1.0
  outer loop
    vertex -1.999999999999906 2.255973186038318e-14 5.999999999999964
    vertex -118.49999999999822 133.5 5.999999999999964
    vertex -1.999999999999906 133.5 5.999999999999964
  endloop
endfacet
facet normal -1.0 0.0 0.0
  outer loop
    vertex -201.99999999999991 118.50000000000001 6.099999999999963
    vertex -201.99999999999991 2.255973186038318e-14 5.999999999999964
    vertex -201.99999999999991 2.255973186038318e-14 6.099999999999963
  endloop
endfacet
facet normal -1.0 0.0 0.0
  outer loop
    vertex -201.99999999999991 2.255973186038318e-14 5.999999999999964
    vertex -201.99999999999991 118.50000000000001 6.099999999999963
    vertex -201.99999999999991 118.50000000000001 5.999999999999964
  endloop
endfacet
facet normal -0.17681046440872283 0.9842449185419104 0.0
  outer loop
    vertex -201.99999999999991 118.50000000000001 6.099999999999963
    vertex -118.49999999999822 133.5 5.999999999999964
    vertex -201.99999999999991 118.50000000000001 5.999999999999964
  endloop
endfacet
facet normal -0.17681046440872283 0.9842449185419104 0.0
  outer loop
    vertex -118.49999999999822 133.5 5.999999999999964
    vertex -201.99999999999991 118.50000000000001 6.099999999999963
    vertex -118.49999999999822 133.5 6.099999999999963
  endloop
endfacet
facet normal 0.0 0.0 1.0
  outer loop
    vertex -1.999999999999906 2.255973186038318e-14 6.099999999999963
    vertex -201.99999999999991 118.50000000000001 6.099999999999963
    vertex -201.99999999999991 2.255973186038318e-14 6.099999999999963
  endloop
endfacet
facet normal 0.0 0.0 1.0
  outer loop
    vertex -201.99999999999991 118.50000000000001 6.099999999999963
    vertex -1.999999999999906 2.255973186038318e-14 6.099999999999963
    vertex -118.49999999999822 133.5 6.099999999999963
  endloop
endfacet
facet normal 0.0 0.0 1.0
  outer loop
    vertex -118.49999999999822 133.5 6.099999999999963
    vertex -1.999999999999906 2.255973186038318e-14 6.099999999999963
    vertex -1.999999999999906 133.5 6.099999999999963
  endloop
endfacet
facet normal 0.0 -1.0 0.0
  outer loop
    vertex -1.999999999999906 2.255973186038318e-14 6.099999999999963
    vertex -201.99999999999991 2.255973186038318e-14 5.999999999999964
    vertex -1.999999999999906 2.255973186038318e-14 5.999999999999964
  endloop
endfacet
facet normal 0.0 -1.0 0.0
  outer loop
    vertex -201.99999999999991 2.255973186038318e-14 5.999999999999964
    vertex -1.999999999999906 2.255973186038318e-14 6.099999999999963
    vertex -201.99999999999991 2.255973186038318e-14 6.099999999999963
  endloop
endfacet
facet normal 1.0 0.0 0.0
  outer loop
    vertex -1.999999999999906 133.5 5.999999999999964
    vertex -1.999999999999906 2.255973186038318e-14 6.099999999999963
    vertex -1.999999999999906 2.255973186038318e-14 5.999999999999964
  endloop
endfacet
facet normal 1.0 0.0 0.0
  outer loop
    vertex -1.999999999999906 2.255973186038318e-14 6.099999999999963
    vertex -1.999999999999906 133.5 5.999999999999964
    vertex -1.999999999999906 133.5 6.099999999999963
  endloop
endfacet
endsolid FCU_UNIT
