solid FCU_UNIT
facet normal 1.0585459769323935e-18 1.7624790515924394e-16 -1.0
  outer loop
    vertex 224.49999999999991 71.99999999999999 -4.000000000000001
    vertex 169.49999999999997 70.99999999999999 -4.000000000000001
    vertex 169.49999999999997 71.99999999999999 -4.000000000000001
  endloop
endfacet
facet normal 1.0585459769323935e-18 1.7624790515924394e-16 -1.0
  outer loop
    vertex 169.49999999999997 70.99999999999999 -4.000000000000001
    vertex 224.49999999999991 71.99999999999999 -4.000000000000001
    vertex 224.49999999999991 70.99999999999999 -4.000000000000001
  endloop
endfacet
facet normal 0.0 1.0 0.0
  outer loop
    vertex 169.49999999999997 71.99999999999999 -1.0000000000000007
    vertex 224.49999999999991 71.99999999999999 -4.000000000000001
    vertex 169.49999999999997 71.99999999999999 -4.000000000000001
  endloop
endfacet
facet normal 0.0 1.0 0.0
  outer loop
    vertex 224.49999999999991 71.99999999999999 -4.000000000000001
    vertex 169.49999999999997 71.99999999999999 -1.0000000000000007
    vertex 224.49999999999991 71.99999999999999 -1.0000000000000007
  endloop
endfacet
facet normal -2.1170919538647874e-18 3.9166201146498574e-17 1.0
  outer loop
    vertex 224.49999999999991 70.99999999999999 -7.049916206369744e-16
    vertex 169.49999999999997 79.99999999999999 -1.4099832412739487e-15
    vertex 169.49999999999997 70.99999999999999 -7.049916206369744e-16
  endloop
endfacet
facet normal -2.1170919538647874e-18 3.9166201146498574e-17 1.0
  outer loop
    vertex 169.49999999999997 79.99999999999999 -1.4099832412739487e-15
    vertex 224.49999999999991 70.99999999999999 -7.049916206369744e-16
    vertex 224.49999999999991 79.99999999999999 -7.049916206369744e-16
  endloop
endfacet
facet normal 0.0 -1.0 0.0
  outer loop
    vertex 224.49999999999991 70.99999999999999 -7.049916206369744e-16
    vertex 169.49999999999997 70.99999999999999 -4.000000000000001
    vertex 224.49999999999991 70.99999999999999 -4.000000000000001
  endloop
endfacet
facet normal 0.0 -1.0 0.0
  outer loop
    vertex 169.49999999999997 70.99999999999999 -4.000000000000001
    vertex 224.49999999999991 70.99999999999999 -7.049916206369744e-16
    vertex 169.49999999999997 70.99999999999999 -7.049916206369744e-16
  endloop
endfacet
facet normal 1.0585459769323933e-18 -5.0356544331212426e-17 -1.0
  outer loop
    vertex 224.49999999999991 78.99999999999999 -1.0000000000000009
    vertex 169.49999999999997 71.99999999999999 -1.0000000000000007
    vertex 169.49999999999997 78.99999999999999 -1.0000000000000009
  endloop
endfacet
facet normal 1.0585459769323933e-18 -5.0356544331212426e-17 -1.0
  outer loop
    vertex 169.49999999999997 71.99999999999999 -1.0000000000000007
    vertex 224.49999999999991 78.99999999999999 -1.0000000000000009
    vertex 224.49999999999991 71.99999999999999 -1.0000000000000007
  endloop
endfacet
facet normal 2.117091953864787e-18 3.5249581031848787e-16 -1.0
  outer loop
    vertex 224.49999999999991 79.99999999999999 -4.000000000000001
    vertex 169.49999999999997 78.99999999999999 -4.000000000000001
    vertex 169.49999999999997 79.99999999999999 -4.000000000000001
  endloop
endfacet
facet normal 2.117091953864787e-18 3.5249581031848787e-16 -1.0
  outer loop
    vertex 169.49999999999997 78.99999999999999 -4.000000000000001
    vertex 224.49999999999991 79.99999999999999 -4.000000000000001
    vertex 224.49999999999991 78.99999999999999 -4.000000000000001
  endloop
endfacet
facet normal 0.0 -1.0 0.0
  outer loop
    vertex 224.49999999999991 78.99999999999999 -1.0000000000000009
    vertex 169.49999999999997 78.99999999999999 -4.000000000000001
    vertex 224.49999999999991 78.99999999999999 -4.000000000000001
  endloop
endfacet
facet normal 0.0 -1.0 0.0
  outer loop
    vertex 169.49999999999997 78.99999999999999 -4.000000000000001
    vertex 224.49999999999991 78.99999999999999 -1.0000000000000009
    vertex 169.49999999999997 78.99999999999999 -1.0000000000000009
  endloop
endfacet
facet normal 1.0 0.0 0.0
  outer loop
    vertex 224.49999999999991 79.99999999999999 -4.000000000000001
    vertex 224.49999999999991 78.99999999999999 -1.0000000000000009
    vertex 224.49999999999991 78.99999999999999 -4.000000000000001
  endloop
endfacet
facet normal 1.0 0.0 0.0
  outer loop
    vertex 224.49999999999991 71.99999999999999 -4.000000000000001
    vertex 224.49999999999991 70.99999999999999 -7.049916206369744e-16
    vertex 224.49999999999991 70.99999999999999 -4.000000000000001
  endloop
endfacet
facet normal 1.0 0.0 0.0
  outer loop
    vertex 224.49999999999991 70.99999999999999 -7.049916206369744e-16
    vertex 224.49999999999991 71.99999999999999 -4.000000000000001
    vertex 224.49999999999991 71.99999999999999 -1.0000000000000007
  endloop
endfacet
facet normal 1.0 0.0 0.0
  outer loop
    vertex 224.49999999999991 70.99999999999999 -7.049916206369744e-16
    vertex 224.49999999999991 71.99999999999999 -1.0000000000000007
    vertex 224.49999999999991 79.99999999999999 -7.049916206369744e-16
  endloop
endfacet
facet normal 1.0 0.0 0.0
  outer loop
    vertex 224.49999999999991 79.99999999999999 -7.049916206369744e-16
    vertex 224.49999999999991 71.99999999999999 -1.0000000000000007
    vertex 224.49999999999991 78.99999999999999 -1.0000000000000009
  endloop
endfacet
facet normal 1.0 0.0 0.0
  outer loop
    vertex 224.49999999999991 79.99999999999999 -7.049916206369744e-16
    vertex 224.49999999999991 78.99999999999999 -1.0000000000000009
    vertex 224.49999999999991 79.99999999999999 -4.000000000000001
  endloop
endfacet
facet normal -1.0 0.0 0.0
  outer loop
    vertex 169.49999999999997 70.99999999999999 -7.049916206369744e-16
    vertex 169.49999999999997 71.99999999999999 -1.0000000000000007
    vertex 169.49999999999997 70.99999999999999 -4.000000000000001
  endloop
endfacet
facet normal -1.0 0.0 0.0
  outer loop
    vertex 169.49999999999997 71.99999999999999 -1.0000000000000007
    vertex 169.49999999999997 70.99999999999999 -7.049916206369744e-16
    vertex 169.49999999999997 79.99999999999999 -1.4099832412739487e-15
  endloop
endfacet
facet normal -1.0 0.0 0.0
  outer loop
    vertex 169.49999999999997 71.99999999999999 -1.0000000000000007
    vertex 169.49999999999997 79.99999999999999 -1.4099832412739487e-15
    vertex 169.49999999999997 78.99999999999999 -1.0000000000000009
  endloop
endfacet
facet normal -1.0 0.0 0.0
  outer loop
    vertex 169.49999999999997 78.99999999999999 -1.0000000000000009
    vertex 169.49999999999997 79.99999999999999 -1.4099832412739487e-15
    vertex 169.49999999999997 78.99999999999999 -4.000000000000001
  endloop
endfacet
facet normal -1.0 0.0 0.0
  outer loop
    vertex 169.49999999999997 78.99999999999999 -4.000000000000001
    vertex 169.49999999999997 79.99999999999999 -1.4099832412739487e-15
    vertex 169.49999999999997 79.99999999999999 -4.000000000000001
  endloop
endfacet
facet normal -1.0 0.0 0.0
  outer loop
    vertex 169.49999999999997 71.99999999999999 -4.000000000000001
    vertex 169.49999999999997 70.99999999999999 -4.000000000000001
    vertex 169.49999999999997 71.99999999999999 -1.0000000000000007
  endloop
endfacet
facet normal 0.0 1.0 0.0
  outer loop
    vertex 169.49999999999997 79.99999999999999 -1.4099832412739487e-15
    vertex 224.49999999999991 79.99999999999999 -4.000000000000001
    vertex 169.49999999999997 79.99999999999999 -4.000000000000001
  endloop
endfacet
facet normal 0.0 1.0 0.0
  outer loop
    vertex 224.49999999999991 79.99999999999999 -4.000000000000001
    vertex 169.49999999999997 79.99999999999999 -1.4099832412739487e-15
    vertex 224.49999999999991 79.99999999999999 -7.049916206369744e-16
  endloop
endfacet
facet normal 1.0585459769323935e-18 1.7624790515924394e-16 -1.0
  outer loop
    vertex 294.49999999999994 35.99999999999999 -4.0000000000000115
    vertex 169.49999999999997 34.99999999999999 -4.0000000000000115
    vertex 169.49999999999997 35.99999999999999 -4.0000000000000115
  endloop
endfacet
facet normal 1.0585459769323935e-18 1.7624790515924394e-16 -1.0
  outer loop
    vertex 169.49999999999997 34.99999999999999 -4.0000000000000115
    vertex 294.49999999999994 35.99999999999999 -4.0000000000000115
    vertex 294.49999999999994 34.99999999999999 -4.0000000000000115
  endloop
endfacet
facet normal 0.0 1.0 0.0
  outer loop
    vertex 169.49999999999997 35.99999999999999 -1.000000000000011
    vertex 294.49999999999994 35.99999999999999 -4.0000000000000115
    vertex 169.49999999999997 35.99999999999999 -4.0000000000000115
  endloop
endfacet
facet normal 0.0 1.0 0.0
  outer loop
    vertex 294.49999999999994 35.99999999999999 -4.0000000000000115
    vertex 169.49999999999997 35.99999999999999 -1.000000000000011
    vertex 294.49999999999994 35.99999999999999 -1.000000000000011
  endloop
endfacet
facet normal -2.1170919538647874e-18 3.9166201146498574e-17 1.0
  outer loop
    vertex 294.49999999999994 34.99999999999999 -1.127986593019159e-14
    vertex 169.49999999999997 43.99999999999999 -1.1984857550828564e-14
    vertex 169.49999999999997 34.99999999999999 -1.127986593019159e-14
  endloop
endfacet
facet normal -2.1170919538647874e-18 3.9166201146498574e-17 1.0
  outer loop
    vertex 169.49999999999997 43.99999999999999 -1.1984857550828564e-14
    vertex 294.49999999999994 34.99999999999999 -1.127986593019159e-14
    vertex 294.49999999999994 43.99999999999999 -1.127986593019159e-14
  endloop
endfacet
facet normal 0.0 -1.0 0.0
  outer loop
    vertex 294.49999999999994 34.99999999999999 -1.127986593019159e-14
    vertex 169.49999999999997 34.99999999999999 -4.0000000000000115
    vertex 294.49999999999994 34.99999999999999 -4.0000000000000115
  endloop
endfacet
facet normal 0.0 -1.0 0.0
  outer loop
    vertex 169.49999999999997 34.99999999999999 -4.0000000000000115
    vertex 294.49999999999994 34.99999999999999 -1.127986593019159e-14
    vertex 169.49999999999997 34.99999999999999 -1.127986593019159e-14
  endloop
endfacet
facet normal 1.0585459769323933e-18 -5.0356544331212426e-17 -1.0
  outer loop
    vertex 294.49999999999994 42.99999999999999 -1.0000000000000115
    vertex 169.49999999999997 35.99999999999999 -1.000000000000011
    vertex 169.49999999999997 42.99999999999999 -1.0000000000000115
  endloop
endfacet
facet normal 1.0585459769323933e-18 -5.0356544331212426e-17 -1.0
  outer loop
    vertex 169.49999999999997 35.99999999999999 -1.000000000000011
    vertex 294.49999999999994 42.99999999999999 -1.0000000000000115
    vertex 294.49999999999994 35.99999999999999 -1.000000000000011
  endloop
endfacet
facet normal 2.117091953864787e-18 3.5249581031848787e-16 -1.0
  outer loop
    vertex 294.49999999999994 43.99999999999999 -4.0000000000000115
    vertex 169.49999999999997 42.99999999999999 -4.0000000000000115
    vertex 169.49999999999997 43.99999999999999 -4.0000000000000115
  endloop
endfacet
facet normal 2.117091953864787e-18 3.5249581031848787e-16 -1.0
  outer loop
    vertex 169.49999999999997 42.99999999999999 -4.0000000000000115
    vertex 294.49999999999994 43.99999999999999 -4.0000000000000115
    vertex 294.49999999999994 42.99999999999999 -4.0000000000000115
  endloop
endfacet
facet normal 0.0 -1.0 0.0
  outer loop
    vertex 294.49999999999994 42.99999999999999 -1.0000000000000115
    vertex 169.49999999999997 42.99999999999999 -4.0000000000000115
    vertex 294.49999999999994 42.99999999999999 -4.0000000000000115
  endloop
endfacet
facet normal 0.0 -1.0 0.0
  outer loop
    vertex 169.49999999999997 42.99999999999999 -4.0000000000000115
    vertex 294.49999999999994 42.99999999999999 -1.0000000000000115
    vertex 169.49999999999997 42.99999999999999 -1.0000000000000115
  endloop
endfacet
facet normal 1.0 0.0 0.0
  outer loop
    vertex 294.49999999999994 43.99999999999999 -4.0000000000000115
    vertex 294.49999999999994 42.99999999999999 -1.0000000000000115
    vertex 294.49999999999994 42.99999999999999 -4.0000000000000115
  endloop
endfacet
facet normal 1.0 0.0 0.0
  outer loop
    vertex 294.49999999999994 35.99999999999999 -4.0000000000000115
    vertex 294.49999999999994 34.99999999999999 -1.127986593019159e-14
    vertex 294.49999999999994 34.99999999999999 -4.0000000000000115
  endloop
endfacet
facet normal 1.0 0.0 0.0
  outer loop
    vertex 294.49999999999994 34.99999999999999 -1.127986593019159e-14
    vertex 294.49999999999994 35.99999999999999 -4.0000000000000115
    vertex 294.49999999999994 35.99999999999999 -1.000000000000011
  endloop
endfacet
facet normal 1.0 0.0 0.0
  outer loop
    vertex 294.49999999999994 34.99999999999999 -1.127986593019159e-14
    vertex 294.49999999999994 35.99999999999999 -1.000000000000011
    vertex 294.49999999999994 43.99999999999999 -1.127986593019159e-14
  endloop
endfacet
facet normal 1.0 0.0 0.0
  outer loop
    vertex 294.49999999999994 43.99999999999999 -1.127986593019159e-14
    vertex 294.49999999999994 35.99999999999999 -1.000000000000011
    vertex 294.49999999999994 42.99999999999999 -1.0000000000000115
  endloop
endfacet
facet normal 1.0 0.0 0.0
  outer loop
    vertex 294.49999999999994 43.99999999999999 -1.127986593019159e-14
    vertex 294.49999999999994 42.99999999999999 -1.0000000000000115
    vertex 294.49999999999994 43.99999999999999 -4.0000000000000115
  endloop
endfacet
facet normal -1.0 0.0 0.0
  outer loop
    vertex 169.49999999999997 34.99999999999999 -1.127986593019159e-14
    vertex 169.49999999999997 35.99999999999999 -1.000000000000011
    vertex 169.49999999999997 34.99999999999999 -4.0000000000000115
  endloop
endfacet
facet normal -1.0 0.0 0.0
  outer loop
    vertex 169.49999999999997 35.99999999999999 -1.000000000000011
    vertex 169.49999999999997 34.99999999999999 -1.127986593019159e-14
    vertex 169.49999999999997 43.99999999999999 -1.1984857550828564e-14
  endloop
endfacet
facet normal -1.0 0.0 0.0
  outer loop
    vertex 169.49999999999997 35.99999999999999 -1.000000000000011
    vertex 169.49999999999997 43.99999999999999 -1.1984857550828564e-14
    vertex 169.49999999999997 42.99999999999999 -1.0000000000000115
  endloop
endfacet
facet normal -1.0 0.0 0.0
  outer loop
    vertex 169.49999999999997 42.99999999999999 -1.0000000000000115
    vertex 169.49999999999997 43.99999999999999 -1.1984857550828564e-14
    vertex 169.49999999999997 42.99999999999999 -4.0000000000000115
  endloop
endfacet
facet normal -1.0 0.0 0.0
  outer loop
    vertex 169.49999999999997 42.99999999999999 -4.0000000000000115
    vertex 169.49999999999997 43.99999999999999 -1.1984857550828564e-14
    vertex 169.49999999999997 43.99999999999999 -4.0000000000000115
  endloop
endfacet
facet normal -1.0 0.0 0.0
  outer loop
    vertex 169.49999999999997 35.99999999999999 -4.0000000000000115
    vertex 169.49999999999997 34.99999999999999 -4.0000000000000115
    vertex 169.49999999999997 35.99999999999999 -1.000000000000011
  endloop
endfacet
facet normal 0.0 1.0 0.0
  outer loop
    vertex 169.49999999999997 43.99999999999999 -1.1984857550828564e-14
    vertex 294.49999999999994 43.99999999999999 -4.0000000000000115
    vertex 169.49999999999997 43.99999999999999 -4.0000000000000115
  endloop
endfacet
facet normal 0.0 1.0 0.0
  outer loop
    vertex 294.49999999999994 43.99999999999999 -4.0000000000000115
    vertex 169.49999999999997 43.99999999999999 -1.1984857550828564e-14
    vertex 294.49999999999994 43.99999999999999 -1.127986593019159e-14
  endloop
endfacet
facet normal 1.0585459769323935e-18 1.7624790515924394e-16 -1.0
  outer loop
    vertex 294.49999999999994 71.99999999999999 -4.000000000000008
    vertex 253.95309322209613 71.0 -4.000000000000008
    vertex 253.95309322209613 71.99999999999999 -4.000000000000008
  endloop
endfacet
facet normal 1.0585459769323935e-18 1.7624790515924394e-16 -1.0
  outer loop
    vertex 253.95309322209613 71.0 -4.000000000000008
    vertex 294.49999999999994 71.99999999999999 -4.000000000000008
    vertex 294.49999999999994 71.0 -4.000000000000008
  endloop
endfacet
facet normal 0.0 1.0 0.0
  outer loop
    vertex 253.95309322209613 71.99999999999999 -1.0000000000000078
    vertex 294.49999999999994 71.99999999999999 -4.000000000000008
    vertex 253.95309322209613 71.99999999999999 -4.000000000000008
  endloop
endfacet
facet normal 0.0 1.0 0.0
  outer loop
    vertex 294.49999999999994 71.99999999999999 -4.000000000000008
    vertex 253.95309322209613 71.99999999999999 -1.0000000000000078
    vertex 294.49999999999994 71.99999999999999 -1.0000000000000078
  endloop
endfacet
facet normal -2.1170919538647874e-18 3.9166201146498574e-17 1.0
  outer loop
    vertex 294.49999999999994 71.0 -7.754907827006718e-15
    vertex 253.95309322209613 80.0 -8.459899447643692e-15
    vertex 253.95309322209613 71.0 -7.754907827006718e-15
  endloop
endfacet
facet normal -2.1170919538647874e-18 3.9166201146498574e-17 1.0
  outer loop
    vertex 253.95309322209613 80.0 -8.459899447643692e-15
    vertex 294.49999999999994 71.0 -7.754907827006718e-15
    vertex 294.49999999999994 80.0 -7.754907827006718e-15
  endloop
endfacet
facet normal 0.0 -1.0 0.0
  outer loop
    vertex 294.49999999999994 71.0 -7.754907827006718e-15
    vertex 253.95309322209613 71.0 -4.000000000000008
    vertex 294.49999999999994 71.0 -4.000000000000008
  endloop
endfacet
facet normal 0.0 -1.0 0.0
  outer loop
    vertex 253.95309322209613 71.0 -4.000000000000008
    vertex 294.49999999999994 71.0 -7.754907827006718e-15
    vertex 253.95309322209613 71.0 -7.754907827006718e-15
  endloop
endfacet
facet normal 1.0585459769323933e-18 -5.0356544331212426e-17 -1.0
  outer loop
    vertex 294.49999999999994 79.0 -1.000000000000008
    vertex 253.95309322209613 71.99999999999999 -1.0000000000000078
    vertex 253.95309322209613 79.0 -1.000000000000008
  endloop
endfacet
facet normal 1.0585459769323933e-18 -5.0356544331212426e-17 -1.0
  outer loop
    vertex 253.95309322209613 71.99999999999999 -1.0000000000000078
    vertex 294.49999999999994 79.0 -1.000000000000008
    vertex 294.49999999999994 71.99999999999999 -1.0000000000000078
  endloop
endfacet
facet normal 2.117091953864787e-18 3.5249581031848787e-16 -1.0
  outer loop
    vertex 294.49999999999994 80.0 -4.000000000000008
    vertex 253.95309322209613 79.0 -4.000000000000008
    vertex 253.95309322209613 80.0 -4.000000000000008
  endloop
endfacet
facet normal 2.117091953864787e-18 3.5249581031848787e-16 -1.0
  outer loop
    vertex 253.95309322209613 79.0 -4.000000000000008
    vertex 294.49999999999994 80.0 -4.000000000000008
    vertex 294.49999999999994 79.0 -4.000000000000008
  endloop
endfacet
facet normal 0.0 -1.0 0.0
  outer loop
    vertex 294.49999999999994 79.0 -1.000000000000008
    vertex 253.95309322209613 79.0 -4.000000000000008
    vertex 294.49999999999994 79.0 -4.000000000000008
  endloop
endfacet
facet normal 0.0 -1.0 0.0
  outer loop
    vertex 253.95309322209613 79.0 -4.000000000000008
    vertex 294.49999999999994 79.0 -1.000000000000008
    vertex 253.95309322209613 79.0 -1.000000000000008
  endloop
endfacet
facet normal 1.0 0.0 0.0
  outer loop
    vertex 294.49999999999994 80.0 -4.000000000000008
    vertex 294.49999999999994 79.0 -1.000000000000008
    vertex 294.49999999999994 79.0 -4.000000000000008
  endloop
endfacet
facet normal 1.0 0.0 0.0
  outer loop
    vertex 294.49999999999994 71.99999999999999 -4.000000000000008
    vertex 294.49999999999994 71.0 -7.754907827006718e-15
    vertex 294.49999999999994 71.0 -4.000000000000008
  endloop
endfacet
facet normal 1.0 0.0 0.0
  outer loop
    vertex 294.49999999999994 71.0 -7.754907827006718e-15
    vertex 294.49999999999994 71.99999999999999 -4.000000000000008
    vertex 294.49999999999994 71.99999999999999 -1.0000000000000078
  endloop
endfacet
facet normal 1.0 0.0 0.0
  outer loop
    vertex 294.49999999999994 71.0 -7.754907827006718e-15
    vertex 294.49999999999994 71.99999999999999 -1.0000000000000078
    vertex 294.49999999999994 80.0 -7.754907827006718e-15
  endloop
endfacet
facet normal 1.0 0.0 0.0
  outer loop
    vertex 294.49999999999994 80.0 -7.754907827006718e-15
    vertex 294.49999999999994 71.99999999999999 -1.0000000000000078
    vertex 294.49999999999994 79.0 -1.000000000000008
  endloop
endfacet
facet normal 1.0 0.0 0.0
  outer loop
    vertex 294.49999999999994 80.0 -7.754907827006718e-15
    vertex 294.49999999999994 79.0 -1.000000000000008
    vertex 294.49999999999994 80.0 -4.000000000000008
  endloop
endfacet
facet normal -1.0 0.0 0.0
  outer loop
    vertex 253.95309322209613 71.0 -7.754907827006718e-15
    vertex 253.95309322209613 71.99999999999999 -1.0000000000000078
    vertex 253.95309322209613 71.0 -4.000000000000008
  endloop
endfacet
facet normal -1.0 0.0 0.0
  outer loop
    vertex 253.95309322209613 71.99999999999999 -1.0000000000000078
    vertex 253.95309322209613 71.0 -7.754907827006718e-15
    vertex 253.95309322209613 80.0 -8.459899447643692e-15
  endloop
endfacet
facet normal -1.0 0.0 0.0
  outer loop
    vertex 253.95309322209613 71.99999999999999 -1.0000000000000078
    vertex 253.95309322209613 80.0 -8.459899447643692e-15
    vertex 253.95309322209613 79.0 -1.000000000000008
  endloop
endfacet
facet normal -1.0 0.0 0.0
  outer loop
    vertex 253.95309322209613 79.0 -1.000000000000008
    vertex 253.95309322209613 80.0 -8.459899447643692e-15
    vertex 253.95309322209613 79.0 -4.000000000000008
  endloop
endfacet
facet normal -1.0 0.0 0.0
  outer loop
    vertex 253.95309322209613 79.0 -4.000000000000008
    vertex 253.95309322209613 80.0 -8.459899447643692e-15
    vertex 253.95309322209613 80.0 -4.000000000000008
  endloop
endfacet
facet normal -1.0 0.0 0.0
  outer loop
    vertex 253.95309322209613 71.99999999999999 -4.000000000000008
    vertex 253.95309322209613 71.0 -4.000000000000008
    vertex 253.95309322209613 71.99999999999999 -1.0000000000000078
  endloop
endfacet
facet normal 0.0 1.0 0.0
  outer loop
    vertex 253.95309322209613 80.0 -8.459899447643692e-15
    vertex 294.49999999999994 80.0 -4.000000000000008
    vertex 253.95309322209613 80.0 -4.000000000000008
  endloop
endfacet
facet normal 0.0 1.0 0.0
  outer loop
    vertex 294.49999999999994 80.0 -4.000000000000008
    vertex 253.95309322209613 80.0 -8.459899447643692e-15
    vertex 294.49999999999994 80.0 -7.754907827006718e-15
  endloop
endfacet
endsolid FCU_UNIT
