solid FCU_UNIT
facet normal 1.0585459769323935e-18 1.7624790515924394e-16 -1.0
  outer loop
    vertex 136.4722033483839 71.99999999999999 -3.9999999999999885
    vertex 31.972203348383864 70.99999999999999 -3.9999999999999885
    vertex 31.972203348383864 71.99999999999999 -3.9999999999999885
  endloop
endfacet
facet normal 1.0585459769323935e-18 1.7624790515924394e-16 -1.0
  outer loop
    vertex 31.972203348383864 70.99999999999999 -3.9999999999999885
    vertex 136.4722033483839 71.99999999999999 -3.9999999999999885
    vertex 136.4722033483839 70.99999999999999 -3.9999999999999885
  endloop
endfacet
facet normal 0.0 1.0 0.0
  outer loop
    vertex 31.972203348383864 71.99999999999999 -0.9999999999999879
    vertex 136.4722033483839 71.99999999999999 -3.9999999999999885
    vertex 31.972203348383864 71.99999999999999 -3.9999999999999885
  endloop
endfacet
facet normal 0.0 1.0 0.0
  outer loop
    vertex 136.4722033483839 71.99999999999999 -3.9999999999999885
    vertex 31.972203348383864 71.99999999999999 -0.9999999999999879
    vertex 136.4722033483839 71.99999999999999 -0.9999999999999879
  endloop
endfacet
facet normal -2.1170919538647874e-18 3.9166201146498574e-17 1.0
  outer loop
    vertex 136.4722033483839 70.99999999999999 1.1984857550828564e-14
    vertex 31.972203348383864 79.99999999999999 1.127986593019159e-14
    vertex 31.972203348383864 70.99999999999999 1.1984857550828564e-14
  endloop
endfacet
facet normal -2.1170919538647874e-18 3.9166201146498574e-17 1.0
  outer loop
    vertex 31.972203348383864 79.99999999999999 1.127986593019159e-14
    vertex 136.4722033483839 70.99999999999999 1.1984857550828564e-14
    vertex 136.4722033483839 79.99999999999999 1.1984857550828564e-14
  endloop
endfacet
facet normal 0.0 -1.0 0.0
  outer loop
    vertex 136.4722033483839 70.99999999999999 1.1984857550828564e-14
    vertex 31.972203348383864 70.99999999999999 -3.9999999999999885
    vertex 136.4722033483839 70.99999999999999 -3.9999999999999885
  endloop
endfacet
facet normal 0.0 -1.0 0.0
  outer loop
    vertex 31.972203348383864 70.99999999999999 -3.9999999999999885
    vertex 136.4722033483839 70.99999999999999 1.1984857550828564e-14
    vertex 31.972203348383864 70.99999999999999 1.1984857550828564e-14
  endloop
endfacet
facet normal 1.0585459769323933e-18 -5.0356544331212426e-17 -1.0
  outer loop
    vertex 136.4722033483839 78.99999999999999 -0.9999999999999883
    vertex 31.972203348383864 71.99999999999999 -0.9999999999999879
    vertex 31.972203348383864 78.99999999999999 -0.9999999999999883
  endloop
endfacet
facet normal 1.0585459769323933e-18 -5.0356544331212426e-17 -1.0
  outer loop
    vertex 31.972203348383864 71.99999999999999 -0.9999999999999879
    vertex 136.4722033483839 78.99999999999999 -0.9999999999999883
    vertex 136.4722033483839 71.99999999999999 -0.9999999999999879
  endloop
endfacet
facet normal 2.117091953864787e-18 3.5249581031848787e-16 -1.0
  outer loop
    vertex 136.4722033483839 79.99999999999999 -3.9999999999999885
    vertex 31.972203348383864 78.99999999999999 -3.9999999999999885
    vertex 31.972203348383864 79.99999999999999 -3.9999999999999885
  endloop
endfacet
facet normal 2.117091953864787e-18 3.5249581031848787e-16 -1.0
  outer loop
    vertex 31.972203348383864 78.99999999999999 -3.9999999999999885
    vertex 136.4722033483839 79.99999999999999 -3.9999999999999885
    vertex 136.4722033483839 78.99999999999999 -3.9999999999999885
  endloop
endfacet
facet normal 0.0 -1.0 0.0
  outer loop
    vertex 136.4722033483839 78.99999999999999 -0.9999999999999883
    vertex 31.972203348383864 78.99999999999999 -3.9999999999999885
    vertex 136.4722033483839 78.99999999999999 -3.9999999999999885
  endloop
endfacet
facet normal 0.0 -1.0 0.0
  outer loop
    vertex 31.972203348383864 78.99999999999999 -3.9999999999999885
    vertex 136.4722033483839 78.99999999999999 -0.9999999999999883
    vertex 31.972203348383864 78.99999999999999 -0.9999999999999883
  endloop
endfacet
facet normal 1.0 0.0 0.0
  outer loop
    vertex 136.4722033483839 79.99999999999999 -3.9999999999999885
    vertex 136.4722033483839 78.99999999999999 -0.9999999999999883
    vertex 136.4722033483839 78.99999999999999 -3.9999999999999885
  endloop
endfacet
facet normal 1.0 0.0 0.0
  outer loop
    vertex 136.4722033483839 71.99999999999999 -3.9999999999999885
    vertex 136.4722033483839 70.99999999999999 1.1984857550828564e-14
    vertex 136.4722033483839 70.99999999999999 -3.9999999999999885
  endloop
endfacet
facet normal 1.0 0.0 0.0
  outer loop
    vertex 136.4722033483839 70.99999999999999 1.1984857550828564e-14
    vertex 136.4722033483839 71.99999999999999 -3.9999999999999885
    vertex 136.4722033483839 71.99999999999999 -0.9999999999999879
  endloop
endfacet
facet normal 1.0 0.0 0.0
  outer loop
    vertex 136.4722033483839 70.99999999999999 1.1984857550828564e-14
    vertex 136.4722033483839 71.99999999999999 -0.9999999999999879
    vertex 136.4722033483839 79.99999999999999 1.1984857550828564e-14
  endloop
endfacet
facet normal 1.0 0.0 0.0
  outer loop
    vertex 136.4722033483839 79.99999999999999 1.1984857550828564e-14
    vertex 136.4722033483839 71.99999999999999 -0.9999999999999879
    vertex 136.4722033483839 78.99999999999999 -0.9999999999999883
  endloop
endfacet
facet normal 1.0 0.0 0.0
  outer loop
    vertex 136.4722033483839 79.99999999999999 1.1984857550828564e-14
    vertex 136.4722033483839 78.99999999999999 -0.9999999999999883
    vertex 136.4722033483839 79.99999999999999 -3.9999999999999885
  endloop
endfacet
facet normal -1.0 0.0 0.0
  outer loop
    vertex 31.972203348383864 70.99999999999999 1.1984857550828564e-14
    vertex 31.972203348383864 71.99999999999999 -0.9999999999999879
    vertex 31.972203348383864 70.99999999999999 -3.9999999999999885
  endloop
endfacet
facet normal -1.0 0.0 0.0
  outer loop
    vertex 31.972203348383864 71.99999999999999 -0.9999999999999879
    vertex 31.972203348383864 70.99999999999999 1.1984857550828564e-14
    vertex 31.972203348383864 79.99999999999999 1.127986593019159e-14
  endloop
endfacet
facet normal -1.0 0.0 0.0
  outer loop
    vertex 31.972203348383864 71.99999999999999 -0.9999999999999879
    vertex 31.972203348383864 79.99999999999999 1.127986593019159e-14
    vertex 31.972203348383864 78.99999999999999 -0.9999999999999883
  endloop
endfacet
facet normal -1.0 0.0 0.0
  outer loop
    vertex 31.972203348383864 78.99999999999999 -0.9999999999999883
    vertex 31.972203348383864 79.99999999999999 1.127986593019159e-14
    vertex 31.972203348383864 78.99999999999999 -3.9999999999999885
  endloop
endfacet
facet normal -1.0 0.0 0.0
  outer loop
    vertex 31.972203348383864 78.99999999999999 -3.9999999999999885
    vertex 31.972203348383864 79.99999999999999 1.127986593019159e-14
    vertex 31.972203348383864 79.99999999999999 -3.9999999999999885
  endloop
endfacet
facet normal -1.0 0.0 0.0
  outer loop
    vertex 31.972203348383864 71.99999999999999 -3.9999999999999885
    vertex 31.972203348383864 70.99999999999999 -3.9999999999999885
    vertex 31.972203348383864 71.99999999999999 -0.9999999999999879
  endloop
endfacet
facet normal 0.0 1.0 0.0
  outer loop
    vertex 31.972203348383864 79.99999999999999 1.127986593019159e-14
    vertex 136.4722033483839 79.99999999999999 -3.9999999999999885
    vertex 31.972203348383864 79.99999999999999 -3.9999999999999885
  endloop
endfacet
facet normal 0.0 1.0 0.0
  outer loop
    vertex 136.4722033483839 79.99999999999999 -3.9999999999999885
    vertex 31.972203348383864 79.99999999999999 1.127986593019159e-14
    vertex 136.4722033483839 79.99999999999999 1.1984857550828564e-14
  endloop
endfacet
facet normal 1.0585459769323935e-18 1.7624790515924394e-16 -1.0
  outer loop
    vertex 118.50000000000007 39.5 -3.9999999999999947
    vertex 14.000000000000028 38.5 -3.9999999999999947
    vertex 14.000000000000028 39.5 -3.9999999999999947
  endloop
endfacet
facet normal 1.0585459769323935e-18 1.7624790515924394e-16 -1.0
  outer loop
    vertex 14.000000000000028 38.5 -3.9999999999999947
    vertex 118.50000000000007 39.5 -3.9999999999999947
    vertex 118.50000000000007 38.5 -3.9999999999999947
  endloop
endfacet
facet normal 0.0 1.0 0.0
  outer loop
    vertex 14.000000000000028 39.5 -0.9999999999999943
    vertex 118.50000000000007 39.5 -3.9999999999999947
    vertex 14.000000000000028 39.5 -3.9999999999999947
  endloop
endfacet
facet normal 0.0 1.0 0.0
  outer loop
    vertex 118.50000000000007 39.5 -3.9999999999999947
    vertex 14.000000000000028 39.5 -0.9999999999999943
    vertex 118.50000000000007 39.5 -0.9999999999999943
  endloop
endfacet
facet normal -2.1170919538647874e-18 3.9166201146498574e-17 1.0
  outer loop
    vertex 118.50000000000007 38.5 5.639932965095795e-15
    vertex 14.000000000000028 47.5 4.93494134445882e-15
    vertex 14.000000000000028 38.5 5.639932965095795e-15
  endloop
endfacet
facet normal -2.1170919538647874e-18 3.9166201146498574e-17 1.0
  outer loop
    vertex 14.000000000000028 47.5 4.93494134445882e-15
    vertex 118.50000000000007 38.5 5.639932965095795e-15
    vertex 118.50000000000007 47.5 5.639932965095795e-15
  endloop
endfacet
facet normal 0.0 -1.0 0.0
  outer loop
    vertex 118.50000000000007 38.5 5.639932965095795e-15
    vertex 14.000000000000028 38.5 -3.9999999999999947
    vertex 118.50000000000007 38.5 -3.9999999999999947
  endloop
endfacet
facet normal 0.0 -1.0 0.0
  outer loop
    vertex 14.000000000000028 38.5 -3.9999999999999947
    vertex 118.50000000000007 38.5 5.639932965095795e-15
    vertex 14.000000000000028 38.5 5.639932965095795e-15
  endloop
endfacet
facet normal 1.0585459769323933e-18 -5.0356544331212426e-17 -1.0
  outer loop
    vertex 118.50000000000007 46.50000000000001 -0.9999999999999947
    vertex 14.000000000000028 39.5 -0.9999999999999943
    vertex 14.000000000000028 46.50000000000001 -0.9999999999999947
  endloop
endfacet
facet normal 1.0585459769323933e-18 -5.0356544331212426e-17 -1.0
  outer loop
    vertex 14.000000000000028 39.5 -0.9999999999999943
    vertex 118.50000000000007 46.50000000000001 -0.9999999999999947
    vertex 118.50000000000007 39.5 -0.9999999999999943
  endloop
endfacet
facet normal 2.117091953864787e-18 3.5249581031848787e-16 -1.0
  outer loop
    vertex 118.50000000000007 47.5 -3.9999999999999947
    vertex 14.000000000000028 46.50000000000001 -3.9999999999999947
    vertex 14.000000000000028 47.5 -3.9999999999999947
  endloop
endfacet
facet normal 2.117091953864787e-18 3.5249581031848787e-16 -1.0
  outer loop
    vertex 14.000000000000028 46.50000000000001 -3.9999999999999947
    vertex 118.50000000000007 47.5 -3.9999999999999947
    vertex 118.50000000000007 46.50000000000001 -3.9999999999999947
  endloop
endfacet
facet normal 0.0 -1.0 0.0
  outer loop
    vertex 118.50000000000007 46.50000000000001 -0.9999999999999947
    vertex 14.000000000000028 46.50000000000001 -3.9999999999999947
    vertex 118.50000000000007 46.50000000000001 -3.9999999999999947
  endloop
endfacet
facet normal 0.0 -1.0 0.0
  outer loop
    vertex 14.000000000000028 46.50000000000001 -3.9999999999999947
    vertex 118.50000000000007 46.50000000000001 -0.9999999999999947
    vertex 14.000000000000028 46.50000000000001 -0.9999999999999947
  endloop
endfacet
facet normal 1.0 0.0 0.0
  outer loop
    vertex 118.50000000000007 47.5 -3.9999999999999947
    vertex 118.50000000000007 46.50000000000001 -0.9999999999999947
    vertex 118.50000000000007 46.50000000000001 -3.9999999999999947
  endloop
endfacet
facet normal 1.0 0.0 0.0
  outer loop
    vertex 118.50000000000007 39.5 -3.9999999999999947
    vertex 118.50000000000007 38.5 5.639932965095795e-15
    vertex 118.50000000000007 38.5 -3.9999999999999947
  endloop
endfacet
facet normal 1.0 0.0 0.0
  outer loop
    vertex 118.50000000000007 38.5 5.639932965095795e-15
    vertex 118.50000000000007 39.5 -3.9999999999999947
    vertex 118.50000000000007 39.5 -0.9999999999999943
  endloop
endfacet
facet normal 1.0 0.0 0.0
  outer loop
    vertex 118.50000000000007 38.5 5.639932965095795e-15
    vertex 118.50000000000007 39.5 -0.9999999999999943
    vertex 118.50000000000007 47.5 5.639932965095795e-15
  endloop
endfacet
facet normal 1.0 0.0 0.0
  outer loop
    vertex 118.50000000000007 47.5 5.639932965095795e-15
    vertex 118.50000000000007 39.5 -0.9999999999999943
    vertex 118.50000000000007 46.50000000000001 -0.9999999999999947
  endloop
endfacet
facet normal 1.0 0.0 0.0
  outer loop
    vertex 118.50000000000007 47.5 5.639932965095795e-15
    vertex 118.50000000000007 46.50000000000001 -0.9999999999999947
    vertex 118.50000000000007 47.5 -3.9999999999999947
  endloop
endfacet
facet normal -1.0 0.0 0.0
  outer loop
    vertex 14.000000000000028 38.5 5.639932965095795e-15
    vertex 14.000000000000028 39.5 -0.9999999999999943
    vertex 14.000000000000028 38.5 -3.9999999999999947
  endloop
endfacet
facet normal -1.0 0.0 0.0
  outer loop
    vertex 14.000000000000028 39.5 -0.9999999999999943
    vertex 14.000000000000028 38.5 5.639932965095795e-15
    vertex 14.000000000000028 47.5 4.93494134445882e-15
  endloop
endfacet
facet normal -1.0 0.0 0.0
  outer loop
    vertex 14.000000000000028 39.5 -0.9999999999999943
    vertex 14.000000000000028 47.5 4.93494134445882e-15
    vertex 14.000000000000028 46.50000000000001 -0.9999999999999947
  endloop
endfacet
facet normal -1.0 0.0 0.0
  outer loop
    vertex 14.000000000000028 46.50000000000001 -0.9999999999999947
    vertex 14.000000000000028 47.5 4.93494134445882e-15
    vertex 14.000000000000028 46.50000000000001 -3.9999999999999947
  endloop
endfacet
facet normal -1.0 0.0 0.0
  outer loop
    vertex 14.000000000000028 46.50000000000001 -3.9999999999999947
    vertex 14.000000000000028 47.5 4.93494134445882e-15
    vertex 14.000000000000028 47.5 -3.9999999999999947
  endloop
endfacet
facet normal -1.0 0.0 0.0
  outer loop
    vertex 14.000000000000028 39.5 -3.9999999999999947
    vertex 14.000000000000028 38.5 -3.9999999999999947
    vertex 14.000000000000028 39.5 -0.9999999999999943
  endloop
endfacet
facet normal 0.0 1.0 0.0
  outer loop
    vertex 14.000000000000028 47.5 4.93494134445882e-15
    vertex 118.50000000000007 47.5 -3.9999999999999947
    vertex 14.000000000000028 47.5 -3.9999999999999947
  endloop
endfacet
facet normal 0.0 1.0 0.0
  outer loop
    vertex 118.50000000000007 47.5 -3.9999999999999947
    vertex 14.000000000000028 47.5 4.93494134445882e-15
    vertex 118.50000000000007 47.5 5.639932965095795e-15
  endloop
endfacet
endsolid FCU_UNIT
