solid FCU_UNIT
facet normal 0.0 -1.0 -7.833240229299716e-17
  outer loop
    vertex -4.99999999999972 34.000000000000014 -4.000000000000038
    vertex -191.49999999999977 34.000000000000014 -5.000000000000037
    vertex -4.99999999999972 34.000000000000014 -5.000000000000037
  endloop
endfacet
facet normal 0.0 -1.0 -7.833240229299716e-17
  outer loop
    vertex -191.49999999999977 34.000000000000014 -5.000000000000037
    vertex -4.99999999999972 34.000000000000014 -4.000000000000038
    vertex -191.49999999999977 34.000000000000014 -4.000000000000038
  endloop
endfacet
facet normal -6.6334759448561575e-34 1.0 7.833240229299716e-17
  outer loop
    vertex -191.49999999999977 43.000000000000014 -4.000000000000038
    vertex -4.99999999999972 43.000000000000014 -5.0000000000000355
    vertex -191.49999999999977 43.000000000000014 -5.000000000000037
  endloop
endfacet
facet normal -6.6334759448561575e-34 1.0 7.833240229299716e-17
  outer loop
    vertex -4.99999999999972 43.000000000000014 -5.0000000000000355
    vertex -191.49999999999977 43.000000000000014 -4.000000000000038
    vertex -4.99999999999972 43.000000000000014 -4.000000000000036
  endloop
endfacet
facet normal 4.234183907729575e-18 7.833240229299716e-17 -1.0
  outer loop
    vertex -4.99999999999972 43.000000000000014 -5.0000000000000355
    vertex -191.49999999999977 34.000000000000014 -5.000000000000037
    vertex -191.49999999999977 43.000000000000014 -5.000000000000037
  endloop
endfacet
facet normal 4.234183907729575e-18 7.833240229299716e-17 -1.0
  outer loop
    vertex -191.49999999999977 34.000000000000014 -5.000000000000037
    vertex -4.99999999999972 43.000000000000014 -5.0000000000000355
    vertex -4.99999999999972 34.000000000000014 -5.000000000000037
  endloop
endfacet
facet normal 0.0 -7.049916206369756e-16 1.0
  outer loop
    vertex -4.99999999999972 34.000000000000014 -4.000000000000038
    vertex -191.49999999999977 35.000000000000014 -4.000000000000037
    vertex -191.49999999999977 34.000000000000014 -4.000000000000038
  endloop
endfacet
facet normal 0.0 -7.049916206369756e-16 1.0
  outer loop
    vertex -191.49999999999977 35.000000000000014 -4.000000000000037
    vertex -4.99999999999972 34.000000000000014 -4.000000000000038
    vertex -4.99999999999972 35.000000000000014 -4.000000000000037
  endloop
endfacet
facet normal -5.292729884661969e-19 8.812395257962196e-17 1.0
  outer loop
    vertex -4.99999999999972 35.000000000000014 -1.0000000000000377
    vertex -191.49999999999977 36.000000000000014 -1.0000000000000377
    vertex -191.49999999999977 35.000000000000014 -1.0000000000000377
  endloop
endfacet
facet normal -5.292729884661969e-19 8.812395257962196e-17 1.0
  outer loop
    vertex -191.49999999999977 36.000000000000014 -1.0000000000000377
    vertex -4.99999999999972 35.000000000000014 -1.0000000000000377
    vertex -4.99999999999972 36.000000000000014 -1.0000000000000377
  endloop
endfacet
facet normal 0.0 -1.0 0.0
  outer loop
    vertex -4.99999999999972 35.000000000000014 -1.0000000000000377
    vertex -191.49999999999977 35.000000000000014 -4.000000000000037
    vertex -4.99999999999972 35.000000000000014 -4.000000000000037
  endloop
endfacet
facet normal 0.0 -1.0 0.0
  outer loop
    vertex -191.49999999999977 35.000000000000014 -4.000000000000037
    vertex -4.99999999999972 35.000000000000014 -1.0000000000000377
    vertex -191.49999999999977 35.000000000000014 -1.0000000000000377
  endloop
endfacet
facet normal 0.0 1.0 0.0
  outer loop
    vertex -191.49999999999977 36.000000000000014 -1.0000000000000377
    vertex -4.99999999999972 36.000000000000014 -4.000000000000038
    vertex -191.49999999999977 36.000000000000014 -4.000000000000038
  endloop
endfacet
facet normal 0.0 1.0 0.0
  outer loop
    vertex -4.99999999999972 36.000000000000014 -4.000000000000038
    vertex -191.49999999999977 36.000000000000014 -1.0000000000000377
    vertex -4.99999999999972 36.000000000000014 -1.0000000000000377
  endloop
endfacet
facet normal -2.117091953864788e-18 -2.11497486191092e-16 1.0
  outer loop
    vertex -4.99999999999972 36.000000000000014 -4.000000000000038
    vertex -191.49999999999977 41.00000000000002 -4.000000000000037
    vertex -191.49999999999977 36.000000000000014 -4.000000000000038
  endloop
endfacet
facet normal -2.117091953864788e-18 -2.11497486191092e-16 1.0
  outer loop
    vertex -191.49999999999977 41.00000000000002 -4.000000000000037
    vertex -4.99999999999972 36.000000000000014 -4.000000000000038
    vertex -4.99999999999972 41.00000000000002 -4.000000000000036
  endloop
endfacet
facet normal -4.234183907729574e-18 -7.049916206369757e-16 1.0
  outer loop
    vertex -4.99999999999972 42.00000000000002 -4.000000000000038
    vertex -191.49999999999977 43.000000000000014 -4.000000000000038
    vertex -191.49999999999977 42.00000000000002 -4.000000000000038
  endloop
endfacet
facet normal -4.234183907729574e-18 -7.049916206369757e-16 1.0
  outer loop
    vertex -191.49999999999977 43.000000000000014 -4.000000000000038
    vertex -4.99999999999972 42.00000000000002 -4.000000000000038
    vertex -4.99999999999972 43.000000000000014 -4.000000000000036
  endloop
endfacet
facet normal -5.292729884661968e-19 -8.812395257962197e-17 1.0
  outer loop
    vertex -4.99999999999972 41.00000000000002 -1.0000000000000377
    vertex -191.49999999999977 42.00000000000002 -1.0000000000000377
    vertex -191.49999999999977 41.00000000000002 -1.0000000000000377
  endloop
endfacet
facet normal -5.292729884661968e-19 -8.812395257962197e-17 1.0
  outer loop
    vertex -191.49999999999977 42.00000000000002 -1.0000000000000377
    vertex -4.99999999999972 41.00000000000002 -1.0000000000000377
    vertex -4.99999999999972 42.00000000000002 -1.0000000000000377
  endloop
endfacet
facet normal 0.0 -1.0 0.0
  outer loop
    vertex -4.99999999999972 41.00000000000002 -4.000000000000036
    vertex -191.49999999999977 41.00000000000002 -1.0000000000000377
    vertex -191.49999999999977 41.00000000000002 -4.000000000000037
  endloop
endfacet
facet normal 0.0 -1.0 0.0
  outer loop
    vertex -191.49999999999977 41.00000000000002 -1.0000000000000377
    vertex -4.99999999999972 41.00000000000002 -4.000000000000036
    vertex -4.99999999999972 41.00000000000002 -1.0000000000000377
  endloop
endfacet
facet normal -1.0 0.0 0.0
  outer loop
    vertex -191.49999999999977 36.000000000000014 -1.0000000000000377
    vertex -191.49999999999977 35.000000000000014 -4.000000000000037
    vertex -191.49999999999977 35.000000000000014 -1.0000000000000377
  endloop
endfacet
facet normal -1.0 0.0 0.0
  outer loop
    vertex -191.49999999999977 42.00000000000002 -1.0000000000000377
    vertex -191.49999999999977 41.00000000000002 -4.000000000000037
    vertex -191.49999999999977 41.00000000000002 -1.0000000000000377
  endloop
endfacet
facet normal -1.0 0.0 0.0
  outer loop
    vertex -191.49999999999977 35.000000000000014 -4.000000000000037
    vertex -191.49999999999977 34.000000000000014 -5.000000000000037
    vertex -191.49999999999977 34.000000000000014 -4.000000000000038
  endloop
endfacet
facet normal -1.0 0.0 0.0
  outer loop
    vertex -191.49999999999977 34.000000000000014 -5.000000000000037
    vertex -191.49999999999977 35.000000000000014 -4.000000000000037
    vertex -191.49999999999977 43.000000000000014 -5.000000000000037
  endloop
endfacet
facet normal -1.0 0.0 0.0
  outer loop
    vertex -191.49999999999977 43.000000000000014 -5.000000000000037
    vertex -191.49999999999977 35.000000000000014 -4.000000000000037
    vertex -191.49999999999977 36.000000000000014 -4.000000000000038
  endloop
endfacet
facet normal -1.0 0.0 0.0
  outer loop
    vertex -191.49999999999977 36.000000000000014 -4.000000000000038
    vertex -191.49999999999977 35.000000000000014 -4.000000000000037
    vertex -191.49999999999977 36.000000000000014 -1.0000000000000377
  endloop
endfacet
facet normal -1.0 0.0 0.0
  outer loop
    vertex -191.49999999999977 43.000000000000014 -5.000000000000037
    vertex -191.49999999999977 36.000000000000014 -4.000000000000038
    vertex -191.49999999999977 41.00000000000002 -4.000000000000037
  endloop
endfacet
facet normal -1.0 0.0 0.0
  outer loop
    vertex -191.49999999999977 43.000000000000014 -5.000000000000037
    vertex -191.49999999999977 41.00000000000002 -4.000000000000037
    vertex -191.49999999999977 42.00000000000002 -4.000000000000038
  endloop
endfacet
facet normal -1.0 0.0 0.0
  outer loop
    vertex -191.49999999999977 42.00000000000002 -4.000000000000038
    vertex -191.49999999999977 41.00000000000002 -4.000000000000037
    vertex -191.49999999999977 42.00000000000002 -1.0000000000000377
  endloop
endfacet
facet normal -1.0 0.0 0.0
  outer loop
    vertex -191.49999999999977 43.000000000000014 -5.000000000000037
    vertex -191.49999999999977 42.00000000000002 -4.000000000000038
    vertex -191.49999999999977 43.000000000000014 -4.000000000000038
  endloop
endfacet
facet normal 0.0 1.0 0.0
  outer loop
    vertex -191.49999999999977 42.00000000000002 -1.0000000000000377
    vertex -4.99999999999972 42.00000000000002 -4.000000000000038
    vertex -191.49999999999977 42.00000000000002 -4.000000000000038
  endloop
endfacet
facet normal 0.0 1.0 0.0
  outer loop
    vertex -4.99999999999972 42.00000000000002 -4.000000000000038
    vertex -191.49999999999977 42.00000000000002 -1.0000000000000377
    vertex -4.99999999999972 42.00000000000002 -1.0000000000000377
  endloop
endfacet
facet normal 1.0 0.0 0.0
  outer loop
    vertex -4.99999999999972 43.000000000000014 -5.0000000000000355
    vertex -4.99999999999972 34.000000000000014 -4.000000000000038
    vertex -4.99999999999972 34.000000000000014 -5.000000000000037
  endloop
endfacet
facet normal 1.0 0.0 0.0
  outer loop
    vertex -4.99999999999972 34.000000000000014 -4.000000000000038
    vertex -4.99999999999972 43.000000000000014 -5.0000000000000355
    vertex -4.99999999999972 35.000000000000014 -4.000000000000037
  endloop
endfacet
facet normal 1.0 0.0 0.0
  outer loop
    vertex -4.99999999999972 35.000000000000014 -4.000000000000037
    vertex -4.99999999999972 43.000000000000014 -5.0000000000000355
    vertex -4.99999999999972 36.000000000000014 -4.000000000000038
  endloop
endfacet
facet normal 1.0 0.0 0.0
  outer loop
    vertex -4.99999999999972 35.000000000000014 -4.000000000000037
    vertex -4.99999999999972 36.000000000000014 -4.000000000000038
    vertex -4.99999999999972 35.000000000000014 -1.0000000000000377
  endloop
endfacet
facet normal 1.0 0.0 0.0
  outer loop
    vertex -4.99999999999972 36.000000000000014 -4.000000000000038
    vertex -4.99999999999972 43.000000000000014 -5.0000000000000355
    vertex -4.99999999999972 41.00000000000002 -4.000000000000036
  endloop
endfacet
facet normal 1.0 0.0 0.0
  outer loop
    vertex -4.99999999999972 41.00000000000002 -4.000000000000036
    vertex -4.99999999999972 43.000000000000014 -5.0000000000000355
    vertex -4.99999999999972 42.00000000000002 -4.000000000000038
  endloop
endfacet
facet normal 1.0 0.0 0.0
  outer loop
    vertex -4.99999999999972 41.00000000000002 -4.000000000000036
    vertex -4.99999999999972 42.00000000000002 -4.000000000000038
    vertex -4.99999999999972 41.00000000000002 -1.0000000000000377
  endloop
endfacet
facet normal 1.0 0.0 0.0
  outer loop
    vertex -4.99999999999972 42.00000000000002 -4.000000000000038
    vertex -4.99999999999972 43.000000000000014 -5.0000000000000355
    vertex -4.99999999999972 43.000000000000014 -4.000000000000036
  endloop
endfacet
facet normal 1.0 0.0 0.0
  outer loop
    vertex -4.99999999999972 42.00000000000002 -1.0000000000000377
    vertex -4.99999999999972 41.00000000000002 -1.0000000000000377
    vertex -4.99999999999972 42.00000000000002 -4.000000000000038
  endloop
endfacet
facet normal 1.0 0.0 0.0
  outer loop
    vertex -4.99999999999972 36.000000000000014 -1.0000000000000377
    vertex -4.99999999999972 35.000000000000014 -1.0000000000000377
    vertex -4.99999999999972 36.000000000000014 -4.000000000000038
  endloop
endfacet
facet normal 0.0 -1.0 -7.833240229299716e-17
  outer loop
    vertex -4.999999999999607 68.50000000000001 -4.000000000000037
    vertex -191.49999999999977 68.50000000000001 -5.000000000000036
    vertex -4.999999999999607 68.50000000000001 -5.000000000000036
  endloop
endfacet
facet normal 0.0 -1.0 -7.833240229299716e-17
  outer loop
    vertex -191.49999999999977 68.50000000000001 -5.000000000000036
    vertex -4.999999999999607 68.50000000000001 -4.000000000000037
    vertex -191.49999999999977 68.50000000000001 -4.000000000000037
  endloop
endfacet
facet normal -6.6334759448561575e-34 1.0 7.833240229299716e-17
  outer loop
    vertex -191.49999999999977 77.50000000000001 -4.000000000000037
    vertex -4.999999999999607 77.50000000000001 -5.0000000000000355
    vertex -191.49999999999977 77.50000000000001 -5.000000000000036
  endloop
endfacet
facet normal -6.6334759448561575e-34 1.0 7.833240229299716e-17
  outer loop
    vertex -4.999999999999607 77.50000000000001 -5.0000000000000355
    vertex -191.49999999999977 77.50000000000001 -4.000000000000037
    vertex -4.999999999999607 77.50000000000001 -4.0000000000000355
  endloop
endfacet
facet normal 4.234183907729575e-18 7.833240229299716e-17 -1.0
  outer loop
    vertex -4.999999999999607 77.50000000000001 -5.0000000000000355
    vertex -191.49999999999977 68.50000000000001 -5.000000000000036
    vertex -191.49999999999977 77.50000000000001 -5.000000000000036
  endloop
endfacet
facet normal 4.234183907729575e-18 7.833240229299716e-17 -1.0
  outer loop
    vertex -191.49999999999977 68.50000000000001 -5.000000000000036
    vertex -4.999999999999607 77.50000000000001 -5.0000000000000355
    vertex -4.999999999999607 68.50000000000001 -5.000000000000036
  endloop
endfacet
facet normal 0.0 -7.049916206369756e-16 1.0
  outer loop
    vertex -4.999999999999607 68.50000000000001 -4.000000000000037
    vertex -191.49999999999977 69.50000000000001 -4.000000000000036
    vertex -191.49999999999977 68.50000000000001 -4.000000000000037
  endloop
endfacet
facet normal 0.0 -7.049916206369756e-16 1.0
  outer loop
    vertex -191.49999999999977 69.50000000000001 -4.000000000000036
    vertex -4.999999999999607 68.50000000000001 -4.000000000000037
    vertex -4.999999999999607 69.50000000000001 -4.000000000000036
  endloop
endfacet
facet normal -5.292729884661969e-19 8.812395257962196e-17 1.0
  outer loop
    vertex -4.999999999999607 69.50000000000001 -1.0000000000000369
    vertex -191.49999999999977 70.5 -1.0000000000000369
    vertex -191.49999999999977 69.50000000000001 -1.0000000000000369
  endloop
endfacet
facet normal -5.292729884661969e-19 8.812395257962196e-17 1.0
  outer loop
    vertex -191.49999999999977 70.5 -1.0000000000000369
    vertex -4.999999999999607 69.50000000000001 -1.0000000000000369
    vertex -4.999999999999607 70.5 -1.0000000000000369
  endloop
endfacet
facet normal 0.0 -1.0 0.0
  outer loop
    vertex -4.999999999999607 69.50000000000001 -1.0000000000000369
    vertex -191.49999999999977 69.50000000000001 -4.000000000000036
    vertex -4.999999999999607 69.50000000000001 -4.000000000000036
  endloop
endfacet
facet normal 0.0 -1.0 0.0
  outer loop
    vertex -191.49999999999977 69.50000000000001 -4.000000000000036
    vertex -4.999999999999607 69.50000000000001 -1.0000000000000369
    vertex -191.49999999999977 69.50000000000001 -1.0000000000000369
  endloop
endfacet
facet normal 0.0 1.0 0.0
  outer loop
    vertex -191.49999999999977 70.5 -1.0000000000000369
    vertex -4.999999999999607 70.5 -4.000000000000037
    vertex -191.49999999999977 70.5 -4.000000000000037
  endloop
endfacet
facet normal 0.0 1.0 0.0
  outer loop
    vertex -4.999999999999607 70.5 -4.000000000000037
    vertex -191.49999999999977 70.5 -1.0000000000000369
    vertex -4.999999999999607 70.5 -1.0000000000000369
  endloop
endfacet
facet normal -2.117091953864788e-18 -2.11497486191092e-16 1.0
  outer loop
    vertex -4.999999999999607 70.5 -4.000000000000037
    vertex -191.49999999999977 75.50000000000001 -4.000000000000036
    vertex -191.49999999999977 70.5 -4.000000000000037
  endloop
endfacet
facet normal -2.117091953864788e-18 -2.11497486191092e-16 1.0
  outer loop
    vertex -191.49999999999977 75.50000000000001 -4.000000000000036
    vertex -4.999999999999607 70.5 -4.000000000000037
    vertex -4.999999999999607 75.50000000000001 -4.0000000000000355
  endloop
endfacet
facet normal -4.234183907729574e-18 -7.049916206369757e-16 1.0
  outer loop
    vertex -4.999999999999607 76.50000000000001 -4.000000000000037
    vertex -191.49999999999977 77.50000000000001 -4.000000000000037
    vertex -191.49999999999977 76.50000000000001 -4.000000000000037
  endloop
endfacet
facet normal -4.234183907729574e-18 -7.049916206369757e-16 1.0
  outer loop
    vertex -191.49999999999977 77.50000000000001 -4.000000000000037
    vertex -4.999999999999607 76.50000000000001 -4.000000000000037
    vertex -4.999999999999607 77.50000000000001 -4.0000000000000355
  endloop
endfacet
facet normal -5.292729884661968e-19 -8.812395257962197e-17 1.0
  outer loop
    vertex -4.999999999999607 75.50000000000001 -1.0000000000000369
    vertex -191.49999999999977 76.50000000000001 -1.0000000000000369
    vertex -191.49999999999977 75.50000000000001 -1.0000000000000369
  endloop
endfacet
facet normal -5.292729884661968e-19 -8.812395257962197e-17 1.0
  outer loop
    vertex -191.49999999999977 76.50000000000001 -1.0000000000000369
    vertex -4.999999999999607 75.50000000000001 -1.0000000000000369
    vertex -4.999999999999607 76.50000000000001 -1.0000000000000369
  endloop
endfacet
facet normal 0.0 -1.0 0.0
  outer loop
    vertex -4.999999999999607 75.50000000000001 -4.0000000000000355
    vertex -191.49999999999977 75.50000000000001 -1.0000000000000369
    vertex -191.49999999999977 75.50000000000001 -4.000000000000036
  endloop
endfacet
facet normal 0.0 -1.0 0.0
  outer loop
    vertex -191.49999999999977 75.50000000000001 -1.0000000000000369
    vertex -4.999999999999607 75.50000000000001 -4.0000000000000355
    vertex -4.999999999999607 75.50000000000001 -1.0000000000000369
  endloop
endfacet
facet normal -1.0 0.0 0.0
  outer loop
    vertex -191.49999999999977 70.5 -1.0000000000000369
    vertex -191.49999999999977 69.50000000000001 -4.000000000000036
    vertex -191.49999999999977 69.50000000000001 -1.0000000000000369
  endloop
endfacet
facet normal -1.0 0.0 0.0
  outer loop
    vertex -191.49999999999977 76.50000000000001 -1.0000000000000369
    vertex -191.49999999999977 75.50000000000001 -4.000000000000036
    vertex -191.49999999999977 75.50000000000001 -1.0000000000000369
  endloop
endfacet
facet normal -1.0 0.0 0.0
  outer loop
    vertex -191.49999999999977 69.50000000000001 -4.000000000000036
    vertex -191.49999999999977 68.50000000000001 -5.000000000000036
    vertex -191.49999999999977 68.50000000000001 -4.000000000000037
  endloop
endfacet
facet normal -1.0 0.0 0.0
  outer loop
    vertex -191.49999999999977 68.50000000000001 -5.000000000000036
    vertex -191.49999999999977 69.50000000000001 -4.000000000000036
    vertex -191.49999999999977 77.50000000000001 -5.000000000000036
  endloop
endfacet
facet normal -1.0 0.0 0.0
  outer loop
    vertex -191.49999999999977 77.50000000000001 -5.000000000000036
    vertex -191.49999999999977 69.50000000000001 -4.000000000000036
    vertex -191.49999999999977 70.5 -4.000000000000037
  endloop
endfacet
facet normal -1.0 0.0 0.0
  outer loop
    vertex -191.49999999999977 70.5 -4.000000000000037
    vertex -191.49999999999977 69.50000000000001 -4.000000000000036
    vertex -191.49999999999977 70.5 -1.0000000000000369
  endloop
endfacet
facet normal -1.0 0.0 0.0
  outer loop
    vertex -191.49999999999977 77.50000000000001 -5.000000000000036
    vertex -191.49999999999977 70.5 -4.000000000000037
    vertex -191.49999999999977 75.50000000000001 -4.000000000000036
  endloop
endfacet
facet normal -1.0 0.0 0.0
  outer loop
    vertex -191.49999999999977 77.50000000000001 -5.000000000000036
    vertex -191.49999999999977 75.50000000000001 -4.000000000000036
    vertex -191.49999999999977 76.50000000000001 -4.000000000000037
  endloop
endfacet
facet normal -1.0 0.0 0.0
  outer loop
    vertex -191.49999999999977 76.50000000000001 -4.000000000000037
    vertex -191.49999999999977 75.50000000000001 -4.000000000000036
    vertex -191.49999999999977 76.50000000000001 -1.0000000000000369
  endloop
endfacet
facet normal -1.0 0.0 0.0
  outer loop
    vertex -191.49999999999977 77.50000000000001 -5.000000000000036
    vertex -191.49999999999977 76.50000000000001 -4.000000000000037
    vertex -191.49999999999977 77.50000000000001 -4.000000000000037
  endloop
endfacet
facet normal 0.0 1.0 0.0
  outer loop
    vertex -191.49999999999977 76.50000000000001 -1.0000000000000369
    vertex -4.999999999999607 76.50000000000001 -4.000000000000037
    vertex -191.49999999999977 76.50000000000001 -4.000000000000037
  endloop
endfacet
facet normal 0.0 1.0 0.0
  outer loop
    vertex -4.999999999999607 76.50000000000001 -4.000000000000037
    vertex -191.49999999999977 76.50000000000001 -1.0000000000000369
    vertex -4.999999999999607 76.50000000000001 -1.0000000000000369
  endloop
endfacet
facet normal 1.0 0.0 0.0
  outer loop
    vertex -4.999999999999607 77.50000000000001 -5.0000000000000355
    vertex -4.999999999999607 68.50000000000001 -4.000000000000037
    vertex -4.999999999999607 68.50000000000001 -5.000000000000036
  endloop
endfacet
facet normal 1.0 0.0 0.0
  outer loop
    vertex -4.999999999999607 68.50000000000001 -4.000000000000037
    vertex -4.999999999999607 77.50000000000001 -5.0000000000000355
    vertex -4.999999999999607 69.50000000000001 -4.000000000000036
  endloop
endfacet
facet normal 1.0 0.0 0.0
  outer loop
    vertex -4.999999999999607 69.50000000000001 -4.000000000000036
    vertex -4.999999999999607 77.50000000000001 -5.0000000000000355
    vertex -4.999999999999607 70.5 -4.000000000000037
  endloop
endfacet
facet normal 1.0 0.0 0.0
  outer loop
    vertex -4.999999999999607 69.50000000000001 -4.000000000000036
    vertex -4.999999999999607 70.5 -4.000000000000037
    vertex -4.999999999999607 69.50000000000001 -1.0000000000000369
  endloop
endfacet
facet normal 1.0 0.0 0.0
  outer loop
    vertex -4.999999999999607 70.5 -4.000000000000037
    vertex -4.999999999999607 77.50000000000001 -5.0000000000000355
    vertex -4.999999999999607 75.50000000000001 -4.0000000000000355
  endloop
endfacet
facet normal 1.0 0.0 0.0
  outer loop
    vertex -4.999999999999607 75.50000000000001 -4.0000000000000355
    vertex -4.999999999999607 77.50000000000001 -5.0000000000000355
    vertex -4.999999999999607 76.50000000000001 -4.000000000000037
  endloop
endfacet
facet normal 1.0 0.0 0.0
  outer loop
    vertex -4.999999999999607 75.50000000000001 -4.0000000000000355
    vertex -4.999999999999607 76.50000000000001 -4.000000000000037
    vertex -4.999999999999607 75.50000000000001 -1.0000000000000369
  endloop
endfacet
facet normal 1.0 0.0 0.0
  outer loop
    vertex -4.999999999999607 76.50000000000001 -4.000000000000037
    vertex -4.999999999999607 77.50000000000001 -5.0000000000000355
    vertex -4.999999999999607 77.50000000000001 -4.0000000000000355
  endloop
endfacet
facet normal 1.0 0.0 0.0
  outer loop
    vertex -4.999999999999607 76.50000000000001 -1.0000000000000369
    vertex -4.999999999999607 75.50000000000001 -1.0000000000000369
    vertex -4.999999999999607 76.50000000000001 -4.000000000000037
  endloop
endfacet
facet normal 1.0 0.0 0.0
  outer loop
    vertex -4.999999999999607 70.5 -1.0000000000000369
    vertex -4.999999999999607 69.50000000000001 -1.0000000000000369
    vertex -4.999999999999607 70.5 -4.000000000000037
  endloop
endfacet
endsolid FCU_UNIT
