solid FCU_UNIT
facet normal 1.0585459769323935e-18 1.7624790515924394e-16 -1.0
  outer loop
    vertex 499.50000000000045 35.000000000000014 -4.000000000000026
    vertex 313.0000000000004 34.000000000000014 -4.000000000000026
    vertex 313.0000000000004 35.000000000000014 -4.000000000000026
  endloop
endfacet
facet normal 1.0585459769323935e-18 1.7624790515924394e-16 -1.0
  outer loop
    vertex 313.0000000000004 34.000000000000014 -4.000000000000026
    vertex 499.50000000000045 35.000000000000014 -4.000000000000026
    vertex 499.50000000000045 34.000000000000014 -4.000000000000026
  endloop
endfacet
facet normal 0.0 1.0 0.0
  outer loop
    vertex 313.0000000000004 35.000000000000014 -1.0000000000000253
    vertex 499.50000000000045 35.000000000000014 -4.000000000000026
    vertex 313.0000000000004 35.000000000000014 -4.000000000000026
  endloop
endfacet
facet normal 0.0 1.0 0.0
  outer loop
    vertex 499.50000000000045 35.000000000000014 -4.000000000000026
    vertex 313.0000000000004 35.000000000000014 -1.0000000000000253
    vertex 499.50000000000045 35.000000000000014 -1.0000000000000253
  endloop
endfacet
facet normal -2.1170919538647874e-18 3.9166201146498574e-17 1.0
  outer loop
    vertex 499.50000000000045 34.000000000000014 -2.5379698342931078e-14
    vertex 313.0000000000004 43.000000000000014 -2.6084689963568052e-14
    vertex 313.0000000000004 34.000000000000014 -2.5379698342931078e-14
  endloop
endfacet
facet normal -2.1170919538647874e-18 3.9166201146498574e-17 1.0
  outer loop
    vertex 313.0000000000004 43.000000000000014 -2.6084689963568052e-14
    vertex 499.50000000000045 34.000000000000014 -2.5379698342931078e-14
    vertex 499.50000000000045 43.000000000000014 -2.5379698342931078e-14
  endloop
endfacet
facet normal 0.0 -1.0 0.0
  outer loop
    vertex 499.50000000000045 34.000000000000014 -2.5379698342931078e-14
    vertex 313.0000000000004 34.000000000000014 -4.000000000000026
    vertex 499.50000000000045 34.000000000000014 -4.000000000000026
  endloop
endfacet
facet normal 0.0 -1.0 0.0
  outer loop
    vertex 313.0000000000004 34.000000000000014 -4.000000000000026
    vertex 499.50000000000045 34.000000000000014 -2.5379698342931078e-14
    vertex 313.0000000000004 34.000000000000014 -2.5379698342931078e-14
  endloop
endfacet
facet normal 1.0585459769323933e-18 -5.0356544331212426e-17 -1.0
  outer loop
    vertex 499.50000000000045 42.00000000000002 -1.0000000000000258
    vertex 313.0000000000004 35.000000000000014 -1.0000000000000253
    vertex 313.0000000000004 42.00000000000002 -1.0000000000000258
  endloop
endfacet
facet normal 1.0585459769323933e-18 -5.0356544331212426e-17 -1.0
  outer loop
    vertex 313.0000000000004 35.000000000000014 -1.0000000000000253
    vertex 499.50000000000045 42.00000000000002 -1.0000000000000258
    vertex 499.50000000000045 35.000000000000014 -1.0000000000000253
  endloop
endfacet
facet normal 2.117091953864787e-18 3.5249581031848787e-16 -1.0
  outer loop
    vertex 499.50000000000045 43.000000000000014 -4.000000000000026
    vertex 313.0000000000004 42.00000000000002 -4.000000000000026
    vertex 313.0000000000004 43.000000000000014 -4.000000000000026
  endloop
endfacet
facet normal 2.117091953864787e-18 3.5249581031848787e-16 -1.0
  outer loop
    vertex 313.0000000000004 42.00000000000002 -4.000000000000026
    vertex 499.50000000000045 43.000000000000014 -4.000000000000026
    vertex 499.50000000000045 42.00000000000002 -4.000000000000026
  endloop
endfacet
facet normal 0.0 -1.0 0.0
  outer loop
    vertex 499.50000000000045 42.00000000000002 -1.0000000000000258
    vertex 313.0000000000004 42.00000000000002 -4.000000000000026
    vertex 499.50000000000045 42.00000000000002 -4.000000000000026
  endloop
endfacet
facet normal 0.0 -1.0 0.0
  outer loop
    vertex 313.0000000000004 42.00000000000002 -4.000000000000026
    vertex 499.50000000000045 42.00000000000002 -1.0000000000000258
    vertex 313.0000000000004 42.00000000000002 -1.0000000000000258
  endloop
endfacet
facet normal 1.0 0.0 0.0
  outer loop
    vertex 499.50000000000045 43.000000000000014 -4.000000000000026
    vertex 499.50000000000045 42.00000000000002 -1.0000000000000258
    vertex 499.50000000000045 42.00000000000002 -4.000000000000026
  endloop
endfacet
facet normal 1.0 0.0 0.0
  outer loop
    vertex 499.50000000000045 35.000000000000014 -4.000000000000026
    vertex 499.50000000000045 34.000000000000014 -2.5379698342931078e-14
    vertex 499.50000000000045 34.000000000000014 -4.000000000000026
  endloop
endfacet
facet normal 1.0 0.0 0.0
  outer loop
    vertex 499.50000000000045 34.000000000000014 -2.5379698342931078e-14
    vertex 499.50000000000045 35.000000000000014 -4.000000000000026
    vertex 499.50000000000045 35.000000000000014 -1.0000000000000253
  endloop
endfacet
facet normal 1.0 0.0 0.0
  outer loop
    vertex 499.50000000000045 34.000000000000014 -2.5379698342931078e-14
    vertex 499.50000000000045 35.000000000000014 -1.0000000000000253
    vertex 499.50000000000045 43.000000000000014 -2.5379698342931078e-14
  endloop
endfacet
facet normal 1.0 0.0 0.0
  outer loop
    vertex 499.50000000000045 43.000000000000014 -2.5379698342931078e-14
    vertex 499.50000000000045 35.000000000000014 -1.0000000000000253
    vertex 499.50000000000045 42.00000000000002 -1.0000000000000258
  endloop
endfacet
facet normal 1.0 0.0 0.0
  outer loop
    vertex 499.50000000000045 43.000000000000014 -2.5379698342931078e-14
    vertex 499.50000000000045 42.00000000000002 -1.0000000000000258
    vertex 499.50000000000045 43.000000000000014 -4.000000000000026
  endloop
endfacet
facet normal -1.0 0.0 0.0
  outer loop
    vertex 313.0000000000004 34.000000000000014 -2.5379698342931078e-14
    vertex 313.0000000000004 35.000000000000014 -1.0000000000000253
    vertex 313.0000000000004 34.000000000000014 -4.000000000000026
  endloop
endfacet
facet normal -1.0 0.0 0.0
  outer loop
    vertex 313.0000000000004 35.000000000000014 -1.0000000000000253
    vertex 313.0000000000004 34.000000000000014 -2.5379698342931078e-14
    vertex 313.0000000000004 43.000000000000014 -2.6084689963568052e-14
  endloop
endfacet
facet normal -1.0 0.0 0.0
  outer loop
    vertex 313.0000000000004 35.000000000000014 -1.0000000000000253
    vertex 313.0000000000004 43.000000000000014 -2.6084689963568052e-14
    vertex 313.0000000000004 42.00000000000002 -1.0000000000000258
  endloop
endfacet
facet normal -1.0 0.0 0.0
  outer loop
    vertex 313.0000000000004 42.00000000000002 -1.0000000000000258
    vertex 313.0000000000004 43.000000000000014 -2.6084689963568052e-14
    vertex 313.0000000000004 42.00000000000002 -4.000000000000026
  endloop
endfacet
facet normal -1.0 0.0 0.0
  outer loop
    vertex 313.0000000000004 42.00000000000002 -4.000000000000026
    vertex 313.0000000000004 43.000000000000014 -2.6084689963568052e-14
    vertex 313.0000000000004 43.000000000000014 -4.000000000000026
  endloop
endfacet
facet normal -1.0 0.0 0.0
  outer loop
    vertex 313.0000000000004 35.000000000000014 -4.000000000000026
    vertex 313.0000000000004 34.000000000000014 -4.000000000000026
    vertex 313.0000000000004 35.000000000000014 -1.0000000000000253
  endloop
endfacet
facet normal 0.0 1.0 0.0
  outer loop
    vertex 313.0000000000004 43.000000000000014 -2.6084689963568052e-14
    vertex 499.50000000000045 43.000000000000014 -4.000000000000026
    vertex 313.0000000000004 43.000000000000014 -4.000000000000026
  endloop
endfacet
facet normal 0.0 1.0 0.0
  outer loop
    vertex 499.50000000000045 43.000000000000014 -4.000000000000026
    vertex 313.0000000000004 43.000000000000014 -2.6084689963568052e-14
    vertex 499.50000000000045 43.000000000000014 -2.5379698342931078e-14
  endloop
endfacet
facet normal 5.292729884661965e-19 -8.812395257962197e-17 -1.0
  outer loop
    vertex 499.5000000000009 69.50000000000001 -4.000000000000025
    vertex 313.00000000000074 68.50000000000001 -4.000000000000025
    vertex 313.00000000000074 69.50000000000001 -4.000000000000026
  endloop
endfacet
facet normal 5.292729884661965e-19 -8.812395257962197e-17 -1.0
  outer loop
    vertex 313.00000000000074 68.50000000000001 -4.000000000000025
    vertex 499.5000000000009 69.50000000000001 -4.000000000000025
    vertex 499.5000000000009 68.50000000000001 -4.000000000000025
  endloop
endfacet
facet normal 0.0 1.0 0.0
  outer loop
    vertex 313.00000000000074 69.50000000000001 -1.0000000000000253
    vertex 499.5000000000009 69.50000000000001 -4.000000000000025
    vertex 313.00000000000074 69.50000000000001 -4.000000000000026
  endloop
endfacet
facet normal 0.0 1.0 0.0
  outer loop
    vertex 499.5000000000009 69.50000000000001 -4.000000000000025
    vertex 313.00000000000074 69.50000000000001 -1.0000000000000253
    vertex 499.5000000000009 69.50000000000001 -1.0000000000000249
  endloop
endfacet
facet normal 0.0 -1.0 0.0
  outer loop
    vertex 499.5000000000009 68.50000000000001 -2.5379698342931078e-14
    vertex 313.00000000000074 68.50000000000001 -4.000000000000025
    vertex 499.5000000000009 68.50000000000001 -4.000000000000025
  endloop
endfacet
facet normal 0.0 -1.0 0.0
  outer loop
    vertex 313.00000000000074 68.50000000000001 -4.000000000000025
    vertex 499.5000000000009 68.50000000000001 -2.5379698342931078e-14
    vertex 313.00000000000074 68.50000000000001 -2.5379698342931078e-14
  endloop
endfacet
facet normal -1.3366643115860952e-17 2.4728289764342765e-16 1.0
  outer loop
    vertex 499.5000000000009 68.50000000000001 -2.5379698342931078e-14
    vertex 313.00000000000074 77.50000000000001 -2.9609648066752924e-14
    vertex 313.00000000000074 68.50000000000001 -2.5379698342931078e-14
  endloop
endfacet
facet normal -1.3366643115860952e-17 2.4728289764342765e-16 1.0
  outer loop
    vertex 313.00000000000074 77.50000000000001 -2.9609648066752924e-14
    vertex 499.5000000000009 68.50000000000001 -2.5379698342931078e-14
    vertex 499.5000000000009 77.50000000000001 -2.5379698342931078e-14
  endloop
endfacet
facet normal 6.880548850060554e-18 -2.64371857738865e-16 -1.0
  outer loop
    vertex 499.5000000000009 76.50000000000001 -1.000000000000026
    vertex 313.00000000000074 69.50000000000001 -1.0000000000000253
    vertex 313.00000000000074 76.50000000000001 -1.0000000000000278
  endloop
endfacet
facet normal 6.880548850060554e-18 -2.64371857738865e-16 -1.0
  outer loop
    vertex 313.00000000000074 69.50000000000001 -1.0000000000000253
    vertex 499.5000000000009 76.50000000000001 -1.000000000000026
    vertex 499.5000000000009 69.50000000000001 -1.0000000000000249
  endloop
endfacet
facet normal -1.0 0.0 0.0
  outer loop
    vertex 313.00000000000074 68.50000000000001 -2.5379698342931078e-14
    vertex 313.00000000000074 69.50000000000001 -1.0000000000000253
    vertex 313.00000000000074 68.50000000000001 -4.000000000000025
  endloop
endfacet
facet normal -1.0 0.0 0.0
  outer loop
    vertex 313.00000000000074 69.50000000000001 -1.0000000000000253
    vertex 313.00000000000074 68.50000000000001 -2.5379698342931078e-14
    vertex 313.00000000000074 77.50000000000001 -2.9609648066752924e-14
  endloop
endfacet
facet normal -1.0 0.0 0.0
  outer loop
    vertex 313.00000000000074 69.50000000000001 -1.0000000000000253
    vertex 313.00000000000074 77.50000000000001 -2.9609648066752924e-14
    vertex 313.00000000000074 76.50000000000001 -1.0000000000000278
  endloop
endfacet
facet normal -1.0 0.0 0.0
  outer loop
    vertex 313.00000000000074 76.50000000000001 -1.0000000000000278
    vertex 313.00000000000074 77.50000000000001 -2.9609648066752924e-14
    vertex 313.00000000000074 76.50000000000003 -4.000000000000029
  endloop
endfacet
facet normal -1.0 0.0 0.0
  outer loop
    vertex 313.00000000000074 76.50000000000003 -4.000000000000029
    vertex 313.00000000000074 77.50000000000001 -2.9609648066752924e-14
    vertex 313.00000000000074 77.50000000000003 -4.000000000000025
  endloop
endfacet
facet normal -1.0 0.0 0.0
  outer loop
    vertex 313.00000000000074 69.50000000000001 -4.000000000000026
    vertex 313.00000000000074 68.50000000000001 -4.000000000000025
    vertex 313.00000000000074 69.50000000000001 -1.0000000000000253
  endloop
endfacet
facet normal 7.04319766627897e-32 -1.0 -3.7599553100638635e-15
  outer loop
    vertex 499.5000000000009 76.50000000000003 -4.000000000000025
    vertex 313.00000000000074 76.50000000000001 -1.0000000000000278
    vertex 313.00000000000074 76.50000000000003 -4.000000000000029
  endloop
endfacet
facet normal 7.04319766627897e-32 -1.0 -3.7599553100638635e-15
  outer loop
    vertex 313.00000000000074 76.50000000000001 -1.0000000000000278
    vertex 499.5000000000009 76.50000000000003 -4.000000000000025
    vertex 499.5000000000009 76.50000000000001 -1.000000000000026
  endloop
endfacet
facet normal 1.0 0.0 0.0
  outer loop
    vertex 499.5000000000009 69.50000000000001 -4.000000000000025
    vertex 499.5000000000009 68.50000000000001 -2.5379698342931078e-14
    vertex 499.5000000000009 68.50000000000001 -4.000000000000025
  endloop
endfacet
facet normal 1.0 0.0 0.0
  outer loop
    vertex 499.5000000000009 68.50000000000001 -2.5379698342931078e-14
    vertex 499.5000000000009 69.50000000000001 -4.000000000000025
    vertex 499.5000000000009 69.50000000000001 -1.0000000000000249
  endloop
endfacet
facet normal 1.0 0.0 0.0
  outer loop
    vertex 499.5000000000009 68.50000000000001 -2.5379698342931078e-14
    vertex 499.5000000000009 69.50000000000001 -1.0000000000000249
    vertex 499.5000000000009 77.50000000000001 -2.5379698342931078e-14
  endloop
endfacet
facet normal 1.0 0.0 0.0
  outer loop
    vertex 499.5000000000009 77.50000000000001 -2.5379698342931078e-14
    vertex 499.5000000000009 69.50000000000001 -1.0000000000000249
    vertex 499.5000000000009 76.50000000000001 -1.000000000000026
  endloop
endfacet
facet normal 1.0 0.0 0.0
  outer loop
    vertex 499.5000000000009 77.50000000000001 -2.5379698342931078e-14
    vertex 499.5000000000009 76.50000000000001 -1.000000000000026
    vertex 499.5000000000009 76.50000000000003 -4.000000000000025
  endloop
endfacet
facet normal 1.0 0.0 0.0
  outer loop
    vertex 499.5000000000009 77.50000000000001 -2.5379698342931078e-14
    vertex 499.5000000000009 76.50000000000003 -4.000000000000025
    vertex 499.5000000000009 77.50000000000003 -4.000000000000025
  endloop
endfacet
facet normal -5.231022139411439e-32 1.0 3.03688698120543e-15
  outer loop
    vertex 313.00000000000074 77.50000000000001 -2.9609648066752924e-14
    vertex 499.5000000000009 77.50000000000003 -4.000000000000025
    vertex 313.00000000000074 77.50000000000003 -4.000000000000025
  endloop
endfacet
facet normal -5.231022139411439e-32 1.0 3.03688698120543e-15
  outer loop
    vertex 499.5000000000009 77.50000000000003 -4.000000000000025
    vertex 313.00000000000074 77.50000000000001 -2.9609648066752924e-14
    vertex 499.5000000000009 77.50000000000001 -2.5379698342931078e-14
  endloop
endfacet
facet normal 1.2173278734722518e-17 2.026850909331305e-15 -1.0
  outer loop
    vertex 499.5000000000009 77.50000000000003 -4.000000000000025
    vertex 313.00000000000074 76.50000000000003 -4.000000000000029
    vertex 313.00000000000074 77.50000000000003 -4.000000000000025
  endloop
endfacet
facet normal 1.2173278734722518e-17 2.026850909331305e-15 -1.0
  outer loop
    vertex 313.00000000000074 76.50000000000003 -4.000000000000029
    vertex 499.5000000000009 77.50000000000003 -4.000000000000025
    vertex 499.5000000000009 76.50000000000003 -4.000000000000025
  endloop
endfacet
endsolid FCU_UNIT
