solid FCU_UNIT
facet normal 1.0585459769323935e-18 1.7624790515924394e-16 -1.0
  outer loop
    vertex -4.99999999999972 35.000000000000014 -4.000000000000038
    vertex -191.49999999999977 34.000000000000014 -4.000000000000038
    vertex -191.49999999999977 35.000000000000014 -4.000000000000038
  endloop
endfacet
facet normal 1.0585459769323935e-18 1.7624790515924394e-16 -1.0
  outer loop
    vertex -191.49999999999977 34.000000000000014 -4.000000000000038
    vertex -4.99999999999972 35.000000000000014 -4.000000000000038
    vertex -4.99999999999972 34.000000000000014 -4.000000000000038
  endloop
endfacet
facet normal 0.0 1.0 0.0
  outer loop
    vertex -191.49999999999977 35.000000000000014 -1.0000000000000373
    vertex -4.99999999999972 35.000000000000014 -4.000000000000038
    vertex -191.49999999999977 35.000000000000014 -4.000000000000038
  endloop
endfacet
facet normal 0.0 1.0 0.0
  outer loop
    vertex -4.99999999999972 35.000000000000014 -4.000000000000038
    vertex -191.49999999999977 35.000000000000014 -1.0000000000000373
    vertex -4.99999999999972 35.000000000000014 -1.0000000000000373
  endloop
endfacet
facet normal -2.1170919538647874e-18 3.9166201146498574e-17 1.0
  outer loop
    vertex -4.99999999999972 34.000000000000014 -3.736455589375964e-14
    vertex -191.49999999999977 43.000000000000014 -3.8069547514396615e-14
    vertex -191.49999999999977 34.000000000000014 -3.736455589375964e-14
  endloop
endfacet
facet normal -2.1170919538647874e-18 3.9166201146498574e-17 1.0
  outer loop
    vertex -191.49999999999977 43.000000000000014 -3.8069547514396615e-14
    vertex -4.99999999999972 34.000000000000014 -3.736455589375964e-14
    vertex -4.99999999999972 43.000000000000014 -3.736455589375964e-14
  endloop
endfacet
facet normal 0.0 -1.0 0.0
  outer loop
    vertex -4.99999999999972 34.000000000000014 -3.736455589375964e-14
    vertex -191.49999999999977 34.000000000000014 -4.000000000000038
    vertex -4.99999999999972 34.000000000000014 -4.000000000000038
  endloop
endfacet
facet normal 0.0 -1.0 0.0
  outer loop
    vertex -191.49999999999977 34.000000000000014 -4.000000000000038
    vertex -4.99999999999972 34.000000000000014 -3.736455589375964e-14
    vertex -191.49999999999977 34.000000000000014 -3.736455589375964e-14
  endloop
endfacet
facet normal 1.0585459769323933e-18 -5.0356544331212426e-17 -1.0
  outer loop
    vertex -4.99999999999972 42.00000000000002 -1.0000000000000377
    vertex -191.49999999999977 35.000000000000014 -1.0000000000000373
    vertex -191.49999999999977 42.00000000000002 -1.0000000000000377
  endloop
endfacet
facet normal 1.0585459769323933e-18 -5.0356544331212426e-17 -1.0
  outer loop
    vertex -191.49999999999977 35.000000000000014 -1.0000000000000373
    vertex -4.99999999999972 42.00000000000002 -1.0000000000000377
    vertex -4.99999999999972 35.000000000000014 -1.0000000000000373
  endloop
endfacet
facet normal 2.117091953864787e-18 3.5249581031848787e-16 -1.0
  outer loop
    vertex -4.99999999999972 43.000000000000014 -4.000000000000038
    vertex -191.49999999999977 42.00000000000002 -4.000000000000038
    vertex -191.49999999999977 43.000000000000014 -4.000000000000038
  endloop
endfacet
facet normal 2.117091953864787e-18 3.5249581031848787e-16 -1.0
  outer loop
    vertex -191.49999999999977 42.00000000000002 -4.000000000000038
    vertex -4.99999999999972 43.000000000000014 -4.000000000000038
    vertex -4.99999999999972 42.00000000000002 -4.000000000000038
  endloop
endfacet
facet normal 0.0 -1.0 0.0
  outer loop
    vertex -4.99999999999972 42.00000000000002 -1.0000000000000377
    vertex -191.49999999999977 42.00000000000002 -4.000000000000038
    vertex -4.99999999999972 42.00000000000002 -4.000000000000038
  endloop
endfacet
facet normal 0.0 -1.0 0.0
  outer loop
    vertex -191.49999999999977 42.00000000000002 -4.000000000000038
    vertex -4.99999999999972 42.00000000000002 -1.0000000000000377
    vertex -191.49999999999977 42.00000000000002 -1.0000000000000377
  endloop
endfacet
facet normal 1.0 0.0 0.0
  outer loop
    vertex -4.99999999999972 43.000000000000014 -4.000000000000038
    vertex -4.99999999999972 42.00000000000002 -1.0000000000000377
    vertex -4.99999999999972 42.00000000000002 -4.000000000000038
  endloop
endfacet
facet normal 1.0 0.0 0.0
  outer loop
    vertex -4.99999999999972 35.000000000000014 -4.000000000000038
    vertex -4.99999999999972 34.000000000000014 -3.736455589375964e-14
    vertex -4.99999999999972 34.000000000000014 -4.000000000000038
  endloop
endfacet
facet normal 1.0 0.0 0.0
  outer loop
    vertex -4.99999999999972 34.000000000000014 -3.736455589375964e-14
    vertex -4.99999999999972 35.000000000000014 -4.000000000000038
    vertex -4.99999999999972 35.000000000000014 -1.0000000000000373
  endloop
endfacet
facet normal 1.0 0.0 0.0
  outer loop
    vertex -4.99999999999972 34.000000000000014 -3.736455589375964e-14
    vertex -4.99999999999972 35.000000000000014 -1.0000000000000373
    vertex -4.99999999999972 43.000000000000014 -3.736455589375964e-14
  endloop
endfacet
facet normal 1.0 0.0 0.0
  outer loop
    vertex -4.99999999999972 43.000000000000014 -3.736455589375964e-14
    vertex -4.99999999999972 35.000000000000014 -1.0000000000000373
    vertex -4.99999999999972 42.00000000000002 -1.0000000000000377
  endloop
endfacet
facet normal 1.0 0.0 0.0
  outer loop
    vertex -4.99999999999972 43.000000000000014 -3.736455589375964e-14
    vertex -4.99999999999972 42.00000000000002 -1.0000000000000377
    vertex -4.99999999999972 43.000000000000014 -4.000000000000038
  endloop
endfacet
facet normal -1.0 0.0 0.0
  outer loop
    vertex -191.49999999999977 34.000000000000014 -3.736455589375964e-14
    vertex -191.49999999999977 35.000000000000014 -1.0000000000000373
    vertex -191.49999999999977 34.000000000000014 -4.000000000000038
  endloop
endfacet
facet normal -1.0 0.0 0.0
  outer loop
    vertex -191.49999999999977 35.000000000000014 -1.0000000000000373
    vertex -191.49999999999977 34.000000000000014 -3.736455589375964e-14
    vertex -191.49999999999977 43.000000000000014 -3.8069547514396615e-14
  endloop
endfacet
facet normal -1.0 0.0 0.0
  outer loop
    vertex -191.49999999999977 35.000000000000014 -1.0000000000000373
    vertex -191.49999999999977 43.000000000000014 -3.8069547514396615e-14
    vertex -191.49999999999977 42.00000000000002 -1.0000000000000377
  endloop
endfacet
facet normal -1.0 0.0 0.0
  outer loop
    vertex -191.49999999999977 42.00000000000002 -1.0000000000000377
    vertex -191.49999999999977 43.000000000000014 -3.8069547514396615e-14
    vertex -191.49999999999977 42.00000000000002 -4.000000000000038
  endloop
endfacet
facet normal -1.0 0.0 0.0
  outer loop
    vertex -191.49999999999977 42.00000000000002 -4.000000000000038
    vertex -191.49999999999977 43.000000000000014 -3.8069547514396615e-14
    vertex -191.49999999999977 43.000000000000014 -4.000000000000038
  endloop
endfacet
facet normal -1.0 0.0 0.0
  outer loop
    vertex -191.49999999999977 35.000000000000014 -4.000000000000038
    vertex -191.49999999999977 34.000000000000014 -4.000000000000038
    vertex -191.49999999999977 35.000000000000014 -1.0000000000000373
  endloop
endfacet
facet normal 0.0 1.0 0.0
  outer loop
    vertex -191.49999999999977 43.000000000000014 -3.8069547514396615e-14
    vertex -4.99999999999972 43.000000000000014 -4.000000000000038
    vertex -191.49999999999977 43.000000000000014 -4.000000000000038
  endloop
endfacet
facet normal 0.0 1.0 0.0
  outer loop
    vertex -4.99999999999972 43.000000000000014 -4.000000000000038
    vertex -191.49999999999977 43.000000000000014 -3.8069547514396615e-14
    vertex -4.99999999999972 43.000000000000014 -3.736455589375964e-14
  endloop
endfacet
facet normal 5.292729884661965e-19 -8.812395257962197e-17 -1.0
  outer loop
    vertex -4.999999999999607 69.50000000000001 -4.000000000000037
    vertex -191.49999999999977 68.50000000000001 -4.000000000000037
    vertex -191.49999999999977 69.50000000000001 -4.000000000000038
  endloop
endfacet
facet normal 5.292729884661965e-19 -8.812395257962197e-17 -1.0
  outer loop
    vertex -191.49999999999977 68.50000000000001 -4.000000000000037
    vertex -4.999999999999607 69.50000000000001 -4.000000000000037
    vertex -4.999999999999607 68.50000000000001 -4.000000000000037
  endloop
endfacet
facet normal 0.0 1.0 0.0
  outer loop
    vertex -191.49999999999977 69.50000000000001 -1.0000000000000373
    vertex -4.999999999999607 69.50000000000001 -4.000000000000037
    vertex -191.49999999999977 69.50000000000001 -4.000000000000038
  endloop
endfacet
facet normal 0.0 1.0 0.0
  outer loop
    vertex -4.999999999999607 69.50000000000001 -4.000000000000037
    vertex -191.49999999999977 69.50000000000001 -1.0000000000000373
    vertex -4.999999999999607 69.50000000000001 -1.0000000000000369
  endloop
endfacet
facet normal 0.0 -1.0 0.0
  outer loop
    vertex -4.999999999999607 68.50000000000001 -3.736455589375964e-14
    vertex -191.49999999999977 68.50000000000001 -4.000000000000037
    vertex -4.999999999999607 68.50000000000001 -4.000000000000037
  endloop
endfacet
facet normal 0.0 -1.0 0.0
  outer loop
    vertex -191.49999999999977 68.50000000000001 -4.000000000000037
    vertex -4.999999999999607 68.50000000000001 -3.736455589375964e-14
    vertex -191.49999999999977 68.50000000000001 -3.736455589375964e-14
  endloop
endfacet
facet normal -1.3366643115860952e-17 2.4728289764342765e-16 1.0
  outer loop
    vertex -4.999999999999607 68.50000000000001 -3.736455589375964e-14
    vertex -191.49999999999977 77.50000000000001 -4.159450561758149e-14
    vertex -191.49999999999977 68.50000000000001 -3.736455589375964e-14
  endloop
endfacet
facet normal -1.3366643115860952e-17 2.4728289764342765e-16 1.0
  outer loop
    vertex -191.49999999999977 77.50000000000001 -4.159450561758149e-14
    vertex -4.999999999999607 68.50000000000001 -3.736455589375964e-14
    vertex -4.999999999999607 77.50000000000001 -3.736455589375964e-14
  endloop
endfacet
facet normal 6.880548850060554e-18 -2.64371857738865e-16 -1.0
  outer loop
    vertex -4.999999999999607 76.50000000000001 -1.000000000000038
    vertex -191.49999999999977 69.50000000000001 -1.0000000000000373
    vertex -191.49999999999977 76.50000000000001 -1.0000000000000397
  endloop
endfacet
facet normal 6.880548850060554e-18 -2.64371857738865e-16 -1.0
  outer loop
    vertex -191.49999999999977 69.50000000000001 -1.0000000000000373
    vertex -4.999999999999607 76.50000000000001 -1.000000000000038
    vertex -4.999999999999607 69.50000000000001 -1.0000000000000369
  endloop
endfacet
facet normal -1.0 0.0 0.0
  outer loop
    vertex -191.49999999999977 68.50000000000001 -3.736455589375964e-14
    vertex -191.49999999999977 69.50000000000001 -1.0000000000000373
    vertex -191.49999999999977 68.50000000000001 -4.000000000000037
  endloop
endfacet
facet normal -1.0 0.0 0.0
  outer loop
    vertex -191.49999999999977 69.50000000000001 -1.0000000000000373
    vertex -191.49999999999977 68.50000000000001 -3.736455589375964e-14
    vertex -191.49999999999977 77.50000000000001 -4.159450561758149e-14
  endloop
endfacet
facet normal -1.0 0.0 0.0
  outer loop
    vertex -191.49999999999977 69.50000000000001 -1.0000000000000373
    vertex -191.49999999999977 77.50000000000001 -4.159450561758149e-14
    vertex -191.49999999999977 76.50000000000001 -1.0000000000000397
  endloop
endfacet
facet normal -1.0 0.0 0.0
  outer loop
    vertex -191.49999999999977 76.50000000000001 -1.0000000000000397
    vertex -191.49999999999977 77.50000000000001 -4.159450561758149e-14
    vertex -191.49999999999977 76.50000000000003 -4.000000000000042
  endloop
endfacet
facet normal -1.0 0.0 0.0
  outer loop
    vertex -191.49999999999977 76.50000000000003 -4.000000000000042
    vertex -191.49999999999977 77.50000000000001 -4.159450561758149e-14
    vertex -191.49999999999977 77.50000000000003 -4.000000000000037
  endloop
endfacet
facet normal -1.0 0.0 0.0
  outer loop
    vertex -191.49999999999977 69.50000000000001 -4.000000000000038
    vertex -191.49999999999977 68.50000000000001 -4.000000000000037
    vertex -191.49999999999977 69.50000000000001 -1.0000000000000373
  endloop
endfacet
facet normal 7.04319766627897e-32 -1.0 -3.7599553100638635e-15
  outer loop
    vertex -4.999999999999607 76.50000000000003 -4.000000000000037
    vertex -191.49999999999977 76.50000000000001 -1.0000000000000397
    vertex -191.49999999999977 76.50000000000003 -4.000000000000042
  endloop
endfacet
facet normal 7.04319766627897e-32 -1.0 -3.7599553100638635e-15
  outer loop
    vertex -191.49999999999977 76.50000000000001 -1.0000000000000397
    vertex -4.999999999999607 76.50000000000003 -4.000000000000037
    vertex -4.999999999999607 76.50000000000001 -1.000000000000038
  endloop
endfacet
facet normal 1.0 0.0 0.0
  outer loop
    vertex -4.999999999999607 69.50000000000001 -4.000000000000037
    vertex -4.999999999999607 68.50000000000001 -3.736455589375964e-14
    vertex -4.999999999999607 68.50000000000001 -4.000000000000037
  endloop
endfacet
facet normal 1.0 0.0 0.0
  outer loop
    vertex -4.999999999999607 68.50000000000001 -3.736455589375964e-14
    vertex -4.999999999999607 69.50000000000001 -4.000000000000037
    vertex -4.999999999999607 69.50000000000001 -1.0000000000000369
  endloop
endfacet
facet normal 1.0 0.0 0.0
  outer loop
    vertex -4.999999999999607 68.50000000000001 -3.736455589375964e-14
    vertex -4.999999999999607 69.50000000000001 -1.0000000000000369
    vertex -4.999999999999607 77.50000000000001 -3.736455589375964e-14
  endloop
endfacet
facet normal 1.0 0.0 0.0
  outer loop
    vertex -4.999999999999607 77.50000000000001 -3.736455589375964e-14
    vertex -4.999999999999607 69.50000000000001 -1.0000000000000369
    vertex -4.999999999999607 76.50000000000001 -1.000000000000038
  endloop
endfacet
facet normal 1.0 0.0 0.0
  outer loop
    vertex -4.999999999999607 77.50000000000001 -3.736455589375964e-14
    vertex -4.999999999999607 76.50000000000001 -1.000000000000038
    vertex -4.999999999999607 76.50000000000003 -4.000000000000037
  endloop
endfacet
facet normal 1.0 0.0 0.0
  outer loop
    vertex -4.999999999999607 77.50000000000001 -3.736455589375964e-14
    vertex -4.999999999999607 76.50000000000003 -4.000000000000037
    vertex -4.999999999999607 77.50000000000003 -4.000000000000037
  endloop
endfacet
facet normal -5.231022139411439e-32 1.0 3.03688698120543e-15
  outer loop
    vertex -191.49999999999977 77.50000000000001 -4.159450561758149e-14
    vertex -4.999999999999607 77.50000000000003 -4.000000000000037
    vertex -191.49999999999977 77.50000000000003 -4.000000000000037
  endloop
endfacet
facet normal -5.231022139411439e-32 1.0 3.03688698120543e-15
  outer loop
    vertex -4.999999999999607 77.50000000000003 -4.000000000000037
    vertex -191.49999999999977 77.50000000000001 -4.159450561758149e-14
    vertex -4.999999999999607 77.50000000000001 -3.736455589375964e-14
  endloop
endfacet
facet normal 1.2173278734722518e-17 2.026850909331305e-15 -1.0
  outer loop
    vertex -4.999999999999607 77.50000000000003 -4.000000000000037
    vertex -191.49999999999977 76.50000000000003 -4.000000000000042
    vertex -191.49999999999977 77.50000000000003 -4.000000000000037
  endloop
endfacet
facet normal 1.2173278734722518e-17 2.026850909331305e-15 -1.0
  outer loop
    vertex -191.49999999999977 76.50000000000003 -4.000000000000042
    vertex -4.999999999999607 77.50000000000003 -4.000000000000037
    vertex -4.999999999999607 76.50000000000003 -4.000000000000037
  endloop
endfacet
endsolid FCU_UNIT
