solid EVIS_V4b_Backlighting_Support
facet normal 0.0 0.0 -1.0
  outer loop
    vertex 180.0 10.0 0.0
    vertex 0.0 0.0 0.0
    vertex 0.0 10.0 0.0
  endloop
endfacet
facet normal 0.0 0.0 -1.0
  outer loop
    vertex 0.0 0.0 0.0
    vertex 180.0 10.0 0.0
    vertex 180.0 0.0 0.0
  endloop
endfacet
facet normal 0.0 0.0 1.0
  outer loop
    vertex 180.0 9.0 1.9999999999999998
    vertex 0.0 10.0 1.9999999999999998
    vertex 0.0 9.0 1.9999999999999998
  endloop
endfacet
facet normal 0.0 0.0 1.0
  outer loop
    vertex 0.0 10.0 1.9999999999999998
    vertex 180.0 9.0 1.9999999999999998
    vertex 180.0 10.0 1.9999999999999998
  endloop
endfacet
facet normal 0.0 1.0 0.0
  outer loop
    vertex 0.0 10.0 1.9999999999999998
    vertex 180.0 10.0 0.0
    vertex 0.0 10.0 0.0
  endloop
endfacet
facet normal 0.0 1.0 0.0
  outer loop
    vertex 180.0 10.0 0.0
    vertex 0.0 10.0 1.9999999999999998
    vertex 180.0 10.0 1.9999999999999998
  endloop
endfacet
facet normal 0.0 -1.0 0.0
  outer loop
    vertex 180.0 9.0 1.9999999999999998
    vertex 0.0 9.0 0.9999999999999999
    vertex 180.0 9.0 0.9999999999999999
  endloop
endfacet
facet normal 0.0 -1.0 0.0
  outer loop
    vertex 0.0 9.0 0.9999999999999999
    vertex 180.0 9.0 1.9999999999999998
    vertex 0.0 9.0 1.9999999999999998
  endloop
endfacet
facet normal 0.0 0.0 1.0
  outer loop
    vertex 180.0 0.9999999999999998 0.9999999999999999
    vertex 0.0 9.0 0.9999999999999999
    vertex 0.0 0.9999999999999998 0.9999999999999999
  endloop
endfacet
facet normal 0.0 0.0 1.0
  outer loop
    vertex 0.0 9.0 0.9999999999999999
    vertex 180.0 0.9999999999999998 0.9999999999999999
    vertex 180.0 9.0 0.9999999999999999
  endloop
endfacet
facet normal 0.0 0.0 1.0
  outer loop
    vertex 180.0 0.0 1.9999999999999998
    vertex 0.0 0.9999999999999998 1.9999999999999998
    vertex 0.0 0.0 1.9999999999999998
  endloop
endfacet
facet normal 0.0 0.0 1.0
  outer loop
    vertex 0.0 0.9999999999999998 1.9999999999999998
    vertex 180.0 0.0 1.9999999999999998
    vertex 180.0 0.9999999999999998 1.9999999999999998
  endloop
endfacet
facet normal 1.0 0.0 0.0
  outer loop
    vertex 180.0 0.0 0.0
    vertex 180.0 0.9999999999999998 0.9999999999999999
    vertex 180.0 0.0 1.9999999999999998
  endloop
endfacet
facet normal 1.0 0.0 0.0
  outer loop
    vertex 180.0 0.9999999999999998 0.9999999999999999
    vertex 180.0 0.0 0.0
    vertex 180.0 10.0 0.0
  endloop
endfacet
facet normal 1.0 0.0 0.0
  outer loop
    vertex 180.0 0.9999999999999998 0.9999999999999999
    vertex 180.0 10.0 0.0
    vertex 180.0 9.0 0.9999999999999999
  endloop
endfacet
facet normal 1.0 0.0 0.0
  outer loop
    vertex 180.0 9.0 0.9999999999999999
    vertex 180.0 10.0 0.0
    vertex 180.0 9.0 1.9999999999999998
  endloop
endfacet
facet normal 1.0 0.0 0.0
  outer loop
    vertex 180.0 9.0 1.9999999999999998
    vertex 180.0 10.0 0.0
    vertex 180.0 10.0 1.9999999999999998
  endloop
endfacet
facet normal 1.0 0.0 0.0
  outer loop
    vertex 180.0 0.9999999999999998 1.9999999999999998
    vertex 180.0 0.0 1.9999999999999998
    vertex 180.0 0.9999999999999998 0.9999999999999999
  endloop
endfacet
facet normal 0.0 1.0 0.0
  outer loop
    vertex 0.0 0.9999999999999998 1.9999999999999998
    vertex 180.0 0.9999999999999998 0.9999999999999999
    vertex 0.0 0.9999999999999998 0.9999999999999999
  endloop
endfacet
facet normal 0.0 1.0 0.0
  outer loop
    vertex 180.0 0.9999999999999998 0.9999999999999999
    vertex 0.0 0.9999999999999998 1.9999999999999998
    vertex 180.0 0.9999999999999998 1.9999999999999998
  endloop
endfacet
facet normal -1.0 0.0 0.0
  outer loop
    vertex 0.0 10.0 1.9999999999999998
    vertex 0.0 9.0 0.9999999999999999
    vertex 0.0 9.0 1.9999999999999998
  endloop
endfacet
facet normal -1.0 0.0 0.0
  outer loop
    vertex 0.0 0.9999999999999998 1.9999999999999998
    vertex 0.0 0.0 0.0
    vertex 0.0 0.0 1.9999999999999998
  endloop
endfacet
facet normal -1.0 0.0 0.0
  outer loop
    vertex 0.0 0.0 0.0
    vertex 0.0 0.9999999999999998 1.9999999999999998
    vertex 0.0 0.9999999999999998 0.9999999999999999
  endloop
endfacet
facet normal -1.0 0.0 0.0
  outer loop
    vertex 0.0 0.0 0.0
    vertex 0.0 0.9999999999999998 0.9999999999999999
    vertex 0.0 10.0 0.0
  endloop
endfacet
facet normal -1.0 0.0 0.0
  outer loop
    vertex 0.0 10.0 0.0
    vertex 0.0 0.9999999999999998 0.9999999999999999
    vertex 0.0 9.0 0.9999999999999999
  endloop
endfacet
facet normal -1.0 0.0 0.0
  outer loop
    vertex 0.0 10.0 0.0
    vertex 0.0 9.0 0.9999999999999999
    vertex 0.0 10.0 1.9999999999999998
  endloop
endfacet
facet normal 0.0 -1.0 0.0
  outer loop
    vertex 180.0 0.0 1.9999999999999998
    vertex 0.0 0.0 0.0
    vertex 180.0 0.0 0.0
  endloop
endfacet
facet normal 0.0 -1.0 0.0
  outer loop
    vertex 0.0 0.0 0.0
    vertex 180.0 0.0 1.9999999999999998
    vertex 0.0 0.0 1.9999999999999998
  endloop
endfacet
endsolid EVIS_V4b_Backlighting_Support
