solid FCU_12mm_button_keeper
facet normal 0.0 0.0 1.0
  outer loop
    vertex 0.0 0.0 1.9999999999999998
    vertex 2.8044450422655887 5.247085729384874 1.9999999999999998
    vertex 0.0 13.6 1.9999999999999998
  endloop
endfacet
facet normal 0.0 0.0 1.0
  outer loop
    vertex 2.8044450422655887 5.247085729384874 1.9999999999999998
    vertex 0.0 0.0 1.9999999999999998
    vertex 3.403847577293369 3.799999999999997 1.9999999999999998
  endloop
endfacet
facet normal 0.0 0.0 1.0
  outer loop
    vertex 3.403847577293369 3.799999999999997 1.9999999999999998
    vertex 0.0 0.0 1.9999999999999998
    vertex 4.357359312880717 2.557359312880714 1.9999999999999998
  endloop
endfacet
facet normal 0.0 0.0 1.0
  outer loop
    vertex 4.357359312880717 2.557359312880714 1.9999999999999998
    vertex 0.0 0.0 1.9999999999999998
    vertex 5.600000000000009 1.6038475772933651 1.9999999999999998
  endloop
endfacet
facet normal 0.0 0.0 1.0
  outer loop
    vertex 5.600000000000009 1.6038475772933651 1.9999999999999998
    vertex 0.0 0.0 1.9999999999999998
    vertex 7.047085729384887 1.004445042265589 1.9999999999999998
  endloop
endfacet
facet normal 0.0 0.0 1.0
  outer loop
    vertex 7.047085729384887 1.004445042265589 1.9999999999999998
    vertex 0.0 0.0 1.9999999999999998
    vertex 8.600000000000001 0.8000000000000003 1.9999999999999998
  endloop
endfacet
facet normal 0.0 0.0 1.0
  outer loop
    vertex 8.600000000000001 0.8000000000000003 1.9999999999999998
    vertex 0.0 0.0 1.9999999999999998
    vertex 17.199999999999996 0.0 1.9999999999999998
  endloop
endfacet
facet normal 0.0 0.0 1.0
  outer loop
    vertex 0.0 13.6 1.9999999999999998
    vertex 2.8044450422655887 5.247085729384874 1.9999999999999998
    vertex 2.600000000000001 6.799999999999999 1.9999999999999998
  endloop
endfacet
facet normal 0.0 0.0 1.0
  outer loop
    vertex 8.600000000000001 0.8000000000000003 1.9999999999999998
    vertex 17.199999999999996 0.0 1.9999999999999998
    vertex 10.152914270615133 1.004445042265591 1.9999999999999998
  endloop
endfacet
facet normal 0.0 0.0 1.0
  outer loop
    vertex 10.152914270615133 1.004445042265591 1.9999999999999998
    vertex 17.199999999999996 0.0 1.9999999999999998
    vertex 11.600000000000001 1.6038475772933667 1.9999999999999998
  endloop
endfacet
facet normal 0.0 0.0 1.0
  outer loop
    vertex 11.600000000000001 1.6038475772933667 1.9999999999999998
    vertex 17.199999999999996 0.0 1.9999999999999998
    vertex 12.842640687119285 2.5573593128807115 1.9999999999999998
  endloop
endfacet
facet normal 0.0 0.0 1.0
  outer loop
    vertex 12.842640687119285 2.5573593128807115 1.9999999999999998
    vertex 17.199999999999996 0.0 1.9999999999999998
    vertex 13.79615242270663 3.8000000000000007 1.9999999999999998
  endloop
endfacet
facet normal 0.0 0.0 1.0
  outer loop
    vertex 13.79615242270663 3.8000000000000007 1.9999999999999998
    vertex 17.199999999999996 0.0 1.9999999999999998
    vertex 14.395554957734412 5.247085729384875 1.9999999999999998
  endloop
endfacet
facet normal 0.0 0.0 1.0
  outer loop
    vertex 14.395554957734412 5.247085729384875 1.9999999999999998
    vertex 17.199999999999996 0.0 1.9999999999999998
    vertex 14.599999999999996 6.800000000000002 1.9999999999999998
  endloop
endfacet
facet normal 0.0 0.0 1.0
  outer loop
    vertex 0.0 13.6 1.9999999999999998
    vertex 8.600000000000001 12.800000000000002 1.9999999999999998
    vertex 17.199999999999996 13.6 1.9999999999999998
  endloop
endfacet
facet normal 0.0 0.0 1.0
  outer loop
    vertex 8.600000000000001 12.800000000000002 1.9999999999999998
    vertex 0.0 13.6 1.9999999999999998
    vertex 7.047085729384876 12.59555495773441 1.9999999999999998
  endloop
endfacet
facet normal 0.0 0.0 1.0
  outer loop
    vertex 7.047085729384876 12.59555495773441 1.9999999999999998
    vertex 0.0 13.6 1.9999999999999998
    vertex 5.599999999999995 11.996152422706631 1.9999999999999998
  endloop
endfacet
facet normal 0.0 0.0 1.0
  outer loop
    vertex 5.599999999999995 11.996152422706631 1.9999999999999998
    vertex 0.0 13.6 1.9999999999999998
    vertex 4.357359312880711 11.042640687119281 1.9999999999999998
  endloop
endfacet
facet normal 0.0 0.0 1.0
  outer loop
    vertex 4.357359312880711 11.042640687119281 1.9999999999999998
    vertex 0.0 13.6 1.9999999999999998
    vertex 3.403847577293369 9.799999999999995 1.9999999999999996
  endloop
endfacet
facet normal 0.0 0.0 1.0
  outer loop
    vertex 3.403847577293369 9.799999999999995 1.9999999999999996
    vertex 0.0 13.6 1.9999999999999998
    vertex 2.8044450422655913 8.352914270615123 1.9999999999999998
  endloop
endfacet
facet normal 0.0 0.0 1.0
  outer loop
    vertex 2.8044450422655913 8.352914270615123 1.9999999999999998
    vertex 0.0 13.6 1.9999999999999998
    vertex 2.600000000000001 6.799999999999999 1.9999999999999998
  endloop
endfacet
facet normal 0.0 0.0 1.0
  outer loop
    vertex 17.199999999999996 13.6 1.9999999999999998
    vertex 8.600000000000001 12.800000000000002 1.9999999999999998
    vertex 10.152914270615126 12.59555495773441 1.9999999999999998
  endloop
endfacet
facet normal 0.0 0.0 1.0
  outer loop
    vertex 17.199999999999996 13.6 1.9999999999999998
    vertex 10.152914270615126 12.59555495773441 1.9999999999999998
    vertex 11.600000000000001 11.996152422706635 1.9999999999999998
  endloop
endfacet
facet normal 0.0 0.0 1.0
  outer loop
    vertex 17.199999999999996 13.6 1.9999999999999998
    vertex 11.600000000000001 11.996152422706635 1.9999999999999998
    vertex 12.842640687119285 11.04264068711929 1.9999999999999998
  endloop
endfacet
facet normal 0.0 0.0 1.0
  outer loop
    vertex 17.199999999999996 13.6 1.9999999999999998
    vertex 12.842640687119285 11.04264068711929 1.9999999999999998
    vertex 13.79615242270663 9.800000000000008 1.9999999999999998
  endloop
endfacet
facet normal 0.0 0.0 1.0
  outer loop
    vertex 17.199999999999996 13.6 1.9999999999999998
    vertex 13.79615242270663 9.800000000000008 1.9999999999999998
    vertex 14.395554957734404 8.35291427061513 1.9999999999999998
  endloop
endfacet
facet normal 0.0 0.0 1.0
  outer loop
    vertex 17.199999999999996 13.6 1.9999999999999998
    vertex 14.395554957734404 8.35291427061513 1.9999999999999998
    vertex 14.599999999999996 6.800000000000002 1.9999999999999998
  endloop
endfacet
facet normal 0.0 0.0 1.0
  outer loop
    vertex 17.199999999999996 13.6 1.9999999999999998
    vertex 14.599999999999996 6.800000000000002 1.9999999999999998
    vertex 17.199999999999996 0.0 1.9999999999999998
  endloop
endfacet
facet normal 1.0 0.0 0.0
  outer loop
    vertex 17.199999999999996 13.6 0.0
    vertex 17.199999999999996 0.0 1.9999999999999998
    vertex 17.199999999999996 0.0 0.0
  endloop
endfacet
facet normal 1.0 0.0 0.0
  outer loop
    vertex 17.199999999999996 0.0 1.9999999999999998
    vertex 17.199999999999996 13.6 0.0
    vertex 17.199999999999996 13.6 1.9999999999999998
  endloop
endfacet
facet normal 0.0 1.0 0.0
  outer loop
    vertex 0.0 13.6 1.9999999999999998
    vertex 17.199999999999996 13.6 0.0
    vertex 0.0 13.6 0.0
  endloop
endfacet
facet normal 0.0 1.0 0.0
  outer loop
    vertex 17.199999999999996 13.6 0.0
    vertex 0.0 13.6 1.9999999999999998
    vertex 17.199999999999996 13.6 1.9999999999999998
  endloop
endfacet
facet normal -1.0 -0.0 -0.0
  outer loop
    vertex 0.0 13.6 1.9999999999999998
    vertex 0.0 0.0 0.0
    vertex 0.0 0.0 1.9999999999999998
  endloop
endfacet
facet normal -1.0 -0.0 -0.0
  outer loop
    vertex 0.0 0.0 0.0
    vertex 0.0 13.6 1.9999999999999998
    vertex 0.0 13.6 0.0
  endloop
endfacet
facet normal 0.0 0.0 -1.0
  outer loop
    vertex 0.0 13.6 0.0
    vertex 2.8044450422655913 8.352914270615122 0.0
    vertex 0.0 0.0 0.0
  endloop
endfacet
facet normal 0.0 0.0 -1.0
  outer loop
    vertex 2.8044450422655913 8.352914270615122 0.0
    vertex 0.0 13.6 0.0
    vertex 3.403847577293369 9.799999999999995 0.0
  endloop
endfacet
facet normal 0.0 0.0 -1.0
  outer loop
    vertex 3.403847577293369 9.799999999999995 0.0
    vertex 0.0 13.6 0.0
    vertex 4.357359312880711 11.042640687119281 0.0
  endloop
endfacet
facet normal 0.0 0.0 -1.0
  outer loop
    vertex 4.357359312880711 11.042640687119281 0.0
    vertex 0.0 13.6 0.0
    vertex 5.599999999999995 11.996152422706631 0.0
  endloop
endfacet
facet normal 0.0 0.0 -1.0
  outer loop
    vertex 5.599999999999995 11.996152422706631 0.0
    vertex 0.0 13.6 0.0
    vertex 7.047085729384876 12.59555495773441 0.0
  endloop
endfacet
facet normal 0.0 0.0 -1.0
  outer loop
    vertex 7.047085729384876 12.59555495773441 0.0
    vertex 0.0 13.6 0.0
    vertex 8.600000000000001 12.800000000000002 0.0
  endloop
endfacet
facet normal 0.0 0.0 -1.0
  outer loop
    vertex 8.600000000000001 12.800000000000002 0.0
    vertex 0.0 13.6 0.0
    vertex 17.199999999999996 13.6 0.0
  endloop
endfacet
facet normal 0.0 0.0 -1.0
  outer loop
    vertex 0.0 0.0 0.0
    vertex 2.8044450422655913 8.352914270615122 0.0
    vertex 2.600000000000001 6.800000000000002 0.0
  endloop
endfacet
facet normal 0.0 0.0 -1.0
  outer loop
    vertex 8.600000000000001 12.800000000000002 0.0
    vertex 17.199999999999996 13.6 0.0
    vertex 10.152914270615126 12.59555495773441 0.0
  endloop
endfacet
facet normal 0.0 0.0 -1.0
  outer loop
    vertex 10.152914270615126 12.59555495773441 0.0
    vertex 17.199999999999996 13.6 0.0
    vertex 11.600000000000007 11.996152422706631 0.0
  endloop
endfacet
facet normal 0.0 0.0 -1.0
  outer loop
    vertex 11.600000000000007 11.996152422706631 0.0
    vertex 17.199999999999996 13.6 0.0
    vertex 12.842640687119298 11.042640687119283 0.0
  endloop
endfacet
facet normal 0.0 0.0 -1.0
  outer loop
    vertex 12.842640687119298 11.042640687119283 0.0
    vertex 17.199999999999996 13.6 0.0
    vertex 13.79615242270663 9.800000000000006 0.0
  endloop
endfacet
facet normal 0.0 0.0 -1.0
  outer loop
    vertex 13.79615242270663 9.800000000000006 0.0
    vertex 17.199999999999996 13.6 0.0
    vertex 14.395554957734412 8.352914270615132 0.0
  endloop
endfacet
facet normal 0.0 0.0 -1.0
  outer loop
    vertex 14.395554957734412 8.352914270615132 0.0
    vertex 17.199999999999996 13.6 0.0
    vertex 14.599999999999996 6.800000000000002 0.0
  endloop
endfacet
facet normal 0.0 0.0 -1.0
  outer loop
    vertex 0.0 0.0 0.0
    vertex 8.600000000000012 0.7999999999999993 0.0
    vertex 17.199999999999996 0.0 0.0
  endloop
endfacet
facet normal 0.0 0.0 -1.0
  outer loop
    vertex 8.600000000000012 0.7999999999999993 0.0
    vertex 0.0 0.0 0.0
    vertex 7.047085729384887 1.004445042265589 0.0
  endloop
endfacet
facet normal 0.0 0.0 -1.0
  outer loop
    vertex 7.047085729384887 1.004445042265589 0.0
    vertex 0.0 0.0 0.0
    vertex 5.600000000000001 1.6038475772933694 0.0
  endloop
endfacet
facet normal 0.0 0.0 -1.0
  outer loop
    vertex 5.600000000000001 1.6038475772933694 0.0
    vertex 0.0 0.0 0.0
    vertex 4.357359312880717 2.557359312880714 0.0
  endloop
endfacet
facet normal 0.0 0.0 -1.0
  outer loop
    vertex 4.357359312880717 2.557359312880714 0.0
    vertex 0.0 0.0 0.0
    vertex 3.4038475772933716 3.7999999999999985 0.0
  endloop
endfacet
facet normal 0.0 0.0 -1.0
  outer loop
    vertex 3.4038475772933716 3.7999999999999985 0.0
    vertex 0.0 0.0 0.0
    vertex 2.8044450422655913 5.2470857293848745 0.0
  endloop
endfacet
facet normal 0.0 0.0 -1.0
  outer loop
    vertex 2.8044450422655913 5.2470857293848745 0.0
    vertex 0.0 0.0 0.0
    vertex 2.600000000000001 6.800000000000002 0.0
  endloop
endfacet
facet normal 0.0 0.0 -1.0
  outer loop
    vertex 17.199999999999996 0.0 0.0
    vertex 8.600000000000012 0.7999999999999993 0.0
    vertex 10.152914270615133 1.0044450422655946 0.0
  endloop
endfacet
facet normal 0.0 0.0 -1.0
  outer loop
    vertex 17.199999999999996 0.0 0.0
    vertex 10.152914270615133 1.0044450422655946 0.0
    vertex 11.600000000000007 1.6038475772933736 0.0
  endloop
endfacet
facet normal 0.0 0.0 -1.0
  outer loop
    vertex 17.199999999999996 0.0 0.0
    vertex 11.600000000000007 1.6038475772933736 0.0
    vertex 12.842640687119285 2.557359312880714 0.0
  endloop
endfacet
facet normal 0.0 0.0 -1.0
  outer loop
    vertex 17.199999999999996 0.0 0.0
    vertex 12.842640687119285 2.557359312880714 0.0
    vertex 13.79615242270663 3.8000000000000003 0.0
  endloop
endfacet
facet normal 0.0 0.0 -1.0
  outer loop
    vertex 17.199999999999996 0.0 0.0
    vertex 13.79615242270663 3.8000000000000003 0.0
    vertex 14.395554957734412 5.247085729384875 0.0
  endloop
endfacet
facet normal 0.0 0.0 -1.0
  outer loop
    vertex 17.199999999999996 0.0 0.0
    vertex 14.395554957734412 5.247085729384875 0.0
    vertex 14.599999999999996 6.800000000000002 0.0
  endloop
endfacet
facet normal 0.0 0.0 -1.0
  outer loop
    vertex 17.199999999999996 0.0 0.0
    vertex 14.599999999999996 6.800000000000002 0.0
    vertex 17.199999999999996 13.6 0.0
  endloop
endfacet
facet normal 0.0 -1.0 0.0
  outer loop
    vertex 17.199999999999996 0.0 1.9999999999999998
    vertex 0.0 0.0 0.0
    vertex 17.199999999999996 0.0 0.0
  endloop
endfacet
facet normal 0.0 -1.0 0.0
  outer loop
    vertex 0.0 0.0 0.0
    vertex 17.199999999999996 0.0 1.9999999999999998
    vertex 0.0 0.0 1.9999999999999998
  endloop
endfacet
facet normal 0.7933533402912349 0.6087614290087209 7.678472688318789e-16
  outer loop
    vertex 3.4038475772933716 3.7999999999999985 0.0
    vertex 4.357359312880717 2.557359312880714 1.9999999999999998
    vertex 4.357359312880717 2.557359312880714 0.0
  endloop
endfacet
facet normal 0.7933533402912349 0.6087614290087209 7.678472688318789e-16
  outer loop
    vertex 4.357359312880717 2.557359312880714 1.9999999999999998
    vertex 3.4038475772933716 3.7999999999999985 0.0
    vertex 3.403847577293369 3.799999999999997 1.9999999999999998
  endloop
endfacet
facet normal 0.6087614290087197 0.7933533402912358 -4.4504960598372905e-16
  outer loop
    vertex 4.357359312880717 2.557359312880714 1.9999999999999998
    vertex 5.600000000000001 1.6038475772933694 0.0
    vertex 4.357359312880717 2.557359312880714 0.0
  endloop
endfacet
facet normal 0.6087614290087197 0.7933533402912358 -4.4504960598372905e-16
  outer loop
    vertex 5.600000000000001 1.6038475772933694 0.0
    vertex 4.357359312880717 2.557359312880714 1.9999999999999998
    vertex 5.600000000000009 1.6038475772933651 1.9999999999999998
  endloop
endfacet
facet normal -0.6087614290087195 -0.7933533402912359 -6.232757482284978e-16
  outer loop
    vertex 12.842640687119285 11.04264068711929 1.9999999999999998
    vertex 11.600000000000007 11.996152422706631 0.0
    vertex 12.842640687119298 11.042640687119283 0.0
  endloop
endfacet
facet normal -0.6087614290087195 -0.7933533402912359 -6.232757482284978e-16
  outer loop
    vertex 11.600000000000007 11.996152422706631 0.0
    vertex 12.842640687119285 11.04264068711929 1.9999999999999998
    vertex 11.600000000000001 11.996152422706635 1.9999999999999998
  endloop
endfacet
facet normal -0.7933533402912363 -0.6087614290087193 -9.455230396472694e-16
  outer loop
    vertex 13.79615242270663 9.800000000000008 1.9999999999999998
    vertex 12.842640687119298 11.042640687119283 0.0
    vertex 13.79615242270663 9.800000000000006 0.0
  endloop
endfacet
facet normal -0.7933533402912363 -0.6087614290087193 -9.455230396472694e-16
  outer loop
    vertex 12.842640687119298 11.042640687119283 0.0
    vertex 13.79615242270663 9.800000000000008 1.9999999999999998
    vertex 12.842640687119285 11.04264068711929 1.9999999999999998
  endloop
endfacet
facet normal 0.9238795325112867 -0.38268343236508995 1.3130631213372945e-16
  outer loop
    vertex 3.403847577293369 9.799999999999995 0.0
    vertex 2.8044450422655913 8.352914270615123 1.9999999999999998
    vertex 2.8044450422655913 8.352914270615122 0.0
  endloop
endfacet
facet normal 0.9238795325112867 -0.38268343236508995 1.3130631213372945e-16
  outer loop
    vertex 2.8044450422655913 8.352914270615123 1.9999999999999998
    vertex 3.403847577293369 9.799999999999995 0.0
    vertex 3.403847577293369 9.799999999999995 1.9999999999999996
  endloop
endfacet
facet normal 0.9914448613738105 -0.130526192220052 -4.56504832702189e-17
  outer loop
    vertex 2.600000000000001 6.800000000000002 0.0
    vertex 2.8044450422655913 8.352914270615123 1.9999999999999998
    vertex 2.600000000000001 6.799999999999999 1.9999999999999998
  endloop
endfacet
facet normal 0.9914448613738105 -0.130526192220052 -4.56504832702189e-17
  outer loop
    vertex 2.8044450422655913 8.352914270615123 1.9999999999999998
    vertex 2.600000000000001 6.800000000000002 0.0
    vertex 2.8044450422655913 8.352914270615122 0.0
  endloop
endfacet
facet normal -0.9238795325112868 -0.38268343236508967 -1.4343960985264357e-15
  outer loop
    vertex 13.79615242270663 9.800000000000008 1.9999999999999998
    vertex 14.395554957734412 8.352914270615132 0.0
    vertex 14.395554957734404 8.35291427061513 1.9999999999999998
  endloop
endfacet
facet normal -0.9238795325112868 -0.38268343236508967 -1.4343960985264357e-15
  outer loop
    vertex 14.395554957734412 8.352914270615132 0.0
    vertex 13.79615242270663 9.800000000000008 1.9999999999999998
    vertex 13.79615242270663 9.800000000000006 0.0
  endloop
endfacet
facet normal -0.7933533402912364 0.6087614290087191 2.66136751538591e-16
  outer loop
    vertex 13.79615242270663 3.8000000000000007 1.9999999999999998
    vertex 12.842640687119285 2.557359312880714 0.0
    vertex 12.842640687119285 2.5573593128807115 1.9999999999999998
  endloop
endfacet
facet normal -0.7933533402912364 0.6087614290087191 2.66136751538591e-16
  outer loop
    vertex 12.842640687119285 2.557359312880714 0.0
    vertex 13.79615242270663 3.8000000000000007 1.9999999999999998
    vertex 13.79615242270663 3.8000000000000003 0.0
  endloop
endfacet
facet normal -0.9238795325112862 0.38268343236509117 -6.692022240839096e-17
  outer loop
    vertex 13.79615242270663 3.8000000000000007 1.9999999999999998
    vertex 14.395554957734412 5.247085729384875 0.0
    vertex 13.79615242270663 3.8000000000000003 0.0
  endloop
endfacet
facet normal -0.9238795325112862 0.38268343236509117 -6.692022240839096e-17
  outer loop
    vertex 14.395554957734412 5.247085729384875 0.0
    vertex 13.79615242270663 3.8000000000000007 1.9999999999999998
    vertex 14.395554957734412 5.247085729384875 1.9999999999999998
  endloop
endfacet
facet normal -0.9914448613738109 0.13052619222004808 0.0
  outer loop
    vertex 14.599999999999996 6.800000000000002 1.9999999999999998
    vertex 14.395554957734412 5.247085729384875 0.0
    vertex 14.395554957734412 5.247085729384875 1.9999999999999998
  endloop
endfacet
facet normal -0.9914448613738109 0.13052619222004808 0.0
  outer loop
    vertex 14.395554957734412 5.247085729384875 0.0
    vertex 14.599999999999996 6.800000000000002 1.9999999999999998
    vertex 14.599999999999996 6.800000000000002 0.0
  endloop
endfacet
facet normal 0.38268343236508856 0.9238795325112873 1.7439356773824712e-16
  outer loop
    vertex 5.600000000000009 1.6038475772933651 1.9999999999999998
    vertex 7.047085729384887 1.004445042265589 0.0
    vertex 5.600000000000001 1.6038475772933694 0.0
  endloop
endfacet
facet normal 0.38268343236508856 0.9238795325112873 1.7439356773824712e-16
  outer loop
    vertex 7.047085729384887 1.004445042265589 0.0
    vertex 5.600000000000009 1.6038475772933651 1.9999999999999998
    vertex 7.047085729384887 1.004445042265589 1.9999999999999998
  endloop
endfacet
facet normal -0.6087614290087205 0.7933533402912353 5.986868723966356e-16
  outer loop
    vertex 11.600000000000001 1.6038475772933667 1.9999999999999998
    vertex 12.842640687119285 2.557359312880714 0.0
    vertex 11.600000000000007 1.6038475772933736 0.0
  endloop
endfacet
facet normal -0.6087614290087205 0.7933533402912353 5.986868723966356e-16
  outer loop
    vertex 12.842640687119285 2.557359312880714 0.0
    vertex 11.600000000000001 1.6038475772933667 1.9999999999999998
    vertex 12.842640687119285 2.5573593128807115 1.9999999999999998
  endloop
endfacet
facet normal 0.9238795325112863 0.38268343236509095 1.568236543343217e-15
  outer loop
    vertex 3.4038475772933716 3.7999999999999985 0.0
    vertex 2.8044450422655887 5.247085729384874 1.9999999999999998
    vertex 3.403847577293369 3.799999999999997 1.9999999999999998
  endloop
endfacet
facet normal 0.9238795325112863 0.38268343236509095 1.568236543343217e-15
  outer loop
    vertex 2.8044450422655887 5.247085729384874 1.9999999999999998
    vertex 3.4038475772933716 3.7999999999999985 0.0
    vertex 2.8044450422655913 5.2470857293848745 0.0
  endloop
endfacet
facet normal -0.38268343236509067 -0.9238795325112865 1.1895504030108412e-16
  outer loop
    vertex 11.600000000000001 11.996152422706635 1.9999999999999998
    vertex 10.152914270615126 12.59555495773441 0.0
    vertex 11.600000000000007 11.996152422706631 0.0
  endloop
endfacet
facet normal -0.38268343236509067 -0.9238795325112865 1.1895504030108412e-16
  outer loop
    vertex 10.152914270615126 12.59555495773441 0.0
    vertex 11.600000000000001 11.996152422706635 1.9999999999999998
    vertex 10.152914270615126 12.59555495773441 1.9999999999999998
  endloop
endfacet
facet normal -0.13052619222005168 -0.9914448613738105 0.0
  outer loop
    vertex 10.152914270615126 12.59555495773441 1.9999999999999998
    vertex 8.600000000000001 12.800000000000002 0.0
    vertex 10.152914270615126 12.59555495773441 0.0
  endloop
endfacet
facet normal -0.13052619222005168 -0.9914448613738105 0.0
  outer loop
    vertex 8.600000000000001 12.800000000000002 0.0
    vertex 10.152914270615126 12.59555495773441 1.9999999999999998
    vertex 8.600000000000001 12.800000000000002 1.9999999999999998
  endloop
endfacet
facet normal 0.13052619222005235 -0.9914448613738103 0.0
  outer loop
    vertex 8.600000000000001 12.800000000000002 1.9999999999999998
    vertex 7.047085729384876 12.59555495773441 0.0
    vertex 8.600000000000001 12.800000000000002 0.0
  endloop
endfacet
facet normal 0.13052619222005235 -0.9914448613738103 0.0
  outer loop
    vertex 7.047085729384876 12.59555495773441 0.0
    vertex 8.600000000000001 12.800000000000002 1.9999999999999998
    vertex 7.047085729384876 12.59555495773441 1.9999999999999998
  endloop
endfacet
facet normal -0.3826834323650899 0.9238795325112867 1.6445869154100268e-15
  outer loop
    vertex 10.152914270615133 1.004445042265591 1.9999999999999998
    vertex 11.600000000000007 1.6038475772933736 0.0
    vertex 10.152914270615133 1.0044450422655946 0.0
  endloop
endfacet
facet normal -0.3826834323650899 0.9238795325112867 1.6445869154100268e-15
  outer loop
    vertex 11.600000000000007 1.6038475772933736 0.0
    vertex 10.152914270615133 1.004445042265591 1.9999999999999998
    vertex 11.600000000000001 1.6038475772933667 1.9999999999999998
  endloop
endfacet
facet normal -0.13052619222005332 0.9914448613738103 4.3287904365370964e-16
  outer loop
    vertex 8.600000000000001 0.8000000000000003 1.9999999999999998
    vertex 10.152914270615133 1.0044450422655946 0.0
    vertex 8.600000000000012 0.7999999999999993 0.0
  endloop
endfacet
facet normal -0.13052619222005332 0.9914448613738103 4.3287904365370964e-16
  outer loop
    vertex 10.152914270615133 1.0044450422655946 0.0
    vertex 8.600000000000001 0.8000000000000003 1.9999999999999998
    vertex 10.152914270615133 1.004445042265591 1.9999999999999998
  endloop
endfacet
facet normal 0.7933533402912364 -0.608761429008719 -9.683929885444472e-18
  outer loop
    vertex 4.357359312880711 11.042640687119281 0.0
    vertex 3.403847577293369 9.799999999999995 1.9999999999999996
    vertex 3.403847577293369 9.799999999999995 0.0
  endloop
endfacet
facet normal 0.7933533402912364 -0.608761429008719 -9.683929885444472e-18
  outer loop
    vertex 3.403847577293369 9.799999999999995 1.9999999999999996
    vertex 4.357359312880711 11.042640687119281 0.0
    vertex 4.357359312880711 11.042640687119281 1.9999999999999998
  endloop
endfacet
facet normal 0.9914448613738105 0.13052619222005074 8.347855149815606e-16
  outer loop
    vertex 2.8044450422655913 5.2470857293848745 0.0
    vertex 2.600000000000001 6.799999999999999 1.9999999999999998
    vertex 2.8044450422655887 5.247085729384874 1.9999999999999998
  endloop
endfacet
facet normal 0.9914448613738105 0.13052619222005074 8.347855149815606e-16
  outer loop
    vertex 2.600000000000001 6.799999999999999 1.9999999999999998
    vertex 2.8044450422655913 5.2470857293848745 0.0
    vertex 2.600000000000001 6.800000000000002 0.0
  endloop
endfacet
facet normal 0.13052619222005138 0.9914448613738105 -7.746045145486635e-17
  outer loop
    vertex 7.047085729384887 1.004445042265589 1.9999999999999998
    vertex 8.600000000000012 0.7999999999999993 0.0
    vertex 7.047085729384887 1.004445042265589 0.0
  endloop
endfacet
facet normal 0.13052619222005138 0.9914448613738105 -7.746045145486635e-17
  outer loop
    vertex 8.600000000000012 0.7999999999999993 0.0
    vertex 7.047085729384887 1.004445042265589 1.9999999999999998
    vertex 8.600000000000001 0.8000000000000003 1.9999999999999998
  endloop
endfacet
facet normal -0.9914448613738107 -0.13052619222004957 -1.486969096882247e-15
  outer loop
    vertex 14.395554957734404 8.35291427061513 1.9999999999999998
    vertex 14.599999999999996 6.800000000000002 0.0
    vertex 14.599999999999996 6.800000000000002 1.9999999999999998
  endloop
endfacet
facet normal -0.9914448613738107 -0.13052619222004957 -1.486969096882247e-15
  outer loop
    vertex 14.599999999999996 6.800000000000002 0.0
    vertex 14.395554957734404 8.35291427061513 1.9999999999999998
    vertex 14.395554957734412 8.352914270615132 0.0
  endloop
endfacet
facet normal 0.6087614290087224 -0.7933533402912338 0.0
  outer loop
    vertex 5.599999999999995 11.996152422706631 1.9999999999999998
    vertex 4.357359312880711 11.042640687119281 0.0
    vertex 5.599999999999995 11.996152422706631 0.0
  endloop
endfacet
facet normal 0.6087614290087224 -0.7933533402912338 0.0
  outer loop
    vertex 4.357359312880711 11.042640687119281 0.0
    vertex 5.599999999999995 11.996152422706631 1.9999999999999998
    vertex 4.357359312880711 11.042640687119281 1.9999999999999998
  endloop
endfacet
facet normal 0.38268343236508934 -0.9238795325112871 0.0
  outer loop
    vertex 7.047085729384876 12.59555495773441 1.9999999999999998
    vertex 5.599999999999995 11.996152422706631 0.0
    vertex 7.047085729384876 12.59555495773441 0.0
  endloop
endfacet
facet normal 0.38268343236508934 -0.9238795325112871 0.0
  outer loop
    vertex 5.599999999999995 11.996152422706631 0.0
    vertex 7.047085729384876 12.59555495773441 1.9999999999999998
    vertex 5.599999999999995 11.996152422706631 1.9999999999999998
  endloop
endfacet
endsolid FCU_12mm_button_keeper
