solid FCU_UNIT
facet normal 0.0 -1.0 -7.833240229299716e-17
  outer loop
    vertex 224.49999999999966 70.99999999999999 -4.000000000000001
    vertex 169.49999999999997 70.99999999999999 -5.000000000000001
    vertex 224.49999999999966 70.99999999999999 -5.000000000000001
  endloop
endfacet
facet normal 0.0 -1.0 -7.833240229299716e-17
  outer loop
    vertex 169.49999999999997 70.99999999999999 -5.000000000000001
    vertex 224.49999999999966 70.99999999999999 -4.000000000000001
    vertex 169.49999999999997 70.99999999999999 -4.000000000000001
  endloop
endfacet
facet normal -6.6334759448561575e-34 1.0 7.833240229299716e-17
  outer loop
    vertex 169.49999999999997 79.99999999999999 -4.000000000000001
    vertex 224.49999999999966 79.99999999999999 -4.999999999999999
    vertex 169.49999999999997 79.99999999999999 -5.000000000000001
  endloop
endfacet
facet normal -6.6334759448561575e-34 1.0 7.833240229299716e-17
  outer loop
    vertex 224.49999999999966 79.99999999999999 -4.999999999999999
    vertex 169.49999999999997 79.99999999999999 -4.000000000000001
    vertex 224.49999999999966 79.99999999999999 -3.9999999999999996
  endloop
endfacet
facet normal 4.234183907729575e-18 7.833240229299716e-17 -1.0
  outer loop
    vertex 224.49999999999966 79.99999999999999 -4.999999999999999
    vertex 169.49999999999997 70.99999999999999 -5.000000000000001
    vertex 169.49999999999997 79.99999999999999 -5.000000000000001
  endloop
endfacet
facet normal 4.234183907729575e-18 7.833240229299716e-17 -1.0
  outer loop
    vertex 169.49999999999997 70.99999999999999 -5.000000000000001
    vertex 224.49999999999966 79.99999999999999 -4.999999999999999
    vertex 224.49999999999966 70.99999999999999 -5.000000000000001
  endloop
endfacet
facet normal 0.0 -7.049916206369756e-16 1.0
  outer loop
    vertex 224.49999999999966 70.99999999999999 -4.000000000000001
    vertex 169.49999999999997 71.99999999999999 -4.0
    vertex 169.49999999999997 70.99999999999999 -4.000000000000001
  endloop
endfacet
facet normal 0.0 -7.049916206369756e-16 1.0
  outer loop
    vertex 169.49999999999997 71.99999999999999 -4.0
    vertex 224.49999999999966 70.99999999999999 -4.000000000000001
    vertex 224.49999999999966 71.99999999999999 -4.0
  endloop
endfacet
facet normal -5.292729884661969e-19 8.812395257962196e-17 1.0
  outer loop
    vertex 224.49999999999966 71.99999999999999 -1.0000000000000009
    vertex 169.49999999999997 72.99999999999999 -1.0000000000000009
    vertex 169.49999999999997 71.99999999999999 -1.0000000000000009
  endloop
endfacet
facet normal -5.292729884661969e-19 8.812395257962196e-17 1.0
  outer loop
    vertex 169.49999999999997 72.99999999999999 -1.0000000000000009
    vertex 224.49999999999966 71.99999999999999 -1.0000000000000009
    vertex 224.49999999999966 72.99999999999999 -1.0000000000000009
  endloop
endfacet
facet normal 0.0 -1.0 0.0
  outer loop
    vertex 224.49999999999966 71.99999999999999 -1.0000000000000009
    vertex 169.49999999999997 71.99999999999999 -4.0
    vertex 224.49999999999966 71.99999999999999 -4.0
  endloop
endfacet
facet normal 0.0 -1.0 0.0
  outer loop
    vertex 169.49999999999997 71.99999999999999 -4.0
    vertex 224.49999999999966 71.99999999999999 -1.0000000000000009
    vertex 169.49999999999997 71.99999999999999 -1.0000000000000009
  endloop
endfacet
facet normal 0.0 1.0 0.0
  outer loop
    vertex 169.49999999999997 72.99999999999999 -1.0000000000000009
    vertex 224.49999999999966 72.99999999999999 -4.000000000000001
    vertex 169.49999999999997 72.99999999999999 -4.000000000000001
  endloop
endfacet
facet normal 0.0 1.0 0.0
  outer loop
    vertex 224.49999999999966 72.99999999999999 -4.000000000000001
    vertex 169.49999999999997 72.99999999999999 -1.0000000000000009
    vertex 224.49999999999966 72.99999999999999 -1.0000000000000009
  endloop
endfacet
facet normal -2.117091953864788e-18 -2.11497486191092e-16 1.0
  outer loop
    vertex 224.49999999999966 72.99999999999999 -4.000000000000001
    vertex 169.49999999999997 77.99999999999999 -4.0
    vertex 169.49999999999997 72.99999999999999 -4.000000000000001
  endloop
endfacet
facet normal -2.117091953864788e-18 -2.11497486191092e-16 1.0
  outer loop
    vertex 169.49999999999997 77.99999999999999 -4.0
    vertex 224.49999999999966 72.99999999999999 -4.000000000000001
    vertex 224.49999999999966 77.99999999999999 -3.9999999999999996
  endloop
endfacet
facet normal -4.234183907729574e-18 -7.049916206369757e-16 1.0
  outer loop
    vertex 224.49999999999966 78.99999999999999 -4.000000000000001
    vertex 169.49999999999997 79.99999999999999 -4.000000000000001
    vertex 169.49999999999997 78.99999999999999 -4.000000000000001
  endloop
endfacet
facet normal -4.234183907729574e-18 -7.049916206369757e-16 1.0
  outer loop
    vertex 169.49999999999997 79.99999999999999 -4.000000000000001
    vertex 224.49999999999966 78.99999999999999 -4.000000000000001
    vertex 224.49999999999966 79.99999999999999 -3.9999999999999996
  endloop
endfacet
facet normal -5.292729884661968e-19 -8.812395257962197e-17 1.0
  outer loop
    vertex 224.49999999999966 77.99999999999999 -1.0000000000000009
    vertex 169.49999999999997 78.99999999999999 -1.0000000000000009
    vertex 169.49999999999997 77.99999999999999 -1.0000000000000009
  endloop
endfacet
facet normal -5.292729884661968e-19 -8.812395257962197e-17 1.0
  outer loop
    vertex 169.49999999999997 78.99999999999999 -1.0000000000000009
    vertex 224.49999999999966 77.99999999999999 -1.0000000000000009
    vertex 224.49999999999966 78.99999999999999 -1.0000000000000009
  endloop
endfacet
facet normal 0.0 -1.0 0.0
  outer loop
    vertex 224.49999999999966 77.99999999999999 -3.9999999999999996
    vertex 169.49999999999997 77.99999999999999 -1.0000000000000009
    vertex 169.49999999999997 77.99999999999999 -4.0
  endloop
endfacet
facet normal 0.0 -1.0 0.0
  outer loop
    vertex 169.49999999999997 77.99999999999999 -1.0000000000000009
    vertex 224.49999999999966 77.99999999999999 -3.9999999999999996
    vertex 224.49999999999966 77.99999999999999 -1.0000000000000009
  endloop
endfacet
facet normal -1.0 0.0 0.0
  outer loop
    vertex 169.49999999999997 72.99999999999999 -1.0000000000000009
    vertex 169.49999999999997 71.99999999999999 -4.0
    vertex 169.49999999999997 71.99999999999999 -1.0000000000000009
  endloop
endfacet
facet normal -1.0 0.0 0.0
  outer loop
    vertex 169.49999999999997 78.99999999999999 -1.0000000000000009
    vertex 169.49999999999997 77.99999999999999 -4.0
    vertex 169.49999999999997 77.99999999999999 -1.0000000000000009
  endloop
endfacet
facet normal -1.0 0.0 0.0
  outer loop
    vertex 169.49999999999997 71.99999999999999 -4.0
    vertex 169.49999999999997 70.99999999999999 -5.000000000000001
    vertex 169.49999999999997 70.99999999999999 -4.000000000000001
  endloop
endfacet
facet normal -1.0 0.0 0.0
  outer loop
    vertex 169.49999999999997 70.99999999999999 -5.000000000000001
    vertex 169.49999999999997 71.99999999999999 -4.0
    vertex 169.49999999999997 79.99999999999999 -5.000000000000001
  endloop
endfacet
facet normal -1.0 0.0 0.0
  outer loop
    vertex 169.49999999999997 79.99999999999999 -5.000000000000001
    vertex 169.49999999999997 71.99999999999999 -4.0
    vertex 169.49999999999997 72.99999999999999 -4.000000000000001
  endloop
endfacet
facet normal -1.0 0.0 0.0
  outer loop
    vertex 169.49999999999997 72.99999999999999 -4.000000000000001
    vertex 169.49999999999997 71.99999999999999 -4.0
    vertex 169.49999999999997 72.99999999999999 -1.0000000000000009
  endloop
endfacet
facet normal -1.0 0.0 0.0
  outer loop
    vertex 169.49999999999997 79.99999999999999 -5.000000000000001
    vertex 169.49999999999997 72.99999999999999 -4.000000000000001
    vertex 169.49999999999997 77.99999999999999 -4.0
  endloop
endfacet
facet normal -1.0 0.0 0.0
  outer loop
    vertex 169.49999999999997 79.99999999999999 -5.000000000000001
    vertex 169.49999999999997 77.99999999999999 -4.0
    vertex 169.49999999999997 78.99999999999999 -4.000000000000001
  endloop
endfacet
facet normal -1.0 0.0 0.0
  outer loop
    vertex 169.49999999999997 78.99999999999999 -4.000000000000001
    vertex 169.49999999999997 77.99999999999999 -4.0
    vertex 169.49999999999997 78.99999999999999 -1.0000000000000009
  endloop
endfacet
facet normal -1.0 0.0 0.0
  outer loop
    vertex 169.49999999999997 79.99999999999999 -5.000000000000001
    vertex 169.49999999999997 78.99999999999999 -4.000000000000001
    vertex 169.49999999999997 79.99999999999999 -4.000000000000001
  endloop
endfacet
facet normal 0.0 1.0 0.0
  outer loop
    vertex 169.49999999999997 78.99999999999999 -1.0000000000000009
    vertex 224.49999999999966 78.99999999999999 -4.000000000000001
    vertex 169.49999999999997 78.99999999999999 -4.000000000000001
  endloop
endfacet
facet normal 0.0 1.0 0.0
  outer loop
    vertex 224.49999999999966 78.99999999999999 -4.000000000000001
    vertex 169.49999999999997 78.99999999999999 -1.0000000000000009
    vertex 224.49999999999966 78.99999999999999 -1.0000000000000009
  endloop
endfacet
facet normal 1.0 0.0 0.0
  outer loop
    vertex 224.49999999999966 79.99999999999999 -4.999999999999999
    vertex 224.49999999999966 70.99999999999999 -4.000000000000001
    vertex 224.49999999999966 70.99999999999999 -5.000000000000001
  endloop
endfacet
facet normal 1.0 0.0 0.0
  outer loop
    vertex 224.49999999999966 70.99999999999999 -4.000000000000001
    vertex 224.49999999999966 79.99999999999999 -4.999999999999999
    vertex 224.49999999999966 71.99999999999999 -4.0
  endloop
endfacet
facet normal 1.0 0.0 0.0
  outer loop
    vertex 224.49999999999966 71.99999999999999 -4.0
    vertex 224.49999999999966 79.99999999999999 -4.999999999999999
    vertex 224.49999999999966 72.99999999999999 -4.000000000000001
  endloop
endfacet
facet normal 1.0 0.0 0.0
  outer loop
    vertex 224.49999999999966 71.99999999999999 -4.0
    vertex 224.49999999999966 72.99999999999999 -4.000000000000001
    vertex 224.49999999999966 71.99999999999999 -1.0000000000000009
  endloop
endfacet
facet normal 1.0 0.0 0.0
  outer loop
    vertex 224.49999999999966 72.99999999999999 -4.000000000000001
    vertex 224.49999999999966 79.99999999999999 -4.999999999999999
    vertex 224.49999999999966 77.99999999999999 -3.9999999999999996
  endloop
endfacet
facet normal 1.0 0.0 0.0
  outer loop
    vertex 224.49999999999966 77.99999999999999 -3.9999999999999996
    vertex 224.49999999999966 79.99999999999999 -4.999999999999999
    vertex 224.49999999999966 78.99999999999999 -4.000000000000001
  endloop
endfacet
facet normal 1.0 0.0 0.0
  outer loop
    vertex 224.49999999999966 77.99999999999999 -3.9999999999999996
    vertex 224.49999999999966 78.99999999999999 -4.000000000000001
    vertex 224.49999999999966 77.99999999999999 -1.0000000000000009
  endloop
endfacet
facet normal 1.0 0.0 0.0
  outer loop
    vertex 224.49999999999966 78.99999999999999 -4.000000000000001
    vertex 224.49999999999966 79.99999999999999 -4.999999999999999
    vertex 224.49999999999966 79.99999999999999 -3.9999999999999996
  endloop
endfacet
facet normal 1.0 0.0 0.0
  outer loop
    vertex 224.49999999999966 78.99999999999999 -1.0000000000000009
    vertex 224.49999999999966 77.99999999999999 -1.0000000000000009
    vertex 224.49999999999966 78.99999999999999 -4.000000000000001
  endloop
endfacet
facet normal 1.0 0.0 0.0
  outer loop
    vertex 224.49999999999966 72.99999999999999 -1.0000000000000009
    vertex 224.49999999999966 71.99999999999999 -1.0000000000000009
    vertex 224.49999999999966 72.99999999999999 -4.000000000000001
  endloop
endfacet
facet normal 0.0 -1.0 -7.833240229299716e-17
  outer loop
    vertex 294.49999999999994 71.0 -4.00000000000001
    vertex 253.95309322209621 71.0 -5.000000000000009
    vertex 294.49999999999994 71.0 -5.000000000000009
  endloop
endfacet
facet normal 0.0 -1.0 -7.833240229299716e-17
  outer loop
    vertex 253.95309322209621 71.0 -5.000000000000009
    vertex 294.49999999999994 71.0 -4.00000000000001
    vertex 253.95309322209621 71.0 -4.00000000000001
  endloop
endfacet
facet normal -6.6334759448561575e-34 1.0 7.833240229299716e-17
  outer loop
    vertex 253.95309322209621 80.0 -4.00000000000001
    vertex 294.49999999999994 80.0 -5.000000000000008
    vertex 253.95309322209621 80.0 -5.000000000000009
  endloop
endfacet
facet normal -6.6334759448561575e-34 1.0 7.833240229299716e-17
  outer loop
    vertex 294.49999999999994 80.0 -5.000000000000008
    vertex 253.95309322209621 80.0 -4.00000000000001
    vertex 294.49999999999994 80.0 -4.000000000000008
  endloop
endfacet
facet normal 4.234183907729575e-18 7.833240229299716e-17 -1.0
  outer loop
    vertex 294.49999999999994 80.0 -5.000000000000008
    vertex 253.95309322209621 71.0 -5.000000000000009
    vertex 253.95309322209621 80.0 -5.000000000000009
  endloop
endfacet
facet normal 4.234183907729575e-18 7.833240229299716e-17 -1.0
  outer loop
    vertex 253.95309322209621 71.0 -5.000000000000009
    vertex 294.49999999999994 80.0 -5.000000000000008
    vertex 294.49999999999994 71.0 -5.000000000000009
  endloop
endfacet
facet normal 0.0 -7.049916206369756e-16 1.0
  outer loop
    vertex 294.49999999999994 71.0 -4.00000000000001
    vertex 253.95309322209621 71.99999999999999 -4.000000000000009
    vertex 253.95309322209621 71.0 -4.00000000000001
  endloop
endfacet
facet normal 0.0 -7.049916206369756e-16 1.0
  outer loop
    vertex 253.95309322209621 71.99999999999999 -4.000000000000009
    vertex 294.49999999999994 71.0 -4.00000000000001
    vertex 294.49999999999994 71.99999999999999 -4.000000000000009
  endloop
endfacet
facet normal -5.292729884661969e-19 8.812395257962196e-17 1.0
  outer loop
    vertex 294.49999999999994 71.99999999999999 -1.0000000000000095
    vertex 253.95309322209621 72.99999999999999 -1.0000000000000095
    vertex 253.95309322209621 71.99999999999999 -1.0000000000000095
  endloop
endfacet
facet normal -5.292729884661969e-19 8.812395257962196e-17 1.0
  outer loop
    vertex 253.95309322209621 72.99999999999999 -1.0000000000000095
    vertex 294.49999999999994 71.99999999999999 -1.0000000000000095
    vertex 294.49999999999994 72.99999999999999 -1.0000000000000095
  endloop
endfacet
facet normal 0.0 -1.0 0.0
  outer loop
    vertex 294.49999999999994 71.99999999999999 -1.0000000000000095
    vertex 253.95309322209621 71.99999999999999 -4.000000000000009
    vertex 294.49999999999994 71.99999999999999 -4.000000000000009
  endloop
endfacet
facet normal 0.0 -1.0 0.0
  outer loop
    vertex 253.95309322209621 71.99999999999999 -4.000000000000009
    vertex 294.49999999999994 71.99999999999999 -1.0000000000000095
    vertex 253.95309322209621 71.99999999999999 -1.0000000000000095
  endloop
endfacet
facet normal 0.0 1.0 0.0
  outer loop
    vertex 253.95309322209621 72.99999999999999 -1.0000000000000095
    vertex 294.49999999999994 72.99999999999999 -4.00000000000001
    vertex 253.95309322209621 72.99999999999999 -4.00000000000001
  endloop
endfacet
facet normal 0.0 1.0 0.0
  outer loop
    vertex 294.49999999999994 72.99999999999999 -4.00000000000001
    vertex 253.95309322209621 72.99999999999999 -1.0000000000000095
    vertex 294.49999999999994 72.99999999999999 -1.0000000000000095
  endloop
endfacet
facet normal -2.117091953864788e-18 -2.11497486191092e-16 1.0
  outer loop
    vertex 294.49999999999994 72.99999999999999 -4.00000000000001
    vertex 253.95309322209621 78.0 -4.000000000000009
    vertex 253.95309322209621 72.99999999999999 -4.00000000000001
  endloop
endfacet
facet normal -2.117091953864788e-18 -2.11497486191092e-16 1.0
  outer loop
    vertex 253.95309322209621 78.0 -4.000000000000009
    vertex 294.49999999999994 72.99999999999999 -4.00000000000001
    vertex 294.49999999999994 78.0 -4.000000000000008
  endloop
endfacet
facet normal -4.234183907729574e-18 -7.049916206369757e-16 1.0
  outer loop
    vertex 294.49999999999994 79.0 -4.00000000000001
    vertex 253.95309322209621 80.0 -4.00000000000001
    vertex 253.95309322209621 79.0 -4.00000000000001
  endloop
endfacet
facet normal -4.234183907729574e-18 -7.049916206369757e-16 1.0
  outer loop
    vertex 253.95309322209621 80.0 -4.00000000000001
    vertex 294.49999999999994 79.0 -4.00000000000001
    vertex 294.49999999999994 80.0 -4.000000000000008
  endloop
endfacet
facet normal -5.292729884661968e-19 -8.812395257962197e-17 1.0
  outer loop
    vertex 294.49999999999994 78.0 -1.0000000000000095
    vertex 253.95309322209621 79.0 -1.0000000000000095
    vertex 253.95309322209621 78.0 -1.0000000000000095
  endloop
endfacet
facet normal -5.292729884661968e-19 -8.812395257962197e-17 1.0
  outer loop
    vertex 253.95309322209621 79.0 -1.0000000000000095
    vertex 294.49999999999994 78.0 -1.0000000000000095
    vertex 294.49999999999994 79.0 -1.0000000000000095
  endloop
endfacet
facet normal 0.0 -1.0 0.0
  outer loop
    vertex 294.49999999999994 78.0 -4.000000000000008
    vertex 253.95309322209621 78.0 -1.0000000000000095
    vertex 253.95309322209621 78.0 -4.000000000000009
  endloop
endfacet
facet normal 0.0 -1.0 0.0
  outer loop
    vertex 253.95309322209621 78.0 -1.0000000000000095
    vertex 294.49999999999994 78.0 -4.000000000000008
    vertex 294.49999999999994 78.0 -1.0000000000000095
  endloop
endfacet
facet normal -1.0 0.0 0.0
  outer loop
    vertex 253.95309322209621 72.99999999999999 -1.0000000000000095
    vertex 253.95309322209621 71.99999999999999 -4.000000000000009
    vertex 253.95309322209621 71.99999999999999 -1.0000000000000095
  endloop
endfacet
facet normal -1.0 0.0 0.0
  outer loop
    vertex 253.95309322209621 79.0 -1.0000000000000095
    vertex 253.95309322209621 78.0 -4.000000000000009
    vertex 253.95309322209621 78.0 -1.0000000000000095
  endloop
endfacet
facet normal -1.0 0.0 0.0
  outer loop
    vertex 253.95309322209621 71.99999999999999 -4.000000000000009
    vertex 253.95309322209621 71.0 -5.000000000000009
    vertex 253.95309322209621 71.0 -4.00000000000001
  endloop
endfacet
facet normal -1.0 0.0 0.0
  outer loop
    vertex 253.95309322209621 71.0 -5.000000000000009
    vertex 253.95309322209621 71.99999999999999 -4.000000000000009
    vertex 253.95309322209621 80.0 -5.000000000000009
  endloop
endfacet
facet normal -1.0 0.0 0.0
  outer loop
    vertex 253.95309322209621 80.0 -5.000000000000009
    vertex 253.95309322209621 71.99999999999999 -4.000000000000009
    vertex 253.95309322209621 72.99999999999999 -4.00000000000001
  endloop
endfacet
facet normal -1.0 0.0 0.0
  outer loop
    vertex 253.95309322209621 72.99999999999999 -4.00000000000001
    vertex 253.95309322209621 71.99999999999999 -4.000000000000009
    vertex 253.95309322209621 72.99999999999999 -1.0000000000000095
  endloop
endfacet
facet normal -1.0 0.0 0.0
  outer loop
    vertex 253.95309322209621 80.0 -5.000000000000009
    vertex 253.95309322209621 72.99999999999999 -4.00000000000001
    vertex 253.95309322209621 78.0 -4.000000000000009
  endloop
endfacet
facet normal -1.0 0.0 0.0
  outer loop
    vertex 253.95309322209621 80.0 -5.000000000000009
    vertex 253.95309322209621 78.0 -4.000000000000009
    vertex 253.95309322209621 79.0 -4.00000000000001
  endloop
endfacet
facet normal -1.0 0.0 0.0
  outer loop
    vertex 253.95309322209621 79.0 -4.00000000000001
    vertex 253.95309322209621 78.0 -4.000000000000009
    vertex 253.95309322209621 79.0 -1.0000000000000095
  endloop
endfacet
facet normal -1.0 0.0 0.0
  outer loop
    vertex 253.95309322209621 80.0 -5.000000000000009
    vertex 253.95309322209621 79.0 -4.00000000000001
    vertex 253.95309322209621 80.0 -4.00000000000001
  endloop
endfacet
facet normal 0.0 1.0 0.0
  outer loop
    vertex 253.95309322209621 79.0 -1.0000000000000095
    vertex 294.49999999999994 79.0 -4.00000000000001
    vertex 253.95309322209621 79.0 -4.00000000000001
  endloop
endfacet
facet normal 0.0 1.0 0.0
  outer loop
    vertex 294.49999999999994 79.0 -4.00000000000001
    vertex 253.95309322209621 79.0 -1.0000000000000095
    vertex 294.49999999999994 79.0 -1.0000000000000095
  endloop
endfacet
facet normal 1.0 0.0 0.0
  outer loop
    vertex 294.49999999999994 80.0 -5.000000000000008
    vertex 294.49999999999994 71.0 -4.00000000000001
    vertex 294.49999999999994 71.0 -5.000000000000009
  endloop
endfacet
facet normal 1.0 0.0 0.0
  outer loop
    vertex 294.49999999999994 71.0 -4.00000000000001
    vertex 294.49999999999994 80.0 -5.000000000000008
    vertex 294.49999999999994 71.99999999999999 -4.000000000000009
  endloop
endfacet
facet normal 1.0 0.0 0.0
  outer loop
    vertex 294.49999999999994 71.99999999999999 -4.000000000000009
    vertex 294.49999999999994 80.0 -5.000000000000008
    vertex 294.49999999999994 72.99999999999999 -4.00000000000001
  endloop
endfacet
facet normal 1.0 0.0 0.0
  outer loop
    vertex 294.49999999999994 71.99999999999999 -4.000000000000009
    vertex 294.49999999999994 72.99999999999999 -4.00000000000001
    vertex 294.49999999999994 71.99999999999999 -1.0000000000000095
  endloop
endfacet
facet normal 1.0 0.0 0.0
  outer loop
    vertex 294.49999999999994 72.99999999999999 -4.00000000000001
    vertex 294.49999999999994 80.0 -5.000000000000008
    vertex 294.49999999999994 78.0 -4.000000000000008
  endloop
endfacet
facet normal 1.0 0.0 0.0
  outer loop
    vertex 294.49999999999994 78.0 -4.000000000000008
    vertex 294.49999999999994 80.0 -5.000000000000008
    vertex 294.49999999999994 79.0 -4.00000000000001
  endloop
endfacet
facet normal 1.0 0.0 0.0
  outer loop
    vertex 294.49999999999994 78.0 -4.000000000000008
    vertex 294.49999999999994 79.0 -4.00000000000001
    vertex 294.49999999999994 78.0 -1.0000000000000095
  endloop
endfacet
facet normal 1.0 0.0 0.0
  outer loop
    vertex 294.49999999999994 79.0 -4.00000000000001
    vertex 294.49999999999994 80.0 -5.000000000000008
    vertex 294.49999999999994 80.0 -4.000000000000008
  endloop
endfacet
facet normal 1.0 0.0 0.0
  outer loop
    vertex 294.49999999999994 79.0 -1.0000000000000095
    vertex 294.49999999999994 78.0 -1.0000000000000095
    vertex 294.49999999999994 79.0 -4.00000000000001
  endloop
endfacet
facet normal 1.0 0.0 0.0
  outer loop
    vertex 294.49999999999994 72.99999999999999 -1.0000000000000095
    vertex 294.49999999999994 71.99999999999999 -1.0000000000000095
    vertex 294.49999999999994 72.99999999999999 -4.00000000000001
  endloop
endfacet
facet normal 0.0 -1.0 -7.833240229299716e-17
  outer loop
    vertex 118.50000000000007 38.5 -3.9999999999999947
    vertex 14.000000000000028 38.5 -4.999999999999995
    vertex 118.50000000000007 38.5 -4.999999999999995
  endloop
endfacet
facet normal 0.0 -1.0 -7.833240229299716e-17
  outer loop
    vertex 14.000000000000028 38.5 -4.999999999999995
    vertex 118.50000000000007 38.5 -3.9999999999999947
    vertex 14.000000000000028 38.5 -3.9999999999999947
  endloop
endfacet
facet normal -6.6334759448561575e-34 1.0 7.833240229299716e-17
  outer loop
    vertex 14.000000000000028 47.5 -3.9999999999999947
    vertex 118.50000000000007 47.5 -4.999999999999993
    vertex 14.000000000000028 47.5 -4.999999999999995
  endloop
endfacet
facet normal -6.6334759448561575e-34 1.0 7.833240229299716e-17
  outer loop
    vertex 118.50000000000007 47.5 -4.999999999999993
    vertex 14.000000000000028 47.5 -3.9999999999999947
    vertex 118.50000000000007 47.5 -3.9999999999999933
  endloop
endfacet
facet normal 4.234183907729575e-18 7.833240229299716e-17 -1.0
  outer loop
    vertex 118.50000000000007 47.5 -4.999999999999993
    vertex 14.000000000000028 38.5 -4.999999999999995
    vertex 14.000000000000028 47.5 -4.999999999999995
  endloop
endfacet
facet normal 4.234183907729575e-18 7.833240229299716e-17 -1.0
  outer loop
    vertex 14.000000000000028 38.5 -4.999999999999995
    vertex 118.50000000000007 47.5 -4.999999999999993
    vertex 118.50000000000007 38.5 -4.999999999999995
  endloop
endfacet
facet normal 0.0 -7.049916206369756e-16 1.0
  outer loop
    vertex 118.50000000000007 38.5 -3.9999999999999947
    vertex 14.000000000000028 39.5 -3.9999999999999942
    vertex 14.000000000000028 38.5 -3.9999999999999947
  endloop
endfacet
facet normal 0.0 -7.049916206369756e-16 1.0
  outer loop
    vertex 14.000000000000028 39.5 -3.9999999999999942
    vertex 118.50000000000007 38.5 -3.9999999999999947
    vertex 118.50000000000007 39.5 -3.9999999999999942
  endloop
endfacet
facet normal -5.292729884661969e-19 8.812395257962196e-17 1.0
  outer loop
    vertex 118.50000000000007 39.5 -0.9999999999999947
    vertex 14.000000000000028 40.5 -0.9999999999999947
    vertex 14.000000000000028 39.5 -0.9999999999999947
  endloop
endfacet
facet normal -5.292729884661969e-19 8.812395257962196e-17 1.0
  outer loop
    vertex 14.000000000000028 40.5 -0.9999999999999947
    vertex 118.50000000000007 39.5 -0.9999999999999947
    vertex 118.50000000000007 40.5 -0.9999999999999947
  endloop
endfacet
facet normal 0.0 -1.0 0.0
  outer loop
    vertex 118.50000000000007 39.5 -0.9999999999999947
    vertex 14.000000000000028 39.5 -3.9999999999999942
    vertex 118.50000000000007 39.5 -3.9999999999999942
  endloop
endfacet
facet normal 0.0 -1.0 0.0
  outer loop
    vertex 14.000000000000028 39.5 -3.9999999999999942
    vertex 118.50000000000007 39.5 -0.9999999999999947
    vertex 14.000000000000028 39.5 -0.9999999999999947
  endloop
endfacet
facet normal 0.0 1.0 0.0
  outer loop
    vertex 14.000000000000028 40.5 -0.9999999999999947
    vertex 118.50000000000007 40.5 -3.9999999999999947
    vertex 14.000000000000028 40.5 -3.9999999999999947
  endloop
endfacet
facet normal 0.0 1.0 0.0
  outer loop
    vertex 118.50000000000007 40.5 -3.9999999999999947
    vertex 14.000000000000028 40.5 -0.9999999999999947
    vertex 118.50000000000007 40.5 -0.9999999999999947
  endloop
endfacet
facet normal -2.117091953864788e-18 -2.11497486191092e-16 1.0
  outer loop
    vertex 118.50000000000007 40.5 -3.9999999999999947
    vertex 14.000000000000028 45.50000000000001 -3.9999999999999942
    vertex 14.000000000000028 40.5 -3.9999999999999947
  endloop
endfacet
facet normal -2.117091953864788e-18 -2.11497486191092e-16 1.0
  outer loop
    vertex 14.000000000000028 45.50000000000001 -3.9999999999999942
    vertex 118.50000000000007 40.5 -3.9999999999999947
    vertex 118.50000000000007 45.50000000000001 -3.9999999999999933
  endloop
endfacet
facet normal -4.234183907729574e-18 -7.049916206369757e-16 1.0
  outer loop
    vertex 118.50000000000007 46.50000000000001 -3.9999999999999947
    vertex 14.000000000000028 47.5 -3.9999999999999947
    vertex 14.000000000000028 46.50000000000001 -3.9999999999999947
  endloop
endfacet
facet normal -4.234183907729574e-18 -7.049916206369757e-16 1.0
  outer loop
    vertex 14.000000000000028 47.5 -3.9999999999999947
    vertex 118.50000000000007 46.50000000000001 -3.9999999999999947
    vertex 118.50000000000007 47.5 -3.9999999999999933
  endloop
endfacet
facet normal -5.292729884661968e-19 -8.812395257962197e-17 1.0
  outer loop
    vertex 118.50000000000007 45.50000000000001 -0.9999999999999947
    vertex 14.000000000000028 46.50000000000001 -0.9999999999999947
    vertex 14.000000000000028 45.50000000000001 -0.9999999999999947
  endloop
endfacet
facet normal -5.292729884661968e-19 -8.812395257962197e-17 1.0
  outer loop
    vertex 14.000000000000028 46.50000000000001 -0.9999999999999947
    vertex 118.50000000000007 45.50000000000001 -0.9999999999999947
    vertex 118.50000000000007 46.50000000000001 -0.9999999999999947
  endloop
endfacet
facet normal 0.0 -1.0 0.0
  outer loop
    vertex 118.50000000000007 45.50000000000001 -3.9999999999999933
    vertex 14.000000000000028 45.50000000000001 -0.9999999999999947
    vertex 14.000000000000028 45.50000000000001 -3.9999999999999942
  endloop
endfacet
facet normal 0.0 -1.0 0.0
  outer loop
    vertex 14.000000000000028 45.50000000000001 -0.9999999999999947
    vertex 118.50000000000007 45.50000000000001 -3.9999999999999933
    vertex 118.50000000000007 45.50000000000001 -0.9999999999999947
  endloop
endfacet
facet normal -1.0 0.0 0.0
  outer loop
    vertex 14.000000000000028 40.5 -0.9999999999999947
    vertex 14.000000000000028 39.5 -3.9999999999999942
    vertex 14.000000000000028 39.5 -0.9999999999999947
  endloop
endfacet
facet normal -1.0 0.0 0.0
  outer loop
    vertex 14.000000000000028 46.50000000000001 -0.9999999999999947
    vertex 14.000000000000028 45.50000000000001 -3.9999999999999942
    vertex 14.000000000000028 45.50000000000001 -0.9999999999999947
  endloop
endfacet
facet normal -1.0 0.0 0.0
  outer loop
    vertex 14.000000000000028 39.5 -3.9999999999999942
    vertex 14.000000000000028 38.5 -4.999999999999995
    vertex 14.000000000000028 38.5 -3.9999999999999947
  endloop
endfacet
facet normal -1.0 0.0 0.0
  outer loop
    vertex 14.000000000000028 38.5 -4.999999999999995
    vertex 14.000000000000028 39.5 -3.9999999999999942
    vertex 14.000000000000028 47.5 -4.999999999999995
  endloop
endfacet
facet normal -1.0 0.0 0.0
  outer loop
    vertex 14.000000000000028 47.5 -4.999999999999995
    vertex 14.000000000000028 39.5 -3.9999999999999942
    vertex 14.000000000000028 40.5 -3.9999999999999947
  endloop
endfacet
facet normal -1.0 0.0 0.0
  outer loop
    vertex 14.000000000000028 40.5 -3.9999999999999947
    vertex 14.000000000000028 39.5 -3.9999999999999942
    vertex 14.000000000000028 40.5 -0.9999999999999947
  endloop
endfacet
facet normal -1.0 0.0 0.0
  outer loop
    vertex 14.000000000000028 47.5 -4.999999999999995
    vertex 14.000000000000028 40.5 -3.9999999999999947
    vertex 14.000000000000028 45.50000000000001 -3.9999999999999942
  endloop
endfacet
facet normal -1.0 0.0 0.0
  outer loop
    vertex 14.000000000000028 47.5 -4.999999999999995
    vertex 14.000000000000028 45.50000000000001 -3.9999999999999942
    vertex 14.000000000000028 46.50000000000001 -3.9999999999999947
  endloop
endfacet
facet normal -1.0 0.0 0.0
  outer loop
    vertex 14.000000000000028 46.50000000000001 -3.9999999999999947
    vertex 14.000000000000028 45.50000000000001 -3.9999999999999942
    vertex 14.000000000000028 46.50000000000001 -0.9999999999999947
  endloop
endfacet
facet normal -1.0 0.0 0.0
  outer loop
    vertex 14.000000000000028 47.5 -4.999999999999995
    vertex 14.000000000000028 46.50000000000001 -3.9999999999999947
    vertex 14.000000000000028 47.5 -3.9999999999999947
  endloop
endfacet
facet normal 0.0 1.0 0.0
  outer loop
    vertex 14.000000000000028 46.50000000000001 -0.9999999999999947
    vertex 118.50000000000007 46.50000000000001 -3.9999999999999947
    vertex 14.000000000000028 46.50000000000001 -3.9999999999999947
  endloop
endfacet
facet normal 0.0 1.0 0.0
  outer loop
    vertex 118.50000000000007 46.50000000000001 -3.9999999999999947
    vertex 14.000000000000028 46.50000000000001 -0.9999999999999947
    vertex 118.50000000000007 46.50000000000001 -0.9999999999999947
  endloop
endfacet
facet normal 1.0 0.0 0.0
  outer loop
    vertex 118.50000000000007 47.5 -4.999999999999993
    vertex 118.50000000000007 38.5 -3.9999999999999947
    vertex 118.50000000000007 38.5 -4.999999999999995
  endloop
endfacet
facet normal 1.0 0.0 0.0
  outer loop
    vertex 118.50000000000007 38.5 -3.9999999999999947
    vertex 118.50000000000007 47.5 -4.999999999999993
    vertex 118.50000000000007 39.5 -3.9999999999999942
  endloop
endfacet
facet normal 1.0 0.0 0.0
  outer loop
    vertex 118.50000000000007 39.5 -3.9999999999999942
    vertex 118.50000000000007 47.5 -4.999999999999993
    vertex 118.50000000000007 40.5 -3.9999999999999947
  endloop
endfacet
facet normal 1.0 0.0 0.0
  outer loop
    vertex 118.50000000000007 39.5 -3.9999999999999942
    vertex 118.50000000000007 40.5 -3.9999999999999947
    vertex 118.50000000000007 39.5 -0.9999999999999947
  endloop
endfacet
facet normal 1.0 0.0 0.0
  outer loop
    vertex 118.50000000000007 40.5 -3.9999999999999947
    vertex 118.50000000000007 47.5 -4.999999999999993
    vertex 118.50000000000007 45.50000000000001 -3.9999999999999933
  endloop
endfacet
facet normal 1.0 0.0 0.0
  outer loop
    vertex 118.50000000000007 45.50000000000001 -3.9999999999999933
    vertex 118.50000000000007 47.5 -4.999999999999993
    vertex 118.50000000000007 46.50000000000001 -3.9999999999999947
  endloop
endfacet
facet normal 1.0 0.0 0.0
  outer loop
    vertex 118.50000000000007 45.50000000000001 -3.9999999999999933
    vertex 118.50000000000007 46.50000000000001 -3.9999999999999947
    vertex 118.50000000000007 45.50000000000001 -0.9999999999999947
  endloop
endfacet
facet normal 1.0 0.0 0.0
  outer loop
    vertex 118.50000000000007 46.50000000000001 -3.9999999999999947
    vertex 118.50000000000007 47.5 -4.999999999999993
    vertex 118.50000000000007 47.5 -3.9999999999999933
  endloop
endfacet
facet normal 1.0 0.0 0.0
  outer loop
    vertex 118.50000000000007 46.50000000000001 -0.9999999999999947
    vertex 118.50000000000007 45.50000000000001 -0.9999999999999947
    vertex 118.50000000000007 46.50000000000001 -3.9999999999999947
  endloop
endfacet
facet normal 1.0 0.0 0.0
  outer loop
    vertex 118.50000000000007 40.5 -0.9999999999999947
    vertex 118.50000000000007 39.5 -0.9999999999999947
    vertex 118.50000000000007 40.5 -3.9999999999999947
  endloop
endfacet
facet normal 0.0 -1.0 -7.833240229299716e-17
  outer loop
    vertex 136.47220334838406 70.99999999999999 -3.9999999999999885
    vertex 31.972203348383864 70.99999999999999 -4.9999999999999885
    vertex 136.47220334838406 70.99999999999999 -4.9999999999999885
  endloop
endfacet
facet normal 0.0 -1.0 -7.833240229299716e-17
  outer loop
    vertex 31.972203348383864 70.99999999999999 -4.9999999999999885
    vertex 136.47220334838406 70.99999999999999 -3.9999999999999885
    vertex 31.972203348383864 70.99999999999999 -3.9999999999999885
  endloop
endfacet
facet normal -6.6334759448561575e-34 1.0 7.833240229299716e-17
  outer loop
    vertex 31.972203348383864 79.99999999999999 -3.9999999999999885
    vertex 136.47220334838406 79.99999999999999 -4.999999999999987
    vertex 31.972203348383864 79.99999999999999 -4.9999999999999885
  endloop
endfacet
facet normal -6.6334759448561575e-34 1.0 7.833240229299716e-17
  outer loop
    vertex 136.47220334838406 79.99999999999999 -4.999999999999987
    vertex 31.972203348383864 79.99999999999999 -3.9999999999999885
    vertex 136.47220334838406 79.99999999999999 -3.999999999999987
  endloop
endfacet
facet normal 4.234183907729575e-18 7.833240229299716e-17 -1.0
  outer loop
    vertex 136.47220334838406 79.99999999999999 -4.999999999999987
    vertex 31.972203348383864 70.99999999999999 -4.9999999999999885
    vertex 31.972203348383864 79.99999999999999 -4.9999999999999885
  endloop
endfacet
facet normal 4.234183907729575e-18 7.833240229299716e-17 -1.0
  outer loop
    vertex 31.972203348383864 70.99999999999999 -4.9999999999999885
    vertex 136.47220334838406 79.99999999999999 -4.999999999999987
    vertex 136.47220334838406 70.99999999999999 -4.9999999999999885
  endloop
endfacet
facet normal 0.0 -7.049916206369756e-16 1.0
  outer loop
    vertex 136.47220334838406 70.99999999999999 -3.9999999999999885
    vertex 31.972203348383864 71.99999999999999 -3.9999999999999876
    vertex 31.972203348383864 70.99999999999999 -3.9999999999999885
  endloop
endfacet
facet normal 0.0 -7.049916206369756e-16 1.0
  outer loop
    vertex 31.972203348383864 71.99999999999999 -3.9999999999999876
    vertex 136.47220334838406 70.99999999999999 -3.9999999999999885
    vertex 136.47220334838406 71.99999999999999 -3.9999999999999876
  endloop
endfacet
facet normal -5.292729884661969e-19 8.812395257962196e-17 1.0
  outer loop
    vertex 136.47220334838406 71.99999999999999 -0.9999999999999883
    vertex 31.972203348383864 72.99999999999999 -0.9999999999999883
    vertex 31.972203348383864 71.99999999999999 -0.9999999999999883
  endloop
endfacet
facet normal -5.292729884661969e-19 8.812395257962196e-17 1.0
  outer loop
    vertex 31.972203348383864 72.99999999999999 -0.9999999999999883
    vertex 136.47220334838406 71.99999999999999 -0.9999999999999883
    vertex 136.47220334838406 72.99999999999999 -0.9999999999999883
  endloop
endfacet
facet normal 0.0 -1.0 0.0
  outer loop
    vertex 136.47220334838406 71.99999999999999 -0.9999999999999883
    vertex 31.972203348383864 71.99999999999999 -3.9999999999999876
    vertex 136.47220334838406 71.99999999999999 -3.9999999999999876
  endloop
endfacet
facet normal 0.0 -1.0 0.0
  outer loop
    vertex 31.972203348383864 71.99999999999999 -3.9999999999999876
    vertex 136.47220334838406 71.99999999999999 -0.9999999999999883
    vertex 31.972203348383864 71.99999999999999 -0.9999999999999883
  endloop
endfacet
facet normal 0.0 1.0 0.0
  outer loop
    vertex 31.972203348383864 72.99999999999999 -0.9999999999999883
    vertex 136.47220334838406 72.99999999999999 -3.9999999999999885
    vertex 31.972203348383864 72.99999999999999 -3.9999999999999885
  endloop
endfacet
facet normal 0.0 1.0 0.0
  outer loop
    vertex 136.47220334838406 72.99999999999999 -3.9999999999999885
    vertex 31.972203348383864 72.99999999999999 -0.9999999999999883
    vertex 136.47220334838406 72.99999999999999 -0.9999999999999883
  endloop
endfacet
facet normal -2.117091953864788e-18 -2.11497486191092e-16 1.0
  outer loop
    vertex 136.47220334838406 72.99999999999999 -3.9999999999999885
    vertex 31.972203348383864 77.99999999999999 -3.9999999999999876
    vertex 31.972203348383864 72.99999999999999 -3.9999999999999885
  endloop
endfacet
facet normal -2.117091953864788e-18 -2.11497486191092e-16 1.0
  outer loop
    vertex 31.972203348383864 77.99999999999999 -3.9999999999999876
    vertex 136.47220334838406 72.99999999999999 -3.9999999999999885
    vertex 136.47220334838406 77.99999999999999 -3.999999999999987
  endloop
endfacet
facet normal -4.234183907729574e-18 -7.049916206369757e-16 1.0
  outer loop
    vertex 136.47220334838406 78.99999999999999 -3.9999999999999885
    vertex 31.972203348383864 79.99999999999999 -3.9999999999999885
    vertex 31.972203348383864 78.99999999999999 -3.9999999999999885
  endloop
endfacet
facet normal -4.234183907729574e-18 -7.049916206369757e-16 1.0
  outer loop
    vertex 31.972203348383864 79.99999999999999 -3.9999999999999885
    vertex 136.47220334838406 78.99999999999999 -3.9999999999999885
    vertex 136.47220334838406 79.99999999999999 -3.999999999999987
  endloop
endfacet
facet normal -5.292729884661968e-19 -8.812395257962197e-17 1.0
  outer loop
    vertex 136.47220334838406 77.99999999999999 -0.9999999999999883
    vertex 31.972203348383864 78.99999999999999 -0.9999999999999883
    vertex 31.972203348383864 77.99999999999999 -0.9999999999999883
  endloop
endfacet
facet normal -5.292729884661968e-19 -8.812395257962197e-17 1.0
  outer loop
    vertex 31.972203348383864 78.99999999999999 -0.9999999999999883
    vertex 136.47220334838406 77.99999999999999 -0.9999999999999883
    vertex 136.47220334838406 78.99999999999999 -0.9999999999999883
  endloop
endfacet
facet normal 0.0 -1.0 0.0
  outer loop
    vertex 136.47220334838406 77.99999999999999 -3.999999999999987
    vertex 31.972203348383864 77.99999999999999 -0.9999999999999883
    vertex 31.972203348383864 77.99999999999999 -3.9999999999999876
  endloop
endfacet
facet normal 0.0 -1.0 0.0
  outer loop
    vertex 31.972203348383864 77.99999999999999 -0.9999999999999883
    vertex 136.47220334838406 77.99999999999999 -3.999999999999987
    vertex 136.47220334838406 77.99999999999999 -0.9999999999999883
  endloop
endfacet
facet normal -1.0 0.0 0.0
  outer loop
    vertex 31.972203348383864 72.99999999999999 -0.9999999999999883
    vertex 31.972203348383864 71.99999999999999 -3.9999999999999876
    vertex 31.972203348383864 71.99999999999999 -0.9999999999999883
  endloop
endfacet
facet normal -1.0 0.0 0.0
  outer loop
    vertex 31.972203348383864 78.99999999999999 -0.9999999999999883
    vertex 31.972203348383864 77.99999999999999 -3.9999999999999876
    vertex 31.972203348383864 77.99999999999999 -0.9999999999999883
  endloop
endfacet
facet normal -1.0 0.0 0.0
  outer loop
    vertex 31.972203348383864 71.99999999999999 -3.9999999999999876
    vertex 31.972203348383864 70.99999999999999 -4.9999999999999885
    vertex 31.972203348383864 70.99999999999999 -3.9999999999999885
  endloop
endfacet
facet normal -1.0 0.0 0.0
  outer loop
    vertex 31.972203348383864 70.99999999999999 -4.9999999999999885
    vertex 31.972203348383864 71.99999999999999 -3.9999999999999876
    vertex 31.972203348383864 79.99999999999999 -4.9999999999999885
  endloop
endfacet
facet normal -1.0 0.0 0.0
  outer loop
    vertex 31.972203348383864 79.99999999999999 -4.9999999999999885
    vertex 31.972203348383864 71.99999999999999 -3.9999999999999876
    vertex 31.972203348383864 72.99999999999999 -3.9999999999999885
  endloop
endfacet
facet normal -1.0 0.0 0.0
  outer loop
    vertex 31.972203348383864 72.99999999999999 -3.9999999999999885
    vertex 31.972203348383864 71.99999999999999 -3.9999999999999876
    vertex 31.972203348383864 72.99999999999999 -0.9999999999999883
  endloop
endfacet
facet normal -1.0 0.0 0.0
  outer loop
    vertex 31.972203348383864 79.99999999999999 -4.9999999999999885
    vertex 31.972203348383864 72.99999999999999 -3.9999999999999885
    vertex 31.972203348383864 77.99999999999999 -3.9999999999999876
  endloop
endfacet
facet normal -1.0 0.0 0.0
  outer loop
    vertex 31.972203348383864 79.99999999999999 -4.9999999999999885
    vertex 31.972203348383864 77.99999999999999 -3.9999999999999876
    vertex 31.972203348383864 78.99999999999999 -3.9999999999999885
  endloop
endfacet
facet normal -1.0 0.0 0.0
  outer loop
    vertex 31.972203348383864 78.99999999999999 -3.9999999999999885
    vertex 31.972203348383864 77.99999999999999 -3.9999999999999876
    vertex 31.972203348383864 78.99999999999999 -0.9999999999999883
  endloop
endfacet
facet normal -1.0 0.0 0.0
  outer loop
    vertex 31.972203348383864 79.99999999999999 -4.9999999999999885
    vertex 31.972203348383864 78.99999999999999 -3.9999999999999885
    vertex 31.972203348383864 79.99999999999999 -3.9999999999999885
  endloop
endfacet
facet normal 0.0 1.0 0.0
  outer loop
    vertex 31.972203348383864 78.99999999999999 -0.9999999999999883
    vertex 136.47220334838406 78.99999999999999 -3.9999999999999885
    vertex 31.972203348383864 78.99999999999999 -3.9999999999999885
  endloop
endfacet
facet normal 0.0 1.0 0.0
  outer loop
    vertex 136.47220334838406 78.99999999999999 -3.9999999999999885
    vertex 31.972203348383864 78.99999999999999 -0.9999999999999883
    vertex 136.47220334838406 78.99999999999999 -0.9999999999999883
  endloop
endfacet
facet normal 1.0 0.0 0.0
  outer loop
    vertex 136.47220334838406 79.99999999999999 -4.999999999999987
    vertex 136.47220334838406 70.99999999999999 -3.9999999999999885
    vertex 136.47220334838406 70.99999999999999 -4.9999999999999885
  endloop
endfacet
facet normal 1.0 0.0 0.0
  outer loop
    vertex 136.47220334838406 70.99999999999999 -3.9999999999999885
    vertex 136.47220334838406 79.99999999999999 -4.999999999999987
    vertex 136.47220334838406 71.99999999999999 -3.9999999999999876
  endloop
endfacet
facet normal 1.0 0.0 0.0
  outer loop
    vertex 136.47220334838406 71.99999999999999 -3.9999999999999876
    vertex 136.47220334838406 79.99999999999999 -4.999999999999987
    vertex 136.47220334838406 72.99999999999999 -3.9999999999999885
  endloop
endfacet
facet normal 1.0 0.0 0.0
  outer loop
    vertex 136.47220334838406 71.99999999999999 -3.9999999999999876
    vertex 136.47220334838406 72.99999999999999 -3.9999999999999885
    vertex 136.47220334838406 71.99999999999999 -0.9999999999999883
  endloop
endfacet
facet normal 1.0 0.0 0.0
  outer loop
    vertex 136.47220334838406 72.99999999999999 -3.9999999999999885
    vertex 136.47220334838406 79.99999999999999 -4.999999999999987
    vertex 136.47220334838406 77.99999999999999 -3.999999999999987
  endloop
endfacet
facet normal 1.0 0.0 0.0
  outer loop
    vertex 136.47220334838406 77.99999999999999 -3.999999999999987
    vertex 136.47220334838406 79.99999999999999 -4.999999999999987
    vertex 136.47220334838406 78.99999999999999 -3.9999999999999885
  endloop
endfacet
facet normal 1.0 0.0 0.0
  outer loop
    vertex 136.47220334838406 77.99999999999999 -3.999999999999987
    vertex 136.47220334838406 78.99999999999999 -3.9999999999999885
    vertex 136.47220334838406 77.99999999999999 -0.9999999999999883
  endloop
endfacet
facet normal 1.0 0.0 0.0
  outer loop
    vertex 136.47220334838406 78.99999999999999 -3.9999999999999885
    vertex 136.47220334838406 79.99999999999999 -4.999999999999987
    vertex 136.47220334838406 79.99999999999999 -3.999999999999987
  endloop
endfacet
facet normal 1.0 0.0 0.0
  outer loop
    vertex 136.47220334838406 78.99999999999999 -0.9999999999999883
    vertex 136.47220334838406 77.99999999999999 -0.9999999999999883
    vertex 136.47220334838406 78.99999999999999 -3.9999999999999885
  endloop
endfacet
facet normal 1.0 0.0 0.0
  outer loop
    vertex 136.47220334838406 72.99999999999999 -0.9999999999999883
    vertex 136.47220334838406 71.99999999999999 -0.9999999999999883
    vertex 136.47220334838406 72.99999999999999 -3.9999999999999885
  endloop
endfacet
facet normal 0.0 -1.0 -7.833240229299716e-17
  outer loop
    vertex 294.48999999999995 34.99999999999999 -4.0000000000000115
    vertex 169.49999999999997 34.99999999999999 -5.0000000000000115
    vertex 294.48999999999995 34.99999999999999 -5.0000000000000115
  endloop
endfacet
facet normal 0.0 -1.0 -7.833240229299716e-17
  outer loop
    vertex 169.49999999999997 34.99999999999999 -5.0000000000000115
    vertex 294.48999999999995 34.99999999999999 -4.0000000000000115
    vertex 169.49999999999997 34.99999999999999 -4.0000000000000115
  endloop
endfacet
facet normal -6.6334759448561575e-34 1.0 7.833240229299716e-17
  outer loop
    vertex 169.49999999999997 43.99999999999999 -4.0000000000000115
    vertex 294.48999999999995 43.99999999999999 -5.00000000000001
    vertex 169.49999999999997 43.99999999999999 -5.0000000000000115
  endloop
endfacet
facet normal -6.6334759448561575e-34 1.0 7.833240229299716e-17
  outer loop
    vertex 294.48999999999995 43.99999999999999 -5.00000000000001
    vertex 169.49999999999997 43.99999999999999 -4.0000000000000115
    vertex 294.48999999999995 43.99999999999999 -4.000000000000011
  endloop
endfacet
facet normal 4.234183907729575e-18 7.833240229299716e-17 -1.0
  outer loop
    vertex 294.48999999999995 43.99999999999999 -5.00000000000001
    vertex 169.49999999999997 34.99999999999999 -5.0000000000000115
    vertex 169.49999999999997 43.99999999999999 -5.0000000000000115
  endloop
endfacet
facet normal 4.234183907729575e-18 7.833240229299716e-17 -1.0
  outer loop
    vertex 169.49999999999997 34.99999999999999 -5.0000000000000115
    vertex 294.48999999999995 43.99999999999999 -5.00000000000001
    vertex 294.48999999999995 34.99999999999999 -5.0000000000000115
  endloop
endfacet
facet normal 0.0 -7.049916206369756e-16 1.0
  outer loop
    vertex 294.48999999999995 34.99999999999999 -4.0000000000000115
    vertex 169.49999999999997 35.99999999999999 -4.000000000000011
    vertex 169.49999999999997 34.99999999999999 -4.0000000000000115
  endloop
endfacet
facet normal 0.0 -7.049916206369756e-16 1.0
  outer loop
    vertex 169.49999999999997 35.99999999999999 -4.000000000000011
    vertex 294.48999999999995 34.99999999999999 -4.0000000000000115
    vertex 294.48999999999995 35.99999999999999 -4.000000000000011
  endloop
endfacet
facet normal -5.292729884661969e-19 8.812395257962196e-17 1.0
  outer loop
    vertex 294.48999999999995 35.99999999999999 -1.0000000000000115
    vertex 169.49999999999997 36.999999999999986 -1.0000000000000115
    vertex 169.49999999999997 35.99999999999999 -1.0000000000000115
  endloop
endfacet
facet normal -5.292729884661969e-19 8.812395257962196e-17 1.0
  outer loop
    vertex 169.49999999999997 36.999999999999986 -1.0000000000000115
    vertex 294.48999999999995 35.99999999999999 -1.0000000000000115
    vertex 294.48999999999995 36.999999999999986 -1.0000000000000115
  endloop
endfacet
facet normal 0.0 -1.0 0.0
  outer loop
    vertex 294.48999999999995 35.99999999999999 -1.0000000000000115
    vertex 169.49999999999997 35.99999999999999 -4.000000000000011
    vertex 294.48999999999995 35.99999999999999 -4.000000000000011
  endloop
endfacet
facet normal 0.0 -1.0 0.0
  outer loop
    vertex 169.49999999999997 35.99999999999999 -4.000000000000011
    vertex 294.48999999999995 35.99999999999999 -1.0000000000000115
    vertex 169.49999999999997 35.99999999999999 -1.0000000000000115
  endloop
endfacet
facet normal 0.0 1.0 0.0
  outer loop
    vertex 169.49999999999997 36.999999999999986 -1.0000000000000115
    vertex 294.48999999999995 36.999999999999986 -4.0000000000000115
    vertex 169.49999999999997 36.999999999999986 -4.0000000000000115
  endloop
endfacet
facet normal 0.0 1.0 0.0
  outer loop
    vertex 294.48999999999995 36.999999999999986 -4.0000000000000115
    vertex 169.49999999999997 36.999999999999986 -1.0000000000000115
    vertex 294.48999999999995 36.999999999999986 -1.0000000000000115
  endloop
endfacet
facet normal -2.117091953864788e-18 -2.11497486191092e-16 1.0
  outer loop
    vertex 294.48999999999995 36.999999999999986 -4.0000000000000115
    vertex 169.49999999999997 41.99999999999999 -4.000000000000011
    vertex 169.49999999999997 36.999999999999986 -4.0000000000000115
  endloop
endfacet
facet normal -2.117091953864788e-18 -2.11497486191092e-16 1.0
  outer loop
    vertex 169.49999999999997 41.99999999999999 -4.000000000000011
    vertex 294.48999999999995 36.999999999999986 -4.0000000000000115
    vertex 294.48999999999995 41.99999999999999 -4.000000000000011
  endloop
endfacet
facet normal -4.234183907729574e-18 -7.049916206369757e-16 1.0
  outer loop
    vertex 294.48999999999995 42.99999999999999 -4.0000000000000115
    vertex 169.49999999999997 43.99999999999999 -4.0000000000000115
    vertex 169.49999999999997 42.99999999999999 -4.0000000000000115
  endloop
endfacet
facet normal -4.234183907729574e-18 -7.049916206369757e-16 1.0
  outer loop
    vertex 169.49999999999997 43.99999999999999 -4.0000000000000115
    vertex 294.48999999999995 42.99999999999999 -4.0000000000000115
    vertex 294.48999999999995 43.99999999999999 -4.000000000000011
  endloop
endfacet
facet normal -5.292729884661968e-19 -8.812395257962197e-17 1.0
  outer loop
    vertex 294.48999999999995 41.99999999999999 -1.0000000000000115
    vertex 169.49999999999997 42.99999999999999 -1.0000000000000115
    vertex 169.49999999999997 41.99999999999999 -1.0000000000000115
  endloop
endfacet
facet normal -5.292729884661968e-19 -8.812395257962197e-17 1.0
  outer loop
    vertex 169.49999999999997 42.99999999999999 -1.0000000000000115
    vertex 294.48999999999995 41.99999999999999 -1.0000000000000115
    vertex 294.48999999999995 42.99999999999999 -1.0000000000000115
  endloop
endfacet
facet normal 0.0 -1.0 0.0
  outer loop
    vertex 294.48999999999995 41.99999999999999 -4.000000000000011
    vertex 169.49999999999997 41.99999999999999 -1.0000000000000115
    vertex 169.49999999999997 41.99999999999999 -4.000000000000011
  endloop
endfacet
facet normal 0.0 -1.0 0.0
  outer loop
    vertex 169.49999999999997 41.99999999999999 -1.0000000000000115
    vertex 294.48999999999995 41.99999999999999 -4.000000000000011
    vertex 294.48999999999995 41.99999999999999 -1.0000000000000115
  endloop
endfacet
facet normal -1.0 0.0 0.0
  outer loop
    vertex 169.49999999999997 36.999999999999986 -1.0000000000000115
    vertex 169.49999999999997 35.99999999999999 -4.000000000000011
    vertex 169.49999999999997 35.99999999999999 -1.0000000000000115
  endloop
endfacet
facet normal -1.0 0.0 0.0
  outer loop
    vertex 169.49999999999997 42.99999999999999 -1.0000000000000115
    vertex 169.49999999999997 41.99999999999999 -4.000000000000011
    vertex 169.49999999999997 41.99999999999999 -1.0000000000000115
  endloop
endfacet
facet normal -1.0 0.0 0.0
  outer loop
    vertex 169.49999999999997 35.99999999999999 -4.000000000000011
    vertex 169.49999999999997 34.99999999999999 -5.0000000000000115
    vertex 169.49999999999997 34.99999999999999 -4.0000000000000115
  endloop
endfacet
facet normal -1.0 0.0 0.0
  outer loop
    vertex 169.49999999999997 34.99999999999999 -5.0000000000000115
    vertex 169.49999999999997 35.99999999999999 -4.000000000000011
    vertex 169.49999999999997 43.99999999999999 -5.0000000000000115
  endloop
endfacet
facet normal -1.0 0.0 0.0
  outer loop
    vertex 169.49999999999997 43.99999999999999 -5.0000000000000115
    vertex 169.49999999999997 35.99999999999999 -4.000000000000011
    vertex 169.49999999999997 36.999999999999986 -4.0000000000000115
  endloop
endfacet
facet normal -1.0 0.0 0.0
  outer loop
    vertex 169.49999999999997 36.999999999999986 -4.0000000000000115
    vertex 169.49999999999997 35.99999999999999 -4.000000000000011
    vertex 169.49999999999997 36.999999999999986 -1.0000000000000115
  endloop
endfacet
facet normal -1.0 0.0 0.0
  outer loop
    vertex 169.49999999999997 43.99999999999999 -5.0000000000000115
    vertex 169.49999999999997 36.999999999999986 -4.0000000000000115
    vertex 169.49999999999997 41.99999999999999 -4.000000000000011
  endloop
endfacet
facet normal -1.0 0.0 0.0
  outer loop
    vertex 169.49999999999997 43.99999999999999 -5.0000000000000115
    vertex 169.49999999999997 41.99999999999999 -4.000000000000011
    vertex 169.49999999999997 42.99999999999999 -4.0000000000000115
  endloop
endfacet
facet normal -1.0 0.0 0.0
  outer loop
    vertex 169.49999999999997 42.99999999999999 -4.0000000000000115
    vertex 169.49999999999997 41.99999999999999 -4.000000000000011
    vertex 169.49999999999997 42.99999999999999 -1.0000000000000115
  endloop
endfacet
facet normal -1.0 0.0 0.0
  outer loop
    vertex 169.49999999999997 43.99999999999999 -5.0000000000000115
    vertex 169.49999999999997 42.99999999999999 -4.0000000000000115
    vertex 169.49999999999997 43.99999999999999 -4.0000000000000115
  endloop
endfacet
facet normal 0.0 1.0 0.0
  outer loop
    vertex 169.49999999999997 42.99999999999999 -1.0000000000000115
    vertex 294.48999999999995 42.99999999999999 -4.0000000000000115
    vertex 169.49999999999997 42.99999999999999 -4.0000000000000115
  endloop
endfacet
facet normal 0.0 1.0 0.0
  outer loop
    vertex 294.48999999999995 42.99999999999999 -4.0000000000000115
    vertex 169.49999999999997 42.99999999999999 -1.0000000000000115
    vertex 294.48999999999995 42.99999999999999 -1.0000000000000115
  endloop
endfacet
facet normal 1.0 0.0 0.0
  outer loop
    vertex 294.48999999999995 43.99999999999999 -5.00000000000001
    vertex 294.48999999999995 34.99999999999999 -4.0000000000000115
    vertex 294.48999999999995 34.99999999999999 -5.0000000000000115
  endloop
endfacet
facet normal 1.0 0.0 0.0
  outer loop
    vertex 294.48999999999995 34.99999999999999 -4.0000000000000115
    vertex 294.48999999999995 43.99999999999999 -5.00000000000001
    vertex 294.48999999999995 35.99999999999999 -4.000000000000011
  endloop
endfacet
facet normal 1.0 0.0 0.0
  outer loop
    vertex 294.48999999999995 35.99999999999999 -4.000000000000011
    vertex 294.48999999999995 43.99999999999999 -5.00000000000001
    vertex 294.48999999999995 36.999999999999986 -4.0000000000000115
  endloop
endfacet
facet normal 1.0 0.0 0.0
  outer loop
    vertex 294.48999999999995 35.99999999999999 -4.000000000000011
    vertex 294.48999999999995 36.999999999999986 -4.0000000000000115
    vertex 294.48999999999995 35.99999999999999 -1.0000000000000115
  endloop
endfacet
facet normal 1.0 0.0 0.0
  outer loop
    vertex 294.48999999999995 36.999999999999986 -4.0000000000000115
    vertex 294.48999999999995 43.99999999999999 -5.00000000000001
    vertex 294.48999999999995 41.99999999999999 -4.000000000000011
  endloop
endfacet
facet normal 1.0 0.0 0.0
  outer loop
    vertex 294.48999999999995 41.99999999999999 -4.000000000000011
    vertex 294.48999999999995 43.99999999999999 -5.00000000000001
    vertex 294.48999999999995 42.99999999999999 -4.0000000000000115
  endloop
endfacet
facet normal 1.0 0.0 0.0
  outer loop
    vertex 294.48999999999995 41.99999999999999 -4.000000000000011
    vertex 294.48999999999995 42.99999999999999 -4.0000000000000115
    vertex 294.48999999999995 41.99999999999999 -1.0000000000000115
  endloop
endfacet
facet normal 1.0 0.0 0.0
  outer loop
    vertex 294.48999999999995 42.99999999999999 -4.0000000000000115
    vertex 294.48999999999995 43.99999999999999 -5.00000000000001
    vertex 294.48999999999995 43.99999999999999 -4.000000000000011
  endloop
endfacet
facet normal 1.0 0.0 0.0
  outer loop
    vertex 294.48999999999995 42.99999999999999 -1.0000000000000115
    vertex 294.48999999999995 41.99999999999999 -1.0000000000000115
    vertex 294.48999999999995 42.99999999999999 -4.0000000000000115
  endloop
endfacet
facet normal 1.0 0.0 0.0
  outer loop
    vertex 294.48999999999995 36.999999999999986 -1.0000000000000115
    vertex 294.48999999999995 35.99999999999999 -1.0000000000000115
    vertex 294.48999999999995 36.999999999999986 -4.0000000000000115
  endloop
endfacet
endsolid FCU_UNIT
