solid FCU_12mm_button_case
facet normal 1.0 0.0 0.0
  outer loop
    vertex 1.5000000000000029 24.1 -5.639932965095795e-15
    vertex 1.5000000000000029 26.1 13.599999999999994
    vertex 1.5000000000000029 24.1 13.599999999999994
  endloop
endfacet
facet normal 1.0 0.0 0.0
  outer loop
    vertex 1.5000000000000029 26.1 13.599999999999994
    vertex 1.5000000000000029 24.1 -5.639932965095795e-15
    vertex 1.5000000000000029 26.1 -5.639932965095795e-15
  endloop
endfacet
facet normal -1.0 0.0 0.0
  outer loop
    vertex 16.100000000000005 19.6 -5.639932965095795e-15
    vertex 16.100000000000005 15.6 13.599999999999994
    vertex 16.100000000000005 19.6 13.599999999999994
  endloop
endfacet
facet normal -1.0 0.0 0.0
  outer loop
    vertex 16.100000000000005 15.6 13.599999999999994
    vertex 16.100000000000005 19.6 -5.639932965095795e-15
    vertex 16.100000000000005 15.600000000000003 -5.639932965095795e-15
  endloop
endfacet
facet normal -1.0 -0.0 0.0
  outer loop
    vertex 14.9 21.1 -5.639932965095795e-15
    vertex 14.9 19.6 13.599999999999994
    vertex 14.9 21.1 13.599999999999994
  endloop
endfacet
facet normal -1.0 -0.0 0.0
  outer loop
    vertex 14.9 19.6 13.599999999999994
    vertex 14.9 21.1 -5.639932965095795e-15
    vertex 14.9 19.6 -5.639932965095795e-15
  endloop
endfacet
facet normal 0.0 -1.0 -5.551115123125802e-17
  outer loop
    vertex 16.100000000000005 19.6 -5.639932965095795e-15
    vertex 14.9 19.6 13.599999999999994
    vertex 14.9 19.6 -5.639932965095795e-15
  endloop
endfacet
facet normal 0.0 -1.0 -5.551115123125802e-17
  outer loop
    vertex 14.9 19.6 13.599999999999994
    vertex 16.100000000000005 19.6 -5.639932965095795e-15
    vertex 16.100000000000005 19.6 13.599999999999994
  endloop
endfacet
facet normal 1.0 0.0 0.0
  outer loop
    vertex 5.300000000000002 19.6 -5.639932965095795e-15
    vertex 5.300000000000002 21.099999999999998 13.599999999999994
    vertex 5.300000000000002 19.6 13.599999999999994
  endloop
endfacet
facet normal 1.0 0.0 0.0
  outer loop
    vertex 5.300000000000002 21.099999999999998 13.599999999999994
    vertex 5.300000000000002 19.6 -5.639932965095795e-15
    vertex 5.300000000000002 21.1 -5.639932965095795e-15
  endloop
endfacet
facet normal 0.0 1.0 5.551115123125802e-17
  outer loop
    vertex 16.100000000000005 15.6 13.599999999999994
    vertex 4.100000000000004 15.600000000000003 -5.639932965095795e-15
    vertex 4.100000000000004 15.6 13.599999999999994
  endloop
endfacet
facet normal 0.0 1.0 5.551115123125802e-17
  outer loop
    vertex 4.100000000000004 15.600000000000003 -5.639932965095795e-15
    vertex 16.100000000000005 15.6 13.599999999999994
    vertex 16.100000000000005 15.600000000000003 -5.639932965095795e-15
  endloop
endfacet
facet normal 0.0 -1.0 -5.551115123125802e-17
  outer loop
    vertex 5.300000000000002 19.6 -5.639932965095795e-15
    vertex 4.100000000000004 19.6 13.599999999999994
    vertex 4.100000000000004 19.6 -5.639932965095795e-15
  endloop
endfacet
facet normal 0.0 -1.0 -5.551115123125802e-17
  outer loop
    vertex 4.100000000000004 19.6 13.599999999999994
    vertex 5.300000000000002 19.6 -5.639932965095795e-15
    vertex 5.300000000000002 19.6 13.599999999999994
  endloop
endfacet
facet normal 1.0 0.0 0.0
  outer loop
    vertex 4.100000000000004 15.600000000000003 -5.639932965095795e-15
    vertex 4.100000000000004 19.6 13.599999999999994
    vertex 4.100000000000004 15.6 13.599999999999994
  endloop
endfacet
facet normal 1.0 0.0 0.0
  outer loop
    vertex 4.100000000000004 19.6 13.599999999999994
    vertex 4.100000000000004 15.600000000000003 -5.639932965095795e-15
    vertex 4.100000000000004 19.6 -5.639932965095795e-15
  endloop
endfacet
facet normal 0.0 1.0 5.551115123125802e-17
  outer loop
    vertex 5.300000000000002 21.099999999999998 13.599999999999994
    vertex 2.7000000000000006 21.1 -5.639932965095795e-15
    vertex 2.7000000000000006 21.099999999999998 13.599999999999994
  endloop
endfacet
facet normal 0.0 1.0 5.551115123125802e-17
  outer loop
    vertex 2.7000000000000006 21.1 -5.639932965095795e-15
    vertex 5.300000000000002 21.099999999999998 13.599999999999994
    vertex 5.300000000000002 21.1 -5.639932965095795e-15
  endloop
endfacet
facet normal 1.0 0.0 0.0
  outer loop
    vertex 2.7000000000000006 21.1 -5.639932965095795e-15
    vertex 2.7000000000000006 24.1 13.599999999999994
    vertex 2.7000000000000006 21.099999999999998 13.599999999999994
  endloop
endfacet
facet normal 1.0 0.0 0.0
  outer loop
    vertex 2.7000000000000006 24.1 13.599999999999994
    vertex 2.7000000000000006 21.1 -5.639932965095795e-15
    vertex 2.7000000000000006 24.1 -5.639932965095795e-15
  endloop
endfacet
facet normal 1.4687325429936995e-16 1.0 5.551115123125802e-17
  outer loop
    vertex 2.7000000000000006 24.1 13.599999999999994
    vertex 1.5000000000000029 24.1 -5.639932965095795e-15
    vertex 1.5000000000000029 24.1 13.599999999999994
  endloop
endfacet
facet normal 1.4687325429936995e-16 1.0 5.551115123125802e-17
  outer loop
    vertex 1.5000000000000029 24.1 -5.639932965095795e-15
    vertex 2.7000000000000006 24.1 13.599999999999994
    vertex 2.7000000000000006 24.1 -5.639932965095795e-15
  endloop
endfacet
facet normal 0.0 -1.0 -5.551115123125802e-17
  outer loop
    vertex 20.200000000000003 13.6 -5.639932965095795e-15
    vertex 0.0 13.6 13.599999999999994
    vertex 0.0 13.6 -5.639932965095795e-15
  endloop
endfacet
facet normal 0.0 -1.0 -5.551115123125802e-17
  outer loop
    vertex 0.0 13.6 13.599999999999994
    vertex 20.200000000000003 13.6 -5.639932965095795e-15
    vertex 20.200000000000003 13.6 13.599999999999994
  endloop
endfacet
facet normal 0.0 1.0 5.551115123125802e-17
  outer loop
    vertex 17.499999999999996 21.1 13.599999999999994
    vertex 14.9 21.1 -5.639932965095795e-15
    vertex 14.9 21.1 13.599999999999994
  endloop
endfacet
facet normal 0.0 1.0 5.551115123125802e-17
  outer loop
    vertex 14.9 21.1 -5.639932965095795e-15
    vertex 17.499999999999996 21.1 13.599999999999994
    vertex 17.499999999999996 21.1 -5.639932965095795e-15
  endloop
endfacet
facet normal -1.0 0.0 0.0
  outer loop
    vertex 18.7 26.1 -5.639932965095795e-15
    vertex 18.7 24.1 13.599999999999994
    vertex 18.7 26.1 13.599999999999994
  endloop
endfacet
facet normal -1.0 0.0 0.0
  outer loop
    vertex 18.7 24.1 13.599999999999994
    vertex 18.7 26.1 -5.639932965095795e-15
    vertex 18.7 24.1 -5.639932965095795e-15
  endloop
endfacet
facet normal -6.574490206995739e-18 -5.356293574351977e-17 1.0
  outer loop
    vertex 20.200000000000003 13.6 13.599999999999994
    vertex 16.100000000000005 15.6 13.599999999999994
    vertex 0.0 13.6 13.599999999999994
  endloop
endfacet
facet normal -6.574490206995739e-18 -5.356293574351977e-17 1.0
  outer loop
    vertex 16.100000000000005 15.6 13.599999999999994
    vertex 20.200000000000003 13.6 13.599999999999994
    vertex 20.200000000000003 20.6 13.599999999999994
  endloop
endfacet
facet normal -6.574490206995739e-18 -5.356293574351977e-17 1.0
  outer loop
    vertex 16.100000000000005 15.6 13.599999999999994
    vertex 20.200000000000003 20.6 13.599999999999994
    vertex 16.100000000000005 19.6 13.599999999999994
  endloop
endfacet
facet normal -6.574490206995739e-18 -5.356293574351977e-17 1.0
  outer loop
    vertex 16.100000000000005 19.6 13.599999999999994
    vertex 20.200000000000003 20.6 13.599999999999994
    vertex 14.9 19.6 13.599999999999994
  endloop
endfacet
facet normal -6.574490206995739e-18 -5.356293574351977e-17 1.0
  outer loop
    vertex 14.9 19.6 13.599999999999994
    vertex 20.200000000000003 20.6 13.599999999999994
    vertex 14.9 21.1 13.599999999999994
  endloop
endfacet
facet normal -6.574490206995739e-18 -5.356293574351977e-17 1.0
  outer loop
    vertex 14.9 21.1 13.599999999999994
    vertex 20.200000000000003 20.6 13.599999999999994
    vertex 17.499999999999996 21.1 13.599999999999994
  endloop
endfacet
facet normal -6.574490206995739e-18 -5.356293574351977e-17 1.0
  outer loop
    vertex 20.200000000000003 26.1 13.599999999999994
    vertex 17.499999999999996 21.1 13.599999999999994
    vertex 20.200000000000003 20.6 13.599999999999994
  endloop
endfacet
facet normal -6.574490206995739e-18 -5.356293574351977e-17 1.0
  outer loop
    vertex 17.499999999999996 21.1 13.599999999999994
    vertex 20.200000000000003 26.1 13.599999999999994
    vertex 18.7 24.1 13.599999999999994
  endloop
endfacet
facet normal -6.574490206995739e-18 -5.356293574351977e-17 1.0
  outer loop
    vertex 18.7 24.1 13.599999999999994
    vertex 20.200000000000003 26.1 13.599999999999994
    vertex 18.7 26.1 13.599999999999994
  endloop
endfacet
facet normal -6.574490206995739e-18 -5.356293574351977e-17 1.0
  outer loop
    vertex 17.499999999999996 24.1 13.599999999999994
    vertex 17.499999999999996 21.1 13.599999999999994
    vertex 18.7 24.1 13.599999999999994
  endloop
endfacet
facet normal -6.574490206995739e-18 -5.356293574351977e-17 1.0
  outer loop
    vertex 5.300000000000002 21.099999999999998 13.599999999999994
    vertex 4.100000000000004 19.6 13.599999999999994
    vertex 5.300000000000002 19.6 13.599999999999994
  endloop
endfacet
facet normal -6.574490206995739e-18 -5.356293574351977e-17 1.0
  outer loop
    vertex 4.100000000000004 19.6 13.599999999999994
    vertex 5.300000000000002 21.099999999999998 13.599999999999994
    vertex 0.0 20.6 13.599999999999994
  endloop
endfacet
facet normal -6.574490206995739e-18 -5.356293574351977e-17 1.0
  outer loop
    vertex 0.0 20.6 13.599999999999994
    vertex 5.300000000000002 21.099999999999998 13.599999999999994
    vertex 2.7000000000000006 21.099999999999998 13.599999999999994
  endloop
endfacet
facet normal -6.574490206995739e-18 -5.356293574351977e-17 1.0
  outer loop
    vertex 0.0 20.6 13.599999999999994
    vertex 2.7000000000000006 21.099999999999998 13.599999999999994
    vertex 0.0 26.1 13.599999999999994
  endloop
endfacet
facet normal -6.574490206995739e-18 -5.356293574351977e-17 1.0
  outer loop
    vertex 0.0 26.1 13.599999999999994
    vertex 2.7000000000000006 21.099999999999998 13.599999999999994
    vertex 1.5000000000000029 24.1 13.599999999999994
  endloop
endfacet
facet normal -6.574490206995739e-18 -5.356293574351977e-17 1.0
  outer loop
    vertex 1.5000000000000029 24.1 13.599999999999994
    vertex 2.7000000000000006 21.099999999999998 13.599999999999994
    vertex 2.7000000000000006 24.1 13.599999999999994
  endloop
endfacet
facet normal -6.574490206995739e-18 -5.356293574351977e-17 1.0
  outer loop
    vertex 0.0 26.1 13.599999999999994
    vertex 1.5000000000000029 24.1 13.599999999999994
    vertex 1.5000000000000029 26.1 13.599999999999994
  endloop
endfacet
facet normal -6.574490206995739e-18 -5.356293574351977e-17 1.0
  outer loop
    vertex 0.0 13.6 13.599999999999994
    vertex 4.100000000000004 15.6 13.599999999999994
    vertex 0.0 20.6 13.599999999999994
  endloop
endfacet
facet normal -6.574490206995739e-18 -5.356293574351977e-17 1.0
  outer loop
    vertex 4.100000000000004 15.6 13.599999999999994
    vertex 0.0 13.6 13.599999999999994
    vertex 16.100000000000005 15.6 13.599999999999994
  endloop
endfacet
facet normal -6.574490206995739e-18 -5.356293574351977e-17 1.0
  outer loop
    vertex 0.0 20.6 13.599999999999994
    vertex 4.100000000000004 15.6 13.599999999999994
    vertex 4.100000000000004 19.6 13.599999999999994
  endloop
endfacet
facet normal -1.0 0.0 0.0
  outer loop
    vertex 17.499999999999996 24.1 -5.639932965095795e-15
    vertex 17.499999999999996 21.1 13.599999999999994
    vertex 17.499999999999996 24.1 13.599999999999994
  endloop
endfacet
facet normal -1.0 0.0 0.0
  outer loop
    vertex 17.499999999999996 21.1 13.599999999999994
    vertex 17.499999999999996 24.1 -5.639932965095795e-15
    vertex 17.499999999999996 21.1 -5.639932965095795e-15
  endloop
endfacet
facet normal 2.089477035707849e-17 4.748214194845799e-17 -1.0
  outer loop
    vertex 0.0 13.6 -5.639932965095795e-15
    vertex 4.100000000000004 15.600000000000003 -5.639932965095795e-15
    vertex 20.200000000000003 13.6 -5.639932965095795e-15
  endloop
endfacet
facet normal 2.089477035707849e-17 4.748214194845799e-17 -1.0
  outer loop
    vertex 4.100000000000004 15.600000000000003 -5.639932965095795e-15
    vertex 0.0 13.6 -5.639932965095795e-15
    vertex 0.0 20.6 -2.8199664825478975e-15
  endloop
endfacet
facet normal 2.089477035707849e-17 4.748214194845799e-17 -1.0
  outer loop
    vertex 4.100000000000004 15.600000000000003 -5.639932965095795e-15
    vertex 0.0 20.6 -2.8199664825478975e-15
    vertex 4.100000000000004 19.6 -5.639932965095795e-15
  endloop
endfacet
facet normal 2.089477035707849e-17 4.748214194845799e-17 -1.0
  outer loop
    vertex 4.100000000000004 19.6 -5.639932965095795e-15
    vertex 0.0 20.6 -2.8199664825478975e-15
    vertex 5.300000000000002 19.6 -5.639932965095795e-15
  endloop
endfacet
facet normal 2.089477035707849e-17 4.748214194845799e-17 -1.0
  outer loop
    vertex 5.300000000000002 19.6 -5.639932965095795e-15
    vertex 0.0 20.6 -2.8199664825478975e-15
    vertex 5.300000000000002 21.1 -5.639932965095795e-15
  endloop
endfacet
facet normal 2.089477035707849e-17 4.748214194845799e-17 -1.0
  outer loop
    vertex 5.300000000000002 21.1 -5.639932965095795e-15
    vertex 0.0 20.6 -2.8199664825478975e-15
    vertex 2.7000000000000006 21.1 -5.639932965095795e-15
  endloop
endfacet
facet normal 2.089477035707849e-17 4.748214194845799e-17 -1.0
  outer loop
    vertex 0.0 26.1 -5.639932965095795e-15
    vertex 2.7000000000000006 21.1 -5.639932965095795e-15
    vertex 0.0 20.6 -2.8199664825478975e-15
  endloop
endfacet
facet normal 2.089477035707849e-17 4.748214194845799e-17 -1.0
  outer loop
    vertex 2.7000000000000006 21.1 -5.639932965095795e-15
    vertex 0.0 26.1 -5.639932965095795e-15
    vertex 1.5000000000000029 24.1 -5.639932965095795e-15
  endloop
endfacet
facet normal 2.089477035707849e-17 4.748214194845799e-17 -1.0
  outer loop
    vertex 1.5000000000000029 24.1 -5.639932965095795e-15
    vertex 0.0 26.1 -5.639932965095795e-15
    vertex 1.5000000000000029 26.1 -5.639932965095795e-15
  endloop
endfacet
facet normal 2.089477035707849e-17 4.748214194845799e-17 -1.0
  outer loop
    vertex 2.7000000000000006 24.1 -5.639932965095795e-15
    vertex 2.7000000000000006 21.1 -5.639932965095795e-15
    vertex 1.5000000000000029 24.1 -5.639932965095795e-15
  endloop
endfacet
facet normal 2.089477035707849e-17 4.748214194845799e-17 -1.0
  outer loop
    vertex 14.9 21.1 -5.639932965095795e-15
    vertex 16.100000000000005 19.6 -5.639932965095795e-15
    vertex 14.9 19.6 -5.639932965095795e-15
  endloop
endfacet
facet normal 2.089477035707849e-17 4.748214194845799e-17 -1.0
  outer loop
    vertex 16.100000000000005 19.6 -5.639932965095795e-15
    vertex 14.9 21.1 -5.639932965095795e-15
    vertex 20.200000000000003 20.6 0.0
  endloop
endfacet
facet normal 2.089477035707849e-17 4.748214194845799e-17 -1.0
  outer loop
    vertex 20.200000000000003 20.6 0.0
    vertex 14.9 21.1 -5.639932965095795e-15
    vertex 17.499999999999996 21.1 -5.639932965095795e-15
  endloop
endfacet
facet normal 2.089477035707849e-17 4.748214194845799e-17 -1.0
  outer loop
    vertex 20.200000000000003 20.6 0.0
    vertex 17.499999999999996 21.1 -5.639932965095795e-15
    vertex 20.200000000000003 26.1 -5.639932965095795e-15
  endloop
endfacet
facet normal 2.089477035707849e-17 4.748214194845799e-17 -1.0
  outer loop
    vertex 20.200000000000003 26.1 -5.639932965095795e-15
    vertex 17.499999999999996 21.1 -5.639932965095795e-15
    vertex 18.7 24.1 -5.639932965095795e-15
  endloop
endfacet
facet normal 2.089477035707849e-17 4.748214194845799e-17 -1.0
  outer loop
    vertex 18.7 24.1 -5.639932965095795e-15
    vertex 17.499999999999996 21.1 -5.639932965095795e-15
    vertex 17.499999999999996 24.1 -5.639932965095795e-15
  endloop
endfacet
facet normal 2.089477035707849e-17 4.748214194845799e-17 -1.0
  outer loop
    vertex 20.200000000000003 26.1 -5.639932965095795e-15
    vertex 18.7 24.1 -5.639932965095795e-15
    vertex 18.7 26.1 -5.639932965095795e-15
  endloop
endfacet
facet normal 2.089477035707849e-17 4.748214194845799e-17 -1.0
  outer loop
    vertex 20.200000000000003 13.6 -5.639932965095795e-15
    vertex 16.100000000000005 15.600000000000003 -5.639932965095795e-15
    vertex 20.200000000000003 20.6 0.0
  endloop
endfacet
facet normal 2.089477035707849e-17 4.748214194845799e-17 -1.0
  outer loop
    vertex 16.100000000000005 15.600000000000003 -5.639932965095795e-15
    vertex 20.200000000000003 13.6 -5.639932965095795e-15
    vertex 4.100000000000004 15.600000000000003 -5.639932965095795e-15
  endloop
endfacet
facet normal 2.089477035707849e-17 4.748214194845799e-17 -1.0
  outer loop
    vertex 20.200000000000003 20.6 0.0
    vertex 16.100000000000005 15.600000000000003 -5.639932965095795e-15
    vertex 16.100000000000005 19.6 -5.639932965095795e-15
  endloop
endfacet
facet normal 0.0 1.0 5.551115123125802e-17
  outer loop
    vertex 18.7 24.1 13.599999999999994
    vertex 17.499999999999996 24.1 -5.639932965095795e-15
    vertex 17.499999999999996 24.1 13.599999999999994
  endloop
endfacet
facet normal 0.0 1.0 5.551115123125802e-17
  outer loop
    vertex 17.499999999999996 24.1 -5.639932965095795e-15
    vertex 18.7 24.1 13.599999999999994
    vertex 18.7 24.1 -5.639932965095795e-15
  endloop
endfacet
facet normal -1.0 0.0 0.0
  outer loop
    vertex 0.0 20.6 -2.8199664825478975e-15
    vertex 0.0 13.6 13.599999999999994
    vertex 0.0 20.6 13.599999999999994
  endloop
endfacet
facet normal -1.0 0.0 0.0
  outer loop
    vertex 0.0 13.6 13.599999999999994
    vertex 0.0 20.6 -2.8199664825478975e-15
    vertex 0.0 13.6 -5.639932965095795e-15
  endloop
endfacet
facet normal 1.0 0.0 0.0
  outer loop
    vertex 20.200000000000003 13.6 13.599999999999994
    vertex 20.200000000000003 20.6 0.0
    vertex 20.200000000000003 20.6 13.599999999999994
  endloop
endfacet
facet normal 1.0 0.0 0.0
  outer loop
    vertex 20.200000000000003 20.6 0.0
    vertex 20.200000000000003 13.6 13.599999999999994
    vertex 20.200000000000003 13.6 -5.639932965095795e-15
  endloop
endfacet
facet normal 0.0 -5.551115123125802e-17 1.0
  outer loop
    vertex 0.0 26.1 13.599999999999994
    vertex -5.6 20.6 13.599999999999994
    vertex 0.0 20.6 13.599999999999994
  endloop
endfacet
facet normal 0.0 -5.551115123125802e-17 1.0
  outer loop
    vertex -5.6 20.6 13.599999999999994
    vertex 0.0 26.1 13.599999999999994
    vertex -5.6 26.1 13.599999999999994
  endloop
endfacet
facet normal 0.0 -1.0 -5.551115123125802e-17
  outer loop
    vertex -5.6 20.6 -2.8199664825478975e-15
    vertex -4.045481322062508 20.6 6.385889527835959
    vertex -5.6 20.6 13.599999999999994
  endloop
endfacet
facet normal 0.0 -1.0 -5.551115123125802e-17
  outer loop
    vertex -4.045481322062508 20.6 6.385889527835959
    vertex -5.6 20.6 -2.8199664825478975e-15
    vertex -3.8856406460551005 20.6 5.9999999999999964
  endloop
endfacet
facet normal 0.0 -1.0 -5.551115123125802e-17
  outer loop
    vertex -3.8856406460551005 20.6 5.9999999999999964
    vertex -5.6 20.6 -2.8199664825478975e-15
    vertex 0.0 20.6 -2.8199664825478975e-15
  endloop
endfacet
facet normal 0.0 -1.0 -5.551115123125802e-17
  outer loop
    vertex -5.6 20.6 13.599999999999994
    vertex -4.045481322062508 20.6 6.385889527835959
    vertex -4.1 20.6 6.7999999999999945
  endloop
endfacet
facet normal 0.0 -1.0 -5.551115123125802e-17
  outer loop
    vertex -3.8856406460551005 20.6 5.9999999999999964
    vertex 0.0 20.6 -2.8199664825478975e-15
    vertex -3.6313708498984743 20.6 5.668629150101521
  endloop
endfacet
facet normal 0.0 -1.0 -5.551115123125802e-17
  outer loop
    vertex -3.6313708498984743 20.6 5.668629150101521
    vertex 0.0 20.6 -2.8199664825478975e-15
    vertex -3.300000000000001 20.6 5.414359353944891
  endloop
endfacet
facet normal 0.0 -1.0 -5.551115123125802e-17
  outer loop
    vertex -3.300000000000001 20.6 5.414359353944891
    vertex 0.0 20.6 -2.8199664825478975e-15
    vertex -2.9141104721640336 20.6 5.254518677937486
  endloop
endfacet
facet normal 0.0 -1.0 -5.551115123125802e-17
  outer loop
    vertex -2.9141104721640336 20.6 5.254518677937486
    vertex 0.0 20.6 -2.8199664825478975e-15
    vertex -2.5 20.6 5.199999999999995
  endloop
endfacet
facet normal 0.0 -1.0 -5.551115123125802e-17
  outer loop
    vertex -2.5 20.6 5.199999999999995
    vertex 0.0 20.6 -2.8199664825478975e-15
    vertex -2.0858895278359677 20.6 5.254518677937486
  endloop
endfacet
facet normal 0.0 -1.0 -5.551115123125802e-17
  outer loop
    vertex -2.0858895278359677 20.6 5.254518677937486
    vertex 0.0 20.6 -2.8199664825478975e-15
    vertex -1.700000000000001 20.6 5.414359353944893
  endloop
endfacet
facet normal 0.0 -1.0 -5.551115123125802e-17
  outer loop
    vertex -1.700000000000001 20.6 5.414359353944893
    vertex 0.0 20.6 -2.8199664825478975e-15
    vertex -1.3686291501015249 20.6 5.668629150101518
  endloop
endfacet
facet normal 0.0 -1.0 -5.551115123125802e-17
  outer loop
    vertex -1.3686291501015249 20.6 5.668629150101518
    vertex 0.0 20.6 -2.8199664825478975e-15
    vertex -1.1143593539448995 20.6 5.999999999999992
  endloop
endfacet
facet normal 0.0 -1.0 -5.551115123125802e-17
  outer loop
    vertex -1.1143593539448995 20.6 5.999999999999992
    vertex 0.0 20.6 -2.8199664825478975e-15
    vertex -0.9545186779374901 20.6 6.385889527835959
  endloop
endfacet
facet normal 0.0 -1.0 -5.551115123125802e-17
  outer loop
    vertex -0.9545186779374901 20.6 6.385889527835959
    vertex 0.0 20.6 -2.8199664825478975e-15
    vertex -0.899999999999999 20.6 6.7999999999999945
  endloop
endfacet
facet normal 0.0 -1.0 -5.551115123125802e-17
  outer loop
    vertex -5.6 20.6 13.599999999999994
    vertex -3.8856406460551027 20.6 7.599999999999994
    vertex 0.0 20.6 13.599999999999994
  endloop
endfacet
facet normal 0.0 -1.0 -5.551115123125802e-17
  outer loop
    vertex -3.8856406460551027 20.6 7.599999999999994
    vertex -5.6 20.6 13.599999999999994
    vertex -4.04548132206251 20.6 7.214110472164028
  endloop
endfacet
facet normal 0.0 -1.0 -5.551115123125802e-17
  outer loop
    vertex -4.04548132206251 20.6 7.214110472164028
    vertex -5.6 20.6 13.599999999999994
    vertex -4.1 20.6 6.7999999999999945
  endloop
endfacet
facet normal 0.0 -1.0 -5.551115123125802e-17
  outer loop
    vertex 0.0 20.6 13.599999999999994
    vertex -3.8856406460551027 20.6 7.599999999999994
    vertex -3.631370849898476 20.6 7.931370849898472
  endloop
endfacet
facet normal 0.0 -1.0 -5.551115123125802e-17
  outer loop
    vertex 0.0 20.6 13.599999999999994
    vertex -3.631370849898476 20.6 7.931370849898472
    vertex -3.3000000000000003 20.6 8.185640646055097
  endloop
endfacet
facet normal 0.0 -1.0 -5.551115123125802e-17
  outer loop
    vertex 0.0 20.6 13.599999999999994
    vertex -3.3000000000000003 20.6 8.185640646055097
    vertex -2.9141104721640336 20.6 8.345481322062504
  endloop
endfacet
facet normal 0.0 -1.0 -5.551115123125802e-17
  outer loop
    vertex 0.0 20.6 13.599999999999994
    vertex -2.9141104721640336 20.6 8.345481322062504
    vertex -2.4999999999999996 20.6 8.399999999999995
  endloop
endfacet
facet normal 0.0 -1.0 -5.551115123125802e-17
  outer loop
    vertex 0.0 20.6 13.599999999999994
    vertex -2.4999999999999996 20.6 8.399999999999995
    vertex -2.0858895278359664 20.6 8.345481322062504
  endloop
endfacet
facet normal 0.0 -1.0 -5.551115123125802e-17
  outer loop
    vertex 0.0 20.6 13.599999999999994
    vertex -2.0858895278359664 20.6 8.345481322062504
    vertex -1.699999999999999 20.6 8.185640646055097
  endloop
endfacet
facet normal 0.0 -1.0 -5.551115123125802e-17
  outer loop
    vertex 0.0 20.6 13.599999999999994
    vertex -1.699999999999999 20.6 8.185640646055097
    vertex -1.3686291501015235 20.6 7.931370849898472
  endloop
endfacet
facet normal 0.0 -1.0 -5.551115123125802e-17
  outer loop
    vertex 0.0 20.6 13.599999999999994
    vertex -1.3686291501015235 20.6 7.931370849898472
    vertex -1.1143593539448966 20.6 7.599999999999992
  endloop
endfacet
facet normal 0.0 -1.0 -5.551115123125802e-17
  outer loop
    vertex 0.0 20.6 13.599999999999994
    vertex -1.1143593539448966 20.6 7.599999999999992
    vertex -0.9545186779374895 20.6 7.214110472164024
  endloop
endfacet
facet normal 0.0 -1.0 -5.551115123125802e-17
  outer loop
    vertex 0.0 20.6 13.599999999999994
    vertex -0.9545186779374895 20.6 7.214110472164024
    vertex -0.899999999999999 20.6 6.7999999999999945
  endloop
endfacet
facet normal 0.0 -1.0 -5.551115123125802e-17
  outer loop
    vertex 0.0 20.6 13.599999999999994
    vertex -0.899999999999999 20.6 6.7999999999999945
    vertex 0.0 20.6 -2.8199664825478975e-15
  endloop
endfacet
facet normal -2.517827216560623e-16 -2.264854970235318e-16 -1.0
  outer loop
    vertex -5.6 26.1 -2.8199664825478975e-15
    vertex 0.0 20.6 -2.8199664825478975e-15
    vertex -5.6 20.6 -2.8199664825478975e-15
  endloop
endfacet
facet normal -2.517827216560623e-16 -2.264854970235318e-16 -1.0
  outer loop
    vertex 0.0 20.6 -2.8199664825478975e-15
    vertex -5.6 26.1 -2.8199664825478975e-15
    vertex 0.0 26.1 -5.639932965095795e-15
  endloop
endfacet
facet normal 0.0 1.0 5.551115123125802e-17
  outer loop
    vertex -5.6 26.1 13.599999999999994
    vertex -4.0454813220625105 26.1 7.214110472164027
    vertex -5.6 26.1 -2.8199664825478975e-15
  endloop
endfacet
facet normal 0.0 1.0 5.551115123125802e-17
  outer loop
    vertex -4.0454813220625105 26.1 7.214110472164027
    vertex -5.6 26.1 13.599999999999994
    vertex -3.885640646055103 26.1 7.599999999999993
  endloop
endfacet
facet normal 0.0 1.0 5.551115123125802e-17
  outer loop
    vertex -3.885640646055103 26.1 7.599999999999993
    vertex -5.6 26.1 13.599999999999994
    vertex 0.0 26.1 13.599999999999994
  endloop
endfacet
facet normal 0.0 1.0 5.551115123125802e-17
  outer loop
    vertex -5.6 26.1 -2.8199664825478975e-15
    vertex -4.0454813220625105 26.1 7.214110472164027
    vertex -4.1 26.1 6.7999999999999945
  endloop
endfacet
facet normal 0.0 1.0 5.551115123125802e-17
  outer loop
    vertex -3.885640646055103 26.1 7.599999999999993
    vertex 0.0 26.1 13.599999999999994
    vertex -3.6313708498984765 26.1 7.93137084989847
  endloop
endfacet
facet normal 0.0 1.0 5.551115123125802e-17
  outer loop
    vertex -3.6313708498984765 26.1 7.93137084989847
    vertex 0.0 26.1 13.599999999999994
    vertex -3.3000000000000003 26.1 8.185640646055097
  endloop
endfacet
facet normal 0.0 1.0 5.551115123125802e-17
  outer loop
    vertex -3.3000000000000003 26.1 8.185640646055097
    vertex 0.0 26.1 13.599999999999994
    vertex -2.9141104721640327 26.1 8.345481322062504
  endloop
endfacet
facet normal 0.0 1.0 5.551115123125802e-17
  outer loop
    vertex -2.9141104721640327 26.1 8.345481322062504
    vertex 0.0 26.1 13.599999999999994
    vertex -2.4999999999999996 26.1 8.399999999999995
  endloop
endfacet
facet normal 0.0 1.0 5.551115123125802e-17
  outer loop
    vertex -2.4999999999999996 26.1 8.399999999999995
    vertex 0.0 26.1 13.599999999999994
    vertex -2.0858895278359664 26.1 8.345481322062504
  endloop
endfacet
facet normal 0.0 1.0 5.551115123125802e-17
  outer loop
    vertex -2.0858895278359664 26.1 8.345481322062504
    vertex 0.0 26.1 13.599999999999994
    vertex -1.6999999999999997 26.1 8.185640646055097
  endloop
endfacet
facet normal 0.0 1.0 5.551115123125802e-17
  outer loop
    vertex -1.6999999999999997 26.1 8.185640646055097
    vertex 0.0 26.1 13.599999999999994
    vertex -1.368629150101522 26.1 7.931370849898468
  endloop
endfacet
facet normal 0.0 1.0 5.551115123125802e-17
  outer loop
    vertex -1.368629150101522 26.1 7.931370849898468
    vertex 0.0 26.1 13.599999999999994
    vertex -1.1143593539448966 26.1 7.599999999999992
  endloop
endfacet
facet normal 0.0 1.0 5.551115123125802e-17
  outer loop
    vertex -1.1143593539448966 26.1 7.599999999999992
    vertex 0.0 26.1 13.599999999999994
    vertex -0.9545186779374895 26.1 7.214110472164024
  endloop
endfacet
facet normal 0.0 1.0 5.551115123125802e-17
  outer loop
    vertex -0.9545186779374895 26.1 7.214110472164024
    vertex 0.0 26.1 13.599999999999994
    vertex -0.899999999999999 26.1 6.7999999999999945
  endloop
endfacet
facet normal 0.0 1.0 5.551115123125802e-17
  outer loop
    vertex -5.6 26.1 -2.8199664825478975e-15
    vertex -3.8856406460551005 26.1 5.9999999999999964
    vertex 0.0 26.1 -5.639932965095795e-15
  endloop
endfacet
facet normal 0.0 1.0 5.551115123125802e-17
  outer loop
    vertex -3.8856406460551005 26.1 5.9999999999999964
    vertex -5.6 26.1 -2.8199664825478975e-15
    vertex -4.045481322062508 26.1 6.385889527835959
  endloop
endfacet
facet normal 0.0 1.0 5.551115123125802e-17
  outer loop
    vertex -4.045481322062508 26.1 6.385889527835959
    vertex -5.6 26.1 -2.8199664825478975e-15
    vertex -4.1 26.1 6.7999999999999945
  endloop
endfacet
facet normal 0.0 1.0 5.551115123125802e-17
  outer loop
    vertex 0.0 26.1 -5.639932965095795e-15
    vertex -3.8856406460551005 26.1 5.9999999999999964
    vertex -3.6313708498984765 26.1 5.668629150101519
  endloop
endfacet
facet normal 0.0 1.0 5.551115123125802e-17
  outer loop
    vertex 0.0 26.1 -5.639932965095795e-15
    vertex -3.6313708498984765 26.1 5.668629150101519
    vertex -3.300000000000001 26.1 5.414359353944891
  endloop
endfacet
facet normal 0.0 1.0 5.551115123125802e-17
  outer loop
    vertex 0.0 26.1 -5.639932965095795e-15
    vertex -3.300000000000001 26.1 5.414359353944891
    vertex -2.914110472164034 26.1 5.2545186779374875
  endloop
endfacet
facet normal 0.0 1.0 5.551115123125802e-17
  outer loop
    vertex 0.0 26.1 -5.639932965095795e-15
    vertex -2.914110472164034 26.1 5.2545186779374875
    vertex -2.500000000000001 26.1 5.199999999999995
  endloop
endfacet
facet normal 0.0 1.0 5.551115123125802e-17
  outer loop
    vertex 0.0 26.1 -5.639932965095795e-15
    vertex -2.500000000000001 26.1 5.199999999999995
    vertex -2.0858895278359677 26.1 5.254518677937486
  endloop
endfacet
facet normal 0.0 1.0 5.551115123125802e-17
  outer loop
    vertex 0.0 26.1 -5.639932965095795e-15
    vertex -2.0858895278359677 26.1 5.254518677937486
    vertex -1.700000000000001 26.1 5.414359353944893
  endloop
endfacet
facet normal 0.0 1.0 5.551115123125802e-17
  outer loop
    vertex 0.0 26.1 -5.639932965095795e-15
    vertex -1.700000000000001 26.1 5.414359353944893
    vertex -1.3686291501015249 26.1 5.668629150101518
  endloop
endfacet
facet normal 0.0 1.0 5.551115123125802e-17
  outer loop
    vertex 0.0 26.1 -5.639932965095795e-15
    vertex -1.3686291501015249 26.1 5.668629150101518
    vertex -1.1143593539448995 26.1 5.999999999999992
  endloop
endfacet
facet normal 0.0 1.0 5.551115123125802e-17
  outer loop
    vertex 0.0 26.1 -5.639932965095795e-15
    vertex -1.1143593539448995 26.1 5.999999999999992
    vertex -0.9545186779374922 26.1 6.385889527835959
  endloop
endfacet
facet normal 0.0 1.0 5.551115123125802e-17
  outer loop
    vertex 0.0 26.1 -5.639932965095795e-15
    vertex -0.9545186779374922 26.1 6.385889527835959
    vertex -0.899999999999999 26.1 6.7999999999999945
  endloop
endfacet
facet normal 0.0 1.0 5.551115123125802e-17
  outer loop
    vertex 0.0 26.1 -5.639932965095795e-15
    vertex -0.899999999999999 26.1 6.7999999999999945
    vertex 0.0 26.1 13.599999999999994
  endloop
endfacet
facet normal 0.0 1.0 5.551115123125802e-17
  outer loop
    vertex 0.0 26.1 -5.639932965095795e-15
    vertex 0.0 26.1 13.599999999999994
    vertex 1.5000000000000029 26.1 13.599999999999994
  endloop
endfacet
facet normal 0.0 1.0 5.551115123125802e-17
  outer loop
    vertex 0.0 26.1 -5.639932965095795e-15
    vertex 1.5000000000000029 26.1 13.599999999999994
    vertex 1.5000000000000029 26.1 -5.639932965095795e-15
  endloop
endfacet
facet normal -1.0 0.0 0.0
  outer loop
    vertex -5.6 26.1 -2.8199664825478975e-15
    vertex -5.6 20.6 13.599999999999994
    vertex -5.6 26.1 13.599999999999994
  endloop
endfacet
facet normal -1.0 0.0 0.0
  outer loop
    vertex -5.6 20.6 13.599999999999994
    vertex -5.6 26.1 -2.8199664825478975e-15
    vertex -5.6 20.6 -2.8199664825478975e-15
  endloop
endfacet
facet normal 0.7933533402912363 2.200718244935952e-16 0.6087614290087193
  outer loop
    vertex -3.6313708498984743 20.6 5.668629150101521
    vertex -3.8856406460551005 26.1 5.9999999999999964
    vertex -3.8856406460551005 20.6 5.9999999999999964
  endloop
endfacet
facet normal 0.7933533402912363 2.200718244935952e-16 0.6087614290087193
  outer loop
    vertex -3.8856406460551005 26.1 5.9999999999999964
    vertex -3.6313708498984743 20.6 5.668629150101521
    vertex -3.6313708498984765 26.1 5.668629150101519
  endloop
endfacet
facet normal 0.9238795325112854 -2.1243197887715556e-17 0.38268343236509317
  outer loop
    vertex -3.8856406460551005 20.6 5.9999999999999964
    vertex -4.045481322062508 26.1 6.385889527835959
    vertex -4.045481322062508 20.6 6.385889527835959
  endloop
endfacet
facet normal 0.9238795325112854 -2.1243197887715556e-17 0.38268343236509317
  outer loop
    vertex -4.045481322062508 26.1 6.385889527835959
    vertex -3.8856406460551005 20.6 5.9999999999999964
    vertex -3.8856406460551005 26.1 5.9999999999999964
  endloop
endfacet
facet normal 0.9914448613738103 -6.533705483758249e-18 0.1305261922200532
  outer loop
    vertex -4.045481322062508 20.6 6.385889527835959
    vertex -4.1 26.1 6.7999999999999945
    vertex -4.1 20.6 6.7999999999999945
  endloop
endfacet
facet normal 0.9914448613738103 -6.533705483758249e-18 0.1305261922200532
  outer loop
    vertex -4.1 26.1 6.7999999999999945
    vertex -4.045481322062508 20.6 6.385889527835959
    vertex -4.045481322062508 26.1 6.385889527835959
  endloop
endfacet
facet normal 0.9914448613738109 5.904738880962068e-17 -0.13052619222004846
  outer loop
    vertex -4.1 20.6 6.7999999999999945
    vertex -4.0454813220625105 26.1 7.214110472164027
    vertex -4.04548132206251 20.6 7.214110472164028
  endloop
endfacet
facet normal 0.9914448613738109 5.904738880962068e-17 -0.13052619222004846
  outer loop
    vertex -4.0454813220625105 26.1 7.214110472164027
    vertex -4.1 20.6 6.7999999999999945
    vertex -4.1 26.1 6.7999999999999945
  endloop
endfacet
facet normal 0.9238795325112865 7.147917549421792e-17 -0.38268343236509045
  outer loop
    vertex -4.04548132206251 20.6 7.214110472164028
    vertex -3.885640646055103 26.1 7.599999999999993
    vertex -3.8856406460551027 20.6 7.599999999999994
  endloop
endfacet
facet normal 0.9238795325112865 7.147917549421792e-17 -0.38268343236509045
  outer loop
    vertex -3.885640646055103 26.1 7.599999999999993
    vertex -4.04548132206251 20.6 7.214110472164028
    vertex -4.0454813220625105 26.1 7.214110472164027
  endloop
endfacet
facet normal 0.7933533402912355 -2.7250174924884515e-17 -0.6087614290087202
  outer loop
    vertex -3.8856406460551027 20.6 7.599999999999994
    vertex -3.6313708498984765 26.1 7.93137084989847
    vertex -3.631370849898476 20.6 7.931370849898472
  endloop
endfacet
facet normal 0.7933533402912355 -2.7250174924884515e-17 -0.6087614290087202
  outer loop
    vertex -3.6313708498984765 26.1 7.93137084989847
    vertex -3.8856406460551027 20.6 7.599999999999994
    vertex -3.885640646055103 26.1 7.599999999999993
  endloop
endfacet
facet normal 0.6087614290087207 -8.207927425180046e-17 -0.7933533402912352
  outer loop
    vertex -3.6313708498984765 26.1 7.93137084989847
    vertex -3.3000000000000003 20.6 8.185640646055097
    vertex -3.631370849898476 20.6 7.931370849898472
  endloop
endfacet
facet normal 0.6087614290087207 -8.207927425180046e-17 -0.7933533402912352
  outer loop
    vertex -3.3000000000000003 20.6 8.185640646055097
    vertex -3.6313708498984765 26.1 7.93137084989847
    vertex -3.3000000000000003 26.1 8.185640646055097
  endloop
endfacet
facet normal 0.3826834323650898 7.52220046385407e-17 -0.9238795325112867
  outer loop
    vertex -3.3000000000000003 26.1 8.185640646055097
    vertex -2.9141104721640336 20.6 8.345481322062504
    vertex -3.3000000000000003 20.6 8.185640646055097
  endloop
endfacet
facet normal 0.3826834323650898 7.52220046385407e-17 -0.9238795325112867
  outer loop
    vertex -2.9141104721640336 20.6 8.345481322062504
    vertex -3.3000000000000003 26.1 8.185640646055097
    vertex -2.9141104721640327 26.1 8.345481322062504
  endloop
endfacet
facet normal 0.13052619222005316 1.1120196762465477e-16 -0.9914448613738103
  outer loop
    vertex -2.9141104721640327 26.1 8.345481322062504
    vertex -2.4999999999999996 20.6 8.399999999999995
    vertex -2.9141104721640336 20.6 8.345481322062504
  endloop
endfacet
facet normal 0.13052619222005316 1.1120196762465477e-16 -0.9914448613738103
  outer loop
    vertex -2.4999999999999996 20.6 8.399999999999995
    vertex -2.9141104721640327 26.1 8.345481322062504
    vertex -2.4999999999999996 26.1 8.399999999999995
  endloop
endfacet
facet normal -0.13052619222005404 5.5382995483222845e-17 -0.9914448613738103
  outer loop
    vertex -2.4999999999999996 26.1 8.399999999999995
    vertex -2.0858895278359664 20.6 8.345481322062504
    vertex -2.4999999999999996 20.6 8.399999999999995
  endloop
endfacet
facet normal -0.13052619222005404 5.5382995483222845e-17 -0.9914448613738103
  outer loop
    vertex -2.0858895278359664 20.6 8.345481322062504
    vertex -2.4999999999999996 26.1 8.399999999999995
    vertex -2.0858895278359664 26.1 8.345481322062504
  endloop
endfacet
facet normal -0.3826834323650893 2.4517527485341794e-17 -0.9238795325112871
  outer loop
    vertex -2.0858895278359664 26.1 8.345481322062504
    vertex -1.699999999999999 20.6 8.185640646055097
    vertex -2.0858895278359664 20.6 8.345481322062504
  endloop
endfacet
facet normal -0.3826834323650893 2.4517527485341794e-17 -0.9238795325112871
  outer loop
    vertex -1.699999999999999 20.6 8.185640646055097
    vertex -2.0858895278359664 26.1 8.345481322062504
    vertex -1.6999999999999997 26.1 8.185640646055097
  endloop
endfacet
facet normal -0.6087614290087224 -1.4794655869915845e-16 -0.7933533402912338
  outer loop
    vertex -1.6999999999999997 26.1 8.185640646055097
    vertex -1.3686291501015235 20.6 7.931370849898472
    vertex -1.699999999999999 20.6 8.185640646055097
  endloop
endfacet
facet normal -0.6087614290087224 -1.4794655869915845e-16 -0.7933533402912338
  outer loop
    vertex -1.3686291501015235 20.6 7.931370849898472
    vertex -1.6999999999999997 26.1 8.185640646055097
    vertex -1.368629150101522 26.1 7.931370849898468
  endloop
endfacet
facet normal -0.793353340291236 3.7164717087130846e-18 -0.6087614290087195
  outer loop
    vertex -1.368629150101522 26.1 7.931370849898468
    vertex -1.1143593539448966 20.6 7.599999999999992
    vertex -1.3686291501015235 20.6 7.931370849898472
  endloop
endfacet
facet normal -0.793353340291236 3.7164717087130846e-18 -0.6087614290087195
  outer loop
    vertex -1.1143593539448966 20.6 7.599999999999992
    vertex -1.368629150101522 26.1 7.931370849898468
    vertex -1.1143593539448966 26.1 7.599999999999992
  endloop
endfacet
facet normal -0.9238795325112875 4.760582562178312e-17 -0.382683432365088
  outer loop
    vertex -0.9545186779374895 26.1 7.214110472164024
    vertex -1.1143593539448966 20.6 7.599999999999992
    vertex -1.1143593539448966 26.1 7.599999999999992
  endloop
endfacet
facet normal -0.9238795325112875 4.760582562178312e-17 -0.382683432365088
  outer loop
    vertex -1.1143593539448966 20.6 7.599999999999992
    vertex -0.9545186779374895 26.1 7.214110472164024
    vertex -0.9545186779374895 20.6 7.214110472164024
  endloop
endfacet
facet normal -0.9914448613738103 7.518592961558868e-18 -0.13052619222005285
  outer loop
    vertex -0.899999999999999 26.1 6.7999999999999945
    vertex -0.9545186779374895 20.6 7.214110472164024
    vertex -0.9545186779374895 26.1 7.214110472164024
  endloop
endfacet
facet normal -0.9914448613738103 7.518592961558868e-18 -0.13052619222005285
  outer loop
    vertex -0.9545186779374895 20.6 7.214110472164024
    vertex -0.899999999999999 26.1 6.7999999999999945
    vertex -0.899999999999999 20.6 6.7999999999999945
  endloop
endfacet
facet normal -0.99144486137381 -1.9961800767195956e-16 0.13052619222005418
  outer loop
    vertex -0.9545186779374922 26.1 6.385889527835959
    vertex -0.899999999999999 20.6 6.7999999999999945
    vertex -0.899999999999999 26.1 6.7999999999999945
  endloop
endfacet
facet normal -0.99144486137381 -1.9961800767195956e-16 0.13052619222005418
  outer loop
    vertex -0.899999999999999 20.6 6.7999999999999945
    vertex -0.9545186779374922 26.1 6.385889527835959
    vertex -0.9545186779374901 20.6 6.385889527835959
  endloop
endfacet
facet normal -0.9238795325112857 -2.0130305500832485e-16 0.3826834323650923
  outer loop
    vertex -1.1143593539448995 26.1 5.999999999999992
    vertex -0.9545186779374901 20.6 6.385889527835959
    vertex -0.9545186779374922 26.1 6.385889527835959
  endloop
endfacet
facet normal -0.9238795325112857 -2.0130305500832485e-16 0.3826834323650923
  outer loop
    vertex -0.9545186779374901 20.6 6.385889527835959
    vertex -1.1143593539448995 26.1 5.999999999999992
    vertex -1.1143593539448995 20.6 5.999999999999992
  endloop
endfacet
facet normal -0.7933533402912344 -3.2243618967788814e-17 0.6087614290087219
  outer loop
    vertex -1.3686291501015249 26.1 5.668629150101518
    vertex -1.1143593539448995 20.6 5.999999999999992
    vertex -1.1143593539448995 26.1 5.999999999999992
  endloop
endfacet
facet normal -0.7933533402912344 -3.2243618967788814e-17 0.6087614290087219
  outer loop
    vertex -1.1143593539448995 20.6 5.999999999999992
    vertex -1.3686291501015249 26.1 5.668629150101518
    vertex -1.3686291501015249 20.6 5.668629150101518
  endloop
endfacet
facet normal -0.6087614290087194 -4.182020578232657e-17 0.7933533402912363
  outer loop
    vertex -1.3686291501015249 26.1 5.668629150101518
    vertex -1.700000000000001 20.6 5.414359353944893
    vertex -1.3686291501015249 20.6 5.668629150101518
  endloop
endfacet
facet normal -0.6087614290087194 -4.182020578232657e-17 0.7933533402912363
  outer loop
    vertex -1.700000000000001 20.6 5.414359353944893
    vertex -1.3686291501015249 26.1 5.668629150101518
    vertex -1.700000000000001 26.1 5.414359353944893
  endloop
endfacet
facet normal -0.3826834323650896 -5.128561644869794e-17 0.9238795325112868
  outer loop
    vertex -1.700000000000001 26.1 5.414359353944893
    vertex -2.0858895278359677 20.6 5.254518677937486
    vertex -1.700000000000001 20.6 5.414359353944893
  endloop
endfacet
facet normal -0.3826834323650896 -5.128561644869794e-17 0.9238795325112868
  outer loop
    vertex -2.0858895278359677 20.6 5.254518677937486
    vertex -1.700000000000001 26.1 5.414359353944893
    vertex -2.0858895278359677 26.1 5.254518677937486
  endloop
endfacet
facet normal -0.1305261922200525 -6.416634229121896e-17 0.9914448613738103
  outer loop
    vertex -2.0858895278359677 26.1 5.254518677937486
    vertex -2.5 20.6 5.199999999999995
    vertex -2.0858895278359677 20.6 5.254518677937486
  endloop
endfacet
facet normal -0.1305261922200525 -6.416634229121896e-17 0.9914448613738103
  outer loop
    vertex -2.5 20.6 5.199999999999995
    vertex -2.0858895278359677 26.1 5.254518677937486
    vertex -2.500000000000001 26.1 5.199999999999995
  endloop
endfacet
facet normal 0.13052619222005404 -1.8117162044582462e-16 0.9914448613738103
  outer loop
    vertex -2.500000000000001 26.1 5.199999999999995
    vertex -2.9141104721640336 20.6 5.254518677937486
    vertex -2.5 20.6 5.199999999999995
  endloop
endfacet
facet normal 0.13052619222005404 -1.8117162044582462e-16 0.9914448613738103
  outer loop
    vertex -2.9141104721640336 20.6 5.254518677937486
    vertex -2.500000000000001 26.1 5.199999999999995
    vertex -2.914110472164034 26.1 5.2545186779374875
  endloop
endfacet
facet normal 0.38268343236508473 -1.683119159136131e-16 0.9238795325112888
  outer loop
    vertex -2.9141104721640336 20.6 5.254518677937486
    vertex -3.300000000000001 26.1 5.414359353944891
    vertex -3.300000000000001 20.6 5.414359353944891
  endloop
endfacet
facet normal 0.38268343236508473 -1.683119159136131e-16 0.9238795325112888
  outer loop
    vertex -3.300000000000001 26.1 5.414359353944891
    vertex -2.9141104721640336 20.6 5.254518677937486
    vertex -2.914110472164034 26.1 5.2545186779374875
  endloop
endfacet
facet normal 0.6087614290087261 1.9469325700599545e-16 0.7933533402912312
  outer loop
    vertex -3.300000000000001 26.1 5.414359353944891
    vertex -3.6313708498984743 20.6 5.668629150101521
    vertex -3.300000000000001 20.6 5.414359353944891
  endloop
endfacet
facet normal 0.6087614290087261 1.9469325700599545e-16 0.7933533402912312
  outer loop
    vertex -3.6313708498984743 20.6 5.668629150101521
    vertex -3.300000000000001 26.1 5.414359353944891
    vertex -3.6313708498984765 26.1 5.668629150101519
  endloop
endfacet
facet normal 1.006388305426981e-31 -5.084821452783216e-16 -1.0
  outer loop
    vertex 20.200000000000003 20.6 0.0
    vertex 25.800000000000004 26.1 -2.8199664825478975e-15
    vertex 25.799999999999997 20.6 -2.8199664825478975e-15
  endloop
endfacet
facet normal 1.006388305426981e-31 -5.084821452783216e-16 -1.0
  outer loop
    vertex 25.800000000000004 26.1 -2.8199664825478975e-15
    vertex 20.200000000000003 20.6 0.0
    vertex 20.200000000000003 26.1 -5.639932965095795e-15
  endloop
endfacet
facet normal -2.517827216560623e-16 -1.0 -5.551115123125797e-17
  outer loop
    vertex 20.200000000000003 20.6 0.0
    vertex 21.15451867793749 20.6 6.385889527835961
    vertex 20.200000000000003 20.6 13.599999999999994
  endloop
endfacet
facet normal -2.517827216560623e-16 -1.0 -5.551115123125797e-17
  outer loop
    vertex 21.15451867793749 20.6 6.385889527835961
    vertex 20.200000000000003 20.6 0.0
    vertex 21.3143593539449 20.6 5.999999999999995
  endloop
endfacet
facet normal -2.517827216560623e-16 -1.0 -5.551115123125797e-17
  outer loop
    vertex 21.3143593539449 20.6 5.999999999999995
    vertex 20.200000000000003 20.6 0.0
    vertex 25.799999999999997 20.6 -2.8199664825478975e-15
  endloop
endfacet
facet normal -2.517827216560623e-16 -1.0 -5.551115123125797e-17
  outer loop
    vertex 20.200000000000003 20.6 13.599999999999994
    vertex 21.15451867793749 20.6 6.385889527835961
    vertex 21.100000000000005 20.6 6.7999999999999945
  endloop
endfacet
facet normal -2.517827216560623e-16 -1.0 -5.551115123125797e-17
  outer loop
    vertex 21.3143593539449 20.6 5.999999999999995
    vertex 25.799999999999997 20.6 -2.8199664825478975e-15
    vertex 21.56862915010153 20.6 5.668629150101521
  endloop
endfacet
facet normal -2.517827216560623e-16 -1.0 -5.551115123125797e-17
  outer loop
    vertex 21.56862915010153 20.6 5.668629150101521
    vertex 25.799999999999997 20.6 -2.8199664825478975e-15
    vertex 21.90000000000001 20.6 5.414359353944888
  endloop
endfacet
facet normal -2.517827216560623e-16 -1.0 -5.551115123125797e-17
  outer loop
    vertex 21.90000000000001 20.6 5.414359353944888
    vertex 25.799999999999997 20.6 -2.8199664825478975e-15
    vertex 22.285889527835966 20.6 5.254518677937484
  endloop
endfacet
facet normal -2.517827216560623e-16 -1.0 -5.551115123125797e-17
  outer loop
    vertex 22.285889527835966 20.6 5.254518677937484
    vertex 25.799999999999997 20.6 -2.8199664825478975e-15
    vertex 22.700000000000003 20.6 5.199999999999993
  endloop
endfacet
facet normal -2.517827216560623e-16 -1.0 -5.551115123125797e-17
  outer loop
    vertex 22.700000000000003 20.6 5.199999999999993
    vertex 25.799999999999997 20.6 -2.8199664825478975e-15
    vertex 23.114110472164036 20.6 5.254518677937486
  endloop
endfacet
facet normal -2.517827216560623e-16 -1.0 -5.551115123125797e-17
  outer loop
    vertex 23.114110472164036 20.6 5.254518677937486
    vertex 25.799999999999997 20.6 -2.8199664825478975e-15
    vertex 23.500000000000014 20.6 5.414359353944895
  endloop
endfacet
facet normal -2.517827216560623e-16 -1.0 -5.551115123125797e-17
  outer loop
    vertex 23.500000000000014 20.6 5.414359353944895
    vertex 25.799999999999997 20.6 -2.8199664825478975e-15
    vertex 23.83137084989849 20.6 5.668629150101521
  endloop
endfacet
facet normal -2.517827216560623e-16 -1.0 -5.551115123125797e-17
  outer loop
    vertex 23.83137084989849 20.6 5.668629150101521
    vertex 25.799999999999997 20.6 -2.8199664825478975e-15
    vertex 24.085640646055104 20.6 5.999999999999995
  endloop
endfacet
facet normal -2.517827216560623e-16 -1.0 -5.551115123125797e-17
  outer loop
    vertex 24.085640646055104 20.6 5.999999999999995
    vertex 25.799999999999997 20.6 -2.8199664825478975e-15
    vertex 24.24548132206251 20.6 6.385889527835961
  endloop
endfacet
facet normal -2.517827216560623e-16 -1.0 -5.551115123125797e-17
  outer loop
    vertex 24.24548132206251 20.6 6.385889527835961
    vertex 25.799999999999997 20.6 -2.8199664825478975e-15
    vertex 24.3 20.6 6.799999999999994
  endloop
endfacet
facet normal -2.517827216560623e-16 -1.0 -5.551115123125797e-17
  outer loop
    vertex 20.200000000000003 20.6 13.599999999999994
    vertex 21.3143593539449 20.6 7.599999999999994
    vertex 25.800000000000004 20.6 13.599999999999994
  endloop
endfacet
facet normal -2.517827216560623e-16 -1.0 -5.551115123125797e-17
  outer loop
    vertex 21.3143593539449 20.6 7.599999999999994
    vertex 20.200000000000003 20.6 13.599999999999994
    vertex 21.154518677937496 20.6 7.214110472164028
  endloop
endfacet
facet normal -2.517827216560623e-16 -1.0 -5.551115123125797e-17
  outer loop
    vertex 21.154518677937496 20.6 7.214110472164028
    vertex 20.200000000000003 20.6 13.599999999999994
    vertex 21.100000000000005 20.6 6.7999999999999945
  endloop
endfacet
facet normal -2.517827216560623e-16 -1.0 -5.551115123125797e-17
  outer loop
    vertex 25.800000000000004 20.6 13.599999999999994
    vertex 21.3143593539449 20.6 7.599999999999994
    vertex 21.56862915010153 20.6 7.93137084989847
  endloop
endfacet
facet normal -2.517827216560623e-16 -1.0 -5.551115123125797e-17
  outer loop
    vertex 25.800000000000004 20.6 13.599999999999994
    vertex 21.56862915010153 20.6 7.93137084989847
    vertex 21.90000000000001 20.6 8.185640646055097
  endloop
endfacet
facet normal -2.517827216560623e-16 -1.0 -5.551115123125797e-17
  outer loop
    vertex 25.800000000000004 20.6 13.599999999999994
    vertex 21.90000000000001 20.6 8.185640646055097
    vertex 22.285889527835977 20.6 8.345481322062506
  endloop
endfacet
facet normal -2.517827216560623e-16 -1.0 -5.551115123125797e-17
  outer loop
    vertex 25.800000000000004 20.6 13.599999999999994
    vertex 22.285889527835977 20.6 8.345481322062506
    vertex 22.700000000000003 20.6 8.399999999999995
  endloop
endfacet
facet normal -2.517827216560623e-16 -1.0 -5.551115123125797e-17
  outer loop
    vertex 25.800000000000004 20.6 13.599999999999994
    vertex 22.700000000000003 20.6 8.399999999999995
    vertex 23.11411047216404 20.6 8.3454813220625
  endloop
endfacet
facet normal -2.517827216560623e-16 -1.0 -5.551115123125797e-17
  outer loop
    vertex 25.800000000000004 20.6 13.599999999999994
    vertex 23.11411047216404 20.6 8.3454813220625
    vertex 23.500000000000007 20.6 8.185640646055095
  endloop
endfacet
facet normal -2.517827216560623e-16 -1.0 -5.551115123125797e-17
  outer loop
    vertex 25.800000000000004 20.6 13.599999999999994
    vertex 23.500000000000007 20.6 8.185640646055095
    vertex 23.83137084989848 20.6 7.931370849898468
  endloop
endfacet
facet normal -2.517827216560623e-16 -1.0 -5.551115123125797e-17
  outer loop
    vertex 25.800000000000004 20.6 13.599999999999994
    vertex 23.83137084989848 20.6 7.931370849898468
    vertex 24.085640646055104 20.6 7.599999999999993
  endloop
endfacet
facet normal -2.517827216560623e-16 -1.0 -5.551115123125797e-17
  outer loop
    vertex 25.800000000000004 20.6 13.599999999999994
    vertex 24.085640646055104 20.6 7.599999999999993
    vertex 24.245481322062517 20.6 7.2141104721640295
  endloop
endfacet
facet normal -2.517827216560623e-16 -1.0 -5.551115123125797e-17
  outer loop
    vertex 25.800000000000004 20.6 13.599999999999994
    vertex 24.245481322062517 20.6 7.2141104721640295
    vertex 24.3 20.6 6.799999999999994
  endloop
endfacet
facet normal -2.517827216560623e-16 -1.0 -5.551115123125797e-17
  outer loop
    vertex 25.800000000000004 20.6 13.599999999999994
    vertex 24.3 20.6 6.799999999999994
    vertex 25.799999999999997 20.6 -2.8199664825478975e-15
  endloop
endfacet
facet normal 1.888370412420467e-16 1.4988010832439417e-17 1.0
  outer loop
    vertex 25.800000000000004 26.099999999999998 13.599999999999994
    vertex 20.200000000000003 20.6 13.599999999999994
    vertex 25.800000000000004 20.6 13.599999999999994
  endloop
endfacet
facet normal 1.888370412420467e-16 1.4988010832439417e-17 1.0
  outer loop
    vertex 20.200000000000003 20.6 13.599999999999994
    vertex 25.800000000000004 26.099999999999998 13.599999999999994
    vertex 20.200000000000003 26.1 13.599999999999994
  endloop
endfacet
facet normal 2.1312529355128703e-16 1.0 5.551115123125802e-17
  outer loop
    vertex 20.200000000000003 26.1 13.599999999999994
    vertex 18.7 26.1 -5.639932965095795e-15
    vertex 18.7 26.1 13.599999999999994
  endloop
endfacet
facet normal 2.1312529355128703e-16 1.0 5.551115123125802e-17
  outer loop
    vertex 18.7 26.1 -5.639932965095795e-15
    vertex 20.200000000000003 26.1 13.599999999999994
    vertex 20.200000000000003 26.1 -5.639932965095795e-15
  endloop
endfacet
facet normal 2.1312529355128703e-16 1.0 5.551115123125802e-17
  outer loop
    vertex 20.200000000000003 26.1 -5.639932965095795e-15
    vertex 20.200000000000003 26.1 13.599999999999994
    vertex 21.154518677937496 26.1 7.214110472164028
  endloop
endfacet
facet normal 2.1312529355128703e-16 1.0 5.551115123125802e-17
  outer loop
    vertex 21.154518677937496 26.1 7.214110472164028
    vertex 20.200000000000003 26.1 13.599999999999994
    vertex 21.3143593539449 26.1 7.599999999999994
  endloop
endfacet
facet normal 2.1312529355128703e-16 1.0 5.551115123125802e-17
  outer loop
    vertex 21.3143593539449 26.1 7.599999999999994
    vertex 20.200000000000003 26.1 13.599999999999994
    vertex 25.800000000000004 26.099999999999998 13.599999999999994
  endloop
endfacet
facet normal 2.1312529355128703e-16 1.0 5.551115123125802e-17
  outer loop
    vertex 20.200000000000003 26.1 -5.639932965095795e-15
    vertex 21.154518677937496 26.1 7.214110472164028
    vertex 21.100000000000005 26.1 6.7999999999999945
  endloop
endfacet
facet normal 2.1312529355128703e-16 1.0 5.551115123125802e-17
  outer loop
    vertex 21.3143593539449 26.1 7.599999999999994
    vertex 25.800000000000004 26.099999999999998 13.599999999999994
    vertex 21.56862915010153 26.1 7.931370849898472
  endloop
endfacet
facet normal 2.1312529355128703e-16 1.0 5.551115123125802e-17
  outer loop
    vertex 21.56862915010153 26.1 7.931370849898472
    vertex 25.800000000000004 26.099999999999998 13.599999999999994
    vertex 21.90000000000001 26.1 8.1856406460551
  endloop
endfacet
facet normal 2.1312529355128703e-16 1.0 5.551115123125802e-17
  outer loop
    vertex 21.90000000000001 26.1 8.1856406460551
    vertex 25.800000000000004 26.099999999999998 13.599999999999994
    vertex 22.285889527835977 26.1 8.34548132206251
  endloop
endfacet
facet normal 2.1312529355128703e-16 1.0 5.551115123125802e-17
  outer loop
    vertex 22.285889527835977 26.1 8.34548132206251
    vertex 25.800000000000004 26.099999999999998 13.599999999999994
    vertex 22.70000000000001 26.1 8.399999999999995
  endloop
endfacet
facet normal 2.1312529355128703e-16 1.0 5.551115123125802e-17
  outer loop
    vertex 22.70000000000001 26.1 8.399999999999995
    vertex 25.800000000000004 26.099999999999998 13.599999999999994
    vertex 23.11411047216404 26.1 8.3454813220625
  endloop
endfacet
facet normal 2.1312529355128703e-16 1.0 5.551115123125802e-17
  outer loop
    vertex 23.11411047216404 26.1 8.3454813220625
    vertex 25.800000000000004 26.099999999999998 13.599999999999994
    vertex 23.500000000000007 26.099999999999998 8.185640646055095
  endloop
endfacet
facet normal 2.1312529355128703e-16 1.0 5.551115123125802e-17
  outer loop
    vertex 23.500000000000007 26.099999999999998 8.185640646055095
    vertex 25.800000000000004 26.099999999999998 13.599999999999994
    vertex 23.831370849898484 26.099999999999998 7.931370849898468
  endloop
endfacet
facet normal 2.1312529355128703e-16 1.0 5.551115123125802e-17
  outer loop
    vertex 23.831370849898484 26.099999999999998 7.931370849898468
    vertex 25.800000000000004 26.099999999999998 13.599999999999994
    vertex 24.085640646055104 26.1 7.599999999999993
  endloop
endfacet
facet normal 2.1312529355128703e-16 1.0 5.551115123125802e-17
  outer loop
    vertex 24.085640646055104 26.1 7.599999999999993
    vertex 25.800000000000004 26.099999999999998 13.599999999999994
    vertex 24.24548132206251 26.1 7.214110472164028
  endloop
endfacet
facet normal 2.1312529355128703e-16 1.0 5.551115123125802e-17
  outer loop
    vertex 24.24548132206251 26.1 7.214110472164028
    vertex 25.800000000000004 26.099999999999998 13.599999999999994
    vertex 24.3 26.1 6.7999999999999945
  endloop
endfacet
facet normal 2.1312529355128703e-16 1.0 5.551115123125802e-17
  outer loop
    vertex 20.200000000000003 26.1 -5.639932965095795e-15
    vertex 21.3143593539449 26.1 5.999999999999995
    vertex 25.800000000000004 26.1 -2.8199664825478975e-15
  endloop
endfacet
facet normal 2.1312529355128703e-16 1.0 5.551115123125802e-17
  outer loop
    vertex 21.3143593539449 26.1 5.999999999999995
    vertex 20.200000000000003 26.1 -5.639932965095795e-15
    vertex 21.15451867793749 26.1 6.385889527835963
  endloop
endfacet
facet normal 2.1312529355128703e-16 1.0 5.551115123125802e-17
  outer loop
    vertex 21.15451867793749 26.1 6.385889527835963
    vertex 20.200000000000003 26.1 -5.639932965095795e-15
    vertex 21.100000000000005 26.1 6.7999999999999945
  endloop
endfacet
facet normal 2.1312529355128703e-16 1.0 5.551115123125802e-17
  outer loop
    vertex 25.800000000000004 26.1 -2.8199664825478975e-15
    vertex 21.3143593539449 26.1 5.999999999999995
    vertex 21.568629150101533 26.1 5.668629150101516
  endloop
endfacet
facet normal 2.1312529355128703e-16 1.0 5.551115123125802e-17
  outer loop
    vertex 25.800000000000004 26.1 -2.8199664825478975e-15
    vertex 21.568629150101533 26.1 5.668629150101516
    vertex 21.90000000000001 26.1 5.414359353944888
  endloop
endfacet
facet normal 2.1312529355128703e-16 1.0 5.551115123125802e-17
  outer loop
    vertex 25.800000000000004 26.1 -2.8199664825478975e-15
    vertex 21.90000000000001 26.1 5.414359353944888
    vertex 22.285889527835966 26.1 5.254518677937484
  endloop
endfacet
facet normal 2.1312529355128703e-16 1.0 5.551115123125802e-17
  outer loop
    vertex 25.800000000000004 26.1 -2.8199664825478975e-15
    vertex 22.285889527835966 26.1 5.254518677937484
    vertex 22.700000000000003 26.1 5.199999999999993
  endloop
endfacet
facet normal 2.1312529355128703e-16 1.0 5.551115123125802e-17
  outer loop
    vertex 25.800000000000004 26.1 -2.8199664825478975e-15
    vertex 22.700000000000003 26.1 5.199999999999993
    vertex 23.114110472164036 26.1 5.254518677937486
  endloop
endfacet
facet normal 2.1312529355128703e-16 1.0 5.551115123125802e-17
  outer loop
    vertex 25.800000000000004 26.1 -2.8199664825478975e-15
    vertex 23.114110472164036 26.1 5.254518677937486
    vertex 23.500000000000004 26.1 5.414359353944891
  endloop
endfacet
facet normal 2.1312529355128703e-16 1.0 5.551115123125802e-17
  outer loop
    vertex 25.800000000000004 26.1 -2.8199664825478975e-15
    vertex 23.500000000000004 26.1 5.414359353944891
    vertex 23.83137084989848 26.1 5.6686291501015145
  endloop
endfacet
facet normal 2.1312529355128703e-16 1.0 5.551115123125802e-17
  outer loop
    vertex 25.800000000000004 26.1 -2.8199664825478975e-15
    vertex 23.83137084989848 26.1 5.6686291501015145
    vertex 24.085640646055104 26.1 5.999999999999992
  endloop
endfacet
facet normal 2.1312529355128703e-16 1.0 5.551115123125802e-17
  outer loop
    vertex 25.800000000000004 26.1 -2.8199664825478975e-15
    vertex 24.085640646055104 26.1 5.999999999999992
    vertex 24.24548132206251 26.1 6.385889527835961
  endloop
endfacet
facet normal 2.1312529355128703e-16 1.0 5.551115123125802e-17
  outer loop
    vertex 25.800000000000004 26.1 -2.8199664825478975e-15
    vertex 24.24548132206251 26.1 6.385889527835961
    vertex 24.3 26.1 6.7999999999999945
  endloop
endfacet
facet normal 2.1312529355128703e-16 1.0 5.551115123125802e-17
  outer loop
    vertex 25.800000000000004 26.1 -2.8199664825478975e-15
    vertex 24.3 26.1 6.7999999999999945
    vertex 25.800000000000004 26.099999999999998 13.599999999999994
  endloop
endfacet
facet normal 1.0 -2.8199664825478977e-16 -2.349972068789914e-16
  outer loop
    vertex 25.799999999999997 20.6 -2.8199664825478975e-15
    vertex 25.800000000000004 26.099999999999998 13.599999999999994
    vertex 25.800000000000004 20.6 13.599999999999994
  endloop
endfacet
facet normal 1.0 -2.8199664825478977e-16 -2.349972068789914e-16
  outer loop
    vertex 25.800000000000004 26.099999999999998 13.599999999999994
    vertex 25.799999999999997 20.6 -2.8199664825478975e-15
    vertex 25.800000000000004 26.1 -2.8199664825478975e-15
  endloop
endfacet
facet normal -0.6087614290087179 -7.42591805647128e-16 0.7933533402912374
  outer loop
    vertex 23.83137084989848 26.1 5.6686291501015145
    vertex 23.500000000000014 20.6 5.414359353944895
    vertex 23.83137084989849 20.6 5.668629150101521
  endloop
endfacet
facet normal -0.6087614290087179 -7.42591805647128e-16 0.7933533402912374
  outer loop
    vertex 23.500000000000014 20.6 5.414359353944895
    vertex 23.83137084989848 26.1 5.6686291501015145
    vertex 23.500000000000004 26.1 5.414359353944891
  endloop
endfacet
facet normal -0.38268343236508473 -2.217067215448521e-16 0.9238795325112888
  outer loop
    vertex 23.500000000000004 26.1 5.414359353944891
    vertex 23.114110472164036 20.6 5.254518677937486
    vertex 23.500000000000014 20.6 5.414359353944895
  endloop
endfacet
facet normal -0.38268343236508473 -2.217067215448521e-16 0.9238795325112888
  outer loop
    vertex 23.114110472164036 20.6 5.254518677937486
    vertex 23.500000000000004 26.1 5.414359353944891
    vertex 23.114110472164036 26.1 5.254518677937486
  endloop
endfacet
facet normal -0.13052619222005613 -5.5036245637175206e-17 0.9914448613738098
  outer loop
    vertex 23.114110472164036 26.1 5.254518677937486
    vertex 22.700000000000003 20.6 5.199999999999993
    vertex 23.114110472164036 20.6 5.254518677937486
  endloop
endfacet
facet normal -0.13052619222005613 -5.5036245637175206e-17 0.9914448613738098
  outer loop
    vertex 22.700000000000003 20.6 5.199999999999993
    vertex 23.114110472164036 26.1 5.254518677937486
    vertex 22.700000000000003 26.1 5.199999999999993
  endloop
endfacet
facet normal 0.13052619222005193 -5.558211316835778e-17 0.9914448613738105
  outer loop
    vertex 22.700000000000003 26.1 5.199999999999993
    vertex 22.285889527835966 20.6 5.254518677937484
    vertex 22.700000000000003 20.6 5.199999999999993
  endloop
endfacet
facet normal 0.13052619222005193 -5.558211316835778e-17 0.9914448613738105
  outer loop
    vertex 22.285889527835966 20.6 5.254518677937484
    vertex 22.700000000000003 26.1 5.199999999999993
    vertex 22.285889527835966 26.1 5.254518677937484
  endloop
endfacet
facet normal 0.38268343236508806 -5.2356340007232235e-17 0.9238795325112875
  outer loop
    vertex 22.285889527835966 26.1 5.254518677937484
    vertex 21.90000000000001 20.6 5.414359353944888
    vertex 22.285889527835966 20.6 5.254518677937484
  endloop
endfacet
facet normal 0.38268343236508806 -5.2356340007232235e-17 0.9238795325112875
  outer loop
    vertex 21.90000000000001 20.6 5.414359353944888
    vertex 22.285889527835966 26.1 5.254518677937484
    vertex 21.90000000000001 26.1 5.414359353944888
  endloop
endfacet
facet normal 0.6087614290087241 -5.0699326140413515e-17 0.7933533402912325
  outer loop
    vertex 21.90000000000001 26.1 5.414359353944888
    vertex 21.56862915010153 20.6 5.668629150101521
    vertex 21.90000000000001 20.6 5.414359353944888
  endloop
endfacet
facet normal 0.6087614290087241 -5.0699326140413515e-17 0.7933533402912325
  outer loop
    vertex 21.56862915010153 20.6 5.668629150101521
    vertex 21.90000000000001 26.1 5.414359353944888
    vertex 21.568629150101533 26.1 5.668629150101516
  endloop
endfacet
facet normal 0.7933533402912317 -2.2261469018559375e-16 0.6087614290087251
  outer loop
    vertex 21.56862915010153 20.6 5.668629150101521
    vertex 21.3143593539449 26.1 5.999999999999995
    vertex 21.3143593539449 20.6 5.999999999999995
  endloop
endfacet
facet normal 0.7933533402912317 -2.2261469018559375e-16 0.6087614290087251
  outer loop
    vertex 21.3143593539449 26.1 5.999999999999995
    vertex 21.56862915010153 20.6 5.668629150101521
    vertex 21.568629150101533 26.1 5.668629150101516
  endloop
endfacet
facet normal 0.9238795325112846 -3.369305883661056e-16 0.38268343236509467
  outer loop
    vertex 21.15451867793749 20.6 6.385889527835961
    vertex 21.3143593539449 26.1 5.999999999999995
    vertex 21.15451867793749 26.1 6.385889527835963
  endloop
endfacet
facet normal 0.9238795325112846 -3.369305883661056e-16 0.38268343236509467
  outer loop
    vertex 21.3143593539449 26.1 5.999999999999995
    vertex 21.15451867793749 20.6 6.385889527835961
    vertex 21.3143593539449 20.6 5.999999999999995
  endloop
endfacet
facet normal 0.991444861373812 -3.0542524836508083e-16 0.1305261922200393
  outer loop
    vertex 21.15451867793749 20.6 6.385889527835961
    vertex 21.100000000000005 26.1 6.7999999999999945
    vertex 21.100000000000005 20.6 6.7999999999999945
  endloop
endfacet
facet normal 0.991444861373812 -3.0542524836508083e-16 0.1305261922200393
  outer loop
    vertex 21.100000000000005 26.1 6.7999999999999945
    vertex 21.15451867793749 20.6 6.385889527835961
    vertex 21.15451867793749 26.1 6.385889527835963
  endloop
endfacet
facet normal 0.9914448613738107 7.61086306212913e-18 -0.13052619222004905
  outer loop
    vertex 21.100000000000005 20.6 6.7999999999999945
    vertex 21.154518677937496 26.1 7.214110472164028
    vertex 21.154518677937496 20.6 7.214110472164028
  endloop
endfacet
facet normal 0.9914448613738107 7.61086306212913e-18 -0.13052619222004905
  outer loop
    vertex 21.154518677937496 26.1 7.214110472164028
    vertex 21.100000000000005 20.6 6.7999999999999945
    vertex 21.100000000000005 26.1 6.7999999999999945
  endloop
endfacet
facet normal 0.9238795325112878 2.083773665842695e-17 -0.38268343236508723
  outer loop
    vertex 21.154518677937496 20.6 7.214110472164028
    vertex 21.3143593539449 26.1 7.599999999999994
    vertex 21.3143593539449 20.6 7.599999999999994
  endloop
endfacet
facet normal 0.9238795325112878 2.083773665842695e-17 -0.38268343236508723
  outer loop
    vertex 21.3143593539449 26.1 7.599999999999994
    vertex 21.154518677937496 20.6 7.214110472164028
    vertex 21.154518677937496 26.1 7.214110472164028
  endloop
endfacet
facet normal 0.7933533402912337 -6.420563880449267e-17 -0.6087614290087225
  outer loop
    vertex 21.56862915010153 20.6 7.93137084989847
    vertex 21.3143593539449 26.1 7.599999999999994
    vertex 21.56862915010153 26.1 7.931370849898472
  endloop
endfacet
facet normal 0.7933533402912337 -6.420563880449267e-17 -0.6087614290087225
  outer loop
    vertex 21.3143593539449 26.1 7.599999999999994
    vertex 21.56862915010153 20.6 7.93137084989847
    vertex 21.3143593539449 20.6 7.599999999999994
  endloop
endfacet
facet normal 0.6087614290087189 2.626854198492939e-16 -0.7933533402912367
  outer loop
    vertex 21.56862915010153 26.1 7.931370849898472
    vertex 21.90000000000001 20.6 8.185640646055097
    vertex 21.56862915010153 20.6 7.93137084989847
  endloop
endfacet
facet normal 0.6087614290087189 2.626854198492939e-16 -0.7933533402912367
  outer loop
    vertex 21.90000000000001 20.6 8.185640646055097
    vertex 21.56862915010153 26.1 7.931370849898472
    vertex 21.90000000000001 26.1 8.1856406460551
  endloop
endfacet
facet normal 0.3826834323650896 5.708616390984181e-16 -0.9238795325112868
  outer loop
    vertex 21.90000000000001 26.1 8.1856406460551
    vertex 22.285889527835977 20.6 8.345481322062506
    vertex 21.90000000000001 20.6 8.185640646055097
  endloop
endfacet
facet normal 0.3826834323650896 5.708616390984181e-16 -0.9238795325112868
  outer loop
    vertex 22.285889527835977 20.6 8.345481322062506
    vertex 21.90000000000001 26.1 8.1856406460551
    vertex 22.285889527835977 26.1 8.34548132206251
  endloop
endfacet
facet normal 0.1305261922200487 4.0063326070503084e-16 -0.9914448613738109
  outer loop
    vertex 22.285889527835977 20.6 8.345481322062506
    vertex 22.70000000000001 26.1 8.399999999999995
    vertex 22.700000000000003 20.6 8.399999999999995
  endloop
endfacet
facet normal 0.1305261922200487 4.0063326070503084e-16 -0.9914448613738109
  outer loop
    vertex 22.70000000000001 26.1 8.399999999999995
    vertex 22.285889527835977 20.6 8.345481322062506
    vertex 22.285889527835977 26.1 8.34548132206251
  endloop
endfacet
facet normal -0.13052619222006268 2.6854761455905957e-16 -0.9914448613738089
  outer loop
    vertex 22.70000000000001 26.1 8.399999999999995
    vertex 23.11411047216404 20.6 8.3454813220625
    vertex 22.700000000000003 20.6 8.399999999999995
  endloop
endfacet
facet normal -0.13052619222006268 2.6854761455905957e-16 -0.9914448613738089
  outer loop
    vertex 23.11411047216404 20.6 8.3454813220625
    vertex 22.70000000000001 26.1 8.399999999999995
    vertex 23.11411047216404 26.1 8.3454813220625
  endloop
endfacet
facet normal -0.38268343236508784 -5.726292419254908e-17 -0.9238795325112875
  outer loop
    vertex 23.11411047216404 26.1 8.3454813220625
    vertex 23.500000000000007 20.6 8.185640646055095
    vertex 23.11411047216404 20.6 8.3454813220625
  endloop
endfacet
facet normal -0.38268343236508784 -5.726292419254908e-17 -0.9238795325112875
  outer loop
    vertex 23.500000000000007 20.6 8.185640646055095
    vertex 23.11411047216404 26.1 8.3454813220625
    vertex 23.500000000000007 26.099999999999998 8.185640646055095
  endloop
endfacet
facet normal -0.6087614290087239 1.0508317992707614e-16 -0.7933533402912327
  outer loop
    vertex 23.500000000000007 26.099999999999998 8.185640646055095
    vertex 23.83137084989848 20.6 7.931370849898468
    vertex 23.500000000000007 20.6 8.185640646055095
  endloop
endfacet
facet normal -0.6087614290087239 1.0508317992707614e-16 -0.7933533402912327
  outer loop
    vertex 23.83137084989848 20.6 7.931370849898468
    vertex 23.500000000000007 26.099999999999998 8.185640646055095
    vertex 23.831370849898484 26.099999999999998 7.931370849898468
  endloop
endfacet
facet normal -0.7933533402912378 3.985685130603959e-16 -0.6087614290087174
  outer loop
    vertex 23.831370849898484 26.099999999999998 7.931370849898468
    vertex 24.085640646055104 20.6 7.599999999999993
    vertex 23.83137084989848 20.6 7.931370849898468
  endloop
endfacet
facet normal -0.7933533402912378 3.985685130603959e-16 -0.6087614290087174
  outer loop
    vertex 24.085640646055104 20.6 7.599999999999993
    vertex 23.831370849898484 26.099999999999998 7.931370849898468
    vertex 24.085640646055104 26.1 7.599999999999993
  endloop
endfacet
facet normal -0.9238795325112835 -2.931517149223908e-16 -0.38268343236509766
  outer loop
    vertex 24.24548132206251 26.1 7.214110472164028
    vertex 24.085640646055104 20.6 7.599999999999993
    vertex 24.085640646055104 26.1 7.599999999999993
  endloop
endfacet
facet normal -0.9238795325112835 -2.931517149223908e-16 -0.38268343236509766
  outer loop
    vertex 24.085640646055104 20.6 7.599999999999993
    vertex 24.24548132206251 26.1 7.214110472164028
    vertex 24.245481322062517 20.6 7.2141104721640295
  endloop
endfacet
facet normal -0.9914448613738114 -2.725814665644901e-16 -0.1305261922200453
  outer loop
    vertex 24.24548132206251 26.1 7.214110472164028
    vertex 24.3 20.6 6.799999999999994
    vertex 24.245481322062517 20.6 7.2141104721640295
  endloop
endfacet
facet normal -0.9914448613738114 -2.725814665644901e-16 -0.1305261922200453
  outer loop
    vertex 24.3 20.6 6.799999999999994
    vertex 24.24548132206251 26.1 7.214110472164028
    vertex 24.3 26.1 6.7999999999999945
  endloop
endfacet
facet normal -0.9914448613738107 -2.577878626964588e-17 0.13052619222004927
  outer loop
    vertex 24.24548132206251 26.1 6.385889527835961
    vertex 24.3 20.6 6.799999999999994
    vertex 24.3 26.1 6.7999999999999945
  endloop
endfacet
facet normal -0.9914448613738107 -2.577878626964588e-17 0.13052619222004927
  outer loop
    vertex 24.3 20.6 6.799999999999994
    vertex 24.24548132206251 26.1 6.385889527835961
    vertex 24.24548132206251 20.6 6.385889527835961
  endloop
endfacet
facet normal -0.9238795325112862 8.649442029495609e-17 0.3826834323650912
  outer loop
    vertex 24.085640646055104 26.1 5.999999999999992
    vertex 24.24548132206251 20.6 6.385889527835961
    vertex 24.24548132206251 26.1 6.385889527835961
  endloop
endfacet
facet normal -0.9238795325112862 8.649442029495609e-17 0.3826834323650912
  outer loop
    vertex 24.24548132206251 20.6 6.385889527835961
    vertex 24.085640646055104 26.1 5.999999999999992
    vertex 24.085640646055104 20.6 5.999999999999995
  endloop
endfacet
facet normal -0.7933533402912409 -4.139637769485029e-16 0.6087614290087131
  outer loop
    vertex 24.085640646055104 26.1 5.999999999999992
    vertex 23.83137084989849 20.6 5.668629150101521
    vertex 24.085640646055104 20.6 5.999999999999995
  endloop
endfacet
facet normal -0.7933533402912409 -4.139637769485029e-16 0.6087614290087131
  outer loop
    vertex 23.83137084989849 20.6 5.668629150101521
    vertex 24.085640646055104 26.1 5.999999999999992
    vertex 23.83137084989848 26.1 5.6686291501015145
  endloop
endfacet
endsolid FCU_12mm_button_case
