solid PushPullBlackSelector
facet normal 0.9700312531945449 -0.24298017990326046 0.0
  outer loop
    vertex -54.92956580394831 44.15446551006485 -2.000000000000022
    vertex -55.0881346860106 43.52142304772993 -2.255973186038318e-14
    vertex -55.0881346860106 43.52142304772993 -2.000000000000022
  endloop
endfacet
facet normal 0.9700312531945449 -0.24298017990326046 0.0
  outer loop
    vertex -55.0881346860106 43.52142304772993 -2.255973186038318e-14
    vertex -54.92956580394831 44.15446551006485 -2.000000000000022
    vertex -54.92956580394831 44.15446551006485 -2.255973186038318e-14
  endloop
endfacet
facet normal 0.42755509343028736 -0.9039892931234409 0.0
  outer loop
    vertex -58.31699961873691 39.58703974355554 -2.255973186038318e-14
    vertex -58.90694309340195 39.308017260272045 -2.000000000000022
    vertex -58.31699961873691 39.58703974355554 -2.000000000000022
  endloop
endfacet
facet normal 0.42755509343028736 -0.9039892931234409 0.0
  outer loop
    vertex -58.90694309340195 39.308017260272045 -2.000000000000022
    vertex -58.31699961873691 39.58703974355554 -2.255973186038318e-14
    vertex -58.90694309340195 39.308017260272045 -2.255973186038318e-14
  endloop
endfacet
facet normal 0.5141027441932167 -0.857728610000275 0.0
  outer loop
    vertex -57.757245869049434 39.92254322966018 -2.255973186038318e-14
    vertex -58.31699961873691 39.58703974355554 -2.000000000000022
    vertex -57.757245869049434 39.92254322966018 -2.000000000000022
  endloop
endfacet
facet normal 0.5141027441932167 -0.857728610000275 0.0
  outer loop
    vertex -58.31699961873691 39.58703974355554 -2.000000000000022
    vertex -57.757245869049434 39.92254322966018 -2.255973186038318e-14
    vertex -58.31699961873691 39.58703974355554 -2.255973186038318e-14
  endloop
endfacet
facet normal 0.1467304744553603 -0.9891765099647811 0.0
  outer loop
    vertex -60.154437277222534 38.929594036790625 -2.255973186038318e-14
    vertex -60.79997393543822 38.833837719102 -2.000000000000022
    vertex -60.154437277222534 38.929594036790625 -2.000000000000022
  endloop
endfacet
facet normal 0.1467304744553603 -0.9891765099647811 0.0
  outer loop
    vertex -60.79997393543822 38.833837719102 -2.000000000000022
    vertex -60.154437277222534 38.929594036790625 -2.255973186038318e-14
    vertex -60.79997393543822 38.833837719102 -2.255973186038318e-14
  endloop
endfacet
facet normal 0.7409511253549579 -0.6715589548470199 0.0
  outer loop
    vertex -56.31126840376759 41.23310081178386 -2.000000000000022
    vertex -56.74952782373925 40.74955605658157 -2.255973186038318e-14
    vertex -56.74952782373925 40.74955605658157 -2.000000000000022
  endloop
endfacet
facet normal 0.7409511253549579 -0.6715589548470199 0.0
  outer loop
    vertex -56.74952782373925 40.74955605658157 -2.255973186038318e-14
    vertex -56.31126840376759 41.23310081178386 -2.000000000000022
    vertex -56.31126840376759 41.23310081178386 -2.255973186038318e-14
  endloop
endfacet
facet normal 0.0 0.0 -1.0
  outer loop
    vertex -68.0697663509999 46.103630134663675 -2.000000000000022
    vertex -68.0697663509999 44.80000216828053 -2.000000000000022
    vertex -68.1017879186298 45.4518161514721 -2.000000000000022
  endloop
endfacet
facet normal 0.0 0.0 -1.0
  outer loop
    vertex -68.0697663509999 44.80000216828053 -2.000000000000022
    vertex -68.0697663509999 46.103630134663675 -2.000000000000022
    vertex -67.97401003331127 46.74916679287935 -2.000000000000022
  endloop
endfacet
facet normal 0.0 0.0 -1.0
  outer loop
    vertex -68.0697663509999 44.80000216828053 -2.000000000000022
    vertex -67.97401003331127 46.74916679287935 -2.000000000000022
    vertex -67.97401003331127 44.15446551006485 -2.000000000000022
  endloop
endfacet
facet normal 0.0 0.0 -1.0
  outer loop
    vertex -67.97401003331127 44.15446551006485 -2.000000000000022
    vertex -67.97401003331127 46.74916679287935 -2.000000000000022
    vertex -67.81544115124899 47.38220925521426 -2.000000000000022
  endloop
endfacet
facet normal 0.0 0.0 -1.0
  outer loop
    vertex -67.97401003331127 44.15446551006485 -2.000000000000022
    vertex -67.81544115124899 47.38220925521426 -2.000000000000022
    vertex -67.81544115124899 43.52142304772993 -2.000000000000022
  endloop
endfacet
facet normal 0.0 0.0 -1.0
  outer loop
    vertex -67.81544115124899 43.52142304772993 -2.000000000000022
    vertex -67.81544115124899 47.38220925521426 -2.000000000000022
    vertex -67.59558680982985 47.99666097669994 -2.000000000000022
  endloop
endfacet
facet normal 0.0 0.0 -1.0
  outer loop
    vertex -67.81544115124899 43.52142304772993 -2.000000000000022
    vertex -67.59558680982985 47.99666097669994 -2.000000000000022
    vertex -67.59558680982985 42.90697132624426 -2.000000000000022
  endloop
endfacet
facet normal 0.0 0.0 -1.0
  outer loop
    vertex -67.59558680982985 42.90697132624426 -2.000000000000022
    vertex -67.59558680982985 47.99666097669994 -2.000000000000022
    vertex -67.31656432654636 48.58660445136498 -2.000000000000022
  endloop
endfacet
facet normal 0.0 0.0 -1.0
  outer loop
    vertex -67.59558680982985 42.90697132624426 -2.000000000000022
    vertex -67.31656432654636 48.58660445136498 -2.000000000000022
    vertex -67.31656432654636 42.317027851579226 -2.000000000000022
  endloop
endfacet
facet normal 0.0 0.0 -1.0
  outer loop
    vertex -67.31656432654636 42.317027851579226 -2.000000000000022
    vertex -67.31656432654636 48.58660445136498 -2.000000000000022
    vertex -66.98106084044173 49.14635820105244 -2.000000000000022
  endloop
endfacet
facet normal 0.0 0.0 -1.0
  outer loop
    vertex -67.31656432654636 42.317027851579226 -2.000000000000022
    vertex -66.98106084044173 49.14635820105244 -2.000000000000022
    vertex -66.98106084044171 41.75727410189175 -2.000000000000022
  endloop
endfacet
facet normal 0.0 0.0 -1.0
  outer loop
    vertex -66.98106084044171 41.75727410189175 -2.000000000000022
    vertex -66.98106084044173 49.14635820105244 -2.000000000000022
    vertex -66.592307433492 49.67053149116033 -2.000000000000022
  endloop
endfacet
facet normal 0.0 0.0 -1.0
  outer loop
    vertex -66.98106084044171 41.75727410189175 -2.000000000000022
    vertex -66.592307433492 49.67053149116033 -2.000000000000022
    vertex -66.592307433492 41.23310081178387 -2.000000000000022
  endloop
endfacet
facet normal 0.0 0.0 -1.0
  outer loop
    vertex -66.592307433492 41.23310081178387 -2.000000000000022
    vertex -66.592307433492 49.67053149116033 -2.000000000000022
    vertex -66.15404801352034 50.154076246362635 -2.000000000000022
  endloop
endfacet
facet normal 0.0 0.0 -1.0
  outer loop
    vertex -66.592307433492 41.23310081178387 -2.000000000000022
    vertex -66.15404801352034 50.154076246362635 -2.000000000000022
    vertex -66.15404801352034 40.74955605658157 -2.000000000000022
  endloop
endfacet
facet normal 0.0 0.0 -1.0
  outer loop
    vertex -66.15404801352034 40.74955605658157 -2.000000000000022
    vertex -66.15404801352034 50.154076246362635 -2.000000000000022
    vertex -65.67050325831805 50.59233566633429 -2.000000000000022
  endloop
endfacet
facet normal 0.0 0.0 -1.0
  outer loop
    vertex -66.15404801352034 40.74955605658157 -2.000000000000022
    vertex -65.67050325831805 50.59233566633429 -2.000000000000022
    vertex -65.67050325831805 40.31129663660991 -2.000000000000022
  endloop
endfacet
facet normal 0.0 0.0 -1.0
  outer loop
    vertex -65.67050325831805 40.31129663660991 -2.000000000000022
    vertex -65.67050325831805 50.59233566633429 -2.000000000000022
    vertex -65.14632996821015 50.98108907328402 -2.000000000000022
  endloop
endfacet
facet normal 0.0 0.0 -1.0
  outer loop
    vertex -65.67050325831805 40.31129663660991 -2.000000000000022
    vertex -65.14632996821015 50.98108907328402 -2.000000000000022
    vertex -65.14632996821015 39.92254322966019 -2.000000000000022
  endloop
endfacet
facet normal 0.0 0.0 -1.0
  outer loop
    vertex -65.14632996821015 39.92254322966019 -2.000000000000022
    vertex -65.14632996821015 50.98108907328402 -2.000000000000022
    vertex -64.5865762185227 51.31659255938866 -2.000000000000022
  endloop
endfacet
facet normal 0.0 0.0 -1.0
  outer loop
    vertex -65.14632996821015 39.92254322966019 -2.000000000000022
    vertex -64.5865762185227 51.31659255938866 -2.000000000000022
    vertex -64.5865762185227 39.58703974355555 -2.000000000000022
  endloop
endfacet
facet normal 0.0 0.0 -1.0
  outer loop
    vertex -64.5865762185227 39.58703974355555 -2.000000000000022
    vertex -64.5865762185227 51.31659255938866 -2.000000000000022
    vertex -63.996632743857646 51.59561504267215 -2.000000000000022
  endloop
endfacet
facet normal 0.0 0.0 -1.0
  outer loop
    vertex -64.5865762185227 39.58703974355555 -2.000000000000022
    vertex -63.996632743857646 51.59561504267215 -2.000000000000022
    vertex -63.99663274385766 39.30801726027206 -2.000000000000022
  endloop
endfacet
facet normal 0.0 0.0 -1.0
  outer loop
    vertex -63.99663274385766 39.30801726027206 -2.000000000000022
    vertex -63.996632743857646 51.59561504267215 -2.000000000000022
    vertex -63.382181022371995 39.08816291885292 -2.000000000000022
  endloop
endfacet
facet normal 0.0 0.0 -1.0
  outer loop
    vertex -63.382181022371995 39.08816291885292 -2.000000000000022
    vertex -63.996632743857646 51.59561504267215 -2.000000000000022
    vertex -63.38218102237198 51.81546938409129 -2.000000000000022
  endloop
endfacet
facet normal 0.0 0.0 -1.0
  outer loop
    vertex -63.382181022371995 39.08816291885292 -2.000000000000022
    vertex -63.38218102237198 51.81546938409129 -2.000000000000022
    vertex -62.74913856003707 38.92959403679063 -2.000000000000022
  endloop
endfacet
facet normal 0.0 0.0 -1.0
  outer loop
    vertex -62.74913856003707 38.92959403679063 -2.000000000000022
    vertex -63.38218102237198 51.81546938409129 -2.000000000000022
    vertex -62.74913856003706 51.97403826615358 -2.000000000000022
  endloop
endfacet
facet normal 0.0 0.0 -1.0
  outer loop
    vertex -62.74913856003707 38.92959403679063 -2.000000000000022
    vertex -62.74913856003706 51.97403826615358 -2.000000000000022
    vertex -62.103601901821406 38.833837719102 -2.000000000000022
  endloop
endfacet
facet normal 0.0 0.0 -1.0
  outer loop
    vertex -62.103601901821406 38.833837719102 -2.000000000000022
    vertex -62.74913856003706 51.97403826615358 -2.000000000000022
    vertex -62.10360190182138 52.06979458384221 -2.000000000000022
  endloop
endfacet
facet normal 0.0 0.0 -1.0
  outer loop
    vertex -62.103601901821406 38.833837719102 -2.000000000000022
    vertex -62.10360190182138 52.06979458384221 -2.000000000000022
    vertex -61.45178791862979 38.8018161514721 -2.000000000000022
  endloop
endfacet
facet normal 0.0 0.0 -1.0
  outer loop
    vertex -61.45178791862979 38.8018161514721 -2.000000000000022
    vertex -62.10360190182138 52.06979458384221 -2.000000000000022
    vertex -61.451787918629805 52.10181615147211 -2.000000000000022
  endloop
endfacet
facet normal 0.0 0.0 -1.0
  outer loop
    vertex -61.45178791862979 38.8018161514721 -2.000000000000022
    vertex -61.451787918629805 52.10181615147211 -2.000000000000022
    vertex -60.799973935438224 52.06979458384221 -2.000000000000022
  endloop
endfacet
facet normal 0.0 0.0 -1.0
  outer loop
    vertex -61.45178791862979 38.8018161514721 -2.000000000000022
    vertex -60.799973935438224 52.06979458384221 -2.000000000000022
    vertex -60.79997393543822 38.833837719102 -2.000000000000022
  endloop
endfacet
facet normal 0.0 0.0 -1.0
  outer loop
    vertex -60.79997393543822 38.833837719102 -2.000000000000022
    vertex -60.799973935438224 52.06979458384221 -2.000000000000022
    vertex -60.15443727722255 51.97403826615359 -2.000000000000022
  endloop
endfacet
facet normal 0.0 0.0 -1.0
  outer loop
    vertex -60.79997393543822 38.833837719102 -2.000000000000022
    vertex -60.15443727722255 51.97403826615359 -2.000000000000022
    vertex -60.154437277222534 38.929594036790625 -2.000000000000022
  endloop
endfacet
facet normal 0.0 0.0 -1.0
  outer loop
    vertex -60.154437277222534 38.929594036790625 -2.000000000000022
    vertex -60.15443727722255 51.97403826615359 -2.000000000000022
    vertex -59.52139481488762 51.8154693840913 -2.000000000000022
  endloop
endfacet
facet normal 0.0 0.0 -1.0
  outer loop
    vertex -60.154437277222534 38.929594036790625 -2.000000000000022
    vertex -59.52139481488762 51.8154693840913 -2.000000000000022
    vertex -59.521394814887614 39.088162918852916 -2.000000000000022
  endloop
endfacet
facet normal 0.0 0.0 -1.0
  outer loop
    vertex -59.521394814887614 39.088162918852916 -2.000000000000022
    vertex -59.52139481488762 51.8154693840913 -2.000000000000022
    vertex -58.906943093401956 51.595615042672165 -2.000000000000022
  endloop
endfacet
facet normal 0.0 0.0 -1.0
  outer loop
    vertex -59.521394814887614 39.088162918852916 -2.000000000000022
    vertex -58.906943093401956 51.595615042672165 -2.000000000000022
    vertex -58.90694309340195 39.308017260272045 -2.000000000000022
  endloop
endfacet
facet normal 0.0 0.0 -1.0
  outer loop
    vertex -58.90694309340195 39.308017260272045 -2.000000000000022
    vertex -58.906943093401956 51.595615042672165 -2.000000000000022
    vertex -58.31699961873692 51.31659255938867 -2.000000000000022
  endloop
endfacet
facet normal 0.0 0.0 -1.0
  outer loop
    vertex -58.90694309340195 39.308017260272045 -2.000000000000022
    vertex -58.31699961873692 51.31659255938867 -2.000000000000022
    vertex -58.31699961873691 39.58703974355554 -2.000000000000022
  endloop
endfacet
facet normal 0.0 0.0 -1.0
  outer loop
    vertex -58.31699961873691 39.58703974355554 -2.000000000000022
    vertex -58.31699961873692 51.31659255938867 -2.000000000000022
    vertex -57.75724586904945 50.98108907328403 -2.000000000000022
  endloop
endfacet
facet normal 0.0 0.0 -1.0
  outer loop
    vertex -58.31699961873691 39.58703974355554 -2.000000000000022
    vertex -57.75724586904945 50.98108907328403 -2.000000000000022
    vertex -57.757245869049434 39.92254322966018 -2.000000000000022
  endloop
endfacet
facet normal 0.0 0.0 -1.0
  outer loop
    vertex -57.757245869049434 39.92254322966018 -2.000000000000022
    vertex -57.75724586904945 50.98108907328403 -2.000000000000022
    vertex -57.23307257894156 50.59233566633431 -2.000000000000022
  endloop
endfacet
facet normal 0.0 0.0 -1.0
  outer loop
    vertex -57.757245869049434 39.92254322966018 -2.000000000000022
    vertex -57.23307257894156 50.59233566633431 -2.000000000000022
    vertex -57.233072578941545 40.31129663660991 -2.000000000000022
  endloop
endfacet
facet normal 0.0 0.0 -1.0
  outer loop
    vertex -57.233072578941545 40.31129663660991 -2.000000000000022
    vertex -57.23307257894156 50.59233566633431 -2.000000000000022
    vertex -56.74952782373925 50.15407624636265 -2.000000000000022
  endloop
endfacet
facet normal 0.0 0.0 -1.0
  outer loop
    vertex -57.233072578941545 40.31129663660991 -2.000000000000022
    vertex -56.74952782373925 50.15407624636265 -2.000000000000022
    vertex -56.74952782373925 40.74955605658157 -2.000000000000022
  endloop
endfacet
facet normal 0.0 0.0 -1.0
  outer loop
    vertex -56.74952782373925 40.74955605658157 -2.000000000000022
    vertex -56.74952782373925 50.15407624636265 -2.000000000000022
    vertex -56.31126840376759 49.670531491160354 -2.000000000000022
  endloop
endfacet
facet normal 0.0 0.0 -1.0
  outer loop
    vertex -56.74952782373925 40.74955605658157 -2.000000000000022
    vertex -56.31126840376759 49.670531491160354 -2.000000000000022
    vertex -56.31126840376759 41.23310081178386 -2.000000000000022
  endloop
endfacet
facet normal 0.0 0.0 -1.0
  outer loop
    vertex -56.31126840376759 41.23310081178386 -2.000000000000022
    vertex -56.31126840376759 49.670531491160354 -2.000000000000022
    vertex -55.92251499681787 49.146358201052465 -2.000000000000022
  endloop
endfacet
facet normal 0.0 0.0 -1.0
  outer loop
    vertex -56.31126840376759 41.23310081178386 -2.000000000000022
    vertex -55.92251499681787 49.146358201052465 -2.000000000000022
    vertex -55.92251499681787 41.75727410189175 -2.000000000000022
  endloop
endfacet
facet normal 0.0 0.0 -1.0
  outer loop
    vertex -55.92251499681787 41.75727410189175 -2.000000000000022
    vertex -55.92251499681787 49.146358201052465 -2.000000000000022
    vertex -55.58701151071324 48.58660445136499 -2.000000000000022
  endloop
endfacet
facet normal 0.0 0.0 -1.0
  outer loop
    vertex -55.92251499681787 41.75727410189175 -2.000000000000022
    vertex -55.58701151071324 48.58660445136499 -2.000000000000022
    vertex -55.587011510713225 42.317027851579226 -2.000000000000022
  endloop
endfacet
facet normal 0.0 0.0 -1.0
  outer loop
    vertex -55.587011510713225 42.317027851579226 -2.000000000000022
    vertex -55.58701151071324 48.58660445136499 -2.000000000000022
    vertex -55.307989027429734 47.99666097669996 -2.000000000000022
  endloop
endfacet
facet normal 0.0 0.0 -1.0
  outer loop
    vertex -55.587011510713225 42.317027851579226 -2.000000000000022
    vertex -55.307989027429734 47.99666097669996 -2.000000000000022
    vertex -55.307989027429734 42.90697132624426 -2.000000000000022
  endloop
endfacet
facet normal 0.0 0.0 -1.0
  outer loop
    vertex -55.307989027429734 42.90697132624426 -2.000000000000022
    vertex -55.307989027429734 47.99666097669996 -2.000000000000022
    vertex -55.088134686010605 47.382209255214285 -2.000000000000022
  endloop
endfacet
facet normal 0.0 0.0 -1.0
  outer loop
    vertex -55.307989027429734 42.90697132624426 -2.000000000000022
    vertex -55.088134686010605 47.382209255214285 -2.000000000000022
    vertex -55.0881346860106 43.52142304772993 -2.000000000000022
  endloop
endfacet
facet normal 0.0 0.0 -1.0
  outer loop
    vertex -55.0881346860106 43.52142304772993 -2.000000000000022
    vertex -55.088134686010605 47.382209255214285 -2.000000000000022
    vertex -54.929565803948314 46.74916679287936 -2.000000000000022
  endloop
endfacet
facet normal 0.0 0.0 -1.0
  outer loop
    vertex -55.0881346860106 43.52142304772993 -2.000000000000022
    vertex -54.929565803948314 46.74916679287936 -2.000000000000022
    vertex -54.92956580394831 44.15446551006485 -2.000000000000022
  endloop
endfacet
facet normal 0.0 0.0 -1.0
  outer loop
    vertex -54.92956580394831 44.15446551006485 -2.000000000000022
    vertex -54.929565803948314 46.74916679287936 -2.000000000000022
    vertex -54.83380948625968 46.10363013466369 -2.000000000000022
  endloop
endfacet
facet normal 0.0 0.0 -1.0
  outer loop
    vertex -54.92956580394831 44.15446551006485 -2.000000000000022
    vertex -54.83380948625968 46.10363013466369 -2.000000000000022
    vertex -54.83380948625968 44.80000216828053 -2.000000000000022
  endloop
endfacet
facet normal 0.0 0.0 -1.0
  outer loop
    vertex -54.83380948625968 44.80000216828053 -2.000000000000022
    vertex -54.83380948625968 46.10363013466369 -2.000000000000022
    vertex -54.80178791862979 45.45181615147211 -2.000000000000022
  endloop
endfacet
facet normal 0.8032075314806424 -0.5956993044924367 0.0
  outer loop
    vertex -55.92251499681787 41.75727410189175 -2.000000000000022
    vertex -56.31126840376759 41.23310081178386 -2.255973186038318e-14
    vertex -56.31126840376759 41.23310081178386 -2.000000000000022
  endloop
endfacet
facet normal 0.8032075314806424 -0.5956993044924367 0.0
  outer loop
    vertex -56.31126840376759 41.23310081178386 -2.255973186038318e-14
    vertex -55.92251499681787 41.75727410189175 -2.000000000000022
    vertex -55.92251499681787 41.75727410189175 -2.255973186038318e-14
  endloop
endfacet
facet normal 0.5956993044924367 -0.8032075314806424 0.0
  outer loop
    vertex -57.233072578941545 40.31129663660991 -2.255973186038318e-14
    vertex -57.757245869049434 39.92254322966018 -2.000000000000022
    vertex -57.233072578941545 40.31129663660991 -2.000000000000022
  endloop
endfacet
facet normal 0.5956993044924367 -0.8032075314806424 0.0
  outer loop
    vertex -57.757245869049434 39.92254322966018 -2.000000000000022
    vertex -57.233072578941545 40.31129663660991 -2.255973186038318e-14
    vertex -57.757245869049434 39.92254322966018 -2.255973186038318e-14
  endloop
endfacet
facet normal 0.8577286100002712 -0.5141027441932231 0.0
  outer loop
    vertex -55.587011510713225 42.317027851579226 -2.000000000000022
    vertex -55.92251499681787 41.75727410189175 -2.255973186038318e-14
    vertex -55.92251499681787 41.75727410189175 -2.000000000000022
  endloop
endfacet
facet normal 0.8577286100002712 -0.5141027441932231 0.0
  outer loop
    vertex -55.92251499681787 41.75727410189175 -2.255973186038318e-14
    vertex -55.587011510713225 42.317027851579226 -2.000000000000022
    vertex -55.587011510713225 42.317027851579226 -2.255973186038318e-14
  endloop
endfacet
facet normal 0.9039892931234442 -0.42755509343028025 0.0
  outer loop
    vertex -55.307989027429734 42.90697132624426 -2.000000000000022
    vertex -55.587011510713225 42.317027851579226 -2.255973186038318e-14
    vertex -55.587011510713225 42.317027851579226 -2.000000000000022
  endloop
endfacet
facet normal 0.9039892931234442 -0.42755509343028025 0.0
  outer loop
    vertex -55.587011510713225 42.317027851579226 -2.255973186038318e-14
    vertex -55.307989027429734 42.90697132624426 -2.000000000000022
    vertex -55.307989027429734 42.90697132624426 -2.255973186038318e-14
  endloop
endfacet
facet normal 0.04906767432742029 -0.9987954562051723 0.0
  outer loop
    vertex -60.79997393543822 38.833837719102 -2.255973186038318e-14
    vertex -61.45178791862979 38.8018161514721 -2.000000000000022
    vertex -60.79997393543822 38.833837719102 -2.000000000000022
  endloop
endfacet
facet normal 0.04906767432742029 -0.9987954562051723 0.0
  outer loop
    vertex -61.45178791862979 38.8018161514721 -2.000000000000022
    vertex -60.79997393543822 38.833837719102 -2.255973186038318e-14
    vertex -61.45178791862979 38.8018161514721 -2.255973186038318e-14
  endloop
endfacet
facet normal 0.6715589548470199 -0.7409511253549579 0.0
  outer loop
    vertex -56.74952782373925 40.74955605658157 -2.255973186038318e-14
    vertex -57.233072578941545 40.31129663660991 -2.000000000000022
    vertex -56.74952782373925 40.74955605658157 -2.000000000000022
  endloop
endfacet
facet normal 0.6715589548470199 -0.7409511253549579 0.0
  outer loop
    vertex -57.233072578941545 40.31129663660991 -2.000000000000022
    vertex -56.74952782373925 40.74955605658157 -2.255973186038318e-14
    vertex -57.233072578941545 40.31129663660991 -2.255973186038318e-14
  endloop
endfacet
facet normal 0.9987954562051723 -0.04906767432742029 0.0
  outer loop
    vertex -54.80178791862979 45.45181615147211 -2.000000000000022
    vertex -54.83380948625968 44.80000216828053 -2.255973186038318e-14
    vertex -54.83380948625968 44.80000216828053 -2.000000000000022
  endloop
endfacet
facet normal 0.9987954562051723 -0.04906767432742029 0.0
  outer loop
    vertex -54.83380948625968 44.80000216828053 -2.255973186038318e-14
    vertex -54.80178791862979 45.45181615147211 -2.000000000000022
    vertex -54.80178791862979 45.45181615147211 -2.255973186038318e-14
  endloop
endfacet
facet normal 0.9987954562051724 0.04906767432741988 0.0
  outer loop
    vertex -54.83380948625968 46.10363013466369 -2.000000000000022
    vertex -54.80178791862979 45.45181615147211 -2.255973186038318e-14
    vertex -54.80178791862979 45.45181615147211 -2.000000000000022
  endloop
endfacet
facet normal 0.9987954562051724 0.04906767432741988 0.0
  outer loop
    vertex -54.80178791862979 45.45181615147211 -2.255973186038318e-14
    vertex -54.83380948625968 46.10363013466369 -2.000000000000022
    vertex -54.83380948625968 46.10363013466369 -2.255973186038318e-14
  endloop
endfacet
facet normal 0.9891765099647798 0.14673047445537002 0.0
  outer loop
    vertex -54.929565803948314 46.74916679287936 -2.000000000000022
    vertex -54.83380948625968 46.10363013466369 -2.255973186038318e-14
    vertex -54.83380948625968 46.10363013466369 -2.000000000000022
  endloop
endfacet
facet normal 0.9891765099647798 0.14673047445537002 0.0
  outer loop
    vertex -54.83380948625968 46.10363013466369 -2.255973186038318e-14
    vertex -54.929565803948314 46.74916679287936 -2.000000000000022
    vertex -54.929565803948314 46.74916679287936 -2.255973186038318e-14
  endloop
endfacet
facet normal 0.9700312531945449 0.24298017990326046 0.0
  outer loop
    vertex -55.088134686010605 47.382209255214285 -2.000000000000022
    vertex -54.929565803948314 46.74916679287936 -2.255973186038318e-14
    vertex -54.929565803948314 46.74916679287936 -2.000000000000022
  endloop
endfacet
facet normal 0.9700312531945449 0.24298017990326046 0.0
  outer loop
    vertex -54.929565803948314 46.74916679287936 -2.255973186038318e-14
    vertex -55.088134686010605 47.382209255214285 -2.000000000000022
    vertex -55.088134686010605 47.382209255214285 -2.255973186038318e-14
  endloop
endfacet
facet normal 0.9039892931234376 0.4275550934302944 0.0
  outer loop
    vertex -55.58701151071324 48.58660445136499 -2.000000000000022
    vertex -55.307989027429734 47.99666097669996 -2.255973186038318e-14
    vertex -55.307989027429734 47.99666097669996 -2.000000000000022
  endloop
endfacet
facet normal 0.9039892931234376 0.4275550934302944 0.0
  outer loop
    vertex -55.307989027429734 47.99666097669996 -2.255973186038318e-14
    vertex -55.58701151071324 48.58660445136499 -2.000000000000022
    vertex -55.58701151071324 48.58660445136499 -2.255973186038318e-14
  endloop
endfacet
facet normal 0.3368898533922202 -0.9415440651830207 0.0
  outer loop
    vertex -58.90694309340195 39.308017260272045 -2.255973186038318e-14
    vertex -59.521394814887614 39.088162918852916 -2.000000000000022
    vertex -58.90694309340195 39.308017260272045 -2.000000000000022
  endloop
endfacet
facet normal 0.3368898533922202 -0.9415440651830207 0.0
  outer loop
    vertex -59.521394814887614 39.088162918852916 -2.000000000000022
    vertex -58.90694309340195 39.308017260272045 -2.255973186038318e-14
    vertex -59.521394814887614 39.088162918852916 -2.255973186038318e-14
  endloop
endfacet
facet normal 0.941544065183019 -0.3368898533922252 0.0
  outer loop
    vertex -55.0881346860106 43.52142304772993 -2.000000000000022
    vertex -55.307989027429734 42.90697132624426 -2.255973186038318e-14
    vertex -55.307989027429734 42.90697132624426 -2.000000000000022
  endloop
endfacet
facet normal 0.941544065183019 -0.3368898533922252 0.0
  outer loop
    vertex -55.307989027429734 42.90697132624426 -2.255973186038318e-14
    vertex -55.0881346860106 43.52142304772993 -2.000000000000022
    vertex -55.0881346860106 43.52142304772993 -2.255973186038318e-14
  endloop
endfacet
facet normal 0.9415440651830244 0.33688985339220984 0.0
  outer loop
    vertex -55.307989027429734 47.99666097669996 -2.000000000000022
    vertex -55.088134686010605 47.382209255214285 -2.255973186038318e-14
    vertex -55.088134686010605 47.382209255214285 -2.000000000000022
  endloop
endfacet
facet normal 0.9415440651830244 0.33688985339220984 0.0
  outer loop
    vertex -55.088134686010605 47.382209255214285 -2.255973186038318e-14
    vertex -55.307989027429734 47.99666097669996 -2.000000000000022
    vertex -55.307989027429734 47.99666097669996 -2.255973186038318e-14
  endloop
endfacet
facet normal 0.24298017990326046 -0.9700312531945449 0.0
  outer loop
    vertex -59.521394814887614 39.088162918852916 -2.255973186038318e-14
    vertex -60.154437277222534 38.929594036790625 -2.000000000000022
    vertex -59.521394814887614 39.088162918852916 -2.000000000000022
  endloop
endfacet
facet normal 0.24298017990326046 -0.9700312531945449 0.0
  outer loop
    vertex -60.154437277222534 38.929594036790625 -2.000000000000022
    vertex -59.521394814887614 39.088162918852916 -2.255973186038318e-14
    vertex -60.154437277222534 38.929594036790625 -2.255973186038318e-14
  endloop
endfacet
facet normal 0.9891765099647823 -0.14673047445535312 0.0
  outer loop
    vertex -54.83380948625968 44.80000216828053 -2.000000000000022
    vertex -54.92956580394831 44.15446551006485 -2.255973186038318e-14
    vertex -54.92956580394831 44.15446551006485 -2.000000000000022
  endloop
endfacet
facet normal 0.9891765099647823 -0.14673047445535312 0.0
  outer loop
    vertex -54.92956580394831 44.15446551006485 -2.255973186038318e-14
    vertex -54.83380948625968 44.80000216828053 -2.000000000000022
    vertex -54.83380948625968 44.80000216828053 -2.255973186038318e-14
  endloop
endfacet
facet normal 0.0 0.0 1.0
  outer loop
    vertex -68.0697663509999 44.80000216828053 -2.255973186038318e-14
    vertex -68.0697663509999 46.103630134663675 -2.255973186038318e-14
    vertex -68.1017879186298 45.4518161514721 -2.255973186038318e-14
  endloop
endfacet
facet normal 0.0 0.0 1.0
  outer loop
    vertex -68.0697663509999 46.103630134663675 -2.255973186038318e-14
    vertex -68.0697663509999 44.80000216828053 -2.255973186038318e-14
    vertex -67.97401003331127 44.15446551006485 -2.255973186038318e-14
  endloop
endfacet
facet normal 0.0 0.0 1.0
  outer loop
    vertex -68.0697663509999 46.103630134663675 -2.255973186038318e-14
    vertex -67.97401003331127 44.15446551006485 -2.255973186038318e-14
    vertex -67.97401003331127 46.74916679287935 -2.255973186038318e-14
  endloop
endfacet
facet normal 0.0 0.0 1.0
  outer loop
    vertex -67.97401003331127 46.74916679287935 -2.255973186038318e-14
    vertex -67.97401003331127 44.15446551006485 -2.255973186038318e-14
    vertex -67.81544115124899 43.52142304772993 -2.255973186038318e-14
  endloop
endfacet
facet normal 0.0 0.0 1.0
  outer loop
    vertex -67.97401003331127 46.74916679287935 -2.255973186038318e-14
    vertex -67.81544115124899 43.52142304772993 -2.255973186038318e-14
    vertex -67.81544115124899 47.38220925521426 -2.255973186038318e-14
  endloop
endfacet
facet normal 0.0 0.0 1.0
  outer loop
    vertex -67.81544115124899 47.38220925521426 -2.255973186038318e-14
    vertex -67.81544115124899 43.52142304772993 -2.255973186038318e-14
    vertex -67.59558680982985 42.90697132624426 -2.255973186038318e-14
  endloop
endfacet
facet normal 0.0 0.0 1.0
  outer loop
    vertex -67.81544115124899 47.38220925521426 -2.255973186038318e-14
    vertex -67.59558680982985 42.90697132624426 -2.255973186038318e-14
    vertex -67.59558680982985 47.99666097669994 -2.255973186038318e-14
  endloop
endfacet
facet normal 0.0 0.0 1.0
  outer loop
    vertex -67.59558680982985 47.99666097669994 -2.255973186038318e-14
    vertex -67.59558680982985 42.90697132624426 -2.255973186038318e-14
    vertex -67.31656432654636 42.317027851579226 -2.255973186038318e-14
  endloop
endfacet
facet normal 0.0 0.0 1.0
  outer loop
    vertex -67.59558680982985 47.99666097669994 -2.255973186038318e-14
    vertex -67.31656432654636 42.317027851579226 -2.255973186038318e-14
    vertex -67.31656432654636 48.58660445136498 -2.255973186038318e-14
  endloop
endfacet
facet normal 0.0 0.0 1.0
  outer loop
    vertex -67.31656432654636 48.58660445136498 -2.255973186038318e-14
    vertex -67.31656432654636 42.317027851579226 -2.255973186038318e-14
    vertex -66.98106084044171 41.75727410189175 -2.255973186038318e-14
  endloop
endfacet
facet normal 0.0 0.0 1.0
  outer loop
    vertex -67.31656432654636 48.58660445136498 -2.255973186038318e-14
    vertex -66.98106084044171 41.75727410189175 -2.255973186038318e-14
    vertex -66.98106084044173 49.14635820105244 -2.255973186038318e-14
  endloop
endfacet
facet normal 0.0 0.0 1.0
  outer loop
    vertex -66.98106084044173 49.14635820105244 -2.255973186038318e-14
    vertex -66.98106084044171 41.75727410189175 -2.255973186038318e-14
    vertex -66.592307433492 49.67053149116033 -2.255973186038318e-14
  endloop
endfacet
facet normal 0.0 0.0 1.0
  outer loop
    vertex -66.592307433492 49.67053149116033 -2.255973186038318e-14
    vertex -66.98106084044171 41.75727410189175 -2.255973186038318e-14
    vertex -66.592307433492 41.23310081178387 -2.255973186038318e-14
  endloop
endfacet
facet normal 0.0 0.0 1.0
  outer loop
    vertex -66.592307433492 49.67053149116033 -2.255973186038318e-14
    vertex -66.592307433492 41.23310081178387 -2.255973186038318e-14
    vertex -66.15404801352034 40.74955605658157 -2.255973186038318e-14
  endloop
endfacet
facet normal 0.0 0.0 1.0
  outer loop
    vertex -66.592307433492 49.67053149116033 -2.255973186038318e-14
    vertex -66.15404801352034 40.74955605658157 -2.255973186038318e-14
    vertex -66.15404801352034 50.154076246362635 -2.255973186038318e-14
  endloop
endfacet
facet normal 0.0 0.0 1.0
  outer loop
    vertex -66.15404801352034 50.154076246362635 -2.255973186038318e-14
    vertex -66.15404801352034 40.74955605658157 -2.255973186038318e-14
    vertex -65.67050325831805 40.31129663660991 -2.255973186038318e-14
  endloop
endfacet
facet normal 0.0 0.0 1.0
  outer loop
    vertex -66.15404801352034 50.154076246362635 -2.255973186038318e-14
    vertex -65.67050325831805 40.31129663660991 -2.255973186038318e-14
    vertex -65.67050325831805 50.59233566633429 -2.255973186038318e-14
  endloop
endfacet
facet normal 0.0 0.0 1.0
  outer loop
    vertex -65.67050325831805 50.59233566633429 -2.255973186038318e-14
    vertex -65.67050325831805 40.31129663660991 -2.255973186038318e-14
    vertex -65.14632996821015 39.92254322966019 -2.255973186038318e-14
  endloop
endfacet
facet normal 0.0 0.0 1.0
  outer loop
    vertex -65.67050325831805 50.59233566633429 -2.255973186038318e-14
    vertex -65.14632996821015 39.92254322966019 -2.255973186038318e-14
    vertex -65.14632996821015 50.98108907328402 -2.255973186038318e-14
  endloop
endfacet
facet normal 0.0 0.0 1.0
  outer loop
    vertex -65.14632996821015 50.98108907328402 -2.255973186038318e-14
    vertex -65.14632996821015 39.92254322966019 -2.255973186038318e-14
    vertex -64.5865762185227 39.58703974355555 -2.255973186038318e-14
  endloop
endfacet
facet normal 0.0 0.0 1.0
  outer loop
    vertex -65.14632996821015 50.98108907328402 -2.255973186038318e-14
    vertex -64.5865762185227 39.58703974355555 -2.255973186038318e-14
    vertex -64.5865762185227 51.31659255938866 -2.255973186038318e-14
  endloop
endfacet
facet normal 0.0 0.0 1.0
  outer loop
    vertex -64.5865762185227 51.31659255938866 -2.255973186038318e-14
    vertex -64.5865762185227 39.58703974355555 -2.255973186038318e-14
    vertex -63.99663274385766 39.30801726027206 -2.255973186038318e-14
  endloop
endfacet
facet normal 0.0 0.0 1.0
  outer loop
    vertex -64.5865762185227 51.31659255938866 -2.255973186038318e-14
    vertex -63.99663274385766 39.30801726027206 -2.255973186038318e-14
    vertex -63.996632743857646 51.59561504267215 -2.255973186038318e-14
  endloop
endfacet
facet normal 0.0 0.0 1.0
  outer loop
    vertex -63.996632743857646 51.59561504267215 -2.255973186038318e-14
    vertex -63.99663274385766 39.30801726027206 -2.255973186038318e-14
    vertex -63.382181022371995 39.08816291885292 -2.255973186038318e-14
  endloop
endfacet
facet normal 0.0 0.0 1.0
  outer loop
    vertex -63.996632743857646 51.59561504267215 -2.255973186038318e-14
    vertex -63.382181022371995 39.08816291885292 -2.255973186038318e-14
    vertex -63.38218102237198 51.81546938409129 -2.255973186038318e-14
  endloop
endfacet
facet normal 0.0 0.0 1.0
  outer loop
    vertex -63.38218102237198 51.81546938409129 -2.255973186038318e-14
    vertex -63.382181022371995 39.08816291885292 -2.255973186038318e-14
    vertex -62.74913856003707 38.92959403679063 -2.255973186038318e-14
  endloop
endfacet
facet normal 0.0 0.0 1.0
  outer loop
    vertex -63.38218102237198 51.81546938409129 -2.255973186038318e-14
    vertex -62.74913856003707 38.92959403679063 -2.255973186038318e-14
    vertex -62.74913856003706 51.97403826615358 -2.255973186038318e-14
  endloop
endfacet
facet normal 0.0 0.0 1.0
  outer loop
    vertex -62.74913856003706 51.97403826615358 -2.255973186038318e-14
    vertex -62.74913856003707 38.92959403679063 -2.255973186038318e-14
    vertex -62.103601901821406 38.833837719102 -2.255973186038318e-14
  endloop
endfacet
facet normal 0.0 0.0 1.0
  outer loop
    vertex -62.74913856003706 51.97403826615358 -2.255973186038318e-14
    vertex -62.103601901821406 38.833837719102 -2.255973186038318e-14
    vertex -62.10360190182138 52.06979458384221 -2.255973186038318e-14
  endloop
endfacet
facet normal 0.0 0.0 1.0
  outer loop
    vertex -62.10360190182138 52.06979458384221 -2.255973186038318e-14
    vertex -62.103601901821406 38.833837719102 -2.255973186038318e-14
    vertex -61.45178791862979 38.8018161514721 -2.255973186038318e-14
  endloop
endfacet
facet normal 0.0 0.0 1.0
  outer loop
    vertex -62.10360190182138 52.06979458384221 -2.255973186038318e-14
    vertex -61.45178791862979 38.8018161514721 -2.255973186038318e-14
    vertex -61.451787918629805 52.10181615147211 -2.255973186038318e-14
  endloop
endfacet
facet normal 0.0 0.0 1.0
  outer loop
    vertex -61.451787918629805 52.10181615147211 -2.255973186038318e-14
    vertex -61.45178791862979 38.8018161514721 -2.255973186038318e-14
    vertex -60.799973935438224 52.06979458384221 -2.255973186038318e-14
  endloop
endfacet
facet normal 0.0 0.0 1.0
  outer loop
    vertex -60.799973935438224 52.06979458384221 -2.255973186038318e-14
    vertex -61.45178791862979 38.8018161514721 -2.255973186038318e-14
    vertex -60.79997393543822 38.833837719102 -2.255973186038318e-14
  endloop
endfacet
facet normal 0.0 0.0 1.0
  outer loop
    vertex -60.799973935438224 52.06979458384221 -2.255973186038318e-14
    vertex -60.79997393543822 38.833837719102 -2.255973186038318e-14
    vertex -60.15443727722255 51.97403826615359 -2.255973186038318e-14
  endloop
endfacet
facet normal 0.0 0.0 1.0
  outer loop
    vertex -60.15443727722255 51.97403826615359 -2.255973186038318e-14
    vertex -60.79997393543822 38.833837719102 -2.255973186038318e-14
    vertex -60.154437277222534 38.929594036790625 -2.255973186038318e-14
  endloop
endfacet
facet normal 0.0 0.0 1.0
  outer loop
    vertex -60.15443727722255 51.97403826615359 -2.255973186038318e-14
    vertex -60.154437277222534 38.929594036790625 -2.255973186038318e-14
    vertex -59.52139481488762 51.8154693840913 -2.255973186038318e-14
  endloop
endfacet
facet normal 0.0 0.0 1.0
  outer loop
    vertex -59.52139481488762 51.8154693840913 -2.255973186038318e-14
    vertex -60.154437277222534 38.929594036790625 -2.255973186038318e-14
    vertex -59.521394814887614 39.088162918852916 -2.255973186038318e-14
  endloop
endfacet
facet normal 0.0 0.0 1.0
  outer loop
    vertex -59.52139481488762 51.8154693840913 -2.255973186038318e-14
    vertex -59.521394814887614 39.088162918852916 -2.255973186038318e-14
    vertex -58.906943093401956 51.595615042672165 -2.255973186038318e-14
  endloop
endfacet
facet normal 0.0 0.0 1.0
  outer loop
    vertex -58.906943093401956 51.595615042672165 -2.255973186038318e-14
    vertex -59.521394814887614 39.088162918852916 -2.255973186038318e-14
    vertex -58.90694309340195 39.308017260272045 -2.255973186038318e-14
  endloop
endfacet
facet normal 0.0 0.0 1.0
  outer loop
    vertex -58.906943093401956 51.595615042672165 -2.255973186038318e-14
    vertex -58.90694309340195 39.308017260272045 -2.255973186038318e-14
    vertex -58.31699961873692 51.31659255938867 -2.255973186038318e-14
  endloop
endfacet
facet normal 0.0 0.0 1.0
  outer loop
    vertex -58.31699961873692 51.31659255938867 -2.255973186038318e-14
    vertex -58.90694309340195 39.308017260272045 -2.255973186038318e-14
    vertex -58.31699961873691 39.58703974355554 -2.255973186038318e-14
  endloop
endfacet
facet normal 0.0 0.0 1.0
  outer loop
    vertex -58.31699961873692 51.31659255938867 -2.255973186038318e-14
    vertex -58.31699961873691 39.58703974355554 -2.255973186038318e-14
    vertex -57.75724586904945 50.98108907328403 -2.255973186038318e-14
  endloop
endfacet
facet normal 0.0 0.0 1.0
  outer loop
    vertex -57.75724586904945 50.98108907328403 -2.255973186038318e-14
    vertex -58.31699961873691 39.58703974355554 -2.255973186038318e-14
    vertex -57.757245869049434 39.92254322966018 -2.255973186038318e-14
  endloop
endfacet
facet normal 0.0 0.0 1.0
  outer loop
    vertex -57.75724586904945 50.98108907328403 -2.255973186038318e-14
    vertex -57.757245869049434 39.92254322966018 -2.255973186038318e-14
    vertex -57.23307257894156 50.59233566633431 -2.255973186038318e-14
  endloop
endfacet
facet normal 0.0 0.0 1.0
  outer loop
    vertex -57.23307257894156 50.59233566633431 -2.255973186038318e-14
    vertex -57.757245869049434 39.92254322966018 -2.255973186038318e-14
    vertex -57.233072578941545 40.31129663660991 -2.255973186038318e-14
  endloop
endfacet
facet normal 0.0 0.0 1.0
  outer loop
    vertex -57.23307257894156 50.59233566633431 -2.255973186038318e-14
    vertex -57.233072578941545 40.31129663660991 -2.255973186038318e-14
    vertex -56.74952782373925 50.15407624636265 -2.255973186038318e-14
  endloop
endfacet
facet normal 0.0 0.0 1.0
  outer loop
    vertex -56.74952782373925 50.15407624636265 -2.255973186038318e-14
    vertex -57.233072578941545 40.31129663660991 -2.255973186038318e-14
    vertex -56.74952782373925 40.74955605658157 -2.255973186038318e-14
  endloop
endfacet
facet normal 0.0 0.0 1.0
  outer loop
    vertex -56.74952782373925 50.15407624636265 -2.255973186038318e-14
    vertex -56.74952782373925 40.74955605658157 -2.255973186038318e-14
    vertex -56.31126840376759 41.23310081178386 -2.255973186038318e-14
  endloop
endfacet
facet normal 0.0 0.0 1.0
  outer loop
    vertex -56.74952782373925 50.15407624636265 -2.255973186038318e-14
    vertex -56.31126840376759 41.23310081178386 -2.255973186038318e-14
    vertex -56.31126840376759 49.670531491160354 -2.255973186038318e-14
  endloop
endfacet
facet normal 0.0 0.0 1.0
  outer loop
    vertex -56.31126840376759 49.670531491160354 -2.255973186038318e-14
    vertex -56.31126840376759 41.23310081178386 -2.255973186038318e-14
    vertex -55.92251499681787 41.75727410189175 -2.255973186038318e-14
  endloop
endfacet
facet normal 0.0 0.0 1.0
  outer loop
    vertex -56.31126840376759 49.670531491160354 -2.255973186038318e-14
    vertex -55.92251499681787 41.75727410189175 -2.255973186038318e-14
    vertex -55.92251499681787 49.146358201052465 -2.255973186038318e-14
  endloop
endfacet
facet normal 0.0 0.0 1.0
  outer loop
    vertex -55.92251499681787 49.146358201052465 -2.255973186038318e-14
    vertex -55.92251499681787 41.75727410189175 -2.255973186038318e-14
    vertex -55.587011510713225 42.317027851579226 -2.255973186038318e-14
  endloop
endfacet
facet normal 0.0 0.0 1.0
  outer loop
    vertex -55.92251499681787 49.146358201052465 -2.255973186038318e-14
    vertex -55.587011510713225 42.317027851579226 -2.255973186038318e-14
    vertex -55.58701151071324 48.58660445136499 -2.255973186038318e-14
  endloop
endfacet
facet normal 0.0 0.0 1.0
  outer loop
    vertex -55.58701151071324 48.58660445136499 -2.255973186038318e-14
    vertex -55.587011510713225 42.317027851579226 -2.255973186038318e-14
    vertex -55.307989027429734 47.99666097669996 -2.255973186038318e-14
  endloop
endfacet
facet normal 0.0 0.0 1.0
  outer loop
    vertex -55.307989027429734 47.99666097669996 -2.255973186038318e-14
    vertex -55.587011510713225 42.317027851579226 -2.255973186038318e-14
    vertex -55.307989027429734 42.90697132624426 -2.255973186038318e-14
  endloop
endfacet
facet normal 0.0 0.0 1.0
  outer loop
    vertex -55.307989027429734 47.99666097669996 -2.255973186038318e-14
    vertex -55.307989027429734 42.90697132624426 -2.255973186038318e-14
    vertex -55.0881346860106 43.52142304772993 -2.255973186038318e-14
  endloop
endfacet
facet normal 0.0 0.0 1.0
  outer loop
    vertex -55.307989027429734 47.99666097669996 -2.255973186038318e-14
    vertex -55.0881346860106 43.52142304772993 -2.255973186038318e-14
    vertex -55.088134686010605 47.382209255214285 -2.255973186038318e-14
  endloop
endfacet
facet normal 0.0 0.0 1.0
  outer loop
    vertex -55.088134686010605 47.382209255214285 -2.255973186038318e-14
    vertex -55.0881346860106 43.52142304772993 -2.255973186038318e-14
    vertex -54.929565803948314 46.74916679287936 -2.255973186038318e-14
  endloop
endfacet
facet normal 0.0 0.0 1.0
  outer loop
    vertex -54.929565803948314 46.74916679287936 -2.255973186038318e-14
    vertex -55.0881346860106 43.52142304772993 -2.255973186038318e-14
    vertex -54.92956580394831 44.15446551006485 -2.255973186038318e-14
  endloop
endfacet
facet normal 0.0 0.0 1.0
  outer loop
    vertex -54.929565803948314 46.74916679287936 -2.255973186038318e-14
    vertex -54.92956580394831 44.15446551006485 -2.255973186038318e-14
    vertex -54.83380948625968 46.10363013466369 -2.255973186038318e-14
  endloop
endfacet
facet normal 0.0 0.0 1.0
  outer loop
    vertex -54.83380948625968 46.10363013466369 -2.255973186038318e-14
    vertex -54.92956580394831 44.15446551006485 -2.255973186038318e-14
    vertex -54.83380948625968 44.80000216828053 -2.255973186038318e-14
  endloop
endfacet
facet normal 0.0 0.0 1.0
  outer loop
    vertex -54.83380948625968 46.10363013466369 -2.255973186038318e-14
    vertex -54.83380948625968 44.80000216828053 -2.255973186038318e-14
    vertex -54.80178791862979 45.45181615147211 -2.255973186038318e-14
  endloop
endfacet
facet normal 0.04906767432742029 0.9987954562051723 0.0
  outer loop
    vertex -61.451787918629805 52.10181615147211 -2.255973186038318e-14
    vertex -60.799973935438224 52.06979458384221 -2.000000000000022
    vertex -61.451787918629805 52.10181615147211 -2.000000000000022
  endloop
endfacet
facet normal 0.04906767432742029 0.9987954562051723 0.0
  outer loop
    vertex -60.799973935438224 52.06979458384221 -2.000000000000022
    vertex -61.451787918629805 52.10181615147211 -2.255973186038318e-14
    vertex -60.799973935438224 52.06979458384221 -2.255973186038318e-14
  endloop
endfacet
facet normal 0.14673047445535187 0.9891765099647825 0.0
  outer loop
    vertex -60.799973935438224 52.06979458384221 -2.255973186038318e-14
    vertex -60.15443727722255 51.97403826615359 -2.000000000000022
    vertex -60.799973935438224 52.06979458384221 -2.000000000000022
  endloop
endfacet
facet normal 0.14673047445535187 0.9891765099647825 0.0
  outer loop
    vertex -60.15443727722255 51.97403826615359 -2.000000000000022
    vertex -60.799973935438224 52.06979458384221 -2.255973186038318e-14
    vertex -60.15443727722255 51.97403826615359 -2.255973186038318e-14
  endloop
endfacet
facet normal -0.24298017990326046 0.9700312531945449 0.0
  outer loop
    vertex -63.38218102237198 51.81546938409129 -2.255973186038318e-14
    vertex -62.74913856003706 51.97403826615358 -2.000000000000022
    vertex -63.38218102237198 51.81546938409129 -2.000000000000022
  endloop
endfacet
facet normal -0.24298017990326046 0.9700312531945449 0.0
  outer loop
    vertex -62.74913856003706 51.97403826615358 -2.000000000000022
    vertex -63.38218102237198 51.81546938409129 -2.255973186038318e-14
    vertex -62.74913856003706 51.97403826615358 -2.255973186038318e-14
  endloop
endfacet
facet normal 0.5141027441932231 0.8577286100002712 0.0
  outer loop
    vertex -58.31699961873692 51.31659255938867 -2.255973186038318e-14
    vertex -57.75724586904945 50.98108907328403 -2.000000000000022
    vertex -58.31699961873692 51.31659255938867 -2.000000000000022
  endloop
endfacet
facet normal 0.5141027441932231 0.8577286100002712 0.0
  outer loop
    vertex -57.75724586904945 50.98108907328403 -2.000000000000022
    vertex -58.31699961873692 51.31659255938867 -2.255973186038318e-14
    vertex -57.75724586904945 50.98108907328403 -2.255973186038318e-14
  endloop
endfacet
facet normal -0.04906767432742029 0.9987954562051723 0.0
  outer loop
    vertex -62.10360190182138 52.06979458384221 -2.255973186038318e-14
    vertex -61.451787918629805 52.10181615147211 -2.000000000000022
    vertex -62.10360190182138 52.06979458384221 -2.000000000000022
  endloop
endfacet
facet normal -0.04906767432742029 0.9987954562051723 0.0
  outer loop
    vertex -61.451787918629805 52.10181615147211 -2.000000000000022
    vertex -62.10360190182138 52.06979458384221 -2.255973186038318e-14
    vertex -61.451787918629805 52.10181615147211 -2.255973186038318e-14
  endloop
endfacet
facet normal 0.5956993044924311 0.8032075314806466 0.0
  outer loop
    vertex -57.75724586904945 50.98108907328403 -2.255973186038318e-14
    vertex -57.23307257894156 50.59233566633431 -2.000000000000022
    vertex -57.75724586904945 50.98108907328403 -2.000000000000022
  endloop
endfacet
facet normal 0.5956993044924311 0.8032075314806466 0.0
  outer loop
    vertex -57.23307257894156 50.59233566633431 -2.000000000000022
    vertex -57.75724586904945 50.98108907328403 -2.255973186038318e-14
    vertex -57.23307257894156 50.59233566633431 -2.255973186038318e-14
  endloop
endfacet
facet normal -0.14673047445536877 0.9891765099647799 0.0
  outer loop
    vertex -62.74913856003706 51.97403826615358 -2.255973186038318e-14
    vertex -62.10360190182138 52.06979458384221 -2.000000000000022
    vertex -62.74913856003706 51.97403826615358 -2.000000000000022
  endloop
endfacet
facet normal -0.14673047445536877 0.9891765099647799 0.0
  outer loop
    vertex -62.10360190182138 52.06979458384221 -2.000000000000022
    vertex -62.74913856003706 51.97403826615358 -2.255973186038318e-14
    vertex -62.10360190182138 52.06979458384221 -2.255973186038318e-14
  endloop
endfacet
facet normal -0.3368898533922279 0.9415440651830179 0.0
  outer loop
    vertex -63.996632743857646 51.59561504267215 -2.255973186038318e-14
    vertex -63.38218102237198 51.81546938409129 -2.000000000000022
    vertex -63.996632743857646 51.59561504267215 -2.000000000000022
  endloop
endfacet
facet normal -0.3368898533922279 0.9415440651830179 0.0
  outer loop
    vertex -63.38218102237198 51.81546938409129 -2.000000000000022
    vertex -63.996632743857646 51.59561504267215 -2.255973186038318e-14
    vertex -63.38218102237198 51.81546938409129 -2.255973186038318e-14
  endloop
endfacet
facet normal -0.5956993044924367 0.8032075314806424 0.0
  outer loop
    vertex -65.67050325831805 50.59233566633429 -2.255973186038318e-14
    vertex -65.14632996821015 50.98108907328402 -2.000000000000022
    vertex -65.67050325831805 50.59233566633429 -2.000000000000022
  endloop
endfacet
facet normal -0.5956993044924367 0.8032075314806424 0.0
  outer loop
    vertex -65.14632996821015 50.98108907328402 -2.000000000000022
    vertex -65.67050325831805 50.59233566633429 -2.255973186038318e-14
    vertex -65.14632996821015 50.98108907328402 -2.255973186038318e-14
  endloop
endfacet
facet normal 0.6715589548470112 0.7409511253549657 0.0
  outer loop
    vertex -57.23307257894156 50.59233566633431 -2.255973186038318e-14
    vertex -56.74952782373925 50.15407624636265 -2.000000000000022
    vertex -57.23307257894156 50.59233566633431 -2.000000000000022
  endloop
endfacet
facet normal 0.6715589548470112 0.7409511253549657 0.0
  outer loop
    vertex -56.74952782373925 50.15407624636265 -2.000000000000022
    vertex -57.23307257894156 50.59233566633431 -2.255973186038318e-14
    vertex -56.74952782373925 50.15407624636265 -2.255973186038318e-14
  endloop
endfacet
facet normal 0.24298017990326046 0.9700312531945449 0.0
  outer loop
    vertex -60.15443727722255 51.97403826615359 -2.255973186038318e-14
    vertex -59.52139481488762 51.8154693840913 -2.000000000000022
    vertex -60.15443727722255 51.97403826615359 -2.000000000000022
  endloop
endfacet
facet normal 0.24298017990326046 0.9700312531945449 0.0
  outer loop
    vertex -59.52139481488762 51.8154693840913 -2.000000000000022
    vertex -60.15443727722255 51.97403826615359 -2.255973186038318e-14
    vertex -59.52139481488762 51.8154693840913 -2.255973186038318e-14
  endloop
endfacet
facet normal -0.4275550934302736 0.9039892931234474 0.0
  outer loop
    vertex -64.5865762185227 51.31659255938866 -2.255973186038318e-14
    vertex -63.996632743857646 51.59561504267215 -2.000000000000022
    vertex -64.5865762185227 51.31659255938866 -2.000000000000022
  endloop
endfacet
facet normal -0.4275550934302736 0.9039892931234474 0.0
  outer loop
    vertex -63.996632743857646 51.59561504267215 -2.000000000000022
    vertex -64.5865762185227 51.31659255938866 -2.255973186038318e-14
    vertex -63.996632743857646 51.59561504267215 -2.255973186038318e-14
  endloop
endfacet
facet normal 0.8577286100002789 0.5141027441932103 0.0
  outer loop
    vertex -55.92251499681787 49.146358201052465 -2.000000000000022
    vertex -55.58701151071324 48.58660445136499 -2.255973186038318e-14
    vertex -55.58701151071324 48.58660445136499 -2.000000000000022
  endloop
endfacet
facet normal 0.8577286100002789 0.5141027441932103 0.0
  outer loop
    vertex -55.58701151071324 48.58660445136499 -2.255973186038318e-14
    vertex -55.92251499681787 49.146358201052465 -2.000000000000022
    vertex -55.92251499681787 49.146358201052465 -2.255973186038318e-14
  endloop
endfacet
facet normal -0.5141027441932307 0.8577286100002667 0.0
  outer loop
    vertex -65.14632996821015 50.98108907328402 -2.255973186038318e-14
    vertex -64.5865762185227 51.31659255938866 -2.000000000000022
    vertex -65.14632996821015 50.98108907328402 -2.000000000000022
  endloop
endfacet
facet normal -0.5141027441932307 0.8577286100002667 0.0
  outer loop
    vertex -64.5865762185227 51.31659255938866 -2.000000000000022
    vertex -65.14632996821015 50.98108907328402 -2.255973186038318e-14
    vertex -64.5865762185227 51.31659255938866 -2.255973186038318e-14
  endloop
endfacet
facet normal 0.7409511253549579 0.6715589548470199 0.0
  outer loop
    vertex -56.74952782373925 50.15407624636265 -2.000000000000022
    vertex -56.31126840376759 49.670531491160354 -2.255973186038318e-14
    vertex -56.31126840376759 49.670531491160354 -2.000000000000022
  endloop
endfacet
facet normal 0.7409511253549579 0.6715589548470199 0.0
  outer loop
    vertex -56.31126840376759 49.670531491160354 -2.255973186038318e-14
    vertex -56.74952782373925 50.15407624636265 -2.000000000000022
    vertex -56.74952782373925 50.15407624636265 -2.255973186038318e-14
  endloop
endfacet
facet normal -0.6715589548470199 0.7409511253549579 0.0
  outer loop
    vertex -66.15404801352034 50.154076246362635 -2.255973186038318e-14
    vertex -65.67050325831805 50.59233566633429 -2.000000000000022
    vertex -66.15404801352034 50.154076246362635 -2.000000000000022
  endloop
endfacet
facet normal -0.6715589548470199 0.7409511253549579 0.0
  outer loop
    vertex -65.67050325831805 50.59233566633429 -2.000000000000022
    vertex -66.15404801352034 50.154076246362635 -2.255973186038318e-14
    vertex -65.67050325831805 50.59233566633429 -2.255973186038318e-14
  endloop
endfacet
facet normal -0.8032075314806424 0.5956993044924367 0.0
  outer loop
    vertex -66.592307433492 49.67053149116033 -2.255973186038318e-14
    vertex -66.98106084044173 49.14635820105244 -2.000000000000022
    vertex -66.98106084044173 49.14635820105244 -2.255973186038318e-14
  endloop
endfacet
facet normal -0.8032075314806424 0.5956993044924367 0.0
  outer loop
    vertex -66.98106084044173 49.14635820105244 -2.000000000000022
    vertex -66.592307433492 49.67053149116033 -2.255973186038318e-14
    vertex -66.592307433492 49.67053149116033 -2.000000000000022
  endloop
endfacet
facet normal -0.7409511253549618 0.6715589548470156 0.0
  outer loop
    vertex -66.15404801352034 50.154076246362635 -2.255973186038318e-14
    vertex -66.592307433492 49.67053149116033 -2.000000000000022
    vertex -66.592307433492 49.67053149116033 -2.255973186038318e-14
  endloop
endfacet
facet normal -0.7409511253549618 0.6715589548470156 0.0
  outer loop
    vertex -66.592307433492 49.67053149116033 -2.000000000000022
    vertex -66.15404801352034 50.154076246362635 -2.255973186038318e-14
    vertex -66.15404801352034 50.154076246362635 -2.000000000000022
  endloop
endfacet
facet normal -0.8577286100002766 0.5141027441932141 0.0
  outer loop
    vertex -66.98106084044173 49.14635820105244 -2.255973186038318e-14
    vertex -67.31656432654636 48.58660445136498 -2.000000000000022
    vertex -67.31656432654636 48.58660445136498 -2.255973186038318e-14
  endloop
endfacet
facet normal -0.8577286100002766 0.5141027441932141 0.0
  outer loop
    vertex -67.31656432654636 48.58660445136498 -2.000000000000022
    vertex -66.98106084044173 49.14635820105244 -2.255973186038318e-14
    vertex -66.98106084044173 49.14635820105244 -2.000000000000022
  endloop
endfacet
facet normal 0.3368898533922279 0.9415440651830179 0.0
  outer loop
    vertex -59.52139481488762 51.8154693840913 -2.255973186038318e-14
    vertex -58.906943093401956 51.595615042672165 -2.000000000000022
    vertex -59.52139481488762 51.8154693840913 -2.000000000000022
  endloop
endfacet
facet normal 0.3368898533922279 0.9415440651830179 0.0
  outer loop
    vertex -58.906943093401956 51.595615042672165 -2.000000000000022
    vertex -59.52139481488762 51.8154693840913 -2.255973186038318e-14
    vertex -58.906943093401956 51.595615042672165 -2.255973186038318e-14
  endloop
endfacet
facet normal 0.8032075314806424 0.5956993044924367 0.0
  outer loop
    vertex -56.31126840376759 49.670531491160354 -2.000000000000022
    vertex -55.92251499681787 49.146358201052465 -2.255973186038318e-14
    vertex -55.92251499681787 49.146358201052465 -2.000000000000022
  endloop
endfacet
facet normal 0.8032075314806424 0.5956993044924367 0.0
  outer loop
    vertex -55.92251499681787 49.146358201052465 -2.255973186038318e-14
    vertex -56.31126840376759 49.670531491160354 -2.000000000000022
    vertex -56.31126840376759 49.670531491160354 -2.255973186038318e-14
  endloop
endfacet
facet normal 0.42755509343028025 0.9039892931234442 0.0
  outer loop
    vertex -58.906943093401956 51.595615042672165 -2.255973186038318e-14
    vertex -58.31699961873692 51.31659255938867 -2.000000000000022
    vertex -58.906943093401956 51.595615042672165 -2.000000000000022
  endloop
endfacet
facet normal 0.42755509343028025 0.9039892931234442 0.0
  outer loop
    vertex -58.31699961873692 51.31659255938867 -2.000000000000022
    vertex -58.906943093401956 51.595615042672165 -2.255973186038318e-14
    vertex -58.31699961873692 51.31659255938867 -2.255973186038318e-14
  endloop
endfacet
facet normal -0.3368898533922279 -0.9415440651830179 0.0
  outer loop
    vertex -63.382181022371995 39.08816291885292 -2.255973186038318e-14
    vertex -63.99663274385766 39.30801726027206 -2.000000000000022
    vertex -63.382181022371995 39.08816291885292 -2.000000000000022
  endloop
endfacet
facet normal -0.3368898533922279 -0.9415440651830179 0.0
  outer loop
    vertex -63.99663274385766 39.30801726027206 -2.000000000000022
    vertex -63.382181022371995 39.08816291885292 -2.255973186038318e-14
    vertex -63.99663274385766 39.30801726027206 -2.255973186038318e-14
  endloop
endfacet
facet normal -0.941544065183019 0.3368898533922252 0.0
  outer loop
    vertex -67.59558680982985 47.99666097669994 -2.255973186038318e-14
    vertex -67.81544115124899 47.38220925521426 -2.000000000000022
    vertex -67.81544115124899 47.38220925521426 -2.255973186038318e-14
  endloop
endfacet
facet normal -0.941544065183019 0.3368898533922252 0.0
  outer loop
    vertex -67.81544115124899 47.38220925521426 -2.000000000000022
    vertex -67.59558680982985 47.99666097669994 -2.255973186038318e-14
    vertex -67.59558680982985 47.99666097669994 -2.000000000000022
  endloop
endfacet
facet normal -0.941544065183019 -0.3368898533922252 0.0
  outer loop
    vertex -67.81544115124899 43.52142304772993 -2.255973186038318e-14
    vertex -67.59558680982985 42.90697132624426 -2.000000000000022
    vertex -67.59558680982985 42.90697132624426 -2.255973186038318e-14
  endloop
endfacet
facet normal -0.941544065183019 -0.3368898533922252 0.0
  outer loop
    vertex -67.59558680982985 42.90697132624426 -2.000000000000022
    vertex -67.81544115124899 43.52142304772993 -2.255973186038318e-14
    vertex -67.81544115124899 43.52142304772993 -2.000000000000022
  endloop
endfacet
facet normal -0.8577286100002712 -0.5141027441932231 0.0
  outer loop
    vertex -67.31656432654636 42.317027851579226 -2.255973186038318e-14
    vertex -66.98106084044171 41.75727410189175 -2.000000000000022
    vertex -66.98106084044171 41.75727410189175 -2.255973186038318e-14
  endloop
endfacet
facet normal -0.8577286100002712 -0.5141027441932231 0.0
  outer loop
    vertex -66.98106084044171 41.75727410189175 -2.000000000000022
    vertex -67.31656432654636 42.317027851579226 -2.255973186038318e-14
    vertex -67.31656432654636 42.317027851579226 -2.000000000000022
  endloop
endfacet
facet normal -0.5956993044924311 -0.8032075314806466 0.0
  outer loop
    vertex -65.14632996821015 39.92254322966019 -2.255973186038318e-14
    vertex -65.67050325831805 40.31129663660991 -2.000000000000022
    vertex -65.14632996821015 39.92254322966019 -2.000000000000022
  endloop
endfacet
facet normal -0.5956993044924311 -0.8032075314806466 0.0
  outer loop
    vertex -65.67050325831805 40.31129663660991 -2.000000000000022
    vertex -65.14632996821015 39.92254322966019 -2.255973186038318e-14
    vertex -65.67050325831805 40.31129663660991 -2.255973186038318e-14
  endloop
endfacet
facet normal -0.24298017990326046 -0.9700312531945449 0.0
  outer loop
    vertex -62.74913856003707 38.92959403679063 -2.255973186038318e-14
    vertex -63.382181022371995 39.08816291885292 -2.000000000000022
    vertex -62.74913856003707 38.92959403679063 -2.000000000000022
  endloop
endfacet
facet normal -0.24298017990326046 -0.9700312531945449 0.0
  outer loop
    vertex -63.382181022371995 39.08816291885292 -2.000000000000022
    vertex -62.74913856003707 38.92959403679063 -2.255973186038318e-14
    vertex -63.382181022371995 39.08816291885292 -2.255973186038318e-14
  endloop
endfacet
facet normal -0.9039892931234442 0.42755509343028025 0.0
  outer loop
    vertex -67.31656432654636 48.58660445136498 -2.255973186038318e-14
    vertex -67.59558680982985 47.99666097669994 -2.000000000000022
    vertex -67.59558680982985 47.99666097669994 -2.255973186038318e-14
  endloop
endfacet
facet normal -0.9039892931234442 0.42755509343028025 0.0
  outer loop
    vertex -67.59558680982985 47.99666097669994 -2.000000000000022
    vertex -67.31656432654636 48.58660445136498 -2.255973186038318e-14
    vertex -67.31656432654636 48.58660445136498 -2.000000000000022
  endloop
endfacet
facet normal -0.04906767432741775 -0.9987954562051724 0.0
  outer loop
    vertex -61.45178791862979 38.8018161514721 -2.255973186038318e-14
    vertex -62.103601901821406 38.833837719102 -2.000000000000022
    vertex -61.45178791862979 38.8018161514721 -2.000000000000022
  endloop
endfacet
facet normal -0.04906767432741775 -0.9987954562051724 0.0
  outer loop
    vertex -62.103601901821406 38.833837719102 -2.000000000000022
    vertex -61.45178791862979 38.8018161514721 -2.255973186038318e-14
    vertex -62.103601901821406 38.833837719102 -2.255973186038318e-14
  endloop
endfacet
facet normal -0.1467304744553713 -0.9891765099647796 0.0
  outer loop
    vertex -62.103601901821406 38.833837719102 -2.255973186038318e-14
    vertex -62.74913856003707 38.92959403679063 -2.000000000000022
    vertex -62.103601901821406 38.833837719102 -2.000000000000022
  endloop
endfacet
facet normal -0.1467304744553713 -0.9891765099647796 0.0
  outer loop
    vertex -62.74913856003707 38.92959403679063 -2.000000000000022
    vertex -62.103601901821406 38.833837719102 -2.255973186038318e-14
    vertex -62.74913856003707 38.92959403679063 -2.255973186038318e-14
  endloop
endfacet
facet normal -0.9987954562051723 -0.049067674327420714 0.0
  outer loop
    vertex -68.1017879186298 45.4518161514721 -2.255973186038318e-14
    vertex -68.0697663509999 44.80000216828053 -2.000000000000022
    vertex -68.0697663509999 44.80000216828053 -2.255973186038318e-14
  endloop
endfacet
facet normal -0.9987954562051723 -0.049067674327420714 0.0
  outer loop
    vertex -68.0697663509999 44.80000216828053 -2.000000000000022
    vertex -68.1017879186298 45.4518161514721 -2.255973186038318e-14
    vertex -68.1017879186298 45.4518161514721 -2.000000000000022
  endloop
endfacet
facet normal -0.6715589548470199 -0.7409511253549579 0.0
  outer loop
    vertex -65.67050325831805 40.31129663660991 -2.255973186038318e-14
    vertex -66.15404801352034 40.74955605658157 -2.000000000000022
    vertex -65.67050325831805 40.31129663660991 -2.000000000000022
  endloop
endfacet
facet normal -0.6715589548470199 -0.7409511253549579 0.0
  outer loop
    vertex -66.15404801352034 40.74955605658157 -2.000000000000022
    vertex -65.67050325831805 40.31129663660991 -2.255973186038318e-14
    vertex -66.15404801352034 40.74955605658157 -2.255973186038318e-14
  endloop
endfacet
facet normal -0.8032075314806476 -0.5956993044924297 0.0
  outer loop
    vertex -66.98106084044171 41.75727410189175 -2.255973186038318e-14
    vertex -66.592307433492 41.23310081178387 -2.000000000000022
    vertex -66.592307433492 41.23310081178387 -2.255973186038318e-14
  endloop
endfacet
facet normal -0.8032075314806476 -0.5956993044924297 0.0
  outer loop
    vertex -66.592307433492 41.23310081178387 -2.000000000000022
    vertex -66.98106084044171 41.75727410189175 -2.255973186038318e-14
    vertex -66.98106084044171 41.75727410189175 -2.000000000000022
  endloop
endfacet
facet normal -0.9700312531945444 0.24298017990326248 0.0
  outer loop
    vertex -67.81544115124899 47.38220925521426 -2.255973186038318e-14
    vertex -67.97401003331127 46.74916679287935 -2.000000000000022
    vertex -67.97401003331127 46.74916679287935 -2.255973186038318e-14
  endloop
endfacet
facet normal -0.9700312531945444 0.24298017990326248 0.0
  outer loop
    vertex -67.97401003331127 46.74916679287935 -2.000000000000022
    vertex -67.81544115124899 47.38220925521426 -2.255973186038318e-14
    vertex -67.81544115124899 47.38220925521426 -2.000000000000022
  endloop
endfacet
facet normal -0.9700312531945444 -0.24298017990326248 0.0
  outer loop
    vertex -67.97401003331127 44.15446551006485 -2.255973186038318e-14
    vertex -67.81544115124899 43.52142304772993 -2.000000000000022
    vertex -67.81544115124899 43.52142304772993 -2.255973186038318e-14
  endloop
endfacet
facet normal -0.9700312531945444 -0.24298017990326248 0.0
  outer loop
    vertex -67.81544115124899 43.52142304772993 -2.000000000000022
    vertex -67.97401003331127 44.15446551006485 -2.255973186038318e-14
    vertex -67.97401003331127 44.15446551006485 -2.000000000000022
  endloop
endfacet
facet normal -0.7409511253549618 -0.6715589548470156 0.0
  outer loop
    vertex -66.592307433492 41.23310081178387 -2.255973186038318e-14
    vertex -66.15404801352034 40.74955605658157 -2.000000000000022
    vertex -66.15404801352034 40.74955605658157 -2.255973186038318e-14
  endloop
endfacet
facet normal -0.7409511253549618 -0.6715589548470156 0.0
  outer loop
    vertex -66.15404801352034 40.74955605658157 -2.000000000000022
    vertex -66.592307433492 41.23310081178387 -2.255973186038318e-14
    vertex -66.592307433492 41.23310081178387 -2.000000000000022
  endloop
endfacet
facet normal -0.5141027441932307 -0.8577286100002667 0.0
  outer loop
    vertex -64.5865762185227 39.58703974355555 -2.255973186038318e-14
    vertex -65.14632996821015 39.92254322966019 -2.000000000000022
    vertex -64.5865762185227 39.58703974355555 -2.000000000000022
  endloop
endfacet
facet normal -0.5141027441932307 -0.8577286100002667 0.0
  outer loop
    vertex -65.14632996821015 39.92254322966019 -2.000000000000022
    vertex -64.5865762185227 39.58703974355555 -2.255973186038318e-14
    vertex -65.14632996821015 39.92254322966019 -2.255973186038318e-14
  endloop
endfacet
facet normal -0.9039892931234427 -0.4275550934302836 0.0
  outer loop
    vertex -67.59558680982985 42.90697132624426 -2.255973186038318e-14
    vertex -67.31656432654636 42.317027851579226 -2.000000000000022
    vertex -67.31656432654636 42.317027851579226 -2.255973186038318e-14
  endloop
endfacet
facet normal -0.9039892931234427 -0.4275550934302836 0.0
  outer loop
    vertex -67.31656432654636 42.317027851579226 -2.000000000000022
    vertex -67.59558680982985 42.90697132624426 -2.255973186038318e-14
    vertex -67.59558680982985 42.90697132624426 -2.000000000000022
  endloop
endfacet
facet normal -0.9891765099647823 0.14673047445535312 0.0
  outer loop
    vertex -67.97401003331127 46.74916679287935 -2.255973186038318e-14
    vertex -68.0697663509999 46.103630134663675 -2.000000000000022
    vertex -68.0697663509999 46.103630134663675 -2.255973186038318e-14
  endloop
endfacet
facet normal -0.9891765099647823 0.14673047445535312 0.0
  outer loop
    vertex -68.0697663509999 46.103630134663675 -2.000000000000022
    vertex -67.97401003331127 46.74916679287935 -2.255973186038318e-14
    vertex -67.97401003331127 46.74916679287935 -2.000000000000022
  endloop
endfacet
facet normal -0.9891765099647825 -0.14673047445535187 0.0
  outer loop
    vertex -68.0697663509999 44.80000216828053 -2.255973186038318e-14
    vertex -67.97401003331127 44.15446551006485 -2.000000000000022
    vertex -67.97401003331127 44.15446551006485 -2.255973186038318e-14
  endloop
endfacet
facet normal -0.9891765099647825 -0.14673047445535187 0.0
  outer loop
    vertex -67.97401003331127 44.15446551006485 -2.000000000000022
    vertex -68.0697663509999 44.80000216828053 -2.255973186038318e-14
    vertex -68.0697663509999 44.80000216828053 -2.000000000000022
  endloop
endfacet
facet normal -0.42755509343028025 -0.9039892931234442 0.0
  outer loop
    vertex -63.99663274385766 39.30801726027206 -2.255973186038318e-14
    vertex -64.5865762185227 39.58703974355555 -2.000000000000022
    vertex -63.99663274385766 39.30801726027206 -2.000000000000022
  endloop
endfacet
facet normal -0.42755509343028025 -0.9039892931234442 0.0
  outer loop
    vertex -64.5865762185227 39.58703974355555 -2.000000000000022
    vertex -63.99663274385766 39.30801726027206 -2.255973186038318e-14
    vertex -64.5865762185227 39.58703974355555 -2.255973186038318e-14
  endloop
endfacet
facet normal -0.9987954562051723 0.04906767432742029 0.0
  outer loop
    vertex -68.0697663509999 46.103630134663675 -2.255973186038318e-14
    vertex -68.1017879186298 45.4518161514721 -2.000000000000022
    vertex -68.1017879186298 45.4518161514721 -2.255973186038318e-14
  endloop
endfacet
facet normal -0.9987954562051723 0.04906767432742029 0.0
  outer loop
    vertex -68.1017879186298 45.4518161514721 -2.000000000000022
    vertex -68.0697663509999 46.103630134663675 -2.255973186038318e-14
    vertex -68.0697663509999 46.103630134663675 -2.000000000000022
  endloop
endfacet
endsolid PushPullBlackSelector
